G04 ================== begin FILE IDENTIFICATION RECORD ==================*
G04 Layout Name:  DRV8313_V10_220621.brd*
G04 Film Name:    BOTTOM*
G04 File Format:  Gerber RS274X*
G04 File Origin:  Cadence Allegro 17.2-S079*
G04 Origin Date:  Wed Jun 22 16:47:48 2022*
G04 *
G04 Layer:  ETCH/BOTTOM*
G04 Layer:  PIN/BOTTOM*
G04 Layer:  VIA CLASS/BOTTOM*
G04 *
G04 Offset:    (0.0000 0.0000)*
G04 Mirror:    No*
G04 Mode:      Positive*
G04 Rotation:  0*
G04 FullContactRelief:  No*
G04 UndefLineWidth:     0.1524*
G04 ================== end FILE IDENTIFICATION RECORD ====================*
%FSLAX55Y55*MOMM*%
%IR0*IPPOS*OFA0.00000B0.00000*MIA0B0*SFA1.00000B1.00000*%
%ADD11C,.508*%
%ADD15C,.762*%
%ADD19O,4.X2.*%
%ADD18O,2.X4.*%
%ADD17C,2.2*%
%ADD14C,1.3*%
%ADD13C,2.5*%
%ADD12C,1.7*%
%ADD10C,6.9*%
%ADD16R,1.8X1.8*%
%ADD20C,.2032*%
%ADD21C,.254*%
%ADD24C,2.2148*%
%ADD23C,3.1148*%
%ADD25C,3.4148*%
%ADD22O,2.9148X4.9148*%
G75*
%LPD*%
G75*
G36*
G01X360000Y6070000D02*
X9640000D01*
G02X9970000Y5740000I0J-330000D01*
G01Y3110000D01*
G02X9900000Y3040000I-70000J0D01*
G01X7860000D01*
G03X7800000Y2980000I0J-60000D01*
G01Y1350000D01*
G03X7860000Y1290000I60000J0D01*
G01X9900000D01*
G02X9970000Y1220000I0J-70000D01*
G01Y360000D01*
G02X9640000Y30000I-330000J0D01*
G01X360000D01*
G02X30000Y360000I0J330000D01*
G01Y5740000D01*
G02X360000Y6070000I330000J0D01*
G37*
%LPC*%
G75*
G36*
G01X8780000Y4935740D02*
X8980000D01*
G02Y4644260I0J-145740D01*
G01X8780000D01*
G02Y4935740I0J145740D01*
G37*
G36*
G01X2716560Y3185000D02*
Y3704430D01*
G02X2703860Y3745000I58450J40570D01*
G02X2846140I71140J0D01*
G02X2833440Y3704430I-71150J0D01*
G01Y3209210D01*
X2852560Y3190080D01*
X2855450Y3189440D01*
G02X2911140Y3120000I-15447J-69440D01*
G02X2840000Y3048860I-71140J0D01*
G02X2770560Y3104550I0J71137D01*
G01X2769920Y3107440D01*
X2733680Y3143680D01*
G02X2716560Y3185000I41318J41326D01*
G37*
G36*
G01X3136560D02*
Y3704430D01*
G02X3123860Y3745000I58450J40570D01*
G02X3266140I71140J0D01*
G02X3253440Y3704430I-71150J0D01*
G01Y3209210D01*
X3272560Y3190080D01*
X3275450Y3189440D01*
G02X3331140Y3120000I-15447J-69440D01*
G02X3260000Y3048860I-71140J0D01*
G02X3190560Y3104550I0J71137D01*
G01X3189920Y3107440D01*
X3153680Y3143680D01*
G02X3136560Y3185000I41318J41326D01*
G37*
G36*
G01X1696700Y5950300D02*
G02X1747000Y5971140I50300J-50283D01*
G01X5460000D01*
G02X5510300Y5950300I-6J-71137D01*
G01X5630300Y5830300D01*
G02X5651140Y5780000I-50297J-50306D01*
G01Y900000D01*
G02X5630300Y849700I-71123J0D01*
G01X5520300Y739700D01*
G02X5470000Y718860I-50306J50297D01*
G01X5265740D01*
Y537000D01*
G02X5235070Y493810I-45745J0D01*
G03X5226730Y460960I6694J-19183D01*
G02X5260740Y373000I-96740J-87960D01*
G02X5130000Y242260I-130740J0D01*
G02X5020080Y302210I0J130746D01*
G03X4985920I-17080J-11003D01*
G02X4766080I-109920J70796D01*
G03X4731920I-17080J-11003D01*
G02X4512080I-109920J70796D01*
G03X4477920I-17080J-11003D01*
G02X4258080I-109920J70796D01*
G03X4223920I-17080J-11003D01*
G02X4004080I-109920J70796D01*
G03X3969920I-17080J-11003D01*
G02X3750080I-109920J70796D01*
G03X3715920I-17080J-11003D01*
G02X3496080I-109920J70796D01*
G03X3461920I-17080J-11003D01*
G02X3242080I-109920J70796D01*
G03X3207920I-17080J-11003D01*
G02X2988080I-109920J70796D01*
G03X2953920I-17080J-11003D01*
G02X2734080I-109920J70796D01*
G03X2699920I-17080J-11003D01*
G02X2480080I-109920J70796D01*
G03X2445920I-17080J-11003D01*
G02X2226080I-109920J70796D01*
G03X2191920I-17080J-11003D01*
G02X1972080I-109920J70796D01*
G03X1937920I-17080J-11003D01*
G02X1828000Y242260I-109920J70796D01*
G02X1697260Y373000I0J130740D01*
G02X1757210Y482920I130746J0D01*
G03Y517080I-11003J17080D01*
G02X1718080Y556210I70790J109920D01*
G03X1683920I-17080J-11003D01*
G02X1574000Y496260I-109920J70796D01*
G02X1443260Y627000I0J130740D01*
G02X1445150Y649160I130741J10D01*
G01X1446040Y654350D01*
X1419700Y680700D01*
G02X1398860Y731000I50297J50306D01*
G01Y1838060D01*
G02X1541140I71140J0D01*
G01Y777540D01*
G03X1563150Y757290I20319J-1D01*
G02X1574000Y757740I10838J-130290D01*
G02X1596160Y755850I10J-130741D01*
G01X1601350Y754960D01*
X1686700Y840300D01*
G02X1737000Y861140I50300J-50283D01*
G01X1800530D01*
X1810800Y871410D01*
Y2091940D01*
G02X1812390Y2106900I71140J3D01*
G01X1813550Y2112310D01*
X1802460Y2123400D01*
X1765900Y2086850D01*
Y1374000D01*
G02X1781140Y1330000I-55897J-44000D01*
G02X1638860I-71140J0D01*
G02X1654100Y1374000I71137J0D01*
G01Y2110000D01*
G02X1670470Y2149530I55913J0D01*
G01X1810470Y2289530D01*
G02X1812430Y2291390I39449J-39607D01*
G03X1813150Y2305720I-6828J7526D01*
G02X1769260Y2420000I126848J114285D01*
G02X2110740I170740J0D01*
G02X2088760Y2336190I-170742J-8D01*
G03X2106460Y2305900I17703J-9972D01*
G01X3420360D01*
G03X3434730Y2340590I0J20321D01*
G01X3434260Y2341050D01*
Y3448950D01*
X3481050Y3495740D01*
X3638950D01*
X3685740Y3448950D01*
Y2341050D01*
X3685270Y2340590D01*
G03X3699640Y2305900I14370J-14369D01*
G01X4706850D01*
X4711300Y2310360D01*
G03X4704280Y2343670I-14367J14367D01*
G02X4658860Y2410000I25723J66330D01*
G02X4674100Y2454000I71137J0D01*
G01Y4406850D01*
X4666850Y4414100D01*
X2990000D01*
G02X2950470Y4430470I0J55913D01*
G01X2766850Y4614100D01*
X2730560D01*
G03X2716200Y4579410I4J-20319D01*
G01X2920300Y4375300D01*
G02X2941140Y4325000I-50297J-50306D01*
G01Y4185000D01*
G02X2798860I-71140J0D01*
G01Y4295530D01*
X2555530Y4538860D01*
X1742840D01*
G03X1728470Y4504170I0J-20321D01*
G01X1731320Y4501320D01*
G02X1748440Y4460000I-41318J-41326D01*
G01Y3764210D01*
X1757070Y3755580D01*
G03X1789360Y3760380I14366J14368D01*
G02X1940000Y3850740I150640J-80387D01*
G02Y3509260I0J-170740D01*
G02X1779570Y3621560I0J170744D01*
G01X1750000D01*
G02X1726820Y3626350I-8J58442D01*
G03X1698440Y3607700I-8061J-18651D01*
G01Y3344210D01*
X1724210Y3318440D01*
X1779570D01*
G02X1940000Y3430740I160430J-58444D01*
G02Y3089260I0J-170740D01*
G02X1779570Y3201560I0J170744D01*
G01X1700000D01*
G02X1658680Y3218680I6J58438D01*
G01X1625000Y3252350D01*
X1591320Y3218680D01*
G02X1550430Y3201560I-41328J41317D01*
G02X1390000Y3089260I-160430J58444D01*
G02Y3430740I0J170740D01*
G02X1498350Y3391960I0J-170753D01*
G03X1531560Y3407660I12891J15706D01*
G01Y3532340D01*
G03X1498350Y3548040I-20319J-6D01*
G02X1390000Y3509260I-108350J131973D01*
G02Y3850740I0J170740D01*
G02X1498350Y3811960I0J-170753D01*
G03X1531560Y3827660I12891J15706D01*
G01Y4025790D01*
X1485790Y4071560D01*
X1380570D01*
G02X1340000Y4058860I-40570J58450D01*
G02Y4201140I0J71140D01*
G02X1380570Y4188440I0J-71150D01*
G01X1510000D01*
G02X1551320Y4171320I-6J-58438D01*
G01X1564220Y4158430D01*
G03X1581560Y4165610I7181J7186D01*
G01Y4225790D01*
X1525790Y4281560D01*
X1380570D01*
G02X1340000Y4268860I-40570J58450D01*
G02Y4411140I0J71140D01*
G02X1380570Y4398440I0J-71150D01*
G01X1550000D01*
G02X1591320Y4381320I-6J-58438D01*
G01X1596870Y4375770D01*
G03X1631560Y4390140I14369J14370D01*
G01Y4435790D01*
X1585790Y4481560D01*
X1380570D01*
G02X1340000Y4468860I-40570J58450D01*
G02Y4611140I0J71140D01*
G02X1378180Y4600030I5J-71141D01*
G01X1380670Y4598440D01*
X1396420D01*
G03X1403610Y4615780I4J10159D01*
G01X1349700Y4669700D01*
G02X1328860Y4720000I50297J50306D01*
G01Y5553000D01*
G02X1349700Y5603300I71137J-6D01*
G01X1446040Y5699650D01*
X1445150Y5704840D01*
G02X1443260Y5727000I128851J22150D01*
G02X1574000Y5857740I130740J0D01*
G02X1596160Y5855850I10J-130741D01*
G01X1601350Y5854960D01*
X1696700Y5950300D01*
G37*
G54D24*
X3920000Y3640000D03*
G54D23*
X6901000Y5150000D03*
G54D25*
X1940000Y2840000D03*
X1390000Y2420000D03*
G54D22*
X8600000Y4310000D03*
%LPD*%
G75*
G36*
G01X1683920Y5656210D02*
G02X1718080I17080J-11003D01*
G03X1757210Y5617080I109920J70790D01*
G02Y5582920I-11003J-17080D01*
G03X1697260Y5473000I70796J-109920D01*
G03X1828000Y5342260I130740J0D01*
G03X1937920Y5402210I0J130746D01*
G02X1972080I17080J-11003D01*
G03X2191920I109920J70796D01*
G02X2226080I17080J-11003D01*
G03X2445920I109920J70796D01*
G02X2480080I17080J-11003D01*
G03X2699920I109920J70796D01*
G02X2734080I17080J-11003D01*
G03X2953920I109920J70796D01*
G02X2988080I17080J-11003D01*
G03X3207920I109920J70796D01*
G02X3242080I17080J-11003D01*
G03X3461920I109920J70796D01*
G02X3496080I17080J-11003D01*
G03X3715920I109920J70796D01*
G02X3750080I17080J-11003D01*
G03X3969920I109920J70796D01*
G02X4004080I17080J-11003D01*
G03X4223920I109920J70796D01*
G02X4258080I17080J-11003D01*
G03X4477920I109920J70796D01*
G02X4512080I17080J-11003D01*
G03X4731920I109920J70796D01*
G02X4766080I17080J-11003D01*
G03X4985920I109920J70796D01*
G02X5020080I17080J-11003D01*
G03X5130000Y5342260I109920J70796D01*
G03X5248190Y5417100I0J130745D01*
G01X5293850D01*
X5324100Y5386850D01*
Y3070690D01*
G02X5298110Y3051180I-20318J1D01*
G03X5282500Y3053400I-15597J-53682D01*
G01X5271260D01*
X5271130Y3063430D01*
G03X5255900Y3106500I-71132J-925D01*
G01Y4820000D01*
G03X5239530Y4859530I-55913J0D01*
G01X5069530Y5029530D01*
G03X5030000Y5045900I-39530J-39543D01*
G01X3370000D01*
G03X3330470Y5029530I0J-55913D01*
G01X3190470Y4889530D01*
G03X3174100Y4850000I39543J-39530D01*
G01Y4844010D01*
G02X3139410Y4829640I-20321J-1D01*
G01X3009530Y4959530D01*
G03X2970000Y4975900I-39530J-39543D01*
G01X1860000D01*
G03X1820470Y4959530I0J-55913D01*
G01X1701670Y4840730D01*
X1698450Y4840200D01*
G03X1638860Y4770000I11555J-70200D01*
G03X1662900Y4716690I71129J0D01*
G02X1649440Y4681140I-13454J-15229D01*
G01X1539470D01*
X1471140Y4749470D01*
Y5523530D01*
X1546650Y5599040D01*
X1551840Y5598150D01*
G03X1574000Y5596260I22150J128851D01*
G03X1683920Y5656210I0J130746D01*
G37*
G36*
G01X5265710Y5828860D02*
X5430530D01*
X5508860Y5750530D01*
Y929470D01*
X5440530Y861140D01*
X1963350D01*
X1953080Y871410D01*
Y2062470D01*
X1959470Y2068860D01*
X2073610D01*
G02X2093910Y2047750I-3J-20319D01*
G03X2093860Y2045000I71091J-2668D01*
G03X2109100Y2001000I71137J0D01*
G01Y1215000D01*
G03X2125470Y1175470I55913J0D01*
G01X2210470Y1090470D01*
G03X2250000Y1074100I39530J39543D01*
G01X5300010D01*
G03X5339540Y1090470I0J55913D01*
G01X5459530Y1210460D01*
G03X5475900Y1249990I-39543J39530D01*
G01Y5660000D01*
G03X5459530Y5699530I-55913J0D01*
G01X5392530Y5766530D01*
G03X5353000Y5782900I-39530J-39543D01*
G01X5265740D01*
Y5817000D01*
G03X5265720Y5818390I-45741J37D01*
G01X5265710Y5818550D01*
Y5828860D01*
G37*
G36*
G01X2389470Y2068860D02*
X2483610D01*
G02X2503910Y2047750I-3J-20319D01*
G03X2503860Y2045000I71091J-2668D01*
G03X2519100Y2001000I71137J0D01*
G01Y1295000D01*
G03X2535470Y1255470I55913J0D01*
G01X2570360Y1220590D01*
G02X2555990Y1185900I-14369J-14369D01*
G01X2273150D01*
X2220900Y1238150D01*
Y1760690D01*
G02X2252060Y1777880I20319J4D01*
G03X2290000Y1766920I37940J60188D01*
G03X2361140Y1838060I0J71140D01*
G01Y2040530D01*
X2389470Y2068860D01*
G37*
G36*
G01X5193360Y2731670D02*
G03X5200000Y2731360I6634J70830D01*
G03X5202940Y2731420I19J71140D01*
G02X5224100Y2711120I841J-20302D01*
G01Y1343150D01*
X5216850Y1335900D01*
X2994000D01*
G03X2950000Y1351140I-44000J-55897D01*
G03X2905000Y1335100I0J-71143D01*
G03X2860000Y1351140I-45000J-55103D01*
G03X2788860Y1280000I0J-71140D01*
G03X2793890Y1253720I71141J-5D01*
G02X2775010Y1225900I-18884J-7501D01*
G01X2723150D01*
X2630900Y1318150D01*
Y2001000D01*
G03X2646140Y2045000I-55897J44000D01*
G03X2646090Y2047750I-71141J82D01*
G02X2666390Y2068860I20303J791D01*
G01X2690530D01*
X2844700Y1914700D01*
G03X2895000Y1893860I50306J50297D01*
G01X5005000D01*
G03X5055300Y1914700I-6J71137D01*
G01X5150300Y2009700D01*
G03X5171140Y2060000I-50283J50300D01*
G01Y2711440D01*
G02X5193360Y2731670I20320J0D01*
G37*
G36*
G01X2815560Y2194100D02*
X3528750D01*
G02X3549020Y2175160I-1J-20318D01*
G03X3620000Y2108860I70980J4845D01*
G03X3658180Y2119970I5J71141D01*
G01X3660670Y2121560D01*
X3679660D01*
Y2110680D01*
X3679560Y2109980D01*
G03X3678860Y2100000I70442J-9955D01*
G03X3687440Y2066130I71142J0D01*
G02X3669570Y2036140I-17871J-9670D01*
G01X2924470D01*
X2801200Y2159410D01*
G02X2815560Y2194100I14364J14371D01*
G37*
G36*
G01X3640000Y3430000D02*
Y2360000D01*
X3610000Y2330000D01*
X3510000D01*
X3480000Y2360000D01*
Y3430000D01*
X3500000Y3450000D01*
X3620000D01*
X3640000Y3430000D01*
G37*
G54D10*
X360000Y360000D03*
Y5740000D03*
X9640000Y360000D03*
Y5740000D03*
G54D20*
G01X4790000Y3127500D02*
Y2310000D01*
X4730000Y2250000D01*
X1850000D01*
X1710000Y2110000D01*
Y1330000D01*
G01X1950000Y4770000D02*
X2050000Y4670000D01*
X2790000D01*
X2990000Y4470000D01*
X4690000D01*
X4730000Y4430000D01*
Y2410000D01*
G01X1710000Y4770000D02*
X1860000Y4920000D01*
X2970000D01*
X3180000Y4710000D01*
X3269670D01*
X3290000Y4730330D01*
Y4820000D01*
X3420000Y4950000D01*
X5010000D01*
X5140000Y4820000D01*
Y3043470D01*
X5185970Y2997500D01*
X5200000D01*
G01X1830000Y4770000D02*
X1940000Y4880000D01*
X2953430D01*
X3163430Y4670000D01*
X3350000D01*
X3550000Y4870000D01*
X4970000D01*
X5060000Y4780000D01*
Y2993470D01*
X5185970Y2867500D01*
X5200000D01*
G01X5130000Y5727000D02*
X5353000D01*
X5420000Y5660000D01*
Y1249990D01*
X5300010Y1130000D01*
X2250000D01*
X2165000Y1215000D01*
Y2045000D01*
G01X2210000Y4770000D02*
X2270000Y4830000D01*
X2810000D01*
X3050000Y4590000D01*
X4790000D01*
X4915000Y4465000D01*
Y2640000D01*
G01X2330000Y4770000D02*
X2810000D01*
X3030000Y4550000D01*
X4769680D01*
X4850000Y4469680D01*
Y2480000D01*
G01X2080000Y4770000D02*
X2135880Y4714120D01*
X2805880D01*
X3010000Y4510000D01*
X4750000D01*
X4790000Y4470000D01*
Y3127500D01*
G01X2575000Y2045000D02*
Y1295000D01*
X2700000Y1170000D01*
X5270000D01*
X5380000Y1280000D01*
Y5410000D01*
X5317000Y5473000D01*
X5130000D01*
G01X5200000Y2997500D02*
X5282500D01*
X5330000Y2950000D01*
Y1300000D01*
X5254120Y1224120D01*
X2915880D01*
X2860000Y1280000D01*
G01X5200000Y2867500D02*
X5242500D01*
X5280000Y2830000D01*
Y1320000D01*
X5240000Y1280000D01*
X2950000D01*
G01X2970000Y4770000D02*
X3107000Y4633000D01*
X3403000D01*
X3600000Y4830000D01*
X4940000D01*
X5020000Y4750000D01*
Y2968470D01*
X5185970Y2802500D01*
X5200000D01*
G01Y3062500D02*
Y4820000D01*
X5030000Y4990000D01*
X3370000D01*
X3230000Y4850000D01*
Y4770000D01*
G01X5200000Y2932500D02*
X5185970D01*
X5100000Y3018470D01*
Y4800000D01*
X4990000Y4910000D01*
X3490000D01*
X3350000Y4770000D01*
G01X3750000Y2100000D02*
X4920000D01*
X4980000Y2160000D01*
Y4720000D01*
X4930000Y4770000D01*
X4500000D01*
G54D11*
G01X1470000Y1838060D02*
Y731000D01*
X1574000Y627000D01*
G01X1881940Y841940D02*
X1830000Y790000D01*
X1737000D01*
X1574000Y627000D01*
G01Y5727000D02*
X1400000Y5553000D01*
Y4720000D01*
X1510000Y4610000D01*
X2585000D01*
X2660000Y4535000D01*
G01X1574000Y5727000D02*
X1747000Y5900000D01*
X5460000D01*
X5580000Y5780000D01*
Y900000D01*
X5470000Y790000D01*
X1933880D01*
X1881940Y841940D01*
G01D02*
Y1838060D01*
G01X2290000Y2070000D02*
X2220000Y2140000D01*
X1930000D01*
X1881940Y2091940D01*
Y1838060D01*
G01X2290000D02*
Y2070000D01*
G01D02*
X2360000Y2140000D01*
X2720000D01*
X2895000Y1965000D01*
X3995000D01*
G01X2870000Y4185000D02*
Y4325000D01*
X2660000Y4535000D01*
G01X3995000Y1965000D02*
X5005000D01*
X5100000Y2060000D01*
Y2550000D01*
G01Y2730000D02*
Y2550000D01*
X213880Y912260D03*
Y1412260D03*
Y1912260D03*
Y2412260D03*
Y2912260D03*
Y3412260D03*
Y3912260D03*
X191540Y4988340D03*
X713880Y912260D03*
Y1412260D03*
Y1912260D03*
Y2412260D03*
Y2912260D03*
Y3412260D03*
Y3912260D03*
X691540Y4988340D03*
X683230Y5369150D03*
X1123880Y1402260D03*
X1183880Y4142260D03*
X950000Y4370000D03*
X1183880Y4642260D03*
X1180000Y5000000D03*
X1183230Y5369150D03*
X1470000Y1838060D03*
X1340000Y4130000D03*
X1240000Y4390000D03*
X1340000Y4340000D03*
Y4540000D03*
X1560000Y5000000D03*
X1623880Y1402260D03*
X1983880D03*
X1710000Y1330000D03*
X1881940Y1838060D03*
X1810000Y4110000D03*
Y4340000D03*
X1950000Y4770000D03*
X1710000D03*
X1830000D03*
X2290000Y1838060D03*
X2165000Y2045000D03*
X2093880Y3452260D03*
Y3952260D03*
X2210000Y4770000D03*
X2330000D03*
X2080000D03*
X2483880Y1402260D03*
X2575000Y2045000D03*
X2503880Y2472260D03*
X2593880Y3452260D03*
Y3952260D03*
X2660000Y4535000D03*
X2593230Y5159150D03*
X2860000Y1280000D03*
X2950000D03*
X3000000Y1820000D03*
Y2140000D03*
X3003880Y2472260D03*
X2840000Y3120000D03*
X3050000Y3460000D03*
Y3840000D03*
X2775000Y3745000D03*
X3050000Y4050000D03*
X2870000Y4185000D03*
X2970000Y4770000D03*
X3093230Y5159150D03*
X3173880Y1392260D03*
X3453880Y2142260D03*
X3260000Y3120000D03*
X3400000Y3460000D03*
X3450000Y3820000D03*
X3195000Y3745000D03*
X3450000Y4050000D03*
X3230000Y4770000D03*
X3350000D03*
X3673880Y1392260D03*
X3533880Y1792260D03*
X3750000Y2100000D03*
X3520000Y2370000D03*
X3600000D03*
X3620000Y2180000D03*
X3520000Y2510000D03*
X3600000D03*
Y2440000D03*
X3520000D03*
X3590000Y3060000D03*
Y3130000D03*
Y3340000D03*
Y3270000D03*
Y3200000D03*
Y3410000D03*
X3593230Y5159150D03*
X4033880Y1792260D03*
X3995000Y1965000D03*
X4143230Y3939150D03*
X4123230Y4309150D03*
X4093230Y5159150D03*
X4573880Y1392260D03*
Y1792260D03*
X4643230Y3939150D03*
X4623230Y4309150D03*
X4500000Y4770000D03*
X4920000Y2180000D03*
X4915000Y2640000D03*
X4850000Y2480000D03*
X4730000Y2410000D03*
X4790000Y3127500D03*
X4723230Y5159150D03*
X5073880Y1392260D03*
Y1792260D03*
X5200000Y2300000D03*
Y2710000D03*
X5100000Y2730000D03*
Y2550000D03*
X5200000Y2997500D03*
Y2867500D03*
Y3062500D03*
Y2932500D03*
Y2802500D03*
X5223230Y5159150D03*
X6091110Y425090D03*
X5907870Y1314490D03*
Y1814490D03*
Y2314490D03*
Y2814490D03*
X6073230Y4139150D03*
X6407870Y1314490D03*
Y1814490D03*
Y2314490D03*
Y2814490D03*
X6207310Y5439740D03*
X6591110Y425090D03*
X6907870Y1314490D03*
Y1814490D03*
Y2314490D03*
Y2814490D03*
X6573230Y4139150D03*
X6707310Y5439740D03*
X7091110Y425090D03*
X7073230Y4139150D03*
X7207310Y5439740D03*
X7591110Y425090D03*
X7407870Y1314490D03*
Y1814490D03*
Y2314490D03*
Y2814490D03*
X7573230Y4139150D03*
X7707310Y5439740D03*
X8091110Y425090D03*
X8207310Y5439740D03*
X8591110Y425090D03*
X8576090Y3388290D03*
X8707310Y5439740D03*
X9091110Y425090D03*
X9076090Y3388290D03*
X9576090D03*
G54D21*
G01X1340000Y4130000D02*
X1510000D01*
X1590000Y4050000D01*
Y3300000D01*
X1550000Y3260000D01*
X1390000D01*
G01X1340000Y4340000D02*
X1550000D01*
X1640000Y4250000D01*
Y3320000D01*
X1700000Y3260000D01*
X1940000D01*
G01X1340000Y4540000D02*
X1610000D01*
X1690000Y4460000D01*
Y3740000D01*
X1750000Y3680000D01*
X1940000D01*
G01X2775000Y3745000D02*
Y3185000D01*
X2840000Y3120000D01*
G01X3195000Y3745000D02*
Y3185000D01*
X3260000Y3120000D01*
G01X3620000Y2180000D02*
X4920000D01*
G54D12*
X1574000Y373000D03*
Y627000D03*
Y5473000D03*
Y5727000D03*
X1828000Y373000D03*
Y627000D03*
Y5473000D03*
Y5727000D03*
X2082000Y373000D03*
X2336000D03*
X2082000Y627000D03*
X2336000D03*
X2082000Y5473000D03*
X2336000D03*
X2082000Y5727000D03*
X2336000D03*
X2590000Y373000D03*
Y627000D03*
Y5473000D03*
Y5727000D03*
X2844000Y373000D03*
X3098000D03*
X2844000Y627000D03*
X3098000D03*
X2844000Y5473000D03*
X3098000D03*
X2844000Y5727000D03*
X3098000D03*
X3352000Y373000D03*
Y627000D03*
Y5473000D03*
Y5727000D03*
X3606000Y373000D03*
X3860000D03*
X3606000Y627000D03*
X3860000D03*
X3606000Y5473000D03*
X3860000D03*
X3606000Y5727000D03*
X3860000D03*
X4114000Y373000D03*
Y627000D03*
Y5473000D03*
Y5727000D03*
X4368000Y373000D03*
X4622000D03*
X4368000Y627000D03*
X4622000D03*
X4368000Y5473000D03*
X4622000D03*
X4368000Y5727000D03*
X4622000D03*
X4876000Y373000D03*
Y627000D03*
Y5473000D03*
Y5727000D03*
X5130000Y373000D03*
Y5473000D03*
G54D13*
X1390000Y2420000D03*
Y2840000D03*
Y3260000D03*
Y3680000D03*
X1940000Y2420000D03*
Y2840000D03*
Y3260000D03*
Y3680000D03*
G54D14*
X3920000Y3940000D03*
Y3640000D03*
G54D15*
X4188450Y2770470D03*
Y2650470D03*
Y2530470D03*
Y2410470D03*
Y3130470D03*
Y3010470D03*
Y2890470D03*
Y3250470D03*
X4428450Y2770470D03*
X4308450D03*
X4428450Y2650470D03*
X4308450D03*
X4428450Y2530470D03*
X4308450D03*
X4428450Y2410470D03*
X4308450D03*
X4428450Y3130470D03*
X4308450D03*
X4428450Y3010470D03*
X4308450D03*
X4428450Y2890470D03*
X4308450D03*
X4428450Y3250470D03*
X4308450D03*
G54D16*
X5130000Y627000D03*
Y5727000D03*
G54D17*
X6139000Y5150000D03*
X6901000D03*
G54D18*
X8600000Y4310000D03*
X9200000D03*
G54D19*
X8880000Y4790000D03*
M02*
