G04 ================== begin FILE IDENTIFICATION RECORD ==================*
G04 Layout Name:  DRV8313_V10_220621.brd*
G04 Film Name:    Drill_Legend*
G04 File Format:  Gerber RS274X*
G04 File Origin:  Cadence Allegro 17.2-S079*
G04 Origin Date:  Wed Jun 22 16:47:48 2022*
G04 *
G04 Layer:  MANUFACTURING/NCLEGEND-1-2*
G04 Layer:  MANUFACTURING/NCDRILL_LEGEND*
G04 Layer:  MANUFACTURING/NCDRILL_FIGURE*
G04 Layer:  BOARD GEOMETRY/DIMENSION*
G04 *
G04 Offset:    (0.0000 0.0000)*
G04 Mirror:    No*
G04 Mode:      Positive*
G04 Rotation:  0*
G04 FullContactRelief:  No*
G04 UndefLineWidth:     0.1524*
G04 ================== end FILE IDENTIFICATION RECORD ====================*
%FSLAX55Y55*MOMM*%
%IR0*IPPOS*OFA0.00000B0.00000*MIA0B0*SFA1.00000B1.00000*%
%AMMACRO16*
1,1,.1524,.31066,-.75*
20,1,.1524,.31066,-.75,-.31066,-.75,0.0*
1,1,.1524,-.31066,-.75*
20,1,.1524,-.31066,-.75,-.75,-.31066,0.0*
1,1,.1524,-.75,-.31066*
20,1,.1524,-.75,-.31066,-.75,.31066,0.0*
1,1,.1524,-.75,.31066*
20,1,.1524,-.75,.31066,-.31066,.75,0.0*
1,1,.1524,-.31066,.75*
20,1,.1524,-.31066,.75,.31066,.75,0.0*
1,1,.1524,.31066,.75*
20,1,.1524,.31066,.75,.75,.31066,0.0*
1,1,.1524,.75,.31066*
20,1,.1524,.75,.31066,.75,-.31066,0.0*
1,1,.1524,.75,-.31066*
20,1,.1524,.75,-.31066,.31066,-.75,0.0*
1,1,.1524,.31066,-.75*
%
%ADD16MACRO16*%
%AMMACRO13*
1,1,.1524,.9,0.0*
20,1,.1524,.9,0.0,0.0,-.9,0.0*
1,1,.1524,0.0,-.9*
20,1,.1524,0.0,-.9,-.9,0.0,0.0*
1,1,.1524,-.9,0.0*
20,1,.1524,-.9,0.0,0.0,.9,0.0*
1,1,.1524,0.0,.9*
20,1,.1524,0.0,.9,.9,0.0,0.0*
1,1,.1524,.9,0.0*
%
%ADD13MACRO13*%
%AMMACRO11*
1,1,.1524,.127,0.0*
20,1,.1524,.127,0.0,-.127,0.0,0.0*
1,1,.1524,-.127,0.0*
1,1,.1524,0.0,.127*
20,1,.1524,0.0,.127,0.0,-.127,0.0*
1,1,.1524,0.0,-.127*
%
%ADD11MACRO11*%
%AMMACRO15*
1,1,.1524,.2286,.2286*
20,1,.1524,.2286,.2286,.2286,-.2286,0.0*
1,1,.1524,.2286,-.2286*
20,1,.1524,.2286,-.2286,-.2286,-.2286,0.0*
1,1,.1524,-.2286,-.2286*
20,1,.1524,-.2286,-.2286,-.2286,.2286,0.0*
1,1,.1524,-.2286,.2286*
20,1,.1524,-.2286,.2286,.2286,.2286,0.0*
1,1,.1524,.2286,.2286*
%
%ADD15MACRO15*%
%AMMACRO12*
1,1,.1524,0.0,.55*
20,1,.1524,0.0,.55,-.476314,.275,0.0*
1,1,.1524,-.476314,.275*
20,1,.1524,-.476314,.275,-.476314,-.275,0.0*
1,1,.1524,-.476314,-.275*
20,1,.1524,-.476314,-.275,0.0,-.55,0.0*
1,1,.1524,0.0,-.55*
20,1,.1524,0.0,-.55,.476314,-.275,0.0*
1,1,.1524,.476314,-.275*
20,1,.1524,.476314,-.275,.476314,.275,0.0*
1,1,.1524,.476314,.275*
20,1,.1524,.476314,.275,0.0,.55,0.0*
1,1,.1524,0.0,.55*
%
%ADD12MACRO12*%
%AMMACRO17*
1,1,.1524,-.5,-1.*
20,1,.1524,-.5,-1.,-.5,1.,0.0*
1,1,.1524,-.5,1.*
20,1,.1524,-.5,1.,-.492404,1.086824,0.0*
1,1,.1524,-.492404,1.086824*
20,1,.1524,-.492404,1.086824,-.469846,1.17101,0.0*
1,1,.1524,-.469846,1.17101*
20,1,.1524,-.469846,1.17101,-.433013,1.25,0.0*
1,1,.1524,-.433013,1.25*
20,1,.1524,-.433013,1.25,-.383022,1.321394,0.0*
1,1,.1524,-.383022,1.321394*
20,1,.1524,-.383022,1.321394,-.321394,1.383022,0.0*
1,1,.1524,-.321394,1.383022*
20,1,.1524,-.321394,1.383022,-.25,1.433013,0.0*
1,1,.1524,-.25,1.433013*
20,1,.1524,-.25,1.433013,-.17101,1.469846,0.0*
1,1,.1524,-.17101,1.469846*
20,1,.1524,-.17101,1.469846,-.086824,1.492404,0.0*
1,1,.1524,-.086824,1.492404*
20,1,.1524,-.086824,1.492404,0.0,1.5,0.0*
1,1,.1524,0.0,1.5*
20,1,.1524,0.0,1.5,.086824,1.492404,0.0*
1,1,.1524,.086824,1.492404*
20,1,.1524,.086824,1.492404,.17101,1.469846,0.0*
1,1,.1524,.17101,1.469846*
20,1,.1524,.17101,1.469846,.25,1.433013,0.0*
1,1,.1524,.25,1.433013*
20,1,.1524,.25,1.433013,.321394,1.383022,0.0*
1,1,.1524,.321394,1.383022*
20,1,.1524,.321394,1.383022,.383022,1.321394,0.0*
1,1,.1524,.383022,1.321394*
20,1,.1524,.383022,1.321394,.433013,1.25,0.0*
1,1,.1524,.433013,1.25*
20,1,.1524,.433013,1.25,.469846,1.17101,0.0*
1,1,.1524,.469846,1.17101*
20,1,.1524,.469846,1.17101,.492404,1.086824,0.0*
1,1,.1524,.492404,1.086824*
20,1,.1524,.492404,1.086824,.5,1.,0.0*
1,1,.1524,.5,1.*
20,1,.1524,.5,1.,.5,-1.,0.0*
1,1,.1524,.5,-1.*
20,1,.1524,.5,-1.,.492404,-1.086824,0.0*
1,1,.1524,.492404,-1.086824*
20,1,.1524,.492404,-1.086824,.469846,-1.17101,0.0*
1,1,.1524,.469846,-1.17101*
20,1,.1524,.469846,-1.17101,.433013,-1.25,0.0*
1,1,.1524,.433013,-1.25*
20,1,.1524,.433013,-1.25,.383022,-1.321394,0.0*
1,1,.1524,.383022,-1.321394*
20,1,.1524,.383022,-1.321394,.321394,-1.383022,0.0*
1,1,.1524,.321394,-1.383022*
20,1,.1524,.321394,-1.383022,.25,-1.433013,0.0*
1,1,.1524,.25,-1.433013*
20,1,.1524,.25,-1.433013,.17101,-1.469846,0.0*
1,1,.1524,.17101,-1.469846*
20,1,.1524,.17101,-1.469846,.086824,-1.492404,0.0*
1,1,.1524,.086824,-1.492404*
20,1,.1524,.086824,-1.492404,0.0,-1.5,0.0*
1,1,.1524,0.0,-1.5*
20,1,.1524,0.0,-1.5,-.086824,-1.492404,0.0*
1,1,.1524,-.086824,-1.492404*
20,1,.1524,-.086824,-1.492404,-.17101,-1.469846,0.0*
1,1,.1524,-.17101,-1.469846*
20,1,.1524,-.17101,-1.469846,-.25,-1.433013,0.0*
1,1,.1524,-.25,-1.433013*
20,1,.1524,-.25,-1.433013,-.321394,-1.383022,0.0*
1,1,.1524,-.321394,-1.383022*
20,1,.1524,-.321394,-1.383022,-.383022,-1.321394,0.0*
1,1,.1524,-.383022,-1.321394*
20,1,.1524,-.383022,-1.321394,-.433013,-1.25,0.0*
1,1,.1524,-.433013,-1.25*
20,1,.1524,-.433013,-1.25,-.469846,-1.17101,0.0*
1,1,.1524,-.469846,-1.17101*
20,1,.1524,-.469846,-1.17101,-.492404,-1.086824,0.0*
1,1,.1524,-.492404,-1.086824*
20,1,.1524,-.492404,-1.086824,-.5,-1.,0.0*
1,1,.1524,-.5,-1.*
1,1,.1524,-.25,-.25*
20,1,.1524,-.25,-.25,-.3167,-.2417,0.0*
1,1,.1524,-.3167,-.2417*
20,1,.1524,-.3167,-.2417,-.375,-.2083,0.0*
1,1,.1524,-.375,-.2083*
20,1,.1524,-.375,-.2083,-.425,-.1583,0.0*
1,1,.1524,-.425,-.1583*
20,1,.1524,-.425,-.1583,-.4583,-.1,0.0*
1,1,.1524,-.4583,-.1*
20,1,.1524,-.4583,-.1,-.475,-.0333,0.0*
1,1,.1524,-.475,-.0333*
20,1,.1524,-.475,-.0333,-.475,.0333,0.0*
1,1,.1524,-.475,.0333*
20,1,.1524,-.475,.0333,-.4583,.1,0.0*
1,1,.1524,-.4583,.1*
20,1,.1524,-.4583,.1,-.425,.1583,0.0*
1,1,.1524,-.425,.1583*
20,1,.1524,-.425,.1583,-.375,.2083,0.0*
1,1,.1524,-.375,.2083*
20,1,.1524,-.375,.2083,-.3167,.2417,0.0*
1,1,.1524,-.3167,.2417*
20,1,.1524,-.3167,.2417,-.25,.25,0.0*
1,1,.1524,-.25,.25*
20,1,.1524,-.25,.25,-.1833,.2417,0.0*
1,1,.1524,-.1833,.2417*
20,1,.1524,-.1833,.2417,-.125,.2083,0.0*
1,1,.1524,-.125,.2083*
20,1,.1524,-.125,.2083,-.075,.1583,0.0*
1,1,.1524,-.075,.1583*
20,1,.1524,-.075,.1583,-.0417,.1,0.0*
1,1,.1524,-.0417,.1*
20,1,.1524,-.0417,.1,-.025,.0333,0.0*
1,1,.1524,-.025,.0333*
20,1,.1524,-.025,.0333,-.025,-.0333,0.0*
1,1,.1524,-.025,-.0333*
20,1,.1524,-.025,-.0333,-.0417,-.1,0.0*
1,1,.1524,-.0417,-.1*
20,1,.1524,-.0417,-.1,-.075,-.1583,0.0*
1,1,.1524,-.075,-.1583*
20,1,.1524,-.075,-.1583,-.125,-.2083,0.0*
1,1,.1524,-.125,-.2083*
20,1,.1524,-.125,-.2083,-.1833,-.2417,0.0*
1,1,.1524,-.1833,-.2417*
20,1,.1524,-.1833,-.2417,-.25,-.25,0.0*
1,1,.1524,-.25,-.25*
1,1,.1524,.0418,-.25*
20,1,.1524,.0418,-.25,.2501,.25,0.0*
1,1,.1524,.2501,.25*
20,1,.1524,.2501,.25,.4584,-.25,0.0*
1,1,.1524,.4584,-.25*
1,1,.1524,.3834,-.075*
20,1,.1524,.3834,-.075,.1168,-.075,0.0*
1,1,.1524,.1168,-.075*
%
%ADD17MACRO17*%
%AMMACRO18*
1,1,.1524,-1.,.5*
20,1,.1524,-1.,.5,1.,.5,0.0*
1,1,.1524,1.,.5*
20,1,.1524,1.,.5,1.086824,.492404,0.0*
1,1,.1524,1.086824,.492404*
20,1,.1524,1.086824,.492404,1.17101,.469846,0.0*
1,1,.1524,1.17101,.469846*
20,1,.1524,1.17101,.469846,1.25,.433013,0.0*
1,1,.1524,1.25,.433013*
20,1,.1524,1.25,.433013,1.321394,.383022,0.0*
1,1,.1524,1.321394,.383022*
20,1,.1524,1.321394,.383022,1.383022,.321394,0.0*
1,1,.1524,1.383022,.321394*
20,1,.1524,1.383022,.321394,1.433013,.25,0.0*
1,1,.1524,1.433013,.25*
20,1,.1524,1.433013,.25,1.469846,.17101,0.0*
1,1,.1524,1.469846,.17101*
20,1,.1524,1.469846,.17101,1.492404,.086824,0.0*
1,1,.1524,1.492404,.086824*
20,1,.1524,1.492404,.086824,1.5,0.0,0.0*
1,1,.1524,1.5,0.0*
20,1,.1524,1.5,0.0,1.492404,-.086824,0.0*
1,1,.1524,1.492404,-.086824*
20,1,.1524,1.492404,-.086824,1.469846,-.17101,0.0*
1,1,.1524,1.469846,-.17101*
20,1,.1524,1.469846,-.17101,1.433013,-.25,0.0*
1,1,.1524,1.433013,-.25*
20,1,.1524,1.433013,-.25,1.383022,-.321394,0.0*
1,1,.1524,1.383022,-.321394*
20,1,.1524,1.383022,-.321394,1.321394,-.383022,0.0*
1,1,.1524,1.321394,-.383022*
20,1,.1524,1.321394,-.383022,1.25,-.433013,0.0*
1,1,.1524,1.25,-.433013*
20,1,.1524,1.25,-.433013,1.17101,-.469846,0.0*
1,1,.1524,1.17101,-.469846*
20,1,.1524,1.17101,-.469846,1.086824,-.492404,0.0*
1,1,.1524,1.086824,-.492404*
20,1,.1524,1.086824,-.492404,1.,-.5,0.0*
1,1,.1524,1.,-.5*
20,1,.1524,1.,-.5,-1.,-.5,0.0*
1,1,.1524,-1.,-.5*
20,1,.1524,-1.,-.5,-1.086824,-.492404,0.0*
1,1,.1524,-1.086824,-.492404*
20,1,.1524,-1.086824,-.492404,-1.17101,-.469846,0.0*
1,1,.1524,-1.17101,-.469846*
20,1,.1524,-1.17101,-.469846,-1.25,-.433013,0.0*
1,1,.1524,-1.25,-.433013*
20,1,.1524,-1.25,-.433013,-1.321394,-.383022,0.0*
1,1,.1524,-1.321394,-.383022*
20,1,.1524,-1.321394,-.383022,-1.383022,-.321394,0.0*
1,1,.1524,-1.383022,-.321394*
20,1,.1524,-1.383022,-.321394,-1.433013,-.25,0.0*
1,1,.1524,-1.433013,-.25*
20,1,.1524,-1.433013,-.25,-1.469846,-.17101,0.0*
1,1,.1524,-1.469846,-.17101*
20,1,.1524,-1.469846,-.17101,-1.492404,-.086824,0.0*
1,1,.1524,-1.492404,-.086824*
20,1,.1524,-1.492404,-.086824,-1.5,0.0,0.0*
1,1,.1524,-1.5,0.0*
20,1,.1524,-1.5,0.0,-1.492404,.086824,0.0*
1,1,.1524,-1.492404,.086824*
20,1,.1524,-1.492404,.086824,-1.469846,.17101,0.0*
1,1,.1524,-1.469846,.17101*
20,1,.1524,-1.469846,.17101,-1.433013,.25,0.0*
1,1,.1524,-1.433013,.25*
20,1,.1524,-1.433013,.25,-1.383022,.321394,0.0*
1,1,.1524,-1.383022,.321394*
20,1,.1524,-1.383022,.321394,-1.321394,.383022,0.0*
1,1,.1524,-1.321394,.383022*
20,1,.1524,-1.321394,.383022,-1.25,.433013,0.0*
1,1,.1524,-1.25,.433013*
20,1,.1524,-1.25,.433013,-1.17101,.469846,0.0*
1,1,.1524,-1.17101,.469846*
20,1,.1524,-1.17101,.469846,-1.086824,.492404,0.0*
1,1,.1524,-1.086824,.492404*
20,1,.1524,-1.086824,.492404,-1.,.5,0.0*
1,1,.1524,-1.,.5*
1,1,.1524,-.25,-.25*
20,1,.1524,-.25,-.25,-.3167,-.2417,0.0*
1,1,.1524,-.3167,-.2417*
20,1,.1524,-.3167,-.2417,-.375,-.2083,0.0*
1,1,.1524,-.375,-.2083*
20,1,.1524,-.375,-.2083,-.425,-.1583,0.0*
1,1,.1524,-.425,-.1583*
20,1,.1524,-.425,-.1583,-.4583,-.1,0.0*
1,1,.1524,-.4583,-.1*
20,1,.1524,-.4583,-.1,-.475,-.0333,0.0*
1,1,.1524,-.475,-.0333*
20,1,.1524,-.475,-.0333,-.475,.0333,0.0*
1,1,.1524,-.475,.0333*
20,1,.1524,-.475,.0333,-.4583,.1,0.0*
1,1,.1524,-.4583,.1*
20,1,.1524,-.4583,.1,-.425,.1583,0.0*
1,1,.1524,-.425,.1583*
20,1,.1524,-.425,.1583,-.375,.2083,0.0*
1,1,.1524,-.375,.2083*
20,1,.1524,-.375,.2083,-.3167,.2417,0.0*
1,1,.1524,-.3167,.2417*
20,1,.1524,-.3167,.2417,-.25,.25,0.0*
1,1,.1524,-.25,.25*
20,1,.1524,-.25,.25,-.1833,.2417,0.0*
1,1,.1524,-.1833,.2417*
20,1,.1524,-.1833,.2417,-.125,.2083,0.0*
1,1,.1524,-.125,.2083*
20,1,.1524,-.125,.2083,-.075,.1583,0.0*
1,1,.1524,-.075,.1583*
20,1,.1524,-.075,.1583,-.0417,.1,0.0*
1,1,.1524,-.0417,.1*
20,1,.1524,-.0417,.1,-.025,.0333,0.0*
1,1,.1524,-.025,.0333*
20,1,.1524,-.025,.0333,-.025,-.0333,0.0*
1,1,.1524,-.025,-.0333*
20,1,.1524,-.025,-.0333,-.0417,-.1,0.0*
1,1,.1524,-.0417,-.1*
20,1,.1524,-.0417,-.1,-.075,-.1583,0.0*
1,1,.1524,-.075,-.1583*
20,1,.1524,-.075,-.1583,-.125,-.2083,0.0*
1,1,.1524,-.125,-.2083*
20,1,.1524,-.125,-.2083,-.1833,-.2417,0.0*
1,1,.1524,-.1833,-.2417*
20,1,.1524,-.1833,-.2417,-.25,-.25,0.0*
1,1,.1524,-.25,-.25*
1,1,.1524,.0418,-.25*
20,1,.1524,.0418,-.25,.2501,.25,0.0*
1,1,.1524,.2501,.25*
20,1,.1524,.2501,.25,.4584,-.25,0.0*
1,1,.1524,.4584,-.25*
1,1,.1524,.3834,-.075*
20,1,.1524,.3834,-.075,.1168,-.075,0.0*
1,1,.1524,.1168,-.075*
%
%ADD18MACRO18*%
%AMMACRO10*
1,1,.1524,0.0,1.65*
20,1,.1524,0.0,1.65,1.428941,-.825,0.0*
1,1,.1524,1.428941,-.825*
20,1,.1524,1.428941,-.825,-1.428941,-.825,0.0*
1,1,.1524,-1.428941,-.825*
20,1,.1524,-1.428941,-.825,0.0,1.65,0.0*
1,1,.1524,0.0,1.65*
%
%ADD10MACRO10*%
%AMMACRO14*
1,1,.1524,.4,0.0*
20,1,.1524,.4,0.0,.2,.34641,0.0*
1,1,.1524,.2,.34641*
20,1,.1524,.2,.34641,-.2,.34641,0.0*
1,1,.1524,-.2,.34641*
20,1,.1524,-.2,.34641,-.4,0.0,0.0*
1,1,.1524,-.4,0.0*
20,1,.1524,-.4,0.0,-.2,-.34641,0.0*
1,1,.1524,-.2,-.34641*
20,1,.1524,-.2,-.34641,.2,-.34641,0.0*
1,1,.1524,.2,-.34641*
20,1,.1524,.2,-.34641,.4,0.0,0.0*
1,1,.1524,.4,0.0*
%
%ADD14MACRO14*%
%ADD19C,.1524*%
G75*
%LPD*%
G75*
G54D10*
X360000Y360000D03*
Y5740000D03*
X9640000Y360000D03*
Y5740000D03*
X11861730Y1492500D03*
G54D11*
X213880Y912260D03*
Y1412260D03*
Y1912260D03*
Y2412260D03*
Y2912260D03*
Y3412260D03*
Y3912260D03*
X191540Y4988340D03*
X713880Y912260D03*
Y1412260D03*
Y1912260D03*
Y2412260D03*
Y2912260D03*
Y3412260D03*
Y3912260D03*
X691540Y4988340D03*
X683230Y5369150D03*
X1123880Y1402260D03*
X1183880Y4142260D03*
X950000Y4370000D03*
X1183880Y4642260D03*
X1180000Y5000000D03*
X1183230Y5369150D03*
X1470000Y1838060D03*
X1340000Y4130000D03*
X1240000Y4390000D03*
X1340000Y4340000D03*
Y4540000D03*
X1560000Y5000000D03*
X1623880Y1402260D03*
X1983880D03*
X1710000Y1330000D03*
X1881940Y1838060D03*
X1810000Y4110000D03*
Y4340000D03*
X1950000Y4770000D03*
X1710000D03*
X1830000D03*
X2290000Y1838060D03*
X2165000Y2045000D03*
X2093880Y3452260D03*
Y3952260D03*
X2210000Y4770000D03*
X2330000D03*
X2080000D03*
X2483880Y1402260D03*
X2575000Y2045000D03*
X2503880Y2472260D03*
X2593880Y3452260D03*
Y3952260D03*
X2660000Y4535000D03*
X2593230Y5159150D03*
X2860000Y1280000D03*
X2950000D03*
X3000000Y1820000D03*
Y2140000D03*
X3003880Y2472260D03*
X2840000Y3120000D03*
X3050000Y3460000D03*
Y3840000D03*
X2775000Y3745000D03*
X3050000Y4050000D03*
X2870000Y4185000D03*
X2970000Y4770000D03*
X3093230Y5159150D03*
X3173880Y1392260D03*
X3453880Y2142260D03*
X3260000Y3120000D03*
X3400000Y3460000D03*
X3450000Y3820000D03*
X3195000Y3745000D03*
X3450000Y4050000D03*
X3230000Y4770000D03*
X3350000D03*
X3673880Y1392260D03*
X3533880Y1792260D03*
X3750000Y2100000D03*
X3520000Y2370000D03*
X3600000D03*
X3620000Y2180000D03*
X3520000Y2510000D03*
X3600000D03*
Y2440000D03*
X3520000D03*
X3590000Y3060000D03*
Y3130000D03*
Y3340000D03*
Y3270000D03*
Y3200000D03*
Y3410000D03*
X3593230Y5159150D03*
X4033880Y1792260D03*
X3995000Y1965000D03*
X4143230Y3939150D03*
X4123230Y4309150D03*
X4093230Y5159150D03*
X4573880Y1392260D03*
Y1792260D03*
X4643230Y3939150D03*
X4623230Y4309150D03*
X4500000Y4770000D03*
X4920000Y2180000D03*
X4915000Y2640000D03*
X4850000Y2480000D03*
X4730000Y2410000D03*
X4790000Y3127500D03*
X4723230Y5159150D03*
X5073880Y1392260D03*
Y1792260D03*
X5200000Y2300000D03*
Y2710000D03*
X5100000Y2730000D03*
Y2550000D03*
X5200000Y2997500D03*
Y2867500D03*
Y3062500D03*
Y2932500D03*
Y2802500D03*
X5223230Y5159150D03*
X6091110Y425090D03*
X5907870Y1314490D03*
Y1814490D03*
Y2314490D03*
Y2814490D03*
X6073230Y4139150D03*
X6407870Y1314490D03*
Y1814490D03*
Y2314490D03*
Y2814490D03*
X6207310Y5439740D03*
X6591110Y425090D03*
X6907870Y1314490D03*
Y1814490D03*
Y2314490D03*
Y2814490D03*
X6573230Y4139150D03*
X6707310Y5439740D03*
X7091110Y425090D03*
X7073230Y4139150D03*
X7207310Y5439740D03*
X7591110Y425090D03*
X7407870Y1314490D03*
Y1814490D03*
Y2314490D03*
Y2814490D03*
X7573230Y4139150D03*
X7707310Y5439740D03*
X8091110Y425090D03*
X8207310Y5439740D03*
X8591110Y425090D03*
X8576090Y3388290D03*
X8707310Y5439740D03*
X9091110Y425090D03*
X9076090Y3388290D03*
X9576090D03*
X11861730Y5302500D03*
G54D12*
X1574000Y373000D03*
Y627000D03*
Y5473000D03*
Y5727000D03*
X1828000Y373000D03*
Y627000D03*
Y5473000D03*
Y5727000D03*
X2082000Y373000D03*
X2336000D03*
X2082000Y627000D03*
X2336000D03*
X2082000Y5473000D03*
X2336000D03*
X2082000Y5727000D03*
X2336000D03*
X2590000Y373000D03*
Y627000D03*
Y5473000D03*
Y5727000D03*
X2844000Y373000D03*
X3098000D03*
X2844000Y627000D03*
X3098000D03*
X2844000Y5473000D03*
X3098000D03*
X2844000Y5727000D03*
X3098000D03*
X3352000Y373000D03*
Y627000D03*
Y5473000D03*
Y5727000D03*
X3606000Y373000D03*
X3860000D03*
X3606000Y627000D03*
X3860000D03*
X3606000Y5473000D03*
X3860000D03*
X3606000Y5727000D03*
X3860000D03*
X4114000Y373000D03*
Y627000D03*
Y5473000D03*
Y5727000D03*
X4368000Y373000D03*
X4622000D03*
X4368000Y627000D03*
X4622000D03*
X4368000Y5473000D03*
X4622000D03*
X4368000Y5727000D03*
X4622000D03*
X4876000Y373000D03*
Y627000D03*
Y5473000D03*
Y5727000D03*
X5130000Y373000D03*
Y627000D03*
Y5473000D03*
Y5727000D03*
X11861730Y3397500D03*
G54D13*
X1390000Y2420000D03*
Y2840000D03*
Y3260000D03*
Y3680000D03*
X1940000Y2420000D03*
Y2840000D03*
Y3260000D03*
Y3680000D03*
X11861730Y2127500D03*
G54D14*
X3920000Y3940000D03*
Y3640000D03*
X11861730Y4032500D03*
G54D15*
X4188450Y2770470D03*
Y2650470D03*
Y2530470D03*
Y2410470D03*
Y3130470D03*
Y3010470D03*
Y2890470D03*
Y3250470D03*
X4428450Y2770470D03*
X4308450D03*
X4428450Y2650470D03*
X4308450D03*
X4428450Y2530470D03*
X4308450D03*
X4428450Y2410470D03*
X4308450D03*
X4428450Y3130470D03*
X4308450D03*
X4428450Y3010470D03*
X4308450D03*
X4428450Y2890470D03*
X4308450D03*
X4428450Y3250470D03*
X4308450D03*
X11861730Y4667500D03*
G54D16*
X6139000Y5150000D03*
X6901000D03*
X11861730Y2762500D03*
G54D17*
X8600000Y4310000D03*
X9200000D03*
X11861730Y222500D03*
G54D18*
X8880000Y4790000D03*
X11861730Y857500D03*
G54D19*
G01X-1510290Y3154120D02*
X-1493700Y3176350D01*
X-1479470Y3189050D01*
X-1460510Y3195400D01*
X-1443910Y3189050D01*
X-1432060Y3176350D01*
X-1422580Y3157300D01*
X-1420210Y3135070D01*
X-1422580Y3116020D01*
X-1432060Y3096970D01*
X-1446290Y3081100D01*
X-1462880Y3074750D01*
X-1481840Y3081100D01*
X-1498440Y3100140D01*
X-1507920Y3128730D01*
X-1510290Y3160470D01*
X-1505550Y3201750D01*
X-1498440Y3223980D01*
X-1486590Y3246200D01*
X-1469990Y3262080D01*
X-1453400Y3265250D01*
X-1436800Y3258900D01*
X-1424950Y3243020D01*
G01X-1274750Y3074750D02*
Y3265250D01*
X-1303200Y3227150D01*
G01Y3074750D02*
X-1246310D01*
G01X-1057900Y2713320D02*
X-1043680Y2697450D01*
X-1027090Y2687920D01*
X-1005750Y2684750D01*
X-984410Y2691100D01*
X-967820Y2703800D01*
X-955970Y2726020D01*
X-953600Y2751420D01*
X-958340Y2776820D01*
X-970190Y2792700D01*
X-986790Y2805400D01*
X-1003380Y2808570D01*
X-1019970Y2805400D01*
X-1041310Y2792700D01*
X-1034200Y2875250D01*
X-970190D01*
G01X-819990Y2684750D02*
X-815250Y2726020D01*
X-808140Y2760950D01*
X-798660Y2792700D01*
X-786800Y2827620D01*
X-767840Y2875250D01*
X-862660D01*
G01X-624750Y2678400D02*
X-629490Y2681580D01*
Y2687920D01*
X-624750Y2691100D01*
X-620010Y2687920D01*
Y2681580D01*
X-624750Y2678400D01*
G01X-405800Y2684750D02*
Y2875250D01*
X-493520Y2738730D01*
X-374980D01*
G01X-562650Y832850D02*
X-548430Y810620D01*
X-529470Y797920D01*
X-508130Y794750D01*
X-489160Y797920D01*
X-470200Y813800D01*
X-458350Y832850D01*
X-455980Y851900D01*
X-460720Y874120D01*
X-477310Y890000D01*
X-493910Y896350D01*
X-515240D01*
G01X-493910D02*
X-479680Y905870D01*
X-467830Y921750D01*
X-463090Y940800D01*
X-467830Y959850D01*
X-479680Y975720D01*
X-501020Y985250D01*
X-522350Y982080D01*
X-543690Y969370D01*
G01X-320000Y788400D02*
X-324740Y791580D01*
Y797920D01*
X-320000Y801100D01*
X-315260Y797920D01*
Y791580D01*
X-320000Y788400D01*
G01X-174540Y874120D02*
X-157950Y896350D01*
X-143720Y909050D01*
X-124760Y915400D01*
X-108160Y909050D01*
X-96310Y896350D01*
X-86830Y877300D01*
X-84460Y855070D01*
X-86830Y836020D01*
X-96310Y816970D01*
X-110540Y801100D01*
X-127130Y794750D01*
X-146090Y801100D01*
X-162690Y820140D01*
X-172170Y848730D01*
X-174540Y880470D01*
X-169800Y921750D01*
X-162690Y943980D01*
X-150840Y966200D01*
X-134240Y982080D01*
X-117650Y985250D01*
X-101050Y978900D01*
X-89200Y963020D01*
G01X1027350Y-277150D02*
X1041570Y-299380D01*
X1060530Y-312080D01*
X1081870Y-315250D01*
X1100840Y-312080D01*
X1119800Y-296200D01*
X1131650Y-277150D01*
X1134020Y-258100D01*
X1129280Y-235880D01*
X1112690Y-220000D01*
X1096090Y-213650D01*
X1074760D01*
G01X1096090D02*
X1110320Y-204130D01*
X1122170Y-188250D01*
X1126910Y-169200D01*
X1122170Y-150150D01*
X1110320Y-134280D01*
X1088980Y-124750D01*
X1067650Y-127920D01*
X1046310Y-140630D01*
G01X1270000Y-321600D02*
X1265260Y-318420D01*
Y-312080D01*
X1270000Y-308900D01*
X1274740Y-312080D01*
Y-318420D01*
X1270000Y-321600D01*
G01X1415460Y-235880D02*
X1432050Y-213650D01*
X1446280Y-200950D01*
X1465240Y-194600D01*
X1481840Y-200950D01*
X1493690Y-213650D01*
X1503170Y-232700D01*
X1505540Y-254930D01*
X1503170Y-273980D01*
X1493690Y-293030D01*
X1479460Y-308900D01*
X1462870Y-315250D01*
X1443910Y-308900D01*
X1427310Y-289860D01*
X1417830Y-261270D01*
X1415460Y-229530D01*
X1420200Y-188250D01*
X1427310Y-166020D01*
X1439160Y-143800D01*
X1455760Y-127920D01*
X1472350Y-124750D01*
X1488950Y-131100D01*
X1500800Y-146980D01*
G01X4493950Y-633030D02*
X4510540Y-648900D01*
X4529510Y-655250D01*
X4548470Y-648900D01*
X4565070Y-629860D01*
X4576920Y-601270D01*
X4581660Y-572700D01*
Y-537780D01*
X4576920Y-509200D01*
X4565070Y-483800D01*
X4550840Y-471100D01*
X4534250Y-464750D01*
X4515280Y-471100D01*
X4501060Y-483800D01*
X4491580Y-502850D01*
X4486840Y-528250D01*
X4491580Y-550470D01*
X4503430Y-572700D01*
X4517660Y-585400D01*
X4534250Y-588580D01*
X4553210Y-582230D01*
X4567440Y-566350D01*
X4581660Y-537780D01*
G01X4679710Y-575880D02*
X4696300Y-553650D01*
X4710530Y-540950D01*
X4729490Y-534600D01*
X4746090Y-540950D01*
X4757940Y-553650D01*
X4767420Y-572700D01*
X4769790Y-594930D01*
X4767420Y-613980D01*
X4757940Y-633030D01*
X4743710Y-648900D01*
X4727120Y-655250D01*
X4708160Y-648900D01*
X4691560Y-629860D01*
X4682080Y-601270D01*
X4679710Y-569530D01*
X4684450Y-528250D01*
X4691560Y-506020D01*
X4703410Y-483800D01*
X4720010Y-467920D01*
X4736600Y-464750D01*
X4753200Y-471100D01*
X4765050Y-486980D01*
G01X4915250Y-661600D02*
X4910510Y-658420D01*
Y-652080D01*
X4915250Y-648900D01*
X4919990Y-652080D01*
Y-658420D01*
X4915250Y-661600D01*
G01X5134200Y-655250D02*
Y-464750D01*
X5046480Y-601270D01*
X5165020D01*
G01X4829500Y-1055250D02*
Y-864750D01*
X4801050Y-902850D01*
G01Y-1055250D02*
X4857940D01*
G01X5020000Y-864750D02*
X5001030Y-871100D01*
X4986810Y-886980D01*
X4977330Y-906020D01*
X4970220Y-931430D01*
X4967850Y-960000D01*
X4970220Y-988580D01*
X4977330Y-1013980D01*
X4986810Y-1033030D01*
X5001030Y-1048900D01*
X5020000Y-1055250D01*
X5038960Y-1048900D01*
X5053190Y-1033030D01*
X5062670Y-1013980D01*
X5069780Y-988580D01*
X5072150Y-960000D01*
X5069780Y-931430D01*
X5062670Y-906020D01*
X5053190Y-886980D01*
X5038960Y-871100D01*
X5020000Y-864750D01*
G01X5210500D02*
X5191530Y-871100D01*
X5177310Y-886980D01*
X5167830Y-906020D01*
X5160720Y-931430D01*
X5158350Y-960000D01*
X5160720Y-988580D01*
X5167830Y-1013980D01*
X5177310Y-1033030D01*
X5191530Y-1048900D01*
X5210500Y-1055250D01*
X5229460Y-1048900D01*
X5243690Y-1033030D01*
X5253170Y-1013980D01*
X5260280Y-988580D01*
X5262650Y-960000D01*
X5260280Y-931430D01*
X5253170Y-906020D01*
X5243690Y-886980D01*
X5229460Y-871100D01*
X5210500Y-864750D01*
G01X10999520Y5778750D02*
Y6096250D01*
X11149140D01*
G01X11094010Y5942800D02*
X10999520D01*
G01X11342050Y6096250D02*
X11436530D01*
G01X11389290D02*
Y5778750D01*
G01X11342050D02*
X11436530D01*
G01X11727870Y5937500D02*
X11806620D01*
Y5842250D01*
X11782990Y5810490D01*
X11755430Y5789330D01*
X11716060Y5778750D01*
X11676690Y5789330D01*
X11649130Y5810490D01*
X11625510Y5842250D01*
X11609760Y5879290D01*
X11601880Y5921620D01*
Y5958670D01*
X11609760Y5990410D01*
X11625510Y6027460D01*
X11649130Y6059210D01*
X11672750Y6080370D01*
X11704250Y6096250D01*
X11731810D01*
X11763300Y6085670D01*
X11786930Y6064500D01*
G01X11932600Y6096250D02*
Y5868710D01*
X11948340Y5821070D01*
X11979840Y5789330D01*
X12019210Y5778750D01*
X12058580Y5789330D01*
X12090080Y5821070D01*
X12105820Y5868710D01*
Y6096250D01*
G01X12255430Y5778750D02*
Y6096250D01*
X12353850D01*
X12385350Y6080370D01*
X12405040Y6059210D01*
X12412910Y6016870D01*
X12405040Y5974540D01*
X12381410Y5948090D01*
X12353850Y5932200D01*
X12255430D01*
G01X12353850D02*
X12412910Y5778750D01*
G01X12727870D02*
X12570390D01*
Y6096250D01*
X12727870D01*
G01X12664880Y5942800D02*
X12570390D01*
G01X13597940Y5778750D02*
Y6096250D01*
X13747560D01*
G01X13692430Y5942800D02*
X13597940D01*
G01X13940470Y6096250D02*
X14034950D01*
G01X13987710D02*
Y5778750D01*
G01X13940470D02*
X14034950D01*
G01X14212120D02*
Y6096250D01*
X14393220Y5778750D01*
Y6096250D01*
G01X14570390D02*
X14664870D01*
G01X14617630D02*
Y5778750D01*
G01X14570390D02*
X14664870D01*
G01X14849910Y5821070D02*
X14881410Y5794620D01*
X14916840Y5778750D01*
X14948340D01*
X14979830Y5794620D01*
X15003460Y5821070D01*
X15015270Y5858130D01*
X15007400Y5895160D01*
X14987710Y5926910D01*
X14952270Y5948090D01*
X14905030Y5958670D01*
X14877470Y5979830D01*
X14865660Y6016870D01*
X14873540Y6053920D01*
X14893220Y6080370D01*
X14920780Y6096250D01*
X14948340D01*
X14975900Y6085670D01*
X14999520Y6059210D01*
G01X15164870Y5778750D02*
Y6096250D01*
G01X15330230D02*
Y5778750D01*
G01Y5937500D02*
X15164870D01*
G01X15641250Y5778750D02*
X15483770D01*
Y6096250D01*
X15641250D01*
G01X15578260Y5942800D02*
X15483770D01*
G01X15790860Y5778750D02*
Y6096250D01*
X15869590D01*
X15901090Y6080370D01*
X15924710Y6059210D01*
X15944400Y6027460D01*
X15960150Y5990410D01*
X15964080Y5937500D01*
X15960150Y5884580D01*
X15944400Y5847540D01*
X15924710Y5815780D01*
X15901090Y5794620D01*
X15869590Y5778750D01*
X15790860D01*
G01X16074320Y5672920D02*
X16310540D01*
G01X16424710Y5821070D02*
X16456210Y5794620D01*
X16491640Y5778750D01*
X16523140D01*
X16554630Y5794620D01*
X16578260Y5821070D01*
X16590070Y5858130D01*
X16582200Y5895160D01*
X16562510Y5926910D01*
X16527070Y5948090D01*
X16479830Y5958670D01*
X16452270Y5979830D01*
X16440460Y6016870D01*
X16448340Y6053920D01*
X16468020Y6080370D01*
X16495580Y6096250D01*
X16523140D01*
X16550700Y6085670D01*
X16574320Y6059210D01*
G01X16775110Y6096250D02*
X16869590D01*
G01X16822350D02*
Y5778750D01*
G01X16775110D02*
X16869590D01*
G01X17062500Y6096250D02*
X17212120D01*
X17062500Y5778750D01*
X17212120D01*
G01X17531010D02*
X17373530D01*
Y6096250D01*
X17531010D01*
G01X17468020Y5942800D02*
X17373530D01*
G01X14531020Y127250D02*
X14554630Y90200D01*
X14586130Y69040D01*
X14621570Y63750D01*
X14653070Y69040D01*
X14684560Y95490D01*
X14704240Y127250D01*
X14708180Y159000D01*
X14700310Y196030D01*
X14672750Y222500D01*
X14645190Y233090D01*
X14609750D01*
G01X14645190D02*
X14668810Y248960D01*
X14688500Y275410D01*
X14696370Y307160D01*
X14688500Y338920D01*
X14668810Y365370D01*
X14633380Y381250D01*
X14597950Y375960D01*
X14562510Y354790D01*
G01X14932590Y53170D02*
X14924710Y58460D01*
Y69040D01*
X14932590Y74330D01*
X14940470Y69040D01*
Y58460D01*
X14932590Y53170D01*
G01X15247550Y381250D02*
X15216050Y370670D01*
X15192430Y344210D01*
X15176680Y312460D01*
X15164870Y270120D01*
X15160940Y222500D01*
X15164870Y174870D01*
X15176680Y132540D01*
X15192430Y100780D01*
X15216050Y74330D01*
X15247550Y63750D01*
X15279040Y74330D01*
X15302670Y100780D01*
X15318420Y132540D01*
X15330230Y174870D01*
X15334160Y222500D01*
X15330230Y270120D01*
X15318420Y312460D01*
X15302670Y344210D01*
X15279040Y370670D01*
X15247550Y381250D01*
G01X15503460Y275410D02*
X15621560Y63750D01*
G01Y275410D02*
X15503460Y63750D01*
G01X15877470D02*
Y381250D01*
X15830230Y317750D01*
G01Y63750D02*
X15924710D01*
G01X16192430Y53170D02*
X16184550Y58460D01*
Y69040D01*
X16192430Y74330D01*
X16200310Y69040D01*
Y58460D01*
X16192430Y53170D01*
G01X16507390Y381250D02*
X16475890Y370670D01*
X16452270Y344210D01*
X16436520Y312460D01*
X16424710Y270120D01*
X16420780Y222500D01*
X16424710Y174870D01*
X16436520Y132540D01*
X16452270Y100780D01*
X16475890Y74330D01*
X16507390Y63750D01*
X16538880Y74330D01*
X16562510Y100780D01*
X16578260Y132540D01*
X16590070Y174870D01*
X16594000Y222500D01*
X16590070Y270120D01*
X16578260Y312460D01*
X16562510Y344210D01*
X16538880Y370670D01*
X16507390Y381250D01*
G01X14531020Y762250D02*
X14554630Y725200D01*
X14586130Y704040D01*
X14621570Y698750D01*
X14653070Y704040D01*
X14684560Y730490D01*
X14704240Y762250D01*
X14708180Y794000D01*
X14700310Y831030D01*
X14672750Y857500D01*
X14645190Y868090D01*
X14609750D01*
G01X14645190D02*
X14668810Y883960D01*
X14688500Y910410D01*
X14696370Y942160D01*
X14688500Y973920D01*
X14668810Y1000370D01*
X14633380Y1016250D01*
X14597950Y1010960D01*
X14562510Y989790D01*
G01X14932590Y688170D02*
X14924710Y693460D01*
Y704040D01*
X14932590Y709330D01*
X14940470Y704040D01*
Y693460D01*
X14932590Y688170D01*
G01X15247550Y1016250D02*
X15216050Y1005670D01*
X15192430Y979210D01*
X15176680Y947460D01*
X15164870Y905120D01*
X15160940Y857500D01*
X15164870Y809870D01*
X15176680Y767540D01*
X15192430Y735780D01*
X15216050Y709330D01*
X15247550Y698750D01*
X15279040Y709330D01*
X15302670Y735780D01*
X15318420Y767540D01*
X15330230Y809870D01*
X15334160Y857500D01*
X15330230Y905120D01*
X15318420Y947460D01*
X15302670Y979210D01*
X15279040Y1005670D01*
X15247550Y1016250D01*
G01X15503460Y910410D02*
X15621560Y698750D01*
G01Y910410D02*
X15503460Y698750D01*
G01X15877470D02*
Y1016250D01*
X15830230Y952750D01*
G01Y698750D02*
X15924710D01*
G01X16192430Y688170D02*
X16184550Y693460D01*
Y704040D01*
X16192430Y709330D01*
X16200310Y704040D01*
Y693460D01*
X16192430Y688170D01*
G01X16507390Y1016250D02*
X16475890Y1005670D01*
X16452270Y979210D01*
X16436520Y947460D01*
X16424710Y905120D01*
X16420780Y857500D01*
X16424710Y809870D01*
X16436520Y767540D01*
X16452270Y735780D01*
X16475890Y709330D01*
X16507390Y698750D01*
X16538880Y709330D01*
X16562510Y735780D01*
X16578260Y767540D01*
X16590070Y809870D01*
X16594000Y857500D01*
X16590070Y905120D01*
X16578260Y947460D01*
X16562510Y979210D01*
X16538880Y1005670D01*
X16507390Y1016250D01*
G01X14282980Y6413750D02*
X14381410Y6731250D01*
X14479840Y6413750D01*
G01X14444400Y6524870D02*
X14318410D01*
G01X14617630Y6731250D02*
Y6413750D01*
X14775110D01*
G01X14932590Y6731250D02*
Y6413750D01*
X15090070D01*
G01X15554640Y6731250D02*
Y6503710D01*
X15570380Y6456070D01*
X15601880Y6424330D01*
X15641250Y6413750D01*
X15680620Y6424330D01*
X15712120Y6456070D01*
X15727860Y6503710D01*
Y6731250D01*
G01X15865660Y6413750D02*
Y6731250D01*
X16046760Y6413750D01*
Y6731250D01*
G01X16223930D02*
X16318410D01*
G01X16271170D02*
Y6413750D01*
G01X16223930D02*
X16318410D01*
G01X16586130Y6731250D02*
Y6413750D01*
G01X16495580Y6731250D02*
X16676680D01*
G01X16818410Y6456070D02*
X16849910Y6429620D01*
X16885340Y6413750D01*
X16916840D01*
X16948330Y6429620D01*
X16971960Y6456070D01*
X16983770Y6493130D01*
X16975900Y6530160D01*
X16956210Y6561910D01*
X16920770Y6583090D01*
X16873530Y6593670D01*
X16845970Y6614830D01*
X16834160Y6651870D01*
X16842040Y6688920D01*
X16861720Y6715370D01*
X16889280Y6731250D01*
X16916840D01*
X16944400Y6720670D01*
X16968020Y6694210D01*
G01X17432580Y6413750D02*
X17531010Y6731250D01*
X17629440Y6413750D01*
G01X17594000Y6524870D02*
X17468010D01*
G01X17767230Y6413750D02*
Y6731250D01*
X17865650D01*
X17897150Y6715370D01*
X17916840Y6694210D01*
X17924710Y6651870D01*
X17916840Y6609540D01*
X17893210Y6583090D01*
X17865650Y6567200D01*
X17767230D01*
G01X17865650D02*
X17924710Y6413750D01*
G01X18239670D02*
X18082190D01*
Y6731250D01*
X18239670D01*
G01X18176680Y6577800D02*
X18082190D01*
G01X18743610Y6731250D02*
X18838090D01*
G01X18790850D02*
Y6413750D01*
G01X18743610D02*
X18838090D01*
G01X19015260D02*
Y6731250D01*
X19196360Y6413750D01*
Y6731250D01*
G01X19633360Y6413750D02*
Y6731250D01*
X19735730Y6466670D01*
X19838100Y6731250D01*
Y6413750D01*
G01X20003450Y6731250D02*
X20097930D01*
G01X20050690D02*
Y6413750D01*
G01X20003450D02*
X20097930D01*
G01X20286910Y6731250D02*
Y6413750D01*
X20444390D01*
G01X20601870Y6731250D02*
Y6413750D01*
X20759350D01*
G01X20948330Y6731250D02*
X21042810D01*
G01X20995570D02*
Y6413750D01*
G01X20948330D02*
X21042810D01*
G01X21208160D02*
Y6731250D01*
X21310530Y6466670D01*
X21412900Y6731250D01*
Y6413750D01*
G01X21704230D02*
X21546750D01*
Y6731250D01*
X21704230D01*
G01X21641240Y6577800D02*
X21546750D01*
G01X21940450Y6731250D02*
Y6413750D01*
G01X21849900Y6731250D02*
X22031000D01*
G01X22334150Y6413750D02*
X22176670D01*
Y6731250D01*
X22334150D01*
G01X22271160Y6577800D02*
X22176670D01*
G01X22491630Y6413750D02*
Y6731250D01*
X22590050D01*
X22621550Y6715370D01*
X22641240Y6694210D01*
X22649110Y6651870D01*
X22641240Y6609540D01*
X22617610Y6583090D01*
X22590050Y6567200D01*
X22491630D01*
G01X22590050D02*
X22649110Y6413750D01*
G01X22802650Y6456070D02*
X22834150Y6429620D01*
X22869580Y6413750D01*
X22901080D01*
X22932570Y6429620D01*
X22956200Y6456070D01*
X22968010Y6493130D01*
X22960140Y6530160D01*
X22940450Y6561910D01*
X22905010Y6583090D01*
X22857770Y6593670D01*
X22830210Y6614830D01*
X22818400Y6651870D01*
X22826280Y6688920D01*
X22845960Y6715370D01*
X22873520Y6731250D01*
X22901080D01*
X22928640Y6720670D01*
X22952260Y6694210D01*
G01X14775110Y4826250D02*
X14743610Y4815670D01*
X14719990Y4789210D01*
X14704240Y4757460D01*
X14692430Y4715120D01*
X14688500Y4667500D01*
X14692430Y4619870D01*
X14704240Y4577540D01*
X14719990Y4545780D01*
X14743610Y4519330D01*
X14775110Y4508750D01*
X14806600Y4519330D01*
X14830230Y4545780D01*
X14845980Y4577540D01*
X14857790Y4619870D01*
X14861720Y4667500D01*
X14857790Y4715120D01*
X14845980Y4757460D01*
X14830230Y4789210D01*
X14806600Y4815670D01*
X14775110Y4826250D01*
G01X15090070Y4498170D02*
X15082190Y4503460D01*
Y4514040D01*
X15090070Y4519330D01*
X15097950Y4514040D01*
Y4503460D01*
X15090070Y4498170D01*
G01X15452270Y4508750D02*
Y4826250D01*
X15306600Y4598710D01*
X15503460D01*
G01X15633380Y4556360D02*
X15656990Y4529910D01*
X15684550Y4514040D01*
X15719990Y4508750D01*
X15755430Y4519330D01*
X15782980Y4540490D01*
X15802670Y4577540D01*
X15806600Y4619870D01*
X15798730Y4662200D01*
X15779040Y4688670D01*
X15751480Y4709830D01*
X15723930Y4715120D01*
X15696370Y4709830D01*
X15660940Y4688670D01*
X15672750Y4826250D01*
X15779040D01*
G01X16027070Y4508750D02*
X16034950Y4577540D01*
X16046760Y4635740D01*
X16062510Y4688670D01*
X16082190Y4746870D01*
X16113690Y4826250D01*
X15956210D01*
G01X16275100Y4773330D02*
X16298730Y4805080D01*
X16326290Y4820960D01*
X16357790Y4826250D01*
X16397150Y4815670D01*
X16424720Y4789210D01*
X16432590Y4757460D01*
X16428650Y4725700D01*
X16412900Y4699250D01*
X16334160Y4646330D01*
X16298730Y4609290D01*
X16275100Y4556360D01*
X16267230Y4508750D01*
X16432590D01*
G01X14932590Y5461250D02*
X14901090Y5450670D01*
X14877470Y5424210D01*
X14861720Y5392460D01*
X14849910Y5350120D01*
X14845980Y5302500D01*
X14849910Y5254870D01*
X14861720Y5212540D01*
X14877470Y5180780D01*
X14901090Y5154330D01*
X14932590Y5143750D01*
X14964080Y5154330D01*
X14987710Y5180780D01*
X15003460Y5212540D01*
X15015270Y5254870D01*
X15019200Y5302500D01*
X15015270Y5350120D01*
X15003460Y5392460D01*
X14987710Y5424210D01*
X14964080Y5450670D01*
X14932590Y5461250D01*
G01X15247550Y5133170D02*
X15239670Y5138460D01*
Y5149040D01*
X15247550Y5154330D01*
X15255430Y5149040D01*
Y5138460D01*
X15247550Y5133170D01*
G01X15487700Y5408330D02*
X15511330Y5440080D01*
X15538890Y5455960D01*
X15570390Y5461250D01*
X15609750Y5450670D01*
X15637320Y5424210D01*
X15645190Y5392460D01*
X15641250Y5360700D01*
X15625500Y5334250D01*
X15546760Y5281330D01*
X15511330Y5244290D01*
X15487700Y5191360D01*
X15479830Y5143750D01*
X15645190D01*
G01X15790860Y5191360D02*
X15814470Y5164910D01*
X15842030Y5149040D01*
X15877470Y5143750D01*
X15912910Y5154330D01*
X15940460Y5175490D01*
X15960150Y5212540D01*
X15964080Y5254870D01*
X15956210Y5297200D01*
X15936520Y5323670D01*
X15908960Y5344830D01*
X15881410Y5350120D01*
X15853850Y5344830D01*
X15818420Y5323670D01*
X15830230Y5461250D01*
X15936520D01*
G01X16239670Y5143750D02*
Y5461250D01*
X16094000Y5233710D01*
X16290860D01*
G01X14609760Y7063750D02*
Y7381250D01*
X14688490D01*
X14719990Y7365370D01*
X14743610Y7344210D01*
X14763300Y7312460D01*
X14779050Y7275410D01*
X14782980Y7222500D01*
X14779050Y7169580D01*
X14763300Y7132540D01*
X14743610Y7100780D01*
X14719990Y7079620D01*
X14688490Y7063750D01*
X14609760D01*
G01X14932590D02*
Y7381250D01*
X15031010D01*
X15062510Y7365370D01*
X15082200Y7344210D01*
X15090070Y7301870D01*
X15082200Y7259540D01*
X15058570Y7233090D01*
X15031010Y7217200D01*
X14932590D01*
G01X15031010D02*
X15090070Y7063750D01*
G01X15279050Y7381250D02*
X15373530D01*
G01X15326290D02*
Y7063750D01*
G01X15279050D02*
X15373530D01*
G01X15562510Y7381250D02*
Y7063750D01*
X15719990D01*
G01X15877470Y7381250D02*
Y7063750D01*
X16034950D01*
G01X16672740Y7354790D02*
X16649120Y7370670D01*
X16621570Y7381250D01*
X16590070D01*
X16554630Y7365370D01*
X16527080Y7338920D01*
X16507390Y7307160D01*
X16491640Y7254250D01*
X16487700Y7206620D01*
X16495580Y7159000D01*
X16507390Y7127250D01*
X16531010Y7095490D01*
X16558570Y7074330D01*
X16586130Y7063750D01*
X16613690D01*
X16641250Y7074330D01*
X16664870Y7090200D01*
X16684560Y7111360D01*
G01X16818410Y7063750D02*
Y7381250D01*
G01X16983770D02*
Y7063750D01*
G01Y7222500D02*
X16818410D01*
G01X17117620Y7063750D02*
X17216050Y7381250D01*
X17314480Y7063750D01*
G01X17279040Y7174870D02*
X17153050D01*
G01X17452270Y7063750D02*
Y7381250D01*
X17550690D01*
X17582190Y7365370D01*
X17601880Y7344210D01*
X17609750Y7301870D01*
X17601880Y7259540D01*
X17578250Y7233090D01*
X17550690Y7217200D01*
X17452270D01*
G01X17550690D02*
X17609750Y7063750D01*
G01X17845970Y7381250D02*
Y7063750D01*
G01X17755420Y7381250D02*
X17936520D01*
G01X18160930Y7053170D02*
X18153050Y7058460D01*
Y7069040D01*
X18160930Y7074330D01*
X18168810Y7069040D01*
Y7058460D01*
X18160930Y7053170D01*
G01Y7196030D02*
X18153050Y7201330D01*
Y7211910D01*
X18160930Y7217200D01*
X18168810Y7211910D01*
Y7201330D01*
X18160930Y7196030D01*
G01X18790850Y7381250D02*
Y7063750D01*
G01X18700300Y7381250D02*
X18881400D01*
G01X19105810Y7063750D02*
X19074310Y7069040D01*
X19046760Y7090200D01*
X19023130Y7121960D01*
X19007380Y7159000D01*
X18999510Y7201330D01*
Y7243670D01*
X19007380Y7286000D01*
X19023130Y7323040D01*
X19046760Y7354790D01*
X19074310Y7375960D01*
X19105810Y7381250D01*
X19137300Y7375960D01*
X19164860Y7354790D01*
X19188490Y7323040D01*
X19204240Y7286000D01*
X19212110Y7243670D01*
Y7201330D01*
X19204240Y7159000D01*
X19188490Y7121960D01*
X19164860Y7090200D01*
X19137300Y7069040D01*
X19105810Y7063750D01*
G01X19342030D02*
Y7381250D01*
X19436520D01*
X19468010Y7365370D01*
X19491640Y7328330D01*
X19499510Y7286000D01*
X19491640Y7243670D01*
X19471950Y7211910D01*
X19436520Y7196030D01*
X19342030D01*
G01X20050690Y7381250D02*
Y7063750D01*
G01X19995570Y7275410D02*
X20105810D01*
G01X20365650Y7063750D02*
X20342030Y7069040D01*
X20318410Y7090200D01*
X20302650Y7127250D01*
X20294780Y7169580D01*
X20302650Y7211910D01*
X20318410Y7248960D01*
X20342030Y7270120D01*
X20365650Y7275410D01*
X20389270Y7270120D01*
X20412890Y7248960D01*
X20428640Y7211910D01*
X20432580Y7169580D01*
X20428640Y7127250D01*
X20412890Y7090200D01*
X20389270Y7069040D01*
X20365650Y7063750D01*
G01X21027060Y7233090D02*
X21042810Y7248960D01*
X21054620Y7275410D01*
X21062500Y7312460D01*
X21054620Y7344210D01*
X21038880Y7365370D01*
X21011320Y7381250D01*
X20905020D01*
Y7063750D01*
X21034940D01*
X21062500Y7084910D01*
X21078250Y7116670D01*
X21086120Y7153710D01*
X21078250Y7190740D01*
X21054620Y7222500D01*
X21027060Y7233090D01*
X20905020D01*
G01X21310530Y7063750D02*
X21279030Y7069040D01*
X21251480Y7090200D01*
X21227850Y7121960D01*
X21212100Y7159000D01*
X21204230Y7201330D01*
Y7243670D01*
X21212100Y7286000D01*
X21227850Y7323040D01*
X21251480Y7354790D01*
X21279030Y7375960D01*
X21310530Y7381250D01*
X21342020Y7375960D01*
X21369580Y7354790D01*
X21393210Y7323040D01*
X21408960Y7286000D01*
X21416830Y7243670D01*
Y7201330D01*
X21408960Y7159000D01*
X21393210Y7121960D01*
X21369580Y7090200D01*
X21342020Y7069040D01*
X21310530Y7063750D01*
G01X21625490Y7381250D02*
Y7063750D01*
G01X21534940Y7381250D02*
X21716040D01*
G01X21940450D02*
Y7063750D01*
G01X21849900Y7381250D02*
X22031000D01*
G01X22255410Y7063750D02*
X22223910Y7069040D01*
X22196360Y7090200D01*
X22172730Y7121960D01*
X22156980Y7159000D01*
X22149110Y7201330D01*
Y7243670D01*
X22156980Y7286000D01*
X22172730Y7323040D01*
X22196360Y7354790D01*
X22223910Y7375960D01*
X22255410Y7381250D01*
X22286900Y7375960D01*
X22314460Y7354790D01*
X22338090Y7323040D01*
X22353840Y7286000D01*
X22361710Y7243670D01*
Y7201330D01*
X22353840Y7159000D01*
X22338090Y7121960D01*
X22314460Y7090200D01*
X22286900Y7069040D01*
X22255410Y7063750D01*
G01X22468000D02*
Y7381250D01*
X22570370Y7116670D01*
X22672740Y7381250D01*
Y7063750D01*
G01X15160940Y1397250D02*
X15184550Y1360200D01*
X15216050Y1339040D01*
X15251490Y1333750D01*
X15282990Y1339040D01*
X15314480Y1365490D01*
X15334160Y1397250D01*
X15338100Y1429000D01*
X15330230Y1466030D01*
X15302670Y1492500D01*
X15275110Y1503090D01*
X15239670D01*
G01X15275110D02*
X15298730Y1518960D01*
X15318420Y1545410D01*
X15326290Y1577160D01*
X15318420Y1608920D01*
X15298730Y1635370D01*
X15263300Y1651250D01*
X15227870Y1645960D01*
X15192430Y1624790D01*
G01X15562510Y1323170D02*
X15554630Y1328460D01*
Y1339040D01*
X15562510Y1344330D01*
X15570390Y1339040D01*
Y1328460D01*
X15562510Y1323170D01*
G01X15790860Y1397250D02*
X15814470Y1360200D01*
X15845970Y1339040D01*
X15881410Y1333750D01*
X15912910Y1339040D01*
X15944400Y1365490D01*
X15964080Y1397250D01*
X15968020Y1429000D01*
X15960150Y1466030D01*
X15932590Y1492500D01*
X15905030Y1503090D01*
X15869590D01*
G01X15905030D02*
X15928650Y1518960D01*
X15948340Y1545410D01*
X15956210Y1577160D01*
X15948340Y1608920D01*
X15928650Y1635370D01*
X15893220Y1651250D01*
X15857790Y1645960D01*
X15822350Y1624790D01*
G01X15247550Y1968750D02*
Y2286250D01*
X15200310Y2222750D01*
G01Y1968750D02*
X15294790D01*
G01X15562510Y1958170D02*
X15554630Y1963460D01*
Y1974040D01*
X15562510Y1979330D01*
X15570390Y1974040D01*
Y1963460D01*
X15562510Y1958170D01*
G01X15877470Y1968750D02*
X15905030Y1974040D01*
X15936520Y1989910D01*
X15956210Y2016360D01*
X15964080Y2053420D01*
X15956210Y2090450D01*
X15932590Y2122200D01*
X15897150Y2138090D01*
X15857790D01*
X15834160Y2148670D01*
X15814470Y2175120D01*
X15806600Y2212160D01*
X15818420Y2249210D01*
X15845970Y2275670D01*
X15877470Y2286250D01*
X15908960Y2275670D01*
X15936520Y2249210D01*
X15948340Y2212160D01*
X15940460Y2175120D01*
X15920780Y2148670D01*
X15897150Y2138090D01*
X15857790D01*
X15822350Y2122200D01*
X15798730Y2090450D01*
X15790860Y2053420D01*
X15798730Y2016360D01*
X15818420Y1989910D01*
X15849910Y1974040D01*
X15877470Y1968750D01*
G01X15247550Y2603750D02*
Y2921250D01*
X15200310Y2857750D01*
G01Y2603750D02*
X15294790D01*
G01X15562510Y2593170D02*
X15554630Y2598460D01*
Y2609040D01*
X15562510Y2614330D01*
X15570390Y2609040D01*
Y2598460D01*
X15562510Y2593170D01*
G01X15790860Y2651360D02*
X15814470Y2624910D01*
X15842030Y2609040D01*
X15877470Y2603750D01*
X15912910Y2614330D01*
X15940460Y2635490D01*
X15960150Y2672540D01*
X15964080Y2714870D01*
X15956210Y2757200D01*
X15936520Y2783670D01*
X15908960Y2804830D01*
X15881410Y2810120D01*
X15853850Y2804830D01*
X15818420Y2783670D01*
X15830230Y2921250D01*
X15936520D01*
G01X15247550Y3238750D02*
Y3556250D01*
X15200310Y3492750D01*
G01Y3238750D02*
X15294790D01*
G01X15562510Y3228170D02*
X15554630Y3233460D01*
Y3244040D01*
X15562510Y3249330D01*
X15570390Y3244040D01*
Y3233460D01*
X15562510Y3228170D01*
G01X15877470Y3238750D02*
Y3556250D01*
X15830230Y3492750D01*
G01Y3238750D02*
X15924710D01*
G01X15247550Y4191250D02*
X15216050Y4180670D01*
X15192430Y4154210D01*
X15176680Y4122460D01*
X15164870Y4080120D01*
X15160940Y4032500D01*
X15164870Y3984870D01*
X15176680Y3942540D01*
X15192430Y3910780D01*
X15216050Y3884330D01*
X15247550Y3873750D01*
X15279040Y3884330D01*
X15302670Y3910780D01*
X15318420Y3942540D01*
X15330230Y3984870D01*
X15334160Y4032500D01*
X15330230Y4080120D01*
X15318420Y4122460D01*
X15302670Y4154210D01*
X15279040Y4180670D01*
X15247550Y4191250D01*
G01X15562510Y3863170D02*
X15554630Y3868460D01*
Y3879040D01*
X15562510Y3884330D01*
X15570390Y3879040D01*
Y3868460D01*
X15562510Y3863170D01*
G01X15877470Y3873750D02*
X15905030Y3879040D01*
X15936520Y3894910D01*
X15956210Y3921360D01*
X15964080Y3958420D01*
X15956210Y3995450D01*
X15932590Y4027200D01*
X15897150Y4043090D01*
X15857790D01*
X15834160Y4053670D01*
X15814470Y4080120D01*
X15806600Y4117160D01*
X15818420Y4154210D01*
X15845970Y4180670D01*
X15877470Y4191250D01*
X15908960Y4180670D01*
X15936520Y4154210D01*
X15948340Y4117160D01*
X15940460Y4080120D01*
X15920780Y4053670D01*
X15897150Y4043090D01*
X15857790D01*
X15822350Y4027200D01*
X15798730Y3995450D01*
X15790860Y3958420D01*
X15798730Y3921360D01*
X15818420Y3894910D01*
X15849910Y3879040D01*
X15877470Y3873750D01*
G01X18554630Y5778750D02*
Y6096250D01*
X18653050D01*
X18684550Y6080370D01*
X18704240Y6059210D01*
X18712110Y6016870D01*
X18704240Y5974540D01*
X18680610Y5948090D01*
X18653050Y5932200D01*
X18554630D01*
G01X18653050D02*
X18712110Y5778750D01*
G01X18948330D02*
X18916830Y5784040D01*
X18889280Y5805200D01*
X18865650Y5836960D01*
X18849900Y5874000D01*
X18842030Y5916330D01*
Y5958670D01*
X18849900Y6001000D01*
X18865650Y6038040D01*
X18889280Y6069790D01*
X18916830Y6090960D01*
X18948330Y6096250D01*
X18979820Y6090960D01*
X19007380Y6069790D01*
X19031010Y6038040D01*
X19046760Y6001000D01*
X19054630Y5958670D01*
Y5916330D01*
X19046760Y5874000D01*
X19031010Y5836960D01*
X19007380Y5805200D01*
X18979820Y5784040D01*
X18948330Y5778750D01*
G01X19263290Y6096250D02*
Y5778750D01*
G01X19172740Y6096250D02*
X19353840D01*
G01X19479820Y5778750D02*
X19578250Y6096250D01*
X19676680Y5778750D01*
G01X19641240Y5889870D02*
X19515250D01*
G01X19893210Y6096250D02*
Y5778750D01*
G01X19802660Y6096250D02*
X19983760D01*
G01X20160930D02*
X20255410D01*
G01X20208170D02*
Y5778750D01*
G01X20160930D02*
X20255410D01*
G01X20523130D02*
X20491630Y5784040D01*
X20464080Y5805200D01*
X20440450Y5836960D01*
X20424700Y5874000D01*
X20416830Y5916330D01*
Y5958670D01*
X20424700Y6001000D01*
X20440450Y6038040D01*
X20464080Y6069790D01*
X20491630Y6090960D01*
X20523130Y6096250D01*
X20554620Y6090960D01*
X20582180Y6069790D01*
X20605810Y6038040D01*
X20621560Y6001000D01*
X20629430Y5958670D01*
Y5916330D01*
X20621560Y5874000D01*
X20605810Y5836960D01*
X20582180Y5805200D01*
X20554620Y5784040D01*
X20523130Y5778750D01*
G01X20747540D02*
Y6096250D01*
X20928640Y5778750D01*
Y6096250D01*
G01X18881400Y100780D02*
X18908960Y74330D01*
X18940450Y63750D01*
X18971950Y74330D01*
X18999510Y106070D01*
X19019200Y153710D01*
X19027070Y201330D01*
Y259540D01*
X19019200Y307160D01*
X18999510Y349500D01*
X18975890Y370670D01*
X18948330Y381250D01*
X18916830Y370670D01*
X18893210Y349500D01*
X18877460Y317750D01*
X18869590Y275410D01*
X18877460Y238380D01*
X18897150Y201330D01*
X18920770Y180160D01*
X18948330Y174870D01*
X18979820Y185450D01*
X19003450Y211910D01*
X19027070Y259540D01*
G01X19263290Y381250D02*
X19231790Y370670D01*
X19208170Y344210D01*
X19192420Y312460D01*
X19180610Y270120D01*
X19176680Y222500D01*
X19180610Y174870D01*
X19192420Y132540D01*
X19208170Y100780D01*
X19231790Y74330D01*
X19263290Y63750D01*
X19294780Y74330D01*
X19318410Y100780D01*
X19334160Y132540D01*
X19345970Y174870D01*
X19349900Y222500D01*
X19345970Y270120D01*
X19334160Y312460D01*
X19318410Y344210D01*
X19294780Y370670D01*
X19263290Y381250D01*
G01X19578250Y53170D02*
X19570370Y58460D01*
Y69040D01*
X19578250Y74330D01*
X19586130Y69040D01*
Y58460D01*
X19578250Y53170D01*
G01X19893210Y381250D02*
X19861710Y370670D01*
X19838090Y344210D01*
X19822340Y312460D01*
X19810530Y270120D01*
X19806600Y222500D01*
X19810530Y174870D01*
X19822340Y132540D01*
X19838090Y100780D01*
X19861710Y74330D01*
X19893210Y63750D01*
X19924700Y74330D01*
X19948330Y100780D01*
X19964080Y132540D01*
X19975890Y174870D01*
X19979820Y222500D01*
X19975890Y270120D01*
X19964080Y312460D01*
X19948330Y344210D01*
X19924700Y370670D01*
X19893210Y381250D01*
G01X20208170D02*
X20176670Y370670D01*
X20153050Y344210D01*
X20137300Y312460D01*
X20125490Y270120D01*
X20121560Y222500D01*
X20125490Y174870D01*
X20137300Y132540D01*
X20153050Y100780D01*
X20176670Y74330D01*
X20208170Y63750D01*
X20239660Y74330D01*
X20263290Y100780D01*
X20279040Y132540D01*
X20290850Y174870D01*
X20294780Y222500D01*
X20290850Y270120D01*
X20279040Y312460D01*
X20263290Y344210D01*
X20239660Y370670D01*
X20208170Y381250D01*
G01X20523130D02*
X20491630Y370670D01*
X20468010Y344210D01*
X20452260Y312460D01*
X20440450Y270120D01*
X20436520Y222500D01*
X20440450Y174870D01*
X20452260Y132540D01*
X20468010Y100780D01*
X20491630Y74330D01*
X20523130Y63750D01*
X20554620Y74330D01*
X20578250Y100780D01*
X20594000Y132540D01*
X20605810Y174870D01*
X20609740Y222500D01*
X20605810Y270120D01*
X20594000Y312460D01*
X20578250Y344210D01*
X20554620Y370670D01*
X20523130Y381250D01*
G01X19105810Y1016250D02*
X19074310Y1005670D01*
X19050690Y979210D01*
X19034940Y947460D01*
X19023130Y905120D01*
X19019200Y857500D01*
X19023130Y809870D01*
X19034940Y767540D01*
X19050690Y735780D01*
X19074310Y709330D01*
X19105810Y698750D01*
X19137300Y709330D01*
X19160930Y735780D01*
X19176680Y767540D01*
X19188490Y809870D01*
X19192420Y857500D01*
X19188490Y905120D01*
X19176680Y947460D01*
X19160930Y979210D01*
X19137300Y1005670D01*
X19105810Y1016250D01*
G01X19420770Y688170D02*
X19412890Y693460D01*
Y704040D01*
X19420770Y709330D01*
X19428650Y704040D01*
Y693460D01*
X19420770Y688170D01*
G01X19735730Y1016250D02*
X19704230Y1005670D01*
X19680610Y979210D01*
X19664860Y947460D01*
X19653050Y905120D01*
X19649120Y857500D01*
X19653050Y809870D01*
X19664860Y767540D01*
X19680610Y735780D01*
X19704230Y709330D01*
X19735730Y698750D01*
X19767220Y709330D01*
X19790850Y735780D01*
X19806600Y767540D01*
X19818410Y809870D01*
X19822340Y857500D01*
X19818410Y905120D01*
X19806600Y947460D01*
X19790850Y979210D01*
X19767220Y1005670D01*
X19735730Y1016250D01*
G01X20050690D02*
X20019190Y1005670D01*
X19995570Y979210D01*
X19979820Y947460D01*
X19968010Y905120D01*
X19964080Y857500D01*
X19968010Y809870D01*
X19979820Y767540D01*
X19995570Y735780D01*
X20019190Y709330D01*
X20050690Y698750D01*
X20082180Y709330D01*
X20105810Y735780D01*
X20121560Y767540D01*
X20133370Y809870D01*
X20137300Y857500D01*
X20133370Y905120D01*
X20121560Y947460D01*
X20105810Y979210D01*
X20082180Y1005670D01*
X20050690Y1016250D01*
G01X20365650D02*
X20334150Y1005670D01*
X20310530Y979210D01*
X20294780Y947460D01*
X20282970Y905120D01*
X20279040Y857500D01*
X20282970Y809870D01*
X20294780Y767540D01*
X20310530Y735780D01*
X20334150Y709330D01*
X20365650Y698750D01*
X20397140Y709330D01*
X20420770Y735780D01*
X20436520Y767540D01*
X20448330Y809870D01*
X20452260Y857500D01*
X20448330Y905120D01*
X20436520Y947460D01*
X20420770Y979210D01*
X20397140Y1005670D01*
X20365650Y1016250D01*
G01X19684550Y1439580D02*
X19786910D01*
G01X19684550Y2074580D02*
X19786910D01*
G01X19684550Y2709580D02*
X19786910D01*
G01X19684550Y3344580D02*
X19786910D01*
G01X19684550Y3979580D02*
X19786910D01*
G01X19684550Y4614580D02*
X19786910D01*
G01X19684550Y5249580D02*
X19786910D01*
G01X20678070Y-253750D02*
Y-571250D01*
G01X20587520Y-253750D02*
X20768620D01*
G01X20993030Y-571250D02*
X20961530Y-565960D01*
X20933980Y-544800D01*
X20910350Y-513040D01*
X20894600Y-476000D01*
X20886730Y-433670D01*
Y-391330D01*
X20894600Y-349000D01*
X20910350Y-311960D01*
X20933980Y-280210D01*
X20961530Y-259040D01*
X20993030Y-253750D01*
X21024520Y-259040D01*
X21052080Y-280210D01*
X21075710Y-311960D01*
X21091460Y-349000D01*
X21099330Y-391330D01*
Y-433670D01*
X21091460Y-476000D01*
X21075710Y-513040D01*
X21052080Y-544800D01*
X21024520Y-565960D01*
X20993030Y-571250D01*
G01X21307990Y-253750D02*
Y-571250D01*
G01X21217440Y-253750D02*
X21398540D01*
G01X21524520Y-571250D02*
X21622950Y-253750D01*
X21721380Y-571250D01*
G01X21685940Y-460130D02*
X21559950D01*
G01X21859170Y-253750D02*
Y-571250D01*
X22016650D01*
G01X22485150D02*
Y-253750D01*
G01X22650510D02*
Y-571250D01*
G01Y-412500D02*
X22485150D01*
G01X22882790Y-571250D02*
X22851290Y-565960D01*
X22823740Y-544800D01*
X22800110Y-513040D01*
X22784360Y-476000D01*
X22776490Y-433670D01*
Y-391330D01*
X22784360Y-349000D01*
X22800110Y-311960D01*
X22823740Y-280210D01*
X22851290Y-259040D01*
X22882790Y-253750D01*
X22914280Y-259040D01*
X22941840Y-280210D01*
X22965470Y-311960D01*
X22981220Y-349000D01*
X22989090Y-391330D01*
Y-433670D01*
X22981220Y-476000D01*
X22965470Y-513040D01*
X22941840Y-544800D01*
X22914280Y-565960D01*
X22882790Y-571250D01*
G01X23119010Y-253750D02*
Y-571250D01*
X23276490D01*
G01X23591450D02*
X23433970D01*
Y-253750D01*
X23591450D01*
G01X23528460Y-407200D02*
X23433970D01*
G01X23744990Y-528930D02*
X23776490Y-555380D01*
X23811920Y-571250D01*
X23843420D01*
X23874910Y-555380D01*
X23898540Y-528930D01*
X23910350Y-491870D01*
X23902480Y-454840D01*
X23882790Y-423090D01*
X23847350Y-401910D01*
X23800110Y-391330D01*
X23772550Y-370170D01*
X23760740Y-333130D01*
X23768620Y-296080D01*
X23788300Y-269630D01*
X23815860Y-253750D01*
X23843420D01*
X23870980Y-264330D01*
X23894600Y-290790D01*
G01X24142630Y-581830D02*
X24134750Y-576540D01*
Y-565960D01*
X24142630Y-560670D01*
X24150510Y-565960D01*
Y-576540D01*
X24142630Y-581830D01*
G01Y-438970D02*
X24134750Y-433670D01*
Y-423090D01*
X24142630Y-417800D01*
X24150510Y-423090D01*
Y-433670D01*
X24142630Y-438970D01*
G01X22097930Y63750D02*
Y381250D01*
X22192420D01*
X22223910Y365370D01*
X22247540Y328330D01*
X22255410Y286000D01*
X22247540Y243670D01*
X22227850Y211910D01*
X22192420Y196030D01*
X22097930D01*
G01X22412890Y381250D02*
Y63750D01*
X22570370D01*
G01X22708160D02*
X22806590Y381250D01*
X22905020Y63750D01*
G01X22869580Y174870D02*
X22743590D01*
G01X23121550Y381250D02*
Y63750D01*
G01X23031000Y381250D02*
X23212100D01*
G01X23515250Y63750D02*
X23357770D01*
Y381250D01*
X23515250D01*
G01X23452260Y227800D02*
X23357770D01*
G01X23664860Y63750D02*
Y381250D01*
X23743590D01*
X23775090Y365370D01*
X23798710Y344210D01*
X23818400Y312460D01*
X23834150Y275410D01*
X23838080Y222500D01*
X23834150Y169580D01*
X23818400Y132540D01*
X23798710Y100780D01*
X23775090Y79620D01*
X23743590Y63750D01*
X23664860D01*
G01X22097930Y698750D02*
Y1016250D01*
X22192420D01*
X22223910Y1000370D01*
X22247540Y963330D01*
X22255410Y921000D01*
X22247540Y878670D01*
X22227850Y846910D01*
X22192420Y831030D01*
X22097930D01*
G01X22412890Y1016250D02*
Y698750D01*
X22570370D01*
G01X22708160D02*
X22806590Y1016250D01*
X22905020Y698750D01*
G01X22869580Y809870D02*
X22743590D01*
G01X23121550Y1016250D02*
Y698750D01*
G01X23031000Y1016250D02*
X23212100D01*
G01X23515250Y698750D02*
X23357770D01*
Y1016250D01*
X23515250D01*
G01X23452260Y862800D02*
X23357770D01*
G01X23664860Y698750D02*
Y1016250D01*
X23743590D01*
X23775090Y1000370D01*
X23798710Y979210D01*
X23818400Y947460D01*
X23834150Y910410D01*
X23838080Y857500D01*
X23834150Y804580D01*
X23818400Y767540D01*
X23798710Y735780D01*
X23775090Y714620D01*
X23743590Y698750D01*
X23664860D01*
G01X22097930Y1333750D02*
Y1651250D01*
X22192420D01*
X22223910Y1635370D01*
X22247540Y1598330D01*
X22255410Y1556000D01*
X22247540Y1513670D01*
X22227850Y1481910D01*
X22192420Y1466030D01*
X22097930D01*
G01X22412890Y1651250D02*
Y1333750D01*
X22570370D01*
G01X22708160D02*
X22806590Y1651250D01*
X22905020Y1333750D01*
G01X22869580Y1444870D02*
X22743590D01*
G01X23121550Y1651250D02*
Y1333750D01*
G01X23031000Y1651250D02*
X23212100D01*
G01X23515250Y1333750D02*
X23357770D01*
Y1651250D01*
X23515250D01*
G01X23452260Y1497800D02*
X23357770D01*
G01X23664860Y1333750D02*
Y1651250D01*
X23743590D01*
X23775090Y1635370D01*
X23798710Y1614210D01*
X23818400Y1582460D01*
X23834150Y1545410D01*
X23838080Y1492500D01*
X23834150Y1439580D01*
X23818400Y1402540D01*
X23798710Y1370780D01*
X23775090Y1349620D01*
X23743590Y1333750D01*
X23664860D01*
G01X22097930Y1968750D02*
Y2286250D01*
X22192420D01*
X22223910Y2270370D01*
X22247540Y2233330D01*
X22255410Y2191000D01*
X22247540Y2148670D01*
X22227850Y2116910D01*
X22192420Y2101030D01*
X22097930D01*
G01X22412890Y2286250D02*
Y1968750D01*
X22570370D01*
G01X22708160D02*
X22806590Y2286250D01*
X22905020Y1968750D01*
G01X22869580Y2079870D02*
X22743590D01*
G01X23121550Y2286250D02*
Y1968750D01*
G01X23031000Y2286250D02*
X23212100D01*
G01X23515250Y1968750D02*
X23357770D01*
Y2286250D01*
X23515250D01*
G01X23452260Y2132800D02*
X23357770D01*
G01X23664860Y1968750D02*
Y2286250D01*
X23743590D01*
X23775090Y2270370D01*
X23798710Y2249210D01*
X23818400Y2217460D01*
X23834150Y2180410D01*
X23838080Y2127500D01*
X23834150Y2074580D01*
X23818400Y2037540D01*
X23798710Y2005780D01*
X23775090Y1984620D01*
X23743590Y1968750D01*
X23664860D01*
G01X22097930Y2603750D02*
Y2921250D01*
X22192420D01*
X22223910Y2905370D01*
X22247540Y2868330D01*
X22255410Y2826000D01*
X22247540Y2783670D01*
X22227850Y2751910D01*
X22192420Y2736030D01*
X22097930D01*
G01X22412890Y2921250D02*
Y2603750D01*
X22570370D01*
G01X22708160D02*
X22806590Y2921250D01*
X22905020Y2603750D01*
G01X22869580Y2714870D02*
X22743590D01*
G01X23121550Y2921250D02*
Y2603750D01*
G01X23031000Y2921250D02*
X23212100D01*
G01X23515250Y2603750D02*
X23357770D01*
Y2921250D01*
X23515250D01*
G01X23452260Y2767800D02*
X23357770D01*
G01X23664860Y2603750D02*
Y2921250D01*
X23743590D01*
X23775090Y2905370D01*
X23798710Y2884210D01*
X23818400Y2852460D01*
X23834150Y2815410D01*
X23838080Y2762500D01*
X23834150Y2709580D01*
X23818400Y2672540D01*
X23798710Y2640780D01*
X23775090Y2619620D01*
X23743590Y2603750D01*
X23664860D01*
G01X22097930Y3238750D02*
Y3556250D01*
X22192420D01*
X22223910Y3540370D01*
X22247540Y3503330D01*
X22255410Y3461000D01*
X22247540Y3418670D01*
X22227850Y3386910D01*
X22192420Y3371030D01*
X22097930D01*
G01X22412890Y3556250D02*
Y3238750D01*
X22570370D01*
G01X22708160D02*
X22806590Y3556250D01*
X22905020Y3238750D01*
G01X22869580Y3349870D02*
X22743590D01*
G01X23121550Y3556250D02*
Y3238750D01*
G01X23031000Y3556250D02*
X23212100D01*
G01X23515250Y3238750D02*
X23357770D01*
Y3556250D01*
X23515250D01*
G01X23452260Y3402800D02*
X23357770D01*
G01X23664860Y3238750D02*
Y3556250D01*
X23743590D01*
X23775090Y3540370D01*
X23798710Y3519210D01*
X23818400Y3487460D01*
X23834150Y3450410D01*
X23838080Y3397500D01*
X23834150Y3344580D01*
X23818400Y3307540D01*
X23798710Y3275780D01*
X23775090Y3254620D01*
X23743590Y3238750D01*
X23664860D01*
G01X22097930Y3873750D02*
Y4191250D01*
X22192420D01*
X22223910Y4175370D01*
X22247540Y4138330D01*
X22255410Y4096000D01*
X22247540Y4053670D01*
X22227850Y4021910D01*
X22192420Y4006030D01*
X22097930D01*
G01X22412890Y4191250D02*
Y3873750D01*
X22570370D01*
G01X22708160D02*
X22806590Y4191250D01*
X22905020Y3873750D01*
G01X22869580Y3984870D02*
X22743590D01*
G01X23121550Y4191250D02*
Y3873750D01*
G01X23031000Y4191250D02*
X23212100D01*
G01X23515250Y3873750D02*
X23357770D01*
Y4191250D01*
X23515250D01*
G01X23452260Y4037800D02*
X23357770D01*
G01X23664860Y3873750D02*
Y4191250D01*
X23743590D01*
X23775090Y4175370D01*
X23798710Y4154210D01*
X23818400Y4122460D01*
X23834150Y4085410D01*
X23838080Y4032500D01*
X23834150Y3979580D01*
X23818400Y3942540D01*
X23798710Y3910780D01*
X23775090Y3889620D01*
X23743590Y3873750D01*
X23664860D01*
G01X22097930Y4508750D02*
Y4826250D01*
X22192420D01*
X22223910Y4810370D01*
X22247540Y4773330D01*
X22255410Y4731000D01*
X22247540Y4688670D01*
X22227850Y4656910D01*
X22192420Y4641030D01*
X22097930D01*
G01X22412890Y4826250D02*
Y4508750D01*
X22570370D01*
G01X22708160D02*
X22806590Y4826250D01*
X22905020Y4508750D01*
G01X22869580Y4619870D02*
X22743590D01*
G01X23121550Y4826250D02*
Y4508750D01*
G01X23031000Y4826250D02*
X23212100D01*
G01X23515250Y4508750D02*
X23357770D01*
Y4826250D01*
X23515250D01*
G01X23452260Y4672800D02*
X23357770D01*
G01X23664860Y4508750D02*
Y4826250D01*
X23743590D01*
X23775090Y4810370D01*
X23798710Y4789210D01*
X23818400Y4757460D01*
X23834150Y4720410D01*
X23838080Y4667500D01*
X23834150Y4614580D01*
X23818400Y4577540D01*
X23798710Y4545780D01*
X23775090Y4524620D01*
X23743590Y4508750D01*
X23664860D01*
G01X22097930Y5143750D02*
Y5461250D01*
X22192420D01*
X22223910Y5445370D01*
X22247540Y5408330D01*
X22255410Y5366000D01*
X22247540Y5323670D01*
X22227850Y5291910D01*
X22192420Y5276030D01*
X22097930D01*
G01X22412890Y5461250D02*
Y5143750D01*
X22570370D01*
G01X22708160D02*
X22806590Y5461250D01*
X22905020Y5143750D01*
G01X22869580Y5254870D02*
X22743590D01*
G01X23121550Y5461250D02*
Y5143750D01*
G01X23031000Y5461250D02*
X23212100D01*
G01X23515250Y5143750D02*
X23357770D01*
Y5461250D01*
X23515250D01*
G01X23452260Y5307800D02*
X23357770D01*
G01X23664860Y5143750D02*
Y5461250D01*
X23743590D01*
X23775090Y5445370D01*
X23798710Y5424210D01*
X23818400Y5392460D01*
X23834150Y5355410D01*
X23838080Y5302500D01*
X23834150Y5249580D01*
X23818400Y5212540D01*
X23798710Y5180780D01*
X23775090Y5159620D01*
X23743590Y5143750D01*
X23664860D01*
G01X22097930Y5778750D02*
Y6096250D01*
X22192420D01*
X22223910Y6080370D01*
X22247540Y6043330D01*
X22255410Y6001000D01*
X22247540Y5958670D01*
X22227850Y5926910D01*
X22192420Y5911030D01*
X22097930D01*
G01X22412890Y6096250D02*
Y5778750D01*
X22570370D01*
G01X22708160D02*
X22806590Y6096250D01*
X22905020Y5778750D01*
G01X22869580Y5889870D02*
X22743590D01*
G01X23121550Y6096250D02*
Y5778750D01*
G01X23031000Y6096250D02*
X23212100D01*
G01X23515250Y5778750D02*
X23357770D01*
Y6096250D01*
X23515250D01*
G01X23452260Y5942800D02*
X23357770D01*
G01X23664860Y5778750D02*
Y6096250D01*
X23743590D01*
X23775090Y6080370D01*
X23798710Y6059210D01*
X23818400Y6027460D01*
X23834150Y5990410D01*
X23838080Y5937500D01*
X23834150Y5884580D01*
X23818400Y5847540D01*
X23798710Y5815780D01*
X23775090Y5794620D01*
X23743590Y5778750D01*
X23664860D01*
G01X25172720Y-306670D02*
X25196350Y-274920D01*
X25223910Y-259040D01*
X25255410Y-253750D01*
X25294770Y-264330D01*
X25322340Y-290790D01*
X25330210Y-322540D01*
X25326270Y-354300D01*
X25310520Y-380750D01*
X25231780Y-433670D01*
X25196350Y-470710D01*
X25172720Y-523640D01*
X25164850Y-571250D01*
X25330210D01*
G01X25475880Y-523640D02*
X25499490Y-550090D01*
X25527050Y-565960D01*
X25562490Y-571250D01*
X25597930Y-560670D01*
X25625480Y-539510D01*
X25645170Y-502460D01*
X25649100Y-460130D01*
X25641230Y-417800D01*
X25621540Y-391330D01*
X25593980Y-370170D01*
X25566430Y-364880D01*
X25538870Y-370170D01*
X25503440Y-391330D01*
X25515250Y-253750D01*
X25621540D01*
G01X25877450Y-571250D02*
X25905010Y-565960D01*
X25936500Y-550090D01*
X25956190Y-523640D01*
X25964060Y-486580D01*
X25956190Y-449550D01*
X25932570Y-417800D01*
X25897130Y-401910D01*
X25857770D01*
X25834140Y-391330D01*
X25814450Y-364880D01*
X25806580Y-327840D01*
X25818400Y-290790D01*
X25845950Y-264330D01*
X25877450Y-253750D01*
X25908940Y-264330D01*
X25936500Y-290790D01*
X25948320Y-327840D01*
X25940440Y-364880D01*
X25920760Y-391330D01*
X25897130Y-401910D01*
X25857770D01*
X25822330Y-417800D01*
X25798710Y-449550D01*
X25790840Y-486580D01*
X25798710Y-523640D01*
X25818400Y-550090D01*
X25849890Y-565960D01*
X25877450Y-571250D01*
G01X25247530Y5143750D02*
Y5461250D01*
X25200290Y5397750D01*
G01Y5143750D02*
X25294770D01*
G01X25475880Y5191360D02*
X25499490Y5164910D01*
X25527050Y5149040D01*
X25562490Y5143750D01*
X25597930Y5154330D01*
X25625480Y5175490D01*
X25645170Y5212540D01*
X25649100Y5254870D01*
X25641230Y5297200D01*
X25621540Y5323670D01*
X25593980Y5344830D01*
X25566430Y5350120D01*
X25538870Y5344830D01*
X25503440Y5323670D01*
X25515250Y5461250D01*
X25621540D01*
G01X25790840Y5191360D02*
X25814450Y5164910D01*
X25842010Y5149040D01*
X25877450Y5143750D01*
X25912890Y5154330D01*
X25940440Y5175490D01*
X25960130Y5212540D01*
X25964060Y5254870D01*
X25956190Y5297200D01*
X25936500Y5323670D01*
X25908940Y5344830D01*
X25881390Y5350120D01*
X25853830Y5344830D01*
X25818400Y5323670D01*
X25830210Y5461250D01*
X25936500D01*
G01X25247530Y5778750D02*
X25216030Y5784040D01*
X25188480Y5805200D01*
X25164850Y5836960D01*
X25149100Y5874000D01*
X25141230Y5916330D01*
Y5958670D01*
X25149100Y6001000D01*
X25164850Y6038040D01*
X25188480Y6069790D01*
X25216030Y6090960D01*
X25247530Y6096250D01*
X25279020Y6090960D01*
X25306580Y6069790D01*
X25330210Y6038040D01*
X25345960Y6001000D01*
X25353830Y5958670D01*
Y5916330D01*
X25345960Y5874000D01*
X25330210Y5836960D01*
X25306580Y5805200D01*
X25279020Y5784040D01*
X25247530Y5778750D01*
G01X25279020Y5863420D02*
X25326270Y5778750D01*
G01X25562490Y6096250D02*
Y5778750D01*
G01X25471940Y6096250D02*
X25653040D01*
G01X25877450Y5778750D02*
Y5921620D01*
X25798710Y6096250D01*
G01X25956190D02*
X25877450Y5921620D01*
G01X25487680Y328330D02*
X25511310Y360080D01*
X25538870Y375960D01*
X25570370Y381250D01*
X25609730Y370670D01*
X25637300Y344210D01*
X25645170Y312460D01*
X25641230Y280700D01*
X25625480Y254250D01*
X25546740Y201330D01*
X25511310Y164290D01*
X25487680Y111360D01*
X25479810Y63750D01*
X25645170D01*
G01X25562490Y698750D02*
Y1016250D01*
X25515250Y952750D01*
G01Y698750D02*
X25609730D01*
G01Y1333750D02*
Y1651250D01*
X25464060Y1423710D01*
X25660920D01*
G01X25562490Y1968750D02*
X25590050Y1974040D01*
X25621540Y1989910D01*
X25641230Y2016360D01*
X25649100Y2053420D01*
X25641230Y2090450D01*
X25617610Y2122200D01*
X25582170Y2138090D01*
X25542810D01*
X25519180Y2148670D01*
X25499490Y2175120D01*
X25491620Y2212160D01*
X25503440Y2249210D01*
X25530990Y2275670D01*
X25562490Y2286250D01*
X25593980Y2275670D01*
X25621540Y2249210D01*
X25633360Y2212160D01*
X25625480Y2175120D01*
X25605800Y2148670D01*
X25582170Y2138090D01*
X25542810D01*
X25507370Y2122200D01*
X25483750Y2090450D01*
X25475880Y2053420D01*
X25483750Y2016360D01*
X25503440Y1989910D01*
X25534930Y1974040D01*
X25562490Y1968750D01*
G01X25487680Y2868330D02*
X25511310Y2900080D01*
X25538870Y2915960D01*
X25570370Y2921250D01*
X25609730Y2910670D01*
X25637300Y2884210D01*
X25645170Y2852460D01*
X25641230Y2820700D01*
X25625480Y2794250D01*
X25546740Y2741330D01*
X25511310Y2704290D01*
X25487680Y2651360D01*
X25479810Y2603750D01*
X25645170D01*
G01X25330200Y3371030D02*
X25357770Y3408090D01*
X25381390Y3429250D01*
X25412890Y3439830D01*
X25440450Y3429250D01*
X25460130Y3408090D01*
X25475880Y3376330D01*
X25479820Y3339290D01*
X25475880Y3307540D01*
X25460130Y3275780D01*
X25436500Y3249330D01*
X25408950Y3238750D01*
X25377450Y3249330D01*
X25349890Y3281070D01*
X25334140Y3328710D01*
X25330200Y3381620D01*
X25338080Y3450410D01*
X25349890Y3487460D01*
X25369570Y3524500D01*
X25397130Y3550960D01*
X25424690Y3556250D01*
X25452250Y3545670D01*
X25471940Y3519210D01*
G01X25719970Y3556250D02*
X25688470Y3545670D01*
X25664850Y3519210D01*
X25649100Y3487460D01*
X25637290Y3445120D01*
X25633360Y3397500D01*
X25637290Y3349870D01*
X25649100Y3307540D01*
X25664850Y3275780D01*
X25688470Y3249330D01*
X25719970Y3238750D01*
X25751460Y3249330D01*
X25775090Y3275780D01*
X25790840Y3307540D01*
X25802650Y3349870D01*
X25806580Y3397500D01*
X25802650Y3445120D01*
X25790840Y3487460D01*
X25775090Y3519210D01*
X25751460Y3545670D01*
X25719970Y3556250D01*
G01X25487680Y4138330D02*
X25511310Y4170080D01*
X25538870Y4185960D01*
X25570370Y4191250D01*
X25609730Y4180670D01*
X25637300Y4154210D01*
X25645170Y4122460D01*
X25641230Y4090700D01*
X25625480Y4064250D01*
X25546740Y4011330D01*
X25511310Y3974290D01*
X25487680Y3921360D01*
X25479810Y3873750D01*
X25645170D01*
G01X25330200Y4773330D02*
X25353830Y4805080D01*
X25381390Y4820960D01*
X25412890Y4826250D01*
X25452250Y4815670D01*
X25479820Y4789210D01*
X25487690Y4757460D01*
X25483750Y4725700D01*
X25468000Y4699250D01*
X25389260Y4646330D01*
X25353830Y4609290D01*
X25330200Y4556360D01*
X25322330Y4508750D01*
X25487690D01*
G01X25767210D02*
Y4826250D01*
X25621540Y4598710D01*
X25818400D01*
G01X-250000Y0D02*
X-1620000D01*
G01X580000Y6100000D02*
X-1620000D01*
G01X-1370000Y2924260D02*
Y0D01*
G01X-1432500Y400000D02*
X-1370000Y0D01*
X-1307500Y400000D01*
X-1432500D01*
G01X-1370000Y3415740D02*
Y6100000D01*
G01X-1307500Y5700000D02*
X-1370000Y6100000D01*
X-1432500Y5700000D01*
X-1307500D01*
G01X-800000Y-220000D02*
X0D01*
G01X-250000Y0D02*
X-970000D01*
G01X-720000Y2534260D02*
Y0D01*
G01X-782500Y400000D02*
X-720000Y0D01*
X-657500Y400000D01*
X-782500D01*
G01X-720000Y3025740D02*
Y5740000D01*
G01X-657500Y5340000D02*
X-720000Y5740000D01*
X-782500Y5340000D01*
X-657500D01*
G01X110000Y5740000D02*
X-970000D01*
G01X-320000Y-800000D02*
Y0D01*
G01X-257500Y-400000D02*
X-320000Y0D01*
X-382500Y-400000D01*
X-257500D01*
G01X-400000Y-282500D02*
X0Y-220000D01*
X-400000Y-157500D01*
Y-282500D01*
G01X-250000Y0D02*
X-570000D01*
G01X110000Y360000D02*
X-570000D01*
G01X-320000Y644260D02*
Y360000D01*
G01X-382500Y760000D02*
X-320000Y360000D01*
X-257500Y760000D01*
X-382500D01*
G01X0Y-250000D02*
Y-1210000D01*
G01X4607890Y-960000D02*
X0D01*
G01X400000Y-897500D02*
X0Y-960000D01*
X400000Y-1022500D01*
Y-897500D01*
G01X0Y-250000D02*
Y-810000D01*
G01Y-250000D02*
Y-470000D01*
G01X4312640Y-560000D02*
X0D01*
G01X400000Y-497500D02*
X0Y-560000D01*
X400000Y-622500D01*
Y-497500D01*
G01X360000Y110000D02*
Y-470000D01*
G01X857890Y-220000D02*
X360000D01*
G01X760000Y-157500D02*
X360000Y-220000D01*
X760000Y-282500D01*
Y-157500D01*
G01X5327360Y-560000D02*
X9640000D01*
G01X5432110Y-960000D02*
X10000000D01*
G01X9240000Y-622500D02*
X9640000Y-560000D01*
X9240000Y-497500D01*
Y-622500D01*
G01X9600000Y-1022500D02*
X10000000Y-960000D01*
X9600000Y-897500D01*
Y-1022500D01*
G01X9640000Y110000D02*
Y-810000D01*
G01X10000000Y520000D02*
Y-1210000D01*
G01X10720000Y-95000D02*
Y7540000D01*
X26546740D01*
Y-95000D01*
X10720000D01*
G01Y540000D02*
X26546740D01*
G01X10720000Y1175000D02*
X26546740D01*
G01X10720000Y1810000D02*
X26546740D01*
G01X10720000Y2445000D02*
X26546740D01*
G01X10720000Y3080000D02*
X26546740D01*
G01X10720000Y3715000D02*
X26546740D01*
G01X10720000Y4350000D02*
X26546740D01*
G01X10720000Y4985000D02*
X26546740D01*
G01X10720000Y5620000D02*
X26546740D01*
G01X10720000Y6255000D02*
X26546740D01*
G01X10720000Y6890000D02*
X26546740D01*
G01X13003460Y6255000D02*
Y-95000D01*
G01X18121560Y6255000D02*
Y-95000D01*
G01X21349900Y6255000D02*
Y-95000D01*
G01X24578240Y6255000D02*
Y-95000D01*
M02*
