M48
METRIC,TZ
T01C.254
T02C.4572
T03C.8
T04C1.1
T05C1.5
T06C1.8
T07C3.3
;LEADER: 12 
;HEADER: 
;CODE  : ASCII 
;FILE  : DRV8313_V10_220621-1-2.drl for board G:/github/MotorDriver/HARDWARE/DRV8313_V10_220621/PCB/#Taaaamr07752.tmp ... layers TOP and BOTTOM
;T01 Holesize 1. = 0.254000 Tolerance = +0.000000/-0.000000 PLATED MM Quantity = 155
;T02 Holesize 2. = 0.457200 Tolerance = +0.000000/-0.000000 PLATED MM Quantity = 24
;T03 Holesize 3. = 0.800000 Tolerance = +0.000000/-0.000000 PLATED MM Quantity = 2
;T04 Holesize 4. = 1.100000 Tolerance = +0.000000/-0.000000 PLATED MM Quantity = 60
;T05 Holesize 5. = 1.500000 Tolerance = +0.000000/-0.000000 PLATED MM Quantity = 2
;T06 Holesize 6. = 1.800000 Tolerance = +0.000000/-0.000000 PLATED MM Quantity = 8
;T07 Holesize 7. = 3.300000 Tolerance = +0.000000/-0.000000 PLATED MM Quantity = 4
%
G90
T01
X213880Y912260
X213880Y1412260
X713880Y912260
X713880Y1412260
X1123880Y1402260
X1623880Y1402260
X1710000Y1330000
X1983880Y1402260
X2483880Y1402260
X2860000Y1280000
X2950000Y1280000
X3173880Y1392260
X3673880Y1392260
X4573880Y1392260
X5073880Y1392260
X5907870Y1314490
X6091110Y425090
X6407870Y1314490
X6591110Y425090
X6907870Y1314490
X7091110Y425090
X7407870Y1314490
X7591110Y425090
X8091110Y425090
X8591110Y425090
X9091110Y425090
X7407870Y2814490
X7407870Y2314490
X7407870Y1814490
X6907870Y2814490
X6907870Y2314490
X6907870Y1814490
X6407870Y2814490
X6407870Y2314490
X6407870Y1814490
X5907870Y2814490
X5907870Y2314490
X5907870Y1814490
X5200000Y2997500
X5200000Y2932500
X5200000Y2867500
X5200000Y2802500
X5200000Y2710000
X5200000Y2300000
X5100000Y2730000
X5100000Y2550000
X5073880Y1792260
X4920000Y2180000
X4915000Y2640000
X4850000Y2480000
X4730000Y2410000
X4573880Y1792260
X4033880Y1792260
X3995000Y1965000
X3750000Y2100000
X3620000Y2180000
X3600000Y2510000
X3600000Y2440000
X3600000Y2370000
X3533880Y1792260
X3520000Y2510000
X3520000Y2440000
X3520000Y2370000
X3453880Y2142260
X3003880Y2472260
X3000000Y2140000
X3000000Y1820000
X2575000Y2045000
X2503880Y2472260
X2290000Y1838060
X2165000Y2045000
X1881940Y1838060
X1470000Y1838060
X713880Y2912260
X713880Y2412260
X713880Y1912260
X213880Y2912260
X213880Y2412260
X213880Y1912260
X213880Y3412260
X213880Y3912260
X713880Y3412260
X713880Y3912260
X950000Y4370000
X1183880Y4142260
X1240000Y4390000
X1340000Y4130000
X1340000Y4340000
X1340000Y4540000
X1810000Y4110000
X1810000Y4340000
X2093880Y3452260
X2093880Y3952260
X2593880Y3452260
X2593880Y3952260
X2660000Y4535000
X2775000Y3745000
X2840000Y3120000
X2870000Y4185000
X3050000Y3460000
X3050000Y3840000
X3050000Y4050000
X3195000Y3745000
X3260000Y3120000
X3400000Y3460000
X3450000Y3820000
X3450000Y4050000
X3590000Y3060000
X3590000Y3130000
X3590000Y3200000
X3590000Y3270000
X3590000Y3340000
X3590000Y3410000
X4123230Y4309150
X4143230Y3939150
X4623230Y4309150
X4643230Y3939150
X4790000Y3127500
X5200000Y3062500
X6073230Y4139150
X6573230Y4139150
X7073230Y4139150
X7573230Y4139150
X8576090Y3388290
X9076090Y3388290
X9576090Y3388290
X8707310Y5439740
X8207310Y5439740
X7707310Y5439740
X7207310Y5439740
X6707310Y5439740
X6207310Y5439740
X5223230Y5159150
X4723230Y5159150
X4500000Y4770000
X4093230Y5159150
X3593230Y5159150
X3350000Y4770000
X3230000Y4770000
X3093230Y5159150
X2970000Y4770000
X2593230Y5159150
X2330000Y4770000
X2210000Y4770000
X2080000Y4770000
X1950000Y4770000
X1830000Y4770000
X1710000Y4770000
X1560000Y5000000
X1183230Y5369150
X1183880Y4642260
X1180000Y5000000
X691540Y4988340
X683230Y5369150
X191540Y4988340
T02
X4188450Y2410470
X4308450Y2410470
X4188450Y2530470
X4308450Y2530470
X4188450Y2650470
X4308450Y2650470
X4188450Y2770470
X4308450Y2770470
X4188450Y2890470
X4308450Y2890470
X4188450Y3010470
X4308450Y3010470
X4188450Y3130470
X4308450Y3130470
X4188450Y3250470
X4308450Y3250470
X4428450Y3250470
X4428450Y3130470
X4428450Y3010470
X4428450Y2890470
X4428450Y2770470
X4428450Y2650470
X4428450Y2530470
X4428450Y2410470
T03
X3920000Y3640000
X3920000Y3940000
T04
X1574000Y373000
X1828000Y373000
X2082000Y373000
X2336000Y373000
X2590000Y373000
X2844000Y373000
X3098000Y373000
X3352000Y373000
X3606000Y373000
X3860000Y373000
X4114000Y373000
X4368000Y373000
X4622000Y373000
X4876000Y373000
X5130000Y373000
X5130000Y627000
X4876000Y627000
X4622000Y627000
X4368000Y627000
X4114000Y627000
X3860000Y627000
X3606000Y627000
X3352000Y627000
X3098000Y627000
X2844000Y627000
X2590000Y627000
X2336000Y627000
X2082000Y627000
X1828000Y627000
X1574000Y627000
X1574000Y5473000
X1828000Y5473000
X2082000Y5473000
X2336000Y5473000
X2590000Y5473000
X2844000Y5473000
X3098000Y5473000
X3352000Y5473000
X3606000Y5473000
X3860000Y5473000
X4114000Y5473000
X4368000Y5473000
X4622000Y5473000
X4876000Y5473000
X5130000Y5473000
X5130000Y5727000
X4876000Y5727000
X4622000Y5727000
X4368000Y5727000
X4114000Y5727000
X3860000Y5727000
X3606000Y5727000
X3352000Y5727000
X3098000Y5727000
X2844000Y5727000
X2590000Y5727000
X2336000Y5727000
X2082000Y5727000
X1828000Y5727000
X1574000Y5727000
T05
X6139000Y5150000
X6901000Y5150000
T06
X1390000Y2420000
X1390000Y2840000
X1390000Y3260000
X1390000Y3680000
X1940000Y3680000
X1940000Y3260000
X1940000Y2840000
X1940000Y2420000
T07
X360000Y360000
X360000Y5740000
X9640000Y5740000
X9640000Y360000
M30
