G04 ================== begin FILE IDENTIFICATION RECORD ==================*
G04 Layout Name:  DRV8313_V10_220621.brd*
G04 Film Name:    PasteMask_Top*
G04 File Format:  Gerber RS274X*
G04 File Origin:  Cadence Allegro 17.2-S079*
G04 Origin Date:  Wed Jun 22 16:47:48 2022*
G04 *
G04 Layer:  PIN/PASTEMASK_TOP*
G04 Layer:  PACKAGE GEOMETRY/PASTEMASK_TOP*
G04 *
G04 Offset:    (0.0000 0.0000)*
G04 Mirror:    No*
G04 Mode:      Positive*
G04 Rotation:  0*
G04 FullContactRelief:  No*
G04 UndefLineWidth:     0.1524*
G04 ================== end FILE IDENTIFICATION RECORD ====================*
%FSLAX55Y55*MOMM*%
%IR0*IPPOS*OFA0.00000B0.00000*MIA0B0*SFA1.00000B1.00000*%
%ADD12R,1.1X.6*%
%ADD16R,1.6X.3*%
%ADD21R,1.7X.5*%
%ADD20C,.75*%
%ADD11R,.8X.8*%
%ADD17R,3.2X1.8*%
%ADD22R,3.1X5.6*%
%ADD18R,.4X.6*%
%ADD23R,1.8X1.6*%
%ADD19R,.6X.4*%
%ADD13R,.5X.6*%
%ADD15R,.6X.5*%
%ADD14R,.6X.7*%
%ADD10C,6.9*%
%LPD*%
G75*
G54D10*
X360000Y360000D03*
Y5740000D03*
X9640000Y360000D03*
Y5740000D03*
G54D11*
X396200Y4260000D03*
X243800D03*
X1053800D03*
X1206200D03*
X1053800Y4520000D03*
X1206200D03*
X4923800Y2300000D03*
X5076200D03*
X9770000Y4983800D03*
Y5136200D03*
G54D20*
X3750000Y2440000D03*
G54D21*
X4030000Y2347500D03*
Y2412500D03*
Y2477500D03*
Y2542500D03*
Y2607500D03*
Y2672500D03*
Y2737500D03*
Y2802500D03*
Y2867500D03*
Y2932500D03*
Y2997500D03*
Y3062500D03*
Y3127500D03*
Y3192500D03*
X4590000Y2347500D03*
Y2737500D03*
Y2672500D03*
Y2607500D03*
Y2542500D03*
Y2477500D03*
Y2412500D03*
Y3127500D03*
Y3062500D03*
Y2997500D03*
Y2932500D03*
Y2867500D03*
Y2802500D03*
Y3192500D03*
G54D12*
X590000Y4275000D03*
X850000D03*
X590000Y4370000D03*
Y4465000D03*
X850000D03*
Y4370000D03*
G54D13*
X1045000Y4390000D03*
X1135000D03*
X1555000Y1960000D03*
X1425000Y4130000D03*
X1515000D03*
X1425000Y4340000D03*
X1515000D03*
X1425000Y4540000D03*
X1515000D03*
X1755000Y1960000D03*
X1845000D03*
X1965000D03*
X1645000D03*
X1635000Y4130000D03*
X1725000D03*
X1635000Y4540000D03*
X1725000D03*
X1635000Y4340000D03*
X1725000D03*
X2165000Y1960000D03*
X2255000D03*
X2375000D03*
X2055000D03*
X2575000D03*
X2665000D03*
X2465000D03*
X2755000Y4540000D03*
X2905000Y3820000D03*
X2775000D03*
Y4040000D03*
X2905000D03*
X2845000Y4540000D03*
X3325000Y3820000D03*
X3195000D03*
Y4040000D03*
X3325000D03*
X3705000Y2300000D03*
X3795000D03*
Y2180000D03*
X3705000D03*
Y3100000D03*
X3795000D03*
X3705000Y3250000D03*
X3795000D03*
X3995000Y2050000D03*
X4085000D03*
X4925000Y2730000D03*
X5015000D03*
X4925000Y2550000D03*
X5015000D03*
G54D22*
X4310000Y2770000D03*
G54D14*
X1560000Y1838060D03*
Y1710000D03*
X1970000Y1838060D03*
X1700000D03*
Y1710000D03*
X1970000D03*
X2110000Y1838060D03*
X2380000Y1710000D03*
Y1838060D03*
X2110000Y1710000D03*
X2520000D03*
Y1838060D03*
G54D23*
X7960000Y4110000D03*
Y4490000D03*
X8250000Y4160000D03*
Y4440000D03*
G54D15*
X1830000Y1195000D03*
Y1105000D03*
X1960000Y1195000D03*
Y1105000D03*
X1710000Y1195000D03*
Y1105000D03*
X1950000Y4854800D03*
Y4944800D03*
X1710000Y4854800D03*
Y4944800D03*
X1830000Y4854800D03*
Y4944800D03*
X2210000Y4854800D03*
Y4944800D03*
X2330000Y4854800D03*
Y4944800D03*
X2080000Y4854800D03*
Y4944800D03*
X2770000Y4185000D03*
Y4275000D03*
X2970000Y4854800D03*
Y4944800D03*
X3200000Y4185000D03*
Y4275000D03*
X3480000Y4854800D03*
Y4944800D03*
X3230000Y4854800D03*
Y4944800D03*
X3350000Y4854800D03*
Y4944800D03*
X3640000Y1915000D03*
X3860000D03*
X3640000Y2045000D03*
X3860000D03*
X3740000Y4854800D03*
Y4944800D03*
X3860000Y4854800D03*
Y4944800D03*
X4500000Y4854800D03*
Y4944800D03*
X5000000Y1195000D03*
Y1105000D03*
X4880000Y4854800D03*
Y4944800D03*
X5000000Y4854800D03*
Y4944800D03*
X9630000Y5015000D03*
Y5105000D03*
G54D16*
X1959800Y4145000D03*
Y4210000D03*
Y4275000D03*
Y4340000D03*
Y4405000D03*
Y4470000D03*
Y4535000D03*
X2519800Y4275000D03*
Y4210000D03*
Y4145000D03*
Y4535000D03*
Y4470000D03*
Y4405000D03*
Y4340000D03*
G54D17*
X2840000Y2950000D03*
Y3590000D03*
X3260000Y1860000D03*
Y2500000D03*
Y2950000D03*
Y3590000D03*
G54D18*
X2840000Y3820000D03*
Y4040000D03*
X3260000Y3820000D03*
Y4040000D03*
G54D19*
X3640000Y1980000D03*
X3860000D03*
M02*
