G04 ================== begin FILE IDENTIFICATION RECORD ==================*
G04 Layout Name:  DRV8313_V10_220621.brd*
G04 Film Name:    SilkScreen_Bottom*
G04 File Format:  Gerber RS274X*
G04 File Origin:  Cadence Allegro 17.2-S079*
G04 Origin Date:  Wed Jun 22 16:47:48 2022*
G04 *
G04 Layer:  PACKAGE GEOMETRY/SILKSCREEN_BOTTOM*
G04 Layer:  BOARD GEOMETRY/SILKSCREEN_BOTTOM*
G04 *
G04 Offset:    (0.0000 0.0000)*
G04 Mirror:    No*
G04 Mode:      Positive*
G04 Rotation:  0*
G04 FullContactRelief:  No*
G04 UndefLineWidth:     0.1524*
G04 ================== end FILE IDENTIFICATION RECORD ====================*
%FSLAX55Y55*MOMM*%
%IR0*IPPOS*OFA0.00000B0.00000*MIA0B0*SFA1.00000B1.00000*%
%ADD10C,.2*%
%ADD11C,.1524*%
G75*
%LPD*%
G75*
G54D10*
G01X7520000Y6070000D02*
X8840000D01*
Y5710000D01*
X7520000D01*
Y6070000D01*
G54D11*
G01X8792000Y5930000D02*
Y6020000D01*
X8772000D01*
X8764000Y6015500D01*
X8758000Y6009500D01*
X8753000Y6000500D01*
X8749000Y5990000D01*
X8748000Y5975000D01*
X8749000Y5960000D01*
X8753000Y5949500D01*
X8758000Y5940500D01*
X8764000Y5934500D01*
X8772000Y5930000D01*
X8792000D01*
G01X8720000D02*
Y6020000D01*
X8695000D01*
X8687000Y6015500D01*
X8682000Y6009500D01*
X8680000Y5997500D01*
X8682000Y5985500D01*
X8688000Y5978000D01*
X8695000Y5973500D01*
X8720000D01*
G01X8695000D02*
X8680000Y5930000D01*
G01X8655000Y6020000D02*
X8630000Y5930000D01*
X8605000Y6020000D01*
G01X8560000Y5930000D02*
X8553000Y5931500D01*
X8545000Y5936000D01*
X8540000Y5943500D01*
X8538000Y5954000D01*
X8540000Y5964500D01*
X8546000Y5973500D01*
X8555000Y5978000D01*
X8565000D01*
X8571000Y5981000D01*
X8576000Y5988500D01*
X8578000Y5999000D01*
X8575000Y6009500D01*
X8568000Y6017000D01*
X8560000Y6020000D01*
X8552000Y6017000D01*
X8545000Y6009500D01*
X8542000Y5999000D01*
X8544000Y5988500D01*
X8549000Y5981000D01*
X8555000Y5978000D01*
X8565000D01*
X8574000Y5973500D01*
X8580000Y5964500D01*
X8582000Y5954000D01*
X8580000Y5943500D01*
X8575000Y5936000D01*
X8567000Y5931500D01*
X8560000Y5930000D01*
G01X8512000Y5948000D02*
X8506000Y5937500D01*
X8498000Y5931500D01*
X8489000Y5930000D01*
X8481000Y5931500D01*
X8473000Y5939000D01*
X8468000Y5948000D01*
X8467000Y5957000D01*
X8469000Y5967500D01*
X8476000Y5975000D01*
X8483000Y5978000D01*
X8492000D01*
G01X8483000D02*
X8477000Y5982500D01*
X8472000Y5990000D01*
X8470000Y5999000D01*
X8472000Y6008000D01*
X8477000Y6015500D01*
X8486000Y6020000D01*
X8495000Y6018500D01*
X8504000Y6012500D01*
G01X8420000Y5930000D02*
Y6020000D01*
X8432000Y6002000D01*
G01Y5930000D02*
X8408000D01*
G01X8372000Y5948000D02*
X8366000Y5937500D01*
X8358000Y5931500D01*
X8349000Y5930000D01*
X8341000Y5931500D01*
X8333000Y5939000D01*
X8328000Y5948000D01*
X8327000Y5957000D01*
X8329000Y5967500D01*
X8336000Y5975000D01*
X8343000Y5978000D01*
X8352000D01*
G01X8343000D02*
X8337000Y5982500D01*
X8332000Y5990000D01*
X8330000Y5999000D01*
X8332000Y6008000D01*
X8337000Y6015500D01*
X8346000Y6020000D01*
X8355000Y6018500D01*
X8364000Y6012500D01*
G01X8310000Y5900000D02*
X8250000D01*
G01X8235000Y6020000D02*
X8210000Y5930000D01*
X8185000Y6020000D01*
G01X8140000Y5930000D02*
Y6020000D01*
X8152000Y6002000D01*
G01Y5930000D02*
X8128000D01*
G01X8070000Y6020000D02*
X8078000Y6017000D01*
X8084000Y6009500D01*
X8088000Y6000500D01*
X8091000Y5988500D01*
X8092000Y5975000D01*
X8091000Y5961500D01*
X8088000Y5949500D01*
X8084000Y5940500D01*
X8078000Y5933000D01*
X8070000Y5930000D01*
X8062000Y5933000D01*
X8056000Y5940500D01*
X8052000Y5949500D01*
X8049000Y5961500D01*
X8048000Y5975000D01*
X8049000Y5988500D01*
X8052000Y6000500D01*
X8056000Y6009500D01*
X8062000Y6017000D01*
X8070000Y6020000D01*
G01X8030000Y5900000D02*
X7970000D01*
G01X7949000Y6005000D02*
X7943000Y6014000D01*
X7936000Y6018500D01*
X7928000Y6020000D01*
X7918000Y6017000D01*
X7911000Y6009500D01*
X7909000Y6000500D01*
X7910000Y5991500D01*
X7914000Y5984000D01*
X7934000Y5969000D01*
X7943000Y5958500D01*
X7949000Y5943500D01*
X7951000Y5930000D01*
X7909000D01*
G01X7879000Y6005000D02*
X7873000Y6014000D01*
X7866000Y6018500D01*
X7858000Y6020000D01*
X7848000Y6017000D01*
X7841000Y6009500D01*
X7839000Y6000500D01*
X7840000Y5991500D01*
X7844000Y5984000D01*
X7864000Y5969000D01*
X7873000Y5958500D01*
X7879000Y5943500D01*
X7881000Y5930000D01*
X7839000D01*
G01X7790000Y6020000D02*
X7798000Y6017000D01*
X7804000Y6009500D01*
X7808000Y6000500D01*
X7811000Y5988500D01*
X7812000Y5975000D01*
X7811000Y5961500D01*
X7808000Y5949500D01*
X7804000Y5940500D01*
X7798000Y5933000D01*
X7790000Y5930000D01*
X7782000Y5933000D01*
X7776000Y5940500D01*
X7772000Y5949500D01*
X7769000Y5961500D01*
X7768000Y5975000D01*
X7769000Y5988500D01*
X7772000Y6000500D01*
X7776000Y6009500D01*
X7782000Y6017000D01*
X7790000Y6020000D01*
G01X7739000Y5967500D02*
X7732000Y5978000D01*
X7726000Y5984000D01*
X7718000Y5987000D01*
X7711000Y5984000D01*
X7706000Y5978000D01*
X7702000Y5969000D01*
X7701000Y5958500D01*
X7702000Y5949500D01*
X7706000Y5940500D01*
X7712000Y5933000D01*
X7719000Y5930000D01*
X7727000Y5933000D01*
X7734000Y5942000D01*
X7738000Y5955500D01*
X7739000Y5970500D01*
X7737000Y5990000D01*
X7734000Y6000500D01*
X7729000Y6011000D01*
X7722000Y6018500D01*
X7715000Y6020000D01*
X7708000Y6017000D01*
X7703000Y6009500D01*
G01X7669000Y6005000D02*
X7663000Y6014000D01*
X7656000Y6018500D01*
X7648000Y6020000D01*
X7638000Y6017000D01*
X7631000Y6009500D01*
X7629000Y6000500D01*
X7630000Y5991500D01*
X7634000Y5984000D01*
X7654000Y5969000D01*
X7663000Y5958500D01*
X7669000Y5943500D01*
X7671000Y5930000D01*
X7629000D01*
G01X7580000D02*
Y6020000D01*
X7592000Y6002000D01*
G01Y5930000D02*
X7568000D01*
G01X8781000Y5760000D02*
X8739000Y5850000D01*
G01X8781000D02*
X8739000Y5760000D01*
G01X8711000D02*
X8669000Y5850000D01*
G01X8711000D02*
X8669000Y5760000D01*
G01X8641000D02*
X8599000Y5850000D01*
G01X8641000D02*
X8599000Y5760000D01*
G01X8570000Y5850000D02*
Y5760000D01*
X8530000D01*
G01X8499000Y5850000D02*
X8461000D01*
X8499000Y5760000D01*
X8461000D01*
G01X8430000Y5778000D02*
X8425000Y5769000D01*
X8419000Y5763000D01*
X8412000Y5760000D01*
X8404000Y5763000D01*
X8398000Y5769000D01*
X8392000Y5778000D01*
X8390000Y5790000D01*
Y5850000D01*
G01X8361000Y5760000D02*
X8319000Y5850000D01*
G01X8361000D02*
X8319000Y5760000D01*
G01X8291000D02*
X8249000Y5850000D01*
G01X8291000D02*
X8249000Y5760000D01*
G01X8221000D02*
X8179000Y5850000D01*
G01X8221000D02*
X8179000Y5760000D01*
M02*
