G04 ================== begin FILE IDENTIFICATION RECORD ==================*
G04 Layout Name:  DRV8313_V10_220621.brd*
G04 Film Name:    SolderMask_Top*
G04 File Format:  Gerber RS274X*
G04 File Origin:  Cadence Allegro 17.2-S079*
G04 Origin Date:  Wed Jun 22 16:47:48 2022*
G04 *
G04 Layer:  PIN/SOLDERMASK_TOP*
G04 Layer:  PACKAGE GEOMETRY/SOLDERMASK_TOP*
G04 Layer:  BOARD GEOMETRY/SOLDERMASK_TOP*
G04 *
G04 Offset:    (0.0000 0.0000)*
G04 Mirror:    No*
G04 Mode:      Positive*
G04 Rotation:  0*
G04 FullContactRelief:  No*
G04 UndefLineWidth:     0.1524*
G04 ================== end FILE IDENTIFICATION RECORD ====================*
%FSLAX55Y55*MOMM*%
%IR0*IPPOS*OFA0.00000B0.00000*MIA0B0*SFA1.00000B1.00000*%
%ADD18R,1.7X.4*%
%ADD24R,1.7X.5*%
%ADD12R,1.3X.8*%
%ADD22C,.85*%
%ADD11R,.9X.9*%
%ADD30O,4.15X2.15*%
%ADD29O,2.15X4.15*%
%ADD19R,3.3X1.9*%
%ADD25R,3.2X5.7*%
%ADD20R,.5X.7*%
%ADD28R,1.9X1.7*%
%ADD21R,.7X.5*%
%ADD13R,.6X.7*%
%ADD27C,2.3*%
%ADD23C,1.4*%
%ADD17R,.7X.6*%
%ADD15R,.7X.8*%
%ADD10C,7.*%
%ADD16C,2.6*%
%ADD14C,1.8*%
%ADD26R,1.9X1.9*%
%LPD*%
G75*
G54D10*
X360000Y360000D03*
Y5740000D03*
X9640000Y360000D03*
Y5740000D03*
G54D20*
X2840000Y3820000D03*
Y4040000D03*
X3260000Y3820000D03*
Y4040000D03*
G54D11*
X396200Y4260000D03*
X243800D03*
X1053800D03*
X1206200D03*
X1053800Y4520000D03*
X1206200D03*
X4923800Y2300000D03*
X5076200D03*
X9770000Y4983800D03*
Y5136200D03*
G54D21*
X3640000Y1980000D03*
X3860000D03*
G54D30*
X8880000Y4790000D03*
G54D12*
X590000Y4275000D03*
X850000D03*
X590000Y4370000D03*
Y4465000D03*
X850000D03*
Y4370000D03*
G54D13*
X1045000Y4390000D03*
X1135000D03*
X1555000Y1960000D03*
X1425000Y4130000D03*
X1515000D03*
X1425000Y4340000D03*
X1515000D03*
X1425000Y4540000D03*
X1515000D03*
X1755000Y1960000D03*
X1845000D03*
X1965000D03*
X1645000D03*
X1635000Y4130000D03*
X1725000D03*
X1635000Y4540000D03*
X1725000D03*
X1635000Y4340000D03*
X1725000D03*
X2165000Y1960000D03*
X2255000D03*
X2375000D03*
X2055000D03*
X2575000D03*
X2665000D03*
X2465000D03*
X2755000Y4540000D03*
X2905000Y3820000D03*
X2775000D03*
Y4040000D03*
X2905000D03*
X2845000Y4540000D03*
X3325000Y3820000D03*
X3195000D03*
Y4040000D03*
X3325000D03*
X3705000Y2300000D03*
X3795000D03*
Y2180000D03*
X3705000D03*
Y3100000D03*
X3795000D03*
X3705000Y3250000D03*
X3795000D03*
X3995000Y2050000D03*
X4085000D03*
X4925000Y2730000D03*
X5015000D03*
X4925000Y2550000D03*
X5015000D03*
G54D22*
X3750000Y2440000D03*
G54D14*
X1574000Y373000D03*
Y627000D03*
Y5473000D03*
Y5727000D03*
X1828000Y373000D03*
Y627000D03*
Y5473000D03*
Y5727000D03*
X2082000Y373000D03*
X2336000D03*
X2082000Y627000D03*
X2336000D03*
X2082000Y5473000D03*
X2336000D03*
X2082000Y5727000D03*
X2336000D03*
X2590000Y373000D03*
Y627000D03*
Y5473000D03*
Y5727000D03*
X2844000Y373000D03*
X3098000D03*
X2844000Y627000D03*
X3098000D03*
X2844000Y5473000D03*
X3098000D03*
X2844000Y5727000D03*
X3098000D03*
X3352000Y373000D03*
Y627000D03*
Y5473000D03*
Y5727000D03*
X3606000Y373000D03*
X3860000D03*
X3606000Y627000D03*
X3860000D03*
X3606000Y5473000D03*
X3860000D03*
X3606000Y5727000D03*
X3860000D03*
X4114000Y373000D03*
Y627000D03*
Y5473000D03*
Y5727000D03*
X4368000Y373000D03*
X4622000D03*
X4368000Y627000D03*
X4622000D03*
X4368000Y5473000D03*
X4622000D03*
X4368000Y5727000D03*
X4622000D03*
X4876000Y373000D03*
Y627000D03*
Y5473000D03*
Y5727000D03*
X5130000Y373000D03*
Y5473000D03*
G54D23*
X3920000Y3940000D03*
Y3640000D03*
G54D15*
X1560000Y1838060D03*
Y1710000D03*
X1970000Y1838060D03*
X1700000D03*
Y1710000D03*
X1970000D03*
X2110000Y1838060D03*
X2380000Y1710000D03*
Y1838060D03*
X2110000Y1710000D03*
X2520000D03*
Y1838060D03*
G54D24*
X4030000Y2347500D03*
Y2412500D03*
Y2477500D03*
Y2542500D03*
Y2607500D03*
Y2672500D03*
Y2737500D03*
Y2802500D03*
Y2867500D03*
Y2932500D03*
Y2997500D03*
Y3062500D03*
Y3127500D03*
Y3192500D03*
X4590000Y2347500D03*
Y2737500D03*
Y2672500D03*
Y2607500D03*
Y2542500D03*
Y2477500D03*
Y2412500D03*
Y3127500D03*
Y3062500D03*
Y2997500D03*
Y2932500D03*
Y2867500D03*
Y2802500D03*
Y3192500D03*
G54D16*
X1390000Y2420000D03*
Y2840000D03*
Y3260000D03*
Y3680000D03*
X1940000Y2420000D03*
Y2840000D03*
Y3260000D03*
Y3680000D03*
G54D25*
X4310000Y2770000D03*
G54D26*
X5130000Y627000D03*
Y5727000D03*
G54D17*
X1830000Y1195000D03*
Y1105000D03*
X1960000Y1195000D03*
Y1105000D03*
X1710000Y1195000D03*
Y1105000D03*
X1950000Y4854800D03*
Y4944800D03*
X1710000Y4854800D03*
Y4944800D03*
X1830000Y4854800D03*
Y4944800D03*
X2210000Y4854800D03*
Y4944800D03*
X2330000Y4854800D03*
Y4944800D03*
X2080000Y4854800D03*
Y4944800D03*
X2770000Y4185000D03*
Y4275000D03*
X2970000Y4854800D03*
Y4944800D03*
X3200000Y4185000D03*
Y4275000D03*
X3480000Y4854800D03*
Y4944800D03*
X3230000Y4854800D03*
Y4944800D03*
X3350000Y4854800D03*
Y4944800D03*
X3640000Y1915000D03*
X3860000D03*
X3640000Y2045000D03*
X3860000D03*
X3740000Y4854800D03*
Y4944800D03*
X3860000Y4854800D03*
Y4944800D03*
X4500000Y4854800D03*
Y4944800D03*
X5000000Y1195000D03*
Y1105000D03*
X4880000Y4854800D03*
Y4944800D03*
X5000000Y4854800D03*
Y4944800D03*
X9630000Y5015000D03*
Y5105000D03*
G54D27*
X6139000Y5150000D03*
X6901000D03*
G54D18*
X1959800Y4145000D03*
Y4210000D03*
Y4275000D03*
Y4340000D03*
Y4405000D03*
Y4470000D03*
Y4535000D03*
X2519800Y4275000D03*
Y4210000D03*
Y4145000D03*
Y4535000D03*
Y4470000D03*
Y4405000D03*
Y4340000D03*
G54D28*
X7960000Y4110000D03*
Y4490000D03*
X8250000Y4160000D03*
Y4440000D03*
G54D19*
X2840000Y2950000D03*
Y3590000D03*
X3260000Y1860000D03*
Y2500000D03*
Y2950000D03*
Y3590000D03*
G54D29*
X8600000Y4310000D03*
X9200000D03*
M02*
