G04 ================== begin FILE IDENTIFICATION RECORD ==================*
G04 Layout Name:  DRV8313_V10_220621.brd*
G04 Film Name:    TOP*
G04 File Format:  Gerber RS274X*
G04 File Origin:  Cadence Allegro 17.2-S079*
G04 Origin Date:  Wed Jun 22 16:47:48 2022*
G04 *
G04 Layer:  VIA CLASS/TOP*
G04 Layer:  PIN/TOP*
G04 Layer:  ETCH/TOP*
G04 *
G04 Offset:    (0.0000 0.0000)*
G04 Mirror:    No*
G04 Mode:      Positive*
G04 Rotation:  0*
G04 FullContactRelief:  No*
G04 UndefLineWidth:     0.1524*
G04 ================== end FILE IDENTIFICATION RECORD ====================*
%FSLAX55Y55*MOMM*%
%IR0*IPPOS*OFA0.00000B0.00000*MIA0B0*SFA1.00000B1.00000*%
%ADD13R,1.1X.6*%
%ADD19R,1.6X.3*%
%ADD25R,1.6X.4*%
%ADD23C,.75*%
%ADD11C,.508*%
%ADD27C,.762*%
%ADD12R,.8X.8*%
%ADD32O,4.X2.*%
%ADD31O,2.X4.*%
%ADD20R,3.2X1.8*%
%ADD26R,3.1X5.6*%
%ADD21R,.4X.6*%
%ADD30R,1.8X1.6*%
%ADD22R,.6X.4*%
%ADD14R,.5X.6*%
%ADD18R,.6X.5*%
%ADD29C,2.2*%
%ADD24C,1.3*%
%ADD16R,.6X.7*%
%ADD17C,2.5*%
%ADD15C,1.7*%
%ADD10C,6.9*%
%ADD28R,1.8X1.8*%
%ADD33C,.4*%
%ADD34C,.2032*%
%ADD35C,.254*%
%ADD36C,2.*%
%ADD37C,3.4148*%
G75*
%LPD*%
G75*
G36*
G01X360000Y6070000D02*
X9640000D01*
G02X9970000Y5740000I0J-330000D01*
G01Y3110000D01*
G02X9900000Y3040000I-70000J0D01*
G01X7860000D01*
G03X7800000Y2980000I0J-60000D01*
G01Y1350000D01*
G03X7860000Y1290000I60000J0D01*
G01X9900000D01*
G02X9970000Y1220000I0J-70000D01*
G01Y360000D01*
G02X9640000Y30000I-330000J0D01*
G01X360000D01*
G02X30000Y360000I0J330000D01*
G01Y5740000D01*
G02X360000Y6070000I330000J0D01*
G37*
%LPC*%
G75*
G36*
G01X8780000Y4935740D02*
X8980000D01*
G02Y4644260I0J-145740D01*
G01X8780000D01*
G02Y4935740I0J145740D01*
G37*
G36*
G01X6954250Y5003650D02*
G02X6901000Y4994260I-53260J146348D01*
G02Y5305740I0J155740D01*
G02X6954250Y5296350I-10J-155738D01*
G01X6955940Y5295740D01*
X8060000D01*
G02X8163050Y5253050I-6J-145737D01*
G01X8353050Y5063050D01*
G02X8395740Y4960000I-103047J-103056D01*
G01Y4585740D01*
X8470000D01*
G02X8564140Y4551260I5J-145742D01*
G02X8600000Y4555740I35858J-141260D01*
G02X8745740Y4410000I0J-145740D01*
G01Y4210000D01*
G02X8715520Y4121150I-145738J5D01*
G03X8731630Y4088440I16107J-12389D01*
G01X9545790D01*
X9571560Y4114210D01*
Y4954180D01*
G02X9554260Y4990000I28433J35820D01*
G01Y5130000D01*
G02X9600000Y5175740I45740J0D01*
G01X9660000D01*
G02X9664770Y5175490I-6J-45740D01*
G03X9686300Y5189700I2115J20210D01*
G02X9730000Y5221940I43700J-13497D01*
G01X9810000D01*
G02X9855740Y5176200I0J-45740D01*
G01Y5096200D01*
G02X9810000Y5050460I-45740J0D01*
G01X9759860D01*
X9758220Y5049880D01*
G02X9738800Y5046560I-19417J55121D01*
G01X9705740D01*
Y4990000D01*
G02X9688440Y4954180I-45733J0D01*
G01Y4090000D01*
G02X9671320Y4048680I-58424J0D01*
G01X9611320Y3988680D01*
G02X9570000Y3971560I-41326J41318D01*
G01X8395740D01*
Y3411050D01*
X8288950Y3304260D01*
X3977440D01*
G03X3963070Y3269570I0J-20321D01*
G01X3974410Y3258240D01*
X4110000D01*
G02X4155740Y3212500I0J-45740D01*
G01Y3172500D01*
G02X4154000Y3160000I-45741J-4D01*
G02X4155740Y3147500I-44001J-12496D01*
G01Y3107500D01*
G02X4154000Y3095000I-45741J-4D01*
G02X4155740Y3082500I-44001J-12496D01*
G01Y3042500D01*
G02X4154000Y3030000I-45741J-4D01*
G02X4155740Y3017500I-44001J-12496D01*
G01Y2977500D01*
G02X4154000Y2965000I-45741J-4D01*
G02X4155740Y2952500I-44001J-12496D01*
G01Y2912500D01*
G02X4154000Y2900000I-45741J-4D01*
G02X4155740Y2887500I-44001J-12496D01*
G01Y2847500D01*
G02X4154000Y2835000I-45741J-4D01*
G02X4155740Y2822500I-44001J-12496D01*
G01Y2782500D01*
G02X4154000Y2770000I-45741J-4D01*
G02X4155740Y2757500I-44001J-12496D01*
G01Y2717500D01*
G02X4154000Y2705000I-45741J-4D01*
G02X4155740Y2692500I-44001J-12496D01*
G01Y2652500D01*
G02X4154000Y2640000I-45741J-4D01*
G02X4155740Y2627500I-44001J-12496D01*
G01Y2587500D01*
G02X4154000Y2575000I-45741J-4D01*
G02X4155740Y2562500I-44001J-12496D01*
G01Y2522500D01*
G02X4154000Y2510000I-45741J-4D01*
G02X4155740Y2497500I-44001J-12496D01*
G01Y2457500D01*
G02X4154000Y2445000I-45741J-4D01*
G02X4155740Y2432500I-44001J-12496D01*
G01Y2392500D01*
G02X4155700Y2390590I-45740J2D01*
G01X4155690Y2390370D01*
Y2380000D01*
X4160000D01*
Y2310000D01*
X3910000D01*
Y2314620D01*
X3897460Y2319820D01*
X3865740Y2288090D01*
Y2270000D01*
G02X3854530Y2240000I-45748J0D01*
G02X3865740Y2210000I-34538J-30000D01*
G01Y2150000D01*
G02X3864710Y2140350I-45740J2D01*
G03X3884570Y2115740I19862J-4290D01*
G01X3890000D01*
G02X3918630Y2105680I9J-45743D01*
G01X3921410Y2103440D01*
X3930400D01*
X3933440Y2107490D01*
G02X3970000Y2125740I36560J-27495D01*
G01X4020000D01*
G02X4065740Y2080000I0J-45740D01*
G01Y2057550D01*
X4065790Y2057050D01*
G02X4066140Y2050000I-70790J-7048D01*
G01Y1965000D01*
G02X3995000Y1893860I-71140J0D01*
G02X3968020Y1899170I-11J71142D01*
G03X3940000Y1880370I-7702J-18802D01*
G01Y1870000D01*
X3788310D01*
G03X3755310Y1876260I-18632J-8109D01*
G01X3754530Y1875470D01*
G02X3715000Y1859100I-39530J39543D01*
G01X3703960D01*
X3701040Y1856400D01*
G02X3670000Y1844260I-31040J33612D01*
G01X3610000D01*
G02X3564260Y1890000I0J45740D01*
G01Y1930000D01*
X3200000D01*
Y2070000D01*
X3204100D01*
Y2364260D01*
X3100000D01*
G02X3054260Y2410000I0J45740D01*
G01Y2590000D01*
G02X3054580Y2595400I45740J-1D01*
G01X3054650Y2596000D01*
Y2606760D01*
X2477230D01*
X2440740Y2570270D01*
Y2035740D01*
X2490000D01*
G02X2493030Y2035640I7J-45740D01*
G03X2503860Y2045680I672J10136D01*
G02X2575000Y2116140I71140J-683D01*
G02X2646140Y2045790I0J-71144D01*
G01X2646250Y2035740D01*
X2690000D01*
G02X2735740Y1990000I0J-45740D01*
G01Y1930000D01*
G02X2723440Y1898790I-45746J0D01*
G01Y1745000D01*
G02X2716890Y1718110I-58442J-7D01*
G03X2734930Y1688440I18039J-9351D01*
G01X4790000D01*
G02X4831320Y1671320I-6J-58438D01*
G01X4917320Y1585320D01*
G02X4934440Y1544000I-41318J-41326D01*
G01Y1284280D01*
G03X4959450Y1264510I20319J0D01*
G02X4970000Y1265740I10536J-44512D01*
G01X5030000D01*
G02X5063720Y1250900I0J-45730D01*
G01X5201850D01*
X5264100Y1313150D01*
Y2536850D01*
X5226850Y2574100D01*
X5191380D01*
G03X5171080Y2552940I2J-20319D01*
G02X5171140Y2550000I-71080J-2921D01*
G02X5100000Y2478860I-71140J0D01*
G02X5070020Y2485490I9J71138D01*
G02X5040000Y2474260I-30020J34510D01*
G01X4921400D01*
X4919770Y2466090D01*
G02X4850000Y2408860I-69770J13914D01*
G02X4826650Y2412800I-3J71141D01*
G03X4799990Y2397250I-6670J-19193D01*
G02X4798660Y2391380I-69985J12771D01*
G03X4818270Y2365740I19611J-5320D01*
G01X4845990D01*
G02X4883800Y2385740I37810J-25740D01*
G01X4963800D01*
G02X5009540Y2340000I0J-45740D01*
G01Y2260000D01*
G02X4988710Y2221640I-45736J0D01*
G03X4984970Y2208980I5538J-8518D01*
G02X4991140Y2180000I-64973J-28980D01*
G02X4848860I-71140J0D01*
G02X4856780Y2212620I71136J0D01*
G03X4854300Y2225040I-9030J4655D01*
G02X4845990Y2234260I29508J34950D01*
G01X4700000D01*
G02X4653510Y2253510I-8J65743D01*
G01X4625270Y2281760D01*
X4510000D01*
G02X4464260Y2327500I0J45740D01*
G01Y2367500D01*
G02X4466000Y2380000I45741J4D01*
G02X4464260Y2392500I44001J12496D01*
G01Y2432500D01*
G02X4466000Y2445000I45741J4D01*
G02X4464260Y2457500I44001J12496D01*
G01Y2497500D01*
G02X4466000Y2510000I45741J4D01*
G02X4464260Y2522500I44001J12496D01*
G01Y2562500D01*
G02X4466000Y2575000I45741J4D01*
G02X4464260Y2587500I44001J12496D01*
G01Y2627500D01*
G02X4476510Y2658660I45742J5D01*
G03Y2686340I-14872J13840D01*
G02X4464260Y2717500I33492J31155D01*
G01Y2757500D01*
G02X4466000Y2770000I45741J4D01*
G02X4464260Y2782500I44001J12496D01*
G01Y2822500D01*
G02X4466000Y2835000I45741J4D01*
G02X4464260Y2847500I44001J12496D01*
G01Y2887500D01*
G02X4466000Y2900000I45741J4D01*
G02X4464260Y2912500I44001J12496D01*
G01Y2952500D01*
G02X4466000Y2965000I45741J4D01*
G02X4464260Y2977500I44001J12496D01*
G01Y3017500D01*
G02X4466000Y3030000I45741J4D01*
G02X4464260Y3042500I44001J12496D01*
G01Y3082500D01*
G02X4466000Y3095000I45741J4D01*
G02X4464260Y3107500I44001J12496D01*
G01Y3147500D01*
G02X4464300Y3149410I45740J-2D01*
G01X4464310Y3149630D01*
Y3160000D01*
X4460000D01*
Y3240000D01*
X4700000D01*
Y3183400D01*
X4746000D01*
G02X4790000Y3198640I44000J-55897D01*
G02X4861130Y3128430I0J-71136D01*
G01X4861260Y3118400D01*
X5156000D01*
G02X5200000Y3133640I44000J-55897D01*
G02X5271140Y3062500I0J-71140D01*
G02X5263280Y3030000I-71139J4D01*
G02X5271140Y2997500I-63279J-32504D01*
G02X5263280Y2965000I-71139J4D01*
G02X5271140Y2932500I-63279J-32504D01*
G02X5263280Y2900000I-71139J4D01*
G02X5271140Y2867500I-63279J-32504D01*
G02X5263280Y2835000I-71139J4D01*
G02X5271140Y2802500I-63279J-32504D01*
G02X5200000Y2731360I-71140J0D01*
G02X5191910Y2731820I-13J71141D01*
G03X5169690Y2715710I-2314J-20187D01*
G02X5168690Y2711500I-69681J14328D01*
G03X5188310Y2685900I19623J-5280D01*
G01X5250000D01*
G02X5289530Y2669530I0J-55913D01*
G01X5359530Y2599530D01*
G02X5375900Y2560000I-39543J-39530D01*
G01Y1290000D01*
G02X5359530Y1250470I-55913J0D01*
G01X5260850Y1151800D01*
X5321320Y1091320D01*
G02X5338440Y1050000I-41318J-41326D01*
G01Y280000D01*
G02X5321320Y238680I-58438J6D01*
G01X5261320Y178680D01*
G02X5220000Y161560I-41326J41318D01*
G01X5029000D01*
G02X4987680Y178680I6J58438D01*
G01X4917480Y248870D01*
X4911740Y247240D01*
G02X4876000Y242260I-35740J125758D01*
G02X4766080Y302210I0J130746D01*
G03X4731920I-17080J-11003D01*
G02X4512080I-109920J70796D01*
G03X4477920I-17080J-11003D01*
G02X4258080I-109920J70796D01*
G03X4223920I-17080J-11003D01*
G02X4004080I-109920J70796D01*
G03X3969920I-17080J-11003D01*
G02X3750080I-109920J70796D01*
G03X3715920I-17080J-11003D01*
G02X3496080I-109920J70796D01*
G03X3461920I-17080J-11003D01*
G02X3242080I-109920J70796D01*
G03X3207920I-17080J-11003D01*
G02X2988080I-109920J70796D01*
G03X2953920I-17080J-11003D01*
G02X2734080I-109920J70796D01*
G03X2699920I-17080J-11003D01*
G02X2480080I-109920J70796D01*
G03X2445920I-17080J-11003D01*
G02X2226080I-109920J70796D01*
G03X2191920I-17080J-11003D01*
G02X1972080I-109920J70796D01*
G03X1937920I-17080J-11003D01*
G02X1828000Y242260I-109920J70796D01*
G02X1697260Y373000I0J130740D01*
G02X1702240Y408740I130738J0D01*
G01X1703870Y414480D01*
X1668660Y449700D01*
G02X1651540Y491020I41318J41326D01*
G01Y503260D01*
G03X1636520Y512180I-10161J-3D01*
G02X1574000Y496260I-62524J114819D01*
G02Y757740I0J130740D01*
G02X1623520Y748000I3J-130741D01*
G03X1651540Y766800I7701J18804D01*
G01Y1044190D01*
G02X1634260Y1080000I28465J35810D01*
G01Y1130000D01*
G02X1638860Y1150000I45742J8D01*
G02X1634260Y1170000I41142J19992D01*
G01Y1220000D01*
G02X1651560Y1255820I45733J0D01*
G01Y1289330D01*
X1649970Y1291820D01*
G02X1638860Y1330000I60031J38175D01*
G02X1781140I71140J0D01*
G02X1770030Y1291820I-71141J-5D01*
G01X1768440Y1289330D01*
Y1285100D01*
G03X1792220Y1265070I20321J-6D01*
G02X1800000Y1265740I7800J-45068D01*
G01X1818090D01*
X1873680Y1321320D01*
G02X1915000Y1338440I41326J-41318D01*
G01X2819430D01*
G02X2860000Y1351140I40570J-58450D01*
G02X2905000Y1335100I0J-71143D01*
G02X2950000Y1351140I45000J-55103D01*
G02X3021140Y1280000I0J-71140D01*
G02X2965450Y1210560I-71137J0D01*
G01X2962560Y1209920D01*
X2931320Y1178680D01*
G02X2890000Y1161560I-41326J41318D01*
G01X2035530D01*
X2033130Y1154780D01*
G02X2031140Y1150000I-43154J15162D01*
G02X2035740Y1130000I-41142J-19992D01*
G01Y1080000D01*
G02X2018440Y1044180I-45733J0D01*
G01Y771740D01*
G03X2044580Y752270I20320J-2D01*
G02X2082000Y757740I37420J-125259D01*
G02X2191920Y697790I0J-130746D01*
G03X2226080I17080J11003D01*
G02X2445920I109920J-70796D01*
G03X2480080I17080J11003D01*
G02X2699920I109920J-70796D01*
G03X2734080I17080J11003D01*
G02X2953920I109920J-70796D01*
G03X2988080I17080J11003D01*
G02X3207920I109920J-70796D01*
G03X3242080I17080J11003D01*
G02X3461920I109920J-70796D01*
G03X3496080I17080J11003D01*
G02X3715920I109920J-70796D01*
G03X3750080I17080J11003D01*
G02X3969920I109920J-70796D01*
G03X4004080I17080J11003D01*
G02X4223920I109920J-70796D01*
G03X4258080I17080J11003D01*
G02X4477920I109920J-70796D01*
G03X4512080I17080J11003D01*
G02X4622000Y757740I109920J-70796D01*
G02X4664620Y750600I5J-130741D01*
G03X4691560Y769810I6621J19210D01*
G01Y1465790D01*
X4655790Y1501560D01*
X1510000D01*
G02X1468680Y1518680I6J58438D01*
G01X1438680Y1548680D01*
G02X1421560Y1590000I41318J41326D01*
G01Y1734520D01*
G02X1431070Y1766480I58442J5D01*
G03X1428490Y1780280I-8506J5551D01*
G02X1398860Y1838060I41522J57780D01*
G02X1404560Y1865970I71142J8D01*
G03X1385870Y1894260I-18690J7971D01*
G01X1210000D01*
G02X1163510Y1913510I-8J65743D01*
G01X1093510Y1983510D01*
G02X1074260Y2030000I46493J46482D01*
G01Y2530000D01*
G02X1093510Y2576490I65743J8D01*
G01X1183510Y2666490D01*
G02X1230000Y2685740I46482J-46493D01*
G01X1522770D01*
X1554260Y2717230D01*
Y2990000D01*
G02X1573510Y3036490I65743J8D01*
G01X1663510Y3126490D01*
G02X1710000Y3145740I46482J-46493D01*
G01X1773630D01*
G03X1791320Y3176050I-2J20319D01*
G02X1769260Y3260000I148682J83943D01*
G02X2110740I170740J0D01*
G02X2088680Y3176050I-170742J-7D01*
G03X2106370Y3145740I17692J-9991D01*
G01X2242770D01*
X2413510Y3316490D01*
G02X2460000Y3335740I46482J-46493D01*
G01X3430000D01*
G02X3448290Y3333150I19J-65743D01*
G03X3474260Y3352660I5652J19516D01*
G01Y3698950D01*
X3531050Y3755740D01*
X7791050D01*
X7814260Y3778950D01*
Y4248950D01*
X7861050Y4295740D01*
X8110670D01*
G03X8125850Y4329580I7J20322D01*
G02X8114260Y4360000I34147J30428D01*
G01Y4386910D01*
X8113610Y4388640D01*
G02X8104260Y4440000I136386J51360D01*
G01Y4899630D01*
X7999630Y5004260D01*
X6955940D01*
X6954250Y5003650D01*
G37*
G36*
G01X3490470Y5899530D02*
G02X3530000Y5915900I39530J-39543D01*
G01X3940000D01*
G02X3979530Y5899530I0J-55913D01*
G01X4029530Y5849530D01*
G02X4035170Y5842940I-39524J-39535D01*
G03X4048470Y5840130I8211J5982D01*
G02X4114000Y5857740I65530J-113120D01*
G02X4223920Y5797790I0J-130746D01*
G03X4258080I17080J11003D01*
G02X4477920I109920J-70796D01*
G03X4512080I17080J11003D01*
G02X4731920I109920J-70796D01*
G03X4766080I17080J11003D01*
G02X4876000Y5857740I109920J-70796D01*
G02X4963960Y5823730I0J-130750D01*
G03X4996810Y5832070I13667J15034D01*
G02X5040000Y5862740I43190J-15075D01*
G01X5220000D01*
G02X5265740Y5817000I0J-45740D01*
G01Y5637000D01*
G02X5235070Y5593810I-45745J0D01*
G03X5226730Y5560960I6694J-19183D01*
G02X5260740Y5473000I-96740J-87960D01*
G02X5130000Y5342260I-130740J0D01*
G02X5085650Y5350010I-6J130741D01*
G03X5058440Y5330900I-6891J-19115D01*
G01Y5005620D01*
G02X5075740Y4969800I-28433J-35820D01*
G01Y4919800D01*
G02X5071140Y4899800I-45742J-8D01*
G02X5075740Y4879800I-41142J-19992D01*
G01Y4829800D01*
G02X5055900Y4792100I-45739J0D01*
G01Y4159990D01*
G02X5039530Y4120460I-55913J0D01*
G01X4979540Y4060470D01*
G02X4940010Y4044100I-39530J39543D01*
G01X3749720D01*
X3576100Y3870470D01*
G02X3536570Y3854100I-39530J39543D01*
G01X3395740D01*
Y3790000D01*
G02X3350000Y3744260I-45740J0D01*
G01X3266690D01*
X3265500Y3735460D01*
G02X3195000Y3673860I-70500J9543D01*
G02X3123860Y3745000I0J71140D01*
G02X3128600Y3770540I71141J7D01*
G02X3124260Y3790000I41403J19448D01*
G01Y3850000D01*
G02X3127330Y3866470I45739J-5D01*
G03X3108370Y3894100I-18960J7310D01*
G01X2973150D01*
X2962430Y3883370D01*
X2967370Y3876380D01*
G02X2975740Y3850000I-37371J-26375D01*
G01Y3790000D01*
G02X2930000Y3744260I-45740J0D01*
G01X2846690D01*
X2845500Y3735460D01*
G02X2775000Y3673860I-70500J9543D01*
G02X2703860Y3745000I0J71140D01*
G02X2708600Y3770540I71141J7D01*
G02X2704260Y3790000I41403J19448D01*
G01Y3850000D01*
G02X2750000Y3895740I45740J0D01*
G01X2848970D01*
X2849110Y3905760D01*
G02X2865470Y3944530I55895J-749D01*
G01X2866260Y3945310D01*
G03X2851890Y3980000I-14369J14369D01*
G01X2834530D01*
G02X2800000Y3964260I-34530J30006D01*
G01X2750000D01*
G02X2704260Y4010000I0J45740D01*
G01Y4070000D01*
G02X2714320Y4098630I45743J9D01*
G01X2716560Y4101410D01*
Y4112980D01*
G03X2699220Y4120160I-10159J-5D01*
G01X2684530Y4105470D01*
G02X2645000Y4089100I-39530J39543D01*
G01X2620390D01*
X2618420Y4088220D01*
G02X2599800Y4084260I-18617J41781D01*
G01X2439800D01*
G02X2394060Y4130000I0J45740D01*
G01Y4154100D01*
X2070000D01*
Y4100000D01*
X1840000D01*
Y4166420D01*
G03X1822660Y4173600I-10159J-5D01*
G01X1809530Y4160470D01*
G02X1770000Y4144100I-39530J39543D01*
G01X1727220D01*
X1705740Y4122620D01*
Y4100000D01*
G02X1660000Y4054260I-45740J0D01*
G01X1610000D01*
G02X1581360Y4064340I0J45727D01*
G03X1568640I-6360J-7927D01*
G02X1540000Y4054260I-28640J35647D01*
G01X1400000D01*
G02X1369980Y4065490I0J45740D01*
G02X1340000Y4058860I-29989J64508D01*
G02Y4201140I0J71140D01*
G02X1369980Y4194510I-9J-71138D01*
G02X1400000Y4205740I30020J-34510D01*
G01X1540000D01*
G02X1568640Y4195660I0J-45727D01*
G03X1581360I6360J7927D01*
G02X1610000Y4205740I28640J-35647D01*
G01X1630760D01*
X1664540Y4239530D01*
G02X1672490Y4246130I39530J-39528D01*
G03X1665520Y4264590I-5743J8377D01*
G02X1660000Y4264260I-5485J45412D01*
G01X1610000D01*
G02X1581360Y4274340I0J45727D01*
G03X1568640I-6360J-7927D01*
G02X1540000Y4264260I-28640J35647D01*
G01X1400000D01*
G02X1369980Y4275490I0J45740D01*
G02X1340000Y4268860I-29989J64508D01*
G02Y4411140I0J71140D01*
G02X1369980Y4404510I-9J-71138D01*
G02X1400000Y4415740I30020J-34510D01*
G01X1540000D01*
G02X1568640Y4405660I0J-45727D01*
G03X1581360I6360J7927D01*
G02X1610000Y4415740I28640J-35647D01*
G01X1630760D01*
X1655020Y4440000D01*
X1630760Y4464260D01*
X1610000D01*
G02X1581360Y4474340I0J45727D01*
G03X1568640I-6360J-7927D01*
G02X1540000Y4464260I-28640J35647D01*
G01X1400000D01*
G02X1369980Y4475490I0J45740D01*
G02X1340000Y4468860I-29989J64508D01*
G02Y4611140I0J71140D01*
G02X1369980Y4604510I-9J-71138D01*
G02X1400000Y4615740I30020J-34510D01*
G01X1540000D01*
G02X1568640Y4605660I0J-45727D01*
G03X1581360I6360J7927D01*
G02X1610000Y4615740I28640J-35647D01*
G01X1660000D01*
G02X1705740Y4570000I0J-45740D01*
G01Y4547380D01*
X1727220Y4525900D01*
X1756850D01*
X1805470Y4574530D01*
G02X1845000Y4590900I39530J-39543D01*
G01X1859210D01*
X1861180Y4591780D01*
G02X1879800Y4595740I18617J-41781D01*
G01X2039800D01*
G02X2085540Y4550000I0J-45740D01*
G01Y4525900D01*
X2394060D01*
Y4550000D01*
G02X2439800Y4595740I45740J0D01*
G01X2599800D01*
G02X2612790Y4593860I11J-45742D01*
G01X2614200Y4593440D01*
X2619330D01*
X2621820Y4595030D01*
G02X2660000Y4606140I38175J-60031D01*
G02X2693600Y4597700I-9J-71138D01*
G02X2730000Y4615740I36400J-27703D01*
G01X2780000D01*
G02X2825740Y4570000I0J-45740D01*
G01Y4515900D01*
X3416850D01*
X3424100Y4523150D01*
Y4696020D01*
G03X3391830Y4712460I-20320J5D01*
G02X3350000Y4698860I-41830J57529D01*
G02X3303330Y4716310I0J71134D01*
G03X3276670I-13330J-15338D01*
G02X3230000Y4698860I-46670J53684D01*
G02X3158860Y4770000I0J71140D01*
G02X3165430Y4799850I71138J-9D01*
G02X3154260Y4829800I34567J29950D01*
G01Y4879800D01*
G02X3158860Y4899800I45742J8D01*
G02X3154260Y4919800I41142J19992D01*
G01Y4969800D01*
G02X3171560Y5005620I45733J0D01*
G01Y5331630D01*
G03X3144080Y5350650I-20320J4D01*
G02X3098000Y5342260I-46080J122347D01*
G02X3055380Y5349400I-5J130741D01*
G03X3028440Y5330190I-6621J-19210D01*
G01Y5005620D01*
G02X3045740Y4969800I-28433J-35820D01*
G01Y4919800D01*
G02X3041140Y4899800I-45742J-8D01*
G02X3045740Y4879800I-41142J-19992D01*
G01Y4829800D01*
G02X3034570Y4799850I-45737J0D01*
G02X3041140Y4770000I-64568J-29859D01*
G02X2898860I-71140J0D01*
G02X2905430Y4799850I71138J-9D01*
G02X2894260Y4829800I34567J29950D01*
G01Y4879800D01*
G02X2898860Y4899800I45742J8D01*
G02X2894260Y4919800I41142J19992D01*
G01Y4969800D01*
G02X2911560Y5005620I45733J0D01*
G01Y5329520D01*
G03X2884890Y5348820I-20320J-2D01*
G02X2844000Y5342260I-40893J124179D01*
G02X2734080Y5402210I0J130746D01*
G03X2699920I-17080J-11003D01*
G02X2480080I-109920J70796D01*
G03X2445920I-17080J-11003D01*
G02X2394440Y5356050I-109914J70795D01*
G01Y4999900D01*
G02X2405740Y4969800I-34439J-30100D01*
G01Y4919800D01*
G02X2401140Y4899800I-45742J-8D01*
G02X2405740Y4879800I-41142J-19992D01*
G01Y4829800D01*
G02X2394570Y4799850I-45737J0D01*
G02X2401140Y4770000I-64568J-29859D01*
G02X2330000Y4698860I-71140J0D01*
G02X2283330Y4716310I0J71134D01*
G03X2256670I-13330J-15338D01*
G02X2210000Y4698860I-46670J53684D01*
G02X2159440Y4719950I0J71150D01*
G03X2130560I-14440J-14292D01*
G02X2029440I-50560J50060D01*
G03X2000560I-14440J-14292D01*
G02X1950000Y4698860I-50560J50060D01*
G02X1903330Y4716310I0J71134D01*
G03X1876670I-13330J-15338D01*
G02X1783330I-46670J53684D01*
G03X1756670I-13330J-15338D01*
G02X1710000Y4698860I-46670J53684D01*
G02X1638860Y4770000I0J71140D01*
G02X1645430Y4799850I71138J-9D01*
G02X1634260Y4829800I34567J29950D01*
G01Y4879800D01*
G02X1638860Y4899800I45742J8D01*
G02X1634260Y4919800I41142J19992D01*
G01Y4969800D01*
G02X1651540Y5005610I45745J0D01*
G01Y5587200D01*
G03X1623520Y5606000I-20319J-4D01*
G02X1574000Y5596260I-49517J121001D01*
G02X1462420Y5658860I0J130742D01*
G01X1189470D01*
X1124940Y5594330D01*
Y4593500D01*
G02X1139540Y4560000I-31133J-33500D01*
G01Y4513310D01*
X1174530Y4478330D01*
G02X1188180Y4456030I-39532J-39525D01*
G02X1205740Y4420000I-28184J-36030D01*
G01Y4360000D01*
G02X1160000Y4314260I-45740J0D01*
G01X1139390D01*
Y4303730D01*
X1139420Y4303350D01*
G02X1139540Y4300000I-45621J-3311D01*
G01Y4220000D01*
G02X1124940Y4186500I-45733J0D01*
G01Y3775670D01*
X1149470Y3751140D01*
X1234790D01*
G02X1390000Y3850740I155210J-71134D01*
G02Y3509260I0J-170740D01*
G02X1234790Y3608860I0J170734D01*
G01X1120000D01*
G02X1069700Y3629700I0J71123D01*
G01X1003500Y3695900D01*
G02X982660Y3746200I50297J50306D01*
G01Y4186500D01*
G02X973440Y4198480I31139J33503D01*
G01X970570Y4203860D01*
X925100D01*
X923170Y4203020D01*
G02X905000Y4199260I-18162J41982D01*
G01X795000D01*
G02X749260Y4245000I0J45740D01*
G01Y4305000D01*
G02X754110Y4325500I45750J0D01*
G01X757400Y4332050D01*
X745030Y4344420D01*
X720300Y4319700D01*
G02X697040Y4304200I-50310J50295D01*
G01X690740Y4301610D01*
Y4245000D01*
G02X645000Y4199260I-45740J0D01*
G01X535000D01*
G02X516830Y4203020I-8J45742D01*
G01X514900Y4203860D01*
X479430D01*
X476560Y4198480D01*
G02X436200Y4174260I-40360J21518D01*
G01X203800D01*
G02X158060Y4220000I0J45740D01*
G01Y4300000D01*
G02X178860Y4338340I45735J0D01*
G01Y4420000D01*
G02X199700Y4470300I71137J-6D01*
G01X244700Y4515300D01*
G02X295000Y4536140I50300J-50283D01*
G01X514900D01*
X516830Y4536980D01*
G02X535000Y4540740I18162J-41982D01*
G01X651610D01*
X654200Y4547040D01*
G02X669700Y4570300I65795J-27050D01*
G01X709700Y4610300D01*
G02X760000Y4631140I50300J-50283D01*
G01X982660D01*
Y5623800D01*
G02X1003500Y5674100I71137J-6D01*
G01X1109700Y5780300D01*
G02X1160000Y5801140I50300J-50283D01*
G01X1466310D01*
G02X1574000Y5857740I107690J-74148D01*
G02X1683920Y5797790I0J-130746D01*
G03X1718080I17080J11003D01*
G02X1937920I109920J-70796D01*
G03X1972080I17080J11003D01*
G02X2191920I109920J-70796D01*
G03X2226080I17080J11003D01*
G02X2445920I109920J-70796D01*
G03X2480080I17080J11003D01*
G02X2699920I109920J-70796D01*
G03X2734080I17080J11003D01*
G02X2953920I109920J-70796D01*
G03X2988080I17080J11003D01*
G02X3207920I109920J-70796D01*
G03X3242080I17080J11003D01*
G02X3352000Y5857740I109920J-70796D01*
G02X3420150Y5838580I11J-130743D01*
G03X3433830Y5841520I5293J8669D01*
G02X3440470Y5849530I46171J-31517D01*
G01X3490470Y5899530D01*
G37*
G54D37*
X1940000Y3680000D03*
X1390000Y3260000D03*
%LPD*%
G75*
G36*
G01X932610Y4398530D02*
G02X959240Y4396700I12265J-16198D01*
G01X974260Y4381690D01*
Y4360000D01*
G03X974360Y4356970I45740J-7D01*
G01X974380Y4356640D01*
Y4346140D01*
X925100D01*
X923170Y4346980D01*
G03X905000Y4350740I-18162J-41982D01*
G01X795000D01*
G03X774500Y4345890I0J-45750D01*
G01X767950Y4342600D01*
X755580Y4354970D01*
X770300Y4369700D01*
G03X784700Y4390430I-50298J50306D01*
G03X795000Y4389260I10280J44572D01*
G01X905000D01*
G03X932610Y4398530I0J45752D01*
G37*
G36*
G01X1722220Y4349100D02*
X1834060D01*
Y4330300D01*
X1827150Y4327970D01*
G03X1805470Y4314530I17837J-52978D01*
G01X1746850Y4255900D01*
X1704070D01*
G03X1695070Y4255170I4J-55900D01*
G02X1687350Y4273340I-1643J10027D01*
G03X1705740Y4310000I-27345J36660D01*
G01Y4332620D01*
X1722220Y4349100D01*
G37*
G36*
G01X2960000Y4113860D02*
X3108280D01*
G02X3127260Y4086300I-5J-20319D01*
G03X3124260Y4070000I42741J-16293D01*
G01Y4005900D01*
X2960000D01*
Y4113860D01*
G37*
G36*
G01X4584580Y5347730D02*
G03X4622000Y5342260I37420J125259D01*
G03X4731920Y5402210I0J130746D01*
G02X4766080I17080J-11003D01*
G03X4817560Y5356050I109914J70795D01*
G01Y5002050D01*
G03X4804260Y4969800I32450J-32250D01*
G01Y4919800D01*
G03X4808860Y4899800I45742J-8D01*
G03X4804260Y4879800I41142J-19992D01*
G01Y4829800D01*
G03X4824100Y4792100I45739J0D01*
G01Y4195900D01*
X3710000D01*
G03X3670470Y4179530I0J-55913D01*
G01X3496850Y4005900D01*
X3390000D01*
Y4110000D01*
X3289020D01*
G02X3270860Y4139450I-5J20321D01*
G03X3275740Y4160000I-40858J20557D01*
G01Y4210000D01*
G03X3230000Y4255740I-45740J0D01*
G01X3207550D01*
X3207050Y4255790D01*
G03X3200000Y4256140I-7048J-70790D01*
G01X2770000D01*
G03X2762950Y4255790I-2J-71140D01*
G01X2762450Y4255740D01*
X2735900D01*
Y4324100D01*
X3810010D01*
G03X3849540Y4340470I0J55913D01*
G01X3899530Y4390460D01*
G03X3915900Y4429990I-39543J39530D01*
G01Y4792100D01*
G03X3935740Y4829800I-25899J37700D01*
G01Y4879800D01*
G03X3931140Y4899800I-45742J8D01*
G03X3935740Y4919800I-41142J19992D01*
G01Y4969800D01*
G03X3918440Y5005620I-45733J0D01*
G01Y5356050D01*
G03X3969920Y5402210I-58434J116955D01*
G02X4004080I17080J-11003D01*
G03X4223920I109920J70796D01*
G02X4258080I17080J-11003D01*
G03X4368000Y5342260I109920J70796D01*
G03X4414080Y5350650I0J130737D01*
G02X4441560Y5331630I7160J-19016D01*
G01Y5005620D01*
G03X4424260Y4969800I28433J-35820D01*
G01Y4919800D01*
G03X4428860Y4899800I45742J-8D01*
G03X4424260Y4879800I41142J-19992D01*
G01Y4829800D01*
G03X4435430Y4799850I45737J0D01*
G03X4428860Y4770000I64568J-29859D01*
G03X4571140I71140J0D01*
G03X4564570Y4799850I-71138J-9D01*
G03X4575740Y4829800I-34567J29950D01*
G01Y4879800D01*
G03X4571140Y4899800I-45742J8D01*
G03X4575740Y4919800I-41142J19992D01*
G01Y4969800D01*
G03X4558440Y5005620I-45733J0D01*
G01Y5328260D01*
G02X4584580Y5347730I20320J2D01*
G37*
G36*
G01X3710890Y2366200D02*
X3717210Y2363490D01*
G03X3722040Y2361600I32732J76533D01*
G02X3727960Y2348020I-3416J-9570D01*
G03X3724260Y2330000I42031J-18020D01*
G01Y2270000D01*
G03X3724380Y2266650I45741J-39D01*
G01X3724410Y2266270D01*
Y2255740D01*
X3680000D01*
G03X3649980Y2244510I0J-45740D01*
G03X3620000Y2251140I-29989J-64508D01*
G03X3548860Y2180000I0J-71140D01*
G03X3579860Y2121260I71151J0D01*
G02X3580650Y2105080I-5729J-8389D01*
G03X3576280Y2100900I29361J-35070D01*
G01X3315900D01*
Y2364260D01*
X3424260D01*
Y2341050D01*
X3471050Y2294260D01*
X3638950D01*
X3710890Y2366200D01*
G37*
G36*
G01X3501760Y2541760D02*
X3672700D01*
G02X3687070Y2507070I4J-20320D01*
G01X3660000Y2480000D01*
Y2380000D01*
X3620000Y2340000D01*
X3490000D01*
X3470000Y2360000D01*
Y2510000D01*
X3501760Y2541760D01*
G37*
G36*
G01X7880000Y4250000D02*
X8350000D01*
Y3430000D01*
X8270000Y3350000D01*
X3660000D01*
X3640000Y3330000D01*
Y3302310D01*
X3638960Y3300190D01*
G03X3634260Y3280000I41039J-20195D01*
G01Y3220000D01*
G03X3638960Y3199810I45739J5D01*
G01X3640000Y3197690D01*
Y3180000D01*
X3680000Y3140000D01*
X3717390D01*
G03X3724260Y3133760I42604J40004D01*
G01Y3070000D01*
G03X3769870Y3024260I45740J0D01*
G02X3780000Y3014100I-30J-10160D01*
G01Y2998240D01*
X3604730D01*
X3555740Y3047230D01*
Y3210000D01*
G03X3536490Y3256490I-65743J8D01*
G01X3520000Y3272970D01*
Y3680000D01*
X3550000Y3710000D01*
X7810000D01*
X7860000Y3760000D01*
Y4230000D01*
X7880000Y4250000D01*
G37*
G36*
G01X3562920Y5349560D02*
G03X3606000Y5342260I43076J123441D01*
G03X3653810Y5351320I-11J130738D01*
G02X3681560Y5332400I7429J-18915D01*
G01Y5005620D01*
G03X3664260Y4969800I28433J-35820D01*
G01Y4919800D01*
G03X3668860Y4899800I45742J-8D01*
G03X3664260Y4879800I41142J-19992D01*
G01Y4829800D01*
G03X3684100Y4792100I45739J0D01*
G01Y4493150D01*
X3666850Y4475900D01*
X3556130D01*
G02X3535830Y4497230I-5J20320D01*
G03X3535900Y4500000I-55829J2797D01*
G01Y4792100D01*
G03X3555740Y4829800I-25899J37700D01*
G01Y4879800D01*
G03X3551140Y4899800I-45742J8D01*
G03X3555740Y4919800I-41142J19992D01*
G01Y4969800D01*
G03X3535900Y5007500I-45739J0D01*
G01Y5330380D01*
G02X3562920Y5349560I20319J-3D01*
G37*
G54D10*
X360000Y360000D03*
Y5740000D03*
X9640000Y360000D03*
Y5740000D03*
G54D20*
X2840000Y2950000D03*
Y3590000D03*
X3260000Y1860000D03*
Y2500000D03*
Y2950000D03*
Y3590000D03*
G54D11*
G01X590000Y4275000D02*
X411200D01*
X396200Y4260000D01*
G01X243800D02*
X250000Y4266200D01*
Y4420000D01*
X295000Y4465000D01*
X590000D01*
G01X850000Y4275000D02*
X1038800D01*
X1053800Y4260000D01*
G01Y4520000D02*
X1013800Y4560000D01*
X760000D01*
X720000Y4520000D01*
Y4420000D01*
X670000Y4370000D01*
X590000D01*
G01X1390000Y3680000D02*
X1120000D01*
X1053800Y3746200D01*
Y4260000D01*
G01X1574000Y5727000D02*
X1571000Y5730000D01*
X1160000D01*
X1053800Y5623800D01*
Y4520000D01*
G01X2770000Y4185000D02*
X2870000D01*
G01D02*
X3200000D01*
G01X3995000Y2050000D02*
Y1965000D01*
X213880Y912260D03*
Y1412260D03*
Y1912260D03*
Y2412260D03*
Y2912260D03*
Y3412260D03*
Y3912260D03*
X191540Y4988340D03*
X713880Y912260D03*
Y1412260D03*
Y1912260D03*
Y2412260D03*
Y2912260D03*
Y3412260D03*
Y3912260D03*
X691540Y4988340D03*
X683230Y5369150D03*
X1123880Y1402260D03*
X1183880Y4142260D03*
X950000Y4370000D03*
X1183880Y4642260D03*
X1180000Y5000000D03*
X1183230Y5369150D03*
X1470000Y1838060D03*
X1340000Y4130000D03*
X1240000Y4390000D03*
X1340000Y4340000D03*
Y4540000D03*
X1560000Y5000000D03*
X1623880Y1402260D03*
X1983880D03*
X1710000Y1330000D03*
X1881940Y1838060D03*
X1810000Y4110000D03*
Y4340000D03*
X1950000Y4770000D03*
X1710000D03*
X1830000D03*
X2290000Y1838060D03*
X2165000Y2045000D03*
X2093880Y3452260D03*
Y3952260D03*
X2210000Y4770000D03*
X2330000D03*
X2080000D03*
X2483880Y1402260D03*
X2575000Y2045000D03*
X2503880Y2472260D03*
X2593880Y3452260D03*
Y3952260D03*
X2660000Y4535000D03*
X2593230Y5159150D03*
X2860000Y1280000D03*
X2950000D03*
X3000000Y1820000D03*
Y2140000D03*
X3003880Y2472260D03*
X2840000Y3120000D03*
X3050000Y3460000D03*
Y3840000D03*
X2775000Y3745000D03*
X3050000Y4050000D03*
X2870000Y4185000D03*
X2970000Y4770000D03*
X3093230Y5159150D03*
X3173880Y1392260D03*
X3453880Y2142260D03*
X3260000Y3120000D03*
X3400000Y3460000D03*
X3450000Y3820000D03*
X3195000Y3745000D03*
X3450000Y4050000D03*
X3230000Y4770000D03*
X3350000D03*
X3673880Y1392260D03*
X3533880Y1792260D03*
X3750000Y2100000D03*
X3520000Y2370000D03*
X3600000D03*
X3620000Y2180000D03*
X3520000Y2510000D03*
X3600000D03*
Y2440000D03*
X3520000D03*
X3590000Y3060000D03*
Y3130000D03*
Y3340000D03*
Y3270000D03*
Y3200000D03*
Y3410000D03*
X3593230Y5159150D03*
X4033880Y1792260D03*
X3995000Y1965000D03*
X4143230Y3939150D03*
X4123230Y4309150D03*
X4093230Y5159150D03*
X4573880Y1392260D03*
Y1792260D03*
X4643230Y3939150D03*
X4623230Y4309150D03*
X4500000Y4770000D03*
X4920000Y2180000D03*
X4915000Y2640000D03*
X4850000Y2480000D03*
X4730000Y2410000D03*
X4790000Y3127500D03*
X4723230Y5159150D03*
X5073880Y1392260D03*
Y1792260D03*
X5200000Y2300000D03*
Y2710000D03*
X5100000Y2730000D03*
Y2550000D03*
X5200000Y2997500D03*
Y2867500D03*
Y3062500D03*
Y2932500D03*
Y2802500D03*
X5223230Y5159150D03*
X6091110Y425090D03*
X5907870Y1314490D03*
Y1814490D03*
Y2314490D03*
Y2814490D03*
X6073230Y4139150D03*
X6407870Y1314490D03*
Y1814490D03*
Y2314490D03*
Y2814490D03*
X6207310Y5439740D03*
X6591110Y425090D03*
X6907870Y1314490D03*
Y1814490D03*
Y2314490D03*
Y2814490D03*
X6573230Y4139150D03*
X6707310Y5439740D03*
X7091110Y425090D03*
X7073230Y4139150D03*
X7207310Y5439740D03*
X7591110Y425090D03*
X7407870Y1314490D03*
Y1814490D03*
Y2314490D03*
Y2814490D03*
X7573230Y4139150D03*
X7707310Y5439740D03*
X8091110Y425090D03*
X8207310Y5439740D03*
X8591110Y425090D03*
X8576090Y3388290D03*
X8707310Y5439740D03*
X9091110Y425090D03*
X9076090Y3388290D03*
X9576090D03*
G54D30*
X7960000Y4110000D03*
Y4490000D03*
X8250000Y4160000D03*
Y4440000D03*
G54D21*
X2840000Y3820000D03*
Y4040000D03*
X3260000Y3820000D03*
Y4040000D03*
G54D12*
X396200Y4260000D03*
X243800D03*
X1053800D03*
X1206200D03*
X1053800Y4520000D03*
X1206200D03*
X4923800Y2300000D03*
X5076200D03*
X9770000Y4983800D03*
Y5136200D03*
G54D22*
X3640000Y1980000D03*
X3860000D03*
G54D31*
X8600000Y4310000D03*
X9200000D03*
G54D13*
X590000Y4275000D03*
X850000D03*
X590000Y4370000D03*
Y4465000D03*
X850000D03*
Y4370000D03*
G54D14*
X1045000Y4390000D03*
X1135000D03*
X1555000Y1960000D03*
X1425000Y4130000D03*
X1515000D03*
X1425000Y4340000D03*
X1515000D03*
X1425000Y4540000D03*
X1515000D03*
X1755000Y1960000D03*
X1845000D03*
X1965000D03*
X1645000D03*
X1635000Y4130000D03*
X1725000D03*
X1635000Y4540000D03*
X1725000D03*
X1635000Y4340000D03*
X1725000D03*
X2165000Y1960000D03*
X2255000D03*
X2375000D03*
X2055000D03*
X2575000D03*
X2665000D03*
X2465000D03*
X2755000Y4540000D03*
X2905000Y3820000D03*
X2775000D03*
Y4040000D03*
X2905000D03*
X2845000Y4540000D03*
X3325000Y3820000D03*
X3195000D03*
Y4040000D03*
X3325000D03*
X3705000Y2300000D03*
X3795000D03*
Y2180000D03*
X3705000D03*
Y3100000D03*
X3795000D03*
X3705000Y3250000D03*
X3795000D03*
X3995000Y2050000D03*
X4085000D03*
X4925000Y2730000D03*
X5015000D03*
X4925000Y2550000D03*
X5015000D03*
G54D32*
X8880000Y4790000D03*
G54D23*
X3750000Y2440000D03*
G54D33*
G01X1550000Y2620000D02*
X1230000D01*
X1140000Y2530000D01*
Y2030000D01*
X1210000Y1960000D01*
X1555000D01*
G01X1965000Y2125000D02*
X1890000Y2200000D01*
X1610000D01*
X1390000Y2420000D01*
G01X1940000D02*
X1930000Y2410000D01*
X1680000D01*
X1620000Y2470000D01*
Y2550000D01*
X1550000Y2620000D01*
G01X4030000Y2932500D02*
X3577500D01*
X3490000Y3020000D01*
Y3210000D01*
X3430000Y3270000D01*
X2460000D01*
X2270000Y3080000D01*
X1710000D01*
X1620000Y2990000D01*
Y2690000D01*
X1550000Y2620000D01*
G01X1965000Y1960000D02*
Y2125000D01*
G01X4030000Y2737500D02*
X2572500D01*
X2290000Y3020000D01*
X1760000D01*
X1720000Y2980000D01*
Y2650000D01*
X1760000Y2610000D01*
X2100000D01*
X2150000Y2560000D01*
Y2310000D01*
X1965000Y2125000D01*
G01X1940000Y2840000D02*
X2282500D01*
X2450000Y2672500D01*
G01D02*
X2375000Y2597500D01*
Y1960000D01*
G01X2450000Y2672500D02*
X4030000D01*
G01Y2802500D02*
X3047500D01*
X2895000Y2955000D01*
X2845000D01*
X2840000Y2950000D01*
G01X4030000Y2607500D02*
X3437500D01*
X3330000Y2500000D01*
X3260000D01*
G01X4030000Y2867500D02*
X3362500D01*
X3280000Y2950000D01*
X3260000D01*
G01X3600000Y2510000D02*
Y2490000D01*
G01X4030000Y2542500D02*
X3652500D01*
X3620000Y2510000D01*
G01D02*
X3600000D01*
G01X4030000Y2997500D02*
X3772500D01*
X3705000Y3065000D01*
G01D02*
Y3100000D01*
G01X4590000Y2347500D02*
X4652500D01*
X4700000Y2300000D01*
X4923800D01*
G54D15*
X1574000Y373000D03*
Y627000D03*
Y5473000D03*
Y5727000D03*
X1828000Y373000D03*
Y627000D03*
Y5473000D03*
Y5727000D03*
X2082000Y373000D03*
X2336000D03*
X2082000Y627000D03*
X2336000D03*
X2082000Y5473000D03*
X2336000D03*
X2082000Y5727000D03*
X2336000D03*
X2590000Y373000D03*
Y627000D03*
Y5473000D03*
Y5727000D03*
X2844000Y373000D03*
X3098000D03*
X2844000Y627000D03*
X3098000D03*
X2844000Y5473000D03*
X3098000D03*
X2844000Y5727000D03*
X3098000D03*
X3352000Y373000D03*
Y627000D03*
Y5473000D03*
Y5727000D03*
X3606000Y373000D03*
X3860000D03*
X3606000Y627000D03*
X3860000D03*
X3606000Y5473000D03*
X3860000D03*
X3606000Y5727000D03*
X3860000D03*
X4114000Y373000D03*
Y627000D03*
Y5473000D03*
Y5727000D03*
X4368000Y373000D03*
X4622000D03*
X4368000Y627000D03*
X4622000D03*
X4368000Y5473000D03*
X4622000D03*
X4368000Y5727000D03*
X4622000D03*
X4876000Y373000D03*
Y627000D03*
Y5473000D03*
Y5727000D03*
X5130000Y373000D03*
Y5473000D03*
G54D24*
X3920000Y3940000D03*
Y3640000D03*
G54D34*
G01X1135000Y4390000D02*
Y4438800D01*
X1053800Y4520000D01*
G01X850000Y4465000D02*
X970000D01*
X1045000Y4390000D01*
G01X1425000Y4130000D02*
X1340000D01*
G01X1635000D02*
X1515000D01*
G01X1425000Y4340000D02*
X1340000D01*
G01X1425000Y4540000D02*
X1340000D01*
G01X1635000Y4340000D02*
X1515000D01*
G01X1635000Y4540000D02*
X1515000D01*
G01X1635000Y4130000D02*
Y4130930D01*
X1704070Y4200000D01*
X1770000D01*
X1845000Y4275000D01*
X1959800D01*
G01Y4210000D02*
X2519800D01*
G01X1959800Y4340000D02*
X2519800D01*
G01X1959800Y4405000D02*
X1699070D01*
X1635000Y4340930D01*
Y4340000D01*
G01Y4540000D02*
Y4539070D01*
X1704070Y4470000D01*
X1780000D01*
X1845000Y4535000D01*
X1959800D01*
G01Y4470000D02*
X2519800D01*
G01X1950000Y4854800D02*
Y4770000D01*
G01X1710000Y4854800D02*
Y4770000D01*
G01X1830000Y4854800D02*
Y4770000D01*
G01X2210000Y4854800D02*
Y4770000D01*
G01X2330000Y4854800D02*
Y4770000D01*
G01X2080000Y4854800D02*
Y4770000D01*
G01X3860000Y4854800D02*
Y4429990D01*
X3810010Y4380000D01*
X2710000D01*
X2680000Y4350000D01*
Y4180000D01*
X2645000Y4145000D01*
X2519800D01*
G01X3480000Y4854800D02*
Y4500000D01*
X3440000Y4460000D01*
X2670000D01*
X2615000Y4405000D01*
X2519800D01*
G01X3740000Y4854800D02*
Y4470000D01*
X3690000Y4420000D01*
X2690000D01*
X2640000Y4370000D01*
Y4300000D01*
X2615000Y4275000D01*
X2519800D01*
G01X4880000Y4854800D02*
Y4170000D01*
X4850000Y4140000D01*
X3710000D01*
X3520000Y3950000D01*
X2950000D01*
X2905000Y3905000D01*
Y3820000D01*
G01X2840000Y4040000D02*
Y3970000D01*
G01X2860000Y3960000D02*
X2890000D01*
X2905000Y3975000D01*
Y4040000D01*
G01D02*
X2980000D01*
G01X2970000Y4854800D02*
Y4770000D01*
G01X3640000Y1980000D02*
X3280320D01*
X3260000Y1959680D01*
Y1860000D01*
G01Y2500000D02*
Y2065320D01*
X3280320Y2045000D01*
X3640000D01*
G01X5000000Y4854800D02*
Y4159990D01*
X4940010Y4100000D01*
X3726570D01*
X3536570Y3910000D01*
X3350000D01*
X3325000Y3885000D01*
Y3820000D01*
G01X3330000Y4130000D02*
X3325000Y4125000D01*
G01X3410000Y4040000D02*
X3325000D01*
G01X3280000Y4130000D02*
X3260000Y4110000D01*
Y4040000D01*
G01X3325000Y4125000D02*
Y4040000D01*
G01X4114000Y5473000D02*
X3990000Y5597000D01*
Y5810000D01*
X3940000Y5860000D01*
X3530000D01*
X3480000Y5810000D01*
Y4944800D01*
G01X3230000Y4854800D02*
Y4770000D01*
G01X3350000Y4854800D02*
Y4770000D01*
G01X3860000Y1915000D02*
Y1860000D01*
G01X3940000D02*
Y1950000D01*
X3910000Y1980000D01*
X3860000D01*
G01X3750000Y2100000D02*
Y1950000D01*
X3715000Y1915000D01*
X3640000D01*
G01X4590000Y2542500D02*
X4917500D01*
X4925000Y2550000D01*
G01X4590000Y2477500D02*
X4847500D01*
X4850000Y2480000D01*
G01X4730000Y2410000D02*
X4720000D01*
X4717500Y2412500D01*
X4590000D01*
G01Y2607500D02*
X4802500D01*
X4925000Y2730000D01*
G01X4590000Y2997500D02*
X5200000D01*
G01X4590000Y2867500D02*
X5200000D01*
G01X4590000Y3062500D02*
X5200000D01*
G01X4590000Y2932500D02*
X5200000D01*
G01X4590000Y2802500D02*
X5200000D01*
G01X4790000Y3127500D02*
X4590000D01*
G01X4500000Y4854800D02*
Y4770000D01*
G01X4925000Y2730000D02*
Y2729070D01*
X5024070Y2630000D01*
X5250000D01*
X5320000Y2560000D01*
Y1290000D01*
X5225000Y1195000D01*
X5000000D01*
G01X5015000Y2730000D02*
X5100000D01*
G01X5015000Y2550000D02*
X5100000D01*
G01X4915000Y2640000D02*
Y2560000D01*
X4925000Y2550000D01*
G54D16*
X1560000Y1838060D03*
Y1710000D03*
X1970000Y1838060D03*
X1700000D03*
Y1710000D03*
X1970000D03*
X2110000Y1838060D03*
X2380000Y1710000D03*
Y1838060D03*
X2110000Y1710000D03*
X2520000D03*
Y1838060D03*
G54D25*
X4030000Y2347500D03*
Y2412500D03*
Y2477500D03*
Y2542500D03*
Y2607500D03*
Y2672500D03*
Y2737500D03*
Y2802500D03*
Y2867500D03*
Y2932500D03*
Y2997500D03*
Y3062500D03*
Y3127500D03*
Y3192500D03*
X4590000Y2347500D03*
Y2737500D03*
Y2672500D03*
Y2607500D03*
Y2542500D03*
Y2477500D03*
Y2412500D03*
Y3127500D03*
Y3062500D03*
Y2997500D03*
Y2932500D03*
Y2867500D03*
Y2802500D03*
Y3192500D03*
G54D35*
G01X740000Y4320000D02*
X790000Y4370000D01*
G01D02*
X850000D01*
G01X5130000Y627000D02*
Y620000D01*
X5010000Y500000D01*
X4800000D01*
X4750000Y550000D01*
Y1490000D01*
X4680000Y1560000D01*
X1510000D01*
X1480000Y1590000D01*
Y1734520D01*
X1518420Y1772940D01*
X1634880D01*
X1700000Y1838060D01*
G01X1560000D02*
X1470000D01*
G01X1970000Y1710000D02*
X1890000Y1630000D01*
X1630000D01*
X1560000Y1700000D01*
Y1710000D01*
G01X1700000Y4270000D02*
X1670000Y4240000D01*
X1570000D01*
G01X1710000Y1105000D02*
X1709980Y1104980D01*
Y491020D01*
X1828000Y373000D01*
G01X1830000Y1105000D02*
X1828000Y1103000D01*
Y627000D01*
G01X1960000Y1105000D02*
Y495000D01*
X2082000Y373000D01*
G01X1710000Y1195000D02*
Y1330000D01*
G01X2860000Y1280000D02*
X1915000D01*
X1830000Y1195000D01*
G01X2950000Y1280000D02*
X2890000Y1220000D01*
X1985000D01*
X1960000Y1195000D01*
G01X1970000Y1838060D02*
X1881940D01*
G01X2380000Y1710000D02*
X2300000Y1630000D01*
X2050000D01*
X1970000Y1710000D01*
G01X1645000Y1960000D02*
X1755000D01*
G01D02*
Y1893060D01*
X1700000Y1838060D01*
G01Y1710000D02*
X1780000D01*
X1810000Y1740000D01*
Y1910000D01*
X1845000Y1945000D01*
Y1960000D01*
G01X1959800Y4145000D02*
X1845000D01*
X1810000Y4110000D01*
G01X1960000Y4090000D02*
X1959800Y4090200D01*
G01X2085000Y4145000D02*
X1959800D01*
G01Y4090200D02*
Y4145000D01*
G01X1950000Y4944800D02*
Y5595000D01*
X2082000Y5727000D01*
G01X1710000Y4944800D02*
X1709980Y4944820D01*
Y5608980D01*
X1828000Y5727000D01*
G01X1830000Y4944800D02*
X1828000Y4946800D01*
Y5473000D01*
G01X2380000Y1838060D02*
X2290000D01*
G01X2055000Y1960000D02*
X2165000D01*
G01D02*
Y1893060D01*
X2110000Y1838060D01*
G01X2165000Y1960000D02*
Y2045000D01*
G01X2255000Y1960000D02*
Y1945000D01*
X2210000Y1900000D01*
Y1735400D01*
X2184600Y1710000D01*
X2110000D01*
G01X2090000Y4140000D02*
X2085000Y4145000D01*
G01X2210000Y4944800D02*
Y5601000D01*
X2336000Y5727000D01*
G01X2330000Y4944800D02*
X2336000Y4950800D01*
Y5473000D01*
G01X2080000Y4944800D02*
X2082000Y4946800D01*
Y5473000D01*
G01X2465000Y1960000D02*
X2575000D01*
G01D02*
Y1893060D01*
X2520000Y1838060D01*
G01X2575000Y1960000D02*
Y2045000D01*
G01X4876000Y627000D02*
Y1544000D01*
X4790000Y1630000D01*
X2460000D01*
X2380000Y1710000D01*
G01X2665000Y1960000D02*
Y1745000D01*
X2630000Y1710000D01*
X2520000D01*
G01X2519800Y4535000D02*
X2660000D01*
G01D02*
X2750000D01*
X2755000Y4540000D01*
G01X2840000Y2950000D02*
Y3120000D01*
G01Y3820000D02*
Y3590000D01*
G01X2775000Y3820000D02*
Y3745000D01*
G01Y4040000D02*
Y4180000D01*
X2770000Y4185000D01*
G01X2970000Y4944800D02*
Y5599000D01*
X3098000Y5727000D01*
G01X3260000Y2950000D02*
Y3120000D01*
G01Y3820000D02*
Y3590000D01*
G01X3195000Y3820000D02*
Y3745000D01*
G01Y4040000D02*
Y4180000D01*
X3200000Y4185000D01*
G01X3230000Y4944800D02*
Y5605000D01*
X3352000Y5727000D01*
G01X3350000Y4944800D02*
Y5471000D01*
X3352000Y5473000D01*
G01X3860000Y2045000D02*
X3990000D01*
X3995000Y2050000D01*
G01X4030000Y2412500D02*
X3907500D01*
X3795000Y2300000D01*
G01D02*
Y2180000D01*
G01X3705000D02*
X3620000D01*
G01X4030000Y2477500D02*
X3787500D01*
X3750000Y2440000D01*
G01X4030000Y3062500D02*
X3832500D01*
X3795000Y3100000D01*
G01Y3250000D02*
X3900000D01*
X3957500Y3192500D01*
X4030000D01*
G01Y3127500D02*
X3892500D01*
X3840000Y3180000D01*
X3760000D01*
X3705000Y3235000D01*
Y3250000D01*
G01X3740000Y4944800D02*
Y5607000D01*
X3860000Y5727000D01*
G01Y4944800D02*
Y5473000D01*
G01X4180000Y2340000D02*
X4172500Y2347500D01*
G01X4030000D02*
Y2300000D01*
G01X4172500Y2347500D02*
X4030000D01*
G01X4310000Y2770000D02*
X4407500Y2672500D01*
G01D02*
X4590000D01*
G01Y3192500D02*
X4712500D01*
G01X4590000D02*
Y3250000D01*
G01X4460000Y3190000D02*
X4462500Y3192500D01*
X4590000D01*
G01X4500000Y4944800D02*
Y5605000D01*
X4622000Y5727000D01*
G01X5000000Y1105000D02*
X5225000D01*
X5280000Y1050000D01*
Y280000D01*
X5220000Y220000D01*
X5029000D01*
X4876000Y373000D01*
G01X4920000Y2180000D02*
Y2296200D01*
X4923800Y2300000D01*
G01X4712500Y3192500D02*
X4720000Y3200000D01*
G01X5000000Y4944800D02*
Y5603000D01*
X4876000Y5727000D01*
G01X4880000Y4944800D02*
X4876000Y4948800D01*
Y5473000D01*
G01X8310000Y4030000D02*
X9570000D01*
X9630000Y4090000D01*
Y5015000D01*
G01Y5105000D02*
X9738800D01*
X9770000Y5136200D01*
G54D17*
X1390000Y2420000D03*
Y2840000D03*
Y3260000D03*
Y3680000D03*
X1940000Y2420000D03*
Y2840000D03*
Y3260000D03*
Y3680000D03*
G54D26*
X4310000Y2770000D03*
G54D36*
G01X8250000Y4440000D02*
Y4960000D01*
X8060000Y5150000D01*
X6901000D01*
G01X8250000Y4440000D02*
X8470000D01*
X8600000Y4310000D01*
G54D18*
X1830000Y1195000D03*
Y1105000D03*
X1960000Y1195000D03*
Y1105000D03*
X1710000Y1195000D03*
Y1105000D03*
X1950000Y4854800D03*
Y4944800D03*
X1710000Y4854800D03*
Y4944800D03*
X1830000Y4854800D03*
Y4944800D03*
X2210000Y4854800D03*
Y4944800D03*
X2330000Y4854800D03*
Y4944800D03*
X2080000Y4854800D03*
Y4944800D03*
X2770000Y4185000D03*
Y4275000D03*
X2970000Y4854800D03*
Y4944800D03*
X3200000Y4185000D03*
Y4275000D03*
X3480000Y4854800D03*
Y4944800D03*
X3230000Y4854800D03*
Y4944800D03*
X3350000Y4854800D03*
Y4944800D03*
X3640000Y1915000D03*
X3860000D03*
X3640000Y2045000D03*
X3860000D03*
X3740000Y4854800D03*
Y4944800D03*
X3860000Y4854800D03*
Y4944800D03*
X4500000Y4854800D03*
Y4944800D03*
X5000000Y1195000D03*
Y1105000D03*
X4880000Y4854800D03*
Y4944800D03*
X5000000Y4854800D03*
Y4944800D03*
X9630000Y5015000D03*
Y5105000D03*
G54D27*
X4188450Y2770470D03*
Y2650470D03*
Y2530470D03*
Y2410470D03*
Y3130470D03*
Y3010470D03*
Y2890470D03*
Y3250470D03*
X4428450Y2770470D03*
X4308450D03*
X4428450Y2650470D03*
X4308450D03*
X4428450Y2530470D03*
X4308450D03*
X4428450Y2410470D03*
X4308450D03*
X4428450Y3130470D03*
X4308450D03*
X4428450Y3010470D03*
X4308450D03*
X4428450Y2890470D03*
X4308450D03*
X4428450Y3250470D03*
X4308450D03*
G54D28*
X5130000Y627000D03*
Y5727000D03*
G54D19*
X1959800Y4145000D03*
Y4210000D03*
Y4275000D03*
Y4340000D03*
Y4405000D03*
Y4470000D03*
Y4535000D03*
X2519800Y4275000D03*
Y4210000D03*
Y4145000D03*
Y4535000D03*
Y4470000D03*
Y4405000D03*
Y4340000D03*
G54D29*
X6139000Y5150000D03*
X6901000D03*
M02*
