M48
METRIC,TZ
T01C.254
T02C.4572
T03C.6
T04C.9
T05C1.
T06C1.1
T07C1.5
T08C1.8
T09C3.1
T10C3.3
;LEADER: 12 
;HEADER: 
;CODE  : ASCII 
;FILE  : B-G431B-ESC1_V10_220728-1-2.drl for board G:/github/MotorDriver/HARDWARE/B-G431B-ESC1_V10_220728/PCB/#Taaaakp16728.tmp ... layers TOP and BOTTOM
;T01 Holesize 1. = 0.254000 Tolerance = +0.000000/-0.000000 PLATED MM Quantity = 441
;T02 Holesize 2. = 0.457200 Tolerance = +0.000000/-0.000000 PLATED MM Quantity = 14
;T03 Holesize 3. = 0.600000 Tolerance = +0.000000/-0.000000 PLATED MM Quantity = 13
;T04 Holesize 4. = 0.900000 Tolerance = +0.000000/-0.000000 PLATED MM Quantity = 2
;T05 Holesize 5. = 1.000000 Tolerance = +0.000000/-0.000000 PLATED MM Quantity = 4
;T06 Holesize 6. = 1.100000 Tolerance = +0.000000/-0.000000 PLATED MM Quantity = 19
;T07 Holesize 7. = 1.500000 Tolerance = +0.000000/-0.000000 PLATED MM Quantity = 2
;T08 Holesize 8. = 1.800000 Tolerance = +0.000000/-0.000000 PLATED MM Quantity = 8
;T09 Holesize 9. = 3.100000 Tolerance = +0.000000/-0.000000 PLATED MM Quantity = 3
;T10 Holesize 10. = 3.300000 Tolerance = +0.000000/-0.000000 PLATED MM Quantity = 4
%
G90
T01
X1393320Y380780
X1893320Y380780
X2393320Y380780
X2893320Y380780
X3393320Y380780
X3893320Y380780
X4393320Y380780
X4893320Y380780
X5393320Y380780
X6235950Y395310
X6735950Y395310
X7235950Y395310
X7735950Y395310
X8235950Y395310
X9443080Y1186690
X8943080Y1186690
X8443080Y1186690
X7475950Y1405310
X7475950Y895310
X6975950Y1405310
X6975950Y895310
X6315310Y1354050
X5990000Y1200000
X5990000Y1100000
X5990000Y1000000
X5990000Y900000
X5990000Y800000
X5890000Y1200000
X5890000Y1100000
X5890000Y1000000
X5890000Y900000
X5890000Y800000
X5820000Y1520000
X5790000Y1200000
X5790000Y1100000
X5790000Y800000
X5720000Y1520000
X5690000Y1200000
X5620000Y1520000
X5590000Y1200000
X5590000Y1100000
X5590000Y800000
X5490000Y1200000
X5490000Y1100000
X5490000Y1000000
X5490000Y900000
X5490000Y800000
X5123320Y1520780
X4623320Y1520780
X231660Y1252020
X231660Y1752020
X231660Y2252020
X960000Y1680000
X960000Y1880000
X960000Y2080000
X960000Y2280000
X1160000Y1680000
X1160000Y1880000
X1160000Y2080000
X1160000Y2280000
X2985000Y1785000
X3163320Y2170780
X3663320Y2170780
X4073320Y2170780
X4573320Y2170780
X4623320Y1860780
X4830000Y2110000
X4830000Y2230000
X5040000Y2080000
X5050000Y1700000
X5123320Y1860780
X5290000Y2140000
X5620000Y1640000
X5620000Y1760000
X5620000Y1880000
X5720000Y1640000
X5720000Y1760000
X5720000Y1880000
X5820000Y1640000
X5820000Y1760000
X5820000Y1880000
X6315310Y1854050
X6470000Y2260000
X6540000Y2260000
X6610000Y2260000
X9626510Y1578750
X9626510Y2078750
X9626510Y2578750
X7536510Y2888750
X7536510Y2388750
X6970000Y2780000
X6850000Y2780000
X6610000Y2380000
X6610000Y2320000
X6540000Y2380000
X6540000Y2320000
X6470000Y2380000
X6470000Y2320000
X6300000Y2990000
X6300000Y2870000
X5820000Y2970000
X5820000Y2850000
X5820000Y2730000
X5720000Y2970000
X5720000Y2850000
X5720000Y2730000
X5620000Y2970000
X5620000Y2850000
X5620000Y2730000
X5250000Y2830000
X5250000Y2710000
X5210000Y3000800
X5120000Y2570000
X4941840Y2365000
X4825000Y2365000
X4583320Y2790780
X4083320Y2790780
X3673320Y2790780
X3173320Y2790780
X2220000Y2930000
X2220000Y2810000
X2120000Y2930000
X2120000Y2810000
X2020000Y2930000
X2020000Y2810000
X1600000Y2930000
X1600000Y2810000
X1500000Y2930000
X1500000Y2810000
X1400000Y2930000
X1400000Y2810000
X1270000Y2480000
X1160000Y2480000
X960000Y2880000
X960000Y2680000
X960000Y2480000
X231660Y2752020
X231660Y3252020
X231660Y3752020
X960000Y3080000
X960000Y3280000
X1270000Y3230000
X1510000Y3300000
X1650000Y3300000
X1790000Y3300000
X1800000Y3430000
X1800000Y3570000
X1800000Y3720000
X2070000Y3370000
X2190000Y3250000
X2190000Y3370000
X2340000Y3720000
X2630000Y3400000
X2630000Y3800000
X2892120Y3402460
X2892120Y3802460
X3260000Y3410000
X3262120Y3802460
X3840000Y3692500
X3900000Y3630000
X3901600Y3100000
X3960000Y3562500
X4020000Y3430000
X4270000Y3190000
X4362120Y3422460
X4370000Y3220000
X4860000Y3367500
X4860000Y3490000
X4950000Y3380000
X4970000Y3220000
X5040000Y3291120
X5120000Y3780000
X5270000Y3100000
X5290000Y3350000
X5620000Y3090000
X5720000Y3090000
X5820000Y3090000
X6470000Y3470000
X6470000Y3530000
X6470000Y3590000
X6540000Y3470000
X6540000Y3530000
X6540000Y3590000
X6610000Y3470000
X6610000Y3530000
X6610000Y3590000
X7536510Y3388750
X9626510Y3078750
X9280000Y4520000
X8800000Y4400000
X8720000Y4520000
X6980000Y4000000
X6860000Y4000000
X6300000Y4220000
X6300000Y4100000
X5820000Y4310000
X5820000Y4190000
X5820000Y4070000
X5820000Y3950000
X5720000Y4310000
X5720000Y4190000
X5720000Y4070000
X5720000Y3950000
X5620000Y4310000
X5620000Y4190000
X5620000Y4070000
X5620000Y3950000
X5040000Y4520000
X4970000Y4140000
X4930000Y3970000
X4930000Y3850000
X4900000Y4560000
X4900000Y4450000
X4500000Y4450000
X4362120Y3812460
X4232120Y4192460
X3262120Y4192460
X2892120Y4192460
X2630000Y4190000
X2340000Y4520000
X2340000Y4320000
X2340000Y4120000
X2340000Y3920000
X449470Y5078190
X1790000Y4910000
X1790000Y5110000
X1790000Y5310000
X2280000Y4920000
X2280000Y5120000
X2280000Y5320000
X2632120Y4702460
X2632120Y5202460
X2890000Y4950000
X2892120Y5192460
X3260000Y4950000
X3262120Y5192460
X4232120Y4692460
X4232120Y5192460
X5040000Y4630000
X5120000Y5010000
X5290000Y4580000
X6470000Y4700000
X6470000Y4760000
X6470000Y4820000
X6540000Y4700000
X6540000Y4760000
X6540000Y4820000
X6610000Y4700000
X6610000Y4760000
X6610000Y4820000
X7750000Y5130000
X7830000Y4920000
X7870000Y5240000
X8110000Y5130000
X8190000Y4920000
X8240000Y5240000
X8470000Y5130000
X8550000Y4920000
X8720000Y4780000
X8720000Y5040000
X8800000Y4670000
X8800000Y4930000
X9280000Y4780000
X9280000Y5040000
X9719940Y6086440
X9719940Y5586440
X9219940Y6086440
X9219940Y5586440
X8310000Y5970000
X8240000Y5550000
X7870000Y5970000
X7870000Y5550000
X7056230Y5758910
X6556230Y5758910
X6016230Y5758910
X5656230Y5758910
X5290000Y6050000
X5070000Y5690000
X4732120Y5692460
X4232120Y5692460
X3262120Y5692460
X2985000Y5780000
X2892120Y5692460
X2620000Y5860000
X2280000Y5520000
X2160000Y6090000
X2160000Y5890000
X2030000Y6060000
X2030000Y5990000
X1950000Y6060000
X1950000Y5990000
X1860000Y6060000
X1860000Y5990000
X1790000Y5510000
X1650000Y5900000
X1330000Y5730000
X449470Y6078190
X449470Y5578190
X449470Y6578190
X1650000Y6100000
X1650000Y6300000
X1650000Y6500000
X2160000Y6290000
X2160000Y6490000
X3122120Y6772460
X4970000Y6130000
X5160000Y6320000
X5230000Y6420000
X5360000Y6610000
X5430000Y6710000
X5662670Y6382070
X5662670Y6662070
X6022670Y6382070
X6022670Y6662070
X6562670Y6382070
X6562670Y6662070
X7062670Y6382070
X7062670Y6662070
X7562670Y6382070
X7562670Y6662070
X8062670Y6662070
X8310000Y6380000
X9219940Y6586440
X9719940Y6586440
X9719940Y7586440
X9719940Y7086440
X9219940Y7586440
X9219940Y7086440
X8062670Y7582070
X8062670Y7082070
X7562670Y7582070
X7562670Y7082070
X7062670Y7582070
X7062670Y7082070
X6562670Y7582070
X6562670Y7082070
X6022670Y7592070
X6022670Y7092070
X5112670Y7592070
X5112670Y7092070
X4440000Y7370000
X4440000Y7210000
X4425000Y7475000
X4210000Y7240000
X4060000Y7090000
X3920000Y7210000
X3122120Y7272460
X2842120Y7272460
X2544810Y7268480
X2044810Y7268480
X1544810Y7268480
X570000Y8000000
X1044810Y7688480
X1044810Y8098480
X1544810Y7688480
X1544810Y8098480
X2044810Y7688480
X2044810Y8098480
X2840000Y8040000
X2842120Y7772460
X2842120Y8272460
X3170000Y7890000
X3190000Y7620000
X3250000Y7970000
X3250000Y8170000
X4280000Y8370000
X4360000Y7950000
X4425000Y8335000
X4640000Y7950000
X4640000Y8070000
X4640000Y8185000
X4690000Y8014120
X4690000Y8129120
X4730000Y8280000
X5112670Y8092070
X5910000Y7880000
X6022670Y8092070
X6562670Y8082070
X7062670Y8082070
X7562670Y8082070
X8062670Y8082070
X9219940Y8086440
X9719940Y8086440
X9719940Y9086440
X9719940Y8586440
X9219940Y9086440
X9219940Y8586440
X4760000Y8540000
X4570000Y8830000
X4570000Y8690000
X4519200Y8759200
X4509200Y8627600
X4280000Y9070000
X4110000Y8890000
X4010000Y8940000
X3985000Y8500000
X3908500Y8890000
X3845000Y8940000
X3770000Y8830000
X3770000Y8630000
X3670800Y8759200
X3600000Y8760000
X3470000Y9110000
X3470000Y8760000
X3320000Y8620000
X3250000Y8390000
X3030000Y8760000
X3030000Y8390000
X2808270Y9108520
X2308270Y9108520
X2215000Y8815000
X2132500Y8562500
X2130000Y8650000
X1970000Y9000000
X1760000Y8570000
X1520000Y8950000
X1320000Y8570000
X798520Y9141730
X798520Y8641730
X450000Y8970000
X950000Y9860000
X1050000Y9860000
X1155000Y9335000
X1518270Y9808520
X2018270Y9808520
X2450000Y9250000
X2570000Y9250000
X2758270Y9688520
X3258270Y9688520
X3758270Y9688520
X4258270Y9688520
X4280000Y9350000
X4758270Y9688520
X4994450Y9260160
X5494450Y9260160
X5994450Y9260160
X6494450Y9260160
X6994450Y9260160
X7494450Y9260160
X7994450Y9260160
X8494450Y9260160
T02
X1700000Y2790000
X1920000Y2790000
X1920000Y2950000
X1810000Y2870000
X1700000Y2950000
X3580000Y7780000
X3810000Y7780000
X4040000Y7780000
X4040000Y8010000
X3810000Y8010000
X3580000Y8010000
X3580000Y8240000
X3810000Y8240000
X4040000Y8240000
T03
X1200000Y6450000
X1200000Y6700000
X1200000Y6950000
X3566000Y9246500
X3693000Y9246500
X3566000Y9373500
X3693000Y9373500
X3820000Y9246500
X3947000Y9246500
X3820000Y9373500
X3947000Y9373500
X4074000Y9373500
X4074000Y9246500
T04
X5690000Y460000
X5690000Y960000
T05
X120000Y7405000
X120000Y8155000
X120000Y8375000
X120000Y9125000
T06
X3470000Y3892000
X3470000Y4146000
X3470000Y4400000
X3470000Y4654000
X3470000Y4908000
X3470000Y5162000
X3470000Y5416000
X3470000Y5670000
X5920000Y5310000
X6174000Y5310000
X7680000Y5770000
X7934000Y5770000
X8188000Y5770000
X8442000Y5770000
X9680000Y5046000
X9680000Y4792000
X9680000Y4538000
X9680000Y4284000
X9680000Y4030000
T07
X2439000Y960000
X3201000Y960000
T08
X8060000Y2171460
X8060000Y2591460
X8060000Y3011460
X8060000Y3431460
X8610000Y3431460
X8610000Y3011460
X8610000Y2591460
X8610000Y2171460
T09
X6990000Y2190000
X6990000Y3400000
X6990000Y4630000
T10
X360000Y360000
X9640000Y360000
X9640000Y9640000
X360000Y9640000
M30
