G04 ================== begin FILE IDENTIFICATION RECORD ==================*
G04 Layout Name:  B-G431B-ESC1_V10_220728.brd*
G04 Film Name:    SolderMask_Bottom*
G04 File Format:  Gerber RS274X*
G04 File Origin:  Cadence Allegro 17.2-S079*
G04 Origin Date:  Sat Jul 30 14:34:49 2022*
G04 *
G04 Layer:  PIN/SOLDERMASK_BOTTOM*
G04 Layer:  PACKAGE GEOMETRY/SOLDERMASK_BOTTOM*
G04 Layer:  BOARD GEOMETRY/SOLDERMASK_BOTTOM*
G04 *
G04 Offset:    (0.0000 0.0000)*
G04 Mirror:    No*
G04 Mode:      Positive*
G04 Rotation:  0*
G04 FullContactRelief:  No*
G04 UndefLineWidth:     0.1524*
G04 ================== end FILE IDENTIFICATION RECORD ====================*
%FSLAX55Y55*MOMM*%
%IR0*IPPOS*OFA0.00000B0.00000*MIA0B0*SFA1.00000B1.00000*%
%ADD14O,1.1X2.2*%
%ADD15O,1.1X1.7*%
%ADD12O,4.15X2.15*%
%ADD16O,2.15X4.15*%
%ADD13C,1.1*%
%ADD17C,2.3*%
%ADD10C,7.*%
%ADD22C,2.6*%
%ADD23R,2.X2.*%
%ADD20R,1.1X1.1*%
%ADD18C,1.9*%
%ADD11C,1.75*%
%ADD21C,6.45*%
%ADD19R,1.9X1.9*%
G75*
%LPD*%
G75*
G36*
G01X1650000Y3000000D02*
Y2750000D01*
X1970000D01*
Y3000000D01*
X1650000D01*
G37*
G36*
G01X3530000Y8290000D02*
Y7730000D01*
X4090000D01*
Y8290000D01*
X3530000D01*
G37*
G54D10*
X360000Y360000D03*
Y9640000D03*
X9640000Y360000D03*
Y9640000D03*
G54D11*
X120000Y7405000D03*
Y8155000D03*
Y8375000D03*
Y9125000D03*
G54D20*
X3566000Y9246500D03*
G54D21*
X6990000Y2190000D03*
Y3400000D03*
Y4630000D03*
G54D12*
X1418200Y812030D03*
Y1412030D03*
G54D22*
X8060000Y2171460D03*
Y2591460D03*
Y3011460D03*
Y3431460D03*
X8610000Y2171460D03*
Y2591460D03*
Y3011460D03*
Y3431460D03*
G54D13*
X1200000Y6450000D03*
Y6950000D03*
Y6700000D03*
X3820000Y9246500D03*
X3693000D03*
X3820000Y9373500D03*
X3693000D03*
X3566000D03*
X4074000Y9246500D03*
X3947000D03*
X4074000Y9373500D03*
X3947000D03*
G54D23*
X9680000Y4030000D03*
G54D14*
X1328000Y9394000D03*
X2192000D03*
G54D15*
X1328000Y9812000D03*
X2192000D03*
G54D16*
X1898200Y1132030D03*
G54D17*
X2439000Y960000D03*
X3201000D03*
G54D18*
X3470000Y3892000D03*
Y4146000D03*
Y4400000D03*
Y4654000D03*
Y4908000D03*
Y5162000D03*
Y5416000D03*
X5690000Y460000D03*
Y960000D03*
X6174000Y5310000D03*
X7934000Y5770000D03*
X8442000D03*
X8188000D03*
X9680000Y4284000D03*
Y4538000D03*
Y5046000D03*
Y4792000D03*
G54D19*
X3470000Y5670000D03*
X5920000Y5310000D03*
X7680000Y5770000D03*
M02*
