G04 ================== begin FILE IDENTIFICATION RECORD ==================*
G04 Layout Name:  B-G431B-ESC1_V10_220728.brd*
G04 Film Name:    TOP*
G04 File Format:  Gerber RS274X*
G04 File Origin:  Cadence Allegro 17.2-S079*
G04 Origin Date:  Sat Jul 30 14:34:49 2022*
G04 *
G04 Layer:  VIA CLASS/TOP*
G04 Layer:  PIN/TOP*
G04 Layer:  ETCH/TOP*
G04 *
G04 Offset:    (0.0000 0.0000)*
G04 Mirror:    No*
G04 Mode:      Positive*
G04 Rotation:  0*
G04 FullContactRelief:  No*
G04 UndefLineWidth:     0.1524*
G04 ================== end FILE IDENTIFICATION RECORD ====================*
%FSLAX55Y55*MOMM*%
%IR0*IPPOS*OFA0.00000B0.00000*MIA0B0*SFA1.00000B1.00000*%
%ADD26R,1.2X.3*%
%ADD37R,2.X.5*%
%ADD29R,.3X1.2*%
%ADD24R,.6X1.1*%
%ADD34R,.7X1.1*%
%ADD28R,.6X1.2*%
%ADD48R,1.5X.6*%
%ADD44R,1.4X.35*%
%ADD21R,.6X1.5*%
%ADD47R,.8X1.4*%
%ADD25C,.75*%
%ADD12C,.508*%
%ADD35R,.7X.7*%
%ADD33C,.762*%
%ADD27O,1.X2.1*%
%ADD14O,4.X2.*%
%ADD45R,1.2X1.*%
%ADD31O,2.X4.*%
%ADD23R,1.X1.2*%
%ADD30O,1.X1.6*%
%ADD13R,1.2X1.4*%
%ADD32R,3.1X2.4*%
%ADD46R,1.8X3.2*%
%ADD17C,1.*%
%ADD16R,3.5X2.5*%
%ADD22R,.5X.6*%
%ADD15R,1.8X1.6*%
%ADD20R,1.6X1.8*%
%ADD19R,.6X.5*%
%ADD36C,2.2*%
%ADD50R,.6X.7*%
%ADD40R,.8X.25*%
%ADD51C,2.5*%
%ADD41R,.25X.8*%
%ADD18R,.7X.9*%
%ADD43R,1.X1.*%
%ADD38C,1.8*%
%ADD11C,1.65*%
%ADD49C,6.35*%
%ADD10C,6.9*%
%ADD39R,1.8X1.8*%
%ADD52R,1.9X1.9*%
%ADD42R,5.6X5.6*%
%ADD53C,.4*%
%ADD54C,.2032*%
%ADD55C,.254*%
%ADD56C,.7112*%
%ADD57C,2.*%
%ADD59C,1.2004*%
%ADD60C,3.1148*%
%ADD63C,3.4148*%
%ADD62C,2.7148*%
%ADD61C,1.9148*%
%ADD58O,1.9148X2.5148*%
G75*
%LPD*%
G75*
G36*
G01X630310Y9970000D02*
X9369690D01*
G02X9383050Y9934370I-1J-20320D01*
G03X9249260Y9640000I256947J-294370D01*
G03X9640000Y9249260I390740J0D01*
G03X9934370Y9383050I0J390737D01*
G02X9970000Y9369690I15310J-13361D01*
G01Y630310D01*
G02X9934370Y616950I-20320J1D01*
G03X9640000Y750740I-294370J-256947D01*
G03X9249260Y360000I0J-390740D01*
G03X9383050Y65630I390737J0D01*
G02X9369690Y30000I-13361J-15310D01*
G01X630310D01*
G02X616950Y65630I1J20320D01*
G03X750740Y360000I-256947J294370D01*
G03X360000Y750740I-390740J0D01*
G03X65630Y616950I0J-390737D01*
G02X30000Y630310I-15310J13361D01*
G01Y7273800D01*
G02X59850Y7291740I20319J-5D01*
G03X120000Y7276760I60150J113272D01*
G03Y7533240I0J128240D01*
G03X59850Y7518260I0J-128252D01*
G02X30000Y7536200I-9531J17945D01*
G01Y8023800D01*
G02X59850Y8041740I20319J-5D01*
G03X120000Y8026760I60150J113272D01*
G03X183830Y8043770I6J128242D01*
G02X214260Y8026150I10111J-17624D01*
G01Y7962260D01*
G02X182830Y7945250I-20318J1D01*
G03X150000Y7955020I-32823J-50252D01*
G03Y7834980I0J-60020D01*
G03X207660Y7878320I0J60026D01*
G02X237270Y7890310I19519J-5646D01*
G03X260000Y7884260I22734J39689D01*
G01X380000D01*
G03X425740Y7930000I0J45740D01*
G01Y7944100D01*
X526000D01*
G03X570000Y7928860I44000J55897D01*
G03Y8071140I0J71140D01*
G03X526000Y8055900I0J-71137D01*
G01X425740D01*
Y8070000D01*
G03X380000Y8115740I-45740J0D01*
G01X260000D01*
G03X256120Y8115580I-57J-45742D01*
G02X245330Y8127850I-860J10123D01*
G03X248240Y8155000I-125329J27164D01*
G03X206190Y8249950I-128238J-6D01*
G02Y8280050I13660J15050D01*
G03X248240Y8375000I-86188J94956D01*
G03X120000Y8503240I-128240J0D01*
G03X59850Y8488260I0J-128252D01*
G02X30000Y8506200I-9531J17945D01*
G01Y8993800D01*
G02X59850Y9011740I20319J-5D01*
G03X120000Y8996760I60150J113272D01*
G03X183830Y9013770I6J128242D01*
G02X214260Y8996150I10111J-17624D01*
G01Y8932260D01*
G02X182830Y8915250I-20318J1D01*
G03X150000Y8925020I-32823J-50252D01*
G03Y8804980I0J-60020D01*
G03X207660Y8848320I0J60026D01*
G02X237270Y8860310I19519J-5646D01*
G03X260000Y8854260I22734J39689D01*
G01X380000D01*
G03X425020Y8891890I0J45746D01*
G02X436890Y8900080I9999J-1795D01*
G03X450000Y8898860I13118J69919D01*
G03Y9041140I0J71140D01*
G03X436890Y9039920I8J-71139D01*
G02X425020Y9048110I-1871J9985D01*
G03X380000Y9085740I-45020J-8116D01*
G01X260000D01*
G03X256120Y9085580I-57J-45742D01*
G02X245330Y9097850I-860J10123D01*
G03X248240Y9125000I-125329J27164D01*
G03X120000Y9253240I-128240J0D01*
G03X59850Y9238260I0J-128252D01*
G02X30000Y9256200I-9531J17945D01*
G01Y9369690D01*
G02X65630Y9383050I20320J-1D01*
G03X360000Y9249260I294370J256947D01*
G03X750740Y9640000I0J390740D01*
G03X616950Y9934370I-390737J0D01*
G02X630310Y9970000I13361J15310D01*
G37*
%LPC*%
G75*
G36*
G01X1318200Y957770D02*
X1518200D01*
G02Y666290I0J-145740D01*
G01X1318200D01*
G02Y957770I0J145740D01*
G37*
G36*
G01X5073370Y1632810D02*
G02X5050000Y1628860I-23375J67189D01*
G02Y1771140I0J71140D01*
G02X5073370Y1767190I-5J-71139D01*
G02X5100000Y1775740I26630J-37196D01*
G01X5150000D01*
G02X5195740Y1730000I0J-45740D01*
G01Y1670000D01*
G02X5150000Y1624260I-45740J0D01*
G01X5100000D01*
G02X5073370Y1632810I0J45746D01*
G37*
G36*
G01X2379870Y9632420D02*
X2380000Y9633240D01*
Y9840000D01*
X2640000D01*
Y9633240D01*
X2640130Y9632420D01*
G02X2640740Y9625000I-45128J-7445D01*
G01Y9535000D01*
G02X2631640Y9507630I-45737J9D01*
G03X2633180Y9481480I16282J-12161D01*
G02X2645740Y9450000I-33170J-31480D01*
G01Y9400000D01*
G02X2641140Y9380000I-45742J-8D01*
G02X2645740Y9360000I-41142J-19992D01*
G01Y9310000D01*
G02X2634510Y9279980I-45740J0D01*
G02X2641140Y9250000I-64508J-29989D01*
G02X2570000Y9178860I-71140J0D01*
G02X2523330Y9196310I0J71134D01*
G03X2496670I-13330J-15338D01*
G02X2450000Y9178860I-46670J53684D01*
G02X2378860Y9250000I0J71140D01*
G01Y9289900D01*
X2378020Y9291830D01*
G02X2374260Y9310000I41982J18162D01*
G01Y9360000D01*
G02X2378860Y9380000I45742J8D01*
G02X2374260Y9400000I41142J19992D01*
G01Y9450000D01*
G02X2386820Y9481480I45730J0D01*
G03X2388360Y9507630I-14742J13989D01*
G02X2379260Y9535000I36637J27379D01*
G01Y9625000D01*
G02X2379870Y9632420I45738J-25D01*
G37*
G36*
G01X1664260Y2720740D02*
Y2725740D01*
X1835740D01*
Y2720740D01*
X2031000D01*
G02X2076740Y2675000I0J-45740D01*
G01Y2525000D01*
G02X2068020Y2498140I-45728J0D01*
G01X2062930Y2491120D01*
X2108310Y2445740D01*
X2130000D01*
G02X2175740Y2400000I0J-45740D01*
G01Y2340000D01*
G02X2165660Y2311360I-45727J0D01*
G03Y2298640I7927J-6360D01*
G02X2175740Y2270000I-35647J-28640D01*
G01Y2210000D01*
G02X2130000Y2164260I-45740J0D01*
G01X2115740D01*
Y1938950D01*
X2118950Y1935740D01*
X4348950D01*
X4455740Y1828950D01*
Y1318950D01*
X4468950Y1305740D01*
X6028950D01*
X6125740Y1208950D01*
Y811050D01*
X6038950Y724260D01*
X3741050D01*
X3644260Y821050D01*
Y1591050D01*
X3611050Y1624260D01*
X1575740D01*
Y1565740D01*
X2468950D01*
X2605740Y1428950D01*
Y901050D01*
X2508950Y804260D01*
X2361050D01*
X2284260Y881050D01*
Y942370D01*
X2284200Y942930D01*
G02X2283260Y960000I154799J17085D01*
G02X2284200Y977070I155739J-15D01*
G01X2284260Y977630D01*
Y1231050D01*
X2251050Y1264260D01*
X2063830D01*
G03X2043560Y1242480I-1J-20321D01*
G02X2043940Y1232030I-145358J-10518D01*
G01Y1032030D01*
G02X1752460I-145740J0D01*
G01Y1232030D01*
G02X1752840Y1242480I145738J-68D01*
G03X1732570Y1264260I-20269J1459D01*
G01X1271050D01*
X1254260Y1281060D01*
X1252790Y1281790D01*
G02X1187960Y1346620I65410J130240D01*
G01X1187230Y1348090D01*
X1184260Y1351050D01*
Y1354550D01*
X1183490Y1356410D01*
G02X1172460Y1412030I134720J55620D01*
G02X1259940Y1545620I145742J0D01*
G01X1261700Y1546390D01*
X1271050Y1555740D01*
X1284260D01*
Y1770000D01*
G02X1302960Y1841420I145735J0D01*
G01X1304260Y1843730D01*
Y1860000D01*
G02X1350000Y1905740I45740J0D01*
G01X1376910D01*
X1378640Y1906390D01*
G02X1481360I51360J-136386D01*
G01X1483090Y1905740D01*
X1510000D01*
G02X1555740Y1860000I0J-45740D01*
G01Y1843730D01*
X1557040Y1841420D01*
G02X1564710Y1825620I-127035J-71430D01*
G01X1584260Y1829500D01*
Y2403880D01*
G03X1562890Y2424170I-20318J-1D01*
G02X1560000Y2424100I-2798J55832D01*
G01X1527700D01*
G02X1490000Y2404260I-37700J25899D01*
G01X1350000D01*
G02X1318170Y2417150I0J45745D01*
G03X1305960Y2418620I-7072J-7295D01*
G02X1270000Y2408860I-35960J61366D01*
G02Y2551140I0J71140D01*
G02X1305960Y2541380I0J-71126D01*
G03X1318170Y2542850I5138J8765D01*
G02X1350000Y2555740I31830J-32855D01*
G01X1490000D01*
G02X1524920Y2539540I0J-45736D01*
G01X1525200Y2539220D01*
X1532680Y2531730D01*
X1544260Y2543310D01*
Y2675000D01*
G02X1590000Y2720740I45740J0D01*
G01X1664260D01*
G37*
G36*
G01X3450470Y9499530D02*
G02X3490000Y9515900I39530J-39543D01*
G01X4310000D01*
G02X4349530Y9499530I0J-55913D01*
G01X4408650Y9440410D01*
G02X4425020Y9400880I-39543J-39530D01*
G01Y8693070D01*
G03X4459530Y8678530I20320J3D01*
G02X4463970Y8682510I49663J-50936D01*
G03X4466200Y8711750I-12914J15690D01*
G02X4448060Y8759200I52989J47450D01*
G02X4498910Y8827380I71133J0D01*
G02X4498860Y8830000I71089J2667D01*
G02X4570000Y8901140I71140J0D01*
G02X4614000Y8885900I0J-71137D01*
G01X5310000D01*
G02X5349530Y8869530I0J-55913D01*
G01X5513150Y8705900D01*
X8510000D01*
G02X8549530Y8689530I0J-55913D01*
G01X8739530Y8499530D01*
G02X8755900Y8460000I-39543J-39530D01*
G01Y5165900D01*
X8880000D01*
G02X8919530Y5149530I0J-55913D01*
G01X8948310Y5120740D01*
X8980000D01*
G02X9016110Y5103070I0J-45732D01*
G03X9046870Y5101540I16039J12476D01*
G02X9080000Y5115740I33130J-31548D01*
G01X9220000D01*
G02X9238170Y5111980I8J-45742D01*
G01X9240100Y5111140D01*
X9280000D01*
G02X9351140Y5040000I0J-71140D01*
G02X9342460Y5005950I-71126J0D01*
G03X9360300Y4975900I17839J-9730D01*
G01X9380000D01*
G02X9419530Y4959530I0J-55913D01*
G01X9459530Y4919530D01*
G02X9475900Y4880000I-39543J-39530D01*
G01Y4613150D01*
X9495150Y4593900D01*
X9556300D01*
G02X9601110Y4648460I123693J-55908D01*
G03Y4681540I-11805J16540D01*
G02Y4902460I78887J110460D01*
G03Y4935540I-11805J16540D01*
G02X9544260Y5046000I78887J110460D01*
G02X9815740I135740J0D01*
G02X9758890Y4935540I-135737J0D01*
G03Y4902460I11805J-16540D01*
G02Y4681540I-78887J-110460D01*
G03Y4648460I11805J-16540D01*
G02Y4427540I-78887J-110460D01*
G03Y4394460I11805J-16540D01*
G02X9815740Y4284000I-78887J-110460D01*
G02X9785390Y4198460I-135738J6D01*
G03X9793120Y4167000I15781J-12802D01*
G02X9820740Y4125000I-18123J-42000D01*
G01Y3935000D01*
G02X9775000Y3889260I-45740J0D01*
G01X9585000D01*
G02X9539260Y3935000I0J45740D01*
G01Y3974100D01*
X9270000D01*
G02X9230470Y3990470I0J55913D01*
G01X9160470Y4060470D01*
G02X9144100Y4100000I39543J39530D01*
G01Y4324260D01*
X9080000D01*
G02X9051360Y4334340I0J45727D01*
G03X9038640I-6360J-7927D01*
G02X9010000Y4324260I-28640J35647D01*
G01X8960000D01*
G02X8914260Y4370000I0J45740D01*
G01Y4439260D01*
X8780000D01*
G02X8754370Y4447120I6J45738D01*
G01X8751790Y4448860D01*
X8720000D01*
X8719410D01*
G03X8704880Y4414180I-160J-20317D01*
G01X9189530Y3929530D01*
G02X9205900Y3890000I-39543J-39530D01*
G01Y2380000D01*
G02X9189530Y2340470I-55913J0D01*
G01X8989530Y2140470D01*
G02X8950000Y2124100I-39530J39543D01*
G01X8774200D01*
X8771880Y2117170D01*
G02X8652810Y2006170I-161881J54287D01*
G01X8650130Y2005480D01*
X8411590Y1766950D01*
G02X8308540Y1724260I-103056J103047D01*
G01X7310000D01*
G02X7206950Y1766950I6J145737D01*
G01X7122260Y1851630D01*
X7116150Y1849370D01*
G02X7085440Y1839520I-126185J340619D01*
G01Y1790770D01*
G02X7097340Y1760000I-33831J-30770D01*
G01Y1640000D01*
G02X7051600Y1594260I-45740J0D01*
G01X6748400D01*
G02X6709360Y1616160I0J45747D01*
G01X6655000D01*
G02X6612440Y1627760I-9J83842D01*
G02X6591620Y1645120I17567J42233D01*
G02Y1754880I63373J54880D01*
G02X6612440Y1772240I38387J-24873D01*
G02X6655000Y1783840I42551J-72242D01*
G01X6709360D01*
G02X6748400Y1805740I39040J-23847D01*
G01X6907760D01*
Y1836190D01*
G02X6742360Y1924260I82244J353808D01*
G01X6429880D01*
X6428930Y1924080D01*
G02X6420320Y1923260I-8622J44919D01*
G01X6270320D01*
G02X6261710Y1924080I12J45739D01*
G01X6260760Y1924260D01*
X6235740D01*
Y1484260D01*
X5931050D01*
X5884260Y1531050D01*
Y1923260D01*
X5730320D01*
G02X5694500Y1940560I0J45733D01*
G01X5606000D01*
G02X5587070Y1943710I-2J58440D01*
G01X5585470Y1944260D01*
X5560000D01*
G02X5537400Y1950230I-5J45741D01*
G01X5535070Y1951560D01*
X5526090D01*
X5523080Y1948420D01*
G02X5490000Y1934260I-33087J31577D01*
G01X5350000D01*
G02X5314180Y1951560I0J45733D01*
G01X4760000D01*
G02X4718680Y1968680I6J58438D01*
G01X4678680Y2008680D01*
G02X4661560Y2050000I41318J41326D01*
G01Y2935790D01*
X4635790Y2961560D01*
X4035400D01*
G02X3994080Y2978680I6J58438D01*
G01X3968680Y3004080D01*
G02X3955880Y3023360I41321J41322D01*
G03X3929180Y3034420I-18817J-7669D01*
G02X3901600Y3028860I-27571J65582D01*
G01X2590000D01*
G02X2539700Y3049700I0J71123D01*
G01X2469700Y3119700D01*
G02X2448860Y3170000I50297J50306D01*
G01Y4540530D01*
X2400530Y4588860D01*
X2055740D01*
Y3754260D01*
X1940900D01*
Y3715740D01*
X2000000D01*
G02X2028640Y3705660I0J-45727D01*
G03X2041360I6360J7927D01*
G02X2070000Y3715740I28640J-35647D01*
G01X2120000D01*
G02X2165740Y3670000I0J-45740D01*
G01Y3647380D01*
X2187220Y3625900D01*
X2250000D01*
G02X2289530Y3609530I0J-55913D01*
G01X2329530Y3569530D01*
G02X2345900Y3530000I-39543J-39530D01*
G01Y3190000D01*
G02X2329530Y3150470I-55913J0D01*
G01X2279530Y3100470D01*
G02X2240000Y3084100I-39530J39543D01*
G01X2076740D01*
Y3065000D01*
G02X2031000Y3019260I-45740J0D01*
G01X1844000D01*
G02X1798260Y3065000I0J45740D01*
G01Y3215000D01*
G02X1818100Y3252700I45739J0D01*
G01Y3321560D01*
X1817400Y3323340D01*
G02X1814260Y3340000I42601J16655D01*
G01Y3400000D01*
G02X1825470Y3430000I45748J0D01*
G02X1814260Y3460000I34538J30000D01*
G01Y3520000D01*
G02X1826510Y3551160I45742J5D01*
G03Y3578840I-14872J13840D01*
G02X1814260Y3610000I33492J31155D01*
G01Y3670000D01*
G02X1829100Y3703720I45730J0D01*
G01Y3754260D01*
X1801050D01*
X1797340Y3757970D01*
G03X1780000Y3750790I-7181J-7186D01*
G01Y3330000D01*
X1475740D01*
Y3288950D01*
X1498950Y3265740D01*
X1695740D01*
Y3014260D01*
X1428950D01*
X1358950Y2944260D01*
X1104260D01*
Y3141050D01*
X1024260Y3221050D01*
Y3330000D01*
X720000D01*
Y4560000D01*
X1024260D01*
Y4635740D01*
X1350520D01*
G03X1364890Y4670430I0J20321D01*
G01X1354260Y4681050D01*
Y5265740D01*
X1403870D01*
X1405810Y5273410D01*
G02X1413260Y5290340I54185J-13740D01*
G03X1408180Y5317950I-16991J11146D01*
G02X1389260Y5355000I26816J37050D01*
G01Y5385130D01*
X1364700Y5409700D01*
G02X1343860Y5460000I50297J50306D01*
G01Y5658860D01*
X1330000D01*
G02Y5801140I0J71140D01*
G01X1363520D01*
X1366110Y5807430D01*
G02X1382790Y5827900I42290J-17429D01*
G01X1387260Y5830920D01*
Y5859450D01*
X1386120Y5861660D01*
G02X1376760Y5900000I73878J38348D01*
G02X1543240I83240J0D01*
G02X1531030Y5856600I-83237J0D01*
G01X1529540Y5854160D01*
Y5830920D01*
X1534010Y5827900D01*
G02X1554140Y5790000I-25613J-37900D01*
G01Y5670000D01*
G02X1550250Y5651550I-45738J8D01*
G03X1554180Y5638830I9298J-4094D01*
G02X1560000Y5634530I-24186J-38824D01*
G02X1590000Y5645740I30000J-34538D01*
G01X1640000D01*
G02X1685740Y5600000I0J-45740D01*
G01Y5578310D01*
X1694530Y5569530D01*
G02X1710900Y5530000I-39543J-39530D01*
G01Y5502700D01*
G02X1730740Y5465000I-25899J-37700D01*
G01Y5355000D01*
G02X1707890Y5315400I-45739J0D01*
G03X1701250Y5286400I10173J-17589D01*
G02X1710900Y5255000I-46261J-31400D01*
G01Y5242700D01*
G02X1730740Y5205000I-25899J-37700D01*
G01Y5095000D01*
G02X1685000Y5049260I-45740J0D01*
G01X1625000D01*
G02X1579260Y5095000I0J45740D01*
G01Y5205000D01*
G02X1579850Y5212320I45740J-3D01*
G01X1579980Y5213120D01*
Y5224100D01*
X1555740D01*
Y4848950D01*
X1558950Y4845740D01*
X1834260D01*
Y5265740D01*
X1895940D01*
X1898580Y5271920D01*
G02X1910470Y5289530I51430J-21906D01*
G01X1922620Y5301670D01*
X1913670Y5310620D01*
X1911290Y5311360D01*
G02X1879260Y5355000I13714J43640D01*
G01Y5385130D01*
X1854700Y5409700D01*
G02X1833860Y5460000I50297J50306D01*
G01Y5686600D01*
G02X1844260Y5723630I71139J-4D01*
G01Y5771050D01*
X1764260Y5851050D01*
Y6098950D01*
X1821050Y6155740D01*
X2058950D01*
X2115740Y6098950D01*
Y5851050D01*
X2045740Y5781050D01*
Y5664570D01*
G03X2070350Y5644710I20320J2D01*
G02X2080000Y5645740I9652J-44710D01*
G01X2130000D01*
G02X2175740Y5600000I0J-45740D01*
G01Y5578310D01*
X2184530Y5569530D01*
G02X2200900Y5530000I-39543J-39530D01*
G01Y5502700D01*
G02X2220740Y5465000I-25899J-37700D01*
G01Y5355000D01*
G02X2182080Y5309810I-45741J0D01*
G01X2178810Y5309300D01*
X2169280Y5299770D01*
X2184530Y5284530D01*
G02X2200900Y5245000I-39543J-39530D01*
G02X2200850Y5242730I-55898J96D01*
G02X2220740Y5205000I-25841J-37730D01*
G01Y5095000D01*
G02X2175000Y5049260I-45740J0D01*
G01X2115000D01*
G02X2088040Y5058050I0J45740D01*
G03X2055740Y5041640I-11980J-16412D01*
G01Y4731140D01*
X2430000D01*
G02X2480300Y4710300I0J-71123D01*
G01X2570300Y4620300D01*
G02X2591140Y4570000I-50297J-50306D01*
G01Y3199470D01*
X2619470Y3171140D01*
X3805860D01*
Y3280000D01*
G02X3806530Y3287810I45741J10D01*
G03X3786510Y3311600I-20020J3471D01*
G01X3662500D01*
G02X3622970Y3327970I0J55913D01*
G01X3560470Y3390470D01*
G02X3544100Y3430000I39543J39530D01*
G01Y3745500D01*
G03X3516780Y3764570I-20318J-3D01*
G02X3470000Y3756260I-46765J127433D01*
G02X3334260Y3892000I0J135740D01*
G02X3391110Y4002460I135737J0D01*
G03Y4035540I-11805J16540D01*
G02Y4256460I78887J110460D01*
G03Y4289540I-11805J16540D01*
G02Y4510460I78887J110460D01*
G03Y4543540I-11805J16540D01*
G02X3346300Y4598100I78883J110468D01*
G01X2816000D01*
G02X2776470Y4614470I0J55913D01*
G01X2710470Y4680470D01*
G02X2694100Y4720000I39543J39530D01*
G01Y8440000D01*
G02X2710470Y8479530I55913J0D01*
G01X2760470Y8529530D01*
G02X2800000Y8545900I39530J-39543D01*
G01X3268960D01*
G03X3276150Y8563240I4J10159D01*
G01X3269700Y8569700D01*
G02X3248860Y8620000I50297J50306D01*
G02X3320000Y8691140I71140J0D01*
G02X3370300Y8670300I-6J-71137D01*
G01X3384470Y8656140D01*
X3410000D01*
G02X3417050Y8655790I2J-71140D01*
G01X3417550Y8655740D01*
X3440000D01*
G02X3470000Y8644530I0J-45748D01*
G02X3500000Y8655740I30000J-34538D01*
G01X3544100D01*
Y8716000D01*
G02X3528860Y8760000I55897J44000D01*
G02X3600000Y8831140I71140J0D01*
G02X3636100Y8821300I0J-71140D01*
G02X3670800Y8830340I34705J-62099D01*
G02X3678560Y8829920I41J-71142D01*
G03X3700600Y8845640I2221J20196D01*
G02X3703890Y8856280I69402J-15631D01*
G03X3685010Y8884100I-18884J7501D01*
G01X2643150D01*
X2625900Y8866850D01*
Y8540000D01*
G02X2609530Y8500470I-55913J0D01*
G01X2549530Y8440470D01*
G02X2510000Y8424100I-39530J39543D01*
G01X2367700D01*
G02X2330000Y8404260I-37700J25899D01*
G01X2190000D01*
G02X2144260Y8450000I0J45740D01*
G01Y8471690D01*
X2140820Y8475130D01*
G03X2107550Y8468210I-14366J-14371D01*
G02X2065000Y8439260I-42550J16794D01*
G01X1945000D01*
G02X1899260Y8485000I0J45740D01*
G01Y8504070D01*
G02X1894080Y8508680I36193J45883D01*
G01X1858680Y8544080D01*
G02X1841560Y8585400I41318J41326D01*
G01Y8664600D01*
G02X1858680Y8705920I58438J-6D01*
G01X1894080Y8741320D01*
G02X1929920Y8758180I41323J-41320D01*
G02X1945000Y8760740I15087J-43179D01*
G01X2028100D01*
G02X2070000Y8778440I41900J-40744D01*
G01X2143860D01*
Y8815000D01*
G02X2286140I71140J0D01*
G01Y8720000D01*
G02X2285790Y8712950I-71140J-2D01*
G01X2285740Y8712450D01*
Y8690000D01*
G02X2285620Y8686650I-45741J-39D01*
G01X2285590Y8686270D01*
Y8675740D01*
X2330000D01*
G02X2367700Y8655900I0J-45739D01*
G01X2446850D01*
X2454100Y8663150D01*
Y8920000D01*
G02X2470470Y8959530I55913J0D01*
G01X2550470Y9039530D01*
G02X2590000Y9055900I39530J-39543D01*
G01X3615040D01*
G03X3635020Y9079890I-5J20319D01*
G02X3634100Y9090000I54981J10100D01*
G01Y9151330D01*
X3623210D01*
X3622500Y9151220D01*
G02X3616000Y9150760I-6471J45282D01*
G01X3516000D01*
G02X3470260Y9196500I0J45740D01*
G02X3470280Y9197700I45737J-162D01*
G02X3450470Y9210470I19701J52312D01*
G01X3420470Y9240470D01*
G02X3404100Y9280000I39543J39530D01*
G01Y9430000D01*
G02X3420470Y9469530I55913J0D01*
G01X3450470Y9499530D01*
G37*
G36*
G01X882590Y9837270D02*
G02X878860Y9860000I67410J22733D01*
G02X950000Y9931140I71140J0D01*
G02X1000000Y9910610I0J-71152D01*
G02X1050000Y9931140I50000J-50622D01*
G02X1121140Y9860000I0J-71140D01*
G02X1117410Y9837270I-71140J3D01*
G02X1130740Y9805000I-32408J-32275D01*
G01Y9715000D01*
G02X1118490Y9683840I-45742J-5D01*
G03Y9656160I14872J-13840D01*
G02X1130740Y9625000I-33492J-31155D01*
G01Y9535000D01*
G02X1121640Y9507630I-45737J9D01*
G03X1123180Y9481480I16282J-12161D01*
G02X1135740Y9450000I-33170J-31480D01*
G01Y9406140D01*
X1155000D01*
G02X1199290Y9390670I0J-71135D01*
G03X1232260Y9406570I12650J15902D01*
G01Y9449000D01*
G02X1328000Y9544740I95740J0D01*
G02X1415870Y9487000I0J-95731D01*
G03X1446810Y9478880I18652J8066D01*
G02X1471000Y9487020I24190J-31873D01*
G02X1499700Y9474890I0J-40018D01*
G03X1514180Y9474780I7294J7075D01*
G01X1550500Y9511100D01*
G02X1600800Y9531940I50300J-50283D01*
G01X1929200D01*
G02X1979500Y9511100I0J-71123D01*
G01X2011110Y9479500D01*
G03X2024510Y9478650I7183J7185D01*
G02X2049000Y9487020I24490J-31643D01*
G02X2073190Y9478880I0J-40013D01*
G03X2104130Y9487000I12288J16186D01*
G02X2192000Y9544740I87870J-37991D01*
G02X2287740Y9449000I0J-95740D01*
G01Y9339000D01*
G02X2096260I-95740J0D01*
G01Y9413210D01*
X2078590Y9420050D01*
G02X2067760Y9411650I-29581J26957D01*
G02X2071140Y9390000I-67757J-21667D01*
G01Y9370100D01*
X2071980Y9368170D01*
G02X2075740Y9350000I-41982J-18162D01*
G01Y9230000D01*
G02X2073200Y9214970I-45739J0D01*
G02X2079530Y9209530I-33168J-44997D01*
G01X2119530Y9169530D01*
G02X2135900Y9130000I-39543J-39530D01*
G01Y9107700D01*
G02X2155740Y9070000I-25899J-37700D01*
G01Y9020000D01*
G02X2110000Y8974260I-45740J0D01*
G01X2050000D01*
G02X2004260Y9020000I0J45740D01*
G01Y9070000D01*
G02X2007330Y9086470I45739J-5D01*
G03X1988370Y9114100I-18960J7310D01*
G01X1950740D01*
Y9065000D01*
G02X1905000Y9019260I-45740J0D01*
G01X1836220D01*
Y8730320D01*
G02X1819850Y8690790I-55913J0D01*
G01X1744210Y8615150D01*
G02X1704680Y8598780I-39530J39543D01*
G01X1635970D01*
X1634170Y8598060D01*
G02X1632700Y8597500I-20633J51953D01*
G03X1619790Y8574290I6984J-19080D01*
G02X1620740Y8565000I-44792J-9274D01*
G01Y8535000D01*
G02X1619630Y8525000I-45738J15D01*
G02X1620740Y8515000I-44628J-10015D01*
G01Y8485000D01*
G02X1575000Y8439260I-45740J0D01*
G01X1455000D01*
G02X1409260Y8485000I0J45740D01*
G01Y8515000D01*
G02X1410370Y8525000I45738J-15D01*
G02X1409260Y8535000I44628J10015D01*
G01Y8565000D01*
G02X1419340Y8593640I45727J0D01*
G03Y8606360I-7927J6360D01*
G02X1409260Y8635000I35647J28640D01*
G01Y8665000D01*
G02X1410370Y8675000I45738J-15D01*
G02X1409260Y8685000I44628J10015D01*
G01Y8715000D01*
G02X1415590Y8738220I45753J0D01*
G03X1398090Y8768860I-17503J10321D01*
G01X1370000D01*
G02X1319700Y8789700I0J71123D01*
G01X1269700Y8839700D01*
G02X1248860Y8890000I50297J50306D01*
G01Y9110000D01*
G02X1269700Y9160300I71137J-6D01*
G01X1319700Y9210300D01*
G02X1320030Y9210630I50466J-50136D01*
G03X1309650Y9245040I-14275J14464D01*
G02X1245560Y9290320I18346J93964D01*
G03X1211830Y9292210I-17497J-10333D01*
G02X1155000Y9263860I-56830J42785D01*
G01X940000D01*
G02X932950Y9264210I-2J71140D01*
G01X932450Y9264260D01*
X910000D01*
G02X864260Y9310000I0J45740D01*
G01Y9360000D01*
G02X868860Y9380000I45742J8D01*
G02X864260Y9400000I41142J19992D01*
G01Y9450000D01*
G02X876820Y9481480I45730J0D01*
G03X878360Y9507630I-14742J13989D01*
G02X869260Y9535000I36637J27379D01*
G01Y9625000D01*
G02X881510Y9656160I45742J5D01*
G03Y9683840I-14872J13840D01*
G02X869260Y9715000I33492J31155D01*
G01Y9805000D01*
G02X882590Y9837270I45738J-5D01*
G37*
G54D59*
X150000Y7665000D03*
Y8635000D03*
G54D60*
X3201000Y960000D03*
G54D62*
X5690000Y460000D03*
G54D61*
X1200000Y6950000D03*
Y6700000D03*
Y6450000D03*
G54D58*
X2192000Y9812000D03*
X1328000D03*
%LPD*%
G75*
G36*
G01X1430000Y3550000D02*
Y3270000D01*
X1480000Y3220000D01*
X1650000D01*
Y3060000D01*
X1410000D01*
X1340000Y2990000D01*
X1150000D01*
Y3160000D01*
X1070000Y3240000D01*
Y3550000D01*
X1430000D01*
G37*
G36*
G01X1880000Y5220000D02*
X1974470D01*
Y5209400D01*
X1974430Y5208960D01*
G03X1974260Y5205040I45571J-3940D01*
G01Y5095000D01*
G03X1979070Y5074590I45738J7D01*
G03X1999700Y5029700I70931J5412D01*
G01X2010000Y5019390D01*
Y3800000D01*
X1820000D01*
X1790000Y3830000D01*
Y4290000D01*
X1750000Y4330000D01*
X1070000D01*
Y4590000D01*
X1860000D01*
X1880000Y4610000D01*
Y4650000D01*
X1860000Y4670000D01*
X1430000D01*
X1400000Y4700000D01*
Y5220000D01*
X1484470D01*
Y5209400D01*
X1484430Y5208960D01*
G03X1484260Y5205040I45571J-3940D01*
G01Y5095000D01*
G03X1488020Y5076830I45741J-9D01*
G01X1488860Y5074900D01*
Y5070000D01*
G03X1510000Y5019390I71151J0D01*
G01Y4830000D01*
X1540000Y4800000D01*
X1589320D01*
X1591440Y4798960D01*
G03X1611600Y4794260I20194J41034D01*
G01X1711600D01*
G03X1731760Y4798960I-34J45734D01*
G01X1733880Y4800000D01*
X1870000D01*
X1880000Y4810000D01*
Y5220000D01*
G37*
G36*
G01X1564530Y9005470D02*
X1587070Y9028010D01*
X1593690Y9024530D01*
G03X1615000Y9019260I21315J40469D01*
G01X1683780D01*
Y8980740D01*
X1615000D01*
G03X1569260Y8935000I0J-45740D01*
G01Y8919870D01*
X1560530Y8911140D01*
X1399470D01*
X1391140Y8919470D01*
Y8974260D01*
X1460000D01*
G03X1493720Y8989100I0J45730D01*
G01X1525000D01*
G03X1564530Y9005470I0J55913D01*
G37*
G36*
G01X1423740Y9339000D02*
Y9413210D01*
X1441410Y9420050D01*
G03X1448510Y9413900I29571J26966D01*
G02X1452450Y9402310I-5709J-8405D01*
G03X1448860Y9380000I67549J-22314D01*
G01Y9370100D01*
X1448020Y9368170D01*
G03X1444260Y9350000I41982J-18162D01*
G01Y9231140D01*
X1370000D01*
G03X1368980Y9231130I187J-71138D01*
G02X1364920Y9250670I-147J10161D01*
G03X1423740Y9339000I-36913J88330D01*
G37*
G36*
G01X1659240Y1520000D02*
X2450000D01*
X2560000Y1410000D01*
Y1104430D01*
G02X2528060Y1087760I-20320J0D01*
G03X2439000Y1115740I-89060J-127748D01*
G03X2360550Y1094540I0J-155751D01*
G02X2330000Y1112090I-10231J17556D01*
G01Y1250000D01*
X2270000Y1310000D01*
X2021330D01*
G03X1775070I-123130J-77971D01*
G01X1662770D01*
G02X1645080Y1340320I-3J20319D01*
G03X1663940Y1412030I-126881J71705D01*
G03X1641980Y1488960I-145730J0D01*
G02X1659240Y1520000I17263J10720D01*
G37*
G36*
G01X1630000Y2440000D02*
X1710000Y2520000D01*
Y2680000D01*
X1790000D01*
Y2430000D01*
X1840000Y2380000D01*
Y2170000D01*
X1890000Y2120000D01*
X2070000D01*
Y1920000D01*
X2100000Y1890000D01*
X4330000D01*
X4410000Y1810000D01*
Y1300000D01*
X4450000Y1260000D01*
X6010000D01*
X6080000Y1190000D01*
Y830000D01*
X6020000Y770000D01*
X3760000D01*
X3690000Y840000D01*
Y1610000D01*
X3630000Y1670000D01*
X1630000D01*
Y2440000D01*
G37*
G36*
G01X2165740Y3514100D02*
X2226850D01*
X2234100Y3506850D01*
Y3213150D01*
X2216850Y3195900D01*
X2076740D01*
Y3215000D01*
G03X2031000Y3260740I-45740J0D01*
G01X1929900D01*
Y3298440D01*
X1934600Y3301440D01*
G03X1955740Y3340000I-24597J38560D01*
G01Y3400000D01*
G03X1955620Y3403350I-45741J39D01*
G01X1955590Y3403730D01*
Y3414260D01*
X2000000D01*
G03X2028640Y3424340I0J45727D01*
G02X2041360I6360J-7927D01*
G03X2070000Y3414260I28640J35647D01*
G01X2120000D01*
G03X2165740Y3460000I0J45740D01*
G01Y3514100D01*
G37*
G36*
G01X1890000Y5660000D02*
Y5790000D01*
X1810000Y5870000D01*
Y6080000D01*
X1840000Y6110000D01*
X2040000D01*
X2070000Y6080000D01*
Y5870000D01*
X2000000Y5800000D01*
Y5660000D01*
X1890000D01*
G37*
G36*
G01X2823150Y8434100D02*
X3266850D01*
X3289100Y8411850D01*
Y8295000D01*
G03X3305470Y8255470I55913J0D01*
G01X3365470Y8195470D01*
G03X3374260Y8188310I39518J39539D01*
G01Y8172500D01*
G03X3376000Y8160000I45741J-4D01*
G03X3374350Y8150410I43998J-12507D01*
G01X3373750Y8140900D01*
X3228150D01*
X3225900Y8143150D01*
Y8229680D01*
G03X3209530Y8269210I-55913J0D01*
G01X3175860Y8302870D01*
X3175700Y8306840D01*
G03X3130000Y8350740I-45700J-1837D01*
G01X2930000D01*
G03X2884260Y8305000I0J-45740D01*
G01Y8255000D01*
G03X2930000Y8209260I45740J0D01*
G01X3111370D01*
X3114100Y8206530D01*
Y8110740D01*
X2930000D01*
G03X2884260Y8065000I0J-45740D01*
G01Y8015000D01*
G03X2930000Y7969260I45740J0D01*
G01X2990620D01*
G02X3008880Y7940040I-5J-20319D01*
G03X3004260Y7920000I41122J-20033D01*
G01Y7860000D01*
G03X3013600Y7832300I45745J0D01*
G02Y7807700I-16173J-12300D01*
G03X3004260Y7780000I36405J-27700D01*
G01Y7720000D01*
G03X3015470Y7690000I45748J0D01*
G03X3004260Y7660000I34538J-30000D01*
G01Y7600000D01*
G03X3004380Y7596650I45741J-39D01*
G01X3004410Y7596270D01*
Y7585740D01*
X2960000D01*
G03X2914260Y7540000I0J-45740D01*
G01Y7480000D01*
G03X2926560Y7448790I45746J0D01*
G01Y5820570D01*
G03X2913860Y5780000I58450J-40570D01*
G03X3056140I71140J0D01*
G03X3043440Y5820570I-71150J0D01*
G01Y7434260D01*
X3100000D01*
G03X3145740Y7480000I0J45740D01*
G01Y7540000D01*
G03X3134530Y7570000I-45748J0D01*
G03X3145740Y7600000I-34538J30000D01*
G01Y7660000D01*
G03X3144730Y7669540I-45738J-19D01*
G02X3164610Y7694100I19874J4239D01*
G01X3220000D01*
G03X3222770Y7694170I-27J55899D01*
G02X3244100Y7673870I1010J-20295D01*
G01Y6240000D01*
G03X3260470Y6200470I55913J0D01*
G01X3450470Y6010470D01*
G03X3490000Y5994100I39530J39543D01*
G01X5246000D01*
G03X5290000Y5978860I44000J55897D01*
G03Y6121140I0J71140D01*
G03X5246000Y6105900I0J-71137D01*
G01X5061380D01*
G02X5041080Y6127060I2J20319D01*
G03X5041140Y6130000I-71080J2921D01*
G03X5041080Y6132940I-71140J19D01*
G02X5061380Y6154100I20302J841D01*
G01X7586850D01*
X7624100Y6116850D01*
Y5905740D01*
X7590000D01*
G03X7544260Y5860000I0J-45740D01*
G01Y5680000D01*
G03X7590000Y5634260I45740J0D01*
G01X7624100D01*
Y5120740D01*
X7580000D01*
G03X7538710Y5094680I0J-45740D01*
G03X7510790Y5079530I11602J-54684D01*
G01X7490470Y5059210D01*
G03X7474100Y5019680I39543J-39530D01*
G01Y4720000D01*
G03X7490470Y4680470I55913J0D01*
G01X7530470Y4640470D01*
G03X7570000Y4624100I39530J39543D01*
G01X7572300D01*
G03X7610000Y4604260I37700J25899D01*
G01X7734100D01*
Y4275740D01*
X7550370D01*
X7335400Y4490710D01*
X7335740Y4491050D01*
Y4518600D01*
X7336220Y4520100D01*
G03X7353240Y4630000I-346222J109887D01*
G03X7335740Y4741390I-363240J3D01*
G01Y5078950D01*
X7218950Y5195740D01*
X6298620D01*
G02X6282390Y5228290I-2J20320D01*
G03X6309740Y5310000I-108382J81710D01*
G03X6174000Y5445740I-135740J0D01*
G03X6083900Y5411530I-5J-135742D01*
G02X6051830Y5418500I-13490J15195D01*
G03X6010000Y5445740I-41830J-18497D01*
G01X5830000D01*
G03X5784260Y5400000I0J-45740D01*
G01Y5220000D01*
G03X5784930Y5212220I45738J20D01*
G02X5764900Y5188440I-20024J-3459D01*
G01X4690000D01*
G03X4648680Y5171320I6J-58438D01*
G01X4538680Y5061320D01*
G03X4521560Y5020000I41318J-41326D01*
G01Y4541450D01*
G02X4500960Y4521130I-20321J-1D01*
G03X4500000Y4521140I-1221J-71127D01*
G03X4428860Y4450000I0J-71140D01*
G03X4441560Y4409430I71150J0D01*
G01Y3295760D01*
G02X4409860Y3278930I-20318J1D01*
G03X4370000Y3291140I-39852J-58932D01*
G03X4298860Y3220000I0J-71140D01*
G03X4309290Y3182920I71127J0D01*
G01X4313450Y3176100D01*
X4303290Y3165940D01*
X4245740D01*
Y3190000D01*
G03X4231790Y3222890I-45747J0D01*
G02Y3252110I14119J14610D01*
G03X4245740Y3285000I-31797J32890D01*
G01Y3320000D01*
G03X4243210Y3335000I-45731J0D01*
G03X4245740Y3350000I-43201J15000D01*
G01Y3385000D01*
G03X4243210Y3400000I-45731J0D01*
G03X4245740Y3415000I-43201J15000D01*
G01Y3450000D01*
G03X4243210Y3465000I-45731J0D01*
G03X4245740Y3480000I-43201J15000D01*
G01Y3515000D01*
G03X4243210Y3530000I-45731J0D01*
G03X4245740Y3545000I-43201J15000D01*
G01Y3580000D01*
G03X4243210Y3595000I-45731J0D01*
G03X4245740Y3610000I-43201J15000D01*
G01Y3645000D01*
G03X4243210Y3660000I-45731J0D01*
G03X4245740Y3675000I-43201J15000D01*
G01Y3710000D01*
G03X4200000Y3755740I-45740J0D01*
G01X4060000D01*
G03X4037340Y3749730I4J-45739D01*
G01X4035000Y3748400D01*
X3895900D01*
Y5350000D01*
G03X3879530Y5389530I-55913J0D01*
G01X3813530Y5455530D01*
G03X3774000Y5471900I-39530J-39543D01*
G01X3593700D01*
G03X3571530Y5506100I-123698J-55901D01*
G02X3578500Y5538170I15195J13490D01*
G03X3605740Y5580000I-18497J41830D01*
G01Y5760000D01*
G03X3560000Y5805740I-45740J0D01*
G01X3380000D01*
G03X3334260Y5760000I0J-45740D01*
G01Y5580000D01*
G03X3361500Y5538170I45737J0D01*
G02X3368470Y5506100I-8225J-18580D01*
G03X3334260Y5416000I101532J-90095D01*
G03X3391110Y5305540I135737J0D01*
G02Y5272460I-11805J-16540D01*
G03Y5051540I78887J-110460D01*
G02Y5018460I-11805J-16540D01*
G03Y4797540I78887J-110460D01*
G02Y4764460I-11805J-16540D01*
G03X3346300Y4709900I78883J-110468D01*
G01X2839150D01*
X2805900Y4743150D01*
Y8416850D01*
X2823150Y8434100D01*
G37*
G36*
G01X3546530Y8274260D02*
X4073470D01*
X4074780Y8265630D01*
G03X4076000Y8260000I45224J6853D01*
G03X4074260Y8247500I44001J-12496D01*
G01Y8222500D01*
G03X4076000Y8210000I45741J-4D01*
G03X4074260Y8197500I44001J-12496D01*
G01Y8172500D01*
G03X4076000Y8160000I45741J-4D01*
G03X4074260Y8147500I44001J-12496D01*
G01Y8122500D01*
G03X4076000Y8110000I45741J-4D01*
G03X4074260Y8097500I44001J-12496D01*
G01Y8072500D01*
G03X4076000Y8060000I45741J-4D01*
G03X4074260Y8047500I44001J-12496D01*
G01Y8022500D01*
G03X4076000Y8010000I45741J-4D01*
G03X4074260Y7997500I44001J-12496D01*
G01Y7972500D01*
G03X4076000Y7960000I45741J-4D01*
G03X4074260Y7947500I44001J-12496D01*
G01Y7922500D01*
G03X4076000Y7910000I45741J-4D01*
G03X4074260Y7897500I44001J-12496D01*
G01Y7872500D01*
G03X4076000Y7860000I45741J-4D01*
G03X4074260Y7847500I44001J-12496D01*
G01Y7822500D01*
G03X4076000Y7810000I45741J-4D01*
G03X4074260Y7797500I44001J-12496D01*
G01Y7772500D01*
G03X4076000Y7760000I45741J-4D01*
G03X4074780Y7754370I44004J-12483D01*
G01X4073470Y7745740D01*
X3546530D01*
X3545220Y7754370D01*
G03X3544000Y7760000I-45224J-6853D01*
G03X3545740Y7772500I-44001J12496D01*
G01Y7797500D01*
G03X3544000Y7810000I-45741J4D01*
G03X3545740Y7822500I-44001J12496D01*
G01Y7847500D01*
G03X3544000Y7860000I-45741J4D01*
G03X3545740Y7872500I-44001J12496D01*
G01Y7897500D01*
G03X3544000Y7910000I-45741J4D01*
G03X3545740Y7922500I-44001J12496D01*
G01Y7947500D01*
G03X3544000Y7960000I-45741J4D01*
G03X3545740Y7972500I-44001J12496D01*
G01Y7997500D01*
G03X3544000Y8010000I-45741J4D01*
G03X3545740Y8022500I-44001J12496D01*
G01Y8047500D01*
G03X3544000Y8060000I-45741J4D01*
G03X3545740Y8072500I-44001J12496D01*
G01Y8097500D01*
G03X3544000Y8110000I-45741J4D01*
G03X3545740Y8122500I-44001J12496D01*
G01Y8147500D01*
G03X3544000Y8160000I-45741J4D01*
G03X3545740Y8172500I-44001J12496D01*
G01Y8197500D01*
G03X3544000Y8210000I-45741J4D01*
G03X3545740Y8222500I-44001J12496D01*
G01Y8247500D01*
G03X3544000Y8260000I-45741J4D01*
G03X3545220Y8265630I-44004J12483D01*
G01X3546530Y8274260D01*
G37*
G36*
G01X4189600Y9404100D02*
X4286850D01*
X4313220Y9377730D01*
Y8362270D01*
X4291850Y8340900D01*
X4280580D01*
G02X4261760Y8368890I-3J20320D01*
G03X4265900Y8390000I-51750J21110D01*
G01Y8970000D01*
G03X4249530Y9009530I-55913J0D01*
G01X4169530Y9089530D01*
G03X4130000Y9105900I-39530J-39543D01*
G01X3753150D01*
X3745900Y9113150D01*
Y9166700D01*
G03X3756500Y9174850I-52914J79789D01*
G03X3883500I63500J71646D01*
G03X4010500I63500J71646D01*
G03X4074000Y9150760I63500J71646D01*
G03X4169740Y9246500I0J95740D01*
G03X4145650Y9310000I-95736J0D01*
G03X4169740Y9373500I-71646J63500D01*
G03X4169360Y9381980I-95738J-42D01*
G02X4189600Y9404100I20241J1799D01*
G37*
G36*
G01X3890900Y7344260D02*
X3902450D01*
X3902950Y7344210D01*
G03X3910000Y7343860I7048J70790D01*
G01X3953470D01*
X3954720Y7335140D01*
G03X3971440Y7305870I45282J6456D01*
G02Y7274130I-12687J-15870D01*
G03X3954260Y7238400I28565J-35730D01*
G01Y7138400D01*
G03X3988970Y7094010I45740J0D01*
G03X3988860Y7090000I71032J-3955D01*
G03X4131140I71140J0D01*
G03X4131030Y7094010I-71142J55D01*
G03X4160050Y7116310I-11032J44389D01*
G01X4162950Y7121560D01*
X4250000D01*
G03X4275070Y7127210I0J58445D01*
G02X4304100Y7108850I8710J-18358D01*
G01Y6870000D01*
G03X4320470Y6830470I55913J0D01*
G01X4350360Y6800590D01*
G02X4335990Y6765900I-14369J-14369D01*
G01X3904580D01*
X3890900Y6779580D01*
Y7344260D01*
G37*
G36*
G01X4148560Y7305870D02*
G03X4165350Y7335620I-28559J35731D01*
G02X4176250Y7344410I10070J-1334D01*
G03X4180000Y7344260I3702J45592D01*
G01X4213090D01*
X4231560Y7325790D01*
Y7244210D01*
X4225790Y7238440D01*
X4166510D01*
X4164970Y7246750D01*
G03X4148560Y7274130I-44972J-8346D01*
G02Y7305870I12687J15870D01*
G37*
G36*
G01X3983720Y8994100D02*
X4106850D01*
X4129830Y8971120D01*
X4119380Y8960670D01*
X4114780Y8960980D01*
G03X4110000Y8961140I-4769J-70980D01*
G03X4038860Y8890000I0J-71140D01*
G01Y8720100D01*
X4038020Y8718170D01*
G03X4034260Y8700000I41982J-18162D01*
G01Y8665750D01*
G02X4023350Y8655620I-10159J1D01*
G03X4020000Y8655740I-3311J-45621D01*
G01X3960000D01*
G03X3952680Y8655150I3J-45740D01*
G01X3951880Y8655020D01*
X3940900D01*
Y8826670D01*
G03X3979640Y8890000I-32394J63330D01*
G03X3964400Y8934000I-71137J0D01*
G01Y8961500D01*
G03X3963670Y8970510I-55900J5D01*
G02X3983720Y8994100I20054J3271D01*
G37*
G36*
G01X4425020Y8406700D02*
Y8562130D01*
G02X4459530Y8576670I20320J-3D01*
G03X4509200Y8556460I49670J50932D01*
G03X4553200Y8571700I0J71137D01*
G01X5319540D01*
X5400760Y8490470D01*
G03X5440290Y8474100I39530J39543D01*
G01X8426850D01*
X8524100Y8376850D01*
Y5913310D01*
G02X8495740Y5894650I-20319J1D01*
G03X8442000Y5905740I-53740J-124662D01*
G03X8331540Y5848890I0J-135737D01*
G02X8298460I-16540J11805D01*
G03X8243900Y5893700I-110468J-78883D01*
G01Y6672000D01*
G03X8227530Y6711530I-55913J0D01*
G01X8109530Y6829530D01*
G03X8070000Y6845900I-39530J-39543D01*
G01X4463150D01*
X4415900Y6893150D01*
Y7393710D01*
G02X4425930Y7403870I10161J0D01*
G03X4496140Y7475000I-926J71130D01*
G03X4488990Y7506080I-71139J-3D01*
G03X4495740Y7530000I-38991J23915D01*
G01Y7590000D01*
G03X4484530Y7620000I-45748J0D01*
G03X4495740Y7650000I-34538J30000D01*
G01Y7710000D01*
G03X4484530Y7740000I-45748J0D01*
G03X4495740Y7770000I-34538J30000D01*
G01Y7806690D01*
X4513150Y7824100D01*
X5866000D01*
G03X5910000Y7808860I44000J55897D01*
G03Y7951140I0J71140D01*
G03X5866000Y7935900I0J-71137D01*
G01X4760800D01*
G02X4745070Y7969080I0J20319D01*
G03X4761140Y8014120I-55083J45040D01*
G03X4740290Y8064430I-71137J-6D01*
G02Y8078810I7185J7190D01*
G03X4761140Y8129120I-50287J50316D01*
G03X4710060Y8197370I-71136J0D01*
G03X4640000Y8256140I-70060J-12374D01*
G03X4596000Y8240900I0J-71137D01*
G01X4496140D01*
Y8335000D01*
G03X4433910Y8405580I-71140J0D01*
G01X4425020Y8406700D01*
G37*
G36*
G01X4784210Y2068440D02*
X4778440Y2074210D01*
Y2277390D01*
G02X4804590Y2296850I20319J-5D01*
G03X4825000Y2293860I20408J68150D01*
G03X4826380Y2293870I175J71141D01*
G03X4842100Y2265260I57038J12716D01*
G01X4878680Y2228680D01*
G03X4920000Y2211560I41326J41318D01*
G01X5144260D01*
Y2170000D01*
G03X5144380Y2166650I45741J-39D01*
G01X5144410Y2166270D01*
Y2155740D01*
X5100000D01*
G03X5081830Y2151980I-8J-45742D01*
G01X5079900Y2151140D01*
X5040000D01*
G03X4968860Y2080000I0J-71140D01*
G03X4968870Y2078770I71140J-37D01*
G01Y2068440D01*
X4784210D01*
G37*
G36*
G01X5490000Y3144260D02*
G03X5523650Y3159020I0J45738D01*
G02X5536370Y3160840I7475J-6883D01*
G03X5560000Y3154260I23635J39159D01*
G01X5585470D01*
X5587070Y3153710D01*
G03X5606000Y3150560I18928J55290D01*
G01X5694500D01*
G03X5730320Y3133260I35820J28433D01*
G01X5884260D01*
Y2741050D01*
X5914890Y2710430D01*
G02X5900520Y2675740I-14370J-14369D01*
G01X5768400D01*
G03X5726110Y2647430I0J-45742D01*
G01X5723520Y2641140D01*
X5701470D01*
X5699800Y2649250D01*
G03X5655000Y2685740I-44800J-9256D01*
G01X5575000D01*
G03X5529260Y2640000I0J-45740D01*
G01Y2541910D01*
X5505790Y2518440D01*
X5350740D01*
Y2640000D01*
G03X5305000Y2685740I-45740J0D01*
G01X5225000D01*
G03X5180200Y2649250I0J-45746D01*
G01X5178530Y2641140D01*
X5120000D01*
G03X5048860Y2570000I0J-71140D01*
G03X5053140Y2545700I71139J3D01*
G02X5034040Y2518440I-19098J-6940D01*
G01X5024210D01*
X4998440Y2544210D01*
Y3154510D01*
X5003780Y3157390D01*
G03X5010570Y3161560I-33777J62611D01*
G01X5314180D01*
G03X5350000Y3144260I35820J28433D01*
G01X5490000D01*
G37*
G36*
G01X4956840Y3421560D02*
X5144260D01*
Y3380000D01*
G03X5144380Y3376650I45741J-39D01*
G01X5144410Y3376270D01*
Y3365740D01*
X5100000D01*
G03X5084110Y3362890I3J-45739D01*
G01X5082410Y3362260D01*
X5040000D01*
G03X4968860Y3291130I0J-71140D01*
G03X4919700Y3270310I1136J-71131D01*
G01X4905780Y3284230D01*
G02X4906790Y3313910I14369J14368D01*
G03X4931140Y3367500I-46796J53590D01*
G03X4928650Y3386150I-71139J-7D01*
G01X4927110Y3391830D01*
X4956840Y3421560D01*
G37*
G36*
G01X5526090Y4391560D02*
X5535070D01*
X5537400Y4390230D01*
G03X5560000Y4384260I22595J39771D01*
G01X5585470D01*
X5587070Y4383710D01*
G03X5606000Y4380560I18928J55290D01*
G01X5694500D01*
G03X5730320Y4363260I35820J28433D01*
G01X5884260D01*
Y3971050D01*
X5931050Y3924260D01*
X5940520D01*
G02X5954890Y3889570I0J-20321D01*
G01X5951050Y3885740D01*
X5768400D01*
G03X5726110Y3857430I0J-45742D01*
G01X5723520Y3851140D01*
X5701470D01*
X5699800Y3859250D01*
G03X5655000Y3895740I-44800J-9256D01*
G01X5575000D01*
G03X5529260Y3850000I0J-45740D01*
G01Y3751910D01*
X5495790Y3718440D01*
X5350740D01*
Y3850000D01*
G03X5305000Y3895740I-45740J0D01*
G01X5225000D01*
G03X5180200Y3859250I0J-45746D01*
G01X5178530Y3851140D01*
X5120000D01*
G03X5048860Y3780000I0J-71140D01*
G03X5056500Y3747920I71142J-7D01*
G02X5038370Y3718440I-18136J-9161D01*
G01X4940000D01*
G03X4898680Y3701320I6J-58438D01*
G01X4895780Y3698430D01*
G02X4878440Y3705610I-7181J7186D01*
G01Y4358550D01*
G02X4899040Y4378870I20321J1D01*
G03X4900000Y4378860I1221J71127D01*
G03X4940570Y4391560I0J71150D01*
G01X5314180D01*
G03X5350000Y4374260I35820J28433D01*
G01X5490000D01*
G03X5523080Y4388420I-7J45737D01*
G01X5526090Y4391560D01*
G37*
G36*
G01X4944210Y4651560D02*
X5144260D01*
Y4610000D01*
G03X5144380Y4606650I45741J-39D01*
G01X5144410Y4606270D01*
Y4595740D01*
X5100000D01*
G03X5081830Y4591980I-8J-45742D01*
G01X5079900Y4591140D01*
X5040000D01*
G03X4968860Y4520000I0J-71140D01*
G03X4968870Y4518770I71140J-37D01*
G01Y4508440D01*
X4940670D01*
X4938180Y4510030D01*
G03X4900000Y4521140I-38175J-60031D01*
G03X4899040Y4521130I261J-71137D01*
G02X4878440Y4541450I-279J20319D01*
G01Y4585790D01*
X4944210Y4651560D01*
G37*
G36*
G01X5314990Y6474100D02*
X7816850D01*
X7878100Y6412850D01*
Y5893700D01*
G03X7843900Y5871530I55901J-123698D01*
G02X7811830Y5878500I-13490J15195D01*
G03X7770000Y5905740I-41830J-18497D01*
G01X7735900D01*
Y6140000D01*
G03X7719530Y6179530I-55913J0D01*
G01X7649530Y6249530D01*
G03X7610000Y6265900I-39530J-39543D01*
G01X5244990D01*
G02X5226110Y6293720I4J20319D01*
G03X5231140Y6320000I-66111J26275D01*
G03X5230630Y6328510I-71140J7D01*
G02X5246180Y6350720I20173J2425D01*
G03X5301140Y6420000I-16186J69280D01*
G03X5296110Y6446280I-71141J5D01*
G02X5314990Y6474100I18884J7501D01*
G37*
G36*
G01X6040000Y2710000D02*
X7190000D01*
X7280000Y2620000D01*
Y2462750D01*
G02X7245390Y2448300I-20320J-4D01*
G03X6990000Y2553240I-255390J-258298D01*
G03X6723280Y2436580I0J-363231D01*
G02X6693990Y2436010I-14919J13797D01*
G01X6650000Y2480000D01*
X6220000D01*
X6200000Y2460000D01*
Y2370000D01*
X6170000Y2340000D01*
X5720000D01*
Y2430000D01*
X5940000D01*
X5960000Y2450000D01*
Y2630000D01*
X6040000Y2710000D01*
G37*
G36*
G01X5730000Y2090000D02*
Y2160000D01*
X6160000D01*
X6190000Y2130000D01*
Y1530000D01*
X5950000D01*
X5930000Y1550000D01*
Y2070000D01*
X5910000Y2090000D01*
X5730000D01*
G37*
G36*
G01Y3300000D02*
Y3370000D01*
X6160000D01*
X6190000Y3340000D01*
Y2740000D01*
X5950000D01*
X5930000Y2760000D01*
Y3280000D01*
X5910000Y3300000D01*
X5730000D01*
G37*
G36*
G01X6050000Y3920000D02*
X7200000D01*
X7290000Y3830000D01*
Y3662480D01*
G02X7254860Y3648580I-20320J2D01*
G03X6990000Y3763240I-264860J-248578D01*
G03X6727870Y3651460I0J-363244D01*
G02X6698840Y3651160I-14662J14068D01*
G01X6660000Y3690000D01*
X6230000D01*
X6210000Y3670000D01*
Y3580000D01*
X6180000Y3550000D01*
X5730000D01*
Y3640000D01*
X5950000D01*
X5970000Y3660000D01*
Y3840000D01*
X6050000Y3920000D01*
G37*
G36*
G01X5730000Y4530000D02*
Y4600000D01*
X6160000D01*
X6190000Y4570000D01*
Y3970000D01*
X5950000D01*
X5930000Y3990000D01*
Y4510000D01*
X5910000Y4530000D01*
X5730000D01*
G37*
G36*
G01X6050000Y5150000D02*
X7200000D01*
X7290000Y5060000D01*
Y4892480D01*
G02X7254860Y4878580I-20320J2D01*
G03X6990000Y4993240I-264860J-248578D01*
G03X6727870Y4881460I0J-363244D01*
G02X6698840Y4881160I-14662J14068D01*
G01X6660000Y4920000D01*
X6230000D01*
X6210000Y4900000D01*
Y4810000D01*
X6180000Y4780000D01*
X5730000D01*
Y4870000D01*
X5950000D01*
X5970000Y4890000D01*
Y5070000D01*
X6050000Y5150000D01*
G37*
G36*
G01X5521380Y6734100D02*
X8046850D01*
X8132100Y6648850D01*
Y5893700D01*
G03X8077540Y5848890I55908J-123693D01*
G02X8044460I-16540J11805D01*
G03X7989900Y5893700I-110468J-78883D01*
G01Y6436000D01*
G03X7973530Y6475530I-55913J0D01*
G01X7879530Y6569530D01*
G03X7840000Y6585900I-39530J-39543D01*
G01X5451380D01*
G02X5431080Y6607060I2J20319D01*
G03X5431140Y6610000I-71080J2921D01*
G03X5430630Y6618510I-71140J7D01*
G02X5446180Y6640720I20173J2425D01*
G03X5501140Y6710000I-16186J69280D01*
G03X5501080Y6712940I-71140J19D01*
G02X5521380Y6734100I20302J841D01*
G37*
G36*
G01X6260000Y2160000D02*
X6627890D01*
X6628870Y2150930D01*
G03X6679860Y2000900I361134J39057D01*
G02X6662520Y1970000I-17346J-10581D01*
G01X6260000D01*
Y2160000D01*
G37*
G36*
G01X6270000Y2420000D02*
X6620000D01*
X6640000Y2400000D01*
Y2240000D01*
X6620000Y2220000D01*
X6270000D01*
Y2420000D01*
G37*
G36*
G01X7335740Y3654260D02*
X8181090D01*
X8444020Y3391330D01*
X8444710Y3388650D01*
G03X8453520Y3363150I165282J42831D01*
G01X8456290Y3356800D01*
X8370470Y3270990D01*
G03X8354100Y3231460I39543J-39530D01*
G01Y2890000D01*
G03X8370470Y2850470I55913J0D01*
G01X8450470Y2770470D01*
G03X8490000Y2754100I39530J39543D01*
G01X8522820D01*
Y2738370D01*
X8518130Y2735380D01*
G03X8439260Y2591460I91876J-143920D01*
G03X8780740I170740J0D01*
G03X8723910Y2718640I-170737J-6D01*
G02X8737470Y2754100I13557J15138D01*
G01X8860000D01*
G03X8899530Y2770470I0J55913D01*
G01X9059410Y2930360D01*
G02X9094100Y2915990I14369J-14369D01*
G01Y2403150D01*
X8926850Y2235900D01*
X8768110D01*
G03X8610000Y2342200I-158110J-64436D01*
G03X8444710Y2214270I0J-170745D01*
G01X8444020Y2211590D01*
X8248170Y2015740D01*
X8194800D01*
G02X8180460Y2050460I-3J20320D01*
G03X8230740Y2171460I-120455J121000D01*
G03X7889260I-170740J0D01*
G03X7939540Y2050460I170735J0D01*
G02X7925200Y2015740I-14337J-14400D01*
G01X7370370D01*
X7328370Y2057740D01*
X7330630Y2063850D01*
G03X7353240Y2190000I-340630J126153D01*
G03X7325740Y2328640I-363239J-3D01*
G01Y2638950D01*
X7208950Y2755740D01*
X6235740D01*
Y3134260D01*
X6260760D01*
X6261710Y3134080D01*
G03X6270320Y3133260I8622J44919D01*
G01X6420320D01*
G03X6428930Y3134080I-12J45739D01*
G01X6429880Y3134260D01*
X6742360D01*
G03X6909840Y3045710I247648J265735D01*
G01X6917760Y3043920D01*
Y3015740D01*
X6748400D01*
G03X6709360Y2993840I0J-45747D01*
G01X6655000D01*
G03X6612440Y2982240I-9J-83842D01*
G03X6591620Y2964880I17567J-42233D01*
G03Y2855120I63373J-54880D01*
G03X6612440Y2837760I38387J24873D01*
G03X6655000Y2826160I42551J72242D01*
G01X6709360D01*
G03X6748400Y2804260I39040J23847D01*
G01X7051600D01*
G03X7097340Y2850000I0J45740D01*
G01Y2970000D01*
G03X7085440Y3000770I-45731J0D01*
G01Y3049520D01*
G03X7316700Y3241230I-95446J350476D01*
G01X7317450Y3242760D01*
X7335740Y3261050D01*
Y3288600D01*
X7336220Y3290100D01*
G03X7353240Y3400000I-346222J109887D01*
G03X7336220Y3509900I-363242J13D01*
G01X7335740Y3511400D01*
Y3654260D01*
G37*
G36*
G01X6270000Y3630000D02*
X6620000D01*
X6640000Y3610000D01*
Y3450000D01*
X6620000Y3430000D01*
X6270000D01*
Y3630000D01*
G37*
G36*
G01Y3370000D02*
X6627890D01*
X6628870Y3360930D01*
G03X6679860Y3210900I361134J39057D01*
G02X6662520Y3180000I-17346J-10581D01*
G01X6270000D01*
Y3370000D01*
G37*
G36*
G01X6429880Y4364260D02*
X6742360D01*
G03X6909840Y4275710I247648J265735D01*
G01X6917760Y4273920D01*
Y4245740D01*
X6748400D01*
G03X6709360Y4223840I0J-45747D01*
G01X6655000D01*
G03X6612440Y4212240I-9J-83842D01*
G03X6591620Y4194880I17567J-42233D01*
G03Y4085120I63373J-54880D01*
G03X6612440Y4067760I38387J24873D01*
G03X6655000Y4056160I42551J72242D01*
G01X6709360D01*
G03X6748400Y4034260I39040J23847D01*
G01X7051600D01*
G03X7097340Y4080000I0J45740D01*
G01Y4200000D01*
G03X7085440Y4230770I-45731J0D01*
G01Y4279520D01*
G03X7116150Y4289370I-95475J350469D01*
G01X7122260Y4291630D01*
X7386950Y4026950D01*
G03X7490000Y3984260I103056J103047D01*
G01X8419630D01*
X8754260Y3649630D01*
Y3576860D01*
G02X8720760Y3561400I-20320J5D01*
G03X8652810Y3596750I-110767J-129935D01*
G01X8650130Y3597440D01*
X8344510Y3903050D01*
G03X8241460Y3945740I-103056J-103047D01*
G01X7238950D01*
X7218950Y3965740D01*
X6235740D01*
Y4364260D01*
X6260760D01*
X6261710Y4364080D01*
G03X6270320Y4363260I8622J44919D01*
G01X6420320D01*
G03X6428930Y4364080I-12J45739D01*
G01X6429880Y4364260D01*
G37*
G36*
G01X6270000Y4600000D02*
X6627890D01*
X6628870Y4590930D01*
G03X6679860Y4440900I361134J39057D01*
G02X6662520Y4410000I-17346J-10581D01*
G01X6270000D01*
Y4600000D01*
G37*
G36*
G01Y4860000D02*
X6620000D01*
X6640000Y4840000D01*
Y4680000D01*
X6620000Y4660000D01*
X6270000D01*
Y4860000D01*
G37*
G36*
G01X7811830Y5661500D02*
G02X7843900Y5668470I18580J-8225D01*
G03X7934000Y5634260I90095J101532D01*
G03X7959900Y5636750I20J135742D01*
G02X7984100Y5616810I3882J-19944D01*
G01Y5120740D01*
X7940000D01*
G03X7898710Y5094680I0J-45740D01*
G03X7870790Y5079530I11602J-54684D01*
G01X7850470Y5059210D01*
G03X7844220Y5051760I39540J-39517D01*
G01X7841190Y5047430D01*
X7825740D01*
Y5075000D01*
G03X7815940Y5103300I-45742J7D01*
G03X7821140Y5130000I-65947J26700D01*
G03X7754840Y5200980I-71145J0D01*
G02X7735900Y5221250I1378J20271D01*
G01Y5634260D01*
X7770000D01*
G03X7811830Y5661500I0J45737D01*
G37*
G36*
G01X8095900Y5631430D02*
G02X8125570Y5649470I20320J-1D01*
G03X8188000Y5634260I62430J120518D01*
G03X8230120Y5640960I0J135745D01*
G01X8236050Y5642900D01*
X8344100Y5534850D01*
Y5120740D01*
X8300000D01*
G03X8257090Y5090850I0J-45746D01*
G03X8240790Y5079530I23232J-50847D01*
G01X8220470Y5059210D01*
X8220440Y5059170D01*
G02X8185740Y5073530I-14379J14359D01*
G01Y5075000D01*
G03X8175940Y5103300I-45742J7D01*
G03X8181140Y5130000I-65947J26700D01*
G03X8114840Y5200980I-71145J0D01*
G02X8095900Y5221250I1378J20271D01*
G01Y5631430D01*
G37*
G36*
G01X8450310Y5634510D02*
G03X8495740Y5645350I-8320J135487D01*
G02X8524100Y5626690I8041J-18661D01*
G01Y5263150D01*
X8490590Y5229640D01*
G02X8455900Y5244010I-14369J14369D01*
G01Y5558000D01*
G03X8439530Y5597530I-55913J0D01*
G01X8437190Y5599870D01*
G02X8450310Y5634510I14371J14362D01*
G37*
G36*
G01X8675900Y4645900D02*
Y4691690D01*
G02X8701500Y4711310I20320J-3D01*
G03X8720000Y4708860I18509J68689D01*
G01X8751790D01*
X8754370Y4707120D01*
G03X8780000Y4699260I25636J37878D01*
G01X8914260D01*
Y4664930D01*
G02X8890220Y4644960I-20319J5D01*
G03X8880000Y4645900I-10208J-54961D01*
G01X8675900D01*
G37*
G36*
G01X8715900Y4905900D02*
Y4968860D01*
X8751790D01*
X8754370Y4967120D01*
G03X8780000Y4959260I25636J37878D01*
G01X8914260D01*
Y4924930D01*
G02X8890220Y4904960I-20319J5D01*
G03X8880000Y4905900I-10208J-54961D01*
G01X8715900D01*
G37*
%LPC*%
G75*
G36*
G01X5115790Y3039530D02*
G02X5155320Y3055900I39530J-39543D01*
G01X5164880D01*
X5167570Y3057900D01*
G02X5210000Y3071940I42430J-57093D01*
G02X5281140Y3000800I0J-71140D01*
G02X5214710Y2929820I-71136J0D01*
G03X5195740Y2909540I1351J-20276D01*
G01Y2880000D01*
G02X5150000Y2834260I-45740J0D01*
G01X5100000D01*
G02X5054260Y2880000I0J45740D01*
G01Y2940000D01*
G02X5069260Y2973870I45739J0D01*
G02X5085470Y3009210I55744J-4181D01*
G01X5115790Y3039530D01*
G37*
G36*
G01X5014000Y4195900D02*
X5062300D01*
G02X5100000Y4215740I37700J-25899D01*
G01X5150000D01*
G02X5195740Y4170000I0J-45740D01*
G01Y4110000D01*
G02X5150000Y4064260I-45740J0D01*
G01X5100000D01*
G02X5062300Y4084100I0J45739D01*
G01X5014000D01*
G02X4970000Y4068860I-44000J55897D01*
G02Y4211140I0J71140D01*
G02X5014000Y4195900I0J-71137D01*
G37*
G54D63*
X8060000Y2591460D03*
Y3011460D03*
Y3431460D03*
G54D62*
X5690000Y960000D03*
%LPD*%
G75*
G54D10*
X360000Y360000D03*
Y9640000D03*
X9640000Y360000D03*
Y9640000D03*
G54D11*
X120000Y7405000D03*
Y8155000D03*
Y8375000D03*
Y9125000D03*
G54D20*
X1430000Y2030000D03*
Y1770000D03*
Y2290000D03*
X1710000Y2030000D03*
X1990000D03*
X1710000Y1770000D03*
Y2290000D03*
X2370000Y2030000D03*
G54D30*
X1328000Y9812000D03*
X2192000D03*
G54D12*
G01X940000Y9335000D02*
X1060000D01*
G01D02*
X1155000D01*
G01X1600000Y5030000D02*
X1560000Y5070000D01*
Y5150000D01*
G01X1415000Y5570000D02*
Y5460000D01*
X1465000Y5410000D01*
G01X1415000Y5570000D02*
Y5686600D01*
X1458400Y5730000D01*
G01D02*
Y5898400D01*
X1460000Y5900000D01*
G01X1330000Y5730000D02*
X1458400D01*
G01X1520000Y9290000D02*
Y9195930D01*
X1484070Y9160000D01*
X1370000D01*
X1320000Y9110000D01*
Y8890000D01*
X1370000Y8840000D01*
X1590000D01*
X1650000Y8900000D01*
G01X2000000Y9290000D02*
Y9390000D01*
X1929200Y9460800D01*
X1600800D01*
X1520000Y9380000D01*
Y9290000D01*
G01X3901600Y3100000D02*
X2590000D01*
X2520000Y3170000D01*
Y4570000D01*
X2430000Y4660000D01*
X1950000D01*
G01X1905000Y5570000D02*
Y5460000D01*
X1955000Y5410000D01*
G01X1948400Y5730000D02*
Y5898400D01*
X1950000Y5900000D01*
G01X1905000Y5570000D02*
Y5686600D01*
G01D02*
X1948400Y5730000D01*
G01X2090000Y5040000D02*
X2050000Y5080000D01*
Y5150000D01*
G01X2215000Y8720000D02*
Y8815000D01*
G01X2450000Y9335000D02*
Y9250000D01*
G01X3410000Y8585000D02*
X3355000D01*
X3320000Y8620000D01*
G01X3901600Y3220000D02*
Y3100000D01*
G01X4060000Y7188400D02*
Y7090000D01*
G01X3910000Y7415000D02*
X4036600D01*
X4060000Y7391600D01*
G01X4110000Y8675000D02*
Y8890000D01*
G01X4425000Y8250000D02*
Y8335000D01*
G01X5125000Y2080000D02*
X5040000D01*
G01X5125000Y3290000D02*
X5123880Y3291120D01*
X5040000D01*
G01X5125000Y4520000D02*
X5040000D01*
G01X5120000Y2570000D02*
X5265000D01*
G01X5120000Y3780000D02*
X5265000D01*
G01Y5010000D02*
X5120000D01*
G01X5615000Y2570000D02*
X5818400D01*
G01X5615000Y3780000D02*
X5818400D01*
G01X5615000Y5010000D02*
X5818400D01*
G01X7750000Y4920000D02*
X7830000D01*
G01X8110000D02*
X8190000D01*
G01X8810000Y4520000D02*
X8720000D01*
G01X8810000Y5040000D02*
X8720000D01*
G01X8470000Y4920000D02*
X8550000D01*
G01X8720000Y4780000D02*
X8810000D01*
G01X9195000Y4520000D02*
X9280000D01*
G01X9195000Y5040000D02*
X9280000D01*
G01X9195000Y4780000D02*
X9280000D01*
X231660Y1252020D03*
Y1752020D03*
Y2252020D03*
Y2752020D03*
Y3252020D03*
Y3752020D03*
X449470Y5078190D03*
Y5578190D03*
Y6078190D03*
Y6578190D03*
X450000Y8970000D03*
X570000Y8000000D03*
X798520Y8641730D03*
Y9141730D03*
X1160000Y1680000D03*
Y1880000D03*
X960000Y1680000D03*
Y1880000D03*
X1160000Y2080000D03*
Y2280000D03*
X960000Y2080000D03*
Y2280000D03*
X1160000Y2480000D03*
X960000D03*
Y2680000D03*
Y2880000D03*
Y3080000D03*
Y3280000D03*
X1044810Y7688480D03*
Y8098480D03*
X1155000Y9335000D03*
X1050000Y9860000D03*
X950000D03*
X1393320Y380780D03*
X1270000Y2480000D03*
X1600000Y2810000D03*
Y2930000D03*
X1500000Y2810000D03*
Y2930000D03*
X1400000Y2810000D03*
Y2930000D03*
X1510000Y3300000D03*
X1270000Y3230000D03*
X1330000Y5730000D03*
X1544810Y7268480D03*
Y7688480D03*
Y8098480D03*
X1320000Y8570000D03*
X1520000Y8950000D03*
X1518270Y9808520D03*
X1893320Y380780D03*
X1650000Y3300000D03*
X1790000D03*
X1800000Y3430000D03*
Y3570000D03*
Y3720000D03*
X1790000Y4910000D03*
Y5110000D03*
Y5310000D03*
Y5510000D03*
X1650000Y5900000D03*
Y6100000D03*
X1860000Y6060000D03*
X1950000D03*
Y5990000D03*
X1860000D03*
X1650000Y6300000D03*
Y6500000D03*
X1760000Y8570000D03*
X1970000Y9000000D03*
X2020000Y2930000D03*
Y2810000D03*
X2120000Y2930000D03*
Y2810000D03*
X2220000Y2930000D03*
Y2810000D03*
X2070000Y3370000D03*
X2190000D03*
Y3250000D03*
X2340000Y3720000D03*
Y4120000D03*
Y3920000D03*
Y4520000D03*
Y4320000D03*
X2280000Y4920000D03*
Y5120000D03*
Y5320000D03*
Y5520000D03*
X2160000Y5890000D03*
Y6090000D03*
X2030000Y6060000D03*
Y5990000D03*
X2160000Y6290000D03*
Y6490000D03*
X2044810Y7268480D03*
Y7688480D03*
Y8098480D03*
X2215000Y8815000D03*
X2132500Y8562500D03*
X2130000Y8650000D03*
X2308270Y9108520D03*
X2018270Y9808520D03*
X2393320Y380780D03*
X2630000Y3400000D03*
Y3800000D03*
Y4190000D03*
X2632120Y4702460D03*
Y5202460D03*
X2620000Y5860000D03*
X2544810Y7268480D03*
X2450000Y9250000D03*
X2570000D03*
X2758270Y9688520D03*
X2893320Y380780D03*
X2985000Y1785000D03*
X2892120Y3402460D03*
Y3802460D03*
Y4192460D03*
X2890000Y4950000D03*
X2892120Y5192460D03*
Y5692460D03*
X2985000Y5780000D03*
X3122120Y6772460D03*
Y7272460D03*
X2842120D03*
Y7772460D03*
X2840000Y8040000D03*
X2842120Y8272460D03*
X3030000Y8390000D03*
Y8760000D03*
X2808270Y9108520D03*
X3393320Y380780D03*
X3163320Y2170780D03*
X3173320Y2790780D03*
X3260000Y3410000D03*
X3262120Y3802460D03*
Y4192460D03*
X3260000Y4950000D03*
X3262120Y5192460D03*
Y5692460D03*
X3190000Y7620000D03*
X3250000Y7970000D03*
X3170000Y7890000D03*
X3250000Y8390000D03*
Y8170000D03*
X3470000Y8760000D03*
X3320000Y8620000D03*
X3470000Y9110000D03*
X3258270Y9688520D03*
X3893320Y380780D03*
X3663320Y2170780D03*
X3673320Y2790780D03*
X3840000Y3692500D03*
X3900000Y3630000D03*
X3770000Y8630000D03*
Y8830000D03*
X3670800Y8759200D03*
X3600000Y8760000D03*
X3845000Y8940000D03*
X3758270Y9688520D03*
X4073320Y2170780D03*
X4083320Y2790780D03*
X3901600Y3100000D03*
X4270000Y3190000D03*
X4020000Y3430000D03*
X3960000Y3562500D03*
X4232120Y4192460D03*
Y4692460D03*
Y5192460D03*
Y5692460D03*
X4210000Y7240000D03*
X3920000Y7210000D03*
X4060000Y7090000D03*
X4280000Y8370000D03*
X3985000Y8500000D03*
X4010000Y8940000D03*
X4280000Y9070000D03*
X4110000Y8890000D03*
X3908500D03*
X4280000Y9350000D03*
X4258270Y9688520D03*
X4393320Y380780D03*
X4623320Y1520780D03*
Y1860780D03*
X4573320Y2170780D03*
X4583320Y2790780D03*
X4362120Y3422460D03*
X4370000Y3220000D03*
X4362120Y3812460D03*
X4500000Y4450000D03*
X4440000Y7210000D03*
Y7370000D03*
X4425000Y7475000D03*
X4640000Y7950000D03*
X4360000D03*
X4640000Y8070000D03*
X4425000Y8335000D03*
X4640000Y8185000D03*
X4509200Y8627600D03*
X4570000Y8830000D03*
X4519200Y8759200D03*
X4570000Y8690000D03*
X4893320Y380780D03*
X4830000Y2110000D03*
Y2230000D03*
X5040000Y2080000D03*
X4941840Y2365000D03*
X4825000D03*
X4950000Y3380000D03*
X5040000Y3291120D03*
X4970000Y3220000D03*
X4860000Y3490000D03*
Y3367500D03*
X4930000Y3850000D03*
Y3970000D03*
X4970000Y4140000D03*
X4900000Y4560000D03*
X5040000Y4630000D03*
Y4520000D03*
X4900000Y4450000D03*
X4732120Y5692460D03*
X4970000Y6130000D03*
X4690000Y8014120D03*
X4730000Y8280000D03*
X4690000Y8129120D03*
X4760000Y8540000D03*
X4994450Y9260160D03*
X4758270Y9688520D03*
X5393320Y380780D03*
X5123320Y1520780D03*
Y1860780D03*
X5050000Y1700000D03*
X5290000Y2140000D03*
X5250000Y2710000D03*
X5120000Y2570000D03*
X5250000Y2830000D03*
X5270000Y3100000D03*
X5210000Y3000800D03*
X5290000Y3350000D03*
X5120000Y3780000D03*
X5290000Y4580000D03*
X5120000Y5010000D03*
X5070000Y5690000D03*
X5290000Y6050000D03*
X5160000Y6320000D03*
X5230000Y6420000D03*
X5360000Y6610000D03*
X5112670Y7092070D03*
Y7592070D03*
Y8092070D03*
X5490000Y800000D03*
X5590000D03*
X5790000D03*
X5490000Y1200000D03*
X5590000D03*
X5690000D03*
X5790000D03*
X5590000Y1100000D03*
X5490000D03*
X5790000D03*
X5490000Y900000D03*
Y1000000D03*
X5720000Y1520000D03*
X5620000D03*
X5720000Y1640000D03*
X5620000D03*
Y1760000D03*
X5720000D03*
X5620000Y1880000D03*
X5720000D03*
Y2730000D03*
X5620000D03*
X5720000Y2850000D03*
X5620000D03*
Y2970000D03*
X5720000D03*
X5620000Y3090000D03*
X5720000D03*
Y4190000D03*
X5620000D03*
Y3950000D03*
X5720000D03*
X5620000Y4070000D03*
X5720000D03*
Y4310000D03*
X5620000D03*
X5656230Y5758910D03*
X5662670Y6382070D03*
Y6662070D03*
X5430000Y6710000D03*
X5494450Y9260160D03*
X5990000Y800000D03*
X5890000D03*
Y1200000D03*
X5990000D03*
Y1100000D03*
X5890000D03*
Y900000D03*
X5990000D03*
Y1000000D03*
X5890000D03*
X5820000Y1520000D03*
Y1640000D03*
Y1760000D03*
Y1880000D03*
Y2730000D03*
Y2850000D03*
Y2970000D03*
Y3090000D03*
Y4190000D03*
Y3950000D03*
Y4070000D03*
Y4310000D03*
X6016230Y5758910D03*
X6022670Y6382070D03*
Y6662070D03*
Y7092070D03*
Y7592070D03*
X5910000Y7880000D03*
X6022670Y8092070D03*
X5994450Y9260160D03*
X6235950Y395310D03*
X6315310Y1354050D03*
Y1854050D03*
X6540000Y2260000D03*
X6470000D03*
X6540000Y2320000D03*
X6470000D03*
Y2380000D03*
X6540000D03*
X6300000Y2990000D03*
Y2870000D03*
X6540000Y3470000D03*
X6470000D03*
X6540000Y3530000D03*
X6470000D03*
Y3590000D03*
X6540000D03*
X6300000Y4220000D03*
Y4100000D03*
X6470000Y4820000D03*
X6540000D03*
X6470000Y4760000D03*
X6540000D03*
X6470000Y4700000D03*
X6540000D03*
X6556230Y5758910D03*
X6562670Y6382070D03*
Y6662070D03*
Y7082070D03*
Y7582070D03*
Y8082070D03*
X6494450Y9260160D03*
X6735950Y395310D03*
X6610000Y2260000D03*
Y2320000D03*
Y2380000D03*
X6850000Y2780000D03*
X6610000Y3470000D03*
Y3530000D03*
Y3590000D03*
X6860000Y4000000D03*
X6610000Y4820000D03*
Y4760000D03*
Y4700000D03*
X7235950Y395310D03*
X6975950Y895310D03*
Y1405310D03*
X6970000Y2780000D03*
X6980000Y4000000D03*
X7056230Y5758910D03*
X7062670Y6382070D03*
Y6662070D03*
Y7082070D03*
Y7582070D03*
Y8082070D03*
X6994450Y9260160D03*
X7475950Y895310D03*
Y1405310D03*
X7536510Y2388750D03*
Y2888750D03*
Y3388750D03*
X7562670Y6382070D03*
Y6662070D03*
Y7082070D03*
Y7582070D03*
Y8082070D03*
X7494450Y9260160D03*
X7735950Y395310D03*
X7830000Y4920000D03*
X7870000Y5240000D03*
X7750000Y5130000D03*
X7870000Y5550000D03*
Y5970000D03*
X8062670Y6662070D03*
Y7082070D03*
Y7582070D03*
Y8082070D03*
X7994450Y9260160D03*
X8235950Y395310D03*
X8443080Y1186690D03*
X8190000Y4920000D03*
X8240000Y5240000D03*
X8110000Y5130000D03*
X8240000Y5550000D03*
X8310000Y5970000D03*
Y6380000D03*
X8800000Y4400000D03*
X8720000Y4520000D03*
X8800000Y4930000D03*
Y4670000D03*
X8720000Y5040000D03*
X8550000Y4920000D03*
X8720000Y4780000D03*
X8470000Y5130000D03*
X8494450Y9260160D03*
X8943080Y1186690D03*
X9219940Y5586440D03*
Y6086440D03*
Y6586440D03*
Y7086440D03*
Y7586440D03*
Y8086440D03*
Y8586440D03*
Y9086440D03*
X9443080Y1186690D03*
X9280000Y4520000D03*
Y5040000D03*
Y4780000D03*
X9626510Y1578750D03*
Y2078750D03*
Y2578750D03*
Y3078750D03*
X9719940Y5586440D03*
Y6086440D03*
Y6586440D03*
Y7086440D03*
Y7586440D03*
Y8086440D03*
Y8586440D03*
Y9086440D03*
G54D21*
X1620000Y2600000D03*
Y3140000D03*
X2001000Y2600000D03*
X1874000D03*
X1747000D03*
Y3140000D03*
X1874000D03*
X2001000D03*
G54D40*
X3460000Y7735000D03*
Y7785000D03*
Y7835000D03*
Y7885000D03*
Y7935000D03*
Y7985000D03*
Y8035000D03*
Y8085000D03*
Y8135000D03*
Y8185000D03*
Y8235000D03*
Y8285000D03*
X4160000Y8035000D03*
Y7985000D03*
Y7935000D03*
Y7885000D03*
Y7835000D03*
Y7785000D03*
Y7735000D03*
Y8285000D03*
Y8235000D03*
Y8185000D03*
Y8135000D03*
Y8085000D03*
G54D22*
X1465000Y2480000D03*
X1375000D03*
X1415000Y5570000D03*
X1505000D03*
X1615000D03*
X1995000Y2240000D03*
X1905000D03*
X1975000Y3490000D03*
X1885000D03*
Y3370000D03*
X1975000D03*
X1885000Y3640000D03*
X1975000D03*
X1905000Y5570000D03*
X1995000D03*
X1705000D03*
X2195000Y2240000D03*
X2105000D03*
X2195000Y2370000D03*
X2105000D03*
X2095000Y3490000D03*
X2185000D03*
X2095000Y3640000D03*
X2185000D03*
X2105000Y5570000D03*
X2195000D03*
X2305000Y8600000D03*
X2215000D03*
X2305000Y8480000D03*
X2215000D03*
X2305000Y8720000D03*
X2215000D03*
X2985000Y7630000D03*
X3075000D03*
Y7510000D03*
X2985000D03*
X3075000Y7750000D03*
X2985000D03*
X3075000Y7890000D03*
X2985000D03*
X4515000Y7680000D03*
X4425000D03*
Y7560000D03*
X4515000D03*
X4425000Y7800000D03*
X4515000D03*
X4425000Y8250000D03*
X4515000D03*
X5125000Y1700000D03*
X5215000D03*
X5375000Y2270000D03*
X5125000Y2200000D03*
X5215000D03*
X5375000Y2140000D03*
X5215000Y2080000D03*
X5125000D03*
X5375000Y2010000D03*
X5125000Y2910000D03*
X5215000D03*
X5375000Y3480000D03*
Y3220000D03*
X5215000Y3290000D03*
X5125000D03*
X5375000Y3350000D03*
X5125000Y3410000D03*
X5215000D03*
X5125000Y4140000D03*
X5215000D03*
Y4520000D03*
X5125000D03*
Y4640000D03*
X5215000D03*
X5375000Y4580000D03*
Y4450000D03*
Y4710000D03*
X5465000Y2270000D03*
Y2140000D03*
Y2010000D03*
Y3480000D03*
Y3220000D03*
Y3350000D03*
Y4580000D03*
Y4450000D03*
Y4710000D03*
X6565000Y1700000D03*
Y2910000D03*
Y4140000D03*
X6655000Y1700000D03*
Y2910000D03*
Y4140000D03*
X7635000Y4680000D03*
Y4800000D03*
X7725000Y4680000D03*
X8085000D03*
X7995000D03*
X7725000Y4800000D03*
X8085000D03*
X7995000D03*
X8445000Y4680000D03*
X8355000D03*
X8445000Y4800000D03*
X8355000D03*
X9195000Y4400000D03*
X9105000D03*
X9195000Y4660000D03*
X9105000D03*
Y4520000D03*
X9195000D03*
X8985000Y4660000D03*
X8895000D03*
X8985000Y4400000D03*
X8895000D03*
X9195000Y4920000D03*
X9105000D03*
Y5040000D03*
X9195000D03*
X9105000Y4780000D03*
X9195000D03*
X8985000Y4920000D03*
X8895000D03*
G54D13*
X320000Y7560000D03*
Y8000000D03*
Y8530000D03*
Y8970000D03*
G54D31*
X1898200Y1132030D03*
G54D41*
X3885000Y7660000D03*
X3835000D03*
X3785000D03*
X3735000D03*
X3685000D03*
X3635000D03*
X3585000D03*
X3535000D03*
Y8360000D03*
X3585000D03*
X3635000D03*
X3685000D03*
X3735000D03*
X3785000D03*
X3835000D03*
X3885000D03*
X4085000Y7660000D03*
X4035000D03*
X3985000D03*
X3935000D03*
Y8360000D03*
X3985000D03*
X4035000D03*
X4085000D03*
G54D50*
X7610000Y4920000D03*
Y5040000D03*
X7750000Y4920000D03*
Y5040000D03*
X7970000Y4920000D03*
Y5040000D03*
X8470000Y4920000D03*
X8330000D03*
X8470000Y5040000D03*
X8330000D03*
X8110000Y4920000D03*
Y5040000D03*
X8810000Y4520000D03*
Y4780000D03*
Y5040000D03*
X8950000Y4520000D03*
Y4780000D03*
Y5040000D03*
G54D32*
X1810000Y2870000D03*
G54D23*
X1458400Y4900000D03*
Y5730000D03*
X1948400Y3860000D03*
Y4260000D03*
Y4060000D03*
Y4460000D03*
X1661600Y4900000D03*
X1948400D03*
X1661600Y5730000D03*
X1948400D03*
X2151600Y3860000D03*
Y4260000D03*
Y4060000D03*
Y4460000D03*
Y4900000D03*
Y5730000D03*
X3901600Y3220000D03*
X3698400D03*
X5818400Y2570000D03*
Y3780000D03*
Y5010000D03*
X6021600Y2570000D03*
Y3780000D03*
Y5010000D03*
X6798400Y1700000D03*
Y2910000D03*
Y4140000D03*
X7001600Y1700000D03*
Y2910000D03*
Y4140000D03*
G54D14*
X1418200Y812030D03*
Y1412030D03*
G54D42*
X3810000Y8010000D03*
G54D51*
X8060000Y2171460D03*
Y2591460D03*
Y3011460D03*
Y3431460D03*
X8610000Y2171460D03*
Y2591460D03*
Y3011460D03*
Y3431460D03*
G54D15*
X1250000Y2690000D03*
Y3070000D03*
G54D33*
G01X6655000Y1700000D02*
X6798400D01*
G01X6655000Y2910000D02*
X6798400D01*
G01Y4140000D02*
X6655000D01*
G01X6991600Y1700000D02*
Y2178400D01*
X6980000Y2190000D01*
G01X7001600Y2178400D02*
Y1700000D01*
G01X6990000Y3400000D02*
X7001600Y3388400D01*
Y2910000D01*
G01Y4618400D02*
Y4140000D01*
X1700000Y2950000D03*
Y2790000D03*
X1920000D03*
Y2950000D03*
X1810000Y2870000D03*
X3810000Y8010000D03*
X3580000D03*
Y7780000D03*
X3810000D03*
X3580000Y8240000D03*
X3810000D03*
X4040000Y8010000D03*
Y7780000D03*
Y8240000D03*
G54D24*
X1465000Y5410000D03*
X1560000Y5150000D03*
X1465000D03*
X1655000Y5410000D03*
Y5150000D03*
X1955000Y5410000D03*
Y5150000D03*
X2145000Y5410000D03*
Y5150000D03*
X2050000D03*
G54D52*
X9680000Y4030000D03*
G54D43*
X3566000Y9246500D03*
G54D16*
X1250000Y3420000D03*
Y4460000D03*
G54D25*
X1460000Y5900000D03*
X1950000Y4660000D03*
Y5900000D03*
G54D34*
X1870000Y8920000D03*
G54D53*
G01X4130000Y3302500D02*
X3984100D01*
X3901600Y3220000D01*
G54D17*
X1200000Y6450000D03*
Y6950000D03*
Y6700000D03*
X3820000Y9246500D03*
X3693000D03*
X3820000Y9373500D03*
X3693000D03*
X3566000D03*
X4074000Y9246500D03*
X3947000D03*
X4074000Y9373500D03*
X3947000D03*
G54D35*
X1870000Y9100000D03*
X1650000D03*
Y8900000D03*
G54D44*
X4130000Y3107500D03*
Y3497500D03*
Y3432500D03*
Y3367500D03*
Y3302500D03*
Y3237500D03*
Y3172500D03*
Y3692500D03*
Y3627500D03*
Y3562500D03*
X4710000Y3107500D03*
Y3172500D03*
Y3237500D03*
Y3302500D03*
Y3367500D03*
Y3432500D03*
Y3497500D03*
Y3562500D03*
Y3627500D03*
Y3692500D03*
G54D26*
X1515000Y8500000D03*
Y8550000D03*
Y8600000D03*
Y8650000D03*
Y8700000D03*
X2005000D03*
Y8650000D03*
Y8600000D03*
Y8550000D03*
Y8500000D03*
G54D54*
G01X320000Y8000000D02*
X570000D01*
G01X450000Y8970000D02*
X340000D01*
X330000Y8960000D01*
X320000Y8970000D01*
G01X1060000Y9425000D02*
X1050000Y9435000D01*
Y9580000D01*
G01X940000Y9425000D02*
X950000Y9435000D01*
Y9580000D01*
G01X1050000Y9760000D02*
Y9860000D01*
G01X950000Y9760000D02*
Y9860000D01*
G01X1375000Y2480000D02*
X1270000D01*
G01X1620000Y2600000D02*
Y2540000D01*
X1560000Y2480000D01*
X1465000D01*
G01X1655000Y5150000D02*
Y5255000D01*
X1630000Y5280000D01*
X1480320D01*
X1460000Y5259680D01*
Y5175000D01*
G01D02*
X1450000Y5165000D01*
X1465000Y5150000D01*
G01X1505000Y5570000D02*
X1615000D01*
G01X1515000Y8700000D02*
X1613500D01*
X1618180Y8695320D01*
X1687840D01*
X1739680Y8747160D01*
Y9079680D01*
X1719360Y9100000D01*
X1650000D01*
G01X1515000Y8650000D02*
X1613500D01*
X1618180Y8654680D01*
X1704680D01*
X1780320Y8730320D01*
Y9079680D01*
X1800640Y9100000D01*
G01X1430000Y9045000D02*
X1525000D01*
X1585000Y9105000D01*
Y9290000D01*
G01X1905000Y2240000D02*
X1830000D01*
G01X1995000D02*
X1990000Y2245000D01*
Y2370000D01*
X1874000Y2486000D01*
Y2600000D01*
G01Y3140000D02*
Y3359000D01*
X1885000Y3370000D01*
G01D02*
Y3490000D01*
G01X1975000D02*
X2095000D01*
G01X1885000Y3640000D02*
Y3796600D01*
X1948400Y3860000D01*
G01X1975000Y3640000D02*
X2095000D01*
G01X2145000Y5150000D02*
Y5245000D01*
X2110000Y5280000D01*
X1980000D01*
X1950000Y5250000D01*
Y5155000D01*
G01D02*
X1955000Y5150000D01*
G01X1655000Y5410000D02*
Y5530000D01*
X1615000Y5570000D01*
G01X2080000Y9045000D02*
Y9130000D01*
X2040000Y9170000D01*
X1920000D01*
X1885000Y9205000D01*
Y9290000D01*
G01X1685000D02*
Y9135000D01*
X1650000Y9100000D01*
G01X1800640D02*
X1870000D01*
G01X1735000Y9290000D02*
Y9165640D01*
X1800640Y9100000D01*
G01X1835000Y9290000D02*
Y9135000D01*
X1870000Y9100000D01*
G01X1785000Y9290000D02*
Y9375630D01*
X1770630Y9390000D01*
X1700000D01*
X1685000Y9375000D01*
Y9290000D01*
G01X1995000Y2240000D02*
X2105000D01*
G01X2001000Y2600000D02*
Y2474000D01*
X2105000Y2370000D01*
G01X2001000Y3140000D02*
X2240000D01*
X2290000Y3190000D01*
Y3530000D01*
X2250000Y3570000D01*
X2164070D01*
X2095000Y3639070D01*
Y3640000D01*
G01X2145000Y5410000D02*
Y5530000D01*
X2105000Y5570000D01*
G01D02*
X1995000D01*
G01X3845000Y8940000D02*
X2620000D01*
X2570000Y8890000D01*
Y8540000D01*
X2510000Y8480000D01*
X2305000D01*
G01Y8600000D02*
X2470000D01*
X2510000Y8640000D01*
Y8920000D01*
X2590000Y9000000D01*
X3870000D01*
X3908500Y8961500D01*
Y8890000D01*
G01X2005000Y8600000D02*
X2095000D01*
X2132500Y8562500D01*
G01D02*
X2215000Y8480000D01*
G01Y8600000D02*
X2165000Y8650000D01*
X2130000D01*
G01D02*
X2005000D01*
G01X2450000Y9425000D02*
X2460000Y9435000D01*
Y9580000D01*
G01X2570000Y9425000D02*
X2560000Y9435000D01*
Y9580000D01*
G01X2570000Y9335000D02*
Y9250000D01*
G01X3470000Y4654000D02*
X2816000D01*
X2750000Y4720000D01*
Y8440000D01*
X2800000Y8490000D01*
X3290000D01*
X3345000Y8435000D01*
Y8295000D01*
X3405000Y8235000D01*
X3460000D01*
G01X3075000Y7630000D02*
Y7750000D01*
G01Y7510000D02*
Y7630000D01*
G01X3460000Y8035000D02*
X3035000D01*
X3030000Y8040000D01*
G01X3075000Y7890000D02*
X3170000D01*
G01X3075000Y7750000D02*
X3220000D01*
X3405000Y7935000D01*
X3460000D01*
G01X3030000Y8280000D02*
X3119680D01*
X3170000Y8229680D01*
Y8120000D01*
X3205000Y8085000D01*
X3460000D01*
G01X4130000Y3367500D02*
X3662500D01*
X3600000Y3430000D01*
Y4010000D01*
X3470000Y4140000D01*
Y4146000D01*
G01X4020000Y3430000D02*
X3710000D01*
X3640000Y3500000D01*
Y4350000D01*
X3590000Y4400000D01*
X3470000D01*
G01X4130000Y3497500D02*
X3742500D01*
X3690000Y3550000D01*
Y4580000D01*
X3616000Y4654000D01*
X3470000D01*
G01X3960000Y3562500D02*
X3767500D01*
X3725560Y3604440D01*
Y4834440D01*
X3652000Y4908000D01*
X3470000D01*
G01X3900000Y3630000D02*
X3810000D01*
X3770000Y3670000D01*
Y5080000D01*
X3688000Y5162000D01*
X3470000D01*
G01Y5416000D02*
X3774000D01*
X3840000Y5350000D01*
Y3692500D01*
G01X5290000Y6050000D02*
X3490000D01*
X3300000Y6240000D01*
Y7770000D01*
X3415000Y7885000D01*
X3460000D01*
G01X4970000Y6130000D02*
X3540720D01*
X3380000Y6290720D01*
Y7760000D01*
X3405000Y7785000D01*
X3460000D01*
G01Y7735000D02*
Y6350000D01*
X3600000Y6210000D01*
X7610000D01*
X7680000Y6140000D01*
Y5770000D01*
G01X3170000Y7890000D02*
X3300000D01*
X3395000Y7985000D01*
X3460000D01*
G01X3566000Y9246500D02*
X3562500Y9250000D01*
X3490000D01*
X3460000Y9280000D01*
Y9430000D01*
X3490000Y9460000D01*
X4310000D01*
X4369120Y9400880D01*
Y8339120D01*
X4315000Y8285000D01*
X4160000D01*
G01X4130000Y3692500D02*
X3840000D01*
G01X5160000Y6320000D02*
X3640000D01*
X3535000Y6425000D01*
Y7660000D01*
G01X7934000Y5770000D02*
Y6436000D01*
X7840000Y6530000D01*
X3780000D01*
X3685000Y6625000D01*
Y7660000D01*
G01X5230000Y6420000D02*
X3709990D01*
X3635000Y6494990D01*
Y7660000D01*
G01X5360000Y6610000D02*
X3840000D01*
X3735000Y6715000D01*
Y7660000D01*
G01X5430000Y6710000D02*
X3881430D01*
X3835000Y6756430D01*
Y7660000D01*
G01X3885000D02*
Y7440000D01*
X3910000Y7415000D01*
G01X3845000Y8940000D02*
Y8370000D01*
X3835000Y8360000D01*
G01X3770000Y8630000D02*
X3785000Y8615000D01*
Y8360000D01*
G01X3770000Y8830000D02*
Y8720000D01*
X3710000Y8660000D01*
Y8480290D01*
X3735000Y8455290D01*
Y8360000D01*
G01X3670800Y8759200D02*
Y8469200D01*
X3685000Y8455000D01*
Y8360000D01*
G01X3600000Y8760000D02*
Y8480000D01*
X3635000Y8445000D01*
Y8360000D01*
G01X3885000D02*
Y8866500D01*
X3908500Y8890000D01*
G01X3693000Y9246500D02*
X3690000Y9243500D01*
Y9090000D01*
X3730000Y9050000D01*
X4130000D01*
X4210000Y8970000D01*
Y8390000D01*
X4180000Y8360000D01*
X4085000D01*
G01X4130000Y3432500D02*
X4022500D01*
X4020000Y3430000D01*
G01X4130000Y3627500D02*
X3902500D01*
X3900000Y3630000D01*
G01X4130000Y3562500D02*
X3960000D01*
G01X3935000Y7660000D02*
Y7440000D01*
X3910000Y7415000D01*
G01X8188000Y5770000D02*
Y6672000D01*
X8070000Y6790000D01*
X4440000D01*
X4360000Y6870000D01*
Y7490000D01*
X4290000Y7560000D01*
X4140000D01*
X4085000Y7615000D01*
Y7660000D01*
G01X4160000Y7735000D02*
X4250000D01*
X4425000Y7560000D01*
G01X4160000Y7835000D02*
X4390000D01*
X4425000Y7800000D01*
G01X4640000Y7950000D02*
X4440000D01*
X4375000Y7885000D01*
X4160000D01*
G01X4360000Y7950000D02*
X4345000Y7935000D01*
X4160000D01*
G01X4690000Y8014120D02*
X4314120D01*
X4285000Y7985000D01*
X4160000D01*
G01X4640000Y8070000D02*
X4300720D01*
X4265720Y8035000D01*
X4160000D01*
G01X3985000Y8500000D02*
Y8360000D01*
G01X4690000Y8129120D02*
X4289120D01*
X4245000Y8085000D01*
X4160000D01*
G01Y8185000D02*
X4640000D01*
G01X3990000Y8585000D02*
X4110000D01*
G01X3990000D02*
X3985000Y8580000D01*
Y8500000D01*
G01X4425000Y7560000D02*
Y7475000D01*
G01Y7800000D02*
Y7680000D01*
G01X5910000Y7880000D02*
X4490000D01*
X4425000Y7815000D01*
Y7800000D01*
G01X8470000Y5130000D02*
X8580000Y5240000D01*
Y8400000D01*
X8450000Y8530000D01*
X5440290D01*
X5342690Y8627600D01*
X4509200D01*
G01X4570000Y8830000D02*
X5310000D01*
X5490000Y8650000D01*
X8510000D01*
X8700000Y8460000D01*
Y5130320D01*
X8720320Y5110000D01*
X8880000D01*
X8950000Y5040000D01*
G01X4519200Y8759200D02*
X5324230D01*
X5473430Y8610000D01*
X8493430D01*
X8660000Y8443430D01*
Y4870320D01*
X8680320Y4850000D01*
X8880000D01*
X8950000Y4780000D01*
G01X4570000Y8690000D02*
X5336860D01*
X5456860Y8570000D01*
X8476860D01*
X8620000Y8426860D01*
Y4610320D01*
X8640320Y4590000D01*
X8880000D01*
X8950000Y4520000D01*
G01X5125000Y4140000D02*
X4970000D01*
G01X5125000Y1700000D02*
X5050000D01*
G01X5210000Y3000800D02*
X5209200Y3000000D01*
X5155320D01*
X5125000Y2969680D01*
Y2910000D01*
G01X5465000Y4710000D02*
X5585000D01*
X5590000Y4715000D01*
G01X5805320Y4693000D02*
X5612000D01*
X5590000Y4715000D01*
G01X6860000Y2070000D02*
X6870000D01*
X6990000Y2190000D01*
G01X7680000Y5770000D02*
Y4990000D01*
X7610000Y4920000D01*
G01Y5040000D02*
X7550320D01*
X7530000Y5019680D01*
Y4720000D01*
X7570000Y4680000D01*
X7635000D01*
G01X7725000Y4800000D02*
X7790000Y4735000D01*
Y4130000D01*
G01X7995000Y4680000D02*
X7920000D01*
X7890000Y4710000D01*
Y5019680D01*
X7910320Y5040000D01*
X7970000D01*
G01Y4920000D02*
Y4830000D01*
X7995000Y4805000D01*
Y4800000D01*
G01X8085000Y4680000D02*
Y4695000D01*
X7995000Y4785000D01*
Y4800000D01*
G01X7970000Y4920000D02*
X8040000Y4990000D01*
Y5664000D01*
X7934000Y5770000D01*
G01X7750000Y5040000D02*
Y5130000D01*
G01X8085000Y4800000D02*
X8150000Y4735000D01*
Y4440000D01*
X8235000Y4355000D01*
X8545000D01*
X9070000Y3830000D01*
Y3020000D01*
X8860000Y2810000D01*
X8490000D01*
X8410000Y2890000D01*
Y3231460D01*
X8610000Y3431460D01*
G01X8445000Y4800000D02*
X8510000Y4735000D01*
Y4530000D01*
X9150000Y3890000D01*
Y2380000D01*
X8950000Y2180000D01*
X8618540D01*
X8610000Y2171460D01*
G01X8355000Y4680000D02*
X8280320D01*
X8260000Y4700320D01*
Y5019680D01*
X8280320Y5040000D01*
X8330000D01*
G01Y4920000D02*
Y4825000D01*
X8355000Y4800000D01*
G01D02*
Y4785000D01*
X8445000Y4695000D01*
Y4680000D01*
G01X8330000Y4920000D02*
X8400000Y4990000D01*
Y5558000D01*
X8188000Y5770000D01*
G01X8110000Y5130000D02*
Y5040000D01*
G01X8470000D02*
Y5130000D01*
G01X9195000Y4400000D02*
X9200000Y4395000D01*
Y4100000D01*
X9270000Y4030000D01*
X9680000D01*
G01X9105000Y4520000D02*
Y4400000D01*
G01D02*
X8985000D01*
G01D02*
Y4485000D01*
X8950000Y4520000D01*
G01X9195000Y4920000D02*
X9380000D01*
X9420000Y4880000D01*
Y4590000D01*
X9472000Y4538000D01*
X9680000D01*
G01X9195000Y4660000D02*
X9320000D01*
X9360000Y4620000D01*
Y4330000D01*
X9406000Y4284000D01*
X9680000D01*
G01X9105000Y5040000D02*
Y4920000D01*
G01D02*
X8985000D01*
G01D02*
Y5005000D01*
X8950000Y5040000D01*
G01X9105000Y4780000D02*
Y4660000D01*
G01D02*
X8985000D01*
G01D02*
Y4745000D01*
X8950000Y4780000D01*
G54D18*
X950000Y9580000D03*
X1050000D03*
X950000Y9760000D03*
X1050000D03*
X2460000Y9580000D03*
X2560000D03*
X2460000Y9760000D03*
X2560000D03*
G54D36*
X2439000Y960000D03*
X3201000D03*
G54D45*
X4060000Y7188400D03*
Y7391600D03*
G54D27*
X1328000Y9394000D03*
X2192000D03*
G54D55*
G01X1515000Y8600000D02*
X1400000D01*
G01X1515000D02*
X1730000D01*
G01X1320000Y9220000D02*
X1340000Y9240000D01*
X1380000D01*
G01X1328000Y9394000D02*
Y9315400D01*
G01X1440000Y9290000D02*
X1430000D01*
G01D02*
X1353400D01*
X1328000Y9315400D01*
G01X1280000Y9240000D02*
X1328000Y9288000D01*
Y9315400D01*
G01X1380000Y9240000D02*
X1430000Y9290000D01*
G01X1730000Y8600000D02*
X1760000Y8570000D01*
G01X2005000Y8550000D02*
X1935400D01*
X1900000Y8585400D01*
Y8664600D01*
X1935400Y8700000D01*
X2005000D01*
G01D02*
X2050000D01*
X2070000Y8720000D01*
X2215000D01*
G01X2192000Y9315400D02*
X2166600Y9290000D01*
X2080000D01*
G01X2460000Y9760000D02*
Y9860000D01*
G01X2560000Y9760000D02*
Y9860000D01*
G01X2985000Y7510000D02*
Y5780000D01*
G01X2990000Y7950000D02*
X3010000Y7970000D01*
X3250000D01*
G01X3410000Y8585000D02*
Y8310400D01*
X3435400Y8285000D01*
X3460000D01*
G01X3410000Y8585000D02*
X3530000D01*
G01X3535000Y8360000D02*
Y8580000D01*
X3530000Y8585000D01*
G01X4130000Y3107500D02*
X4327500D01*
X4370000Y3150000D01*
Y3220000D01*
G01X4130000Y3172500D02*
X4035400D01*
X4010000Y3147100D01*
Y3045400D01*
X4035400Y3020000D01*
X4660000D01*
X4720000Y2960000D01*
Y2050000D01*
X4760000Y2010000D01*
X5375000D01*
G01X4250000Y3240000D02*
X4247500Y3237500D01*
G01D02*
X4130000D01*
G01X4210000Y7325000D02*
Y7240000D01*
G01X4060000Y7188400D02*
X4068400Y7180000D01*
X4250000D01*
X4290000Y7220000D01*
Y7350000D01*
X4225000Y7415000D01*
X4210000D01*
G01D02*
X4135000Y7490000D01*
X4080000D01*
X4035000Y7535000D01*
Y7660000D01*
G01X4160000Y8235000D02*
X4410000D01*
X4425000Y8250000D01*
G01X4500000Y4450000D02*
Y3160000D01*
X4552500Y3107500D01*
X4710000D01*
G01X6021600Y5010000D02*
X5901600Y5130000D01*
X4690000D01*
X4580000Y5020000D01*
Y3592500D01*
X4610000Y3562500D01*
X4710000D01*
G01Y3237500D02*
X4802500D01*
X4883420Y3156580D01*
Y2306580D01*
X4920000Y2270000D01*
X5375000D01*
G01X4825000Y2365000D02*
Y3147100D01*
X4799600Y3172500D01*
X4710000D01*
G01X5590000Y2365000D02*
X4941840D01*
G01X4710000Y3302500D02*
X4804870D01*
X4940000Y3167370D01*
Y2520000D01*
X5000000Y2460000D01*
X5530000D01*
X5615000Y2545000D01*
Y2570000D01*
G01X5375000Y3220000D02*
X4970000D01*
G01X5375000Y3480000D02*
X4932630D01*
X4884210Y3431580D01*
X4710920D01*
X4710000Y3432500D01*
G01Y3497500D02*
X4777500D01*
X4940000Y3660000D01*
X5520000D01*
X5615000Y3755000D01*
Y3780000D01*
G01X4860000Y3367500D02*
X4710000D01*
G01X4860000Y3490000D02*
X4935000Y3565000D01*
X5590000D01*
G01X4710000Y3627500D02*
X4794600D01*
X4820000Y3652900D01*
Y4610000D01*
X4920000Y4710000D01*
X5375000D01*
G01X5615000Y5010000D02*
Y4985000D01*
X5530000Y4900000D01*
X4800000D01*
X4710000Y4810000D01*
Y3692500D01*
G01X5375000Y4450000D02*
X4900000D01*
G01X5375000Y2140000D02*
X5290000D01*
G01X5215000Y2080000D02*
X5230000D01*
X5290000Y2140000D01*
G01X5215000Y2200000D02*
X5230000D01*
X5290000Y2140000D01*
G01X5375000Y3350000D02*
X5290000D01*
G01X5215000Y3290000D02*
X5230000D01*
X5290000Y3350000D01*
G01X5215000Y3410000D02*
X5230000D01*
X5290000Y3350000D01*
G01X5375000Y4580000D02*
X5290000D01*
G01X5215000Y4520000D02*
X5230000D01*
X5290000Y4580000D01*
G01X5215000Y4640000D02*
X5230000D01*
X5290000Y4580000D01*
G01X5805320Y2380000D02*
X5605000D01*
X5590000Y2365000D01*
G01X5805320Y1999000D02*
X5606000D01*
X5590000Y2015000D01*
G01X5465000Y2010000D02*
X5585000D01*
X5590000Y2015000D01*
G01X5805320Y2253000D02*
X5612000D01*
X5590000Y2275000D01*
G01X5465000Y2270000D02*
X5585000D01*
X5590000Y2275000D01*
G01X5805320Y2126000D02*
X5611000D01*
X5590000Y2105000D01*
G01X5465000Y2140000D02*
X5555000D01*
X5590000Y2105000D01*
G01X5805320Y3209000D02*
X5606000D01*
X5590000Y3225000D01*
G01D02*
X5470000D01*
X5465000Y3220000D01*
G01X5590000Y3475000D02*
X5470000D01*
X5465000Y3480000D01*
G01X5805320Y3463000D02*
X5602000D01*
X5590000Y3475000D01*
G01X5805320Y3336000D02*
X5611000D01*
X5590000Y3315000D01*
G01D02*
X5500000D01*
X5465000Y3350000D01*
G01X5805320Y3590000D02*
X5615000D01*
X5590000Y3565000D01*
G01X5805320Y4439000D02*
X5606000D01*
X5590000Y4455000D01*
G01X5465000Y4450000D02*
X5585000D01*
X5590000Y4455000D01*
G01X5805320Y4566000D02*
X5611000D01*
X5590000Y4545000D01*
G01X5465000Y4580000D02*
X5555000D01*
X5590000Y4545000D01*
G01X5805320Y4820000D02*
X5605000D01*
X5590000Y4805000D01*
G01X7725000Y4680000D02*
Y4705480D01*
X7635000Y4795480D01*
Y4800000D01*
G01D02*
Y4895000D01*
X7610000Y4920000D01*
G54D19*
X1060000Y9425000D03*
Y9335000D03*
X940000Y9425000D03*
Y9335000D03*
X1430000Y9045000D03*
Y8955000D03*
X2080000D03*
Y9045000D03*
X2450000Y9335000D03*
Y9425000D03*
X2570000Y9335000D03*
Y9425000D03*
X3410000Y8585000D03*
Y8675000D03*
X3910000Y7325000D03*
Y7415000D03*
X3530000Y8585000D03*
Y8675000D03*
X4210000Y7325000D03*
Y7415000D03*
X4110000Y8675000D03*
Y8585000D03*
X3990000D03*
Y8675000D03*
X5590000Y2275000D03*
Y2365000D03*
Y2105000D03*
Y2015000D03*
Y3475000D03*
Y3315000D03*
Y3225000D03*
Y3565000D03*
Y4545000D03*
Y4455000D03*
Y4715000D03*
Y4805000D03*
G54D46*
X5450000Y1700000D03*
Y2910000D03*
Y4140000D03*
X6090000Y1700000D03*
Y2910000D03*
Y4140000D03*
G54D28*
X1440000Y9290000D03*
X1520000D03*
X2000000D03*
X2080000D03*
G54D37*
X3030000Y8040000D03*
Y8280000D03*
Y8160000D03*
G54D56*
G01X360000Y360000D02*
Y760900D01*
G01Y360000D02*
X760900D01*
G01X120000Y7266600D02*
Y7405000D01*
G01D02*
Y7543400D01*
G01Y7405000D02*
X258400D01*
G01X120000Y8016600D02*
Y8155000D01*
G01Y8375000D02*
Y8513400D01*
G01Y8375000D02*
X258400D01*
G01X120000Y8155000D02*
X258400D01*
G01X360000Y9239100D02*
Y9640000D01*
G01X120000Y8986600D02*
Y9125000D01*
G01D02*
Y9263400D01*
G01Y9125000D02*
X258400D01*
G01X360000Y9640000D02*
X760900D01*
G01X1162300Y812030D02*
X1418200D01*
G01X1200000Y6344100D02*
Y6450000D01*
G01D02*
Y6555900D01*
G01X1094100Y6450000D02*
X1200000D01*
G01D02*
X1305900D01*
G01X1222100Y9394000D02*
X1328000D01*
G01X1222100Y9812000D02*
X1328000D01*
G01X1418200Y656130D02*
Y812030D01*
G01D02*
Y967930D01*
G01Y812030D02*
X1674100D01*
G01X1328000Y9394000D02*
Y9554900D01*
G01Y9676100D02*
Y9812000D01*
G01D02*
X1433900D01*
G01X2192000Y9394000D02*
Y9315400D01*
G01Y9394000D02*
Y9554900D01*
G01Y9394000D02*
X2297900D01*
G01X2192000Y9676100D02*
Y9812000D01*
G01X2086100D02*
X2192000D01*
G01D02*
X2297900D01*
G01X3035100Y960000D02*
X3201000D01*
G01Y794100D02*
Y960000D01*
G01D02*
Y1125900D01*
G01Y960000D02*
X3366900D01*
G01X3470000Y3746100D02*
Y3892000D01*
G01X3324100D02*
X3470000D01*
G01Y5670000D02*
Y5815900D01*
G01X3324100Y5670000D02*
X3470000D01*
G01D02*
X3615900D01*
G01X4074000Y9140600D02*
Y9246500D01*
G01D02*
X4179900D01*
G01X5690000Y314100D02*
Y460000D01*
G01D02*
Y605900D01*
G01X5544100Y460000D02*
X5690000D01*
G01D02*
X5835900D01*
G01X5690000Y814100D02*
Y960000D01*
G01D02*
Y1105900D01*
G01X5544100Y960000D02*
X5690000D01*
G01D02*
X5835900D01*
G01X8429100Y2591460D02*
X8610000D01*
G01X8442000Y5624100D02*
Y5770000D01*
G01D02*
Y5915900D01*
G01X8610000Y2410560D02*
Y2591460D01*
G01D02*
X8790900D01*
G01X9239100Y360000D02*
X9640000D01*
G01X9239100Y9640000D02*
X9640000D01*
G01X9534100Y4792000D02*
X9680000D01*
G01X9640000Y360000D02*
Y760900D01*
G01X9680000Y4792000D02*
X9825900D01*
G01X9640000Y9239100D02*
Y9640000D01*
G54D38*
X3470000Y3892000D03*
Y4146000D03*
Y4400000D03*
Y4654000D03*
Y4908000D03*
Y5162000D03*
Y5416000D03*
X5690000Y460000D03*
Y960000D03*
X6174000Y5310000D03*
X7934000Y5770000D03*
X8442000D03*
X8188000D03*
X9680000Y4284000D03*
Y4538000D03*
Y5046000D03*
Y4792000D03*
G54D47*
X5265000Y2570000D03*
Y3780000D03*
Y5010000D03*
X5615000Y2570000D03*
Y3780000D03*
Y5010000D03*
G54D29*
X1585000Y9290000D03*
X1635000D03*
X1685000D03*
X1735000D03*
X1785000D03*
X1835000D03*
X1885000D03*
X1935000D03*
G54D57*
G01X1430000Y1770000D02*
Y1423830D01*
X1418200Y1412030D01*
G01X1710000Y1410000D02*
X1707970Y1412030D01*
G01D02*
X1418200D01*
G01X2440000Y1190000D02*
X2439000Y1189000D01*
G01D02*
Y960000D01*
G01X6860000Y2070000D02*
X6570000D01*
G01X6580000Y3280000D02*
X6870000D01*
X6990000Y3400000D01*
G01X6580000Y4510000D02*
X6870000D01*
X6990000Y4630000D01*
G01X6980000Y2190000D02*
X6860000Y2070000D01*
G01X6720000Y2560000D02*
X6980000Y2300000D01*
G01D02*
Y2190000D01*
G01X7001600Y2178400D02*
X6990000Y2190000D01*
G01X8610000Y2171460D02*
X8308540Y1870000D01*
X7310000D01*
X7001600Y2178400D01*
G01X7170000Y2580000D02*
Y2380000D01*
X6980000Y2190000D01*
G01Y2300000D02*
Y2570000D01*
G01D02*
X6960000Y2590000D01*
G01X6990000Y3510000D02*
Y3400000D01*
G01X6730000Y3770000D02*
X6990000Y3510000D01*
G01Y3780000D02*
Y3510000D01*
G01X7180000Y3790000D02*
Y3590000D01*
X6990000Y3400000D01*
G01X6970000Y3800000D02*
X6990000Y3780000D01*
G01Y4630000D02*
Y4740000D01*
G01X7180000Y5020000D02*
Y4820000D01*
X6990000Y4630000D01*
G01D02*
X7001600Y4618400D01*
G01D02*
X7490000Y4130000D01*
X7790000D01*
G01X6970000Y5030000D02*
X6990000Y5010000D01*
G01Y4740000D02*
X6730000Y5000000D01*
G01X6990000Y5010000D02*
Y4740000D01*
G01X8610000Y3431460D02*
X8241460Y3800000D01*
X7190000D01*
G01D02*
X7180000Y3790000D01*
G01X7790000Y4130000D02*
X8480000D01*
X8900000Y3710000D01*
Y3301460D01*
X8610000Y3011460D01*
G54D39*
X3470000Y5670000D03*
X5920000Y5310000D03*
X7680000Y5770000D03*
G54D48*
X5805320Y1999000D03*
Y2126000D03*
Y2253000D03*
Y2380000D03*
Y3209000D03*
Y3336000D03*
Y3463000D03*
Y3590000D03*
Y4439000D03*
Y4566000D03*
Y4693000D03*
Y4820000D03*
X6345320Y1999000D03*
Y2380000D03*
Y2253000D03*
Y2126000D03*
Y3463000D03*
Y3336000D03*
Y3209000D03*
Y3590000D03*
Y4566000D03*
Y4439000D03*
Y4820000D03*
Y4693000D03*
G54D49*
X6990000Y2190000D03*
Y3400000D03*
Y4630000D03*
M02*
