G04 ================== begin FILE IDENTIFICATION RECORD ==================*
G04 Layout Name:  TMC2160A_V10_220915.brd*
G04 Film Name:    SilkScreen_Top*
G04 File Format:  Gerber RS274X*
G04 File Origin:  Cadence Allegro 17.2-S079*
G04 Origin Date:  Thu Sep 15 16:55:05 2022*
G04 *
G04 Layer:  PACKAGE GEOMETRY/SILKSCREEN_TOP*
G04 Layer:  BOARD GEOMETRY/SILKSCREEN_TOP*
G04 *
G04 Offset:    (0.0000 0.0000)*
G04 Mirror:    No*
G04 Mode:      Positive*
G04 Rotation:  0*
G04 FullContactRelief:  No*
G04 UndefLineWidth:     0.1524*
G04 ================== end FILE IDENTIFICATION RECORD ====================*
%FSLAX55Y55*MOMM*%
%IR0*IPPOS*OFA0.00000B0.00000*MIA0B0*SFA1.00000B1.00000*%
%ADD10C,.1*%
%ADD11C,.2*%
%ADD12C,.127*%
%ADD13C,.254*%
%ADD14C,.1524*%
%ADD15C,1.6*%
G75*
%LPD*%
G75*
G36*
G01X480000Y2550000D02*
X430000D01*
Y2500000D01*
X480000D01*
Y2550000D01*
G37*
G36*
G01Y4760000D02*
X430000D01*
Y4710000D01*
X480000D01*
Y4760000D01*
G37*
G36*
G01X1010000Y420000D02*
G02Y1240000I0J410000D01*
G01Y420000D01*
G37*
G36*
G01Y4830000D02*
G02Y5650000I0J410000D01*
G01Y4830000D01*
G37*
G36*
G01X1070000Y2175000D02*
X1020000D01*
Y1925000D01*
Y1675000D01*
X1070000D01*
Y1925000D01*
Y2175000D01*
G37*
G36*
G01Y4385000D02*
X1020000D01*
Y4135000D01*
Y3885000D01*
X1070000D01*
Y4135000D01*
Y4385000D01*
G37*
G36*
G01X2240000Y840000D02*
G03I-30000J0D01*
G37*
G36*
G01Y1380000D02*
G03I-30000J0D01*
G37*
G36*
G01Y1920000D02*
G03I-30000J0D01*
G37*
G36*
G01Y2460000D02*
G03I-30000J0D01*
G37*
G36*
G01Y3050000D02*
G03I-30000J0D01*
G37*
G36*
G01Y3590000D02*
G03I-30000J0D01*
G37*
G36*
G01Y4130000D02*
G03I-30000J0D01*
G37*
G36*
G01Y4670000D02*
G03I-30000J0D01*
G37*
G36*
G01X3375000Y1390000D02*
G03I-30000J0D01*
G37*
G36*
G01Y3600000D02*
G03I-30000J0D01*
G37*
G36*
G01X4250000Y2980000D02*
X4170000D01*
X4210000Y2940000D01*
X4250000Y2980000D01*
G37*
G36*
G01X4110000D02*
X4030000D01*
X4070000Y2940000D01*
X4110000Y2980000D01*
G37*
G36*
G01X4250000Y5190000D02*
X4170000D01*
X4210000Y5150000D01*
X4250000Y5190000D01*
G37*
G36*
G01X4110000D02*
X4030000D01*
X4070000Y5150000D01*
X4110000Y5190000D01*
G37*
G36*
G01X5130000Y757000D02*
X5180000Y807000D01*
X5080000D01*
X5130000Y757000D01*
G37*
G36*
G01X5149400Y2284900D02*
G03I-38100J0D01*
G37*
G36*
G01Y2724900D02*
G03I-38100J0D01*
G37*
G36*
G01Y4484900D02*
G03I-38100J0D01*
G37*
G36*
G01Y4914900D02*
G03I-38100J0D01*
G37*
G36*
G01X5130000Y5857000D02*
X5180000Y5907000D01*
X5080000D01*
X5130000Y5857000D01*
G37*
G36*
G01X9810000Y5080000D02*
X9730000D01*
X9770000Y5040000D01*
X9810000Y5080000D01*
G37*
%LPC*%
G75*
G54D15*
X860000Y830000D03*
Y5240000D03*
%LPD*%
G75*
G54D10*
G01X7860000Y1350000D02*
X10000000D01*
Y2980000D01*
X7860000D01*
Y1350000D01*
G54D11*
G01X1020000Y2175000D02*
Y1280000D01*
X420000D01*
G01X1020000Y2560000D02*
X420000D01*
Y1280000D01*
G01X1020000Y4385000D02*
Y3490000D01*
X420000D01*
G01X1020000Y4770000D02*
X420000D01*
Y3490000D01*
G01X1420000Y830000D02*
G03I-410000J0D01*
G01Y5240000D02*
G03I-410000J0D01*
G01X1010000Y420000D02*
Y1240000D01*
G01X970000Y1325000D02*
X1020000D01*
G01X970000Y1425000D02*
Y1325000D01*
G01X1020000Y1425000D02*
X970000D01*
G01X1020000Y1675000D02*
X1070000D01*
Y2175000D01*
X1020000D01*
Y2560000D01*
G01Y2520000D02*
X970000D01*
Y2420000D01*
X1020000D01*
G01X970000Y3535000D02*
X1020000D01*
G01X970000Y3635000D02*
Y3535000D01*
G01X1020000Y3635000D02*
X970000D01*
G01X1020000Y3885000D02*
X1070000D01*
Y4385000D01*
X1020000D01*
Y4770000D01*
G01Y4730000D02*
X970000D01*
Y4630000D01*
X1020000D01*
G01X1010000Y4830000D02*
Y5650000D01*
G01X1440000Y247000D02*
X5260000D01*
Y757000D01*
G01X1440000D02*
Y247000D01*
G01X5260000Y757000D02*
X1440000D01*
G01X1500000Y870000D02*
Y790000D01*
G01X1540000Y830000D02*
X1460000D01*
G01X1340000Y870000D02*
Y790000D01*
G01X1380000Y830000D02*
X1300000D01*
G01X1440000Y5347000D02*
X5260000D01*
Y5857000D01*
G01X1440000D02*
Y5347000D01*
G01X1500000Y5280000D02*
Y5200000D01*
G01X1540000Y5240000D02*
X1460000D01*
G01X1340000Y5280000D02*
Y5200000D01*
G01X1380000Y5240000D02*
X1300000D01*
G01X5260000Y5857000D02*
X1440000D01*
G01X1980000Y1280000D02*
Y780000D01*
X1860000D01*
G01X1780000D02*
X1660000D01*
Y1280000D01*
X1980000D01*
G01X1860000Y780000D02*
G03X1780000I-40000J-4108D01*
G01X1980000Y1820000D02*
Y1320000D01*
X1860000D01*
G01X1780000D02*
X1660000D01*
Y1820000D01*
X1980000D01*
G01X1860000Y1320000D02*
G03X1780000I-40000J-4108D01*
G01X1980000Y2360000D02*
Y1860000D01*
X1860000D01*
G01X1780000D02*
X1660000D01*
Y2360000D01*
X1980000D01*
G01X1860000Y1860000D02*
G03X1780000I-40000J-4108D01*
G01X1980000Y2900000D02*
Y2400000D01*
X1860000D01*
G01X1780000D02*
X1660000D01*
Y2900000D01*
X1980000D01*
G01X1860000Y2400000D02*
G03X1780000I-40000J-4108D01*
G01X1980000Y3490000D02*
Y2990000D01*
X1860000D01*
G01X1780000D02*
X1660000D01*
Y3490000D01*
X1980000D01*
G01X1860000Y2990000D02*
G03X1780000I-40000J-4108D01*
G01X1980000Y4030000D02*
Y3530000D01*
X1860000D01*
G01X1780000D02*
X1660000D01*
Y4030000D01*
X1980000D01*
G01X1860000Y3530000D02*
G03X1780000I-40000J-4108D01*
G01X1980000Y4570000D02*
Y4070000D01*
X1860000D01*
G01X1780000D02*
X1660000D01*
Y4570000D01*
X1980000D01*
G01X1860000Y4070000D02*
G03X1780000I-40000J-4108D01*
G01X1980000Y5110000D02*
Y4610000D01*
X1860000D01*
G01X1780000D02*
X1660000D01*
Y5110000D01*
X1980000D01*
G01X1860000Y4610000D02*
G03X1780000I-40000J-4108D01*
G01X2400000Y920000D02*
X2220000D01*
Y1020000D01*
X2400000D01*
Y920000D01*
G01Y1170000D02*
X2220000D01*
Y1270000D01*
X2400000D01*
Y1170000D01*
G01Y1460000D02*
X2220000D01*
Y1560000D01*
X2400000D01*
Y1460000D01*
G01Y1710000D02*
X2220000D01*
Y1810000D01*
X2400000D01*
Y1710000D01*
G01Y2000000D02*
X2220000D01*
Y2100000D01*
X2400000D01*
Y2000000D01*
G01Y2254950D02*
X2220000D01*
Y2354950D01*
X2400000D01*
Y2254950D01*
G01Y2540000D02*
X2220000D01*
Y2640000D01*
X2400000D01*
Y2540000D01*
G01Y2790000D02*
X2220000D01*
Y2890000D01*
X2400000D01*
Y2790000D01*
G01Y3130000D02*
X2220000D01*
Y3230000D01*
X2400000D01*
Y3130000D01*
G01Y3380000D02*
X2220000D01*
Y3480000D01*
X2400000D01*
Y3380000D01*
G01Y3670000D02*
X2220000D01*
Y3770000D01*
X2400000D01*
Y3670000D01*
G01Y3920000D02*
X2220000D01*
Y4020000D01*
X2400000D01*
Y3920000D01*
G01Y4210000D02*
X2220000D01*
Y4310000D01*
X2400000D01*
Y4210000D01*
G01Y4464950D02*
X2220000D01*
Y4564950D01*
X2400000D01*
Y4464950D01*
G01Y4750000D02*
X2220000D01*
Y4850000D01*
X2400000D01*
Y4750000D01*
G01Y5000000D02*
X2220000D01*
Y5100000D01*
X2400000D01*
Y5000000D01*
G01X3030000Y930000D02*
X2850000D01*
Y1030000D01*
X3030000D01*
Y930000D01*
G01Y1050000D02*
X2850000D01*
Y1150000D01*
X3030000D01*
Y1050000D01*
G01X2963720Y1570000D02*
G03X2843720I-60000J-77500D01*
G01Y1310000D02*
G03X2963720I60000J77500D01*
G01X2843720Y1570000D02*
Y1310000D01*
G01X2963720D02*
Y1570000D01*
G01X2843720Y1950000D02*
G03X2963720I60000J77500D01*
G01X2843720Y2210000D02*
Y1950000D01*
G01X2963720D02*
Y2210000D01*
G01X2843720Y1630000D02*
G03X2963720I60000J77500D01*
G01Y1890000D02*
G03X2843720I-60000J-77500D01*
G01X2963720Y1630000D02*
Y1890000D01*
G01X2843720D02*
Y1630000D01*
G01Y2270000D02*
G03X2963720I60000J77500D01*
G01D02*
Y2530000D01*
G01X2843720D02*
Y2270000D01*
G01X2963720Y2210000D02*
G03X2843720I-60000J-77500D01*
G01X3030000Y2650000D02*
X2850000D01*
Y2750000D01*
X3030000D01*
Y2650000D01*
G01X2963720Y2530000D02*
G03X2843720I-60000J-77500D01*
G01X3030000Y2770000D02*
X2850000D01*
Y2870000D01*
X3030000D01*
Y2770000D01*
G01Y3260000D02*
X2850000D01*
Y3360000D01*
X3030000D01*
Y3260000D01*
G01Y3140000D02*
X2850000D01*
Y3240000D01*
X3030000D01*
Y3140000D01*
G01X2843720Y3520000D02*
G03X2963720I60000J77500D01*
G01Y3780000D02*
G03X2843720I-60000J-77500D01*
G01D02*
Y3520000D01*
G01X2963720D02*
Y3780000D01*
G01X2843720Y3840000D02*
G03X2963720I60000J77500D01*
G01D02*
Y4100000D01*
G01X2843720D02*
Y3840000D01*
G01Y4160000D02*
G03X2963720I60000J77500D01*
G01X2843720Y4420000D02*
Y4160000D01*
G01X2963720D02*
Y4420000D01*
G01Y4100000D02*
G03X2843720I-60000J-77500D01*
G01X2963720Y4420000D02*
G03X2843720I-60000J-77500D01*
G01Y4480000D02*
G03X2963720I60000J77500D01*
G01D02*
Y4740000D01*
G01X2843720D02*
Y4480000D01*
G01X3030000Y4860000D02*
X2850000D01*
Y4960000D01*
X3030000D01*
Y4860000D01*
G01Y4980000D02*
X2850000D01*
Y5080000D01*
X3030000D01*
Y4980000D01*
G01X2963720Y4740000D02*
G03X2843720I-60000J-77500D01*
G01X3410000Y1110000D02*
Y1270000D01*
G01Y1110000D02*
G03X3510000I50000J50000D01*
G01X3230000Y940000D02*
G03X3390000I80000J147500D01*
G01Y1280000D02*
Y940000D01*
G01X3230000D02*
Y1280000D01*
G01X3270000Y2270000D02*
X3970000D01*
Y1570000D01*
X3270000D01*
Y2270000D01*
G01X3510000Y1270000D02*
G03X3410000I-50000J-50000D01*
G01X3390000Y1280000D02*
G03X3230000I-80000J-147500D01*
G01X3300000Y2590000D02*
Y2750000D01*
G01X3400000D02*
Y2590000D01*
G01X3300000D02*
G03X3400000I50000J50000D01*
G01X3460000D02*
Y2750000D01*
G01Y2590000D02*
G03X3560000I50000J50000D01*
G01X3400000Y2750000D02*
G03X3300000I-50000J-50000D01*
G01X3560000D02*
G03X3460000I-50000J-50000D01*
G01X3410000Y3320000D02*
Y3480000D01*
G01X3510000D02*
G03X3410000I-50000J-50000D01*
G01Y3320000D02*
G03X3510000I50000J50000D01*
G01X3390000Y3490000D02*
G03X3230000I-80000J-147500D01*
G01Y3150000D02*
G03X3390000I80000J147500D01*
G01Y3490000D02*
Y3150000D01*
G01X3230000D02*
Y3490000D01*
G01X3270000Y4480000D02*
X3970000D01*
Y3780000D01*
X3270000D01*
Y4480000D01*
G01X3300000Y4800000D02*
Y4960000D01*
G01X3400000D02*
Y4800000D01*
G01X3300000D02*
G03X3400000I50000J50000D01*
G01Y4960000D02*
G03X3300000I-50000J-50000D01*
G01X3460000Y4800000D02*
Y4960000D01*
G01Y4800000D02*
G03X3560000I50000J50000D01*
G01Y4960000D02*
G03X3460000I-50000J-50000D01*
G01X3530000Y1020000D02*
G03X3650000I60000J77500D01*
G01X3530000Y1280000D02*
Y1020000D01*
G01X3650000D02*
Y1280000D01*
G01X3510000Y1270000D02*
Y1110000D01*
G01X3650000Y1280000D02*
G03X3530000I-60000J-77500D01*
G01X3600000Y2590000D02*
Y2750000D01*
G01X3700000D02*
Y2590000D01*
G01X3600000D02*
G03X3700000I50000J50000D01*
G01X3720000D02*
Y2750000D01*
G01X3820000D02*
Y2590000D01*
G01X3720000D02*
G03X3820000I50000J50000D01*
G01X3560000Y2750000D02*
Y2590000D01*
G01X3700000Y2750000D02*
G03X3600000I-50000J-50000D01*
G01X3820000D02*
G03X3720000I-50000J-50000D01*
G01X3800000Y2960000D02*
X3900000D01*
G01X3770000Y2790000D02*
Y3130000D01*
X3930000D01*
Y2790000D01*
X3770000D01*
G01X3650000Y3490000D02*
G03X3530000I-60000J-77500D01*
G01Y3230000D02*
G03X3650000I60000J77500D01*
G01X3530000Y3490000D02*
Y3230000D01*
G01X3650000D02*
Y3490000D01*
G01X3510000Y3480000D02*
Y3320000D01*
G01X3600000Y4800000D02*
Y4960000D01*
G01X3700000D02*
Y4800000D01*
G01X3600000D02*
G03X3700000I50000J50000D01*
G01Y4960000D02*
G03X3600000I-50000J-50000D01*
G01X3720000Y4800000D02*
Y4960000D01*
G01X3820000D02*
Y4800000D01*
G01X3720000D02*
G03X3820000I50000J50000D01*
G01Y4960000D02*
G03X3720000I-50000J-50000D01*
G01X3560000D02*
Y4800000D01*
G01X3770000Y5000000D02*
Y5340000D01*
X3930000D01*
Y5000000D01*
X3770000D01*
G01X3800000Y5170000D02*
X3900000D01*
G01X4250000Y2080000D02*
G03Y1960000I77500J-60000D01*
G01D02*
X4510000D01*
G01X4430000Y2100000D02*
X4250000D01*
Y2200000D01*
X4430000D01*
Y2100000D01*
G01X4510000Y2080000D02*
X4250000D01*
G01X3890000Y2580000D02*
Y2760000D01*
X3990000D01*
Y2580000D01*
X3890000D01*
G01X4260000Y2760000D02*
Y2580000D01*
X4160000D01*
Y2760000D01*
X4260000D01*
G01X4120000D02*
Y2580000D01*
X4020000D01*
Y2760000D01*
X4120000D01*
G01X4270000Y2820000D02*
Y2790000D01*
X4150000D01*
Y2820000D01*
G01X4270000Y3100000D02*
X4150000D01*
Y2820000D01*
X4270000D01*
Y3100000D01*
G01X4130000Y2820000D02*
Y2790000D01*
X4010000D01*
Y2820000D01*
G01X4130000Y3100000D02*
X4010000D01*
Y2820000D01*
X4130000D01*
Y3100000D01*
G01X4250000Y4290000D02*
G03Y4170000I77500J-60000D01*
G01D02*
X4510000D01*
G01X4430000Y4310000D02*
X4250000D01*
Y4410000D01*
X4430000D01*
Y4310000D01*
G01X4510000Y4290000D02*
X4250000D01*
G01X4120000Y4970000D02*
Y4790000D01*
X4020000D01*
Y4970000D01*
X4120000D01*
G01X3890000Y4790000D02*
Y4970000D01*
X3990000D01*
Y4790000D01*
X3890000D01*
G01X4260000Y4970000D02*
Y4790000D01*
X4160000D01*
Y4970000D01*
X4260000D01*
G01X4270000Y5030000D02*
Y5000000D01*
X4150000D01*
Y5030000D01*
G01X4130000D02*
Y5000000D01*
X4010000D01*
Y5030000D01*
G01X4270000Y5310000D02*
X4150000D01*
Y5030000D01*
X4270000D01*
Y5310000D01*
G01X4130000D02*
X4010000D01*
Y5030000D01*
X4130000D01*
Y5310000D01*
G01X4510000Y1960000D02*
G03Y2080000I-77500J60000D01*
G01X4770000Y2100000D02*
X4610000D01*
G01Y2200000D02*
X4770000D01*
G01X4610000D02*
G03Y2100000I50000J-50000D01*
G01X4510000Y2650000D02*
Y2310000D01*
X4350000D01*
Y2650000D01*
X4510000D01*
G01X4520000Y2690000D02*
Y2870000D01*
X4620000D01*
Y2690000D01*
X4520000D01*
G01X4370000D02*
G03X4490000I60000J77500D01*
G01X4370000Y2950000D02*
Y2690000D01*
G01X4490000D02*
Y2950000D01*
G01X4480000Y2480000D02*
X4380000D01*
G01X4663500Y2590000D02*
G03I-63500J0D01*
G01X4520000Y2890000D02*
Y3070000D01*
X4620000D01*
Y2890000D01*
X4520000D01*
G01X4490000Y2950000D02*
G03X4370000I-60000J-77500D01*
G01X4510000Y4170000D02*
G03Y4290000I-77500J60000D01*
G01X4770000Y4310000D02*
X4610000D01*
G01Y4410000D02*
X4770000D01*
G01X4610000D02*
G03Y4310000I50000J-50000D01*
G01X4510000Y4840000D02*
Y4500000D01*
X4350000D01*
Y4840000D01*
X4510000D01*
G01X4520000Y4870000D02*
Y5050000D01*
X4620000D01*
Y4870000D01*
X4520000D01*
G01X4370000Y4880000D02*
G03X4490000I60000J77500D01*
G01X4370000Y5140000D02*
Y4880000D01*
G01X4490000D02*
Y5140000D01*
G01X4480000Y4670000D02*
X4380000D01*
G01X4663500Y4780000D02*
G03I-63500J0D01*
G01X4520000Y5070000D02*
Y5250000D01*
X4620000D01*
Y5070000D01*
X4520000D01*
G01X4490000Y5140000D02*
G03X4370000I-60000J-77500D01*
G01X4890000Y2120000D02*
X5770000D01*
Y960000D01*
X4890000D01*
Y2120000D01*
G01X5120000Y1130000D02*
X4940000D01*
Y1230000D01*
X5120000D01*
Y1130000D01*
G01Y1370000D02*
X4940000D01*
Y1470000D01*
X5120000D01*
Y1370000D01*
G01Y1610000D02*
X4940000D01*
Y1710000D01*
X5120000D01*
Y1610000D01*
G01Y1850000D02*
X4940000D01*
Y1950000D01*
X5120000D01*
Y1850000D01*
G01X4844600Y2227600D02*
G02X4895400I25400J0D01*
G01X4819200Y2240300D02*
Y2227600D01*
X4844600D01*
G01X4819200Y2240300D02*
Y2532400D01*
X4920800D01*
Y2227600D01*
X4895400D01*
G01X4770000Y2100000D02*
G03Y2200000I-50000J50000D01*
G01X4844600Y2667600D02*
G02X4895400I25400J0D01*
G01X4819200Y2680300D02*
Y2667600D01*
X4844600D01*
G01X4819200Y2680300D02*
Y2972400D01*
X4920800D01*
Y2667600D01*
X4895400D01*
G01X4890000Y4320000D02*
X5770000D01*
Y3160000D01*
X4890000D01*
Y4320000D01*
G01X5120000Y3330000D02*
X4940000D01*
Y3430000D01*
X5120000D01*
Y3330000D01*
G01Y3570000D02*
X4940000D01*
Y3670000D01*
X5120000D01*
Y3570000D01*
G01Y3810000D02*
X4940000D01*
Y3910000D01*
X5120000D01*
Y3810000D01*
G01Y4050000D02*
X4940000D01*
Y4150000D01*
X5120000D01*
Y4050000D01*
G01X4844600Y4427600D02*
G02X4895400I25400J0D01*
G01X4819200Y4440300D02*
Y4427600D01*
X4844600D01*
G01X4819200Y4440300D02*
Y4732400D01*
X4920800D01*
Y4427600D01*
X4895400D01*
G01X4770000Y4310000D02*
G03Y4410000I-50000J50000D01*
G01X4844600Y4857600D02*
G02X4895400I25400J0D01*
G01X4819200Y4870300D02*
Y4857600D01*
X4844600D01*
G01X4819200Y4870300D02*
Y5162400D01*
X4920800D01*
Y4857600D01*
X4895400D01*
G01X5340370Y1010000D02*
X5160370D01*
Y1110000D01*
X5340370D01*
Y1010000D01*
G01Y1250000D02*
X5160370D01*
Y1350000D01*
X5340370D01*
Y1250000D01*
G01Y1490000D02*
X5160370D01*
Y1590000D01*
X5340370D01*
Y1490000D01*
G01Y1730000D02*
X5160370D01*
Y1830000D01*
X5340370D01*
Y1730000D01*
G01Y1970000D02*
X5160370D01*
Y2070000D01*
X5340370D01*
Y1970000D01*
G01X5340000Y2240000D02*
X5160000D01*
Y2340000D01*
X5340000D01*
Y2240000D01*
G01Y2360000D02*
X5160000D01*
Y2460000D01*
X5340000D01*
Y2360000D01*
G01X5160000Y2690000D02*
G03X5280000I60000J77500D01*
G01X5160000Y2950000D02*
Y2690000D01*
G01X5280000D02*
Y2950000D01*
G01D02*
G03X5160000I-60000J-77500D01*
G01X5340000Y3450000D02*
X5160000D01*
Y3550000D01*
X5340000D01*
Y3450000D01*
G01Y3210000D02*
X5160000D01*
Y3310000D01*
X5340000D01*
Y3210000D01*
G01Y3690000D02*
X5160000D01*
Y3790000D01*
X5340000D01*
Y3690000D01*
G01Y3930000D02*
X5160000D01*
Y4030000D01*
X5340000D01*
Y3930000D01*
G01Y4170000D02*
X5160000D01*
Y4270000D01*
X5340000D01*
Y4170000D01*
G01Y4560000D02*
X5160000D01*
Y4660000D01*
X5340000D01*
Y4560000D01*
G01Y4440000D02*
X5160000D01*
Y4540000D01*
X5340000D01*
Y4440000D01*
G01X5160000Y4880000D02*
G03X5280000I60000J77500D01*
G01X5160000Y5140000D02*
Y4880000D01*
G01X5280000D02*
Y5140000D01*
G01D02*
G03X5160000I-60000J-77500D01*
G01X5749000Y6100000D02*
X7289000D01*
Y4940000D01*
X5749000D01*
Y6100000D01*
G01X5799000D02*
Y4940000D01*
G01X6099000Y5360000D02*
Y5610000D01*
X5849000D01*
G01X6439000Y5650000D02*
G03I-300000J0D01*
G01X5849000Y5690000D02*
X6099000D01*
Y5940000D01*
G01X6544000Y6100000D02*
Y4940000D01*
G01X6494000Y6100000D02*
Y4940000D01*
G01X6429000Y5610000D02*
X6179000D01*
Y5360000D01*
G01Y5940000D02*
Y5690000D01*
X6429000D01*
G01X6859000Y5360000D02*
Y5610000D01*
X6609000D01*
G01X7201000Y5650000D02*
G03I-300000J0D01*
G01X6609000Y5690000D02*
X6859000D01*
Y5940000D01*
G01X7239000Y6100000D02*
Y4940000D01*
G01X7189000Y5610000D02*
X6939000D01*
Y5360000D01*
G01Y5940000D02*
Y5690000D01*
X7189000D01*
G01X8100000Y4010000D02*
Y3980000D01*
X7820000D01*
Y4010000D01*
G01X8100000Y4590000D02*
Y4010000D01*
X7820000D01*
Y4590000D01*
X8100000D01*
G01X8360000Y4540000D02*
Y4060000D01*
X8140000D01*
Y4540000D01*
X8360000D01*
G01X9110000Y4790000D02*
X10000000D01*
Y3890000D01*
X8600000D01*
Y4080000D01*
G01Y4540000D02*
Y4790000D01*
X8650000D01*
G01X9580000Y4970000D02*
Y5150000D01*
X9680000D01*
Y4970000D01*
X9580000D01*
G01X9830000Y4920000D02*
Y4890000D01*
X9710000D01*
Y4920000D01*
G01X9830000Y5200000D02*
X9710000D01*
Y4920000D01*
X9830000D01*
Y5200000D01*
G54D12*
G01X7015720Y455100D02*
X7053820D01*
G01X7130020D02*
X7165580D01*
G01X7231620D02*
X7269720D01*
G01X7015720Y452560D02*
X7053820D01*
G01X7130020D02*
X7165580D01*
G01X7234160D02*
X7272260D01*
G01X7015720Y450020D02*
X7053820D01*
G01X7130020D02*
X7165580D01*
G01X7234160D02*
X7272260D01*
G01X7140180Y363660D02*
X7155420D01*
G01X7190980D02*
X7201140D01*
G01X7246860D02*
X7267180D01*
G01X7302740D02*
X7351000D01*
G01X7140180Y361120D02*
X7157960D01*
G01X7188440D02*
X7203680D01*
G01X7241780D02*
X7272260D01*
G01X7300200D02*
X7353540D01*
G01X7140180Y358580D02*
X7157960D01*
G01X7188440D02*
X7203680D01*
G01X7239240D02*
X7274800D01*
G01X7300200D02*
X7351000D01*
G01X7140180Y356040D02*
X7160500D01*
G01X7185900D02*
X7203680D01*
G01X7234160D02*
X7277340D01*
G01X7300200D02*
X7351000D01*
G01X7140180Y353500D02*
X7160500D01*
G01X7183360D02*
X7203680D01*
G01X7234160D02*
X7279880D01*
G01X7300200D02*
X7353540D01*
G01X7140180Y350960D02*
X7163040D01*
G01X7183360D02*
X7203680D01*
G01X7231620D02*
X7251940D01*
G01X7262100D02*
X7282420D01*
G01X7302740D02*
X7351000D01*
G01X7140180Y348420D02*
X7163040D01*
G01X7183360D02*
X7203680D01*
G01X7229080D02*
X7249400D01*
G01X7264640D02*
X7282420D01*
G01X7140180Y345880D02*
X7163040D01*
G01X7180820D02*
X7203680D01*
G01X7229080D02*
X7246860D01*
G01X7269720D02*
X7284960D01*
G01X7140180Y343340D02*
X7165580D01*
G01X7180820D02*
X7203680D01*
G01X7229080D02*
X7244320D01*
G01X7269720D02*
X7284960D01*
G01X7140180Y340800D02*
X7165580D01*
G01X7178280D02*
X7203680D01*
G01X7226540D02*
X7244320D01*
G01X7269720D02*
X7284960D01*
G01X7140180Y338260D02*
X7168120D01*
G01X7175740D02*
X7203680D01*
G01X7226540D02*
X7241780D01*
G01X7269720D02*
X7287500D01*
G01X7140180Y335720D02*
X7168120D01*
G01X7175740D02*
X7203680D01*
G01X7226540D02*
X7241780D01*
G01X7272260D02*
X7287500D01*
G01X7140180Y333180D02*
X7170660D01*
G01X7173200D02*
X7203680D01*
G01X7226540D02*
X7241780D01*
G01X7272260D02*
X7287500D01*
G01X7140180Y330640D02*
X7155420D01*
G01X7157960D02*
X7170660D01*
G01X7173200D02*
X7203680D01*
G01X7226540D02*
X7241780D01*
G01X7272260D02*
X7287500D01*
G01X7140180Y328100D02*
X7155420D01*
G01X7160500D02*
X7185900D01*
G01X7190980D02*
X7203680D01*
G01X7226540D02*
X7241780D01*
G01X7272260D02*
X7287500D01*
G01X7140180Y325560D02*
X7155420D01*
G01X7160500D02*
X7185900D01*
G01X7188440D02*
X7203680D01*
G01X7226540D02*
X7241780D01*
G01X7272260D02*
X7287500D01*
G01X7140180Y323020D02*
X7155420D01*
G01X7163040D02*
X7183360D01*
G01X7190980D02*
X7203680D01*
G01X7226540D02*
X7241780D01*
G01X7272260D02*
X7287500D01*
G01X7140180Y320480D02*
X7155420D01*
G01X7163040D02*
X7183360D01*
G01X7188440D02*
X7203680D01*
G01X7226540D02*
X7241780D01*
G01X7272260D02*
X7287500D01*
G01X7140180Y317940D02*
X7155420D01*
G01X7163040D02*
X7180820D01*
G01X7188440D02*
X7203680D01*
G01X7226540D02*
X7241780D01*
G01X7272260D02*
X7287500D01*
G01X7140180Y315400D02*
X7155420D01*
G01X7165580D02*
X7180820D01*
G01X7188440D02*
X7203680D01*
G01X7226540D02*
X7241780D01*
G01X7269720D02*
X7287500D01*
G01X7140180Y312860D02*
X7155420D01*
G01X7168120D02*
X7178280D01*
G01X7190980D02*
X7203680D01*
G01X7229080D02*
X7244320D01*
G01X7269720D02*
X7284960D01*
G01X7140180Y310320D02*
X7155420D01*
G01X7190980D02*
X7203680D01*
G01X7229080D02*
X7244320D01*
G01X7269720D02*
X7284960D01*
G01X7140180Y307780D02*
X7155420D01*
G01X7190980D02*
X7203680D01*
G01X7229080D02*
X7246860D01*
G01X7267180D02*
X7284960D01*
G01X7140180Y305240D02*
X7155420D01*
G01X7190980D02*
X7203680D01*
G01X7231620D02*
X7246860D01*
G01X7264640D02*
X7282420D01*
G01X7140180Y302700D02*
X7155420D01*
G01X7190980D02*
X7203680D01*
G01X7231620D02*
X7282420D01*
G01X7140180Y300160D02*
X7155420D01*
G01X7190980D02*
X7203680D01*
G01X7234160D02*
X7279880D01*
G01X7140180Y297620D02*
X7155420D01*
G01X7190980D02*
X7203680D01*
G01X7236700D02*
X7277340D01*
G01X7140180Y295080D02*
X7155420D01*
G01X7190980D02*
X7203680D01*
G01X7239240D02*
X7274800D01*
G01X7140180Y292540D02*
X7155420D01*
G01X7190980D02*
X7203680D01*
G01X7244320D02*
X7269720D01*
G01X7254480Y290000D02*
X7259560D01*
G01X6970000Y737040D02*
X7099540D01*
G01X7132560D02*
X7206220D01*
G01X6970000Y734500D02*
X7102080D01*
G01X7130020D02*
X7221460D01*
G01X6970000Y731960D02*
X7102080D01*
G01X7130020D02*
X7226540D01*
G01X6970000Y729420D02*
X7102080D01*
G01X7130020D02*
X7231620D01*
G01X6970000Y726880D02*
X7102080D01*
G01X7130020D02*
X7236700D01*
G01X6970000Y724340D02*
X7102080D01*
G01X7130020D02*
X7239240D01*
G01X6970000Y721800D02*
X7102080D01*
G01X7130020D02*
X7241780D01*
G01X6970000Y719260D02*
X7102080D01*
G01X7130020D02*
X7244320D01*
G01X6970000Y716720D02*
X7102080D01*
G01X7130020D02*
X7246860D01*
G01X6970000Y714180D02*
X7102080D01*
G01X7130020D02*
X7249400D01*
G01X6970000Y711640D02*
X7102080D01*
G01X7130020D02*
X7251940D01*
G01X6970000Y709100D02*
X7102080D01*
G01X7130020D02*
X7251940D01*
G01X6970000Y706560D02*
X7102080D01*
G01X7130020D02*
X7254480D01*
G01X7015720Y704020D02*
X7053820D01*
G01X7130020D02*
X7168120D01*
G01X7203680D02*
X7254480D01*
G01X7015720Y701480D02*
X7053820D01*
G01X7130020D02*
X7165580D01*
G01X7211300D02*
X7257020D01*
G01X7015720Y698940D02*
X7053820D01*
G01X7130020D02*
X7165580D01*
G01X7213840D02*
X7257020D01*
G01X7015720Y696400D02*
X7053820D01*
G01X7130020D02*
X7165580D01*
G01X7216380D02*
X7257020D01*
G01X7015720Y693860D02*
X7053820D01*
G01X7130020D02*
X7165580D01*
G01X7218920D02*
X7259560D01*
G01X7015720Y691320D02*
X7053820D01*
G01X7130020D02*
X7165580D01*
G01X7221460D02*
X7259560D01*
G01X7015720Y688780D02*
X7053820D01*
G01X7130020D02*
X7165580D01*
G01X7224000D02*
X7259560D01*
G01X7015720Y686240D02*
X7053820D01*
G01X7130020D02*
X7165580D01*
G01X7224000D02*
X7259560D01*
G01X7015720Y683700D02*
X7053820D01*
G01X7130020D02*
X7165580D01*
G01X7224000D02*
X7259560D01*
G01X7015720Y681160D02*
X7053820D01*
G01X7130020D02*
X7165580D01*
G01X7226540D02*
X7262100D01*
G01X7015720Y678620D02*
X7053820D01*
G01X7130020D02*
X7165580D01*
G01X7226540D02*
X7262100D01*
G01X7015720Y676080D02*
X7053820D01*
G01X7130020D02*
X7165580D01*
G01X7226540D02*
X7262100D01*
G01X7015720Y673540D02*
X7053820D01*
G01X7130020D02*
X7165580D01*
G01X7226540D02*
X7262100D01*
G01X7015720Y671000D02*
X7053820D01*
G01X7130020D02*
X7165580D01*
G01X7226540D02*
X7262100D01*
G01X7015720Y668460D02*
X7053820D01*
G01X7130020D02*
X7165580D01*
G01X7226540D02*
X7262100D01*
G01X7015720Y665920D02*
X7053820D01*
G01X7130020D02*
X7165580D01*
G01X7226540D02*
X7262100D01*
G01X7015720Y663380D02*
X7053820D01*
G01X7130020D02*
X7165580D01*
G01X7226540D02*
X7262100D01*
G01X7015720Y660840D02*
X7053820D01*
G01X7130020D02*
X7165580D01*
G01X7226540D02*
X7262100D01*
G01X7015720Y658300D02*
X7053820D01*
G01X7130020D02*
X7165580D01*
G01X7226540D02*
X7262100D01*
G01X7015720Y655760D02*
X7053820D01*
G01X7130020D02*
X7165580D01*
G01X7226540D02*
X7262100D01*
G01X7015720Y653220D02*
X7053820D01*
G01X7130020D02*
X7165580D01*
G01X7226540D02*
X7262100D01*
G01X7015720Y650680D02*
X7053820D01*
G01X7130020D02*
X7165580D01*
G01X7226540D02*
X7262100D01*
G01X7015720Y648140D02*
X7053820D01*
G01X7130020D02*
X7165580D01*
G01X7226540D02*
X7262100D01*
G01X7015720Y645600D02*
X7053820D01*
G01X7130020D02*
X7165580D01*
G01X7226540D02*
X7262100D01*
G01X7015720Y643060D02*
X7053820D01*
G01X7130020D02*
X7165580D01*
G01X7226540D02*
X7262100D01*
G01X7015720Y640520D02*
X7053820D01*
G01X7130020D02*
X7165580D01*
G01X7226540D02*
X7262100D01*
G01X7015720Y637980D02*
X7053820D01*
G01X7130020D02*
X7165580D01*
G01X7226540D02*
X7262100D01*
G01X7015720Y635440D02*
X7053820D01*
G01X7130020D02*
X7165580D01*
G01X7226540D02*
X7262100D01*
G01X7015720Y632900D02*
X7053820D01*
G01X7130020D02*
X7165580D01*
G01X7226540D02*
X7262100D01*
G01X7015720Y630360D02*
X7053820D01*
G01X7130020D02*
X7165580D01*
G01X7226540D02*
X7262100D01*
G01X7015720Y627820D02*
X7053820D01*
G01X7130020D02*
X7165580D01*
G01X7226540D02*
X7259560D01*
G01X7015720Y625280D02*
X7053820D01*
G01X7130020D02*
X7165580D01*
G01X7224000D02*
X7259560D01*
G01X7015720Y622740D02*
X7053820D01*
G01X7130020D02*
X7165580D01*
G01X7224000D02*
X7259560D01*
G01X7015720Y620200D02*
X7053820D01*
G01X7130020D02*
X7165580D01*
G01X7221460D02*
X7259560D01*
G01X7015720Y617660D02*
X7053820D01*
G01X7130020D02*
X7165580D01*
G01X7221460D02*
X7259560D01*
G01X7015720Y615120D02*
X7053820D01*
G01X7130020D02*
X7165580D01*
G01X7218920D02*
X7257020D01*
G01X7015720Y612580D02*
X7053820D01*
G01X7130020D02*
X7165580D01*
G01X7218920D02*
X7257020D01*
G01X7015720Y610040D02*
X7053820D01*
G01X7130020D02*
X7165580D01*
G01X7213840D02*
X7257020D01*
G01X7015720Y607500D02*
X7053820D01*
G01X7130020D02*
X7165580D01*
G01X7211300D02*
X7257020D01*
G01X7015720Y604960D02*
X7053820D01*
G01X7130020D02*
X7165580D01*
G01X7203680D02*
X7254480D01*
G01X7015720Y602420D02*
X7053820D01*
G01X7130020D02*
X7254480D01*
G01X7015720Y599880D02*
X7053820D01*
G01X7130020D02*
X7251940D01*
G01X7015720Y597340D02*
X7053820D01*
G01X7130020D02*
X7249400D01*
G01X7015720Y594800D02*
X7053820D01*
G01X7130020D02*
X7246860D01*
G01X7015720Y592260D02*
X7053820D01*
G01X7130020D02*
X7246860D01*
G01X7015720Y589720D02*
X7053820D01*
G01X7130020D02*
X7244320D01*
G01X7015720Y587180D02*
X7053820D01*
G01X7130020D02*
X7239240D01*
G01X7015720Y584640D02*
X7053820D01*
G01X7130020D02*
X7236700D01*
G01X7015720Y582100D02*
X7053820D01*
G01X7130020D02*
X7234160D01*
G01X7015720Y579560D02*
X7053820D01*
G01X7130020D02*
X7231620D01*
G01X7015720Y577020D02*
X7053820D01*
G01X7130020D02*
X7229080D01*
G01X7015720Y574480D02*
X7053820D01*
G01X7130020D02*
X7229080D01*
G01X7015720Y571940D02*
X7053820D01*
G01X7130020D02*
X7231620D01*
G01X7015720Y569400D02*
X7053820D01*
G01X7130020D02*
X7165580D01*
G01X7196060D02*
X7231620D01*
G01X7015720Y566860D02*
X7053820D01*
G01X7130020D02*
X7165580D01*
G01X7196060D02*
X7234160D01*
G01X7015720Y564320D02*
X7053820D01*
G01X7130020D02*
X7165580D01*
G01X7198600D02*
X7234160D01*
G01X7015720Y561780D02*
X7053820D01*
G01X7130020D02*
X7165580D01*
G01X7198600D02*
X7234160D01*
G01X7015720Y559240D02*
X7053820D01*
G01X7130020D02*
X7165580D01*
G01X7198600D02*
X7236700D01*
G01X7015720Y556700D02*
X7053820D01*
G01X7130020D02*
X7165580D01*
G01X7201140D02*
X7236700D01*
G01X7015720Y554160D02*
X7053820D01*
G01X7130020D02*
X7165580D01*
G01X7201140D02*
X7236700D01*
G01X7015720Y551620D02*
X7053820D01*
G01X7130020D02*
X7165580D01*
G01X7201140D02*
X7239240D01*
G01X7015720Y549080D02*
X7053820D01*
G01X7130020D02*
X7165580D01*
G01X7203680D02*
X7239240D01*
G01X7015720Y546540D02*
X7053820D01*
G01X7130020D02*
X7165580D01*
G01X7203680D02*
X7239240D01*
G01X7015720Y544000D02*
X7053820D01*
G01X7130020D02*
X7165580D01*
G01X7203680D02*
X7241780D01*
G01X7015720Y541460D02*
X7053820D01*
G01X7130020D02*
X7165580D01*
G01X7206220D02*
X7241780D01*
G01X7015720Y538920D02*
X7053820D01*
G01X7130020D02*
X7165580D01*
G01X7206220D02*
X7241780D01*
G01X7015720Y536380D02*
X7053820D01*
G01X7130020D02*
X7165580D01*
G01X7206220D02*
X7244320D01*
G01X7015720Y533840D02*
X7053820D01*
G01X7130020D02*
X7165580D01*
G01X7208760D02*
X7244320D01*
G01X7015720Y531300D02*
X7053820D01*
G01X7130020D02*
X7165580D01*
G01X7208760D02*
X7244320D01*
G01X7015720Y528760D02*
X7053820D01*
G01X7130020D02*
X7165580D01*
G01X7208760D02*
X7246860D01*
G01X7015720Y526220D02*
X7053820D01*
G01X7130020D02*
X7165580D01*
G01X7211300D02*
X7246860D01*
G01X7015720Y523680D02*
X7053820D01*
G01X7130020D02*
X7165580D01*
G01X7211300D02*
X7246860D01*
G01X7015720Y521140D02*
X7053820D01*
G01X7130020D02*
X7165580D01*
G01X7211300D02*
X7249400D01*
G01X7015720Y518600D02*
X7053820D01*
G01X7130020D02*
X7165580D01*
G01X7213840D02*
X7249400D01*
G01X7015720Y516060D02*
X7053820D01*
G01X7130020D02*
X7165580D01*
G01X7213840D02*
X7251940D01*
G01X7015720Y513520D02*
X7053820D01*
G01X7130020D02*
X7165580D01*
G01X7213840D02*
X7251940D01*
G01X7015720Y510980D02*
X7053820D01*
G01X7130020D02*
X7165580D01*
G01X7216380D02*
X7251940D01*
G01X7015720Y508440D02*
X7053820D01*
G01X7130020D02*
X7165580D01*
G01X7216380D02*
X7254480D01*
G01X7015720Y505900D02*
X7053820D01*
G01X7130020D02*
X7165580D01*
G01X7216380D02*
X7254480D01*
G01X7015720Y503360D02*
X7053820D01*
G01X7130020D02*
X7165580D01*
G01X7218920D02*
X7254480D01*
G01X7015720Y500820D02*
X7053820D01*
G01X7130020D02*
X7165580D01*
G01X7218920D02*
X7257020D01*
G01X7015720Y498280D02*
X7053820D01*
G01X7130020D02*
X7165580D01*
G01X7218920D02*
X7257020D01*
G01X7015720Y495740D02*
X7053820D01*
G01X7130020D02*
X7165580D01*
G01X7221460D02*
X7257020D01*
G01X7015720Y493200D02*
X7053820D01*
G01X7130020D02*
X7165580D01*
G01X7221460D02*
X7259560D01*
G01X7015720Y490660D02*
X7053820D01*
G01X7130020D02*
X7165580D01*
G01X7221460D02*
X7257020D01*
G01X7015720Y488120D02*
X7053820D01*
G01X7130020D02*
X7165580D01*
G01X7224000D02*
X7259560D01*
G01X7015720Y485580D02*
X7053820D01*
G01X7130020D02*
X7165580D01*
G01X7224000D02*
X7259560D01*
G01X7015720Y483040D02*
X7053820D01*
G01X7130020D02*
X7165580D01*
G01X7224000D02*
X7259560D01*
G01X7015720Y480500D02*
X7053820D01*
G01X7130020D02*
X7165580D01*
G01X7226540D02*
X7262100D01*
G01X7015720Y477960D02*
X7053820D01*
G01X7130020D02*
X7165580D01*
G01X7226540D02*
X7262100D01*
G01X7015720Y475420D02*
X7053820D01*
G01X7130020D02*
X7165580D01*
G01X7226540D02*
X7262100D01*
G01X7015720Y472880D02*
X7053820D01*
G01X7130020D02*
X7165580D01*
G01X7226540D02*
X7264640D01*
G01X7015720Y470340D02*
X7053820D01*
G01X7130020D02*
X7165580D01*
G01X7229080D02*
X7264640D01*
G01X7015720Y467800D02*
X7053820D01*
G01X7130020D02*
X7165580D01*
G01X7229080D02*
X7267180D01*
G01X7015720Y465260D02*
X7053820D01*
G01X7130020D02*
X7165580D01*
G01X7229080D02*
X7267180D01*
G01X7015720Y462720D02*
X7053820D01*
G01X7130020D02*
X7165580D01*
G01X7229080D02*
X7267180D01*
G01X7015720Y460180D02*
X7053820D01*
G01X7130020D02*
X7165580D01*
G01X7231620D02*
X7269720D01*
G01X7015720Y457640D02*
X7053820D01*
G01X7130020D02*
X7165580D01*
G01X7231620D02*
X7269720D01*
G01X7317980Y455100D02*
X7353540D01*
G01X7414500D02*
X7452600D01*
G01X7523720D02*
X7559280D01*
G01X7592300D02*
X7630400D01*
G01X7317980Y452560D02*
X7353540D01*
G01X7414500D02*
X7452600D01*
G01X7523720D02*
X7559280D01*
G01X7592300D02*
X7630400D01*
G01X7317980Y450020D02*
X7353540D01*
G01X7417040D02*
X7452600D01*
G01X7523720D02*
X7556740D01*
G01X7592300D02*
X7630400D01*
G01X7368780Y363660D02*
X7406880D01*
G01X7444980D02*
X7465300D01*
G01X7508480D02*
X7521180D01*
G01X7544040D02*
X7559280D01*
G01X7635480D02*
X7658340D01*
G01X7368780Y361120D02*
X7406880D01*
G01X7439900D02*
X7470380D01*
G01X7505940D02*
X7523720D01*
G01X7544040D02*
X7559280D01*
G01X7627860D02*
X7660880D01*
G01X7368780Y358580D02*
X7406880D01*
G01X7434820D02*
X7472920D01*
G01X7508480D02*
X7523720D01*
G01X7544040D02*
X7559280D01*
G01X7625320D02*
X7663420D01*
G01X7368780Y356040D02*
X7406880D01*
G01X7432280D02*
X7475460D01*
G01X7508480D02*
X7526260D01*
G01X7544040D02*
X7559280D01*
G01X7622780D02*
X7663420D01*
G01X7381480Y353500D02*
X7394180D01*
G01X7429740D02*
X7478000D01*
G01X7508480D02*
X7526260D01*
G01X7544040D02*
X7559280D01*
G01X7620240D02*
X7663420D01*
G01X7686280D02*
X7732000D01*
G01X7381480Y350960D02*
X7394180D01*
G01X7429740D02*
X7447520D01*
G01X7457680D02*
X7478000D01*
G01X7508480D02*
X7528800D01*
G01X7544040D02*
X7559280D01*
G01X7617700D02*
X7640560D01*
G01X7650720D02*
X7660880D01*
G01X7686280D02*
X7704060D01*
G01X7320520Y348420D02*
X7333220D01*
G01X7381480D02*
X7394180D01*
G01X7427200D02*
X7444980D01*
G01X7462760D02*
X7480540D01*
G01X7508480D02*
X7531340D01*
G01X7544040D02*
X7559280D01*
G01X7617700D02*
X7635480D01*
G01X7683740D02*
X7698980D01*
G01X7320520Y345880D02*
X7333220D01*
G01X7381480D02*
X7394180D01*
G01X7427200D02*
X7442440D01*
G01X7465300D02*
X7480540D01*
G01X7508480D02*
X7531340D01*
G01X7544040D02*
X7559280D01*
G01X7615160D02*
X7632940D01*
G01X7683740D02*
X7698980D01*
G01X7320520Y343340D02*
X7333220D01*
G01X7381480D02*
X7394180D01*
G01X7427200D02*
X7442440D01*
G01X7465300D02*
X7480540D01*
G01X7508480D02*
X7533880D01*
G01X7544040D02*
X7559280D01*
G01X7615160D02*
X7632940D01*
G01X7681200D02*
X7696440D01*
G01X7320520Y340800D02*
X7333220D01*
G01X7381480D02*
X7394180D01*
G01X7424660D02*
X7442440D01*
G01X7467840D02*
X7483080D01*
G01X7508480D02*
X7533880D01*
G01X7544040D02*
X7559280D01*
G01X7615160D02*
X7630400D01*
G01X7681200D02*
X7696440D01*
G01X7320520Y338260D02*
X7333220D01*
G01X7381480D02*
X7394180D01*
G01X7424660D02*
X7439900D01*
G01X7467840D02*
X7483080D01*
G01X7508480D02*
X7536420D01*
G01X7544040D02*
X7559280D01*
G01X7612620D02*
X7630400D01*
G01X7681200D02*
X7693900D01*
G01X7320520Y335720D02*
X7333220D01*
G01X7381480D02*
X7394180D01*
G01X7424660D02*
X7439900D01*
G01X7467840D02*
X7483080D01*
G01X7508480D02*
X7536420D01*
G01X7544040D02*
X7559280D01*
G01X7612620D02*
X7630400D01*
G01X7681200D02*
X7696440D01*
G01X7320520Y333180D02*
X7333220D01*
G01X7381480D02*
X7394180D01*
G01X7424660D02*
X7439900D01*
G01X7470380D02*
X7483080D01*
G01X7508480D02*
X7538960D01*
G01X7544040D02*
X7559280D01*
G01X7612620D02*
X7627860D01*
G01X7681200D02*
X7696440D01*
G01X7320520Y330640D02*
X7333220D01*
G01X7381480D02*
X7394180D01*
G01X7424660D02*
X7439900D01*
G01X7470380D02*
X7483080D01*
G01X7508480D02*
X7521180D01*
G01X7523720D02*
X7538960D01*
G01X7544040D02*
X7559280D01*
G01X7612620D02*
X7627860D01*
G01X7681200D02*
X7696440D01*
G01X7320520Y328100D02*
X7333220D01*
G01X7381480D02*
X7394180D01*
G01X7424660D02*
X7439900D01*
G01X7470380D02*
X7483080D01*
G01X7508480D02*
X7521180D01*
G01X7526260D02*
X7541500D01*
G01X7544040D02*
X7559280D01*
G01X7612620D02*
X7627860D01*
G01X7681200D02*
X7696440D01*
G01X7320520Y325560D02*
X7333220D01*
G01X7381480D02*
X7394180D01*
G01X7424660D02*
X7439900D01*
G01X7470380D02*
X7483080D01*
G01X7508480D02*
X7521180D01*
G01X7526260D02*
X7541500D01*
G01X7544040D02*
X7559280D01*
G01X7612620D02*
X7627860D01*
G01X7681200D02*
X7696440D01*
G01X7320520Y323020D02*
X7333220D01*
G01X7381480D02*
X7394180D01*
G01X7424660D02*
X7439900D01*
G01X7470380D02*
X7483080D01*
G01X7508480D02*
X7521180D01*
G01X7528800D02*
X7559280D01*
G01X7612620D02*
X7627860D01*
G01X7681200D02*
X7696440D01*
G01X7320520Y320480D02*
X7333220D01*
G01X7381480D02*
X7394180D01*
G01X7424660D02*
X7439900D01*
G01X7470380D02*
X7483080D01*
G01X7508480D02*
X7521180D01*
G01X7528800D02*
X7559280D01*
G01X7612620D02*
X7630400D01*
G01X7681200D02*
X7696440D01*
G01X7320520Y317940D02*
X7333220D01*
G01X7381480D02*
X7394180D01*
G01X7424660D02*
X7439900D01*
G01X7467840D02*
X7483080D01*
G01X7508480D02*
X7521180D01*
G01X7531340D02*
X7559280D01*
G01X7612620D02*
X7630400D01*
G01X7681200D02*
X7693900D01*
G01X7320520Y315400D02*
X7333220D01*
G01X7381480D02*
X7394180D01*
G01X7424660D02*
X7439900D01*
G01X7467840D02*
X7483080D01*
G01X7508480D02*
X7521180D01*
G01X7531340D02*
X7559280D01*
G01X7612620D02*
X7630400D01*
G01X7681200D02*
X7696440D01*
G01X7320520Y312860D02*
X7333220D01*
G01X7381480D02*
X7394180D01*
G01X7424660D02*
X7442440D01*
G01X7467840D02*
X7480540D01*
G01X7508480D02*
X7521180D01*
G01X7533880D02*
X7559280D01*
G01X7615160D02*
X7630400D01*
G01X7681200D02*
X7696440D01*
G01X7320520Y310320D02*
X7333220D01*
G01X7381480D02*
X7394180D01*
G01X7427200D02*
X7442440D01*
G01X7465300D02*
X7480540D01*
G01X7508480D02*
X7521180D01*
G01X7533880D02*
X7559280D01*
G01X7615160D02*
X7632940D01*
G01X7681200D02*
X7696440D01*
G01X7320520Y307780D02*
X7333220D01*
G01X7381480D02*
X7394180D01*
G01X7427200D02*
X7442440D01*
G01X7462760D02*
X7480540D01*
G01X7508480D02*
X7521180D01*
G01X7536420D02*
X7559280D01*
G01X7615160D02*
X7632940D01*
G01X7683740D02*
X7698980D01*
G01X7320520Y305240D02*
X7333220D01*
G01X7381480D02*
X7394180D01*
G01X7429740D02*
X7444980D01*
G01X7460220D02*
X7478000D01*
G01X7508480D02*
X7521180D01*
G01X7538960D02*
X7559280D01*
G01X7617700D02*
X7638020D01*
G01X7686280D02*
X7701520D01*
G01X7320520Y302700D02*
X7333220D01*
G01X7381480D02*
X7394180D01*
G01X7429740D02*
X7478000D01*
G01X7508480D02*
X7521180D01*
G01X7538960D02*
X7559280D01*
G01X7620240D02*
X7660880D01*
G01X7686280D02*
X7734540D01*
G01X7320520Y300160D02*
X7333220D01*
G01X7368780D02*
X7406880D01*
G01X7432280D02*
X7475460D01*
G01X7508480D02*
X7521180D01*
G01X7538960D02*
X7559280D01*
G01X7620240D02*
X7663420D01*
G01X7320520Y297620D02*
X7333220D01*
G01X7368780D02*
X7406880D01*
G01X7434820D02*
X7475460D01*
G01X7508480D02*
X7521180D01*
G01X7541500D02*
X7559280D01*
G01X7622780D02*
X7663420D01*
G01X7320520Y295080D02*
X7333220D01*
G01X7368780D02*
X7406880D01*
G01X7437360D02*
X7472920D01*
G01X7505940D02*
X7521180D01*
G01X7541500D02*
X7559280D01*
G01X7627860D02*
X7663420D01*
G01X7320520Y292540D02*
X7333220D01*
G01X7368780D02*
X7406880D01*
G01X7442440D02*
X7467840D01*
G01X7508480D02*
X7521180D01*
G01X7544040D02*
X7559280D01*
G01X7632940D02*
X7660880D01*
G01X7450060Y290000D02*
X7457680D01*
G01X7640560D02*
X7650720D01*
G01X7439900Y836100D02*
X7541500D01*
G01X7442440Y833560D02*
X7541500D01*
G01X7442440Y831020D02*
X7541500D01*
G01X7444980Y828480D02*
X7538960D01*
G01X7444980Y825940D02*
X7536420D01*
G01X7447520Y823400D02*
X7536420D01*
G01X7450060Y820860D02*
X7452600D01*
G01X7455140D02*
X7526260D01*
G01X7528800D02*
X7533880D01*
G01X7452600Y818320D02*
X7531340D01*
G01X7455140Y815780D02*
X7528800D01*
G01X7455140Y813240D02*
X7526260D01*
G01X7460220Y810700D02*
X7523720D01*
G01X7467840Y808160D02*
X7518640D01*
G01X7475460Y805620D02*
X7513560D01*
G01X7320520Y737040D02*
X7351000D01*
G01X7419580D02*
X7447520D01*
G01X7523720D02*
X7556740D01*
G01X7660880D02*
X7691360D01*
G01X7317980Y734500D02*
X7353540D01*
G01X7417040D02*
X7450060D01*
G01X7521180D02*
X7559280D01*
G01X7658340D02*
X7693900D01*
G01X7317980Y731960D02*
X7353540D01*
G01X7414500D02*
X7450060D01*
G01X7521180D02*
X7559280D01*
G01X7658340D02*
X7693900D01*
G01X7317980Y729420D02*
X7353540D01*
G01X7414500D02*
X7452600D01*
G01X7521180D02*
X7559280D01*
G01X7658340D02*
X7696440D01*
G01X7317980Y726880D02*
X7353540D01*
G01X7414500D02*
X7452600D01*
G01X7521180D02*
X7559280D01*
G01X7655800D02*
X7693900D01*
G01X7317980Y724340D02*
X7353540D01*
G01X7414500D02*
X7452600D01*
G01X7521180D02*
X7559280D01*
G01X7655800D02*
X7696440D01*
G01X7317980Y721800D02*
X7353540D01*
G01X7414500D02*
X7455140D01*
G01X7521180D02*
X7559280D01*
G01X7655800D02*
X7696440D01*
G01X7317980Y719260D02*
X7353540D01*
G01X7414500D02*
X7455140D01*
G01X7521180D02*
X7559280D01*
G01X7655800D02*
X7696440D01*
G01X7317980Y716720D02*
X7353540D01*
G01X7414500D02*
X7457680D01*
G01X7521180D02*
X7559280D01*
G01X7653260D02*
X7696440D01*
G01X7317980Y714180D02*
X7353540D01*
G01X7414500D02*
X7457680D01*
G01X7521180D02*
X7559280D01*
G01X7653260D02*
X7698980D01*
G01X7317980Y711640D02*
X7353540D01*
G01X7414500D02*
X7460220D01*
G01X7521180D02*
X7559280D01*
G01X7653260D02*
X7698980D01*
G01X7317980Y709100D02*
X7353540D01*
G01X7414500D02*
X7460220D01*
G01X7521180D02*
X7559280D01*
G01X7653260D02*
X7698980D01*
G01X7317980Y706560D02*
X7353540D01*
G01X7414500D02*
X7460220D01*
G01X7521180D02*
X7559280D01*
G01X7650720D02*
X7698980D01*
G01X7317980Y704020D02*
X7353540D01*
G01X7414500D02*
X7462760D01*
G01X7521180D02*
X7559280D01*
G01X7650720D02*
X7698980D01*
G01X7317980Y701480D02*
X7353540D01*
G01X7414500D02*
X7462760D01*
G01X7521180D02*
X7559280D01*
G01X7650720D02*
X7701520D01*
G01X7317980Y698940D02*
X7353540D01*
G01X7414500D02*
X7465300D01*
G01X7521180D02*
X7559280D01*
G01X7650720D02*
X7701520D01*
G01X7317980Y696400D02*
X7353540D01*
G01X7414500D02*
X7465300D01*
G01X7521180D02*
X7559280D01*
G01X7648180D02*
X7701520D01*
G01X7317980Y693860D02*
X7353540D01*
G01X7414500D02*
X7465300D01*
G01X7521180D02*
X7559280D01*
G01X7648180D02*
X7701520D01*
G01X7317980Y691320D02*
X7353540D01*
G01X7414500D02*
X7467840D01*
G01X7521180D02*
X7559280D01*
G01X7648180D02*
X7704060D01*
G01X7317980Y688780D02*
X7353540D01*
G01X7414500D02*
X7467840D01*
G01X7521180D02*
X7559280D01*
G01X7648180D02*
X7704060D01*
G01X7317980Y686240D02*
X7353540D01*
G01X7414500D02*
X7467840D01*
G01X7521180D02*
X7559280D01*
G01X7645640D02*
X7704060D01*
G01X7317980Y683700D02*
X7353540D01*
G01X7414500D02*
X7470380D01*
G01X7521180D02*
X7559280D01*
G01X7645640D02*
X7704060D01*
G01X7317980Y681160D02*
X7353540D01*
G01X7414500D02*
X7470380D01*
G01X7521180D02*
X7559280D01*
G01X7645640D02*
X7706600D01*
G01X7317980Y678620D02*
X7353540D01*
G01X7414500D02*
X7472920D01*
G01X7521180D02*
X7559280D01*
G01X7645640D02*
X7706600D01*
G01X7317980Y676080D02*
X7353540D01*
G01X7414500D02*
X7472920D01*
G01X7521180D02*
X7559280D01*
G01X7643100D02*
X7706600D01*
G01X7317980Y673540D02*
X7353540D01*
G01X7414500D02*
X7472920D01*
G01X7521180D02*
X7559280D01*
G01X7643100D02*
X7673580D01*
G01X7676120D02*
X7706600D01*
G01X7317980Y671000D02*
X7353540D01*
G01X7414500D02*
X7475460D01*
G01X7521180D02*
X7559280D01*
G01X7643100D02*
X7673580D01*
G01X7676120D02*
X7709140D01*
G01X7317980Y668460D02*
X7353540D01*
G01X7414500D02*
X7475460D01*
G01X7521180D02*
X7559280D01*
G01X7643100D02*
X7673580D01*
G01X7676120D02*
X7709140D01*
G01X7317980Y665920D02*
X7353540D01*
G01X7414500D02*
X7475460D01*
G01X7521180D02*
X7559280D01*
G01X7640560D02*
X7673580D01*
G01X7678660D02*
X7709140D01*
G01X7317980Y663380D02*
X7353540D01*
G01X7414500D02*
X7478000D01*
G01X7521180D02*
X7559280D01*
G01X7640560D02*
X7673580D01*
G01X7678660D02*
X7709140D01*
G01X7317980Y660840D02*
X7353540D01*
G01X7414500D02*
X7478000D01*
G01X7521180D02*
X7559280D01*
G01X7640560D02*
X7671040D01*
G01X7678660D02*
X7711680D01*
G01X7317980Y658300D02*
X7353540D01*
G01X7414500D02*
X7478000D01*
G01X7521180D02*
X7559280D01*
G01X7640560D02*
X7671040D01*
G01X7678660D02*
X7711680D01*
G01X7317980Y655760D02*
X7353540D01*
G01X7414500D02*
X7480540D01*
G01X7521180D02*
X7559280D01*
G01X7638020D02*
X7671040D01*
G01X7678660D02*
X7711680D01*
G01X7317980Y653220D02*
X7353540D01*
G01X7414500D02*
X7480540D01*
G01X7521180D02*
X7559280D01*
G01X7638020D02*
X7671040D01*
G01X7681200D02*
X7711680D01*
G01X7317980Y650680D02*
X7353540D01*
G01X7414500D02*
X7480540D01*
G01X7521180D02*
X7559280D01*
G01X7638020D02*
X7671040D01*
G01X7681200D02*
X7714220D01*
G01X7317980Y648140D02*
X7353540D01*
G01X7414500D02*
X7483080D01*
G01X7521180D02*
X7559280D01*
G01X7638020D02*
X7668500D01*
G01X7681200D02*
X7714220D01*
G01X7317980Y645600D02*
X7353540D01*
G01X7414500D02*
X7483080D01*
G01X7521180D02*
X7559280D01*
G01X7638020D02*
X7668500D01*
G01X7681200D02*
X7714220D01*
G01X7317980Y643060D02*
X7353540D01*
G01X7414500D02*
X7485620D01*
G01X7521180D02*
X7559280D01*
G01X7635480D02*
X7668500D01*
G01X7683740D02*
X7714220D01*
G01X7317980Y640520D02*
X7353540D01*
G01X7414500D02*
X7485620D01*
G01X7521180D02*
X7559280D01*
G01X7635480D02*
X7668500D01*
G01X7683740D02*
X7716760D01*
G01X7317980Y637980D02*
X7353540D01*
G01X7414500D02*
X7485620D01*
G01X7521180D02*
X7559280D01*
G01X7635480D02*
X7665960D01*
G01X7683740D02*
X7716760D01*
G01X7317980Y635440D02*
X7353540D01*
G01X7414500D02*
X7452600D01*
G01X7455140D02*
X7488160D01*
G01X7521180D02*
X7559280D01*
G01X7635480D02*
X7665960D01*
G01X7683740D02*
X7716760D01*
G01X7317980Y632900D02*
X7353540D01*
G01X7414500D02*
X7452600D01*
G01X7455140D02*
X7488160D01*
G01X7521180D02*
X7559280D01*
G01X7632940D02*
X7665960D01*
G01X7683740D02*
X7716760D01*
G01X7317980Y630360D02*
X7353540D01*
G01X7414500D02*
X7452600D01*
G01X7455140D02*
X7488160D01*
G01X7521180D02*
X7559280D01*
G01X7632940D02*
X7665960D01*
G01X7686280D02*
X7719300D01*
G01X7317980Y627820D02*
X7353540D01*
G01X7414500D02*
X7452600D01*
G01X7457680D02*
X7490700D01*
G01X7521180D02*
X7559280D01*
G01X7632940D02*
X7665960D01*
G01X7686280D02*
X7719300D01*
G01X7317980Y625280D02*
X7353540D01*
G01X7414500D02*
X7452600D01*
G01X7457680D02*
X7490700D01*
G01X7521180D02*
X7559280D01*
G01X7632940D02*
X7663420D01*
G01X7686280D02*
X7719300D01*
G01X7317980Y622740D02*
X7353540D01*
G01X7414500D02*
X7452600D01*
G01X7460220D02*
X7493240D01*
G01X7521180D02*
X7559280D01*
G01X7632940D02*
X7663420D01*
G01X7686280D02*
X7719300D01*
G01X7317980Y620200D02*
X7353540D01*
G01X7414500D02*
X7452600D01*
G01X7460220D02*
X7493240D01*
G01X7521180D02*
X7559280D01*
G01X7632940D02*
X7663420D01*
G01X7686280D02*
X7719300D01*
G01X7317980Y617660D02*
X7353540D01*
G01X7414500D02*
X7452600D01*
G01X7462760D02*
X7495780D01*
G01X7521180D02*
X7559280D01*
G01X7632940D02*
X7665960D01*
G01X7317980Y615120D02*
X7353540D01*
G01X7414500D02*
X7452600D01*
G01X7462760D02*
X7495780D01*
G01X7521180D02*
X7559280D01*
G01X7630400D02*
X7663420D01*
G01X7317980Y612580D02*
X7353540D01*
G01X7414500D02*
X7452600D01*
G01X7462760D02*
X7495780D01*
G01X7521180D02*
X7559280D01*
G01X7630400D02*
X7663420D01*
G01X7317980Y610040D02*
X7353540D01*
G01X7414500D02*
X7452600D01*
G01X7465300D02*
X7498320D01*
G01X7521180D02*
X7559280D01*
G01X7630400D02*
X7663420D01*
G01X7317980Y607500D02*
X7353540D01*
G01X7414500D02*
X7452600D01*
G01X7465300D02*
X7498320D01*
G01X7521180D02*
X7559280D01*
G01X7630400D02*
X7663420D01*
G01X7317980Y604960D02*
X7353540D01*
G01X7414500D02*
X7452600D01*
G01X7467840D02*
X7500860D01*
G01X7521180D02*
X7559280D01*
G01X7627860D02*
X7660880D01*
G01X7317980Y602420D02*
X7353540D01*
G01X7414500D02*
X7452600D01*
G01X7467840D02*
X7500860D01*
G01X7521180D02*
X7559280D01*
G01X7627860D02*
X7660880D01*
G01X7317980Y599880D02*
X7353540D01*
G01X7414500D02*
X7452600D01*
G01X7467840D02*
X7500860D01*
G01X7521180D02*
X7559280D01*
G01X7627860D02*
X7660880D01*
G01X7317980Y597340D02*
X7353540D01*
G01X7414500D02*
X7452600D01*
G01X7470380D02*
X7503400D01*
G01X7521180D02*
X7559280D01*
G01X7625320D02*
X7660880D01*
G01X7317980Y594800D02*
X7353540D01*
G01X7414500D02*
X7452600D01*
G01X7470380D02*
X7503400D01*
G01X7521180D02*
X7559280D01*
G01X7625320D02*
X7658340D01*
G01X7317980Y592260D02*
X7353540D01*
G01X7414500D02*
X7452600D01*
G01X7470380D02*
X7503400D01*
G01X7521180D02*
X7559280D01*
G01X7625320D02*
X7658340D01*
G01X7317980Y589720D02*
X7353540D01*
G01X7414500D02*
X7452600D01*
G01X7472920D02*
X7505940D01*
G01X7521180D02*
X7559280D01*
G01X7625320D02*
X7658340D01*
G01X7317980Y587180D02*
X7353540D01*
G01X7414500D02*
X7452600D01*
G01X7472920D02*
X7505940D01*
G01X7521180D02*
X7559280D01*
G01X7622780D02*
X7658340D01*
G01X7317980Y584640D02*
X7353540D01*
G01X7414500D02*
X7452600D01*
G01X7475460D02*
X7508480D01*
G01X7521180D02*
X7559280D01*
G01X7622780D02*
X7658340D01*
G01X7317980Y582100D02*
X7353540D01*
G01X7414500D02*
X7452600D01*
G01X7475460D02*
X7508480D01*
G01X7521180D02*
X7559280D01*
G01X7622780D02*
X7655800D01*
G01X7317980Y579560D02*
X7353540D01*
G01X7414500D02*
X7452600D01*
G01X7475460D02*
X7508480D01*
G01X7521180D02*
X7559280D01*
G01X7622780D02*
X7655800D01*
G01X7317980Y577020D02*
X7353540D01*
G01X7414500D02*
X7452600D01*
G01X7478000D02*
X7508480D01*
G01X7521180D02*
X7559280D01*
G01X7622780D02*
X7655800D01*
G01X7317980Y574480D02*
X7353540D01*
G01X7414500D02*
X7452600D01*
G01X7478000D02*
X7508480D01*
G01X7521180D02*
X7559280D01*
G01X7620240D02*
X7655800D01*
G01X7317980Y571940D02*
X7353540D01*
G01X7414500D02*
X7452600D01*
G01X7478000D02*
X7511020D01*
G01X7521180D02*
X7559280D01*
G01X7620240D02*
X7655800D01*
G01X7317980Y569400D02*
X7353540D01*
G01X7414500D02*
X7452600D01*
G01X7480540D02*
X7513560D01*
G01X7521180D02*
X7559280D01*
G01X7620240D02*
X7653260D01*
G01X7317980Y566860D02*
X7353540D01*
G01X7414500D02*
X7452600D01*
G01X7480540D02*
X7513560D01*
G01X7521180D02*
X7559280D01*
G01X7620240D02*
X7653260D01*
G01X7317980Y564320D02*
X7353540D01*
G01X7414500D02*
X7452600D01*
G01X7480540D02*
X7513560D01*
G01X7521180D02*
X7559280D01*
G01X7617700D02*
X7653260D01*
G01X7317980Y561780D02*
X7353540D01*
G01X7414500D02*
X7452600D01*
G01X7483080D02*
X7516100D01*
G01X7521180D02*
X7559280D01*
G01X7617700D02*
X7653260D01*
G01X7317980Y559240D02*
X7353540D01*
G01X7414500D02*
X7452600D01*
G01X7483080D02*
X7516100D01*
G01X7521180D02*
X7559280D01*
G01X7617700D02*
X7650720D01*
G01X7317980Y556700D02*
X7353540D01*
G01X7414500D02*
X7452600D01*
G01X7483080D02*
X7516100D01*
G01X7521180D02*
X7559280D01*
G01X7617700D02*
X7650720D01*
G01X7317980Y554160D02*
X7353540D01*
G01X7414500D02*
X7452600D01*
G01X7485620D02*
X7518640D01*
G01X7521180D02*
X7559280D01*
G01X7615160D02*
X7650720D01*
G01X7317980Y551620D02*
X7353540D01*
G01X7414500D02*
X7452600D01*
G01X7485620D02*
X7518640D01*
G01X7521180D02*
X7559280D01*
G01X7615160D02*
X7650720D01*
G01X7317980Y549080D02*
X7353540D01*
G01X7414500D02*
X7452600D01*
G01X7488160D02*
X7559280D01*
G01X7615160D02*
X7737080D01*
G01X7317980Y546540D02*
X7353540D01*
G01X7414500D02*
X7452600D01*
G01X7488160D02*
X7559280D01*
G01X7615160D02*
X7737080D01*
G01X7317980Y544000D02*
X7353540D01*
G01X7414500D02*
X7452600D01*
G01X7488160D02*
X7559280D01*
G01X7612620D02*
X7737080D01*
G01X7317980Y541460D02*
X7353540D01*
G01X7414500D02*
X7452600D01*
G01X7490700D02*
X7559280D01*
G01X7612620D02*
X7737080D01*
G01X7317980Y538920D02*
X7353540D01*
G01X7414500D02*
X7452600D01*
G01X7490700D02*
X7559280D01*
G01X7612620D02*
X7739620D01*
G01X7317980Y536380D02*
X7353540D01*
G01X7414500D02*
X7452600D01*
G01X7490700D02*
X7559280D01*
G01X7612620D02*
X7739620D01*
G01X7317980Y533840D02*
X7353540D01*
G01X7414500D02*
X7452600D01*
G01X7493240D02*
X7559280D01*
G01X7610080D02*
X7739620D01*
G01X7317980Y531300D02*
X7353540D01*
G01X7414500D02*
X7452600D01*
G01X7493240D02*
X7559280D01*
G01X7610080D02*
X7739620D01*
G01X7317980Y528760D02*
X7353540D01*
G01X7414500D02*
X7452600D01*
G01X7495780D02*
X7559280D01*
G01X7610080D02*
X7742160D01*
G01X7317980Y526220D02*
X7353540D01*
G01X7414500D02*
X7452600D01*
G01X7495780D02*
X7559280D01*
G01X7610080D02*
X7742160D01*
G01X7317980Y523680D02*
X7353540D01*
G01X7414500D02*
X7452600D01*
G01X7498320D02*
X7559280D01*
G01X7607540D02*
X7742160D01*
G01X7317980Y521140D02*
X7353540D01*
G01X7414500D02*
X7452600D01*
G01X7498320D02*
X7559280D01*
G01X7607540D02*
X7744700D01*
G01X7317980Y518600D02*
X7353540D01*
G01X7414500D02*
X7452600D01*
G01X7498320D02*
X7559280D01*
G01X7607540D02*
X7744700D01*
G01X7317980Y516060D02*
X7353540D01*
G01X7414500D02*
X7452600D01*
G01X7500860D02*
X7559280D01*
G01X7605000D02*
X7643100D01*
G01X7317980Y513520D02*
X7353540D01*
G01X7414500D02*
X7452600D01*
G01X7500860D02*
X7559280D01*
G01X7605000D02*
X7643100D01*
G01X7317980Y510980D02*
X7353540D01*
G01X7414500D02*
X7452600D01*
G01X7503400D02*
X7559280D01*
G01X7605000D02*
X7640560D01*
G01X7317980Y508440D02*
X7353540D01*
G01X7414500D02*
X7452600D01*
G01X7503400D02*
X7559280D01*
G01X7605000D02*
X7640560D01*
G01X7317980Y505900D02*
X7353540D01*
G01X7414500D02*
X7452600D01*
G01X7503400D02*
X7559280D01*
G01X7605000D02*
X7640560D01*
G01X7317980Y503360D02*
X7353540D01*
G01X7414500D02*
X7452600D01*
G01X7505940D02*
X7559280D01*
G01X7602460D02*
X7640560D01*
G01X7317980Y500820D02*
X7353540D01*
G01X7414500D02*
X7452600D01*
G01X7505940D02*
X7559280D01*
G01X7602460D02*
X7640560D01*
G01X7317980Y498280D02*
X7353540D01*
G01X7414500D02*
X7452600D01*
G01X7505940D02*
X7559280D01*
G01X7602460D02*
X7638020D01*
G01X7317980Y495740D02*
X7353540D01*
G01X7414500D02*
X7452600D01*
G01X7508480D02*
X7559280D01*
G01X7602460D02*
X7638020D01*
G01X7317980Y493200D02*
X7353540D01*
G01X7414500D02*
X7452600D01*
G01X7508480D02*
X7559280D01*
G01X7599920D02*
X7638020D01*
G01X7317980Y490660D02*
X7353540D01*
G01X7414500D02*
X7452600D01*
G01X7508480D02*
X7559280D01*
G01X7602460D02*
X7638020D01*
G01X7317980Y488120D02*
X7353540D01*
G01X7414500D02*
X7452600D01*
G01X7508480D02*
X7559280D01*
G01X7602460D02*
X7635480D01*
G01X7317980Y485580D02*
X7353540D01*
G01X7414500D02*
X7452600D01*
G01X7511020D02*
X7559280D01*
G01X7599920D02*
X7635480D01*
G01X7317980Y483040D02*
X7353540D01*
G01X7414500D02*
X7452600D01*
G01X7511020D02*
X7559280D01*
G01X7599920D02*
X7635480D01*
G01X7317980Y480500D02*
X7353540D01*
G01X7414500D02*
X7452600D01*
G01X7513560D02*
X7559280D01*
G01X7599920D02*
X7635480D01*
G01X7317980Y477960D02*
X7353540D01*
G01X7414500D02*
X7452600D01*
G01X7513560D02*
X7559280D01*
G01X7599920D02*
X7632940D01*
G01X7317980Y475420D02*
X7353540D01*
G01X7414500D02*
X7452600D01*
G01X7513560D02*
X7559280D01*
G01X7597380D02*
X7632940D01*
G01X7317980Y472880D02*
X7353540D01*
G01X7414500D02*
X7452600D01*
G01X7516100D02*
X7559280D01*
G01X7597380D02*
X7632940D01*
G01X7317980Y470340D02*
X7353540D01*
G01X7414500D02*
X7452600D01*
G01X7516100D02*
X7559280D01*
G01X7597380D02*
X7635480D01*
G01X7317980Y467800D02*
X7353540D01*
G01X7414500D02*
X7452600D01*
G01X7518640D02*
X7559280D01*
G01X7597380D02*
X7632940D01*
G01X7317980Y465260D02*
X7353540D01*
G01X7414500D02*
X7452600D01*
G01X7518640D02*
X7559280D01*
G01X7594840D02*
X7630400D01*
G01X7317980Y462720D02*
X7353540D01*
G01X7414500D02*
X7452600D01*
G01X7521180D02*
X7559280D01*
G01X7594840D02*
X7632940D01*
G01X7317980Y460180D02*
X7353540D01*
G01X7414500D02*
X7452600D01*
G01X7521180D02*
X7559280D01*
G01X7594840D02*
X7632940D01*
G01X7317980Y457640D02*
X7353540D01*
G01X7414500D02*
X7452600D01*
G01X7521180D02*
X7559280D01*
G01X7594840D02*
X7632940D01*
G01X7602460Y1125660D02*
X7627860D01*
G01X7594840Y1123120D02*
X7635480D01*
G01X7589760Y1120580D02*
X7640560D01*
G01X7584680Y1118040D02*
X7648180D01*
G01X7582140Y1115500D02*
X7650720D01*
G01X7579600Y1112960D02*
X7653260D01*
G01X7577060Y1110420D02*
X7653260D01*
G01X7574520Y1107880D02*
X7612620D01*
G01X7617700D02*
X7655800D01*
G01X7571980Y1105340D02*
X7610080D01*
G01X7620240D02*
X7658340D01*
G01X7569440Y1102800D02*
X7610080D01*
G01X7622780D02*
X7663420D01*
G01X7566900Y1100260D02*
X7607540D01*
G01X7622780D02*
X7663420D01*
G01X7566900Y1097720D02*
X7605000D01*
G01X7625320D02*
X7665960D01*
G01X7564360Y1095180D02*
X7605000D01*
G01X7625320D02*
X7665960D01*
G01X7564360Y1092640D02*
X7602460D01*
G01X7627860D02*
X7665960D01*
G01X7561820Y1090100D02*
X7602460D01*
G01X7630400D02*
X7668500D01*
G01X7561820Y1087560D02*
X7597380D01*
G01X7630400D02*
X7668500D01*
G01X7561820Y1085020D02*
X7599920D01*
G01X7630400D02*
X7668500D01*
G01X7561820Y1082480D02*
X7597380D01*
G01X7632940D02*
X7671040D01*
G01X7559280Y1079940D02*
X7597380D01*
G01X7635480D02*
X7671040D01*
G01X7559280Y1077400D02*
X7594840D01*
G01X7635480D02*
X7671040D01*
G01X7559280Y1074860D02*
X7594840D01*
G01X7635480D02*
X7671040D01*
G01X7559280Y1072320D02*
X7587220D01*
G01X7589760D02*
X7592300D01*
G01X7605000D02*
X7607540D01*
G01X7622780D02*
X7625320D01*
G01X7638020D02*
X7671040D01*
G01X7559280Y1069780D02*
X7589760D01*
G01X7605000D02*
X7607540D01*
G01X7622780D02*
X7625320D01*
G01X7640560D02*
X7671040D01*
G01X7559280Y1067240D02*
X7589760D01*
G01X7602460D02*
X7607540D01*
G01X7622780D02*
X7627860D01*
G01X7640560D02*
X7671040D01*
G01X7559280Y1064700D02*
X7587220D01*
G01X7602460D02*
X7607540D01*
G01X7622780D02*
X7627860D01*
G01X7643100D02*
X7668500D01*
G01X7559280Y1062160D02*
X7584680D01*
G01X7602460D02*
X7607540D01*
G01X7622780D02*
X7630400D01*
G01X7643100D02*
X7668500D01*
G01X7561820Y1059620D02*
X7584680D01*
G01X7599920D02*
X7607540D01*
G01X7622780D02*
X7632940D01*
G01X7645640D02*
X7668500D01*
G01X7561820Y1057080D02*
X7582140D01*
G01X7597380D02*
X7607540D01*
G01X7622780D02*
X7632940D01*
G01X7648180D02*
X7668500D01*
G01X7561820Y1054540D02*
X7582140D01*
G01X7597380D02*
X7607540D01*
G01X7622780D02*
X7632940D01*
G01X7650720D02*
X7668500D01*
G01X7561820Y1052000D02*
X7579600D01*
G01X7594840D02*
X7607540D01*
G01X7622780D02*
X7635480D01*
G01X7650720D02*
X7665960D01*
G01X7564360Y1049460D02*
X7579600D01*
G01X7594840D02*
X7607540D01*
G01X7622780D02*
X7635480D01*
G01X7653260D02*
X7665960D01*
G01X7564360Y1046920D02*
X7577060D01*
G01X7592300D02*
X7607540D01*
G01X7622780D02*
X7638020D01*
G01X7653260D02*
X7655800D01*
G01X7658340D02*
X7665960D01*
G01X7566900Y1044380D02*
X7574520D01*
G01X7589760D02*
X7607540D01*
G01X7622780D02*
X7640560D01*
G01X7655800D02*
X7658340D01*
G01X7660880D02*
X7663420D01*
G01X7566900Y1041840D02*
X7574520D01*
G01X7589760D02*
X7607540D01*
G01X7622780D02*
X7640560D01*
G01X7655800D02*
X7658340D01*
G01X7660880D02*
X7663420D01*
G01X7569440Y1039300D02*
X7571980D01*
G01X7587220D02*
X7607540D01*
G01X7622780D02*
X7643100D01*
G01X7658340D02*
X7660880D01*
G01X7587220Y1036760D02*
X7607540D01*
G01X7622780D02*
X7643100D01*
G01X7658340D02*
X7660880D01*
G01X7584680Y1034220D02*
X7607540D01*
G01X7622780D02*
X7645640D01*
G01X7584680Y1031680D02*
X7607540D01*
G01X7622780D02*
X7645640D01*
G01X7582140Y1029140D02*
X7607540D01*
G01X7622780D02*
X7648180D01*
G01X7579600Y1026600D02*
X7607540D01*
G01X7622780D02*
X7650720D01*
G01X7579600Y1024060D02*
X7607540D01*
G01X7622780D02*
X7650720D01*
G01X7577060Y1021520D02*
X7607540D01*
G01X7622780D02*
X7653260D01*
G01X7577060Y1018980D02*
X7607540D01*
G01X7622780D02*
X7655800D01*
G01X7574520Y1016440D02*
X7607540D01*
G01X7622780D02*
X7658340D01*
G01X7574520Y1013900D02*
X7607540D01*
G01X7622780D02*
X7658340D01*
G01X7571980Y1011360D02*
X7607540D01*
G01X7622780D02*
X7660880D01*
G01X7569440Y1008820D02*
X7607540D01*
G01X7622780D02*
X7660880D01*
G01X7569440Y1006280D02*
X7607540D01*
G01X7622780D02*
X7663420D01*
G01X7566900Y1003740D02*
X7607540D01*
G01X7622780D02*
X7663420D01*
G01X7564360Y1001200D02*
X7607540D01*
G01X7622780D02*
X7663420D01*
G01X7564360Y998660D02*
X7607540D01*
G01X7622780D02*
X7665960D01*
G01X7561820Y996120D02*
X7607540D01*
G01X7622780D02*
X7668500D01*
G01X7561820Y993580D02*
X7607540D01*
G01X7622780D02*
X7668500D01*
G01X7559280Y991040D02*
X7607540D01*
G01X7622780D02*
X7671040D01*
G01X7559280Y988500D02*
X7607540D01*
G01X7622780D02*
X7671040D01*
G01X7556740Y985960D02*
X7607540D01*
G01X7622780D02*
X7673580D01*
G01X7556740Y983420D02*
X7607540D01*
G01X7622780D02*
X7676120D01*
G01X7554200Y980880D02*
X7607540D01*
G01X7622780D02*
X7676120D01*
G01X7551660Y978340D02*
X7607540D01*
G01X7622780D02*
X7678660D01*
G01X7551660Y975800D02*
X7607540D01*
G01X7622780D02*
X7678660D01*
G01X7549120Y973260D02*
X7607540D01*
G01X7622780D02*
X7681200D01*
G01X7549120Y970720D02*
X7607540D01*
G01X7622780D02*
X7681200D01*
G01X7546580Y968180D02*
X7607540D01*
G01X7622780D02*
X7683740D01*
G01X7544040Y965640D02*
X7607540D01*
G01X7622780D02*
X7686280D01*
G01X7544040Y963100D02*
X7607540D01*
G01X7622780D02*
X7686280D01*
G01X7541500Y960560D02*
X7607540D01*
G01X7622780D02*
X7688820D01*
G01X7541500Y958020D02*
X7607540D01*
G01X7622780D02*
X7688820D01*
G01X7538960Y955480D02*
X7607540D01*
G01X7622780D02*
X7691360D01*
G01X7538960Y952940D02*
X7607540D01*
G01X7622780D02*
X7691360D01*
G01X7536420Y950400D02*
X7607540D01*
G01X7622780D02*
X7693900D01*
G01X7536420Y947860D02*
X7607540D01*
G01X7622780D02*
X7696440D01*
G01X7533880Y945320D02*
X7607540D01*
G01X7622780D02*
X7696440D01*
G01X7533880Y942780D02*
X7607540D01*
G01X7622780D02*
X7698980D01*
G01X7531340Y940240D02*
X7607540D01*
G01X7622780D02*
X7701520D01*
G01X7528800Y937700D02*
X7607540D01*
G01X7622780D02*
X7701520D01*
G01X7526260Y935160D02*
X7607540D01*
G01X7622780D02*
X7704060D01*
G01X7526260Y932620D02*
X7607540D01*
G01X7622780D02*
X7704060D01*
G01X7523720Y930080D02*
X7602460D01*
G01X7627860D02*
X7706600D01*
G01X7521180Y927540D02*
X7599920D01*
G01X7630400D02*
X7706600D01*
G01X7521180Y925000D02*
X7594840D01*
G01X7635480D02*
X7709140D01*
G01X7518640Y922460D02*
X7589760D01*
G01X7640560D02*
X7711680D01*
G01X7518640Y919920D02*
X7587220D01*
G01X7610080D02*
X7620240D01*
G01X7645640D02*
X7711680D01*
G01X7516100Y917380D02*
X7582140D01*
G01X7607540D02*
X7622780D01*
G01X7648180D02*
X7714220D01*
G01X7516100Y914840D02*
X7577060D01*
G01X7602460D02*
X7627860D01*
G01X7653260D02*
X7714220D01*
G01X7483080Y912300D02*
X7500860D01*
G01X7513560D02*
X7571980D01*
G01X7597380D02*
X7632940D01*
G01X7658340D02*
X7716760D01*
G01X7470380Y909760D02*
X7493240D01*
G01X7495780D02*
X7498320D01*
G01X7513560D02*
X7566900D01*
G01X7594840D02*
X7635480D01*
G01X7660880D02*
X7716760D01*
G01X7467840Y907220D02*
X7498320D01*
G01X7511020D02*
X7564360D01*
G01X7592300D02*
X7640560D01*
G01X7665960D02*
X7719300D01*
G01X7460220Y904680D02*
X7495780D01*
G01X7508480D02*
X7559280D01*
G01X7587220D02*
X7645640D01*
G01X7671040D02*
X7721840D01*
G01X7457680Y902140D02*
X7493240D01*
G01X7508480D02*
X7556740D01*
G01X7582140D02*
X7648180D01*
G01X7676120D02*
X7721840D01*
G01X7455140Y899600D02*
X7493240D01*
G01X7508480D02*
X7551660D01*
G01X7577060D02*
X7653260D01*
G01X7678660D02*
X7724380D01*
G01X7452600Y897060D02*
X7490700D01*
G01X7505940D02*
X7546580D01*
G01X7571980D02*
X7658340D01*
G01X7683740D02*
X7724380D01*
G01X7450060Y894520D02*
X7483080D01*
G01X7485620D02*
X7488160D01*
G01X7505940D02*
X7541500D01*
G01X7569440D02*
X7663420D01*
G01X7450060Y891980D02*
X7483080D01*
G01X7503400D02*
X7538960D01*
G01X7564360D02*
X7665960D01*
G01X7447520Y889440D02*
X7485620D01*
G01X7500860D02*
X7533880D01*
G01X7559280D02*
X7671040D01*
G01X7444980Y886900D02*
X7483080D01*
G01X7500860D02*
X7528800D01*
G01X7554200D02*
X7676120D01*
G01X7442440Y884360D02*
X7480540D01*
G01X7498320D02*
X7526260D01*
G01X7551660D02*
X7678660D01*
G01X7442440Y881820D02*
X7480540D01*
G01X7498320D02*
X7521180D01*
G01X7546580D02*
X7683740D01*
G01X7439900Y879280D02*
X7478000D01*
G01X7495780D02*
X7516100D01*
G01X7541500D02*
X7688820D01*
G01X7439900Y876740D02*
X7478000D01*
G01X7493240D02*
X7511020D01*
G01X7536420D02*
X7693900D01*
G01X7437360Y874200D02*
X7478000D01*
G01X7493240D02*
X7505940D01*
G01X7533880D02*
X7696440D01*
G01X7437360Y871660D02*
X7475460D01*
G01X7490700D02*
X7503400D01*
G01X7528800D02*
X7701520D01*
G01X7437360Y869120D02*
X7475460D01*
G01X7490700D02*
X7495780D01*
G01X7523720D02*
X7709140D01*
G01X7437360Y866580D02*
X7472920D01*
G01X7488160D02*
X7493240D01*
G01X7521180D02*
X7711680D01*
G01X7437360Y864040D02*
X7472920D01*
G01X7485620D02*
X7488160D01*
G01X7516100D02*
X7716760D01*
G01X7437360Y861500D02*
X7470380D01*
G01X7511020D02*
X7719300D01*
G01X7437360Y858960D02*
X7467840D01*
G01X7508480D02*
X7724380D01*
G01X7437360Y856420D02*
X7467840D01*
G01X7503400D02*
X7726920D01*
G01X7437360Y853880D02*
X7465300D01*
G01X7498320D02*
X7732000D01*
G01X7437360Y851340D02*
X7465300D01*
G01X7493240D02*
X7737080D01*
G01X7437360Y848800D02*
X7462760D01*
G01X7437360Y846260D02*
X7457680D01*
G01X7437360Y843720D02*
X7460220D01*
G01X7437360Y841180D02*
X7457680D01*
G01X7439900Y838640D02*
X7457680D01*
G01X7490700D02*
X7528800D01*
G01X7721840Y455100D02*
X7759940D01*
G01X7792960D02*
X7828520D01*
G01X7940280D02*
X7975840D01*
G01X8039340D02*
X8072360D01*
G01X7721840Y452560D02*
X7759940D01*
G01X7792960D02*
X7828520D01*
G01X7940280D02*
X7975840D01*
G01X8039340D02*
X8072360D01*
G01X7721840Y450020D02*
X7757400D01*
G01X7792960D02*
X7828520D01*
G01X7940280D02*
X7975840D01*
G01X8039340D02*
X8072360D01*
G01X7701520Y363660D02*
X7721840D01*
G01X7762480D02*
X7777720D01*
G01X7800580D02*
X7815820D01*
G01X7838680D02*
X7884400D01*
G01X7909800D02*
X7940280D01*
G01X7996160D02*
X8013940D01*
G01X8059660D02*
X8072360D01*
G01X7696440Y361120D02*
X7724380D01*
G01X7762480D02*
X7780260D01*
G01X7800580D02*
X7815820D01*
G01X7836140D02*
X7886940D01*
G01X7909800D02*
X7945360D01*
G01X7991080D02*
X8021560D01*
G01X8059660D02*
X8072360D01*
G01X7691360Y358580D02*
X7726920D01*
G01X7762480D02*
X7780260D01*
G01X7800580D02*
X7815820D01*
G01X7836140D02*
X7886940D01*
G01X7909800D02*
X7947900D01*
G01X7986000D02*
X8024100D01*
G01X8059660D02*
X8072360D01*
G01X7688820Y356040D02*
X7729460D01*
G01X7762480D02*
X7782800D01*
G01X7800580D02*
X7815820D01*
G01X7836140D02*
X7886940D01*
G01X7909800D02*
X7950440D01*
G01X7983460D02*
X8026640D01*
G01X8059660D02*
X8072360D01*
G01X7762480Y353500D02*
X7782800D01*
G01X7800580D02*
X7815820D01*
G01X7836140D02*
X7886940D01*
G01X7909800D02*
X7952980D01*
G01X7983460D02*
X8029180D01*
G01X8059660D02*
X8072360D01*
G01X7714220Y350960D02*
X7734540D01*
G01X7762480D02*
X7785340D01*
G01X7800580D02*
X7815820D01*
G01X7836140D02*
X7884400D01*
G01X7909800D02*
X7922500D01*
G01X7925040D02*
X7952980D01*
G01X7980920D02*
X8001240D01*
G01X8011400D02*
X8031720D01*
G01X8059660D02*
X8072360D01*
G01X7719300Y348420D02*
X7734540D01*
G01X7762480D02*
X7787880D01*
G01X7800580D02*
X7815820D01*
G01X7853920D02*
X7869160D01*
G01X7909800D02*
X7922500D01*
G01X7940280D02*
X7952980D01*
G01X7978380D02*
X7996160D01*
G01X8016480D02*
X8031720D01*
G01X8059660D02*
X8072360D01*
G01X7721840Y345880D02*
X7737080D01*
G01X7762480D02*
X7787880D01*
G01X7800580D02*
X7815820D01*
G01X7853920D02*
X7869160D01*
G01X7909800D02*
X7922500D01*
G01X7940280D02*
X7955520D01*
G01X7978380D02*
X7996160D01*
G01X8016480D02*
X8034260D01*
G01X8059660D02*
X8072360D01*
G01X7721840Y343340D02*
X7737080D01*
G01X7762480D02*
X7790420D01*
G01X7800580D02*
X7815820D01*
G01X7853920D02*
X7869160D01*
G01X7909800D02*
X7922500D01*
G01X7940280D02*
X7955520D01*
G01X7975840D02*
X7993620D01*
G01X8019020D02*
X8034260D01*
G01X8059660D02*
X8072360D01*
G01X7724380Y340800D02*
X7737080D01*
G01X7762480D02*
X7790420D01*
G01X7800580D02*
X7815820D01*
G01X7853920D02*
X7869160D01*
G01X7909800D02*
X7922500D01*
G01X7940280D02*
X7955520D01*
G01X7978380D02*
X7993620D01*
G01X8019020D02*
X8034260D01*
G01X8059660D02*
X8072360D01*
G01X7724380Y338260D02*
X7739620D01*
G01X7762480D02*
X7790420D01*
G01X7800580D02*
X7815820D01*
G01X7853920D02*
X7869160D01*
G01X7909800D02*
X7922500D01*
G01X7940280D02*
X7955520D01*
G01X7978380D02*
X7991080D01*
G01X8019020D02*
X8034260D01*
G01X8059660D02*
X8072360D01*
G01X7724380Y335720D02*
X7739620D01*
G01X7762480D02*
X7792960D01*
G01X7800580D02*
X7815820D01*
G01X7853920D02*
X7869160D01*
G01X7909800D02*
X7922500D01*
G01X7932660D02*
X7952980D01*
G01X7978380D02*
X7991080D01*
G01X8019020D02*
X8036800D01*
G01X8059660D02*
X8072360D01*
G01X7726920Y333180D02*
X7739620D01*
G01X7762480D02*
X7792960D01*
G01X7800580D02*
X7815820D01*
G01X7853920D02*
X7869160D01*
G01X7909800D02*
X7952980D01*
G01X7975840D02*
X7991080D01*
G01X8021560D02*
X8036800D01*
G01X8059660D02*
X8072360D01*
G01X7726920Y330640D02*
X7739620D01*
G01X7762480D02*
X7777720D01*
G01X7780260D02*
X7795500D01*
G01X7800580D02*
X7815820D01*
G01X7853920D02*
X7869160D01*
G01X7909800D02*
X7950440D01*
G01X7975840D02*
X7991080D01*
G01X8021560D02*
X8036800D01*
G01X8059660D02*
X8072360D01*
G01X7726920Y328100D02*
X7739620D01*
G01X7762480D02*
X7777720D01*
G01X7782800D02*
X7798040D01*
G01X7800580D02*
X7815820D01*
G01X7853920D02*
X7869160D01*
G01X7909800D02*
X7947900D01*
G01X7975840D02*
X7991080D01*
G01X8021560D02*
X8036800D01*
G01X8059660D02*
X8072360D01*
G01X7726920Y325560D02*
X7739620D01*
G01X7762480D02*
X7777720D01*
G01X7782800D02*
X7798040D01*
G01X7800580D02*
X7815820D01*
G01X7853920D02*
X7869160D01*
G01X7909800D02*
X7945360D01*
G01X7975840D02*
X7991080D01*
G01X8021560D02*
X8036800D01*
G01X8059660D02*
X8072360D01*
G01X7726920Y323020D02*
X7739620D01*
G01X7762480D02*
X7777720D01*
G01X7785340D02*
X7815820D01*
G01X7853920D02*
X7869160D01*
G01X7909800D02*
X7942820D01*
G01X7975840D02*
X7991080D01*
G01X8021560D02*
X8036800D01*
G01X8059660D02*
X8072360D01*
G01X7724380Y320480D02*
X7739620D01*
G01X7762480D02*
X7777720D01*
G01X7785340D02*
X7815820D01*
G01X7853920D02*
X7869160D01*
G01X7909800D02*
X7922500D01*
G01X7927580D02*
X7945360D01*
G01X7978380D02*
X7991080D01*
G01X8019020D02*
X8036800D01*
G01X8059660D02*
X8072360D01*
G01X7724380Y317940D02*
X7739620D01*
G01X7762480D02*
X7777720D01*
G01X7787880D02*
X7815820D01*
G01X7853920D02*
X7869160D01*
G01X7909800D02*
X7922500D01*
G01X7927580D02*
X7945360D01*
G01X7978380D02*
X7991080D01*
G01X8019020D02*
X8036800D01*
G01X8059660D02*
X8072360D01*
G01X7724380Y315400D02*
X7739620D01*
G01X7762480D02*
X7777720D01*
G01X7787880D02*
X7815820D01*
G01X7853920D02*
X7869160D01*
G01X7909800D02*
X7922500D01*
G01X7930120D02*
X7945360D01*
G01X7978380D02*
X7991080D01*
G01X8019020D02*
X8034260D01*
G01X8059660D02*
X8072360D01*
G01X7724380Y312860D02*
X7737080D01*
G01X7762480D02*
X7777720D01*
G01X7790420D02*
X7815820D01*
G01X7853920D02*
X7869160D01*
G01X7909800D02*
X7922500D01*
G01X7930120D02*
X7947900D01*
G01X7975840D02*
X7993620D01*
G01X8019020D02*
X8034260D01*
G01X8059660D02*
X8072360D01*
G01X7721840Y310320D02*
X7737080D01*
G01X7762480D02*
X7777720D01*
G01X7790420D02*
X7815820D01*
G01X7853920D02*
X7869160D01*
G01X7909800D02*
X7922500D01*
G01X7932660D02*
X7947900D01*
G01X7978380D02*
X7993620D01*
G01X8019020D02*
X8034260D01*
G01X8059660D02*
X8072360D01*
G01X7719300Y307780D02*
X7737080D01*
G01X7762480D02*
X7777720D01*
G01X7790420D02*
X7815820D01*
G01X7853920D02*
X7869160D01*
G01X7909800D02*
X7922500D01*
G01X7932660D02*
X7950440D01*
G01X7978380D02*
X7996160D01*
G01X8016480D02*
X8031720D01*
G01X8059660D02*
X8072360D01*
G01X7716760Y305240D02*
X7734540D01*
G01X7762480D02*
X7777720D01*
G01X7792960D02*
X7815820D01*
G01X7853920D02*
X7869160D01*
G01X7909800D02*
X7922500D01*
G01X7935200D02*
X7950440D01*
G01X7980920D02*
X7998700D01*
G01X8013940D02*
X8031720D01*
G01X8059660D02*
X8072360D01*
G01X7762480Y302700D02*
X7777720D01*
G01X7792960D02*
X7815820D01*
G01X7853920D02*
X7869160D01*
G01X7909800D02*
X7922500D01*
G01X7937740D02*
X7952980D01*
G01X7980920D02*
X8029180D01*
G01X8059660D02*
X8095220D01*
G01X7688820Y300160D02*
X7732000D01*
G01X7762480D02*
X7777720D01*
G01X7795500D02*
X7815820D01*
G01X7853920D02*
X7869160D01*
G01X7909800D02*
X7922500D01*
G01X7937740D02*
X7952980D01*
G01X7983460D02*
X8029180D01*
G01X8059660D02*
X8097760D01*
G01X7691360Y297620D02*
X7729460D01*
G01X7762480D02*
X7777720D01*
G01X7798040D02*
X7815820D01*
G01X7853920D02*
X7869160D01*
G01X7909800D02*
X7922500D01*
G01X7940280D02*
X7955520D01*
G01X7986000D02*
X8026640D01*
G01X8059660D02*
X8095220D01*
G01X7693900Y295080D02*
X7726920D01*
G01X7762480D02*
X7777720D01*
G01X7798040D02*
X7815820D01*
G01X7853920D02*
X7869160D01*
G01X7909800D02*
X7922500D01*
G01X7942820D02*
X7955520D01*
G01X7988540D02*
X8024100D01*
G01X8059660D02*
X8095220D01*
G01X7696440Y292540D02*
X7721840D01*
G01X7762480D02*
X7777720D01*
G01X7800580D02*
X7815820D01*
G01X7853920D02*
X7869160D01*
G01X7909800D02*
X7922500D01*
G01X7942820D02*
X7958060D01*
G01X7993620D02*
X8019020D01*
G01X8059660D02*
X8095220D01*
G01X7706600Y290000D02*
X7714220D01*
G01X7998700D02*
X8008860D01*
G01X7688820Y836100D02*
X7790420D01*
G01X7688820Y833560D02*
X7787880D01*
G01X7688820Y831020D02*
X7787880D01*
G01X7691360Y828480D02*
X7787880D01*
G01X7693900Y825940D02*
X7785340D01*
G01X7696440Y823400D02*
X7785340D01*
G01X7696440Y820860D02*
X7775180D01*
G01X7777720D02*
X7782800D01*
G01X7698980Y818320D02*
X7780260D01*
G01X7701520Y815780D02*
X7777720D01*
G01X7704060Y813240D02*
X7775180D01*
G01X7714220Y810700D02*
X7759940D01*
G01X7762480D02*
X7770100D01*
G01X7711680Y808160D02*
X7762480D01*
G01X7719300Y805620D02*
X7757400D01*
G01X7726920Y803080D02*
X7732000D01*
G01X7795500Y737040D02*
X7825980D01*
G01X7942820D02*
X7973300D01*
G01X8039340D02*
X8072360D01*
G01X7792960Y734500D02*
X7828520D01*
G01X7940280D02*
X7975840D01*
G01X8039340D02*
X8072360D01*
G01X7792960Y731960D02*
X7828520D01*
G01X7940280D02*
X7975840D01*
G01X8039340D02*
X8072360D01*
G01X7792960Y729420D02*
X7828520D01*
G01X7940280D02*
X7975840D01*
G01X8039340D02*
X8072360D01*
G01X7792960Y726880D02*
X7831060D01*
G01X7937740D02*
X7975840D01*
G01X8039340D02*
X8072360D01*
G01X7792960Y724340D02*
X7831060D01*
G01X7937740D02*
X7975840D01*
G01X8039340D02*
X8072360D01*
G01X7792960Y721800D02*
X7831060D01*
G01X7937740D02*
X7975840D01*
G01X8039340D02*
X8072360D01*
G01X7792960Y719260D02*
X7833600D01*
G01X7935200D02*
X7975840D01*
G01X8039340D02*
X8072360D01*
G01X7792960Y716720D02*
X7833600D01*
G01X7935200D02*
X7975840D01*
G01X8039340D02*
X8072360D01*
G01X7792960Y714180D02*
X7836140D01*
G01X7932660D02*
X7975840D01*
G01X8039340D02*
X8072360D01*
G01X7792960Y711640D02*
X7836140D01*
G01X7932660D02*
X7975840D01*
G01X8039340D02*
X8072360D01*
G01X7792960Y709100D02*
X7838680D01*
G01X7930120D02*
X7975840D01*
G01X8039340D02*
X8072360D01*
G01X7792960Y706560D02*
X7838680D01*
G01X7930120D02*
X7975840D01*
G01X8039340D02*
X8072360D01*
G01X7792960Y704020D02*
X7838680D01*
G01X7930120D02*
X7975840D01*
G01X8039340D02*
X8072360D01*
G01X7792960Y701480D02*
X7841220D01*
G01X7927580D02*
X7975840D01*
G01X8039340D02*
X8072360D01*
G01X7792960Y698940D02*
X7841220D01*
G01X7927580D02*
X7975840D01*
G01X8039340D02*
X8072360D01*
G01X7792960Y696400D02*
X7841220D01*
G01X7927580D02*
X7975840D01*
G01X8039340D02*
X8072360D01*
G01X7792960Y693860D02*
X7843760D01*
G01X7925040D02*
X7975840D01*
G01X8039340D02*
X8072360D01*
G01X7792960Y691320D02*
X7843760D01*
G01X7925040D02*
X7975840D01*
G01X8039340D02*
X8072360D01*
G01X7792960Y688780D02*
X7843760D01*
G01X7925040D02*
X7975840D01*
G01X8039340D02*
X8072360D01*
G01X7792960Y686240D02*
X7846300D01*
G01X7922500D02*
X7975840D01*
G01X8039340D02*
X8072360D01*
G01X7792960Y683700D02*
X7846300D01*
G01X7922500D02*
X7975840D01*
G01X8039340D02*
X8072360D01*
G01X7792960Y681160D02*
X7848840D01*
G01X7922500D02*
X7975840D01*
G01X8039340D02*
X8072360D01*
G01X7792960Y678620D02*
X7848840D01*
G01X7919960D02*
X7975840D01*
G01X8039340D02*
X8072360D01*
G01X7792960Y676080D02*
X7848840D01*
G01X7919960D02*
X7975840D01*
G01X8039340D02*
X8072360D01*
G01X7792960Y673540D02*
X7851380D01*
G01X7917420D02*
X7975840D01*
G01X8039340D02*
X8072360D01*
G01X7792960Y671000D02*
X7851380D01*
G01X7917420D02*
X7975840D01*
G01X8039340D02*
X8072360D01*
G01X7792960Y668460D02*
X7851380D01*
G01X7917420D02*
X7975840D01*
G01X8039340D02*
X8072360D01*
G01X7792960Y665920D02*
X7851380D01*
G01X7914880D02*
X7975840D01*
G01X8039340D02*
X8072360D01*
G01X7792960Y663380D02*
X7853920D01*
G01X7914880D02*
X7975840D01*
G01X8039340D02*
X8072360D01*
G01X7792960Y660840D02*
X7853920D01*
G01X7914880D02*
X7975840D01*
G01X8039340D02*
X8072360D01*
G01X7792960Y658300D02*
X7856460D01*
G01X7914880D02*
X7975840D01*
G01X8039340D02*
X8072360D01*
G01X7792960Y655760D02*
X7856460D01*
G01X7912340D02*
X7975840D01*
G01X8039340D02*
X8072360D01*
G01X7792960Y653220D02*
X7856460D01*
G01X7912340D02*
X7975840D01*
G01X8039340D02*
X8072360D01*
G01X7792960Y650680D02*
X7859000D01*
G01X7909800D02*
X7975840D01*
G01X8039340D02*
X8072360D01*
G01X7792960Y648140D02*
X7859000D01*
G01X7909800D02*
X7975840D01*
G01X8039340D02*
X8072360D01*
G01X7792960Y645600D02*
X7859000D01*
G01X7909800D02*
X7937740D01*
G01X7940280D02*
X7975840D01*
G01X8039340D02*
X8072360D01*
G01X7792960Y643060D02*
X7828520D01*
G01X7831060D02*
X7861540D01*
G01X7907260D02*
X7937740D01*
G01X7940280D02*
X7975840D01*
G01X8039340D02*
X8072360D01*
G01X7792960Y640520D02*
X7828520D01*
G01X7831060D02*
X7861540D01*
G01X7907260D02*
X7937740D01*
G01X7940280D02*
X7975840D01*
G01X8039340D02*
X8072360D01*
G01X7792960Y637980D02*
X7828520D01*
G01X7831060D02*
X7861540D01*
G01X7907260D02*
X7935200D01*
G01X7940280D02*
X7975840D01*
G01X8039340D02*
X8072360D01*
G01X7792960Y635440D02*
X7828520D01*
G01X7833600D02*
X7864080D01*
G01X7904720D02*
X7935200D01*
G01X7940280D02*
X7975840D01*
G01X8039340D02*
X8072360D01*
G01X7792960Y632900D02*
X7828520D01*
G01X7833600D02*
X7864080D01*
G01X7904720D02*
X7935200D01*
G01X7940280D02*
X7975840D01*
G01X8039340D02*
X8072360D01*
G01X7792960Y630360D02*
X7828520D01*
G01X7833600D02*
X7866620D01*
G01X7904720D02*
X7932660D01*
G01X7940280D02*
X7975840D01*
G01X8039340D02*
X8072360D01*
G01X7792960Y627820D02*
X7828520D01*
G01X7836140D02*
X7866620D01*
G01X7902180D02*
X7932660D01*
G01X7940280D02*
X7975840D01*
G01X8039340D02*
X8072360D01*
G01X7792960Y625280D02*
X7828520D01*
G01X7836140D02*
X7866620D01*
G01X7902180D02*
X7932660D01*
G01X7940280D02*
X7975840D01*
G01X8039340D02*
X8072360D01*
G01X7792960Y622740D02*
X7828520D01*
G01X7836140D02*
X7869160D01*
G01X7899640D02*
X7930120D01*
G01X7940280D02*
X7975840D01*
G01X8039340D02*
X8072360D01*
G01X7792960Y620200D02*
X7828520D01*
G01X7838680D02*
X7869160D01*
G01X7899640D02*
X7930120D01*
G01X7940280D02*
X7975840D01*
G01X8039340D02*
X8072360D01*
G01X7688820Y617660D02*
X7721840D01*
G01X7792960D02*
X7828520D01*
G01X7838680D02*
X7871700D01*
G01X7897100D02*
X7927580D01*
G01X7940280D02*
X7975840D01*
G01X8039340D02*
X8072360D01*
G01X7688820Y615120D02*
X7721840D01*
G01X7792960D02*
X7828520D01*
G01X7841220D02*
X7871700D01*
G01X7897100D02*
X7927580D01*
G01X7940280D02*
X7975840D01*
G01X8039340D02*
X8072360D01*
G01X7688820Y612580D02*
X7721840D01*
G01X7792960D02*
X7828520D01*
G01X7841220D02*
X7871700D01*
G01X7897100D02*
X7927580D01*
G01X7940280D02*
X7975840D01*
G01X8039340D02*
X8072360D01*
G01X7688820Y610040D02*
X7724380D01*
G01X7792960D02*
X7828520D01*
G01X7841220D02*
X7874240D01*
G01X7894560D02*
X7925040D01*
G01X7940280D02*
X7975840D01*
G01X8039340D02*
X8072360D01*
G01X7691360Y607500D02*
X7724380D01*
G01X7792960D02*
X7828520D01*
G01X7843760D02*
X7874240D01*
G01X7894560D02*
X7925040D01*
G01X7940280D02*
X7975840D01*
G01X8039340D02*
X8072360D01*
G01X7691360Y604960D02*
X7724380D01*
G01X7792960D02*
X7828520D01*
G01X7843760D02*
X7874240D01*
G01X7894560D02*
X7925040D01*
G01X7940280D02*
X7975840D01*
G01X8039340D02*
X8072360D01*
G01X7691360Y602420D02*
X7724380D01*
G01X7792960D02*
X7828520D01*
G01X7843760D02*
X7876780D01*
G01X7892020D02*
X7922500D01*
G01X7940280D02*
X7975840D01*
G01X8039340D02*
X8072360D01*
G01X7691360Y599880D02*
X7726920D01*
G01X7792960D02*
X7828520D01*
G01X7846300D02*
X7876780D01*
G01X7892020D02*
X7922500D01*
G01X7940280D02*
X7975840D01*
G01X8039340D02*
X8072360D01*
G01X7691360Y597340D02*
X7726920D01*
G01X7792960D02*
X7828520D01*
G01X7846300D02*
X7879320D01*
G01X7889480D02*
X7922500D01*
G01X7940280D02*
X7975840D01*
G01X8039340D02*
X8072360D01*
G01X7693900Y594800D02*
X7724380D01*
G01X7792960D02*
X7828520D01*
G01X7846300D02*
X7879320D01*
G01X7889480D02*
X7919960D01*
G01X7940280D02*
X7975840D01*
G01X8039340D02*
X8072360D01*
G01X7693900Y592260D02*
X7726920D01*
G01X7792960D02*
X7828520D01*
G01X7848840D02*
X7879320D01*
G01X7889480D02*
X7919960D01*
G01X7940280D02*
X7975840D01*
G01X8039340D02*
X8072360D01*
G01X7693900Y589720D02*
X7729460D01*
G01X7792960D02*
X7828520D01*
G01X7848840D02*
X7881860D01*
G01X7886940D02*
X7919960D01*
G01X7940280D02*
X7975840D01*
G01X8039340D02*
X8072360D01*
G01X7693900Y587180D02*
X7726920D01*
G01X7792960D02*
X7828520D01*
G01X7848840D02*
X7881860D01*
G01X7886940D02*
X7917420D01*
G01X7940280D02*
X7975840D01*
G01X8039340D02*
X8072360D01*
G01X7693900Y584640D02*
X7726920D01*
G01X7792960D02*
X7828520D01*
G01X7851380D02*
X7881860D01*
G01X7886940D02*
X7917420D01*
G01X7940280D02*
X7975840D01*
G01X8039340D02*
X8072360D01*
G01X7696440Y582100D02*
X7729460D01*
G01X7792960D02*
X7828520D01*
G01X7851380D02*
X7881860D01*
G01X7884400D02*
X7917420D01*
G01X7940280D02*
X7975840D01*
G01X8039340D02*
X8072360D01*
G01X7696440Y579560D02*
X7729460D01*
G01X7792960D02*
X7828520D01*
G01X7851380D02*
X7914880D01*
G01X7940280D02*
X7975840D01*
G01X8039340D02*
X8072360D01*
G01X7693900Y577020D02*
X7729460D01*
G01X7792960D02*
X7828520D01*
G01X7851380D02*
X7914880D01*
G01X7940280D02*
X7975840D01*
G01X8039340D02*
X8072360D01*
G01X7696440Y574480D02*
X7729460D01*
G01X7792960D02*
X7828520D01*
G01X7853920D02*
X7914880D01*
G01X7940280D02*
X7975840D01*
G01X8039340D02*
X8072360D01*
G01X7696440Y571940D02*
X7729460D01*
G01X7792960D02*
X7828520D01*
G01X7853920D02*
X7912340D01*
G01X7940280D02*
X7975840D01*
G01X8039340D02*
X8072360D01*
G01X7696440Y569400D02*
X7732000D01*
G01X7792960D02*
X7828520D01*
G01X7853920D02*
X7912340D01*
G01X7940280D02*
X7975840D01*
G01X8039340D02*
X8072360D01*
G01X7696440Y566860D02*
X7732000D01*
G01X7792960D02*
X7828520D01*
G01X7856460D02*
X7912340D01*
G01X7940280D02*
X7975840D01*
G01X8039340D02*
X8072360D01*
G01X7696440Y564320D02*
X7732000D01*
G01X7792960D02*
X7828520D01*
G01X7856460D02*
X7909800D01*
G01X7940280D02*
X7975840D01*
G01X8039340D02*
X8072360D01*
G01X7698980Y561780D02*
X7734540D01*
G01X7792960D02*
X7828520D01*
G01X7856460D02*
X7909800D01*
G01X7940280D02*
X7975840D01*
G01X8039340D02*
X8072360D01*
G01X7698980Y559240D02*
X7734540D01*
G01X7792960D02*
X7828520D01*
G01X7859000D02*
X7909800D01*
G01X7940280D02*
X7975840D01*
G01X8039340D02*
X8072360D01*
G01X7698980Y556700D02*
X7734540D01*
G01X7792960D02*
X7828520D01*
G01X7859000D02*
X7909800D01*
G01X7940280D02*
X7975840D01*
G01X8039340D02*
X8072360D01*
G01X7698980Y554160D02*
X7734540D01*
G01X7792960D02*
X7828520D01*
G01X7861540D02*
X7907260D01*
G01X7940280D02*
X7975840D01*
G01X8039340D02*
X8072360D01*
G01X7698980Y551620D02*
X7734540D01*
G01X7792960D02*
X7828520D01*
G01X7861540D02*
X7907260D01*
G01X7940280D02*
X7975840D01*
G01X8039340D02*
X8072360D01*
G01X7792960Y549080D02*
X7828520D01*
G01X7861540D02*
X7904720D01*
G01X7940280D02*
X7975840D01*
G01X8039340D02*
X8072360D01*
G01X7792960Y546540D02*
X7828520D01*
G01X7864080D02*
X7904720D01*
G01X7940280D02*
X7975840D01*
G01X8039340D02*
X8072360D01*
G01X7792960Y544000D02*
X7828520D01*
G01X7864080D02*
X7904720D01*
G01X7940280D02*
X7975840D01*
G01X8039340D02*
X8072360D01*
G01X7792960Y541460D02*
X7828520D01*
G01X7864080D02*
X7902180D01*
G01X7940280D02*
X7975840D01*
G01X8039340D02*
X8072360D01*
G01X7792960Y538920D02*
X7828520D01*
G01X7866620D02*
X7902180D01*
G01X7940280D02*
X7975840D01*
G01X8039340D02*
X8072360D01*
G01X7792960Y536380D02*
X7828520D01*
G01X7866620D02*
X7902180D01*
G01X7940280D02*
X7975840D01*
G01X8039340D02*
X8072360D01*
G01X7792960Y533840D02*
X7828520D01*
G01X7866620D02*
X7899640D01*
G01X7940280D02*
X7975840D01*
G01X8039340D02*
X8072360D01*
G01X7792960Y531300D02*
X7828520D01*
G01X7869160D02*
X7899640D01*
G01X7940280D02*
X7975840D01*
G01X8039340D02*
X8072360D01*
G01X7792960Y528760D02*
X7828520D01*
G01X7869160D02*
X7899640D01*
G01X7940280D02*
X7975840D01*
G01X8039340D02*
X8072360D01*
G01X7792960Y526220D02*
X7828520D01*
G01X7869160D02*
X7897100D01*
G01X7940280D02*
X7975840D01*
G01X8039340D02*
X8072360D01*
G01X7792960Y523680D02*
X7828520D01*
G01X7871700D02*
X7897100D01*
G01X7940280D02*
X7975840D01*
G01X8039340D02*
X8072360D01*
G01X7792960Y521140D02*
X7828520D01*
G01X7871700D02*
X7894560D01*
G01X7940280D02*
X7975840D01*
G01X8039340D02*
X8072360D01*
G01X7792960Y518600D02*
X7828520D01*
G01X7940280D02*
X7975840D01*
G01X8039340D02*
X8072360D01*
G01X7709140Y516060D02*
X7744700D01*
G01X7792960D02*
X7828520D01*
G01X7940280D02*
X7975840D01*
G01X8039340D02*
X8072360D01*
G01X7709140Y513520D02*
X7744700D01*
G01X7792960D02*
X7828520D01*
G01X7940280D02*
X7975840D01*
G01X8039340D02*
X8072360D01*
G01X7709140Y510980D02*
X7744700D01*
G01X7792960D02*
X7828520D01*
G01X7940280D02*
X7975840D01*
G01X8039340D02*
X8072360D01*
G01X7709140Y508440D02*
X7747240D01*
G01X7792960D02*
X7828520D01*
G01X7940280D02*
X7975840D01*
G01X8039340D02*
X8072360D01*
G01X7709140Y505900D02*
X7747240D01*
G01X7792960D02*
X7828520D01*
G01X7940280D02*
X7975840D01*
G01X8039340D02*
X8072360D01*
G01X7709140Y503360D02*
X7747240D01*
G01X7792960D02*
X7828520D01*
G01X7940280D02*
X7975840D01*
G01X8039340D02*
X8072360D01*
G01X7711680Y500820D02*
X7747240D01*
G01X7792960D02*
X7828520D01*
G01X7940280D02*
X7975840D01*
G01X8039340D02*
X8072360D01*
G01X7711680Y498280D02*
X7749780D01*
G01X7792960D02*
X7828520D01*
G01X7940280D02*
X7975840D01*
G01X8039340D02*
X8072360D01*
G01X7711680Y495740D02*
X7749780D01*
G01X7792960D02*
X7828520D01*
G01X7940280D02*
X7975840D01*
G01X8039340D02*
X8072360D01*
G01X7714220Y493200D02*
X7749780D01*
G01X7792960D02*
X7828520D01*
G01X7940280D02*
X7975840D01*
G01X8039340D02*
X8072360D01*
G01X7714220Y490660D02*
X7749780D01*
G01X7792960D02*
X7828520D01*
G01X7940280D02*
X7975840D01*
G01X8039340D02*
X8072360D01*
G01X7714220Y488120D02*
X7752320D01*
G01X7792960D02*
X7828520D01*
G01X7940280D02*
X7975840D01*
G01X8039340D02*
X8072360D01*
G01X7714220Y485580D02*
X7752320D01*
G01X7792960D02*
X7828520D01*
G01X7940280D02*
X7975840D01*
G01X8039340D02*
X8072360D01*
G01X7714220Y483040D02*
X7752320D01*
G01X7792960D02*
X7828520D01*
G01X7940280D02*
X7975840D01*
G01X8039340D02*
X8072360D01*
G01X7716760Y480500D02*
X7752320D01*
G01X7792960D02*
X7828520D01*
G01X7940280D02*
X7975840D01*
G01X8039340D02*
X8072360D01*
G01X7716760Y477960D02*
X7754860D01*
G01X7792960D02*
X7828520D01*
G01X7940280D02*
X7975840D01*
G01X8039340D02*
X8072360D01*
G01X7716760Y475420D02*
X7754860D01*
G01X7792960D02*
X7828520D01*
G01X7940280D02*
X7975840D01*
G01X8039340D02*
X8072360D01*
G01X7716760Y472880D02*
X7754860D01*
G01X7792960D02*
X7828520D01*
G01X7940280D02*
X7975840D01*
G01X8039340D02*
X8072360D01*
G01X7716760Y470340D02*
X7754860D01*
G01X7792960D02*
X7828520D01*
G01X7940280D02*
X7975840D01*
G01X8039340D02*
X8072360D01*
G01X7719300Y467800D02*
X7757400D01*
G01X7792960D02*
X7828520D01*
G01X7940280D02*
X7975840D01*
G01X8039340D02*
X8072360D01*
G01X7719300Y465260D02*
X7757400D01*
G01X7792960D02*
X7828520D01*
G01X7940280D02*
X7975840D01*
G01X8039340D02*
X8072360D01*
G01X7719300Y462720D02*
X7757400D01*
G01X7792960D02*
X7828520D01*
G01X7940280D02*
X7975840D01*
G01X8039340D02*
X8072360D01*
G01X7719300Y460180D02*
X7757400D01*
G01X7792960D02*
X7828520D01*
G01X7940280D02*
X7975840D01*
G01X8039340D02*
X8072360D01*
G01X7721840Y457640D02*
X7757400D01*
G01X7792960D02*
X7828520D01*
G01X7940280D02*
X7975840D01*
G01X8039340D02*
X8072360D01*
G01X7732000Y912300D02*
X7752320D01*
G01X7737080Y909760D02*
X7759940D01*
G01X7734540Y907220D02*
X7765020D01*
G01X7737080Y904680D02*
X7770100D01*
G01X7739620Y902140D02*
X7772640D01*
G01X7739620Y899600D02*
X7775180D01*
G01X7739620Y897060D02*
X7775180D01*
G01X7688820Y894520D02*
X7726920D01*
G01X7742160D02*
X7780260D01*
G01X7691360Y891980D02*
X7726920D01*
G01X7744700D02*
X7782800D01*
G01X7696440Y889440D02*
X7729460D01*
G01X7744700D02*
X7780260D01*
G01X7782800D02*
X7785340D01*
G01X7701520Y886900D02*
X7729460D01*
G01X7747240D02*
X7787880D01*
G01X7704060Y884360D02*
X7732000D01*
G01X7747240D02*
X7787880D01*
G01X7709140Y881820D02*
X7732000D01*
G01X7749780D02*
X7787880D01*
G01X7714220Y879280D02*
X7734540D01*
G01X7749780D02*
X7790420D01*
G01X7719300Y876740D02*
X7737080D01*
G01X7752320D02*
X7790420D01*
G01X7724380Y874200D02*
X7737080D01*
G01X7754860D02*
X7792960D01*
G01X7726920Y871660D02*
X7739620D01*
G01X7754860D02*
X7792960D01*
G01X7734540Y869120D02*
X7742160D01*
G01X7757400D02*
X7792960D01*
G01X7737080Y866580D02*
X7742160D01*
G01X7757400D02*
X7792960D01*
G01X7742160Y864040D02*
X7744700D01*
G01X7757400D02*
X7792960D01*
G01X7759940Y861500D02*
X7792960D01*
G01X7762480Y858960D02*
X7792960D01*
G01X7762480Y856420D02*
X7792960D01*
G01X7765020Y853880D02*
X7792960D01*
G01X7765020Y851340D02*
X7792960D01*
G01X7767560Y848800D02*
X7792960D01*
G01X7770100Y846260D02*
X7792960D01*
G01X7770100Y843720D02*
X7792960D01*
G01X7772640Y841180D02*
X7792960D01*
G01X7772640Y838640D02*
X7790420D01*
G01X8158720Y455100D02*
X8232380D01*
G01X8163800Y452560D02*
X8227300D01*
G01X8168880Y450020D02*
X8222220D01*
G01X8173960Y447480D02*
X8214600D01*
G01X8179040Y739580D02*
X8209520D01*
G01X8171420Y737040D02*
X8219680D01*
G01X8166340Y734500D02*
X8222220D01*
G01X8161260Y731960D02*
X8227300D01*
G01X8158720Y729420D02*
X8232380D01*
G01X8153640Y726880D02*
X8234920D01*
G01X8151100Y724340D02*
X8237460D01*
G01X8148560Y721800D02*
X8240000D01*
G01X8146020Y719260D02*
X8242540D01*
G01X8143480Y716720D02*
X8245080D01*
G01X8140940Y714180D02*
X8247620D01*
G01X8138400Y711640D02*
X8250160D01*
G01X8138400Y709100D02*
X8250160D01*
G01X8135860Y706560D02*
X8184120D01*
G01X8204440D02*
X8252700D01*
G01X8135860Y704020D02*
X8179040D01*
G01X8209520D02*
X8252700D01*
G01X8133320Y701480D02*
X8176500D01*
G01X8214600D02*
X8255240D01*
G01X8133320Y698940D02*
X8173960D01*
G01X8217140D02*
X8257780D01*
G01X8133320Y696400D02*
X8171420D01*
G01X8217140D02*
X8257780D01*
G01X8130780Y693860D02*
X8168880D01*
G01X8219680D02*
X8257780D01*
G01X8130780Y691320D02*
X8168880D01*
G01X8222220D02*
X8257780D01*
G01X8130780Y688780D02*
X8166340D01*
G01X8222220D02*
X8257780D01*
G01X8130780Y686240D02*
X8166340D01*
G01X8222220D02*
X8257780D01*
G01X8128240Y683700D02*
X8163800D01*
G01X8224760D02*
X8257780D01*
G01X8128240Y681160D02*
X8163800D01*
G01X8224760D02*
X8260320D01*
G01X8128240Y678620D02*
X8166340D01*
G01X8224760D02*
X8260320D01*
G01X8128240Y676080D02*
X8163800D01*
G01X8224760D02*
X8260320D01*
G01X8128240Y673540D02*
X8163800D01*
G01X8224760D02*
X8260320D01*
G01X8128240Y671000D02*
X8163800D01*
G01X8224760D02*
X8260320D01*
G01X8128240Y668460D02*
X8163800D01*
G01X8227300D02*
X8260320D01*
G01X8125700Y665920D02*
X8163800D01*
G01X8227300D02*
X8260320D01*
G01X8125700Y663380D02*
X8163800D01*
G01X8125700Y660840D02*
X8163800D01*
G01X8125700Y658300D02*
X8161260D01*
G01X8125700Y655760D02*
X8161260D01*
G01X8125700Y653220D02*
X8161260D01*
G01X8125700Y650680D02*
X8161260D01*
G01X8125700Y648140D02*
X8161260D01*
G01X8125700Y645600D02*
X8161260D01*
G01X8125700Y643060D02*
X8161260D01*
G01X8125700Y640520D02*
X8161260D01*
G01X8125700Y637980D02*
X8161260D01*
G01X8125700Y635440D02*
X8161260D01*
G01X8125700Y632900D02*
X8161260D01*
G01X8125700Y630360D02*
X8161260D01*
G01X8125700Y627820D02*
X8161260D01*
G01X8125700Y625280D02*
X8161260D01*
G01X8125700Y622740D02*
X8161260D01*
G01X8125700Y620200D02*
X8161260D01*
G01X8125700Y617660D02*
X8161260D01*
G01X8125700Y615120D02*
X8161260D01*
G01X8125700Y612580D02*
X8161260D01*
G01X8123160Y610040D02*
X8161260D01*
G01X8123160Y607500D02*
X8161260D01*
G01X8123160Y604960D02*
X8161260D01*
G01X8123160Y602420D02*
X8161260D01*
G01X8123160Y599880D02*
X8161260D01*
G01X8123160Y597340D02*
X8161260D01*
G01X8123160Y594800D02*
X8161260D01*
G01X8123160Y592260D02*
X8161260D01*
G01X8123160Y589720D02*
X8161260D01*
G01X8123160Y587180D02*
X8161260D01*
G01X8123160Y584640D02*
X8161260D01*
G01X8125700Y582100D02*
X8161260D01*
G01X8125700Y579560D02*
X8161260D01*
G01X8125700Y577020D02*
X8161260D01*
G01X8125700Y574480D02*
X8161260D01*
G01X8125700Y571940D02*
X8161260D01*
G01X8125700Y569400D02*
X8161260D01*
G01X8125700Y566860D02*
X8161260D01*
G01X8125700Y564320D02*
X8161260D01*
G01X8125700Y561780D02*
X8161260D01*
G01X8125700Y559240D02*
X8161260D01*
G01X8125700Y556700D02*
X8161260D01*
G01X8125700Y554160D02*
X8161260D01*
G01X8125700Y551620D02*
X8161260D01*
G01X8125700Y549080D02*
X8161260D01*
G01X8125700Y546540D02*
X8161260D01*
G01X8125700Y544000D02*
X8161260D01*
G01X8125700Y541460D02*
X8161260D01*
G01X8125700Y538920D02*
X8161260D01*
G01X8125700Y536380D02*
X8161260D01*
G01X8125700Y533840D02*
X8161260D01*
G01X8125700Y531300D02*
X8161260D01*
G01X8125700Y528760D02*
X8163800D01*
G01X8125700Y526220D02*
X8163800D01*
G01X8125700Y523680D02*
X8163800D01*
G01X8125700Y521140D02*
X8163800D01*
G01X8227300D02*
X8260320D01*
G01X8125700Y518600D02*
X8163800D01*
G01X8227300D02*
X8260320D01*
G01X8128240Y516060D02*
X8163800D01*
G01X8227300D02*
X8260320D01*
G01X8128240Y513520D02*
X8163800D01*
G01X8227300D02*
X8260320D01*
G01X8128240Y510980D02*
X8163800D01*
G01X8224760D02*
X8260320D01*
G01X8128240Y508440D02*
X8163800D01*
G01X8224760D02*
X8260320D01*
G01X8128240Y505900D02*
X8166340D01*
G01X8224760D02*
X8260320D01*
G01X8128240Y503360D02*
X8163800D01*
G01X8224760D02*
X8260320D01*
G01X8128240Y500820D02*
X8166340D01*
G01X8222220D02*
X8257780D01*
G01X8130780Y498280D02*
X8166340D01*
G01X8222220D02*
X8257780D01*
G01X8130780Y495740D02*
X8166340D01*
G01X8222220D02*
X8260320D01*
G01X8130780Y493200D02*
X8168880D01*
G01X8219680D02*
X8257780D01*
G01X8133320Y490660D02*
X8168880D01*
G01X8219680D02*
X8257780D01*
G01X8133320Y488120D02*
X8171420D01*
G01X8217140D02*
X8257780D01*
G01X8133320Y485580D02*
X8173960D01*
G01X8214600D02*
X8255240D01*
G01X8133320Y483040D02*
X8176500D01*
G01X8212060D02*
X8255240D01*
G01X8135860Y480500D02*
X8181580D01*
G01X8206980D02*
X8255240D01*
G01X8135860Y477960D02*
X8189200D01*
G01X8199360D02*
X8252700D01*
G01X8138400Y475420D02*
X8252700D01*
G01X8140940Y472880D02*
X8250160D01*
G01X8143480Y470340D02*
X8247620D01*
G01X8143480Y467800D02*
X8245080D01*
G01X8146020Y465260D02*
X8242540D01*
G01X8148560Y462720D02*
X8240000D01*
G01X8153640Y460180D02*
X8237460D01*
G01X8156180Y457640D02*
X8234920D01*
G54D13*
G01X2430000Y820000D02*
Y1700000D01*
X2810000D01*
Y820000D01*
X2430000D01*
G01X2810000Y2980000D02*
Y2100000D01*
X2430000D01*
Y2980000D01*
X2810000D01*
G01X2430000Y3030000D02*
Y3910000D01*
X2810000D01*
Y3030000D01*
X2430000D01*
G01X2810000Y5190000D02*
Y4310000D01*
X2430000D01*
Y5190000D01*
X2810000D01*
G54D14*
G01X415000Y2690000D02*
X440000Y2600000D01*
X465000Y2690000D01*
G01X530000Y2600000D02*
X490000D01*
Y2690000D01*
X530000D01*
G01X514000Y2646500D02*
X490000D01*
G01X560000Y2600000D02*
Y2690000D01*
X585000D01*
X593000Y2685500D01*
X598000Y2679500D01*
X600000Y2667500D01*
X598000Y2655500D01*
X592000Y2648000D01*
X585000Y2643500D01*
X560000D01*
G01X585000D02*
X600000Y2600000D01*
G01X650000Y2690000D02*
Y2600000D01*
G01X627000Y2690000D02*
X673000D01*
G01X419000Y3370000D02*
Y3460000D01*
G01X461000D02*
Y3370000D01*
G01Y3415000D02*
X419000D01*
G01X510000Y3370000D02*
X502000Y3371500D01*
X495000Y3377500D01*
X489000Y3386500D01*
X485000Y3397000D01*
X483000Y3409000D01*
Y3421000D01*
X485000Y3433000D01*
X489000Y3443500D01*
X495000Y3452500D01*
X502000Y3458500D01*
X510000Y3460000D01*
X518000Y3458500D01*
X525000Y3452500D01*
X531000Y3443500D01*
X535000Y3433000D01*
X537000Y3421000D01*
Y3409000D01*
X535000Y3397000D01*
X531000Y3386500D01*
X525000Y3377500D01*
X518000Y3371500D01*
X510000Y3370000D01*
G01X560000D02*
Y3460000D01*
X585000D01*
X593000Y3455500D01*
X598000Y3449500D01*
X600000Y3437500D01*
X598000Y3425500D01*
X592000Y3418000D01*
X585000Y3413500D01*
X560000D01*
G01X585000D02*
X600000Y3370000D01*
G01X638000Y3460000D02*
X662000D01*
G01X650000D02*
Y3370000D01*
G01X638000D02*
X662000D01*
G01X1115000Y1500000D02*
X1140000Y1590000D01*
X1165000Y1500000D01*
G01X1156000Y1531500D02*
X1124000D01*
G01X1210000Y1500000D02*
Y1590000D01*
X1198000Y1572000D01*
G01Y1500000D02*
X1222000D01*
G01X1148000Y2048000D02*
X1152000Y2052500D01*
X1155000Y2060000D01*
X1157000Y2070500D01*
X1155000Y2079500D01*
X1151000Y2085500D01*
X1144000Y2090000D01*
X1117000D01*
Y2000000D01*
X1150000D01*
X1157000Y2006000D01*
X1161000Y2015000D01*
X1163000Y2025500D01*
X1161000Y2036000D01*
X1155000Y2045000D01*
X1148000Y2048000D01*
X1117000D01*
G01X1210000Y2000000D02*
Y2090000D01*
X1198000Y2072000D01*
G01Y2000000D02*
X1222000D01*
G01X1115000Y1760000D02*
X1140000Y1850000D01*
X1165000Y1760000D01*
G01X1156000Y1791500D02*
X1124000D01*
G01X1191000Y1835000D02*
X1197000Y1844000D01*
X1204000Y1848500D01*
X1212000Y1850000D01*
X1222000Y1847000D01*
X1229000Y1839500D01*
X1231000Y1830500D01*
X1230000Y1821500D01*
X1226000Y1814000D01*
X1206000Y1799000D01*
X1197000Y1788500D01*
X1191000Y1773500D01*
X1189000Y1760000D01*
X1231000D01*
G01X1148000Y2298000D02*
X1152000Y2302500D01*
X1155000Y2310000D01*
X1157000Y2320500D01*
X1155000Y2329500D01*
X1151000Y2335500D01*
X1144000Y2340000D01*
X1117000D01*
Y2250000D01*
X1150000D01*
X1157000Y2256000D01*
X1161000Y2265000D01*
X1163000Y2275500D01*
X1161000Y2286000D01*
X1155000Y2295000D01*
X1148000Y2298000D01*
X1117000D01*
G01X1191000Y2325000D02*
X1197000Y2334000D01*
X1204000Y2338500D01*
X1212000Y2340000D01*
X1222000Y2337000D01*
X1229000Y2329500D01*
X1231000Y2320500D01*
X1230000Y2311500D01*
X1226000Y2304000D01*
X1206000Y2289000D01*
X1197000Y2278500D01*
X1191000Y2263500D01*
X1189000Y2250000D01*
X1231000D01*
G01X1105000Y3710000D02*
X1130000Y3800000D01*
X1155000Y3710000D01*
G01X1146000Y3741500D02*
X1114000D01*
G01X1200000Y3710000D02*
Y3800000D01*
X1188000Y3782000D01*
G01Y3710000D02*
X1212000D01*
G01X1105000Y3970000D02*
X1130000Y4060000D01*
X1155000Y3970000D01*
G01X1146000Y4001500D02*
X1114000D01*
G01X1181000Y4045000D02*
X1187000Y4054000D01*
X1194000Y4058500D01*
X1202000Y4060000D01*
X1212000Y4057000D01*
X1219000Y4049500D01*
X1221000Y4040500D01*
X1220000Y4031500D01*
X1216000Y4024000D01*
X1196000Y4009000D01*
X1187000Y3998500D01*
X1181000Y3983500D01*
X1179000Y3970000D01*
X1221000D01*
G01X1138000Y4258000D02*
X1142000Y4262500D01*
X1145000Y4270000D01*
X1147000Y4280500D01*
X1145000Y4289500D01*
X1141000Y4295500D01*
X1134000Y4300000D01*
X1107000D01*
Y4210000D01*
X1140000D01*
X1147000Y4216000D01*
X1151000Y4225000D01*
X1153000Y4235500D01*
X1151000Y4246000D01*
X1145000Y4255000D01*
X1138000Y4258000D01*
X1107000D01*
G01X1200000Y4210000D02*
Y4300000D01*
X1188000Y4282000D01*
G01Y4210000D02*
X1212000D01*
G01X1138000Y4508000D02*
X1142000Y4512500D01*
X1145000Y4520000D01*
X1147000Y4530500D01*
X1145000Y4539500D01*
X1141000Y4545500D01*
X1134000Y4550000D01*
X1107000D01*
Y4460000D01*
X1140000D01*
X1147000Y4466000D01*
X1151000Y4475000D01*
X1153000Y4485500D01*
X1151000Y4496000D01*
X1145000Y4505000D01*
X1138000Y4508000D01*
X1107000D01*
G01X1181000Y4535000D02*
X1187000Y4544000D01*
X1194000Y4548500D01*
X1202000Y4550000D01*
X1212000Y4547000D01*
X1219000Y4539500D01*
X1221000Y4530500D01*
X1220000Y4521500D01*
X1216000Y4514000D01*
X1196000Y4499000D01*
X1187000Y4488500D01*
X1181000Y4473500D01*
X1179000Y4460000D01*
X1221000D01*
G01X4250000Y3138000D02*
X4160000D01*
Y3158000D01*
X4164500Y3166000D01*
X4170500Y3172000D01*
X4179500Y3177000D01*
X4190000Y3181000D01*
X4205000Y3182000D01*
X4220000Y3181000D01*
X4230500Y3177000D01*
X4239500Y3172000D01*
X4245500Y3166000D01*
X4250000Y3158000D01*
Y3138000D01*
G01X4160000Y3218000D02*
Y3242000D01*
G01Y3230000D02*
X4250000D01*
G01Y3218000D02*
Y3242000D01*
G01Y3275000D02*
X4160000Y3300000D01*
X4250000Y3325000D01*
G01X4218500Y3316000D02*
Y3284000D01*
G01X4205000Y3376000D02*
Y3396000D01*
X4232000D01*
X4241000Y3390000D01*
X4247000Y3383000D01*
X4250000Y3373000D01*
X4247000Y3363000D01*
X4241000Y3356000D01*
X4232000Y3350000D01*
X4221500Y3346000D01*
X4209500Y3344000D01*
X4199000D01*
X4190000Y3346000D01*
X4179500Y3350000D01*
X4170500Y3356000D01*
X4164500Y3362000D01*
X4160000Y3370000D01*
Y3377000D01*
X4163000Y3385000D01*
X4169000Y3391000D01*
G01X4160000Y3440000D02*
X4163000Y3432000D01*
X4170500Y3426000D01*
X4179500Y3422000D01*
X4191500Y3419000D01*
X4205000Y3418000D01*
X4218500Y3419000D01*
X4230500Y3422000D01*
X4239500Y3426000D01*
X4247000Y3432000D01*
X4250000Y3440000D01*
X4247000Y3448000D01*
X4239500Y3454000D01*
X4230500Y3458000D01*
X4218500Y3461000D01*
X4205000Y3462000D01*
X4191500Y3461000D01*
X4179500Y3458000D01*
X4170500Y3454000D01*
X4163000Y3448000D01*
X4160000Y3440000D01*
G01X4110000Y3138000D02*
X4020000D01*
Y3158000D01*
X4024500Y3166000D01*
X4030500Y3172000D01*
X4039500Y3177000D01*
X4050000Y3181000D01*
X4065000Y3182000D01*
X4080000Y3181000D01*
X4090500Y3177000D01*
X4099500Y3172000D01*
X4105500Y3166000D01*
X4110000Y3158000D01*
Y3138000D01*
G01X4020000Y3218000D02*
Y3242000D01*
G01Y3230000D02*
X4110000D01*
G01Y3218000D02*
Y3242000D01*
G01Y3275000D02*
X4020000Y3300000D01*
X4110000Y3325000D01*
G01X4078500Y3316000D02*
Y3284000D01*
G01X4065000Y3376000D02*
Y3396000D01*
X4092000D01*
X4101000Y3390000D01*
X4107000Y3383000D01*
X4110000Y3373000D01*
X4107000Y3363000D01*
X4101000Y3356000D01*
X4092000Y3350000D01*
X4081500Y3346000D01*
X4069500Y3344000D01*
X4059000D01*
X4050000Y3346000D01*
X4039500Y3350000D01*
X4030500Y3356000D01*
X4024500Y3362000D01*
X4020000Y3370000D01*
Y3377000D01*
X4023000Y3385000D01*
X4029000Y3391000D01*
G01X4110000Y3440000D02*
X4020000D01*
X4038000Y3428000D01*
G01X4110000D02*
Y3452000D01*
G01X4688000Y2568000D02*
X4694000Y2557500D01*
X4702000Y2551500D01*
X4711000Y2550000D01*
X4719000Y2551500D01*
X4727000Y2559000D01*
X4732000Y2568000D01*
X4733000Y2577000D01*
X4731000Y2587500D01*
X4724000Y2595000D01*
X4717000Y2598000D01*
X4708000D01*
G01X4717000D02*
X4723000Y2602500D01*
X4728000Y2610000D01*
X4730000Y2619000D01*
X4728000Y2628000D01*
X4723000Y2635500D01*
X4714000Y2640000D01*
X4705000Y2638500D01*
X4696000Y2632500D01*
G01X4755000Y2640000D02*
X4780000Y2550000D01*
X4805000Y2640000D01*
G01X4828000Y2568000D02*
X4834000Y2557500D01*
X4842000Y2551500D01*
X4851000Y2550000D01*
X4859000Y2551500D01*
X4867000Y2559000D01*
X4872000Y2568000D01*
X4873000Y2577000D01*
X4871000Y2587500D01*
X4864000Y2595000D01*
X4857000Y2598000D01*
X4848000D01*
G01X4857000D02*
X4863000Y2602500D01*
X4868000Y2610000D01*
X4870000Y2619000D01*
X4868000Y2628000D01*
X4863000Y2635500D01*
X4854000Y2640000D01*
X4845000Y2638500D01*
X4836000Y2632500D01*
G01X4688000Y4768000D02*
X4694000Y4757500D01*
X4702000Y4751500D01*
X4711000Y4750000D01*
X4719000Y4751500D01*
X4727000Y4759000D01*
X4732000Y4768000D01*
X4733000Y4777000D01*
X4731000Y4787500D01*
X4724000Y4795000D01*
X4717000Y4798000D01*
X4708000D01*
G01X4717000D02*
X4723000Y4802500D01*
X4728000Y4810000D01*
X4730000Y4819000D01*
X4728000Y4828000D01*
X4723000Y4835500D01*
X4714000Y4840000D01*
X4705000Y4838500D01*
X4696000Y4832500D01*
G01X4755000Y4840000D02*
X4780000Y4750000D01*
X4805000Y4840000D01*
G01X4828000Y4768000D02*
X4834000Y4757500D01*
X4842000Y4751500D01*
X4851000Y4750000D01*
X4859000Y4751500D01*
X4867000Y4759000D01*
X4872000Y4768000D01*
X4873000Y4777000D01*
X4871000Y4787500D01*
X4864000Y4795000D01*
X4857000Y4798000D01*
X4848000D01*
G01X4857000D02*
X4863000Y4802500D01*
X4868000Y4810000D01*
X4870000Y4819000D01*
X4868000Y4828000D01*
X4863000Y4835500D01*
X4854000Y4840000D01*
X4845000Y4838500D01*
X4836000Y4832500D01*
G01X5389000Y1152000D02*
X5397000Y1144500D01*
X5406000Y1140000D01*
X5414000D01*
X5422000Y1144500D01*
X5428000Y1152000D01*
X5431000Y1162500D01*
X5429000Y1173000D01*
X5424000Y1182000D01*
X5415000Y1188000D01*
X5403000Y1191000D01*
X5396000Y1197000D01*
X5393000Y1207500D01*
X5395000Y1218000D01*
X5400000Y1225500D01*
X5407000Y1230000D01*
X5414000D01*
X5421000Y1227000D01*
X5427000Y1219500D01*
G01X5502000Y1222500D02*
X5496000Y1227000D01*
X5489000Y1230000D01*
X5481000D01*
X5472000Y1225500D01*
X5465000Y1218000D01*
X5460000Y1209000D01*
X5456000Y1194000D01*
X5455000Y1180500D01*
X5457000Y1167000D01*
X5460000Y1158000D01*
X5466000Y1149000D01*
X5473000Y1143000D01*
X5480000Y1140000D01*
X5487000D01*
X5494000Y1143000D01*
X5500000Y1147500D01*
X5505000Y1153500D01*
G01X5530000Y1230000D02*
Y1140000D01*
X5570000D01*
G01X5598000D02*
Y1230000D01*
G01X5636000D02*
X5598000Y1174500D01*
G01X5642000Y1140000D02*
X5615000Y1200000D01*
G01X5389000Y1032000D02*
X5397000Y1024500D01*
X5406000Y1020000D01*
X5414000D01*
X5422000Y1024500D01*
X5428000Y1032000D01*
X5431000Y1042500D01*
X5429000Y1053000D01*
X5424000Y1062000D01*
X5415000Y1068000D01*
X5403000Y1071000D01*
X5396000Y1077000D01*
X5393000Y1087500D01*
X5395000Y1098000D01*
X5400000Y1105500D01*
X5407000Y1110000D01*
X5414000D01*
X5421000Y1107000D01*
X5427000Y1099500D01*
G01X5502000Y1102500D02*
X5496000Y1107000D01*
X5489000Y1110000D01*
X5481000D01*
X5472000Y1105500D01*
X5465000Y1098000D01*
X5460000Y1089000D01*
X5456000Y1074000D01*
X5455000Y1060500D01*
X5457000Y1047000D01*
X5460000Y1038000D01*
X5466000Y1029000D01*
X5473000Y1023000D01*
X5480000Y1020000D01*
X5487000D01*
X5494000Y1023000D01*
X5500000Y1027500D01*
X5505000Y1033500D01*
G01X5529000Y1032000D02*
X5537000Y1024500D01*
X5546000Y1020000D01*
X5554000D01*
X5562000Y1024500D01*
X5568000Y1032000D01*
X5571000Y1042500D01*
X5569000Y1053000D01*
X5564000Y1062000D01*
X5555000Y1068000D01*
X5543000Y1071000D01*
X5536000Y1077000D01*
X5533000Y1087500D01*
X5535000Y1098000D01*
X5540000Y1105500D01*
X5547000Y1110000D01*
X5554000D01*
X5561000Y1107000D01*
X5567000Y1099500D01*
G01X5389000Y1272000D02*
X5397000Y1264500D01*
X5406000Y1260000D01*
X5414000D01*
X5422000Y1264500D01*
X5428000Y1272000D01*
X5431000Y1282500D01*
X5429000Y1293000D01*
X5424000Y1302000D01*
X5415000Y1308000D01*
X5403000Y1311000D01*
X5396000Y1317000D01*
X5393000Y1327500D01*
X5395000Y1338000D01*
X5400000Y1345500D01*
X5407000Y1350000D01*
X5414000D01*
X5421000Y1347000D01*
X5427000Y1339500D01*
G01X5458000Y1260000D02*
Y1350000D01*
X5478000D01*
X5486000Y1345500D01*
X5492000Y1339500D01*
X5497000Y1330500D01*
X5501000Y1320000D01*
X5502000Y1305000D01*
X5501000Y1290000D01*
X5497000Y1279500D01*
X5492000Y1270500D01*
X5486000Y1264500D01*
X5478000Y1260000D01*
X5458000D01*
G01X5525000D02*
X5550000Y1350000D01*
X5575000Y1260000D01*
G01X5566000Y1291500D02*
X5534000D01*
G01X5608000Y1350000D02*
X5632000D01*
G01X5620000D02*
Y1260000D01*
G01X5608000D02*
X5632000D01*
G01X5388000Y1620000D02*
Y1710000D01*
X5408000D01*
X5416000Y1705500D01*
X5422000Y1699500D01*
X5427000Y1690500D01*
X5431000Y1680000D01*
X5432000Y1665000D01*
X5431000Y1650000D01*
X5427000Y1639500D01*
X5422000Y1630500D01*
X5416000Y1624500D01*
X5408000Y1620000D01*
X5388000D01*
G01X5468000Y1710000D02*
X5492000D01*
G01X5480000D02*
Y1620000D01*
G01X5468000D02*
X5492000D01*
G01X5530000D02*
Y1710000D01*
X5555000D01*
X5563000Y1705500D01*
X5568000Y1699500D01*
X5570000Y1687500D01*
X5568000Y1675500D01*
X5562000Y1668000D01*
X5555000Y1663500D01*
X5530000D01*
G01X5555000D02*
X5570000Y1620000D01*
G01X5389000Y1512000D02*
X5397000Y1504500D01*
X5406000Y1500000D01*
X5414000D01*
X5422000Y1504500D01*
X5428000Y1512000D01*
X5431000Y1522500D01*
X5429000Y1533000D01*
X5424000Y1542000D01*
X5415000Y1548000D01*
X5403000Y1551000D01*
X5396000Y1557000D01*
X5393000Y1567500D01*
X5395000Y1578000D01*
X5400000Y1585500D01*
X5407000Y1590000D01*
X5414000D01*
X5421000Y1587000D01*
X5427000Y1579500D01*
G01X5480000Y1590000D02*
Y1500000D01*
G01X5457000Y1590000D02*
X5503000D01*
G01X5570000Y1500000D02*
X5530000D01*
Y1590000D01*
X5570000D01*
G01X5554000Y1546500D02*
X5530000D01*
G01X5600000Y1500000D02*
Y1590000D01*
X5624000D01*
X5632000Y1585500D01*
X5638000Y1575000D01*
X5640000Y1563000D01*
X5638000Y1551000D01*
X5633000Y1542000D01*
X5624000Y1537500D01*
X5600000D01*
G01X5389000Y1392000D02*
X5397000Y1384500D01*
X5406000Y1380000D01*
X5414000D01*
X5422000Y1384500D01*
X5428000Y1392000D01*
X5431000Y1402500D01*
X5429000Y1413000D01*
X5424000Y1422000D01*
X5415000Y1428000D01*
X5403000Y1431000D01*
X5396000Y1437000D01*
X5393000Y1447500D01*
X5395000Y1458000D01*
X5400000Y1465500D01*
X5407000Y1470000D01*
X5414000D01*
X5421000Y1467000D01*
X5427000Y1459500D01*
G01X5458000Y1380000D02*
Y1470000D01*
X5478000D01*
X5486000Y1465500D01*
X5492000Y1459500D01*
X5497000Y1450500D01*
X5501000Y1440000D01*
X5502000Y1425000D01*
X5501000Y1410000D01*
X5497000Y1399500D01*
X5492000Y1390500D01*
X5486000Y1384500D01*
X5478000Y1380000D01*
X5458000D01*
G01X5525000D02*
X5550000Y1470000D01*
X5575000Y1380000D01*
G01X5566000Y1411500D02*
X5534000D01*
G01X5620000Y1380000D02*
X5612000Y1381500D01*
X5605000Y1387500D01*
X5599000Y1396500D01*
X5595000Y1407000D01*
X5593000Y1419000D01*
Y1431000D01*
X5595000Y1443000D01*
X5599000Y1453500D01*
X5605000Y1462500D01*
X5612000Y1468500D01*
X5620000Y1470000D01*
X5628000Y1468500D01*
X5635000Y1462500D01*
X5641000Y1453500D01*
X5645000Y1443000D01*
X5647000Y1431000D01*
Y1419000D01*
X5645000Y1407000D01*
X5641000Y1396500D01*
X5635000Y1387500D01*
X5628000Y1381500D01*
X5620000Y1380000D01*
G01X5388000Y1860000D02*
Y1950000D01*
X5408000D01*
X5416000Y1945500D01*
X5422000Y1939500D01*
X5427000Y1930500D01*
X5431000Y1920000D01*
X5432000Y1905000D01*
X5431000Y1890000D01*
X5427000Y1879500D01*
X5422000Y1870500D01*
X5416000Y1864500D01*
X5408000Y1860000D01*
X5388000D01*
G01X5468000Y1950000D02*
X5492000D01*
G01X5480000D02*
Y1860000D01*
G01X5468000D02*
X5492000D01*
G01X5525000D02*
X5550000Y1950000D01*
X5575000Y1860000D01*
G01X5566000Y1891500D02*
X5534000D01*
G01X5626000Y1905000D02*
X5646000D01*
Y1878000D01*
X5640000Y1869000D01*
X5633000Y1863000D01*
X5623000Y1860000D01*
X5613000Y1863000D01*
X5606000Y1869000D01*
X5600000Y1878000D01*
X5596000Y1888500D01*
X5594000Y1900500D01*
Y1911000D01*
X5596000Y1920000D01*
X5600000Y1930500D01*
X5606000Y1939500D01*
X5612000Y1945500D01*
X5620000Y1950000D01*
X5627000D01*
X5635000Y1947000D01*
X5641000Y1941000D01*
G01X5690000Y1950000D02*
X5682000Y1947000D01*
X5676000Y1939500D01*
X5672000Y1930500D01*
X5669000Y1918500D01*
X5668000Y1905000D01*
X5669000Y1891500D01*
X5672000Y1879500D01*
X5676000Y1870500D01*
X5682000Y1863000D01*
X5690000Y1860000D01*
X5698000Y1863000D01*
X5704000Y1870500D01*
X5708000Y1879500D01*
X5711000Y1891500D01*
X5712000Y1905000D01*
X5711000Y1918500D01*
X5708000Y1930500D01*
X5704000Y1939500D01*
X5698000Y1947000D01*
X5690000Y1950000D01*
G01X5388000Y1740000D02*
Y1830000D01*
X5408000D01*
X5416000Y1825500D01*
X5422000Y1819500D01*
X5427000Y1810500D01*
X5431000Y1800000D01*
X5432000Y1785000D01*
X5431000Y1770000D01*
X5427000Y1759500D01*
X5422000Y1750500D01*
X5416000Y1744500D01*
X5408000Y1740000D01*
X5388000D01*
G01X5468000Y1830000D02*
X5492000D01*
G01X5480000D02*
Y1740000D01*
G01X5468000D02*
X5492000D01*
G01X5525000D02*
X5550000Y1830000D01*
X5575000Y1740000D01*
G01X5566000Y1771500D02*
X5534000D01*
G01X5626000Y1785000D02*
X5646000D01*
Y1758000D01*
X5640000Y1749000D01*
X5633000Y1743000D01*
X5623000Y1740000D01*
X5613000Y1743000D01*
X5606000Y1749000D01*
X5600000Y1758000D01*
X5596000Y1768500D01*
X5594000Y1780500D01*
Y1791000D01*
X5596000Y1800000D01*
X5600000Y1810500D01*
X5606000Y1819500D01*
X5612000Y1825500D01*
X5620000Y1830000D01*
X5627000D01*
X5635000Y1827000D01*
X5641000Y1821000D01*
G01X5690000Y1740000D02*
Y1830000D01*
X5678000Y1812000D01*
G01Y1740000D02*
X5702000D01*
G01X5388000Y1980000D02*
Y2070000D01*
X5408000D01*
X5416000Y2065500D01*
X5422000Y2059500D01*
X5427000Y2050500D01*
X5431000Y2040000D01*
X5432000Y2025000D01*
X5431000Y2010000D01*
X5427000Y1999500D01*
X5422000Y1990500D01*
X5416000Y1984500D01*
X5408000Y1980000D01*
X5388000D01*
G01X5460000D02*
Y2070000D01*
X5485000D01*
X5493000Y2065500D01*
X5498000Y2059500D01*
X5500000Y2047500D01*
X5498000Y2035500D01*
X5492000Y2028000D01*
X5485000Y2023500D01*
X5460000D01*
G01X5485000D02*
X5500000Y1980000D01*
G01X5525000Y2070000D02*
X5550000Y1980000D01*
X5575000Y2070000D01*
G01X5640000Y1980000D02*
X5600000D01*
Y2070000D01*
X5640000D01*
G01X5624000Y2026500D02*
X5600000D01*
G01X5667000Y1980000D02*
Y2070000D01*
X5713000Y1980000D01*
Y2070000D01*
G01X5385000Y2240000D02*
X5410000Y2150000D01*
X5435000Y2240000D01*
G01X5500000Y2150000D02*
X5460000D01*
Y2240000D01*
X5500000D01*
G01X5484000Y2196500D02*
X5460000D01*
G01X5530000Y2150000D02*
Y2240000D01*
X5555000D01*
X5563000Y2235500D01*
X5568000Y2229500D01*
X5570000Y2217500D01*
X5568000Y2205500D01*
X5562000Y2198000D01*
X5555000Y2193500D01*
X5530000D01*
G01X5555000D02*
X5570000Y2150000D01*
G01X5620000Y2240000D02*
Y2150000D01*
G01X5597000Y2240000D02*
X5643000D01*
G01X5389000Y3472000D02*
X5397000Y3464500D01*
X5406000Y3460000D01*
X5414000D01*
X5422000Y3464500D01*
X5428000Y3472000D01*
X5431000Y3482500D01*
X5429000Y3493000D01*
X5424000Y3502000D01*
X5415000Y3508000D01*
X5403000Y3511000D01*
X5396000Y3517000D01*
X5393000Y3527500D01*
X5395000Y3538000D01*
X5400000Y3545500D01*
X5407000Y3550000D01*
X5414000D01*
X5421000Y3547000D01*
X5427000Y3539500D01*
G01X5458000Y3460000D02*
Y3550000D01*
X5478000D01*
X5486000Y3545500D01*
X5492000Y3539500D01*
X5497000Y3530500D01*
X5501000Y3520000D01*
X5502000Y3505000D01*
X5501000Y3490000D01*
X5497000Y3479500D01*
X5492000Y3470500D01*
X5486000Y3464500D01*
X5478000Y3460000D01*
X5458000D01*
G01X5525000D02*
X5550000Y3550000D01*
X5575000Y3460000D01*
G01X5566000Y3491500D02*
X5534000D01*
G01X5608000Y3550000D02*
X5632000D01*
G01X5620000D02*
Y3460000D01*
G01X5608000D02*
X5632000D01*
G01X5389000Y3352000D02*
X5397000Y3344500D01*
X5406000Y3340000D01*
X5414000D01*
X5422000Y3344500D01*
X5428000Y3352000D01*
X5431000Y3362500D01*
X5429000Y3373000D01*
X5424000Y3382000D01*
X5415000Y3388000D01*
X5403000Y3391000D01*
X5396000Y3397000D01*
X5393000Y3407500D01*
X5395000Y3418000D01*
X5400000Y3425500D01*
X5407000Y3430000D01*
X5414000D01*
X5421000Y3427000D01*
X5427000Y3419500D01*
G01X5502000Y3422500D02*
X5496000Y3427000D01*
X5489000Y3430000D01*
X5481000D01*
X5472000Y3425500D01*
X5465000Y3418000D01*
X5460000Y3409000D01*
X5456000Y3394000D01*
X5455000Y3380500D01*
X5457000Y3367000D01*
X5460000Y3358000D01*
X5466000Y3349000D01*
X5473000Y3343000D01*
X5480000Y3340000D01*
X5487000D01*
X5494000Y3343000D01*
X5500000Y3347500D01*
X5505000Y3353500D01*
G01X5530000Y3430000D02*
Y3340000D01*
X5570000D01*
G01X5598000D02*
Y3430000D01*
G01X5636000D02*
X5598000Y3374500D01*
G01X5642000Y3340000D02*
X5615000Y3400000D01*
G01X5389000Y3232000D02*
X5397000Y3224500D01*
X5406000Y3220000D01*
X5414000D01*
X5422000Y3224500D01*
X5428000Y3232000D01*
X5431000Y3242500D01*
X5429000Y3253000D01*
X5424000Y3262000D01*
X5415000Y3268000D01*
X5403000Y3271000D01*
X5396000Y3277000D01*
X5393000Y3287500D01*
X5395000Y3298000D01*
X5400000Y3305500D01*
X5407000Y3310000D01*
X5414000D01*
X5421000Y3307000D01*
X5427000Y3299500D01*
G01X5502000Y3302500D02*
X5496000Y3307000D01*
X5489000Y3310000D01*
X5481000D01*
X5472000Y3305500D01*
X5465000Y3298000D01*
X5460000Y3289000D01*
X5456000Y3274000D01*
X5455000Y3260500D01*
X5457000Y3247000D01*
X5460000Y3238000D01*
X5466000Y3229000D01*
X5473000Y3223000D01*
X5480000Y3220000D01*
X5487000D01*
X5494000Y3223000D01*
X5500000Y3227500D01*
X5505000Y3233500D01*
G01X5529000Y3232000D02*
X5537000Y3224500D01*
X5546000Y3220000D01*
X5554000D01*
X5562000Y3224500D01*
X5568000Y3232000D01*
X5571000Y3242500D01*
X5569000Y3253000D01*
X5564000Y3262000D01*
X5555000Y3268000D01*
X5543000Y3271000D01*
X5536000Y3277000D01*
X5533000Y3287500D01*
X5535000Y3298000D01*
X5540000Y3305500D01*
X5547000Y3310000D01*
X5554000D01*
X5561000Y3307000D01*
X5567000Y3299500D01*
G01X5388000Y3820000D02*
Y3910000D01*
X5408000D01*
X5416000Y3905500D01*
X5422000Y3899500D01*
X5427000Y3890500D01*
X5431000Y3880000D01*
X5432000Y3865000D01*
X5431000Y3850000D01*
X5427000Y3839500D01*
X5422000Y3830500D01*
X5416000Y3824500D01*
X5408000Y3820000D01*
X5388000D01*
G01X5468000Y3910000D02*
X5492000D01*
G01X5480000D02*
Y3820000D01*
G01X5468000D02*
X5492000D01*
G01X5530000D02*
Y3910000D01*
X5555000D01*
X5563000Y3905500D01*
X5568000Y3899500D01*
X5570000Y3887500D01*
X5568000Y3875500D01*
X5562000Y3868000D01*
X5555000Y3863500D01*
X5530000D01*
G01X5555000D02*
X5570000Y3820000D01*
G01X5389000Y3712000D02*
X5397000Y3704500D01*
X5406000Y3700000D01*
X5414000D01*
X5422000Y3704500D01*
X5428000Y3712000D01*
X5431000Y3722500D01*
X5429000Y3733000D01*
X5424000Y3742000D01*
X5415000Y3748000D01*
X5403000Y3751000D01*
X5396000Y3757000D01*
X5393000Y3767500D01*
X5395000Y3778000D01*
X5400000Y3785500D01*
X5407000Y3790000D01*
X5414000D01*
X5421000Y3787000D01*
X5427000Y3779500D01*
G01X5480000Y3790000D02*
Y3700000D01*
G01X5457000Y3790000D02*
X5503000D01*
G01X5570000Y3700000D02*
X5530000D01*
Y3790000D01*
X5570000D01*
G01X5554000Y3746500D02*
X5530000D01*
G01X5600000Y3700000D02*
Y3790000D01*
X5624000D01*
X5632000Y3785500D01*
X5638000Y3775000D01*
X5640000Y3763000D01*
X5638000Y3751000D01*
X5633000Y3742000D01*
X5624000Y3737500D01*
X5600000D01*
G01X5389000Y3592000D02*
X5397000Y3584500D01*
X5406000Y3580000D01*
X5414000D01*
X5422000Y3584500D01*
X5428000Y3592000D01*
X5431000Y3602500D01*
X5429000Y3613000D01*
X5424000Y3622000D01*
X5415000Y3628000D01*
X5403000Y3631000D01*
X5396000Y3637000D01*
X5393000Y3647500D01*
X5395000Y3658000D01*
X5400000Y3665500D01*
X5407000Y3670000D01*
X5414000D01*
X5421000Y3667000D01*
X5427000Y3659500D01*
G01X5458000Y3580000D02*
Y3670000D01*
X5478000D01*
X5486000Y3665500D01*
X5492000Y3659500D01*
X5497000Y3650500D01*
X5501000Y3640000D01*
X5502000Y3625000D01*
X5501000Y3610000D01*
X5497000Y3599500D01*
X5492000Y3590500D01*
X5486000Y3584500D01*
X5478000Y3580000D01*
X5458000D01*
G01X5525000D02*
X5550000Y3670000D01*
X5575000Y3580000D01*
G01X5566000Y3611500D02*
X5534000D01*
G01X5620000Y3580000D02*
X5612000Y3581500D01*
X5605000Y3587500D01*
X5599000Y3596500D01*
X5595000Y3607000D01*
X5593000Y3619000D01*
Y3631000D01*
X5595000Y3643000D01*
X5599000Y3653500D01*
X5605000Y3662500D01*
X5612000Y3668500D01*
X5620000Y3670000D01*
X5628000Y3668500D01*
X5635000Y3662500D01*
X5641000Y3653500D01*
X5645000Y3643000D01*
X5647000Y3631000D01*
Y3619000D01*
X5645000Y3607000D01*
X5641000Y3596500D01*
X5635000Y3587500D01*
X5628000Y3581500D01*
X5620000Y3580000D01*
G01X5388000Y4180000D02*
Y4270000D01*
X5408000D01*
X5416000Y4265500D01*
X5422000Y4259500D01*
X5427000Y4250500D01*
X5431000Y4240000D01*
X5432000Y4225000D01*
X5431000Y4210000D01*
X5427000Y4199500D01*
X5422000Y4190500D01*
X5416000Y4184500D01*
X5408000Y4180000D01*
X5388000D01*
G01X5460000D02*
Y4270000D01*
X5485000D01*
X5493000Y4265500D01*
X5498000Y4259500D01*
X5500000Y4247500D01*
X5498000Y4235500D01*
X5492000Y4228000D01*
X5485000Y4223500D01*
X5460000D01*
G01X5485000D02*
X5500000Y4180000D01*
G01X5525000Y4270000D02*
X5550000Y4180000D01*
X5575000Y4270000D01*
G01X5640000Y4180000D02*
X5600000D01*
Y4270000D01*
X5640000D01*
G01X5624000Y4226500D02*
X5600000D01*
G01X5667000Y4180000D02*
Y4270000D01*
X5713000Y4180000D01*
Y4270000D01*
G01X5388000Y4060000D02*
Y4150000D01*
X5408000D01*
X5416000Y4145500D01*
X5422000Y4139500D01*
X5427000Y4130500D01*
X5431000Y4120000D01*
X5432000Y4105000D01*
X5431000Y4090000D01*
X5427000Y4079500D01*
X5422000Y4070500D01*
X5416000Y4064500D01*
X5408000Y4060000D01*
X5388000D01*
G01X5468000Y4150000D02*
X5492000D01*
G01X5480000D02*
Y4060000D01*
G01X5468000D02*
X5492000D01*
G01X5525000D02*
X5550000Y4150000D01*
X5575000Y4060000D01*
G01X5566000Y4091500D02*
X5534000D01*
G01X5626000Y4105000D02*
X5646000D01*
Y4078000D01*
X5640000Y4069000D01*
X5633000Y4063000D01*
X5623000Y4060000D01*
X5613000Y4063000D01*
X5606000Y4069000D01*
X5600000Y4078000D01*
X5596000Y4088500D01*
X5594000Y4100500D01*
Y4111000D01*
X5596000Y4120000D01*
X5600000Y4130500D01*
X5606000Y4139500D01*
X5612000Y4145500D01*
X5620000Y4150000D01*
X5627000D01*
X5635000Y4147000D01*
X5641000Y4141000D01*
G01X5690000Y4150000D02*
X5682000Y4147000D01*
X5676000Y4139500D01*
X5672000Y4130500D01*
X5669000Y4118500D01*
X5668000Y4105000D01*
X5669000Y4091500D01*
X5672000Y4079500D01*
X5676000Y4070500D01*
X5682000Y4063000D01*
X5690000Y4060000D01*
X5698000Y4063000D01*
X5704000Y4070500D01*
X5708000Y4079500D01*
X5711000Y4091500D01*
X5712000Y4105000D01*
X5711000Y4118500D01*
X5708000Y4130500D01*
X5704000Y4139500D01*
X5698000Y4147000D01*
X5690000Y4150000D01*
G01X5388000Y3940000D02*
Y4030000D01*
X5408000D01*
X5416000Y4025500D01*
X5422000Y4019500D01*
X5427000Y4010500D01*
X5431000Y4000000D01*
X5432000Y3985000D01*
X5431000Y3970000D01*
X5427000Y3959500D01*
X5422000Y3950500D01*
X5416000Y3944500D01*
X5408000Y3940000D01*
X5388000D01*
G01X5468000Y4030000D02*
X5492000D01*
G01X5480000D02*
Y3940000D01*
G01X5468000D02*
X5492000D01*
G01X5525000D02*
X5550000Y4030000D01*
X5575000Y3940000D01*
G01X5566000Y3971500D02*
X5534000D01*
G01X5626000Y3985000D02*
X5646000D01*
Y3958000D01*
X5640000Y3949000D01*
X5633000Y3943000D01*
X5623000Y3940000D01*
X5613000Y3943000D01*
X5606000Y3949000D01*
X5600000Y3958000D01*
X5596000Y3968500D01*
X5594000Y3980500D01*
Y3991000D01*
X5596000Y4000000D01*
X5600000Y4010500D01*
X5606000Y4019500D01*
X5612000Y4025500D01*
X5620000Y4030000D01*
X5627000D01*
X5635000Y4027000D01*
X5641000Y4021000D01*
G01X5690000Y3940000D02*
Y4030000D01*
X5678000Y4012000D01*
G01Y3940000D02*
X5702000D01*
G01X5389000Y4350000D02*
Y4440000D01*
G01X5431000D02*
Y4350000D01*
G01Y4395000D02*
X5389000D01*
G01X5480000Y4350000D02*
X5472000Y4351500D01*
X5465000Y4357500D01*
X5459000Y4366500D01*
X5455000Y4377000D01*
X5453000Y4389000D01*
Y4401000D01*
X5455000Y4413000D01*
X5459000Y4423500D01*
X5465000Y4432500D01*
X5472000Y4438500D01*
X5480000Y4440000D01*
X5488000Y4438500D01*
X5495000Y4432500D01*
X5501000Y4423500D01*
X5505000Y4413000D01*
X5507000Y4401000D01*
Y4389000D01*
X5505000Y4377000D01*
X5501000Y4366500D01*
X5495000Y4357500D01*
X5488000Y4351500D01*
X5480000Y4350000D01*
G01X5530000D02*
Y4440000D01*
X5555000D01*
X5563000Y4435500D01*
X5568000Y4429500D01*
X5570000Y4417500D01*
X5568000Y4405500D01*
X5562000Y4398000D01*
X5555000Y4393500D01*
X5530000D01*
G01X5555000D02*
X5570000Y4350000D01*
G01X5608000Y4440000D02*
X5632000D01*
G01X5620000D02*
Y4350000D01*
G01X5608000D02*
X5632000D01*
G01X6076000Y4865000D02*
X6096000D01*
Y4838000D01*
X6090000Y4829000D01*
X6083000Y4823000D01*
X6073000Y4820000D01*
X6063000Y4823000D01*
X6056000Y4829000D01*
X6050000Y4838000D01*
X6046000Y4848500D01*
X6044000Y4860500D01*
Y4871000D01*
X6046000Y4880000D01*
X6050000Y4890500D01*
X6056000Y4899500D01*
X6062000Y4905500D01*
X6070000Y4910000D01*
X6077000D01*
X6085000Y4907000D01*
X6091000Y4901000D01*
G01X6117000Y4820000D02*
Y4910000D01*
X6163000Y4820000D01*
Y4910000D01*
G01X6188000Y4820000D02*
Y4910000D01*
X6208000D01*
X6216000Y4905500D01*
X6222000Y4899500D01*
X6227000Y4890500D01*
X6231000Y4880000D01*
X6232000Y4865000D01*
X6231000Y4850000D01*
X6227000Y4839500D01*
X6222000Y4830500D01*
X6216000Y4824500D01*
X6208000Y4820000D01*
X6188000D01*
G01X6821000Y4895000D02*
X6827000Y4904000D01*
X6834000Y4908500D01*
X6842000Y4910000D01*
X6852000Y4907000D01*
X6859000Y4899500D01*
X6861000Y4890500D01*
X6860000Y4881500D01*
X6856000Y4874000D01*
X6836000Y4859000D01*
X6827000Y4848500D01*
X6821000Y4833500D01*
X6819000Y4820000D01*
X6861000D01*
G01X6922000D02*
Y4910000D01*
X6885000Y4845500D01*
X6935000D01*
G01X6955000Y4910000D02*
X6980000Y4820000D01*
X7005000Y4910000D01*
M02*
