G04 ================== begin FILE IDENTIFICATION RECORD ==================*
G04 Layout Name:  TMC2160A_V10_220915.brd*
G04 Film Name:    SilkScreen_Bottom*
G04 File Format:  Gerber RS274X*
G04 File Origin:  Cadence Allegro 17.2-S079*
G04 Origin Date:  Thu Sep 15 16:55:05 2022*
G04 *
G04 Layer:  PACKAGE GEOMETRY/SILKSCREEN_BOTTOM*
G04 Layer:  BOARD GEOMETRY/SILKSCREEN_BOTTOM*
G04 *
G04 Offset:    (0.0000 0.0000)*
G04 Mirror:    No*
G04 Mode:      Positive*
G04 Rotation:  0*
G04 FullContactRelief:  No*
G04 UndefLineWidth:     0.1524*
G04 ================== end FILE IDENTIFICATION RECORD ====================*
%FSLAX55Y55*MOMM*%
%IR0*IPPOS*OFA0.00000B0.00000*MIA0B0*SFA1.00000B1.00000*%
%ADD10C,.2*%
%ADD11C,.1524*%
G75*
%LPD*%
G75*
G54D10*
G01X7460000Y6070000D02*
X8840000D01*
Y5710000D01*
X7460000D01*
Y6070000D01*
G54D11*
G01X8780000Y6020000D02*
Y5930000D01*
G01X8803000Y6020000D02*
X8757000D01*
G01X8736000Y5930000D02*
Y6020000D01*
X8710000Y5945000D01*
X8684000Y6020000D01*
Y5930000D01*
G01X8618000Y6012500D02*
X8624000Y6017000D01*
X8631000Y6020000D01*
X8639000D01*
X8648000Y6015500D01*
X8655000Y6008000D01*
X8660000Y5999000D01*
X8664000Y5984000D01*
X8665000Y5970500D01*
X8663000Y5957000D01*
X8660000Y5948000D01*
X8654000Y5939000D01*
X8647000Y5933000D01*
X8640000Y5930000D01*
X8633000D01*
X8626000Y5933000D01*
X8620000Y5937500D01*
X8615000Y5943500D01*
G01X8589000Y6005000D02*
X8583000Y6014000D01*
X8576000Y6018500D01*
X8568000Y6020000D01*
X8558000Y6017000D01*
X8551000Y6009500D01*
X8549000Y6000500D01*
X8550000Y5991500D01*
X8554000Y5984000D01*
X8574000Y5969000D01*
X8583000Y5958500D01*
X8589000Y5943500D01*
X8591000Y5930000D01*
X8549000D01*
G01X8500000D02*
Y6020000D01*
X8512000Y6002000D01*
G01Y5930000D02*
X8488000D01*
G01X8449000Y5967500D02*
X8442000Y5978000D01*
X8436000Y5984000D01*
X8428000Y5987000D01*
X8421000Y5984000D01*
X8416000Y5978000D01*
X8412000Y5969000D01*
X8411000Y5958500D01*
X8412000Y5949500D01*
X8416000Y5940500D01*
X8422000Y5933000D01*
X8429000Y5930000D01*
X8437000Y5933000D01*
X8444000Y5942000D01*
X8448000Y5955500D01*
X8449000Y5970500D01*
X8447000Y5990000D01*
X8444000Y6000500D01*
X8439000Y6011000D01*
X8432000Y6018500D01*
X8425000Y6020000D01*
X8418000Y6017000D01*
X8413000Y6009500D01*
G01X8360000Y6020000D02*
X8368000Y6017000D01*
X8374000Y6009500D01*
X8378000Y6000500D01*
X8381000Y5988500D01*
X8382000Y5975000D01*
X8381000Y5961500D01*
X8378000Y5949500D01*
X8374000Y5940500D01*
X8368000Y5933000D01*
X8360000Y5930000D01*
X8352000Y5933000D01*
X8346000Y5940500D01*
X8342000Y5949500D01*
X8339000Y5961500D01*
X8338000Y5975000D01*
X8339000Y5988500D01*
X8342000Y6000500D01*
X8346000Y6009500D01*
X8352000Y6017000D01*
X8360000Y6020000D01*
G01X8315000Y5930000D02*
X8290000Y6020000D01*
X8265000Y5930000D01*
G01X8274000Y5961500D02*
X8306000D01*
G01X8250000Y5900000D02*
X8190000D01*
G01X8175000Y6020000D02*
X8150000Y5930000D01*
X8125000Y6020000D01*
G01X8080000Y5930000D02*
Y6020000D01*
X8092000Y6002000D01*
G01Y5930000D02*
X8068000D01*
G01X8010000Y6020000D02*
X8018000Y6017000D01*
X8024000Y6009500D01*
X8028000Y6000500D01*
X8031000Y5988500D01*
X8032000Y5975000D01*
X8031000Y5961500D01*
X8028000Y5949500D01*
X8024000Y5940500D01*
X8018000Y5933000D01*
X8010000Y5930000D01*
X8002000Y5933000D01*
X7996000Y5940500D01*
X7992000Y5949500D01*
X7989000Y5961500D01*
X7988000Y5975000D01*
X7989000Y5988500D01*
X7992000Y6000500D01*
X7996000Y6009500D01*
X8002000Y6017000D01*
X8010000Y6020000D01*
G01X7970000Y5900000D02*
X7910000D01*
G01X7889000Y6005000D02*
X7883000Y6014000D01*
X7876000Y6018500D01*
X7868000Y6020000D01*
X7858000Y6017000D01*
X7851000Y6009500D01*
X7849000Y6000500D01*
X7850000Y5991500D01*
X7854000Y5984000D01*
X7874000Y5969000D01*
X7883000Y5958500D01*
X7889000Y5943500D01*
X7891000Y5930000D01*
X7849000D01*
G01X7819000Y6005000D02*
X7813000Y6014000D01*
X7806000Y6018500D01*
X7798000Y6020000D01*
X7788000Y6017000D01*
X7781000Y6009500D01*
X7779000Y6000500D01*
X7780000Y5991500D01*
X7784000Y5984000D01*
X7804000Y5969000D01*
X7813000Y5958500D01*
X7819000Y5943500D01*
X7821000Y5930000D01*
X7779000D01*
G01X7730000Y6020000D02*
X7738000Y6017000D01*
X7744000Y6009500D01*
X7748000Y6000500D01*
X7751000Y5988500D01*
X7752000Y5975000D01*
X7751000Y5961500D01*
X7748000Y5949500D01*
X7744000Y5940500D01*
X7738000Y5933000D01*
X7730000Y5930000D01*
X7722000Y5933000D01*
X7716000Y5940500D01*
X7712000Y5949500D01*
X7709000Y5961500D01*
X7708000Y5975000D01*
X7709000Y5988500D01*
X7712000Y6000500D01*
X7716000Y6009500D01*
X7722000Y6017000D01*
X7730000Y6020000D01*
G01X7677000Y5940500D02*
X7670000Y5933000D01*
X7662000Y5930000D01*
X7654000Y5933000D01*
X7647000Y5942000D01*
X7642000Y5955500D01*
X7640000Y5969000D01*
Y5985500D01*
X7642000Y5999000D01*
X7647000Y6011000D01*
X7653000Y6017000D01*
X7660000Y6020000D01*
X7668000Y6017000D01*
X7674000Y6011000D01*
X7678000Y6002000D01*
X7680000Y5990000D01*
X7678000Y5979500D01*
X7673000Y5969000D01*
X7667000Y5963000D01*
X7660000Y5961500D01*
X7652000Y5964500D01*
X7646000Y5972000D01*
X7640000Y5985500D01*
G01X7590000Y5930000D02*
Y6020000D01*
X7602000Y6002000D01*
G01Y5930000D02*
X7578000D01*
G01X7542000Y5943500D02*
X7536000Y5936000D01*
X7529000Y5931500D01*
X7520000Y5930000D01*
X7511000Y5933000D01*
X7504000Y5939000D01*
X7499000Y5949500D01*
X7498000Y5961500D01*
X7500000Y5973500D01*
X7505000Y5981000D01*
X7512000Y5987000D01*
X7519000Y5988500D01*
X7526000Y5987000D01*
X7535000Y5981000D01*
X7532000Y6020000D01*
X7505000D01*
G01X8791000Y5760000D02*
X8749000Y5850000D01*
G01X8791000D02*
X8749000Y5760000D01*
G01X8721000D02*
X8679000Y5850000D01*
G01X8721000D02*
X8679000Y5760000D01*
G01X8651000D02*
X8609000Y5850000D01*
G01X8651000D02*
X8609000Y5760000D01*
G01X8580000Y5850000D02*
Y5760000D01*
X8540000D01*
G01X8509000Y5850000D02*
X8471000D01*
X8509000Y5760000D01*
X8471000D01*
G01X8440000Y5778000D02*
X8435000Y5769000D01*
X8429000Y5763000D01*
X8422000Y5760000D01*
X8414000Y5763000D01*
X8408000Y5769000D01*
X8402000Y5778000D01*
X8400000Y5790000D01*
Y5850000D01*
G01X8371000Y5760000D02*
X8329000Y5850000D01*
G01X8371000D02*
X8329000Y5760000D01*
G01X8301000D02*
X8259000Y5850000D01*
G01X8301000D02*
X8259000Y5760000D01*
G01X8231000D02*
X8189000Y5850000D01*
G01X8231000D02*
X8189000Y5760000D01*
M02*
