G04 ================== begin FILE IDENTIFICATION RECORD ==================*
G04 Layout Name:  TMC2160A_V10_220915.brd*
G04 Film Name:    SolderMask_Top*
G04 File Format:  Gerber RS274X*
G04 File Origin:  Cadence Allegro 17.2-S079*
G04 Origin Date:  Thu Sep 15 16:55:05 2022*
G04 *
G04 Layer:  PIN/SOLDERMASK_TOP*
G04 Layer:  PACKAGE GEOMETRY/SOLDERMASK_TOP*
G04 Layer:  BOARD GEOMETRY/SOLDERMASK_TOP*
G04 *
G04 Offset:    (0.0000 0.0000)*
G04 Mirror:    No*
G04 Mode:      Positive*
G04 Rotation:  0*
G04 FullContactRelief:  No*
G04 UndefLineWidth:     0.1524*
G04 ================== end FILE IDENTIFICATION RECORD ====================*
%FSLAX55Y55*MOMM*%
%IR0*IPPOS*OFA0.00000B0.00000*MIA0B0*SFA1.00000B1.00000*%
%ADD23R,1.3X.35*%
%ADD25R,1.3X.8*%
%ADD21R,.35X1.3*%
%ADD15R,1.6X.7*%
%ADD24C,.85*%
%ADD18R,.9X.9*%
%ADD20R,1.3X1.1*%
%ADD22R,5.1X5.1*%
%ADD30O,4.15X2.15*%
%ADD29O,2.15X4.15*%
%ADD17R,3.3X1.9*%
%ADD28R,1.9X1.7*%
%ADD16R,.6X.7*%
%ADD27C,2.3*%
%ADD19R,.7X.6*%
%ADD11C,1.4*%
%ADD10C,7.*%
%ADD12C,1.7*%
%ADD14C,1.8*%
%ADD13R,1.7X1.7*%
%ADD26R,1.9X1.9*%
%LPD*%
G75*
G54D10*
X360000Y360000D03*
Y5740000D03*
X9640000Y360000D03*
Y5740000D03*
G54D11*
X860000Y830000D03*
Y5240000D03*
X1160000Y830000D03*
Y5240000D03*
G54D20*
X3310000Y1008400D03*
Y1211600D03*
Y3218400D03*
Y3421600D03*
X3850000Y2858400D03*
Y3061600D03*
Y5068400D03*
Y5271600D03*
X4430000Y2378400D03*
Y2581600D03*
Y4568400D03*
Y4771600D03*
G54D12*
X760000Y1545000D03*
Y1795000D03*
Y2045000D03*
Y3755000D03*
Y4005000D03*
Y4255000D03*
G54D30*
X8880000Y4790000D03*
G54D21*
X3495000Y1490000D03*
X3445000D03*
X3395000D03*
X3345000D03*
Y2350000D03*
X3395000D03*
X3445000D03*
X3495000D03*
Y3700000D03*
X3445000D03*
X3395000D03*
X3345000D03*
Y4560000D03*
X3395000D03*
X3445000D03*
X3495000D03*
X3845000Y1490000D03*
X3795000D03*
X3745000D03*
X3695000D03*
X3645000D03*
X3595000D03*
X3545000D03*
Y2350000D03*
X3595000D03*
X3645000D03*
X3695000D03*
X3745000D03*
X3795000D03*
X3845000D03*
Y3700000D03*
X3795000D03*
X3745000D03*
X3695000D03*
X3645000D03*
X3595000D03*
X3545000D03*
Y4560000D03*
X3595000D03*
X3645000D03*
X3695000D03*
X3745000D03*
X3795000D03*
X3845000D03*
X3895000Y1490000D03*
Y2350000D03*
Y3700000D03*
Y4560000D03*
G54D13*
X760000Y2295000D03*
Y4505000D03*
G54D22*
X3620000Y1920000D03*
Y4130000D03*
G54D14*
X1574000Y373000D03*
Y627000D03*
Y5473000D03*
Y5727000D03*
X1828000Y373000D03*
Y627000D03*
Y5473000D03*
Y5727000D03*
X2082000Y373000D03*
X2336000D03*
X2082000Y627000D03*
X2336000D03*
X2082000Y5473000D03*
X2336000D03*
X2082000Y5727000D03*
X2336000D03*
X2590000Y373000D03*
Y627000D03*
Y5473000D03*
Y5727000D03*
X2844000Y373000D03*
X3098000D03*
X2844000Y627000D03*
X3098000D03*
X2844000Y5473000D03*
X3098000D03*
X2844000Y5727000D03*
X3098000D03*
X3352000Y373000D03*
Y627000D03*
Y5473000D03*
Y5727000D03*
X3606000Y373000D03*
X3860000D03*
X3606000Y627000D03*
X3860000D03*
X3606000Y5473000D03*
X3860000D03*
X3606000Y5727000D03*
X3860000D03*
X4114000Y373000D03*
Y627000D03*
Y5473000D03*
Y5727000D03*
X4368000Y373000D03*
X4622000D03*
X4368000Y627000D03*
X4622000D03*
X4368000Y5473000D03*
X4622000D03*
X4368000Y5727000D03*
X4622000D03*
X4876000Y373000D03*
Y627000D03*
Y5473000D03*
Y5727000D03*
X5130000Y373000D03*
Y5473000D03*
G54D23*
X3190000Y1645000D03*
Y1695000D03*
Y1745000D03*
Y1795000D03*
Y1845000D03*
Y1895000D03*
Y1945000D03*
Y1995000D03*
Y2045000D03*
Y2095000D03*
Y2145000D03*
Y2195000D03*
Y3855000D03*
Y3905000D03*
Y3955000D03*
Y4005000D03*
Y4055000D03*
Y4105000D03*
Y4155000D03*
Y4205000D03*
Y4255000D03*
Y4305000D03*
Y4355000D03*
Y4405000D03*
X4050000Y1945000D03*
Y1895000D03*
Y1845000D03*
Y1795000D03*
Y1745000D03*
Y1695000D03*
Y1645000D03*
Y2195000D03*
Y2145000D03*
Y2095000D03*
Y2045000D03*
Y1995000D03*
Y3855000D03*
Y4255000D03*
Y4205000D03*
Y4155000D03*
Y4105000D03*
Y4055000D03*
Y4005000D03*
Y3955000D03*
Y3905000D03*
Y4405000D03*
Y4355000D03*
Y4305000D03*
G54D24*
X4600000Y2590000D03*
Y4780000D03*
G54D15*
X1550000Y840000D03*
Y967000D03*
Y1094000D03*
Y1221000D03*
Y1380000D03*
Y1507000D03*
Y1634000D03*
Y1761000D03*
Y1920000D03*
Y2047000D03*
Y2174000D03*
Y2301000D03*
Y2460000D03*
Y2587000D03*
Y2714000D03*
Y2841000D03*
Y3050000D03*
Y3177000D03*
Y3304000D03*
Y3431000D03*
Y3590000D03*
Y3717000D03*
Y3844000D03*
Y3971000D03*
Y4130000D03*
Y4257000D03*
Y4670000D03*
Y4384000D03*
Y4511000D03*
Y4797000D03*
Y4924000D03*
Y5051000D03*
X2090000Y840000D03*
Y1221000D03*
Y1094000D03*
Y967000D03*
Y1507000D03*
Y1380000D03*
Y1761000D03*
Y1634000D03*
Y1920000D03*
Y2301000D03*
Y2174000D03*
Y2047000D03*
Y2714000D03*
Y2587000D03*
Y2460000D03*
Y2841000D03*
Y3050000D03*
Y3431000D03*
Y3304000D03*
Y3177000D03*
Y3844000D03*
Y3717000D03*
Y3590000D03*
Y3971000D03*
Y4257000D03*
Y4130000D03*
Y4670000D03*
Y4511000D03*
Y4384000D03*
Y5051000D03*
Y4924000D03*
Y4797000D03*
G54D16*
X2355000Y970000D03*
X2265000D03*
X2355000Y1220000D03*
X2265000D03*
X2355000Y1510000D03*
X2265000D03*
X2355000Y1760000D03*
X2265000D03*
X2355000Y2050000D03*
X2265000D03*
X2355000Y2304950D03*
X2265000D03*
X2355000Y2590000D03*
X2265000D03*
X2355000Y2840000D03*
X2265000D03*
X2355000Y3180000D03*
X2265000D03*
X2355000Y3430000D03*
X2265000D03*
X2355000Y3720000D03*
X2265000D03*
X2355000Y3970000D03*
X2265000D03*
X2355000Y4260000D03*
X2265000D03*
X2355000Y4514950D03*
X2265000D03*
X2355000Y4800000D03*
X2265000D03*
X2355000Y5050000D03*
X2265000D03*
X2985000Y980000D03*
X2895000D03*
X2985000Y1100000D03*
X2895000D03*
X2985000Y2700000D03*
X2895000D03*
X2985000Y2820000D03*
X2895000D03*
X2985000Y3310000D03*
X2895000D03*
X2985000Y3190000D03*
X2895000D03*
X2985000Y4910000D03*
X2895000D03*
X2985000Y5030000D03*
X2895000D03*
X4385000Y2150000D03*
X4295000D03*
X4645000D03*
X4385000Y4360000D03*
X4295000D03*
X4645000D03*
X4985000Y1180000D03*
Y1420000D03*
Y1660000D03*
Y1900000D03*
X4735000Y2150000D03*
X4985000Y3380000D03*
Y3620000D03*
Y3860000D03*
Y4100000D03*
X4735000Y4360000D03*
X5295370Y1060000D03*
X5205370D03*
X5075000Y1180000D03*
X5295370Y1300000D03*
X5205370D03*
X5075000Y1420000D03*
X5295370Y1540000D03*
X5205370D03*
X5075000Y1660000D03*
X5295370Y1780000D03*
X5205370D03*
X5075000Y1900000D03*
X5295370Y2020000D03*
X5205370D03*
X5295000Y2290000D03*
X5205000D03*
X5295000Y2410000D03*
X5205000D03*
X5075000Y3380000D03*
X5295000Y3500000D03*
X5205000D03*
X5295000Y3260000D03*
X5205000D03*
X5075000Y3620000D03*
X5295000Y3740000D03*
X5205000D03*
X5075000Y3860000D03*
X5295000Y3980000D03*
X5205000D03*
X5075000Y4100000D03*
X5295000Y4220000D03*
X5205000D03*
X5295000Y4610000D03*
X5205000D03*
X5295000Y4490000D03*
X5205000D03*
G54D25*
X4740000Y2285000D03*
X5000000Y2380000D03*
Y2285000D03*
X4740000Y2475000D03*
X5000000D03*
X4740000Y2725000D03*
X5000000D03*
X4740000Y2915000D03*
X5000000D03*
Y2820000D03*
X4740000Y4485000D03*
Y4675000D03*
X5000000D03*
Y4580000D03*
Y4485000D03*
X4740000Y4915000D03*
X5000000Y5010000D03*
Y4915000D03*
X4740000Y5105000D03*
X5000000D03*
G54D26*
X5130000Y627000D03*
Y5727000D03*
G54D17*
X2620000Y940000D03*
Y1580000D03*
Y2220000D03*
Y3150000D03*
Y2860000D03*
Y3790000D03*
Y4430000D03*
Y5070000D03*
G54D27*
X6139000Y5150000D03*
X6901000D03*
G54D18*
X2903720Y1363800D03*
Y1516200D03*
Y2003800D03*
Y1836200D03*
Y1683800D03*
Y2323800D03*
Y2156200D03*
Y2476200D03*
Y3573800D03*
Y3726200D03*
Y3893800D03*
Y4213800D03*
Y4046200D03*
Y4366200D03*
Y4533800D03*
Y4686200D03*
X3590000Y1073800D03*
Y1226200D03*
Y3283800D03*
Y3436200D03*
X4210000Y3036200D03*
Y2883800D03*
X4070000Y3036200D03*
Y2883800D03*
X4210000Y5246200D03*
Y5093800D03*
X4070000Y5246200D03*
Y5093800D03*
X4303800Y2020000D03*
X4456200D03*
X4430000Y2743800D03*
Y2896200D03*
X4303800Y4230000D03*
X4456200D03*
X4430000Y4933800D03*
Y5086200D03*
X5220000Y2743800D03*
Y2896200D03*
Y4933800D03*
Y5086200D03*
X9770000Y4983800D03*
Y5136200D03*
G54D19*
X3460000Y1235000D03*
Y1145000D03*
X3350000Y2625000D03*
Y2715000D03*
X3510000Y2625000D03*
Y2715000D03*
X3460000Y3445000D03*
Y3355000D03*
X3350000Y4835000D03*
Y4925000D03*
X3510000Y4835000D03*
Y4925000D03*
X3650000Y2625000D03*
Y2715000D03*
X3770000Y2625000D03*
Y2715000D03*
X3650000Y4835000D03*
Y4925000D03*
X3770000Y4835000D03*
Y4925000D03*
X3940000Y2625000D03*
Y2715000D03*
X4210000D03*
Y2625000D03*
X4070000Y2715000D03*
Y2625000D03*
Y4925000D03*
Y4835000D03*
X3940000D03*
Y4925000D03*
X4210000D03*
Y4835000D03*
X4570000Y2735000D03*
Y2825000D03*
Y2935000D03*
Y3025000D03*
Y4915000D03*
Y5005000D03*
Y5115000D03*
Y5205000D03*
X9630000Y5015000D03*
Y5105000D03*
G54D28*
X7960000Y4110000D03*
Y4490000D03*
X8250000Y4160000D03*
Y4440000D03*
G54D29*
X8600000Y4310000D03*
X9200000D03*
M02*
