G04 ================== begin FILE IDENTIFICATION RECORD ==================*
G04 Layout Name:  TMC2160A_V10_220915.brd*
G04 Film Name:    SolderMask_Bottom*
G04 File Format:  Gerber RS274X*
G04 File Origin:  Cadence Allegro 17.2-S079*
G04 Origin Date:  Thu Sep 15 16:55:05 2022*
G04 *
G04 Layer:  PIN/SOLDERMASK_BOTTOM*
G04 Layer:  PACKAGE GEOMETRY/SOLDERMASK_BOTTOM*
G04 Layer:  BOARD GEOMETRY/SOLDERMASK_BOTTOM*
G04 *
G04 Offset:    (0.0000 0.0000)*
G04 Mirror:    No*
G04 Mode:      Positive*
G04 Rotation:  0*
G04 FullContactRelief:  No*
G04 UndefLineWidth:     0.1524*
G04 ================== end FILE IDENTIFICATION RECORD ====================*
%FSLAX55Y55*MOMM*%
%IR0*IPPOS*OFA0.00000B0.00000*MIA0B0*SFA1.00000B1.00000*%
%ADD18O,4.15X2.15*%
%ADD17O,2.15X4.15*%
%ADD16C,2.3*%
%ADD11C,1.4*%
%ADD10C,7.*%
%ADD12C,1.7*%
%ADD14C,1.8*%
%ADD13R,1.7X1.7*%
%ADD15R,1.9X1.9*%
G75*
%LPD*%
G75*
G36*
G01X3540000Y2280000D02*
Y1560000D01*
X3980000D01*
Y2280000D01*
X3540000D01*
G37*
G36*
G01Y4490000D02*
Y3770000D01*
X3980000D01*
Y4490000D01*
X3540000D01*
G37*
G54D10*
X360000Y360000D03*
Y5740000D03*
X9640000Y360000D03*
Y5740000D03*
G54D11*
X860000Y830000D03*
Y5240000D03*
X1160000Y830000D03*
Y5240000D03*
G54D12*
X760000Y1545000D03*
Y1795000D03*
Y2045000D03*
Y3755000D03*
Y4005000D03*
Y4255000D03*
G54D13*
Y2295000D03*
Y4505000D03*
G54D14*
X1574000Y373000D03*
Y627000D03*
Y5473000D03*
Y5727000D03*
X1828000Y373000D03*
Y627000D03*
Y5473000D03*
Y5727000D03*
X2082000Y373000D03*
X2336000D03*
X2082000Y627000D03*
X2336000D03*
X2082000Y5473000D03*
X2336000D03*
X2082000Y5727000D03*
X2336000D03*
X2590000Y373000D03*
Y627000D03*
Y5473000D03*
Y5727000D03*
X2844000Y373000D03*
X3098000D03*
X2844000Y627000D03*
X3098000D03*
X2844000Y5473000D03*
X3098000D03*
X2844000Y5727000D03*
X3098000D03*
X3352000Y373000D03*
Y627000D03*
Y5473000D03*
Y5727000D03*
X3606000Y373000D03*
X3860000D03*
X3606000Y627000D03*
X3860000D03*
X3606000Y5473000D03*
X3860000D03*
X3606000Y5727000D03*
X3860000D03*
X4114000Y373000D03*
Y627000D03*
Y5473000D03*
Y5727000D03*
X4368000Y373000D03*
X4622000D03*
X4368000Y627000D03*
X4622000D03*
X4368000Y5473000D03*
X4622000D03*
X4368000Y5727000D03*
X4622000D03*
X4876000Y373000D03*
Y627000D03*
Y5473000D03*
Y5727000D03*
X5130000Y373000D03*
Y5473000D03*
G54D15*
Y627000D03*
Y5727000D03*
G54D16*
X6139000Y5150000D03*
X6901000D03*
G54D17*
X8600000Y4310000D03*
X9200000D03*
G54D18*
X8880000Y4790000D03*
M02*
