M48
METRIC,TZ
T01C.3048
T02C.4572
T03C.8
T04C.9
T05C1.1
T06C1.5
T07C3.3
;LEADER: 12 
;HEADER: 
;CODE  : ASCII 
;FILE  : TMC2160A_V10_220915-1-2.drl for board G:/github/MotorDriver/HARDWARE/TMC2160A_V10_220915/PCB/#Taaaazu13120.tmp ... layers TOP and BOTTOM
;T01 Holesize 1. = 0.304800 Tolerance = +0.000000/-0.000000 PLATED MM Quantity = 269
;T02 Holesize 2. = 0.457200 Tolerance = +0.000000/-0.000000 PLATED MM Quantity = 12
;T03 Holesize 3. = 0.800000 Tolerance = +0.000000/-0.000000 PLATED MM Quantity = 4
;T04 Holesize 4. = 0.900000 Tolerance = +0.000000/-0.000000 PLATED MM Quantity = 8
;T05 Holesize 5. = 1.100000 Tolerance = +0.000000/-0.000000 PLATED MM Quantity = 60
;T06 Holesize 6. = 1.500000 Tolerance = +0.000000/-0.000000 PLATED MM Quantity = 2
;T07 Holesize 7. = 3.300000 Tolerance = +0.000000/-0.000000 PLATED MM Quantity = 4
%
G90
T01
X168510Y959980
X168510Y1359980
X568510Y1359980
X168510Y1759980
X568510Y1759980
X168510Y2159980
X568510Y2159980
X168510Y2559980
X568510Y2559980
X168510Y2959980
X568510Y2959980
X168510Y3359980
X568510Y3359980
X168510Y3759980
X568510Y3759980
X168510Y4159980
X568510Y4159980
X168510Y4559980
X568510Y4559980
X168510Y4959980
X568510Y4959980
X968510Y5959980
X1380000Y5630000
X1200000Y5480000
X1100000Y5480000
X1200000Y5380000
X1100000Y5380000
X968510Y5359980
X968510Y4959980
X968510Y3359980
X968510Y2959980
X920000Y960000
X1200000Y690000
X1100000Y690000
X1200000Y590000
X1100000Y590000
X920000Y560000
X1380000Y330000
X920000Y160000
X2280000Y800000
X1690000Y830000
X1770000Y830000
X1950000Y840000
X1690000Y900000
X1770000Y900000
X1690000Y970000
X1770000Y970000
X1690000Y1360000
X1770000Y1360000
X1950000Y1380000
X1690000Y1430000
X1770000Y1430000
X1690000Y1500000
X1770000Y1500000
X1690000Y1900000
X1770000Y1900000
X1690000Y1970000
X1770000Y1970000
X1690000Y2040000
X1770000Y2040000
X1690000Y2430000
X1770000Y2430000
X1950000Y2460000
X1690000Y2500000
X1770000Y2500000
X1690000Y2570000
X1770000Y2570000
X1690000Y3030000
X1770000Y3030000
X1950000Y3050000
X1690000Y3100000
X1770000Y3100000
X1690000Y3170000
X1770000Y3170000
X1690000Y3570000
X1770000Y3570000
X1950000Y3590000
X1690000Y3640000
X1770000Y3640000
X1690000Y3710000
X1770000Y3710000
X1690000Y4110000
X1770000Y4110000
X1690000Y4180000
X1770000Y4180000
X1690000Y4250000
X1770000Y4250000
X1690000Y4640000
X1770000Y4640000
X1950000Y4670000
X1690000Y4710000
X1770000Y4710000
X1690000Y4780000
X1770000Y4780000
X1890000Y5190000
X1980000Y5190000
X2355000Y5135000
X2355000Y4715000
X2355000Y4605000
X3010000Y4600000
X3010000Y4470000
X3010000Y4380000
X2500000Y4240000
X3010000Y4230000
X2352420Y4182000
X2500000Y4150000
X2500000Y4050000
X2355000Y4050000
X3010000Y4030000
X3010000Y3870000
X3010000Y3790000
X3010000Y3650000
X2355000Y3630000
X2355000Y3520000
X2910000Y3450000
X2908510Y3099980
X2355000Y3090000
X2355000Y2925000
X2910000Y2910000
X2355000Y2505000
X2355000Y2395000
X3010000Y2390000
X3010000Y2260000
X3010000Y2170000
X2500000Y2030000
X3010000Y2020000
X2352420Y1972000
X2500000Y1940000
X2500000Y1840000
X2355000Y1840000
X3010000Y1820000
X3010000Y1660000
X3010000Y1580000
X3010000Y1440000
X2355000Y1420000
X2355000Y1310000
X2900000Y1220000
X2355000Y880000
X2890000Y850000
X3228510Y849980
X3628510Y849980
X3070000Y980000
X3070000Y1100000
X3070000Y1220000
X3460000Y1330000
X3580000Y1330000
X3695000Y2505000
X3070000Y2700000
X3350000Y2810000
X3510000Y2810000
X3650000Y2810000
X3070000Y2820000
X3140000Y2910000
X3308510Y3099980
X3070000Y3190000
X3070000Y3310000
X3110000Y3450000
X3460000Y3540000
X3580000Y3540000
X3695000Y4715000
X3070000Y4910000
X3350000Y5020000
X3510000Y5020000
X3620000Y5020000
X3070000Y5030000
X4210000Y4750000
X4070000Y4750000
X3940000Y4750000
X3840000Y3463660
X4458510Y3449980
X4058510Y3449980
X3840000Y3390000
X3840000Y3310000
X4458510Y3249980
X4058510Y3249980
X3840000Y3186340
X4468510Y3039980
X4210000Y2540000
X4070000Y2540000
X3940000Y2540000
X4570000Y2020000
X3840000Y1253660
X4428510Y1249980
X4028510Y1249980
X3840000Y1180000
X3840000Y1100000
X3840000Y976340
X4428510Y849980
X4028510Y849980
X4828510Y849980
X5228510Y849980
X4870000Y1780000
X4870000Y1900000
X4770000Y2020000
X4830000Y2150000
X4595000Y2475000
X5000000Y2560000
X4668510Y3039980
X4868510Y3039980
X5068510Y3039980
X4900000Y3980000
X4900000Y4100000
X4638510Y4229980
X4838510Y4229980
X4840000Y4360000
X5210000Y4360000
X4605000Y4675000
X5000000Y4760000
X4750000Y4790000
X5960000Y4360000
X5580000Y4220000
X5380000Y4100000
X5380000Y3980000
X5620000Y3970000
X5510000Y3860000
X5450000Y3740000
X5730000Y3620000
X5800000Y3500000
X5870000Y3380000
X5380000Y3260000
X5505420Y3162170
X5505420Y2662170
X5505420Y2162170
X5590000Y2020000
X5450960Y1899040
X5380000Y1780000
X5520000Y1660000
X5660000Y1540000
X5730000Y1420000
X5800000Y1300000
X5870000Y1180000
X5380000Y1060000
X6225420Y672170
X6225420Y1172170
X6225420Y1672170
X6225420Y2172170
X6225420Y2672170
X6225420Y3172170
X6225420Y3672170
X6225420Y4172170
X6225420Y4672170
X7214280Y5574570
X7588420Y4633650
X7088420Y4633650
X7594420Y3351110
X7094420Y3351110
X7082440Y2576280
X7082440Y2076280
X7082440Y1576280
X7082440Y1076280
X7615830Y968400
X7082440Y576280
X7615830Y468400
X8115830Y468400
X8115830Y968400
X8094420Y3351110
X7714280Y5574570
X8214280Y5574570
X8714280Y5574570
X9094420Y3351110
X8594420Y3351110
X9115830Y968400
X8615830Y968400
X9115830Y468400
X8615830Y468400
X9803320Y3423030
X9803320Y3923030
X9803320Y4423030
X9214280Y5574570
T02
X3620000Y1720000
X3820000Y1720000
X3820000Y1920000
X3620000Y1920000
X3620000Y2120000
X3820000Y2120000
X3820000Y3930000
X3620000Y3930000
X3620000Y4130000
X3820000Y4130000
X3820000Y4330000
X3620000Y4330000
T03
X860000Y830000
X1160000Y830000
X1160000Y5240000
X860000Y5240000
T04
X760000Y1545000
X760000Y1795000
X760000Y2045000
X760000Y2295000
X760000Y3755000
X760000Y4005000
X760000Y4255000
X760000Y4505000
T05
X1574000Y373000
X1828000Y373000
X2082000Y373000
X2336000Y373000
X2590000Y373000
X2844000Y373000
X3098000Y373000
X3352000Y373000
X3606000Y373000
X3860000Y373000
X4114000Y373000
X4368000Y373000
X4622000Y373000
X4876000Y373000
X5130000Y373000
X5130000Y627000
X4876000Y627000
X4622000Y627000
X4368000Y627000
X4114000Y627000
X3860000Y627000
X3606000Y627000
X3352000Y627000
X3098000Y627000
X2844000Y627000
X2590000Y627000
X2336000Y627000
X2082000Y627000
X1828000Y627000
X1574000Y627000
X1574000Y5473000
X1828000Y5473000
X2082000Y5473000
X2336000Y5473000
X2590000Y5473000
X2844000Y5473000
X3098000Y5473000
X3352000Y5473000
X3606000Y5473000
X3860000Y5473000
X4114000Y5473000
X4368000Y5473000
X4622000Y5473000
X4876000Y5473000
X5130000Y5473000
X5130000Y5727000
X4876000Y5727000
X4622000Y5727000
X4368000Y5727000
X4114000Y5727000
X3860000Y5727000
X3606000Y5727000
X3352000Y5727000
X3098000Y5727000
X2844000Y5727000
X2590000Y5727000
X2336000Y5727000
X2082000Y5727000
X1828000Y5727000
X1574000Y5727000
T06
X6139000Y5150000
X6901000Y5150000
T07
X360000Y360000
X360000Y5740000
X9640000Y5740000
X9640000Y360000
M30
