G04 ================== begin FILE IDENTIFICATION RECORD ==================*
G04 Layout Name:  TMC2160A_V10_220915.brd*
G04 Film Name:    TOP*
G04 File Format:  Gerber RS274X*
G04 File Origin:  Cadence Allegro 17.2-S079*
G04 Origin Date:  Thu Sep 15 16:55:05 2022*
G04 *
G04 Layer:  VIA CLASS/TOP*
G04 Layer:  PIN/TOP*
G04 Layer:  ETCH/TOP*
G04 *
G04 Offset:    (0.0000 0.0000)*
G04 Mirror:    No*
G04 Mode:      Positive*
G04 Rotation:  0*
G04 FullContactRelief:  No*
G04 UndefLineWidth:     0.1524*
G04 ================== end FILE IDENTIFICATION RECORD ====================*
%FSLAX55Y55*MOMM*%
%IR0*IPPOS*OFA0.00000B0.00000*MIA0B0*SFA1.00000B1.00000*%
%ADD27R,1.1X.6*%
%ADD24R,1.2X.25*%
%ADD22R,.25X1.2*%
%ADD16R,1.5X.6*%
%ADD26C,.75*%
%ADD25C,.762*%
%ADD19R,.8X.8*%
%ADD11C,.6096*%
%ADD32O,4.X2.*%
%ADD31O,2.X4.*%
%ADD21R,1.2X1.*%
%ADD23R,5.X5.*%
%ADD18R,3.2X1.8*%
%ADD30R,1.8X1.6*%
%ADD17R,.5X.6*%
%ADD20R,.6X.5*%
%ADD29C,2.2*%
%ADD12C,1.3*%
%ADD13C,1.6*%
%ADD15C,1.7*%
%ADD14R,1.6X1.6*%
%ADD10C,6.9*%
%ADD28R,1.8X1.8*%
%ADD33C,.2032*%
%ADD34C,.254*%
%ADD35C,.508*%
%ADD36C,2.*%
%ADD37C,2.54*%
G75*
%LPD*%
G75*
G36*
G01X360000Y6070000D02*
X1170310D01*
G02X1184680Y6035310I4J-20320D01*
G01X1049880Y5900500D01*
G03X1004260Y5790380I110117J-110128D01*
G01Y5240000D01*
G03X1160000Y5084260I155740J0D01*
G03X1315740Y5238780I0J155745D01*
G01X1315810Y5248860D01*
X3260530D01*
X3278860Y5230530D01*
Y5047420D01*
X3278260Y5045750D01*
G03X3273780Y5020000I71741J-25746D01*
G03X3278260Y4994250I76221J-4D01*
G01X3278860Y4992580D01*
Y4970100D01*
X3278020Y4968170D01*
G03X3274260Y4950000I41982J-18162D01*
G01Y4900000D01*
G03X3278860Y4880000I45742J-8D01*
G03X3274260Y4860000I41142J-19992D01*
G01Y4810000D01*
G03X3291560Y4774180I45733J0D01*
G01Y4760000D01*
G03X3291570Y4758810I58441J-104D01*
G01Y4748440D01*
X2983690D01*
G03X2943720Y4771940I-39970J-22242D01*
G01X2863720D01*
G03X2858420Y4771630I16J-45739D01*
G02X2835740Y4791810I-2360J20183D01*
G01Y4815430D01*
G02X2860350Y4835290I20320J-2D01*
G03X2870000Y4834260I9652J44710D01*
G01X3010000D01*
G03X3035510Y4842030I6J45742D01*
G03X3070000Y4833780I34490J67970D01*
G03X3146220Y4910000I0J76220D01*
G03X3124830Y4962940I-76208J0D01*
G02Y4977060I7311J7060D01*
G03X3146220Y5030000I-54818J52940D01*
G03X3070000Y5106220I-76220J0D01*
G03X3035510Y5097970I0J-76220D01*
G03X3010000Y5105740I-25504J-37972D01*
G01X2960000D01*
G03X2914260Y5060000I0J-45740D01*
G01Y5000000D01*
G03X2914380Y4996650I45741J-39D01*
G01X2914410Y4996270D01*
Y4985740D01*
X2870000D01*
G03X2834180Y4968440I0J-45733D01*
G01X2816250D01*
X2788950Y4995740D01*
X2468950D01*
X2428950Y5035740D01*
X2425740D01*
Y5080000D01*
G03X2421870Y5098420I-45741J6D01*
G03X2431220Y5135000I-66881J36580D01*
G03X2355000Y5211220I-76220J0D01*
G03X2278780Y5135790I0J-76224D01*
G01X2278680Y5125740D01*
X2240000D01*
G03X2209770Y5114320I6J-45738D01*
G02X2196140Y5114510I-6710J7629D01*
G03X2165000Y5126740I-31133J-33513D01*
G01X2015000D01*
G03X1983930Y5114570I0J-45746D01*
G01X1976760Y5107930D01*
X1958950Y5125740D01*
X1634560D01*
X1633610Y5125920D01*
G03X1625000Y5126740I-8622J-44919D01*
G01X1475000D01*
G03X1466390Y5125920I12J-45739D01*
G01X1465440Y5125740D01*
X1422550D01*
X1415140Y5124980D01*
G03X1326950Y5083050I14867J-144978D01*
G01X894630Y4650740D01*
X760000D01*
G03X688580Y4632040I0J-145735D01*
G01X686270Y4630740D01*
X680000D01*
G03X634260Y4585000I0J-45740D01*
G01Y4578730D01*
X632960Y4576420D01*
G03Y4433580I127035J-71420D01*
G01X634260Y4431270D01*
Y4425000D01*
G03X653340Y4387840I45726J0D01*
G02X655990Y4357090I-11848J-16510D01*
G03X614260Y4255000I104014J-102090D01*
G03X664060Y4145300I145737J6D01*
G02Y4114700I-13380J-15300D01*
G03X614260Y4005000I95937J-109706D01*
G03X664060Y3895300I145737J6D01*
G02Y3864700I-13380J-15300D01*
G03X614260Y3755000I95937J-109706D01*
G03X760000Y3609260I145740J0D01*
G01X974630D01*
X1316950Y3266950D01*
G03X1414480Y3224360I103062J103045D01*
G02X1424260Y3214210I-378J-10151D01*
G01Y2925740D01*
X1245000D01*
G03X1141950Y2883050I6J-145737D01*
G01X679780Y2420890D01*
X676090Y2420570D01*
G03X634260Y2375000I3907J-45570D01*
G01Y2368730D01*
X632960Y2366420D01*
G03Y2223580I127035J-71420D01*
G01X634260Y2221270D01*
Y2215000D01*
G03X653340Y2177840I45726J0D01*
G02X655990Y2147090I-11848J-16510D01*
G03X614260Y2045000I104014J-102090D01*
G03X664060Y1935300I145737J6D01*
G02Y1904700I-13380J-15300D01*
G03X614260Y1795000I95937J-109706D01*
G03X664060Y1685300I145737J6D01*
G02Y1654700I-13380J-15300D01*
G03X614260Y1545000I95937J-109706D01*
G03X656950Y1441950I145737J6D01*
G01X1041950Y1056950D01*
G03X1145000Y1014260I103056J103047D01*
G01X1424260D01*
Y734260D01*
X1450470D01*
G02X1467080Y702250I-6J-20318D01*
G03X1443260Y627000I106923J-75241D01*
G03X1574000Y496260I130740J0D01*
G03X1683920Y556210I0J130746D01*
G02X1718080I17080J-11003D01*
G03X1757210Y517080I109920J70790D01*
G02Y482920I-11003J-17080D01*
G03X1697260Y373000I70796J-109920D01*
G03X1710800Y315060I130738J0D01*
G02X1692580Y285740I-18218J-9000D01*
G01X1364510D01*
X1315740Y334510D01*
Y830000D01*
G03X1004260I-155740J0D01*
G01Y270000D01*
G03X1049880Y159880I155737J8D01*
G01X1145060Y64690D01*
G02X1130690Y30000I-14366J-14370D01*
G01X360000D01*
G02X30000Y360000I0J330000D01*
G01Y5740000D01*
G02X360000Y6070000I330000J0D01*
G37*
G36*
G01X1470000Y1000000D02*
X1780000D01*
X1810000Y970000D01*
Y810000D01*
X1808440Y808440D01*
X1470000D01*
Y1000000D01*
G37*
G36*
G01Y1260000D02*
X1940000D01*
X1969260Y1230740D01*
Y1191000D01*
G03X1969870Y1183580I45738J25D01*
G01X1970000Y1182760D01*
Y1132240D01*
X1969870Y1131420D01*
G03X1969260Y1124000I45128J-7445D01*
G01Y1064000D01*
G03X1969870Y1056580I45738J25D01*
G01X1970000Y1055760D01*
Y1005240D01*
X1969870Y1004420D01*
G03X1969260Y997000I45128J-7445D01*
G01Y937000D01*
G03X2015000Y891260I45740J0D01*
G01X2170000D01*
Y808440D01*
X1855740D01*
Y988950D01*
X1850000Y994690D01*
Y1020000D01*
X1810000Y1060000D01*
X1470000D01*
Y1260000D01*
G37*
G36*
G01X1780000Y1540000D02*
X1810000Y1510000D01*
Y1350000D01*
X1780000Y1320000D01*
X1470000D01*
Y1540000D01*
X1780000D01*
G37*
G36*
G01Y2080000D02*
X1810000Y2050000D01*
Y1890000D01*
X1780000Y1860000D01*
X1470000D01*
Y2080000D01*
X1780000D01*
G37*
G36*
G01X1470000Y1800000D02*
X1940000D01*
X1969260Y1770740D01*
Y1731000D01*
G03X1969870Y1723580I45738J25D01*
G01X1970000Y1722760D01*
Y1672240D01*
X1969870Y1671420D01*
G03X1969260Y1664000I45128J-7445D01*
G01Y1604000D01*
G03X1969870Y1596580I45738J25D01*
G01X1970000Y1595760D01*
Y1545240D01*
X1969870Y1544420D01*
G03X1969260Y1537000I45128J-7445D01*
G01Y1477000D01*
G03X2015000Y1431260I45740J0D01*
G01X2170000D01*
Y1320000D01*
X1880000D01*
X1855740Y1344260D01*
Y1528950D01*
X1850000Y1534690D01*
Y1560000D01*
X1810000Y1600000D01*
X1470000D01*
Y1800000D01*
G37*
G36*
G01Y2340000D02*
X1940000D01*
X1969260Y2310740D01*
Y2271000D01*
G03X1969870Y2263580I45738J25D01*
G01X1970000Y2262760D01*
Y2212240D01*
X1969870Y2211420D01*
G03X1969260Y2204000I45128J-7445D01*
G01Y2144000D01*
G03X1969870Y2136580I45738J25D01*
G01X1970000Y2135760D01*
Y2085240D01*
X1969870Y2084420D01*
G03X1969260Y2077000I45128J-7445D01*
G01Y2017000D01*
G03X2015000Y1971260I45740J0D01*
G01X2170000D01*
Y1860000D01*
X1880000D01*
X1855740Y1884260D01*
Y2068950D01*
X1850000Y2074690D01*
Y2100000D01*
X1810000Y2140000D01*
X1470000D01*
Y2340000D01*
G37*
G36*
G01X1780000Y2610000D02*
X1810000Y2580000D01*
Y2420000D01*
X1780000Y2390000D01*
X1470000D01*
Y2610000D01*
X1780000D01*
G37*
G36*
G01X1668220Y2870000D02*
X1940000D01*
X1969260Y2840740D01*
Y2811000D01*
G03X1969870Y2803610I45736J55D01*
G01X1970000Y2802790D01*
Y2752210D01*
X1969870Y2751390D01*
G03X1969260Y2744000I45126J-7445D01*
G01Y2684000D01*
G03X1969870Y2676610I45736J55D01*
G01X1970000Y2675790D01*
Y2625210D01*
X1969870Y2624390D01*
G03X1969260Y2617000I45125J-7445D01*
G01Y2557000D01*
G03X1969870Y2549610I45735J55D01*
G01X1970000Y2548790D01*
Y2540000D01*
X1974740Y2535260D01*
X1975410Y2534100D01*
G03X1992100Y2517410I39590J22900D01*
G01X1993260Y2516740D01*
X2000000Y2510000D01*
X2170000D01*
Y2390000D01*
X1880000D01*
X1855740Y2414260D01*
Y2598950D01*
X1850000Y2604690D01*
Y2630000D01*
X1810000Y2670000D01*
X1470000D01*
Y2858860D01*
X1630000D01*
G03X1668220Y2870000I0J71134D01*
G37*
G36*
G01X2215740Y3084060D02*
G02X2237270Y3104340I20319J-3D01*
G03X2240000Y3104260I2704J45661D01*
G01X2258650D01*
G02X2278930Y3085220I1J-20320D01*
G03X2315420Y3024860I76071J4778D01*
G02Y2990140I-10556J-17360D01*
G03X2278780Y2925790I39578J-65141D01*
G01X2278680Y2915740D01*
X2240000D01*
G03X2209770Y2904320I6J-45738D01*
G02X2196140Y2904510I-6710J7629D01*
G03X2165000Y2916740I-31133J-33513D01*
G01X2015000D01*
G03X1983930Y2904570I0J-45746D01*
G01X1976760Y2897930D01*
X1958950Y2915740D01*
X1634560D01*
X1633610Y2915920D01*
G03X1625000Y2916740I-8622J-44919D01*
G01X1610450D01*
X1608800Y2917330D01*
G03X1582080Y2924060I-48797J-137330D01*
G01X1573460Y2925380D01*
Y2944260D01*
X1798950D01*
X1830000Y2975310D01*
X1861050Y2944260D01*
X2215740D01*
Y3084060D01*
G37*
G36*
G01X1470000Y3210000D02*
X1780000D01*
X1810000Y3180000D01*
Y3020000D01*
X1780000Y2990000D01*
X1668220D01*
G03X1630000Y3001140I-38220J-59994D01*
G01X1470000D01*
Y3210000D01*
G37*
G36*
G01Y3470000D02*
X1940000D01*
X1969260Y3440740D01*
Y3401000D01*
G03X1969870Y3393580I45738J25D01*
G01X1970000Y3392760D01*
Y3342240D01*
X1969870Y3341420D01*
G03X1969260Y3334000I45128J-7445D01*
G01Y3274000D01*
G03X1969870Y3266580I45738J25D01*
G01X1970000Y3265760D01*
Y3215240D01*
X1969870Y3214420D01*
G03X1969260Y3207000I45128J-7445D01*
G01Y3147000D01*
G03X2015000Y3101260I45740J0D01*
G01X2170000D01*
Y2990000D01*
X1880000D01*
X1855740Y3014260D01*
Y3198950D01*
X1850000Y3204690D01*
Y3230000D01*
X1810000Y3270000D01*
X1470000D01*
Y3470000D01*
G37*
G36*
G01Y3750000D02*
X1780000D01*
X1810000Y3720000D01*
Y3560000D01*
X1780000Y3530000D01*
X1470000D01*
Y3750000D01*
G37*
G36*
G01Y4010000D02*
X1940000D01*
X1969260Y3980740D01*
Y3941000D01*
G03X1969870Y3933580I45738J25D01*
G01X1970000Y3932760D01*
Y3882240D01*
X1969870Y3881420D01*
G03X1969260Y3874000I45128J-7445D01*
G01Y3814000D01*
G03X1969870Y3806580I45738J25D01*
G01X1970000Y3805760D01*
Y3755240D01*
X1969870Y3754420D01*
G03X1969260Y3747000I45128J-7445D01*
G01Y3687000D01*
G03X2015000Y3641260I45740J0D01*
G01X2170000D01*
Y3530000D01*
X1880000D01*
X1855740Y3554260D01*
Y3738950D01*
X1850000Y3744690D01*
Y3770000D01*
X1810000Y3810000D01*
X1470000D01*
Y4010000D01*
G37*
G36*
G01Y4290000D02*
X1780000D01*
X1810000Y4260000D01*
Y4100000D01*
X1780000Y4070000D01*
X1470000D01*
Y4290000D01*
G37*
G36*
G01X1476110Y4820000D02*
X1780000D01*
X1810000Y4790000D01*
Y4630000D01*
X1780000Y4600000D01*
X1470000D01*
Y4813890D01*
X1476110Y4820000D01*
G37*
G36*
G01X1470000Y4550000D02*
X1940000D01*
X1969260Y4520740D01*
Y4481000D01*
G03X1969870Y4473580I45738J25D01*
G01X1970000Y4472760D01*
Y4422240D01*
X1969870Y4421420D01*
G03X1969260Y4414000I45128J-7445D01*
G01Y4354000D01*
G03X1969870Y4346580I45738J25D01*
G01X1970000Y4345760D01*
Y4295240D01*
X1969870Y4294420D01*
G03X1969260Y4287000I45128J-7445D01*
G01Y4227000D01*
G03X2015000Y4181260I45740J0D01*
G01X2170000D01*
Y4070000D01*
X1880000D01*
X1855740Y4094260D01*
Y4278950D01*
X1850000Y4284690D01*
Y4310000D01*
X1810000Y4350000D01*
X1470000D01*
Y4550000D01*
G37*
G36*
G01Y5080000D02*
X1940000D01*
X1969260Y5050740D01*
Y5021000D01*
G03X1969870Y5013580I45738J25D01*
G01X1970000Y5012760D01*
Y4962240D01*
X1969870Y4961420D01*
G03X1969260Y4954000I45128J-7445D01*
G01Y4894000D01*
G03X1969870Y4886580I45738J25D01*
G01X1970000Y4885760D01*
Y4835240D01*
X1969870Y4834420D01*
G03X1969260Y4827000I45128J-7445D01*
G01Y4767000D01*
G03X1969870Y4759580I45738J25D01*
G01X1970000Y4758760D01*
Y4750000D01*
X1974730Y4745270D01*
X1975400Y4744120D01*
G03X1992120Y4727400I39600J22880D01*
G01X1993270Y4726730D01*
X2000000Y4720000D01*
X2170000D01*
Y4600000D01*
X1880000D01*
X1855740Y4624260D01*
Y4808950D01*
X1850000Y4814690D01*
Y4840000D01*
X1810000Y4880000D01*
X1470000D01*
Y5080000D01*
G37*
G36*
G01X1404130Y5814260D02*
X1438580D01*
G02X1456800Y5784940I2J-20320D01*
G03X1443260Y5727000I117198J-57940D01*
G03X1574000Y5596260I130740J0D01*
G03X1683920Y5656210I0J130746D01*
G02X1718080I17080J-11003D01*
G03X1757210Y5617080I109920J70790D01*
G02Y5582920I-11003J-17080D01*
G03X1697260Y5473000I70796J-109920D01*
G03X1708600Y5419740I130742J0D01*
G02X1690040Y5391140I-18556J-8280D01*
G01X1315740D01*
Y5725870D01*
X1404130Y5814260D01*
G37*
G36*
G01X5265740D02*
X6295490D01*
X6424260Y5685490D01*
Y4360000D01*
G03X6469880Y4249880I155737J8D01*
G01X6609750Y4110000D01*
X6469880Y3970120D01*
G03X6424260Y3860000I110117J-110128D01*
G01Y424510D01*
X6285490Y285740D01*
X5265420D01*
G02X5247200Y315060I-2J20320D01*
G03X5260740Y373000I-117198J57940D01*
G03X5226730Y460960I-130750J0D01*
G02X5235070Y493810I15034J13667D01*
G03X5265740Y537000I-15075J43190D01*
G01Y717000D01*
G03X5220000Y762740I-45740J0D01*
G01X5040000D01*
G03X4996810Y732070I0J-45745D01*
G02X4963960Y723730I-19183J6694D01*
G03X4876000Y757740I-87960J-96740D01*
G03X4766080Y697790I0J-130746D01*
G02X4731920I-17080J11003D01*
G03X4512080I-109920J-70796D01*
G02X4477920I-17080J11003D01*
G03X4258080I-109920J-70796D01*
G02X4223920I-17080J11003D01*
G03X4004080I-109920J-70796D01*
G02X3969920I-17080J11003D01*
G03X3750080I-109920J-70796D01*
G02X3715920I-17080J11003D01*
G03X3496080I-109920J-70796D01*
G02X3461920I-17080J11003D01*
G03X3242080I-109920J-70796D01*
G02X3207920I-17080J11003D01*
G03X2988080I-109920J-70796D01*
G02X2953920I-17080J11003D01*
G03X2734080I-109920J-70796D01*
G02X2699920I-17080J11003D01*
G03X2480080I-109920J-70796D01*
G02X2445920I-17080J11003D01*
G03X2226080I-109920J-70796D01*
G02X2191920I-17080J11003D01*
G03X2188920Y702250I-109961J-70726D01*
G02X2205530Y734260I16616J11692D01*
G01X2215740D01*
Y874060D01*
G02X2237270Y894340I20319J-3D01*
G03X2240000Y894260I2704J45661D01*
G01X2258650D01*
G02X2278930Y875220I1J-20320D01*
G03X2355000Y803780I76070J4780D01*
G03X2431220Y880000I0J76220D01*
G03X2420570Y918870I-76223J10D01*
G03X2425740Y940000I-40571J21124D01*
G01Y984260D01*
X2438950D01*
X2478950Y1024260D01*
X2788950D01*
X2806250Y1041560D01*
X2834180D01*
G03X2870000Y1024260I35820J28433D01*
G01X2914410D01*
Y1013730D01*
X2914380Y1013350D01*
G03X2914260Y1010000I45621J-3311D01*
G01Y950000D01*
G03X2960000Y904260I45740J0D01*
G01X3010000D01*
G03X3035510Y912030I6J45742D01*
G03X3070000Y903780I34490J67970D01*
G03X3146220Y980000I0J76220D01*
G03X3124830Y1032940I-76208J0D01*
G02Y1047060I7311J7060D01*
G03X3146220Y1100000I-54818J52940D01*
G03X3070000Y1176220I-76220J0D01*
G03X3035510Y1167970I0J-76220D01*
G03X3010000Y1175740I-25504J-37972D01*
G01X2870000D01*
G03X2853420Y1172630I0J-45751D01*
G02X2825740Y1191570I-7361J18939D01*
G01Y1260140D01*
G02X2851490Y1279720I20318J2D01*
G03X2863720Y1278060I12211J44083D01*
G01X2943720D01*
G03X2983690Y1301560I0J45742D01*
G01X3186930D01*
G02X3206330Y1275200I-2J-20320D01*
G03X3204260Y1261600I43669J-13604D01*
G01Y1161600D01*
G03X3250000Y1115860I45740J0D01*
G01X3370000D01*
G03X3415350Y1155620I0J45743D01*
G02X3426250Y1164410I10070J-1334D01*
G03X3430000Y1164260I3702J45592D01*
G01X3452450D01*
X3452950Y1164210D01*
G03X3460000Y1163860I7048J70790D01*
G03X3467050Y1164210I2J71140D01*
G01X3467550Y1164260D01*
X3490000D01*
G03X3508050Y1167970I5J45741D01*
G03X3550000Y1140460I41950J18230D01*
G01X3624100D01*
Y1010000D01*
G03X3640470Y970470I55913J0D01*
G01X3674130Y936810D01*
G03X3713660Y920440I39530J39543D01*
G01X3788190D01*
G03X3840000Y900120I51810J55890D01*
G03X3916220Y976340I0J76220D01*
G03X3898540Y1025160I-76223J8D01*
G02Y1051180I15602J13010D01*
G03X3916220Y1100000I-58543J48812D01*
G03X3904880Y1140000I-76217J0D01*
G03X3916220Y1180000I-64877J40000D01*
G03X3906730Y1216830I-76212J0D01*
G03X3916220Y1253660I-66722J36830D01*
G03X3895600Y1305800I-76231J0D01*
G03X3879530Y1339530I-55601J-5797D01*
G01X3850900Y1368150D01*
Y1410000D01*
X4110000D01*
Y1585990D01*
X4118310Y1587520D01*
G03X4123100Y1588670I-8268J44989D01*
G01X4124520Y1589100D01*
X4188250D01*
X4756870Y1020470D01*
G03X4796400Y1004100I39530J39543D01*
G01X5142670D01*
G03X5180370Y984260I37700J25899D01*
G01X5320370D01*
G03X5345720Y991930I0J45727D01*
G03X5380000Y983780I34292J68067D01*
G03X5456220Y1060000I0J76220D01*
G03X5447930Y1094570I-76225J0D01*
G02X5466040Y1124100I18112J9210D01*
G01X5818190D01*
G03X5870000Y1103780I51810J55890D01*
G03X5946220Y1180000I0J76220D01*
G03X5888090Y1254040I-76217J0D01*
G02X5873360Y1279300I4824J19738D01*
G03X5876220Y1300000I-73362J20684D01*
G03X5818090Y1374040I-76217J0D01*
G02X5803360Y1399300I4824J19738D01*
G03X5806220Y1420000I-73362J20684D01*
G03X5748090Y1494040I-76217J0D01*
G02X5733360Y1519300I4824J19738D01*
G03X5736220Y1540000I-73362J20684D01*
G03X5660000Y1616220I-76220J0D01*
G03X5610890Y1598290I0J-76221D01*
G01X5608050Y1595900D01*
X5587470D01*
G02X5579530Y1612400I-2J10160D01*
G03X5596220Y1660000I-59533J47600D01*
G03X5520000Y1736220I-76220J0D01*
G03X5470890Y1718290I0J-76221D01*
G01X5468050Y1715900D01*
X5447470D01*
G02X5439530Y1732400I-2J10160D01*
G03X5456220Y1780000I-59533J47600D01*
G03X5453600Y1799820I-76221J8D01*
G02X5468530Y1824870I19620J5281D01*
G03X5527180Y1899040I-17573J74170D01*
G03X5509810Y1947480I-76228J0D01*
G02X5517650Y1964100I7840J6461D01*
G01X5538050D01*
X5540890Y1961710D01*
G03X5590000Y1943780I49110J58291D01*
G03Y2096220I0J76220D01*
G03X5538190Y2075900I0J-76210D01*
G01X5358070D01*
G03X5320370Y2095740I-37700J-25899D01*
G01X5180370D01*
G03X5142670Y2075900I0J-45739D01*
G01X5063150D01*
X5055900Y2083150D01*
Y2208520D01*
X5064050Y2210160D01*
G03X5092700Y2229100I-9055J44836D01*
G01X5146280D01*
G03X5180000Y2214260I33720J30890D01*
G01X5230000D01*
G03X5275740Y2260000I0J45740D01*
G01Y2320000D01*
G03X5275620Y2323350I-45741J39D01*
G01X5275590Y2323730D01*
Y2334260D01*
X5320000D01*
G03X5365740Y2380000I0J45740D01*
G01Y2440000D01*
G03X5350900Y2473720I-45730J0D01*
G01Y2615000D01*
G03X5334530Y2654530I-55913J0D01*
G01X5302690Y2686360D01*
X5304200Y2692020D01*
G03X5305680Y2701380I-44198J11786D01*
G01X5305880Y2705270D01*
X5370300Y2769700D01*
G03X5391140Y2820000I-50297J50306D01*
G01Y3090000D01*
G03X5370300Y3140300I-71137J-6D01*
G01X5330610Y3179990D01*
X5338970Y3188340D01*
X5340440Y3189080D01*
G03X5345510Y3192030I-20422J40930D01*
G03X5380000Y3183780I34490J67970D01*
G03X5456220Y3260000I0J76220D01*
G03X5447930Y3294570I-76225J0D01*
G02X5466040Y3324100I18112J9210D01*
G01X5818190D01*
G03X5870000Y3303780I51810J55890D01*
G03X5946220Y3380000I0J76220D01*
G03X5888090Y3454040I-76217J0D01*
G02X5873360Y3479300I4824J19738D01*
G03X5876220Y3500000I-73362J20684D01*
G03X5818090Y3574040I-76217J0D01*
G02X5803360Y3599300I4824J19738D01*
G03X5806220Y3620000I-73362J20684D01*
G03X5730000Y3696220I-76220J0D01*
G03X5678190Y3675900I0J-76210D01*
G01X5536040D01*
G02X5517930Y3705430I2J20320D01*
G03X5526220Y3740000I-67935J34570D01*
G03X5522710Y3762860I-76219J-4D01*
G02X5535340Y3788120I19386J6094D01*
G03X5586220Y3860000I-25334J71880D01*
G03X5510000Y3936220I-76220J0D01*
G03X5460890Y3918290I0J-76221D01*
G01X5458050Y3915900D01*
X5437310D01*
Y3929620D01*
X5439530Y3932400D01*
G03X5456220Y3980000I-59533J47600D01*
G03X5434830Y4032940I-76208J0D01*
G02Y4047060I7311J7060D01*
G03X5456220Y4100000I-54818J52940D01*
G03X5447930Y4134570I-76225J0D01*
G02X5466040Y4164100I18112J9210D01*
G01X5528190D01*
G03X5580000Y4143780I51810J55890D01*
G03X5656220Y4220000I0J76220D01*
G03X5645880Y4258320I-76217J-11D01*
G02X5663450Y4288860I17566J10218D01*
G01X5932580D01*
X5934250Y4288260D01*
G03X5960000Y4283780I25746J71741D01*
G03Y4436220I0J76220D01*
G03X5934250Y4431740I-4J-76221D01*
G01X5932580Y4431140D01*
X5295510D01*
G02X5275360Y4454090I-3J20319D01*
G03X5275740Y4460000I-45362J5884D01*
G01Y4520000D01*
G03X5275620Y4523350I-45741J39D01*
G01X5275590Y4523730D01*
Y4534260D01*
X5320000D01*
G03X5365740Y4580000I0J45740D01*
G01Y4640000D01*
G03X5350900Y4673720I-45730J0D01*
G01Y4805000D01*
G03X5334530Y4844530I-55913J0D01*
G01X5302690Y4876360D01*
X5304200Y4882020D01*
G03X5305740Y4893800I-44201J11769D01*
G01Y4905130D01*
X5370300Y4969700D01*
G03X5391140Y5020000I-50297J50306D01*
G01Y5280000D01*
G03X5370300Y5330300I-71137J-6D01*
G01X5310300Y5390300D01*
G03X5271580Y5410190I-50306J-50298D01*
G02X5255390Y5435990I3301J20051D01*
G03X5260740Y5473000I-125389J37017D01*
G03X5226730Y5560960I-130750J0D01*
G02X5235070Y5593810I15034J13667D01*
G03X5265740Y5637000I-15075J43190D01*
G01Y5814260D01*
G37*
G36*
G01X2414530Y1700000D02*
X2747350D01*
X2761560Y1685790D01*
Y1590000D01*
G03X2780000Y1547390I58450J0D01*
G01Y1080000D01*
X2775740Y1075740D01*
X2460000D01*
G03X2420050Y1052280I0J-45745D01*
G02X2395450Y1043050I-17745J9898D01*
G03X2380000Y1045740I-15454J-43049D01*
G01X2240000D01*
G03X2205470Y1030000I0J-45746D01*
G01X2010000D01*
Y1145260D01*
X2165000D01*
G03X2195230Y1156680I-6J45738D01*
G02X2208860Y1156490I6710J-7629D01*
G03X2240000Y1144260I31133J33513D01*
G01X2380000D01*
G03X2411820Y1157140I0J45746D01*
G01X2414770Y1160000D01*
X2420000D01*
X2440000Y1180000D01*
Y1550000D01*
X2420000Y1570000D01*
X2414770D01*
X2411820Y1572860D01*
G03X2380000Y1585740I-31820J-32866D01*
G01X2240000D01*
G03X2208180Y1572860I0J-45746D01*
G01X2205230Y1570000D01*
X2196880D01*
X2194070Y1572320D01*
G03X2165000Y1582740I-29064J-35322D01*
G01X2015740D01*
Y1700000D01*
X2205470D01*
G03X2240000Y1684260I34530J30006D01*
G01X2380000D01*
G03X2414530Y1700000I0J45746D01*
G37*
G36*
G01X2020000Y2780000D02*
X2205470D01*
G03X2240000Y2764260I34530J30006D01*
G01X2380000D01*
G03X2392640Y2766040I4J45741D01*
G02X2417250Y2753740I5619J-19528D01*
G03X2460000Y2724260I42750J16257D01*
G01X2790000D01*
Y2302650D01*
X2778680Y2291320D01*
G03X2761560Y2250000I41318J-41326D01*
G01Y2144210D01*
X2727350Y2110000D01*
X2414530D01*
G03X2380000Y2125740I-34530J-30006D01*
G01X2240000D01*
G03X2205470Y2110000I0J-45746D01*
G01X2020000D01*
Y2225260D01*
X2165000D01*
G03X2195950Y2237320I0J45744D01*
G01X2198860Y2240000D01*
X2210310D01*
X2212990Y2238040D01*
G03X2240000Y2229210I27014J36909D01*
G01X2380000D01*
G03X2409510Y2240000I0J45749D01*
G01X2430000D01*
X2450000Y2260000D01*
Y2630000D01*
X2430000Y2650000D01*
X2414530D01*
G03X2380000Y2665740I-34530J-30006D01*
G01X2240000D01*
G03X2208180Y2652860I0J-45746D01*
G01X2205230Y2650000D01*
X2196880D01*
X2194070Y2652320D01*
G03X2165000Y2662740I-29064J-35322D01*
G01X2020000D01*
Y2780000D01*
G37*
G36*
G01X2414530Y3910000D02*
X2747350D01*
X2761560Y3895790D01*
Y3800000D01*
G03X2780000Y3757390I58450J0D01*
G01Y3290000D01*
X2775740Y3285740D01*
X2460000D01*
G03X2420050Y3262280I0J-45745D01*
G02X2395450Y3253050I-17745J9898D01*
G03X2380000Y3255740I-15454J-43049D01*
G01X2240000D01*
G03X2205470Y3240000I0J-45746D01*
G01X2010000D01*
Y3355260D01*
X2165000D01*
G03X2195230Y3366680I-6J45738D01*
G02X2208860Y3366490I6710J-7629D01*
G03X2240000Y3354260I31133J33513D01*
G01X2380000D01*
G03X2411820Y3367140I0J45746D01*
G01X2414770Y3370000D01*
X2420000D01*
X2440000Y3390000D01*
Y3760000D01*
X2420000Y3780000D01*
X2414770D01*
X2411820Y3782860D01*
G03X2380000Y3795740I-31820J-32866D01*
G01X2240000D01*
G03X2208180Y3782860I0J-45746D01*
G01X2205230Y3780000D01*
X2196880D01*
X2194070Y3782320D01*
G03X2165000Y3792740I-29064J-35322D01*
G01X2015740D01*
Y3910000D01*
X2205470D01*
G03X2240000Y3894260I34530J30006D01*
G01X2380000D01*
G03X2414530Y3910000I0J45746D01*
G37*
G36*
G01X2020000Y4990000D02*
X2205470D01*
G03X2240000Y4974260I34530J30006D01*
G01X2380000D01*
G03X2392640Y4976040I4J45741D01*
G02X2417250Y4963740I5619J-19528D01*
G03X2460000Y4934260I42750J16257D01*
G01X2790000D01*
Y4512650D01*
X2778680Y4501320D01*
G03X2761560Y4460000I41318J-41326D01*
G01Y4354210D01*
X2727350Y4320000D01*
X2414530D01*
G03X2380000Y4335740I-34530J-30006D01*
G01X2240000D01*
G03X2205470Y4320000I0J-45746D01*
G01X2020000D01*
Y4435260D01*
X2165000D01*
G03X2195950Y4447320I0J45744D01*
G01X2198860Y4450000D01*
X2210310D01*
X2212990Y4448040D01*
G03X2240000Y4439210I27014J36909D01*
G01X2380000D01*
G03X2409510Y4450000I0J45749D01*
G01X2430000D01*
X2450000Y4470000D01*
Y4840000D01*
X2430000Y4860000D01*
X2414530D01*
G03X2380000Y4875740I-34530J-30006D01*
G01X2240000D01*
G03X2208180Y4862860I0J-45746D01*
G01X2205230Y4860000D01*
X2196880D01*
X2194070Y4862320D01*
G03X2165000Y4872740I-29064J-35322D01*
G01X2020000D01*
Y4990000D01*
G37*
G36*
G01X2983690Y3511560D02*
X3186930D01*
G02X3206330Y3485200I-2J-20320D01*
G03X3204260Y3471600I43669J-13604D01*
G01Y3371600D01*
G03X3250000Y3325860I45740J0D01*
G01X3370000D01*
G03X3415350Y3365620I0J45743D01*
G02X3426250Y3374410I10070J-1334D01*
G03X3430000Y3374260I3702J45592D01*
G01X3452450D01*
X3452950Y3374210D01*
G03X3460000Y3373860I7048J70790D01*
G03X3467050Y3374210I2J71140D01*
G01X3467550Y3374260D01*
X3490000D01*
G03X3508050Y3377970I5J45741D01*
G03X3550000Y3350460I41950J18230D01*
G01X3624100D01*
Y3220000D01*
G03X3640470Y3180470I55913J0D01*
G01X3653520Y3167430D01*
G02X3639150Y3132740I-14369J-14369D01*
G01X3561600D01*
G03X3511300Y3111900I6J-71137D01*
G01X3459700Y3060300D01*
G03X3438860Y3010000I50297J-50306D01*
G01Y2877990D01*
G02X3404110Y2863680I-20320J-4D01*
G03X3350000Y2886220I-54110J-53679D01*
G03X3273780Y2810000I0J-76220D01*
G03X3278260Y2784250I76221J-4D01*
G01X3278860Y2782580D01*
Y2760100D01*
X3278020Y2758170D01*
G03X3274260Y2740000I41982J-18162D01*
G01Y2690000D01*
G03X3278860Y2670000I45742J-8D01*
G03X3274260Y2650000I41142J-19992D01*
G01Y2600000D01*
G03X3291560Y2564180I45733J0D01*
G01Y2550000D01*
G03X3291570Y2548810I58441J-104D01*
G01Y2538440D01*
X2983690D01*
G03X2943720Y2561940I-39970J-22242D01*
G01X2863720D01*
G03X2858420Y2561630I16J-45739D01*
G02X2835740Y2581810I-2360J20183D01*
G01Y2605430D01*
G02X2860350Y2625290I20320J-2D01*
G03X2870000Y2624260I9652J44710D01*
G01X3010000D01*
G03X3035510Y2632030I6J45742D01*
G03X3070000Y2623780I34490J67970D01*
G03X3146220Y2700000I0J76220D01*
G03X3124830Y2752940I-76208J0D01*
G02Y2767060I7311J7060D01*
G03X3146220Y2820000I-54818J52940D01*
G03X3070000Y2896220I-76220J0D01*
G03X3035510Y2887970I0J-76220D01*
G03X3010000Y2895740I-25504J-37972D01*
G01X2960000D01*
G03X2914260Y2850000I0J-45740D01*
G01Y2790000D01*
G03X2914380Y2786650I45741J-39D01*
G01X2914410Y2786270D01*
Y2775740D01*
X2870000D01*
G03X2834180Y2758440I0J-45733D01*
G01X2816250D01*
X2788950Y2785740D01*
X2468950D01*
X2428950Y2825740D01*
X2425740D01*
Y2870000D01*
G03X2421870Y2888420I-45741J6D01*
G03X2431220Y2925000I-66881J36580D01*
G03X2394580Y2990140I-76224J0D01*
G02Y3024860I10556J17360D01*
G03X2431220Y3090000I-39584J65140D01*
G03X2420570Y3128870I-76223J10D01*
G03X2425740Y3150000I-40571J21124D01*
G01Y3194260D01*
X2438950D01*
X2478950Y3234260D01*
X2788950D01*
X2806250Y3251560D01*
X2834180D01*
G03X2870000Y3234260I35820J28433D01*
G01X2914410D01*
Y3223730D01*
X2914380Y3223350D01*
G03X2914260Y3220000I45621J-3311D01*
G01Y3160000D01*
G03X2960000Y3114260I45740J0D01*
G01X3010000D01*
G03X3035510Y3122030I6J45742D01*
G03X3070000Y3113780I34490J67970D01*
G03X3146220Y3190000I0J76220D01*
G03X3124830Y3242940I-76208J0D01*
G02Y3257060I7311J7060D01*
G03X3146220Y3310000I-54818J52940D01*
G03X3070000Y3386220I-76220J0D01*
G03X3035510Y3377970I0J-76220D01*
G03X3010000Y3385740I-25504J-37972D01*
G01X2870000D01*
G03X2853420Y3382630I0J-45751D01*
G02X2825740Y3401570I-7361J18939D01*
G01Y3470140D01*
G02X2851490Y3489720I20318J2D01*
G03X2863720Y3488060I12211J44083D01*
G01X2943720D01*
G03X2983690Y3511560I0J45742D01*
G37*
G36*
G01X3591070Y2990460D02*
X3749080D01*
X3752100Y2985990D01*
G03X3761440Y2975870I37900J25609D01*
G02Y2944130I-12687J-15870D01*
G03X3744260Y2908400I28565J-35730D01*
G01Y2808400D01*
G03X3772570Y2766110I45742J0D01*
G01X3778860Y2763520D01*
Y2706290D01*
G02X3768860Y2696130I-10160J-1D01*
G03X3762950Y2695790I1127J-71131D01*
G01X3762450Y2695740D01*
X3740000D01*
G03X3736650Y2695620I-39J-45741D01*
G02X3725740Y2705750I-751J10131D01*
G01Y2740000D01*
G03X3680000Y2785740I-45740J0D01*
G01X3620000D01*
G03X3610580Y2784760I-2J-45740D01*
G02X3586100Y2805770I-4191J19883D01*
G03X3586220Y2810000I-76099J4276D01*
G03X3581740Y2835750I-76221J4D01*
G01X3581140Y2837420D01*
Y2980530D01*
X3591070Y2990460D01*
G37*
G36*
G01X4124520Y3799100D02*
X4178250D01*
X4731520Y3245830D01*
G02X4717150Y3211140I-14369J-14369D01*
G01X3930000D01*
G03X3912770Y3209020I8J-71139D01*
G03X3898540Y3235160I-72773J-22672D01*
G02Y3261180I15602J13010D01*
G03X3916220Y3310000I-58543J48812D01*
G03X3904880Y3350000I-76217J0D01*
G03X3916220Y3390000I-64877J40000D01*
G03X3906730Y3426830I-76212J0D01*
G03X3916220Y3463660I-66722J36830D01*
G03X3895600Y3515800I-76231J0D01*
G03X3879530Y3549530I-55601J-5797D01*
G01X3850900Y3578150D01*
Y3620000D01*
X4110000D01*
Y3795990D01*
X4118310Y3797520D01*
G03X4123100Y3798670I-8268J44989D01*
G01X4124520Y3799100D01*
G37*
G36*
G01X3590270Y5200460D02*
X3749080D01*
X3752100Y5195990D01*
G03X3761440Y5185870I37900J25609D01*
G02Y5154130I-12687J-15870D01*
G03X3744260Y5118400I28565J-35730D01*
G01Y5018400D01*
G03X3772570Y4976110I45742J0D01*
G01X3778860Y4973520D01*
Y4916290D01*
G02X3768860Y4906130I-10160J-1D01*
G03X3762950Y4905790I1127J-71131D01*
G01X3762450Y4905740D01*
X3740000D01*
G03X3736650Y4905620I-39J-45741D01*
G02X3725740Y4915750I-751J10131D01*
G01Y4950000D01*
G03X3680000Y4995740I-45740J0D01*
G01X3620000D01*
G03X3610580Y4994760I-2J-45740D01*
G02X3586100Y5015770I-4191J19883D01*
G03X3586220Y5020000I-76099J4276D01*
G03X3581740Y5045750I-76221J4D01*
G01X3581140Y5047420D01*
Y5191330D01*
X3590270Y5200460D01*
G37*
G36*
G01X4879530Y2310470D02*
G03X4881550Y2312600I-39538J39519D01*
G01X4899260Y2305810D01*
Y2255000D01*
G03X4935950Y2210160I45745J0D01*
G01X4944100Y2208520D01*
Y2060000D01*
G03X4960470Y2020470I55913J0D01*
G01X4987860Y1993080D01*
G02X4980680Y1975740I-7185J-7181D01*
G01X4960000D01*
G03X4927930Y1962610I0J-45730D01*
G02X4914830Y1961640I-7123J7247D01*
G03X4870000Y1976220I-44830J-61631D01*
G03X4793780Y1900000I0J-76220D01*
G03X4815170Y1847060I76208J0D01*
G02Y1832940I-7311J-7060D01*
G03X4793780Y1780000I54818J-52940D01*
G03X4802070Y1745430I76225J0D01*
G02X4783960Y1715900I-18112J-9210D01*
G01X4573150D01*
X4373040Y1916010D01*
G02X4374000Y1945640I14370J14365D01*
G03X4389540Y1980000I-30203J34354D01*
G01Y2005130D01*
X4435300Y2050900D01*
G03X4456140Y2101200I-50283J50300D01*
G01Y2185000D01*
G03X4435300Y2235300I-71123J0D01*
G01X4405290Y2265320D01*
G02X4412480Y2282660I7186J7181D01*
G01X4425130D01*
X4473100Y2234700D01*
G03X4523400Y2213860I50306J50297D01*
G01X4663860D01*
Y2150000D01*
G03X4664210Y2142950I71140J-2D01*
G01X4664260Y2142450D01*
Y2120000D01*
G03X4710000Y2074260I45740J0D01*
G01X4760000D01*
G03X4778170Y2078020I8J45742D01*
G01X4780100Y2078860D01*
X4802580D01*
X4804250Y2078260D01*
G03X4830000Y2073780I25746J71741D01*
G03X4906220Y2150000I0J76220D01*
G03X4853480Y2222510I-76215J0D01*
G02X4839820Y2245890I6255J19335D01*
G03X4840740Y2255000I-44818J9128D01*
G01Y2271690D01*
X4879530Y2310470D01*
G37*
G36*
G01X4295740Y3068860D02*
X5240530D01*
X5248860Y3060530D01*
Y2849470D01*
X5228930Y2829540D01*
X5180000D01*
G03X5138130Y2802210I0J-45738D01*
G01X5135460Y2796140D01*
X5075100D01*
X5073170Y2796980D01*
G03X5055000Y2800740I-18162J-41982D01*
G01X4945000D01*
G03X4937680Y2800150I3J-45740D01*
G01X4936880Y2800020D01*
X4925900D01*
Y2839980D01*
X4936880D01*
X4937680Y2839850D01*
G03X4945000Y2839260I7323J45150D01*
G01X5055000D01*
G03X5100740Y2885000I0J45740D01*
G01Y2945000D01*
G03X5055000Y2990740I-45740J0D01*
G01X4945000D01*
G03X4907270Y2970850I0J-45731D01*
G03X4905000Y2970900I-2366J-55848D01*
G03X4865470Y2954530I0J-55913D01*
G01X4850230Y2939280D01*
X4840700Y2948810D01*
X4840190Y2952080D01*
G03X4795000Y2990740I-45190J-7081D01*
G01X4685000D01*
G03X4661590Y2984300I-7J-45742D01*
G02X4635450Y2988910I-10398J17455D01*
G03X4600000Y3005740I-35450J-28920D01*
G01X4540000D01*
G03X4494260Y2960000I0J-45740D01*
G01Y2910000D01*
G03X4505470Y2880000I45748J0D01*
G03X4494260Y2850000I34538J-30000D01*
G01Y2849740D01*
G02X4472730Y2829460I-20319J3D01*
G03X4470000Y2829540I-2704J-45661D01*
G01X4421070D01*
X4381140Y2869470D01*
Y2936200D01*
G03X4360300Y2986500I-71137J-6D01*
G01X4295740Y3051070D01*
Y3068860D01*
G37*
G36*
G01X4530920Y4497260D02*
X4627130D01*
X4639260Y4485130D01*
Y4455000D01*
G03X4659390Y4417100I45743J0D01*
G01X4663860Y4414080D01*
Y4360000D01*
G03X4664210Y4352950I71140J-2D01*
G01X4664260Y4352450D01*
Y4330000D01*
G03X4710000Y4284260I45740J0D01*
G01X4760000D01*
G03X4778170Y4288020I8J45742D01*
G01X4780100Y4288860D01*
X4812580D01*
X4814250Y4288260D01*
G03X4840000Y4283780I25746J71741D01*
G03X4916220Y4360000I0J76220D01*
G03X4912370Y4383920I-76232J0D01*
G02X4935760Y4410200I19291J6379D01*
G03X4935950Y4410160I9518J44741D01*
G01X4944100Y4408520D01*
Y4260000D01*
G03X4960470Y4220470I55913J0D01*
G01X4987860Y4193080D01*
G02X4980680Y4175740I-7185J-7181D01*
G01X4960000D01*
G03X4934490Y4167970I-6J-45742D01*
G03X4900000Y4176220I-34490J-67970D01*
G03X4823780Y4100000I0J-76220D01*
G03X4845170Y4047060I76208J0D01*
G02Y4032940I-7311J-7060D01*
G03X4823780Y3980000I54818J-52940D01*
G03X4832070Y3945430I76225J0D01*
G02X4813960Y3915900I-18112J-9210D01*
G01X4573150D01*
X4367450Y4121610D01*
G02X4370120Y4152590I14367J14367D01*
G03X4389540Y4190000I-26323J37410D01*
G01Y4215130D01*
X4435300Y4260900D01*
G03X4456140Y4311200I-50297J50306D01*
G01Y4395000D01*
G03X4435300Y4445300I-71137J-6D01*
G01X4425290Y4455320D01*
G02X4432480Y4472660I7186J7181D01*
G01X4490000D01*
G03X4527900Y4492790I0J45743D01*
G01X4530920Y4497260D01*
G37*
G36*
G01X4337000Y5268860D02*
X5230530D01*
X5248860Y5250530D01*
Y5049470D01*
X5218930Y5019540D01*
X5180000D01*
G03X5138130Y4992210I0J-45738D01*
G01X5135460Y4986140D01*
X5075100D01*
X5073170Y4986980D01*
G03X5055000Y4990740I-18162J-41982D01*
G01X4958440D01*
Y5029260D01*
X5055000D01*
G03X5100740Y5075000I0J45740D01*
G01Y5135000D01*
G03X5055000Y5180740I-45740J0D01*
G01X4945000D01*
G03X4907010Y5160470I0J-45735D01*
G03X4884080Y5146320I18397J-55467D01*
G01X4858680Y5120920D01*
G03X4858170Y5120410I41065J-41575D01*
G01X4855180Y5117350D01*
X4840740D01*
Y5135000D01*
G03X4795000Y5180740I-45740J0D01*
G01X4685000D01*
G03X4657630Y5171640I9J-45737D01*
G02X4631480Y5173180I-12161J16282D01*
G03X4600000Y5185740I-31480J-33170D01*
G01X4540000D01*
G03X4494260Y5140000I0J-45740D01*
G01Y5090000D01*
G03X4505470Y5060000I45748J0D01*
G03X4494260Y5030000I34538J-30000D01*
G01Y5017730D01*
X4482800D01*
X4481540Y5018060D01*
G03X4470000Y5019540I-11540J-44250D01*
G01X4431070D01*
X4391140Y5059470D01*
Y5136200D01*
G03X4370300Y5186500I-71137J-6D01*
G01X4322640Y5234170D01*
G02X4337000Y5268860I14364J14371D01*
G37*
G36*
G01X4903150Y2594100D02*
X5236850D01*
X5239100Y2591850D01*
Y2485740D01*
X5180000D01*
G03X5134530Y2444960I0J-45740D01*
G01X5133540Y2435900D01*
X5092700D01*
G03X5055000Y2455740I-37700J-25899D01*
G01X4945000D01*
G03X4925070Y2451170I0J-45743D01*
G02X4895900Y2469460I-8850J18291D01*
G01Y2586850D01*
X4903150Y2594100D01*
G37*
G36*
G01X4879530Y4520470D02*
G03X4881550Y4522610I-39626J39428D01*
G02X4899260Y4515670I7552J-6796D01*
G01Y4455000D01*
G03X4899500Y4450280I45742J-40D01*
G02X4871020Y4429620I-20210J-2100D01*
G03X4856620Y4434390I-31048J-69610D01*
G02X4840740Y4454460I4436J19827D01*
G01Y4481690D01*
X4879530Y4520470D01*
G37*
G36*
G01X4943150Y4784100D02*
X5236850D01*
X5239100Y4781850D01*
Y4685740D01*
X5180000D01*
G03X5134530Y4644960I0J-45740D01*
G01X5133540Y4635900D01*
X5092700D01*
G03X5055000Y4655740I-37700J-25899D01*
G01X4945000D01*
G03X4925070Y4651170I0J-45743D01*
G02X4895900Y4669460I-8850J18291D01*
G01Y4736850D01*
X4943150Y4784100D01*
G37*
G36*
G01X4795000Y4839260D02*
G03X4818300Y4845640I0J45736D01*
G01X4825080Y4849650D01*
X4837840Y4836890D01*
X4800470Y4799530D01*
G03X4784110Y4760760I39535J-39519D01*
G01X4783970Y4750740D01*
X4703170D01*
G02X4682930Y4772810I4J20319D01*
G03X4683240Y4780000I-82931J7177D01*
G03X4670650Y4824020I-83251J0D01*
G02X4680310Y4839500I8621J5374D01*
G03X4685000Y4839260I4680J45501D01*
G01X4795000D01*
G37*
G36*
G01X6529310Y6070000D02*
X9640000D01*
G02X9970000Y5740000I0J-330000D01*
G01Y3110000D01*
G02X9900000Y3040000I-70000J0D01*
G01X7860000D01*
G03X7800000Y2980000I0J-60000D01*
G01Y1350000D01*
G03X7860000Y1290000I60000J0D01*
G01X9900000D01*
G02X9970000Y1220000I0J-70000D01*
G01Y360000D01*
G02X9640000Y30000I-330000J0D01*
G01X6519310D01*
G02X6504940Y64690I-4J20320D01*
G01X6690120Y249880D01*
G03X6735740Y360000I-110117J110128D01*
G01Y3795490D01*
X6877510Y3937260D01*
X8200000D01*
G03X8322150Y3987850I7J172743D01*
G01X8330820Y3996530D01*
X8398680Y3928680D01*
G03X8440000Y3911560I41326J41318D01*
G01X9580000D01*
G03X9621320Y3928680I-6J58438D01*
G01X9671320Y3978680D01*
G03X9688440Y4020000I-41304J41320D01*
G01Y4954180D01*
G03X9705740Y4990000I-28433J35820D01*
G01Y5046560D01*
X9738800D01*
G03X9758220Y5049880I3J58441D01*
G01X9759860Y5050460D01*
X9810000D01*
G03X9855740Y5096200I0J45740D01*
G01Y5176200D01*
G03X9810000Y5221940I-45740J0D01*
G01X9730000D01*
G03X9686300Y5189700I0J-45737D01*
G02X9664770Y5175490I-19415J6000D01*
G03X9660000Y5175740I-4776J-45490D01*
G01X9600000D01*
G03X9554260Y5130000I0J-45740D01*
G01Y4990000D01*
G03X9571560Y4954180I45733J0D01*
G01Y4044210D01*
X9555790Y4028440D01*
X8464210D01*
X8406370Y4086280D01*
X8409040Y4092580D01*
G03X8422740Y4160000I-159043J67420D01*
G03X8407910Y4230020I-172739J-5D01*
G01X8405080Y4236400D01*
X8417200Y4248510D01*
X8454210Y4211500D01*
X8454280Y4207400D01*
G03X8600000Y4064260I145720J2603D01*
G03X8745740Y4210000I0J145740D01*
G01Y4217230D01*
X8747240Y4219670D01*
G03Y4400330I-147240J90330D01*
G01X8745740Y4402770D01*
Y4410000D01*
G03X8602600Y4555720I-145743J0D01*
G01X8598500Y4555790D01*
X8592150Y4562150D01*
G03X8470000Y4612740I-122143J-122153D01*
G01X8422740D01*
Y4970390D01*
G03X8372150Y5092540I-172743J7D01*
G01X8192540Y5272150D01*
G03X8070390Y5322740I-122143J-122153D01*
G01X6901000D01*
G03X6771310Y5264110I0J-172753D01*
G02X6735740Y5277530I-15252J13424D01*
G01Y5750000D01*
G03X6690120Y5860120I-155737J-8D01*
G01X6514940Y6035310D01*
G02X6529310Y6070000I14366J14370D01*
G37*
G36*
G01X6735740Y4424510D02*
Y5022470D01*
G02X6771310Y5035890I20318J-4D01*
G03X6901000Y4977260I129690J114123D01*
G01X7998840D01*
X8077260Y4898840D01*
Y4440000D01*
G03X8138840Y4307780I172736J0D01*
G02Y4292220I-6536J-7780D01*
G03X8128450Y4282740I111138J-132240D01*
G01X6877510D01*
X6735740Y4424510D01*
G37*
%LPC*%
G75*
G36*
G01X8780000Y4935740D02*
X8980000D01*
G02Y4644260I0J-145740D01*
G01X8780000D01*
G02Y4935740I0J145740D01*
G37*
%LPD*%
G75*
G54D10*
X360000Y360000D03*
Y5740000D03*
X9640000Y360000D03*
Y5740000D03*
G54D20*
X3460000Y1235000D03*
Y1145000D03*
X3350000Y2625000D03*
Y2715000D03*
X3510000Y2625000D03*
Y2715000D03*
X3460000Y3445000D03*
Y3355000D03*
X3350000Y4835000D03*
Y4925000D03*
X3510000Y4835000D03*
Y4925000D03*
X3650000Y2625000D03*
Y2715000D03*
X3770000Y2625000D03*
Y2715000D03*
X3650000Y4835000D03*
Y4925000D03*
X3770000Y4835000D03*
Y4925000D03*
X3940000Y2625000D03*
Y2715000D03*
X4210000D03*
Y2625000D03*
X4070000Y2715000D03*
Y2625000D03*
Y4925000D03*
Y4835000D03*
X3940000D03*
Y4925000D03*
X4210000D03*
Y4835000D03*
X4570000Y2735000D03*
Y2825000D03*
Y2935000D03*
Y3025000D03*
Y4915000D03*
Y5005000D03*
Y5115000D03*
Y5205000D03*
X9630000Y5015000D03*
Y5105000D03*
G54D11*
X168510Y959980D03*
Y1359980D03*
Y1759980D03*
Y2159980D03*
Y2559980D03*
Y2959980D03*
Y3359980D03*
Y3759980D03*
Y4159980D03*
Y4559980D03*
Y4959980D03*
X568510Y1359980D03*
Y1759980D03*
Y2159980D03*
Y2559980D03*
Y2959980D03*
Y3359980D03*
Y3759980D03*
Y4159980D03*
Y4559980D03*
Y4959980D03*
X920000Y160000D03*
Y560000D03*
X1100000Y690000D03*
X1200000D03*
Y590000D03*
X1100000D03*
X920000Y960000D03*
X968510Y2959980D03*
Y3359980D03*
Y4959980D03*
Y5359980D03*
X1100000Y5380000D03*
X1200000D03*
X1100000Y5480000D03*
X1200000D03*
X968510Y5959980D03*
X1380000Y330000D03*
Y5630000D03*
X1690000Y830000D03*
X1770000D03*
X1950000Y840000D03*
X1770000Y970000D03*
X1690000D03*
X1770000Y900000D03*
X1690000D03*
X1770000Y1500000D03*
X1690000D03*
X1770000Y1430000D03*
X1690000D03*
Y1360000D03*
X1770000D03*
X1950000Y1380000D03*
X1770000Y1970000D03*
X1690000D03*
Y1900000D03*
X1770000D03*
Y2040000D03*
X1690000D03*
X1770000Y2570000D03*
X1690000D03*
X1770000Y2500000D03*
X1690000D03*
Y2430000D03*
X1770000D03*
X1950000Y2460000D03*
X1690000Y3030000D03*
X1770000D03*
X1690000Y3100000D03*
X1770000D03*
X1950000Y3050000D03*
X1690000Y3170000D03*
X1770000D03*
Y3710000D03*
X1690000D03*
X1770000Y3640000D03*
X1690000D03*
Y3570000D03*
X1770000D03*
X1950000Y3590000D03*
X1770000Y4250000D03*
X1690000D03*
X1770000Y4180000D03*
X1690000D03*
Y4110000D03*
X1770000D03*
X1690000Y4640000D03*
X1770000D03*
Y4780000D03*
X1690000D03*
X1770000Y4710000D03*
X1690000D03*
X1950000Y4670000D03*
X1890000Y5190000D03*
X1980000D03*
X2280000Y800000D03*
X2355000Y880000D03*
Y1310000D03*
Y1420000D03*
X2352420Y1972000D03*
X2355000Y1840000D03*
Y2505000D03*
Y2395000D03*
Y2925000D03*
Y3090000D03*
Y3520000D03*
Y3630000D03*
Y4050000D03*
X2352420Y4182000D03*
X2355000Y4605000D03*
Y4715000D03*
Y5135000D03*
X2500000Y1840000D03*
Y1940000D03*
Y2030000D03*
Y4240000D03*
Y4150000D03*
Y4050000D03*
X2890000Y850000D03*
X2900000Y1220000D03*
X3070000D03*
Y1100000D03*
Y980000D03*
X3010000Y1440000D03*
Y1580000D03*
Y1820000D03*
Y1660000D03*
Y2170000D03*
Y2260000D03*
Y2020000D03*
Y2390000D03*
X3070000Y2700000D03*
X2908510Y3099980D03*
X2910000Y2910000D03*
X3140000D03*
X3070000Y2820000D03*
X2910000Y3450000D03*
X3110000D03*
X3070000Y3310000D03*
Y3190000D03*
X3010000Y3790000D03*
Y3870000D03*
Y3650000D03*
Y4030000D03*
Y4230000D03*
Y4470000D03*
Y4380000D03*
Y4600000D03*
X3070000Y4910000D03*
Y5030000D03*
X3228510Y849980D03*
X3460000Y1330000D03*
X3308510Y3099980D03*
X3350000Y2810000D03*
X3510000D03*
X3460000Y3540000D03*
X3350000Y5020000D03*
X3510000D03*
X3628510Y849980D03*
X3840000Y1100000D03*
Y976340D03*
Y1180000D03*
X3580000Y1330000D03*
X3840000Y1253660D03*
X3695000Y2505000D03*
X3650000Y2810000D03*
X3840000Y3310000D03*
Y3390000D03*
Y3463660D03*
Y3186340D03*
X3580000Y3540000D03*
X3620000Y5020000D03*
X3695000Y4715000D03*
X4028510Y849980D03*
Y1249980D03*
X3940000Y2540000D03*
X4210000D03*
X4070000D03*
X4058510Y3249980D03*
Y3449980D03*
X3940000Y4750000D03*
X4210000D03*
X4070000D03*
X4428510Y849980D03*
Y1249980D03*
X4570000Y2020000D03*
X4595000Y2475000D03*
X4468510Y3039980D03*
X4458510Y3249980D03*
Y3449980D03*
X4638510Y4229980D03*
X4605000Y4675000D03*
X4828510Y849980D03*
X4870000Y1900000D03*
Y1780000D03*
X4770000Y2020000D03*
X4830000Y2150000D03*
X5000000Y2560000D03*
X4868510Y3039980D03*
X4668510D03*
X4838510Y4229980D03*
X4900000Y4100000D03*
Y3980000D03*
X4840000Y4360000D03*
X5000000Y4760000D03*
X4750000Y4790000D03*
X5228510Y849980D03*
X5380000Y1060000D03*
Y1780000D03*
X5068510Y3039980D03*
X5380000Y3260000D03*
Y4100000D03*
Y3980000D03*
X5210000Y4360000D03*
X5800000Y1300000D03*
X5730000Y1420000D03*
X5660000Y1540000D03*
X5520000Y1660000D03*
X5450960Y1899040D03*
X5505420Y2162170D03*
X5590000Y2020000D03*
X5505420Y2662170D03*
Y3162170D03*
X5800000Y3500000D03*
X5730000Y3620000D03*
X5510000Y3860000D03*
X5450000Y3740000D03*
X5620000Y3970000D03*
X5580000Y4220000D03*
X5870000Y1180000D03*
Y3380000D03*
X5960000Y4360000D03*
X6225420Y672170D03*
Y1172170D03*
Y1672170D03*
Y2172170D03*
Y2672170D03*
Y3172170D03*
Y3672170D03*
Y4172170D03*
Y4672170D03*
X7082440Y576280D03*
Y1076280D03*
Y1576280D03*
Y2076280D03*
Y2576280D03*
X7094420Y3351110D03*
X7088420Y4633650D03*
X7214280Y5574570D03*
X7615830Y468400D03*
Y968400D03*
X7594420Y3351110D03*
X7588420Y4633650D03*
X7714280Y5574570D03*
X8115830Y468400D03*
Y968400D03*
X8094420Y3351110D03*
X8214280Y5574570D03*
X8615830Y468400D03*
Y968400D03*
X8594420Y3351110D03*
X8714280Y5574570D03*
X9115830Y468400D03*
Y968400D03*
X9094420Y3351110D03*
X9214280Y5574570D03*
X9803320Y3423030D03*
Y3923030D03*
Y4423030D03*
G54D12*
X860000Y830000D03*
Y5240000D03*
X1160000Y830000D03*
Y5240000D03*
G54D30*
X7960000Y4110000D03*
Y4490000D03*
X8250000Y4160000D03*
Y4440000D03*
G54D21*
X3310000Y1008400D03*
Y1211600D03*
Y3218400D03*
Y3421600D03*
X3850000Y2858400D03*
Y3061600D03*
Y5068400D03*
Y5271600D03*
X4430000Y2378400D03*
Y2581600D03*
Y4568400D03*
Y4771600D03*
G54D13*
X760000Y1545000D03*
Y1795000D03*
Y2045000D03*
Y3755000D03*
Y4005000D03*
Y4255000D03*
G54D31*
X8600000Y4310000D03*
X9200000D03*
G54D22*
X3495000Y1490000D03*
X3445000D03*
X3395000D03*
X3345000D03*
Y2350000D03*
X3395000D03*
X3445000D03*
X3495000D03*
Y3700000D03*
X3445000D03*
X3395000D03*
X3345000D03*
Y4560000D03*
X3395000D03*
X3445000D03*
X3495000D03*
X3845000Y1490000D03*
X3795000D03*
X3745000D03*
X3695000D03*
X3645000D03*
X3595000D03*
X3545000D03*
Y2350000D03*
X3595000D03*
X3645000D03*
X3695000D03*
X3745000D03*
X3795000D03*
X3845000D03*
Y3700000D03*
X3795000D03*
X3745000D03*
X3695000D03*
X3645000D03*
X3595000D03*
X3545000D03*
Y4560000D03*
X3595000D03*
X3645000D03*
X3695000D03*
X3745000D03*
X3795000D03*
X3845000D03*
X3895000Y1490000D03*
Y2350000D03*
Y3700000D03*
Y4560000D03*
G54D14*
X760000Y2295000D03*
Y4505000D03*
G54D23*
X3620000Y1920000D03*
Y4130000D03*
G54D32*
X8880000Y4790000D03*
G54D33*
G01X2985000Y1100000D02*
X3070000D01*
G01X2985000Y980000D02*
X3070000D01*
G01X2985000Y2700000D02*
X3070000D01*
G01X2985000Y2820000D02*
X3070000D01*
G01X2985000Y3310000D02*
X3070000D01*
G01X2985000Y3190000D02*
X3070000D01*
G01X2985000Y4910000D02*
X3070000D01*
G01X2985000Y5030000D02*
X3070000D01*
G01X3840000Y1100000D02*
X3760000D01*
X3730000Y1130000D01*
Y1280000D01*
X3695000Y1315000D01*
Y1490000D01*
G01X3840000Y976340D02*
X3713660D01*
X3680000Y1010000D01*
Y1270000D01*
X3645000Y1305000D01*
Y1490000D01*
G01X3840000Y1180000D02*
X3800000D01*
X3770000Y1210000D01*
Y1300000D01*
X3745000Y1325000D01*
Y1490000D01*
G01X3840000Y1253660D02*
Y1300000D01*
X3795000Y1345000D01*
Y1490000D01*
G01X3940000Y2540000D02*
X3820000D01*
X3745000Y2465000D01*
Y2350000D01*
G01X4210000Y2540000D02*
X4110000Y2440000D01*
X3865320D01*
X3845000Y2419680D01*
Y2350000D01*
G01X3795000D02*
Y2444990D01*
X3829050Y2479040D01*
X4009040D01*
X4070000Y2540000D01*
G01X3840000Y3310000D02*
X3760000D01*
X3730000Y3340000D01*
Y3490000D01*
X3695000Y3525000D01*
Y3700000D01*
G01X3840000Y3390000D02*
X3800000D01*
X3770000Y3420000D01*
Y3510000D01*
X3745000Y3535000D01*
Y3700000D01*
G01X3840000Y3463660D02*
Y3510000D01*
X3795000Y3555000D01*
Y3700000D01*
G01X3840000Y3186340D02*
X3713660D01*
X3680000Y3220000D01*
Y3480000D01*
X3645000Y3515000D01*
Y3700000D01*
G01X3940000Y4750000D02*
X3820000D01*
X3745000Y4675000D01*
Y4560000D01*
G01X4210000Y4750000D02*
X4110000Y4650000D01*
X3865320D01*
X3845000Y4629680D01*
Y4560000D01*
G01X3795000D02*
Y4654990D01*
X3829050Y4689040D01*
X4009040D01*
X4070000Y4750000D01*
G01X5205370Y1060000D02*
X4796400D01*
X4211400Y1645000D01*
X4050000D01*
G01X4985000Y1180000D02*
X4747120D01*
X4232120Y1695000D01*
X4050000D01*
G01X5205370Y1300000D02*
X4697840D01*
X4252840Y1745000D01*
X4050000D01*
G01X4985000Y1420000D02*
X4648560D01*
X4273560Y1795000D01*
X4050000D01*
G01X4985000Y1660000D02*
X4550000D01*
X4315000Y1895000D01*
X4050000D01*
G01X5205370Y1540000D02*
X4599280D01*
X4294280Y1845000D01*
X4050000D01*
G01X3940000Y2625000D02*
Y2540000D01*
G01X4210000D02*
Y2625000D01*
G01Y2715000D02*
Y2883800D01*
G01X4070000Y2625000D02*
Y2540000D01*
G01Y2715000D02*
Y2883800D01*
G01X4985000Y3380000D02*
X4747120D01*
X4222120Y3905000D01*
X4050000D01*
G01X5205000Y3260000D02*
X4796400D01*
X4201400Y3855000D01*
X4050000D01*
G01X5205000Y3500000D02*
X4697840D01*
X4242840Y3955000D01*
X4050000D01*
G01X4985000Y3620000D02*
X4648560D01*
X4263560Y4005000D01*
X4050000D01*
G01X4985000Y3860000D02*
X4550000D01*
X4305000Y4105000D01*
X4050000D01*
G01X5205000Y3740000D02*
X4599280D01*
X4284280Y4055000D01*
X4050000D01*
G01X4070000Y4925000D02*
Y5093800D01*
G01X3940000Y4835000D02*
Y4750000D01*
G01X4210000D02*
Y4835000D01*
G01X4070000D02*
Y4750000D01*
G01X4210000Y4925000D02*
Y5093800D01*
G01X4570000Y2825000D02*
Y2935000D01*
G01X4740000Y2915000D02*
X4590000D01*
X4570000Y2935000D01*
G01X4740000Y4675000D02*
X4605000D01*
G01X4570000Y5005000D02*
Y5115000D01*
G01X4740000Y5105000D02*
X4580000D01*
X4570000Y5115000D01*
G01X4985000Y1900000D02*
X4870000D01*
G01X5205370Y1780000D02*
X4870000D01*
G01X5295000Y2410000D02*
Y2615000D01*
X5260000Y2650000D01*
X4880000D01*
X4840000Y2610000D01*
Y2350000D01*
X4775000Y2285000D01*
X4740000D01*
G01X5000000D02*
X5200000D01*
X5205000Y2290000D01*
G01X5205370Y2020000D02*
X5040000D01*
X5000000Y2060000D01*
Y2285000D01*
G01Y2380000D02*
X5175000D01*
X5205000Y2410000D01*
G01X5000000Y2725000D02*
X4905000D01*
X4870000Y2760000D01*
Y2880000D01*
X4905000Y2915000D01*
X5000000D01*
G01X5205000Y4220000D02*
X5040000D01*
X5000000Y4260000D01*
Y4485000D01*
G01X4985000Y4100000D02*
X4900000D01*
G01X5205000Y3980000D02*
X4900000D01*
G01X4740000Y4485000D02*
X4765000D01*
X4840000Y4560000D01*
Y4760000D01*
X4920000Y4840000D01*
X5260000D01*
X5295000Y4805000D01*
Y4610000D01*
G01X5000000Y4485000D02*
X5200000D01*
X5205000Y4490000D01*
G01X5000000Y4580000D02*
X5175000D01*
X5205000Y4610000D01*
G01X5075000Y1180000D02*
X5870000D01*
G01X5295370Y1060000D02*
X5380000D01*
G01X5800000Y1300000D02*
X5295370D01*
G01X5730000Y1420000D02*
X5075000D01*
G01X5295370Y1540000D02*
X5660000D01*
G01X5520000Y1660000D02*
X5075000D01*
G01X5380000Y1780000D02*
X5295370D01*
G01X5450960Y1899040D02*
X5075960D01*
X5075000Y1900000D01*
G01X5590000Y2020000D02*
X5295370D01*
G01X5075000Y3380000D02*
X5870000D01*
G01X5295000Y3500000D02*
X5800000D01*
G01X5295000Y3260000D02*
X5380000D01*
G01X5075000Y3620000D02*
X5730000D01*
G01X5075000Y3860000D02*
X5510000D01*
G01X5295000Y3740000D02*
X5450000D01*
G01X5295000Y4220000D02*
X5580000D01*
G01X5075000Y4100000D02*
X5380000D01*
G01X5295000Y3980000D02*
X5380000D01*
G54D15*
X1574000Y373000D03*
Y627000D03*
Y5473000D03*
Y5727000D03*
X1828000Y373000D03*
Y627000D03*
Y5473000D03*
Y5727000D03*
X2082000Y373000D03*
X2336000D03*
X2082000Y627000D03*
X2336000D03*
X2082000Y5473000D03*
X2336000D03*
X2082000Y5727000D03*
X2336000D03*
X2590000Y373000D03*
Y627000D03*
Y5473000D03*
Y5727000D03*
X2844000Y373000D03*
X3098000D03*
X2844000Y627000D03*
X3098000D03*
X2844000Y5473000D03*
X3098000D03*
X2844000Y5727000D03*
X3098000D03*
X3352000Y373000D03*
Y627000D03*
Y5473000D03*
Y5727000D03*
X3606000Y373000D03*
X3860000D03*
X3606000Y627000D03*
X3860000D03*
X3606000Y5473000D03*
X3860000D03*
X3606000Y5727000D03*
X3860000D03*
X4114000Y373000D03*
Y627000D03*
Y5473000D03*
Y5727000D03*
X4368000Y373000D03*
X4622000D03*
X4368000Y627000D03*
X4622000D03*
X4368000Y5473000D03*
X4622000D03*
X4368000Y5727000D03*
X4622000D03*
X4876000Y373000D03*
Y627000D03*
Y5473000D03*
Y5727000D03*
X5130000Y373000D03*
Y5473000D03*
G54D24*
X3190000Y1645000D03*
Y1695000D03*
Y1745000D03*
Y1795000D03*
Y1845000D03*
Y1895000D03*
Y1945000D03*
Y1995000D03*
Y2045000D03*
Y2095000D03*
Y2145000D03*
Y2195000D03*
Y3855000D03*
Y3905000D03*
Y3955000D03*
Y4005000D03*
Y4055000D03*
Y4105000D03*
Y4155000D03*
Y4205000D03*
Y4255000D03*
Y4305000D03*
Y4355000D03*
Y4405000D03*
X4050000Y1945000D03*
Y1895000D03*
Y1845000D03*
Y1795000D03*
Y1745000D03*
Y1695000D03*
Y1645000D03*
Y2195000D03*
Y2145000D03*
Y2095000D03*
Y2045000D03*
Y1995000D03*
Y3855000D03*
Y4255000D03*
Y4205000D03*
Y4155000D03*
Y4105000D03*
Y4055000D03*
Y4005000D03*
Y3955000D03*
Y3905000D03*
Y4405000D03*
Y4355000D03*
Y4305000D03*
G54D34*
G01X2240000Y750000D02*
X1480000D01*
X1450000Y720000D01*
G01X2090000Y1221000D02*
X2264000D01*
X2265000Y1220000D01*
G01X2090000Y967000D02*
X2262000D01*
X2265000Y970000D01*
G01X2355000Y1220000D02*
Y1310000D01*
G01Y970000D02*
Y880000D01*
G01X2090000Y1507000D02*
X2262000D01*
X2265000Y1510000D01*
G01X2355000D02*
Y1420000D01*
G01X2090000Y1761000D02*
X2264000D01*
X2265000Y1760000D01*
G01X2355000Y2050000D02*
Y1974580D01*
X2352420Y1972000D01*
G01X2903720Y1516200D02*
X2893800D01*
X2820000Y1590000D01*
Y1710000D01*
X2770000Y1760000D01*
X2470000D01*
X2430000Y1800000D01*
Y1860000D01*
X2381500Y1908500D01*
X2111500D01*
G01D02*
X2106500Y1903500D01*
X2090000Y1920000D01*
G01X2355000Y1760000D02*
Y1840000D01*
G01X2090000Y2047000D02*
X2262000D01*
X2265000Y2050000D01*
G01X2090000Y2301000D02*
X2261050D01*
X2265000Y2304950D01*
G01X2355000D02*
Y2395000D01*
G01X2090000Y2587000D02*
X2262000D01*
X2265000Y2590000D01*
G01X2355000D02*
Y2505000D01*
G01X2090000Y2841000D02*
X2264000D01*
X2265000Y2840000D01*
G01X2355000D02*
Y2925000D01*
G01Y3180000D02*
Y3090000D01*
G01X2090000Y3177000D02*
X2262000D01*
X2265000Y3180000D01*
G01X2090000Y3431000D02*
X2264000D01*
X2265000Y3430000D01*
G01X2355000D02*
Y3520000D01*
G01X2090000Y3717000D02*
X2262000D01*
X2265000Y3720000D01*
G01X2355000D02*
Y3630000D01*
G01X2090000Y3971000D02*
X2264000D01*
X2265000Y3970000D01*
G01X2090000Y4257000D02*
X2262000D01*
X2265000Y4260000D01*
G01X2355000Y3970000D02*
Y4050000D01*
G01X2090000Y4130000D02*
X2106500Y4113500D01*
X2111500Y4118500D01*
G01D02*
X2381500D01*
X2430000Y4070000D01*
Y4010000D01*
X2470000Y3970000D01*
X2770000D01*
X2820000Y3920000D01*
Y3800000D01*
X2893800Y3726200D01*
X2903720D01*
G01X2355000Y4260000D02*
Y4184580D01*
X2352420Y4182000D01*
G01X2090000Y4511000D02*
X2261050D01*
X2265000Y4514950D01*
G01X2355000D02*
Y4605000D01*
G01X2090000Y4797000D02*
X2262000D01*
X2265000Y4800000D01*
G01X2355000D02*
Y4715000D01*
G01X2090000Y5051000D02*
X2264000D01*
X2265000Y5050000D01*
G01X2355000D02*
Y5135000D01*
G01X2895000Y980000D02*
X2660000D01*
X2620000Y940000D01*
G01X2500000Y1840000D02*
X2750000D01*
X2903720Y1686280D01*
Y1683800D01*
G01X2500000Y1940000D02*
X2700000D01*
X2903720Y2143720D01*
Y2156200D01*
G01X2500000Y2030000D02*
X2520000Y2050000D01*
X2750000D01*
X2820000Y2120000D01*
Y2250000D01*
X2893800Y2323800D01*
X2903720D01*
G01X2895000Y3190000D02*
X2660000D01*
X2620000Y3150000D01*
G01X2500000Y4240000D02*
X2520000Y4260000D01*
X2750000D01*
X2820000Y4330000D01*
Y4460000D01*
X2893800Y4533800D01*
X2903720D01*
G01X2500000Y4150000D02*
X2700000D01*
X2903720Y4353720D01*
Y4366200D01*
G01X2500000Y4050000D02*
X2750000D01*
X2903720Y3896280D01*
Y3893800D01*
G01X2895000Y1100000D02*
X2760000D01*
G01X3010000Y1440000D02*
X3319600D01*
X3345000Y1465400D01*
Y1490000D01*
G01X3395000D02*
Y1415000D01*
X3340000Y1360000D01*
X2907520D01*
X2903720Y1363800D01*
G01Y1516200D02*
X3136200D01*
X3190000Y1570000D01*
Y1645000D01*
G01X3010000Y1580000D02*
X3054600D01*
X3080000Y1605400D01*
Y1669600D01*
X3105400Y1695000D01*
X3190000D01*
G01Y1895000D02*
X2962520D01*
X2903720Y1836200D01*
G01X3190000Y1845000D02*
X3035000D01*
X3010000Y1820000D01*
G01X2903720Y1683800D02*
X2949920Y1730000D01*
X3010000D01*
X3075000Y1795000D01*
X3190000D01*
G01X3010000Y1660000D02*
X3095000Y1745000D01*
X3190000D01*
G01Y1945000D02*
X2962520D01*
X2903720Y2003800D01*
G01X3190000Y2095000D02*
X3085000D01*
X3010000Y2170000D01*
G01X2903720Y2323800D02*
X3136200D01*
X3190000Y2270000D01*
Y2195000D01*
G01Y2145000D02*
X3125000D01*
X3010000Y2260000D01*
G01X3190000Y1995000D02*
X3035000D01*
X3010000Y2020000D01*
G01X3190000Y2045000D02*
X3074810D01*
X3036310Y2083500D01*
X2976420D01*
X2903720Y2156200D01*
G01X2760000Y2690000D02*
X2770000Y2700000D01*
G01D02*
X2895000D01*
G01X3345000Y2350000D02*
Y2364600D01*
X3319600Y2390000D01*
X3010000D01*
G01X3395000Y2350000D02*
Y2435000D01*
X3350000Y2480000D01*
X2907520D01*
X2903720Y2476200D01*
G01X2895000Y3310000D02*
X2760000D01*
G01X3395000Y3700000D02*
Y3625000D01*
X3340000Y3570000D01*
X2907520D01*
X2903720Y3573800D01*
G01Y3726200D02*
X3136200D01*
X3190000Y3780000D01*
Y3855000D01*
G01X3010000Y3790000D02*
X3054600D01*
X3080000Y3815400D01*
Y3879600D01*
X3105400Y3905000D01*
X3190000D01*
G01X3010000Y3870000D02*
X3095000Y3955000D01*
X3190000D01*
G01X3010000Y3650000D02*
X3319600D01*
X3345000Y3675400D01*
Y3700000D01*
G01X3190000Y4105000D02*
X2962520D01*
X2903720Y4046200D01*
G01X3190000Y4255000D02*
X3074810D01*
X3036310Y4293500D01*
X2976420D01*
X2903720Y4366200D01*
G01Y3893800D02*
X2949920Y3940000D01*
X3010000D01*
X3075000Y4005000D01*
X3190000D01*
G01Y4055000D02*
X3035000D01*
X3010000Y4030000D01*
G01X3190000Y4205000D02*
X3035000D01*
X3010000Y4230000D01*
G01X3190000Y4155000D02*
X2962520D01*
X2903720Y4213800D01*
G01X3190000Y4355000D02*
X3125000D01*
X3010000Y4470000D01*
G01X2903720Y4533800D02*
X3136200D01*
X3190000Y4480000D01*
Y4405000D01*
G01Y4305000D02*
X3085000D01*
X3010000Y4380000D01*
G01X3345000Y4560000D02*
Y4574600D01*
X3319600Y4600000D01*
X3010000D01*
G01X2760000Y4900000D02*
X2770000Y4910000D01*
G01D02*
X2895000D01*
G01X3395000Y4560000D02*
Y4645000D01*
X3350000Y4690000D01*
X2907520D01*
X2903720Y4686200D01*
G01X3445000Y1490000D02*
Y1405000D01*
X3370000Y1330000D01*
Y1271600D01*
X3310000Y1211600D01*
G01X3495000Y1490000D02*
Y1365000D01*
X3460000Y1330000D01*
G01X3495000Y2505000D02*
Y2350000D01*
G01X3445000D02*
Y2455000D01*
X3350000Y2550000D01*
Y2625000D01*
G01X3430000Y2880000D02*
Y2780000D01*
X3495000Y2715000D01*
X3510000D01*
G01X3420000Y2890000D02*
X3430000Y2880000D01*
G01X3445000Y3700000D02*
Y3615000D01*
X3370000Y3540000D01*
Y3481600D01*
X3310000Y3421600D01*
G01X3495000Y3700000D02*
Y3575000D01*
X3460000Y3540000D01*
G01X3495000Y4715000D02*
Y4560000D01*
G01X3445000D02*
Y4665000D01*
X3350000Y4760000D01*
Y4835000D01*
G01X3595000Y1490000D02*
Y1895000D01*
X3620000Y1920000D01*
G01X3845000Y1490000D02*
Y1695000D01*
G01X3870000Y1370000D02*
X3845000Y1395000D01*
Y1490000D01*
G01X3580000Y1330000D02*
X3545000Y1365000D01*
Y1490000D01*
G01X3845000Y1695000D02*
X3820000Y1720000D01*
G01X3895000Y1490000D02*
Y1645000D01*
X3845000Y1695000D01*
G01X4050000Y1945000D02*
X3645000D01*
G01D02*
X3620000Y1920000D01*
G01X3645000Y2350000D02*
Y1945000D01*
G01X3820000Y1720000D02*
X3620000Y1920000D01*
G01X3545000Y2350000D02*
Y2455000D01*
X3580000Y2490000D01*
Y2649520D01*
X3645480Y2715000D01*
X3650000D01*
G01X3695000Y2350000D02*
Y2505000D01*
G01X3650000Y2625000D02*
X3631500Y2606500D01*
Y2471500D01*
X3595000Y2435000D01*
Y2350000D01*
G01X3610000Y2810000D02*
X3515000Y2715000D01*
X3510000D01*
G01X3845000Y3700000D02*
Y3905000D01*
G01X3895000Y3700000D02*
Y3855000D01*
X3845000Y3905000D01*
G01X3880000Y3570000D02*
X3845000Y3605000D01*
Y3700000D01*
G01X3595000D02*
Y3866500D01*
X3593690D01*
X3556500Y3903690D01*
Y3956310D01*
X3593690Y3993500D01*
X3595000D01*
Y4105000D01*
X3620000Y4130000D01*
G01X3580000Y3540000D02*
X3545000Y3575000D01*
Y3700000D01*
G01X3845000Y3905000D02*
X3820000Y3930000D01*
G01X3645000Y4560000D02*
Y4393500D01*
X3646310D01*
X3683500Y4356310D01*
Y4303690D01*
X3646310Y4266500D01*
X3645000D01*
Y4155000D01*
G01D02*
X3756500D01*
Y4156310D01*
X3793690Y4193500D01*
X3846310D01*
X3883500Y4156310D01*
Y4155000D01*
X4050000D01*
G01X3645000D02*
X3620000Y4130000D01*
G01X3820000Y3930000D02*
X3620000Y4130000D01*
G01X3695000Y4560000D02*
Y4715000D01*
G01X3545000Y4560000D02*
Y4665000D01*
X3580000Y4700000D01*
Y4859520D01*
X3645480Y4925000D01*
X3650000D01*
G01Y4835000D02*
X3631500Y4816500D01*
Y4681500D01*
X3595000Y4645000D01*
Y4560000D01*
G01X3600000Y5000000D02*
X3525000Y4925000D01*
X3510000D01*
G01X3905360Y1405360D02*
X3895000Y1415720D01*
Y1490000D01*
G01X4381200Y1945000D02*
X4050000D01*
G01Y1995000D02*
X4275000D01*
X4300000Y2020000D01*
G01D02*
X4275000Y2045000D01*
X4050000D01*
G01Y2095000D02*
X4240000D01*
X4295000Y2150000D01*
G01X3915360Y3605360D02*
X3895000Y3625720D01*
Y3700000D01*
G01X4381200Y4155000D02*
X4050000D01*
G01Y4255000D02*
X4275000D01*
X4300000Y4230000D01*
G01D02*
X4275000Y4205000D01*
X4050000D01*
G01Y4305000D02*
X4240000D01*
X4295000Y4360000D01*
G01X4456200Y2020000D02*
X4381200Y1945000D01*
G01X4303800Y2020000D02*
X4300000D01*
G01X4740000Y2475000D02*
X4595000D01*
G01X4456200Y4230000D02*
X4381200Y4155000D01*
G01X4303800Y4230000D02*
X4300000D01*
G01X4880000Y2300000D02*
X4890000Y2310000D01*
Y2450000D01*
X4910000Y2470000D01*
G01D02*
Y2490000D01*
G01X4720000Y3230000D02*
X4756660Y3193340D01*
X5326660D01*
X5340000Y3180000D01*
G01X4930000Y4400000D02*
X4890000Y4440000D01*
G01D02*
Y4640000D01*
X4910000Y4660000D01*
G01X4810000Y4830000D02*
X4850000Y4870000D01*
Y5130000D01*
G01X5000000Y4915000D02*
X4925400D01*
X4900000Y4940400D01*
Y5079600D01*
X4925400Y5105000D01*
X5000000D01*
G01X5340000Y3180000D02*
X5350000D01*
G01X9630000Y5015000D02*
Y4020000D01*
X9580000Y3970000D01*
X8440000D01*
X8250000Y4160000D01*
G01X9630000Y5105000D02*
X9738800D01*
X9770000Y5136200D01*
G54D25*
X3820000Y1720000D03*
X3620000D03*
X3820000Y1920000D03*
X3620000D03*
X3820000Y2120000D03*
X3620000D03*
Y4130000D03*
X3820000D03*
X3620000Y3930000D03*
X3820000D03*
X3620000Y4330000D03*
X3820000D03*
G54D16*
X1550000Y840000D03*
Y967000D03*
Y1094000D03*
Y1221000D03*
Y1380000D03*
Y1507000D03*
Y1634000D03*
Y1761000D03*
Y1920000D03*
Y2047000D03*
Y2174000D03*
Y2301000D03*
Y2460000D03*
Y2587000D03*
Y2714000D03*
Y2841000D03*
Y3050000D03*
Y3177000D03*
Y3304000D03*
Y3431000D03*
Y3590000D03*
Y3717000D03*
Y3844000D03*
Y3971000D03*
Y4130000D03*
Y4257000D03*
Y4670000D03*
Y4384000D03*
Y4511000D03*
Y4797000D03*
Y4924000D03*
Y5051000D03*
X2090000Y840000D03*
Y1221000D03*
Y1094000D03*
Y967000D03*
Y1507000D03*
Y1380000D03*
Y1761000D03*
Y1634000D03*
Y1920000D03*
Y2301000D03*
Y2174000D03*
Y2047000D03*
Y2714000D03*
Y2587000D03*
Y2460000D03*
Y2841000D03*
Y3050000D03*
Y3431000D03*
Y3304000D03*
Y3177000D03*
Y3844000D03*
Y3717000D03*
Y3590000D03*
Y3971000D03*
Y4257000D03*
Y4130000D03*
Y4670000D03*
Y4511000D03*
Y4384000D03*
Y5051000D03*
Y4924000D03*
Y4797000D03*
G54D35*
G01X1200000Y5380000D02*
X1260000Y5320000D01*
X3290000D01*
X3350000Y5260000D01*
Y5020000D01*
G01X1630000Y2930000D02*
X1420000D01*
G01D02*
X1400000Y2950000D01*
G01X2270000Y3010000D02*
X2420000D01*
G01X3460000Y1235000D02*
Y1330000D01*
G01X3510000Y2625000D02*
X3495000Y2610000D01*
Y2505000D01*
G01X3350000Y2715000D02*
Y2810000D01*
G01X3510000Y2625000D02*
X3475000D01*
X3385000Y2715000D01*
X3350000D01*
G01X3510000Y2810000D02*
Y3010000D01*
X3561600Y3061600D01*
X3850000D01*
G01X3460000Y3445000D02*
Y3540000D01*
G01X3510000Y4835000D02*
X3495000Y4820000D01*
Y4715000D01*
G01X3350000Y4925000D02*
X3385000D01*
X3475000Y4835000D01*
X3510000D01*
G01X3350000Y4925000D02*
Y5020000D01*
G01X3510000D02*
Y5220800D01*
X3560800Y5271600D01*
X3850000D01*
G01X3580000Y1330000D02*
Y1236200D01*
X3590000Y1226200D01*
G01X3770000Y2625000D02*
X3805000D01*
X3850000Y2670000D01*
Y2858400D01*
G01X3770000Y2625000D02*
Y2580000D01*
X3695000Y2505000D01*
G01X5220000Y2743800D02*
X5243800D01*
X5320000Y2820000D01*
Y3090000D01*
X5270000Y3140000D01*
X3930000D01*
X3851600Y3061600D01*
X3850000D01*
G01X3580000Y3540000D02*
Y3446200D01*
X3590000Y3436200D01*
G01X3770000Y4835000D02*
Y4790000D01*
X3695000Y4715000D01*
G01X3770000Y4835000D02*
X3805000D01*
X3850000Y4880000D01*
Y5068400D01*
G01X5220000Y4933800D02*
X5233800D01*
X5320000Y5020000D01*
Y5280000D01*
X5260000Y5340000D01*
X3940000D01*
X3871600Y5271600D01*
X3850000D01*
G01X3940000Y2715000D02*
X3973800Y2748800D01*
Y2940000D01*
X4070000Y3036200D01*
G01X4210000D02*
X4070000D01*
G01X4210000D02*
X4310000Y2936200D01*
Y2840000D01*
X4406200Y2743800D01*
X4430000D01*
G01X3940000Y4925000D02*
X3973800Y4958800D01*
Y5150000D01*
X4070000Y5246200D01*
G01X4210000D02*
X4070000D01*
G01X4210000D02*
X4320000Y5136200D01*
Y5030000D01*
X4416200Y4933800D01*
X4430000D01*
G01X4740000Y2285000D02*
X4523400D01*
X4430000Y2378400D01*
G01X4385000Y2150000D02*
Y2101200D01*
X4303800Y2020000D01*
G01X4385000Y2150000D02*
Y2185000D01*
X4310000Y2260000D01*
Y2500000D01*
X4391600Y2581600D01*
X4430000D01*
G01X4740000Y2725000D02*
X4580000D01*
X4570000Y2735000D01*
G01D02*
X4438800D01*
X4430000Y2743800D01*
G01D02*
Y2581600D01*
G01D02*
X4591600D01*
X4600000Y2590000D01*
G01X4385000Y4360000D02*
Y4311200D01*
X4303800Y4230000D01*
G01X4430000Y4568400D02*
X4656600D01*
X4740000Y4485000D01*
G01X4385000Y4360000D02*
Y4395000D01*
X4310000Y4470000D01*
Y4660000D01*
X4421600Y4771600D01*
X4430000D01*
G01D02*
Y4933800D01*
G01X4570000Y4915000D02*
X4448800D01*
X4430000Y4933800D01*
G01X4740000Y4915000D02*
X4570000D01*
G01X4600000Y4780000D02*
X4438400D01*
X4430000Y4771600D01*
G01X4735000Y2150000D02*
X4830000D01*
G01X4735000D02*
Y2280000D01*
X4740000Y2285000D01*
G01X5000000Y2725000D02*
X5201200D01*
X5220000Y2743800D01*
G01X4735000Y4360000D02*
Y4480000D01*
X4740000Y4485000D01*
G01X4735000Y4360000D02*
X4840000D01*
G01X5000000Y4915000D02*
X5201200D01*
X5220000Y4933800D01*
G01X5210000Y4360000D02*
X5960000D01*
G54D17*
X2355000Y970000D03*
X2265000D03*
X2355000Y1220000D03*
X2265000D03*
X2355000Y1510000D03*
X2265000D03*
X2355000Y1760000D03*
X2265000D03*
X2355000Y2050000D03*
X2265000D03*
X2355000Y2304950D03*
X2265000D03*
X2355000Y2590000D03*
X2265000D03*
X2355000Y2840000D03*
X2265000D03*
X2355000Y3180000D03*
X2265000D03*
X2355000Y3430000D03*
X2265000D03*
X2355000Y3720000D03*
X2265000D03*
X2355000Y3970000D03*
X2265000D03*
X2355000Y4260000D03*
X2265000D03*
X2355000Y4514950D03*
X2265000D03*
X2355000Y4800000D03*
X2265000D03*
X2355000Y5050000D03*
X2265000D03*
X2985000Y980000D03*
X2895000D03*
X2985000Y1100000D03*
X2895000D03*
X2985000Y2700000D03*
X2895000D03*
X2985000Y2820000D03*
X2895000D03*
X2985000Y3310000D03*
X2895000D03*
X2985000Y3190000D03*
X2895000D03*
X2985000Y4910000D03*
X2895000D03*
X2985000Y5030000D03*
X2895000D03*
X4385000Y2150000D03*
X4295000D03*
X4645000D03*
X4385000Y4360000D03*
X4295000D03*
X4645000D03*
X4985000Y1180000D03*
Y1420000D03*
Y1660000D03*
Y1900000D03*
X4735000Y2150000D03*
X4985000Y3380000D03*
Y3620000D03*
Y3860000D03*
Y4100000D03*
X4735000Y4360000D03*
X5295370Y1060000D03*
X5205370D03*
X5075000Y1180000D03*
X5295370Y1300000D03*
X5205370D03*
X5075000Y1420000D03*
X5295370Y1540000D03*
X5205370D03*
X5075000Y1660000D03*
X5295370Y1780000D03*
X5205370D03*
X5075000Y1900000D03*
X5295370Y2020000D03*
X5205370D03*
X5295000Y2290000D03*
X5205000D03*
X5295000Y2410000D03*
X5205000D03*
X5075000Y3380000D03*
X5295000Y3500000D03*
X5205000D03*
X5295000Y3260000D03*
X5205000D03*
X5075000Y3620000D03*
X5295000Y3740000D03*
X5205000D03*
X5075000Y3860000D03*
X5295000Y3980000D03*
X5205000D03*
X5075000Y4100000D03*
X5295000Y4220000D03*
X5205000D03*
X5295000Y4610000D03*
X5205000D03*
X5295000Y4490000D03*
X5205000D03*
G54D26*
X4600000Y2590000D03*
Y4780000D03*
G54D36*
G01X1570000Y1160000D02*
X1145000D01*
X760000Y1545000D01*
G01X1590000Y1700000D02*
X1119990D01*
X1024990Y1795000D01*
X760000D01*
G01X1560000Y2240000D02*
X1140000D01*
X945000Y2045000D01*
X760000D01*
G01X1560000Y2780000D02*
X1245000D01*
X760000Y2295000D01*
G01X1570000Y3370000D02*
X1420000D01*
X1035000Y3755000D01*
X760000D01*
G01X1550000Y3900000D02*
X1420000D01*
X1315000Y4005000D01*
X760000D01*
G01X1590000Y4450000D02*
X1410000D01*
X1215000Y4255000D01*
X760000D01*
G01X1560000Y4980000D02*
X1430000D01*
X955000Y4505000D01*
X760000D01*
G54D18*
X2620000Y940000D03*
Y1580000D03*
Y2220000D03*
Y3150000D03*
Y2860000D03*
Y3790000D03*
Y4430000D03*
Y5070000D03*
G54D27*
X4740000Y2285000D03*
X5000000Y2380000D03*
Y2285000D03*
X4740000Y2475000D03*
X5000000D03*
X4740000Y2725000D03*
X5000000D03*
X4740000Y2915000D03*
X5000000D03*
Y2820000D03*
X4740000Y4485000D03*
Y4675000D03*
X5000000D03*
Y4580000D03*
Y4485000D03*
X4740000Y4915000D03*
X5000000Y5010000D03*
Y4915000D03*
X4740000Y5105000D03*
X5000000D03*
G54D37*
G01X6830000Y4110000D02*
X7960000D01*
G01X8250000Y4440000D02*
Y4970390D01*
X8070390Y5150000D01*
X6901000D01*
G01X7960000Y4110000D02*
X8200000D01*
X8250000Y4160000D01*
G01Y4440000D02*
X8470000D01*
X8600000Y4310000D01*
G54D28*
X5130000Y627000D03*
Y5727000D03*
G54D19*
X2903720Y1363800D03*
Y1516200D03*
Y2003800D03*
Y1836200D03*
Y1683800D03*
Y2323800D03*
Y2156200D03*
Y2476200D03*
Y3573800D03*
Y3726200D03*
Y3893800D03*
Y4213800D03*
Y4046200D03*
Y4366200D03*
Y4533800D03*
Y4686200D03*
X3590000Y1073800D03*
Y1226200D03*
Y3283800D03*
Y3436200D03*
X4210000Y3036200D03*
Y2883800D03*
X4070000Y3036200D03*
Y2883800D03*
X4210000Y5246200D03*
Y5093800D03*
X4070000Y5246200D03*
Y5093800D03*
X4303800Y2020000D03*
X4456200D03*
X4430000Y2743800D03*
Y2896200D03*
X4303800Y4230000D03*
X4456200D03*
X4430000Y4933800D03*
Y5086200D03*
X5220000Y2743800D03*
Y2896200D03*
Y4933800D03*
Y5086200D03*
X9770000Y4983800D03*
Y5136200D03*
G54D29*
G01X6830000Y4110000D02*
X6580000Y3860000D01*
Y360000D01*
X6350000Y130000D01*
X1300000D01*
X1160000Y270000D01*
Y830000D01*
G01Y5240000D02*
Y5790380D01*
X1339620Y5970000D01*
X6360000D01*
X6580000Y5750000D01*
Y4360000D01*
X6830000Y4110000D01*
X6139000Y5150000D03*
X6901000D03*
M02*
