G04 ================== begin FILE IDENTIFICATION RECORD ==================*
G04 Layout Name:  JY02_V10_220108.brd*
G04 Film Name:    Drill_Legend*
G04 File Format:  Gerber RS274X*
G04 File Origin:  Cadence Allegro 17.2-S071*
G04 Origin Date:  Sat Mar 12 10:20:53 2022*
G04 *
G04 Layer:  BOARD GEOMETRY/DIMENSION*
G04 Layer:  MANUFACTURING/NCDRILL_FIGURE*
G04 Layer:  MANUFACTURING/NCDRILL_LEGEND*
G04 Layer:  MANUFACTURING/NCLEGEND-1-2*
G04 *
G04 Offset:    (0.0000 0.0000)*
G04 Mirror:    No*
G04 Mode:      Positive*
G04 Rotation:  0*
G04 FullContactRelief:  No*
G04 UndefLineWidth:     0.1524*
G04 ================== end FILE IDENTIFICATION RECORD ====================*
%FSLAX55Y55*MOMM*%
%IR0*IPPOS*OFA0.00000B0.00000*MIA0B0*SFA1.00000B1.00000*%
%AMMACRO10*
1,1,.1524,1.55,0.0*
20,1,.1524,1.55,0.0,1.526452,-.269155,0.0*
1,1,.1524,1.526452,-.269155*
20,1,.1524,1.526452,-.269155,1.456524,-.530131,0.0*
1,1,.1524,1.456524,-.530131*
20,1,.1524,1.456524,-.530131,1.342339,-.775,0.0*
1,1,.1524,1.342339,-.775*
20,1,.1524,1.342339,-.775,1.187369,-.996321,0.0*
1,1,.1524,1.187369,-.996321*
20,1,.1524,1.187369,-.996321,.996321,-1.187369,0.0*
1,1,.1524,.996321,-1.187369*
20,1,.1524,.996321,-1.187369,.775,-1.342339,0.0*
1,1,.1524,.775,-1.342339*
20,1,.1524,.775,-1.342339,.530131,-1.456524,0.0*
1,1,.1524,.530131,-1.456524*
20,1,.1524,.530131,-1.456524,.269155,-1.526452,0.0*
1,1,.1524,.269155,-1.526452*
20,1,.1524,.269155,-1.526452,0.0,-1.55,0.0*
1,1,.1524,0.0,-1.55*
20,1,.1524,0.0,-1.55,-.269155,-1.526452,0.0*
1,1,.1524,-.269155,-1.526452*
20,1,.1524,-.269155,-1.526452,-.530131,-1.456524,0.0*
1,1,.1524,-.530131,-1.456524*
20,1,.1524,-.530131,-1.456524,-.775,-1.342339,0.0*
1,1,.1524,-.775,-1.342339*
20,1,.1524,-.775,-1.342339,-.996321,-1.187369,0.0*
1,1,.1524,-.996321,-1.187369*
20,1,.1524,-.996321,-1.187369,-1.187369,-.996321,0.0*
1,1,.1524,-1.187369,-.996321*
20,1,.1524,-1.187369,-.996321,-1.342339,-.775,0.0*
1,1,.1524,-1.342339,-.775*
20,1,.1524,-1.342339,-.775,-1.456524,-.530131,0.0*
1,1,.1524,-1.456524,-.530131*
20,1,.1524,-1.456524,-.530131,-1.526452,-.269155,0.0*
1,1,.1524,-1.526452,-.269155*
20,1,.1524,-1.526452,-.269155,-1.55,0.0,0.0*
1,1,.1524,-1.55,0.0*
20,1,.1524,-1.55,0.0,-1.526452,.269155,0.0*
1,1,.1524,-1.526452,.269155*
20,1,.1524,-1.526452,.269155,-1.456524,.530131,0.0*
1,1,.1524,-1.456524,.530131*
20,1,.1524,-1.456524,.530131,-1.342339,.775,0.0*
1,1,.1524,-1.342339,.775*
20,1,.1524,-1.342339,.775,-1.187369,.996321,0.0*
1,1,.1524,-1.187369,.996321*
20,1,.1524,-1.187369,.996321,-.996321,1.187369,0.0*
1,1,.1524,-.996321,1.187369*
20,1,.1524,-.996321,1.187369,-.775,1.342339,0.0*
1,1,.1524,-.775,1.342339*
20,1,.1524,-.775,1.342339,-.530131,1.456524,0.0*
1,1,.1524,-.530131,1.456524*
20,1,.1524,-.530131,1.456524,-.269155,1.526452,0.0*
1,1,.1524,-.269155,1.526452*
20,1,.1524,-.269155,1.526452,0.0,1.55,0.0*
1,1,.1524,0.0,1.55*
20,1,.1524,0.0,1.55,.269155,1.526452,0.0*
1,1,.1524,.269155,1.526452*
20,1,.1524,.269155,1.526452,.530131,1.456524,0.0*
1,1,.1524,.530131,1.456524*
20,1,.1524,.530131,1.456524,.775,1.342339,0.0*
1,1,.1524,.775,1.342339*
20,1,.1524,.775,1.342339,.996321,1.187369,0.0*
1,1,.1524,.996321,1.187369*
20,1,.1524,.996321,1.187369,1.187369,.996321,0.0*
1,1,.1524,1.187369,.996321*
20,1,.1524,1.187369,.996321,1.342339,.775,0.0*
1,1,.1524,1.342339,.775*
20,1,.1524,1.342339,.775,1.456524,.530131,0.0*
1,1,.1524,1.456524,.530131*
20,1,.1524,1.456524,.530131,1.526452,.269155,0.0*
1,1,.1524,1.526452,.269155*
20,1,.1524,1.526452,.269155,1.55,0.0,0.0*
1,1,.1524,1.55,0.0*
%
%ADD10MACRO10*%
%AMMACRO14*
1,1,.1524,.55,0.0*
20,1,.1524,.55,0.0,0.0,-.55,0.0*
1,1,.1524,0.0,-.55*
20,1,.1524,0.0,-.55,-.55,0.0,0.0*
1,1,.1524,-.55,0.0*
20,1,.1524,-.55,0.0,0.0,.55,0.0*
1,1,.1524,0.0,.55*
20,1,.1524,0.0,.55,.55,0.0,0.0*
1,1,.1524,.55,0.0*
%
%ADD14MACRO14*%
%AMMACRO22*
1,1,.1524,.3,.3*
20,1,.1524,.3,.3,.3,-.3,0.0*
1,1,.1524,.3,-.3*
20,1,.1524,.3,-.3,-.3,-.3,0.0*
1,1,.1524,-.3,-.3*
20,1,.1524,-.3,-.3,-.3,.3,0.0*
1,1,.1524,-.3,.3*
20,1,.1524,-.3,.3,.3,.3,0.0*
1,1,.1524,.3,.3*
%
%ADD22MACRO22*%
%AMMACRO20*
1,1,.1524,.9,.675*
20,1,.1524,.9,.675,.9,-.675,0.0*
1,1,.1524,.9,-.675*
20,1,.1524,.9,-.675,-.9,-.675,0.0*
1,1,.1524,-.9,-.675*
20,1,.1524,-.9,-.675,-.9,.675,0.0*
1,1,.1524,-.9,.675*
20,1,.1524,-.9,.675,.9,.675,0.0*
1,1,.1524,.9,.675*
%
%ADD20MACRO20*%
%AMMACRO11*
1,1,.1524,-.1625,.4875*
20,1,.1524,-.1625,.4875,.1625,.4875,0.0*
1,1,.1524,.1625,.4875*
20,1,.1524,.1625,.4875,.247153,.480094,0.0*
1,1,.1524,.247153,.480094*
20,1,.1524,.247153,.480094,.329235,.4581,0.0*
1,1,.1524,.329235,.4581*
20,1,.1524,.329235,.4581,.40625,.422187,0.0*
1,1,.1524,.40625,.422187*
20,1,.1524,.40625,.422187,.475859,.373447,0.0*
1,1,.1524,.475859,.373447*
20,1,.1524,.475859,.373447,.535947,.313359,0.0*
1,1,.1524,.535947,.313359*
20,1,.1524,.535947,.313359,.584687,.24375,0.0*
1,1,.1524,.584687,.24375*
20,1,.1524,.584687,.24375,.6206,.166735,0.0*
1,1,.1524,.6206,.166735*
20,1,.1524,.6206,.166735,.642594,.084653,0.0*
1,1,.1524,.642594,.084653*
20,1,.1524,.642594,.084653,.65,0.0,0.0*
1,1,.1524,.65,0.0*
20,1,.1524,.65,0.0,.642594,-.084653,0.0*
1,1,.1524,.642594,-.084653*
20,1,.1524,.642594,-.084653,.6206,-.166735,0.0*
1,1,.1524,.6206,-.166735*
20,1,.1524,.6206,-.166735,.584687,-.24375,0.0*
1,1,.1524,.584687,-.24375*
20,1,.1524,.584687,-.24375,.535947,-.313359,0.0*
1,1,.1524,.535947,-.313359*
20,1,.1524,.535947,-.313359,.475859,-.373447,0.0*
1,1,.1524,.475859,-.373447*
20,1,.1524,.475859,-.373447,.40625,-.422187,0.0*
1,1,.1524,.40625,-.422187*
20,1,.1524,.40625,-.422187,.329235,-.4581,0.0*
1,1,.1524,.329235,-.4581*
20,1,.1524,.329235,-.4581,.247153,-.480094,0.0*
1,1,.1524,.247153,-.480094*
20,1,.1524,.247153,-.480094,.1625,-.4875,0.0*
1,1,.1524,.1625,-.4875*
20,1,.1524,.1625,-.4875,-.1625,-.4875,0.0*
1,1,.1524,-.1625,-.4875*
20,1,.1524,-.1625,-.4875,-.247153,-.480094,0.0*
1,1,.1524,-.247153,-.480094*
20,1,.1524,-.247153,-.480094,-.329235,-.4581,0.0*
1,1,.1524,-.329235,-.4581*
20,1,.1524,-.329235,-.4581,-.40625,-.422187,0.0*
1,1,.1524,-.40625,-.422187*
20,1,.1524,-.40625,-.422187,-.475859,-.373447,0.0*
1,1,.1524,-.475859,-.373447*
20,1,.1524,-.475859,-.373447,-.535947,-.313359,0.0*
1,1,.1524,-.535947,-.313359*
20,1,.1524,-.535947,-.313359,-.584687,-.24375,0.0*
1,1,.1524,-.584687,-.24375*
20,1,.1524,-.584687,-.24375,-.6206,-.166735,0.0*
1,1,.1524,-.6206,-.166735*
20,1,.1524,-.6206,-.166735,-.642594,-.084653,0.0*
1,1,.1524,-.642594,-.084653*
20,1,.1524,-.642594,-.084653,-.65,0.0,0.0*
1,1,.1524,-.65,0.0*
20,1,.1524,-.65,0.0,-.642594,.084653,0.0*
1,1,.1524,-.642594,.084653*
20,1,.1524,-.642594,.084653,-.6206,.166735,0.0*
1,1,.1524,-.6206,.166735*
20,1,.1524,-.6206,.166735,-.584687,.24375,0.0*
1,1,.1524,-.584687,.24375*
20,1,.1524,-.584687,.24375,-.535947,.313359,0.0*
1,1,.1524,-.535947,.313359*
20,1,.1524,-.535947,.313359,-.475859,.373447,0.0*
1,1,.1524,-.475859,.373447*
20,1,.1524,-.475859,.373447,-.40625,.422187,0.0*
1,1,.1524,-.40625,.422187*
20,1,.1524,-.40625,.422187,-.329235,.4581,0.0*
1,1,.1524,-.329235,.4581*
20,1,.1524,-.329235,.4581,-.247153,.480094,0.0*
1,1,.1524,-.247153,.480094*
20,1,.1524,-.247153,.480094,-.1625,.4875,0.0*
1,1,.1524,-.1625,.4875*
%
%ADD11MACRO11*%
%AMMACRO12*
1,1,.1524,.1524,0.0*
20,1,.1524,.1524,0.0,-.1524,0.0,0.0*
1,1,.1524,-.1524,0.0*
1,1,.1524,0.0,.1524*
20,1,.1524,0.0,.1524,0.0,-.1524,0.0*
1,1,.1524,0.0,-.1524*
%
%ADD12MACRO12*%
%AMMACRO17*
1,1,.1524,-.6,.2*
20,1,.1524,-.6,.2,-.590885,.304189,0.0*
1,1,.1524,-.590885,.304189*
20,1,.1524,-.590885,.304189,-.563816,.405212,0.0*
1,1,.1524,-.563816,.405212*
20,1,.1524,-.563816,.405212,-.519615,.5,0.0*
1,1,.1524,-.519615,.5*
20,1,.1524,-.519615,.5,-.459627,.585673,0.0*
1,1,.1524,-.459627,.585673*
20,1,.1524,-.459627,.585673,-.385673,.659627,0.0*
1,1,.1524,-.385673,.659627*
20,1,.1524,-.385673,.659627,-.3,.719615,0.0*
1,1,.1524,-.3,.719615*
20,1,.1524,-.3,.719615,-.205212,.763816,0.0*
1,1,.1524,-.205212,.763816*
20,1,.1524,-.205212,.763816,-.104189,.790885,0.0*
1,1,.1524,-.104189,.790885*
20,1,.1524,-.104189,.790885,0.0,.8,0.0*
1,1,.1524,0.0,.8*
20,1,.1524,0.0,.8,.104189,.790885,0.0*
1,1,.1524,.104189,.790885*
20,1,.1524,.104189,.790885,.205212,.763816,0.0*
1,1,.1524,.205212,.763816*
20,1,.1524,.205212,.763816,.3,.719615,0.0*
1,1,.1524,.3,.719615*
20,1,.1524,.3,.719615,.385673,.659627,0.0*
1,1,.1524,.385673,.659627*
20,1,.1524,.385673,.659627,.459627,.585673,0.0*
1,1,.1524,.459627,.585673*
20,1,.1524,.459627,.585673,.519615,.5,0.0*
1,1,.1524,.519615,.5*
20,1,.1524,.519615,.5,.563816,.405212,0.0*
1,1,.1524,.563816,.405212*
20,1,.1524,.563816,.405212,.590885,.304189,0.0*
1,1,.1524,.590885,.304189*
20,1,.1524,.590885,.304189,.6,.2,0.0*
1,1,.1524,.6,.2*
20,1,.1524,.6,.2,.6,-.2,0.0*
1,1,.1524,.6,-.2*
20,1,.1524,.6,-.2,.590885,-.304189,0.0*
1,1,.1524,.590885,-.304189*
20,1,.1524,.590885,-.304189,.563816,-.405212,0.0*
1,1,.1524,.563816,-.405212*
20,1,.1524,.563816,-.405212,.519615,-.5,0.0*
1,1,.1524,.519615,-.5*
20,1,.1524,.519615,-.5,.459627,-.585673,0.0*
1,1,.1524,.459627,-.585673*
20,1,.1524,.459627,-.585673,.385673,-.659627,0.0*
1,1,.1524,.385673,-.659627*
20,1,.1524,.385673,-.659627,.3,-.719615,0.0*
1,1,.1524,.3,-.719615*
20,1,.1524,.3,-.719615,.205212,-.763816,0.0*
1,1,.1524,.205212,-.763816*
20,1,.1524,.205212,-.763816,.104189,-.790885,0.0*
1,1,.1524,.104189,-.790885*
20,1,.1524,.104189,-.790885,0.0,-.8,0.0*
1,1,.1524,0.0,-.8*
20,1,.1524,0.0,-.8,-.104189,-.790885,0.0*
1,1,.1524,-.104189,-.790885*
20,1,.1524,-.104189,-.790885,-.205212,-.763816,0.0*
1,1,.1524,-.205212,-.763816*
20,1,.1524,-.205212,-.763816,-.3,-.719615,0.0*
1,1,.1524,-.3,-.719615*
20,1,.1524,-.3,-.719615,-.385673,-.659627,0.0*
1,1,.1524,-.385673,-.659627*
20,1,.1524,-.385673,-.659627,-.459627,-.585673,0.0*
1,1,.1524,-.459627,-.585673*
20,1,.1524,-.459627,-.585673,-.519615,-.5,0.0*
1,1,.1524,-.519615,-.5*
20,1,.1524,-.519615,-.5,-.563816,-.405212,0.0*
1,1,.1524,-.563816,-.405212*
20,1,.1524,-.563816,-.405212,-.590885,-.304189,0.0*
1,1,.1524,-.590885,-.304189*
20,1,.1524,-.590885,-.304189,-.6,-.2,0.0*
1,1,.1524,-.6,-.2*
20,1,.1524,-.6,-.2,-.6,.2,0.0*
1,1,.1524,-.6,.2*
%
%ADD17MACRO17*%
%AMMACRO13*
1,1,.1524,0.0,.6*
20,1,.1524,0.0,.6,.519615,-.3,0.0*
1,1,.1524,.519615,-.3*
20,1,.1524,.519615,-.3,-.519615,-.3,0.0*
1,1,.1524,-.519615,-.3*
20,1,.1524,-.519615,-.3,0.0,.6,0.0*
1,1,.1524,0.0,.6*
%
%ADD13MACRO13*%
%AMMACRO16*
1,1,.1524,-.5,-1.*
20,1,.1524,-.5,-1.,-.5,1.,0.0*
1,1,.1524,-.5,1.*
20,1,.1524,-.5,1.,-.492404,1.086824,0.0*
1,1,.1524,-.492404,1.086824*
20,1,.1524,-.492404,1.086824,-.469846,1.17101,0.0*
1,1,.1524,-.469846,1.17101*
20,1,.1524,-.469846,1.17101,-.433013,1.25,0.0*
1,1,.1524,-.433013,1.25*
20,1,.1524,-.433013,1.25,-.383022,1.321394,0.0*
1,1,.1524,-.383022,1.321394*
20,1,.1524,-.383022,1.321394,-.321394,1.383022,0.0*
1,1,.1524,-.321394,1.383022*
20,1,.1524,-.321394,1.383022,-.25,1.433013,0.0*
1,1,.1524,-.25,1.433013*
20,1,.1524,-.25,1.433013,-.17101,1.469846,0.0*
1,1,.1524,-.17101,1.469846*
20,1,.1524,-.17101,1.469846,-.086824,1.492404,0.0*
1,1,.1524,-.086824,1.492404*
20,1,.1524,-.086824,1.492404,0.0,1.5,0.0*
1,1,.1524,0.0,1.5*
20,1,.1524,0.0,1.5,.086824,1.492404,0.0*
1,1,.1524,.086824,1.492404*
20,1,.1524,.086824,1.492404,.17101,1.469846,0.0*
1,1,.1524,.17101,1.469846*
20,1,.1524,.17101,1.469846,.25,1.433013,0.0*
1,1,.1524,.25,1.433013*
20,1,.1524,.25,1.433013,.321394,1.383022,0.0*
1,1,.1524,.321394,1.383022*
20,1,.1524,.321394,1.383022,.383022,1.321394,0.0*
1,1,.1524,.383022,1.321394*
20,1,.1524,.383022,1.321394,.433013,1.25,0.0*
1,1,.1524,.433013,1.25*
20,1,.1524,.433013,1.25,.469846,1.17101,0.0*
1,1,.1524,.469846,1.17101*
20,1,.1524,.469846,1.17101,.492404,1.086824,0.0*
1,1,.1524,.492404,1.086824*
20,1,.1524,.492404,1.086824,.5,1.,0.0*
1,1,.1524,.5,1.*
20,1,.1524,.5,1.,.5,-1.,0.0*
1,1,.1524,.5,-1.*
20,1,.1524,.5,-1.,.492404,-1.086824,0.0*
1,1,.1524,.492404,-1.086824*
20,1,.1524,.492404,-1.086824,.469846,-1.17101,0.0*
1,1,.1524,.469846,-1.17101*
20,1,.1524,.469846,-1.17101,.433013,-1.25,0.0*
1,1,.1524,.433013,-1.25*
20,1,.1524,.433013,-1.25,.383022,-1.321394,0.0*
1,1,.1524,.383022,-1.321394*
20,1,.1524,.383022,-1.321394,.321394,-1.383022,0.0*
1,1,.1524,.321394,-1.383022*
20,1,.1524,.321394,-1.383022,.25,-1.433013,0.0*
1,1,.1524,.25,-1.433013*
20,1,.1524,.25,-1.433013,.17101,-1.469846,0.0*
1,1,.1524,.17101,-1.469846*
20,1,.1524,.17101,-1.469846,.086824,-1.492404,0.0*
1,1,.1524,.086824,-1.492404*
20,1,.1524,.086824,-1.492404,0.0,-1.5,0.0*
1,1,.1524,0.0,-1.5*
20,1,.1524,0.0,-1.5,-.086824,-1.492404,0.0*
1,1,.1524,-.086824,-1.492404*
20,1,.1524,-.086824,-1.492404,-.17101,-1.469846,0.0*
1,1,.1524,-.17101,-1.469846*
20,1,.1524,-.17101,-1.469846,-.25,-1.433013,0.0*
1,1,.1524,-.25,-1.433013*
20,1,.1524,-.25,-1.433013,-.321394,-1.383022,0.0*
1,1,.1524,-.321394,-1.383022*
20,1,.1524,-.321394,-1.383022,-.383022,-1.321394,0.0*
1,1,.1524,-.383022,-1.321394*
20,1,.1524,-.383022,-1.321394,-.433013,-1.25,0.0*
1,1,.1524,-.433013,-1.25*
20,1,.1524,-.433013,-1.25,-.469846,-1.17101,0.0*
1,1,.1524,-.469846,-1.17101*
20,1,.1524,-.469846,-1.17101,-.492404,-1.086824,0.0*
1,1,.1524,-.492404,-1.086824*
20,1,.1524,-.492404,-1.086824,-.5,-1.,0.0*
1,1,.1524,-.5,-1.*
1,1,.1524,-.25,-.25*
20,1,.1524,-.25,-.25,-.3167,-.2417,0.0*
1,1,.1524,-.3167,-.2417*
20,1,.1524,-.3167,-.2417,-.375,-.2083,0.0*
1,1,.1524,-.375,-.2083*
20,1,.1524,-.375,-.2083,-.425,-.1583,0.0*
1,1,.1524,-.425,-.1583*
20,1,.1524,-.425,-.1583,-.4583,-.1,0.0*
1,1,.1524,-.4583,-.1*
20,1,.1524,-.4583,-.1,-.475,-.0333,0.0*
1,1,.1524,-.475,-.0333*
20,1,.1524,-.475,-.0333,-.475,.0333,0.0*
1,1,.1524,-.475,.0333*
20,1,.1524,-.475,.0333,-.4583,.1,0.0*
1,1,.1524,-.4583,.1*
20,1,.1524,-.4583,.1,-.425,.1583,0.0*
1,1,.1524,-.425,.1583*
20,1,.1524,-.425,.1583,-.375,.2083,0.0*
1,1,.1524,-.375,.2083*
20,1,.1524,-.375,.2083,-.3167,.2417,0.0*
1,1,.1524,-.3167,.2417*
20,1,.1524,-.3167,.2417,-.25,.25,0.0*
1,1,.1524,-.25,.25*
20,1,.1524,-.25,.25,-.1833,.2417,0.0*
1,1,.1524,-.1833,.2417*
20,1,.1524,-.1833,.2417,-.125,.2083,0.0*
1,1,.1524,-.125,.2083*
20,1,.1524,-.125,.2083,-.075,.1583,0.0*
1,1,.1524,-.075,.1583*
20,1,.1524,-.075,.1583,-.0417,.1,0.0*
1,1,.1524,-.0417,.1*
20,1,.1524,-.0417,.1,-.025,.0333,0.0*
1,1,.1524,-.025,.0333*
20,1,.1524,-.025,.0333,-.025,-.0333,0.0*
1,1,.1524,-.025,-.0333*
20,1,.1524,-.025,-.0333,-.0417,-.1,0.0*
1,1,.1524,-.0417,-.1*
20,1,.1524,-.0417,-.1,-.075,-.1583,0.0*
1,1,.1524,-.075,-.1583*
20,1,.1524,-.075,-.1583,-.125,-.2083,0.0*
1,1,.1524,-.125,-.2083*
20,1,.1524,-.125,-.2083,-.1833,-.2417,0.0*
1,1,.1524,-.1833,-.2417*
20,1,.1524,-.1833,-.2417,-.25,-.25,0.0*
1,1,.1524,-.25,-.25*
1,1,.1524,.0418,-.25*
20,1,.1524,.0418,-.25,.2501,.25,0.0*
1,1,.1524,.2501,.25*
20,1,.1524,.2501,.25,.4584,-.25,0.0*
1,1,.1524,.4584,-.25*
1,1,.1524,.3834,-.075*
20,1,.1524,.3834,-.075,.1168,-.075,0.0*
1,1,.1524,.1168,-.075*
%
%ADD16MACRO16*%
%AMMACRO15*
1,1,.1524,-1.,.5*
20,1,.1524,-1.,.5,1.,.5,0.0*
1,1,.1524,1.,.5*
20,1,.1524,1.,.5,1.086824,.492404,0.0*
1,1,.1524,1.086824,.492404*
20,1,.1524,1.086824,.492404,1.17101,.469846,0.0*
1,1,.1524,1.17101,.469846*
20,1,.1524,1.17101,.469846,1.25,.433013,0.0*
1,1,.1524,1.25,.433013*
20,1,.1524,1.25,.433013,1.321394,.383022,0.0*
1,1,.1524,1.321394,.383022*
20,1,.1524,1.321394,.383022,1.383022,.321394,0.0*
1,1,.1524,1.383022,.321394*
20,1,.1524,1.383022,.321394,1.433013,.25,0.0*
1,1,.1524,1.433013,.25*
20,1,.1524,1.433013,.25,1.469846,.17101,0.0*
1,1,.1524,1.469846,.17101*
20,1,.1524,1.469846,.17101,1.492404,.086824,0.0*
1,1,.1524,1.492404,.086824*
20,1,.1524,1.492404,.086824,1.5,0.0,0.0*
1,1,.1524,1.5,0.0*
20,1,.1524,1.5,0.0,1.492404,-.086824,0.0*
1,1,.1524,1.492404,-.086824*
20,1,.1524,1.492404,-.086824,1.469846,-.17101,0.0*
1,1,.1524,1.469846,-.17101*
20,1,.1524,1.469846,-.17101,1.433013,-.25,0.0*
1,1,.1524,1.433013,-.25*
20,1,.1524,1.433013,-.25,1.383022,-.321394,0.0*
1,1,.1524,1.383022,-.321394*
20,1,.1524,1.383022,-.321394,1.321394,-.383022,0.0*
1,1,.1524,1.321394,-.383022*
20,1,.1524,1.321394,-.383022,1.25,-.433013,0.0*
1,1,.1524,1.25,-.433013*
20,1,.1524,1.25,-.433013,1.17101,-.469846,0.0*
1,1,.1524,1.17101,-.469846*
20,1,.1524,1.17101,-.469846,1.086824,-.492404,0.0*
1,1,.1524,1.086824,-.492404*
20,1,.1524,1.086824,-.492404,1.,-.5,0.0*
1,1,.1524,1.,-.5*
20,1,.1524,1.,-.5,-1.,-.5,0.0*
1,1,.1524,-1.,-.5*
20,1,.1524,-1.,-.5,-1.086824,-.492404,0.0*
1,1,.1524,-1.086824,-.492404*
20,1,.1524,-1.086824,-.492404,-1.17101,-.469846,0.0*
1,1,.1524,-1.17101,-.469846*
20,1,.1524,-1.17101,-.469846,-1.25,-.433013,0.0*
1,1,.1524,-1.25,-.433013*
20,1,.1524,-1.25,-.433013,-1.321394,-.383022,0.0*
1,1,.1524,-1.321394,-.383022*
20,1,.1524,-1.321394,-.383022,-1.383022,-.321394,0.0*
1,1,.1524,-1.383022,-.321394*
20,1,.1524,-1.383022,-.321394,-1.433013,-.25,0.0*
1,1,.1524,-1.433013,-.25*
20,1,.1524,-1.433013,-.25,-1.469846,-.17101,0.0*
1,1,.1524,-1.469846,-.17101*
20,1,.1524,-1.469846,-.17101,-1.492404,-.086824,0.0*
1,1,.1524,-1.492404,-.086824*
20,1,.1524,-1.492404,-.086824,-1.5,0.0,0.0*
1,1,.1524,-1.5,0.0*
20,1,.1524,-1.5,0.0,-1.492404,.086824,0.0*
1,1,.1524,-1.492404,.086824*
20,1,.1524,-1.492404,.086824,-1.469846,.17101,0.0*
1,1,.1524,-1.469846,.17101*
20,1,.1524,-1.469846,.17101,-1.433013,.25,0.0*
1,1,.1524,-1.433013,.25*
20,1,.1524,-1.433013,.25,-1.383022,.321394,0.0*
1,1,.1524,-1.383022,.321394*
20,1,.1524,-1.383022,.321394,-1.321394,.383022,0.0*
1,1,.1524,-1.321394,.383022*
20,1,.1524,-1.321394,.383022,-1.25,.433013,0.0*
1,1,.1524,-1.25,.433013*
20,1,.1524,-1.25,.433013,-1.17101,.469846,0.0*
1,1,.1524,-1.17101,.469846*
20,1,.1524,-1.17101,.469846,-1.086824,.492404,0.0*
1,1,.1524,-1.086824,.492404*
20,1,.1524,-1.086824,.492404,-1.,.5,0.0*
1,1,.1524,-1.,.5*
1,1,.1524,-.25,-.25*
20,1,.1524,-.25,-.25,-.3167,-.2417,0.0*
1,1,.1524,-.3167,-.2417*
20,1,.1524,-.3167,-.2417,-.375,-.2083,0.0*
1,1,.1524,-.375,-.2083*
20,1,.1524,-.375,-.2083,-.425,-.1583,0.0*
1,1,.1524,-.425,-.1583*
20,1,.1524,-.425,-.1583,-.4583,-.1,0.0*
1,1,.1524,-.4583,-.1*
20,1,.1524,-.4583,-.1,-.475,-.0333,0.0*
1,1,.1524,-.475,-.0333*
20,1,.1524,-.475,-.0333,-.475,.0333,0.0*
1,1,.1524,-.475,.0333*
20,1,.1524,-.475,.0333,-.4583,.1,0.0*
1,1,.1524,-.4583,.1*
20,1,.1524,-.4583,.1,-.425,.1583,0.0*
1,1,.1524,-.425,.1583*
20,1,.1524,-.425,.1583,-.375,.2083,0.0*
1,1,.1524,-.375,.2083*
20,1,.1524,-.375,.2083,-.3167,.2417,0.0*
1,1,.1524,-.3167,.2417*
20,1,.1524,-.3167,.2417,-.25,.25,0.0*
1,1,.1524,-.25,.25*
20,1,.1524,-.25,.25,-.1833,.2417,0.0*
1,1,.1524,-.1833,.2417*
20,1,.1524,-.1833,.2417,-.125,.2083,0.0*
1,1,.1524,-.125,.2083*
20,1,.1524,-.125,.2083,-.075,.1583,0.0*
1,1,.1524,-.075,.1583*
20,1,.1524,-.075,.1583,-.0417,.1,0.0*
1,1,.1524,-.0417,.1*
20,1,.1524,-.0417,.1,-.025,.0333,0.0*
1,1,.1524,-.025,.0333*
20,1,.1524,-.025,.0333,-.025,-.0333,0.0*
1,1,.1524,-.025,-.0333*
20,1,.1524,-.025,-.0333,-.0417,-.1,0.0*
1,1,.1524,-.0417,-.1*
20,1,.1524,-.0417,-.1,-.075,-.1583,0.0*
1,1,.1524,-.075,-.1583*
20,1,.1524,-.075,-.1583,-.125,-.2083,0.0*
1,1,.1524,-.125,-.2083*
20,1,.1524,-.125,-.2083,-.1833,-.2417,0.0*
1,1,.1524,-.1833,-.2417*
20,1,.1524,-.1833,-.2417,-.25,-.25,0.0*
1,1,.1524,-.25,-.25*
1,1,.1524,.0418,-.25*
20,1,.1524,.0418,-.25,.2501,.25,0.0*
1,1,.1524,.2501,.25*
20,1,.1524,.2501,.25,.4584,-.25,0.0*
1,1,.1524,.4584,-.25*
1,1,.1524,.3834,-.075*
20,1,.1524,.3834,-.075,.1168,-.075,0.0*
1,1,.1524,.1168,-.075*
%
%ADD15MACRO15*%
%AMMACRO18*
1,1,.1524,.4,0.0*
20,1,.1524,.4,0.0,.2,.34641,0.0*
1,1,.1524,.2,.34641*
20,1,.1524,.2,.34641,-.2,.34641,0.0*
1,1,.1524,-.2,.34641*
20,1,.1524,-.2,.34641,-.4,0.0,0.0*
1,1,.1524,-.4,0.0*
20,1,.1524,-.4,0.0,-.2,-.34641,0.0*
1,1,.1524,-.2,-.34641*
20,1,.1524,-.2,-.34641,.2,-.34641,0.0*
1,1,.1524,.2,-.34641*
20,1,.1524,.2,-.34641,.4,0.0,0.0*
1,1,.1524,.4,0.0*
%
%ADD18MACRO18*%
%AMMACRO19*
1,1,.1524,0.0,.45*
20,1,.1524,0.0,.45,-.389711,.225,0.0*
1,1,.1524,-.389711,.225*
20,1,.1524,-.389711,.225,-.389711,-.225,0.0*
1,1,.1524,-.389711,-.225*
20,1,.1524,-.389711,-.225,0.0,-.45,0.0*
1,1,.1524,0.0,-.45*
20,1,.1524,0.0,-.45,.389711,-.225,0.0*
1,1,.1524,.389711,-.225*
20,1,.1524,.389711,-.225,.389711,.225,0.0*
1,1,.1524,.389711,.225*
20,1,.1524,.389711,.225,0.0,.45,0.0*
1,1,.1524,0.0,.45*
%
%ADD19MACRO19*%
%AMMACRO21*
1,1,.1524,.207107,-.5*
20,1,.1524,.207107,-.5,-.207107,-.5,0.0*
1,1,.1524,-.207107,-.5*
20,1,.1524,-.207107,-.5,-.5,-.207107,0.0*
1,1,.1524,-.5,-.207107*
20,1,.1524,-.5,-.207107,-.5,.207107,0.0*
1,1,.1524,-.5,.207107*
20,1,.1524,-.5,.207107,-.207107,.5,0.0*
1,1,.1524,-.207107,.5*
20,1,.1524,-.207107,.5,.207107,.5,0.0*
1,1,.1524,.207107,.5*
20,1,.1524,.207107,.5,.5,.207107,0.0*
1,1,.1524,.5,.207107*
20,1,.1524,.5,.207107,.5,-.207107,0.0*
1,1,.1524,.5,-.207107*
20,1,.1524,.5,-.207107,.207107,-.5,0.0*
1,1,.1524,.207107,-.5*
%
%ADD21MACRO21*%
%ADD23C,.1524*%
G75*
%LPD*%
G75*
G54D10*
X320000Y320000D03*
Y950000D03*
Y8050000D03*
Y8680000D03*
X7500000Y320000D03*
X9150000Y8680000D03*
X14680000Y320000D03*
Y950000D03*
Y8050000D03*
Y8680000D03*
X17101730Y1302500D03*
G54D11*
X165000Y1670000D03*
Y2170000D03*
Y2950000D03*
Y3450000D03*
Y4230000D03*
Y4730000D03*
Y5510000D03*
Y6010000D03*
X1415000Y1670000D03*
Y2170000D03*
Y2950000D03*
Y3450000D03*
Y4230000D03*
Y4730000D03*
Y5510000D03*
Y6010000D03*
X17101730Y3207500D03*
G54D20*
X10290000Y7260000D03*
X9870000D03*
X10290000Y7810000D03*
X9870000D03*
X10710000Y7260000D03*
Y7810000D03*
X11130000Y7260000D03*
Y7810000D03*
X17101730Y1937500D03*
G54D21*
X11880000Y8300000D03*
X12180000D03*
X12480000D03*
X13080000D03*
X12780000D03*
X13680000D03*
X13380000D03*
X13980000D03*
X17101730Y5112500D03*
G54D12*
X164990Y7108290D03*
X540000Y6620000D03*
X620000D03*
Y6540000D03*
X540000D03*
X664990Y7108290D03*
X1246800Y270200D03*
X1164990Y7108290D03*
X840000Y7160000D03*
X1174990Y7898290D03*
X1746800Y270200D03*
X1664990Y7108290D03*
X1674990Y7898290D03*
X2246800Y270200D03*
X2228050Y1720280D03*
X2174990Y4888290D03*
X2154990Y5418290D03*
Y5918290D03*
X2164990Y7108290D03*
X2174990Y7898290D03*
X2746800Y270200D03*
X2728050Y1720280D03*
X2476430Y2606990D03*
X2308050Y3520280D03*
Y4020280D03*
X2674990Y4888290D03*
X2654990Y5418290D03*
Y5918290D03*
X2664990Y7108290D03*
X2674990Y7898290D03*
X3246800Y270200D03*
X2976430Y2606990D03*
X2808050Y3520280D03*
Y4020280D03*
X3174990Y4888290D03*
X3154990Y5418290D03*
Y5918290D03*
X3284990Y7228290D03*
Y7728290D03*
X3715000Y1615000D03*
X3298050Y2220280D03*
X3765000Y1935000D03*
X3615000D03*
X3476430Y2606990D03*
X3308050Y3520280D03*
Y4020280D03*
X3674990Y4888290D03*
X3654990Y5418290D03*
Y5918290D03*
X3694990Y7208290D03*
Y7708290D03*
X3879520Y683470D03*
X3815000Y1615000D03*
X3798050Y2220280D03*
X3865000Y1935000D03*
X3976430Y2606990D03*
X3808050Y3520280D03*
Y4020280D03*
X4174990Y4888290D03*
X4154990Y5418290D03*
Y5918290D03*
X4379520Y683470D03*
X4300000Y1800000D03*
X4460000D03*
X4308050Y3520280D03*
Y4020280D03*
X4674990Y4888290D03*
X4654990Y5418290D03*
Y5918290D03*
X4354020Y6852000D03*
Y7352000D03*
Y7852000D03*
X4879520Y683470D03*
X4810000Y2350000D03*
X4808050Y2960280D03*
Y3520280D03*
Y4020280D03*
X4945000Y5145000D03*
X5154990Y5418290D03*
Y5918290D03*
X5379520Y683470D03*
X5360000Y1750000D03*
X5290000D03*
X5508050Y1990280D03*
Y2220280D03*
X5290000Y1830000D03*
X5360000D03*
X5308050Y2960280D03*
Y3520280D03*
Y4020280D03*
X5540000Y4460000D03*
X5755000Y4345000D03*
X5290000Y5320000D03*
X5486700Y7117310D03*
Y7617310D03*
X5635000Y8475000D03*
X6090000Y1105000D03*
X6008050Y1990280D03*
Y2220280D03*
X6260000Y3680000D03*
X6050000D03*
X6110000Y4100000D03*
X5915000Y3905000D03*
X5940040Y4980040D03*
X6135000Y5685000D03*
X6240000Y5880000D03*
X5820000Y8390000D03*
X6560000Y1110000D03*
Y1990000D03*
X6630000Y3190000D03*
X6588050Y2940280D03*
X6700000Y3650000D03*
X6540000Y3690000D03*
X6270000Y4100000D03*
X6750000Y6770000D03*
X6415000Y6825000D03*
X6343870Y7408130D03*
Y7908130D03*
X6760000Y3190000D03*
X7088050Y2940280D03*
X7020000Y3700000D03*
X7240000Y3815000D03*
X6974420Y4154420D03*
X6924420Y4414420D03*
X7024420Y4415580D03*
X7090040Y4480040D03*
Y4630040D03*
Y4730040D03*
X7100000Y5150000D03*
X6899960Y5180040D03*
X6900000Y5010000D03*
X6760000Y5080040D03*
X7100000Y4930000D03*
Y5590000D03*
X6820000Y6080000D03*
X7100000Y5870000D03*
X6845000Y6525000D03*
X7110000Y6620000D03*
Y6770000D03*
Y6920000D03*
X7450000Y4600000D03*
X7620000Y5140000D03*
X7635000Y5595000D03*
X7710000Y6070000D03*
Y5930000D03*
X7690000Y6460000D03*
X7280000Y6350000D03*
X7718290Y7315010D03*
X7915900Y136890D03*
Y736890D03*
Y536890D03*
Y336890D03*
X7976550Y2367180D03*
Y2867180D03*
Y3367180D03*
Y3867180D03*
X7980000Y4400000D03*
X7870000Y4680040D03*
X8170000Y5130000D03*
X7870000Y4830040D03*
X8170000Y5460000D03*
X7930000Y5953500D03*
X8120000Y6340000D03*
X7970000Y6960000D03*
X8134990Y7748290D03*
X8218290Y7315010D03*
X8134990Y8248290D03*
X8285900Y136890D03*
Y336890D03*
Y536890D03*
X8746890Y1394100D03*
X9146890D03*
X8946890D03*
X8790000Y5120000D03*
Y5450000D03*
Y6330000D03*
X9018290Y7965010D03*
X9723110Y285900D03*
X9523110D03*
X9323110D03*
X9723110Y85900D03*
X9523110D03*
X9323110D03*
X9680000Y760000D03*
X9460000D03*
X9570000D03*
X9396890Y994100D03*
X9596890D03*
X9680000Y840000D03*
X9460000D03*
X9570000D03*
X9440000Y3570000D03*
X9735900Y4506890D03*
Y4706890D03*
Y5106890D03*
Y4906890D03*
Y5696890D03*
Y5496890D03*
Y5296890D03*
X9518290Y7965010D03*
X9629670Y8739800D03*
X9923110Y285900D03*
Y85900D03*
X9800000Y760000D03*
X10035900Y996890D03*
Y1196890D03*
X9796890Y994100D03*
X9800000Y840000D03*
X10035900Y1396890D03*
X9864350Y2214100D03*
Y2714100D03*
X10230000Y4700000D03*
X10200000Y4565000D03*
X9935900Y5106890D03*
X10150000Y5110000D03*
X9970000Y4950000D03*
X9935900Y5496890D03*
Y5696890D03*
Y5296890D03*
X10150000Y5700000D03*
Y5880000D03*
X9935900Y5876890D03*
X10110000Y7960000D03*
X10129670Y8739800D03*
X10365900Y86890D03*
Y286890D03*
Y486890D03*
X10364350Y2214100D03*
Y2714100D03*
X10680000Y4120000D03*
X10300000D03*
X10610000Y4700000D03*
X10680000Y4360000D03*
X10300000D03*
X10575000Y4565000D03*
X10650000Y4950000D03*
X10350000D03*
X10630000Y5690000D03*
X10510000Y6360000D03*
X10350000Y6530000D03*
X10420000D03*
X10350000Y6600000D03*
X10420000D03*
X10350000Y6680000D03*
X10420000D03*
X10350000Y6750000D03*
X10420000D03*
X10600000D03*
X10530000D03*
X10629670Y8739800D03*
X10846890Y1394100D03*
X11046890D03*
X10950000Y2460000D03*
X11045000Y2655000D03*
X10780000Y2970000D03*
X11200000Y3285000D03*
X10735000Y3215000D03*
X11060000Y3780000D03*
X11200000Y3390000D03*
X10820000Y3480000D03*
X11060000D03*
Y4240000D03*
Y4480000D03*
X10970000Y4565000D03*
Y4890000D03*
X10750000Y5200000D03*
X10860000Y5090000D03*
X10880000Y5690000D03*
X10890000Y6210000D03*
X11120000Y5950000D03*
X11443110Y95900D03*
X11643110D03*
Y295900D03*
X11443110D03*
X11570000Y770000D03*
X11680000D03*
X11466890Y984100D03*
X11666890D03*
X11570000Y850000D03*
X11680000D03*
X11246890Y1394100D03*
X11400000Y2510000D03*
X11555000Y2690000D03*
X11560000Y3285000D03*
X11230000Y3780000D03*
X11480000Y3390000D03*
X11641700Y3478300D03*
X11640000Y3570000D03*
X11360000D03*
X11650000Y4060000D03*
X11500000D03*
X11510000Y4430000D03*
X11557250Y4710000D03*
X11400000Y5010000D03*
X11305000Y5695000D03*
X11520000Y5690000D03*
X11390000Y6290000D03*
X11540000Y6730000D03*
X11470000D03*
X11390000D03*
X11320000D03*
Y6560000D03*
Y6630000D03*
X11843110Y95900D03*
Y295900D03*
X12043110Y95900D03*
Y295900D03*
X11790000Y770000D03*
X11910000D03*
X12125900Y1026890D03*
Y1226890D03*
X11790000Y850000D03*
X11910000D03*
X12125900Y1426890D03*
X11790000Y2510000D03*
X12010000Y2730000D03*
X11915000Y2690000D03*
X11920000Y3285000D03*
X12040000Y3690000D03*
X11830000Y3440000D03*
X11920000Y3570000D03*
X12040000Y4170000D03*
X11830000Y4060000D03*
X12150000Y4730000D03*
X11880000Y5690000D03*
X11780000Y6200000D03*
X11880000Y5775000D03*
X12140000Y5780000D03*
X12475900Y96890D03*
Y296890D03*
Y496890D03*
X12532780Y2351860D03*
X12710000Y3690000D03*
Y4100000D03*
X12522500D03*
Y4730000D03*
Y4467500D03*
X12652500Y4730000D03*
X12260000Y5020000D03*
X12587500Y5037500D03*
X12350000Y5030000D03*
X12405000Y5775000D03*
X12300000Y6560000D03*
Y6630000D03*
X12370000Y6730000D03*
X12300000D03*
X12520000D03*
X12450000D03*
X12936890Y1394100D03*
X13136890D03*
X13032780Y2351860D03*
X12716440Y3068210D03*
Y3418210D03*
X13030000Y3690000D03*
X13031600Y3911600D03*
X13042500Y4122500D03*
X12870000Y4430000D03*
X12912500Y4730000D03*
X12782500D03*
X12977500Y4430000D03*
X12717500Y5037500D03*
X12760000Y5690000D03*
X12990000Y5780000D03*
X12971550Y7581580D03*
X13553110Y95900D03*
Y295900D03*
X13660000Y780000D03*
Y860000D03*
X13336890Y1394100D03*
X13532780Y2351860D03*
X13216440Y3068210D03*
Y3418210D03*
X13522590Y4663140D03*
Y5163140D03*
Y5663140D03*
Y6663140D03*
X13471550Y7581580D03*
X13753110Y95900D03*
X13953110D03*
Y295900D03*
X13753110D03*
X14153110Y95900D03*
Y295900D03*
X14000000Y780000D03*
X13880000D03*
X13770000D03*
X13746890Y994100D03*
X13946890D03*
X14000000Y860000D03*
X13880000D03*
X13770000D03*
X13971550Y7581580D03*
X14583830Y1724280D03*
Y2224280D03*
Y2724280D03*
Y3224280D03*
Y3724280D03*
Y4224280D03*
Y4724280D03*
Y5224280D03*
Y5724280D03*
Y6224280D03*
Y6724280D03*
Y7224280D03*
X17101730Y7652500D03*
G54D13*
X1159000Y760000D03*
X1921000D03*
X4165000Y163000D03*
X5495000D03*
X14837000Y1425000D03*
Y2755000D03*
Y4405000D03*
Y5735000D03*
Y6115000D03*
Y7445000D03*
X17101730Y3842500D03*
G54D22*
X14060000Y3320000D03*
Y3570000D03*
Y3820000D03*
X17101730Y7017500D03*
G54D23*
G01X-2915550Y3566970D02*
X-2898960Y3551100D01*
X-2879990Y3544750D01*
X-2861030Y3551100D01*
X-2844430Y3570140D01*
X-2832580Y3598730D01*
X-2827840Y3627300D01*
Y3662220D01*
X-2832580Y3690800D01*
X-2844430Y3716200D01*
X-2858660Y3728900D01*
X-2875250Y3735250D01*
X-2894220Y3728900D01*
X-2908440Y3716200D01*
X-2917920Y3697150D01*
X-2922660Y3671750D01*
X-2917920Y3649530D01*
X-2906070Y3627300D01*
X-2891840Y3614600D01*
X-2875250Y3611420D01*
X-2856290Y3617770D01*
X-2842060Y3633650D01*
X-2827840Y3662220D01*
G01X-2684750Y3735250D02*
X-2703720Y3728900D01*
X-2717940Y3713020D01*
X-2727420Y3693980D01*
X-2734530Y3668570D01*
X-2736900Y3640000D01*
X-2734530Y3611420D01*
X-2727420Y3586020D01*
X-2717940Y3566970D01*
X-2703720Y3551100D01*
X-2684750Y3544750D01*
X-2665790Y3551100D01*
X-2651560Y3566970D01*
X-2642080Y3586020D01*
X-2634970Y3611420D01*
X-2632600Y3640000D01*
X-2634970Y3668570D01*
X-2642080Y3693980D01*
X-2651560Y3713020D01*
X-2665790Y3728900D01*
X-2684750Y3735250D01*
G01X-2435750Y2964750D02*
X-2419160Y2967920D01*
X-2400190Y2977450D01*
X-2388340Y2993320D01*
X-2383600Y3015550D01*
X-2388340Y3037770D01*
X-2402560Y3056820D01*
X-2423900Y3066350D01*
X-2447600D01*
X-2461830Y3072700D01*
X-2473680Y3088570D01*
X-2478420Y3110800D01*
X-2471310Y3133020D01*
X-2454720Y3148900D01*
X-2435750Y3155250D01*
X-2416790Y3148900D01*
X-2400190Y3133020D01*
X-2393080Y3110800D01*
X-2397820Y3088570D01*
X-2409670Y3072700D01*
X-2423900Y3066350D01*
X-2447600D01*
X-2468940Y3056820D01*
X-2483160Y3037770D01*
X-2487900Y3015550D01*
X-2483160Y2993320D01*
X-2471310Y2977450D01*
X-2452340Y2967920D01*
X-2435750Y2964750D01*
G01X-2290290Y3044120D02*
X-2273700Y3066350D01*
X-2259470Y3079050D01*
X-2240510Y3085400D01*
X-2223910Y3079050D01*
X-2212060Y3066350D01*
X-2202580Y3047300D01*
X-2200210Y3025070D01*
X-2202580Y3006020D01*
X-2212060Y2986970D01*
X-2226290Y2971100D01*
X-2242880Y2964750D01*
X-2261840Y2971100D01*
X-2278440Y2990140D01*
X-2287920Y3018730D01*
X-2290290Y3050470D01*
X-2285550Y3091750D01*
X-2278440Y3113980D01*
X-2266590Y3136200D01*
X-2249990Y3152080D01*
X-2233400Y3155250D01*
X-2216800Y3148900D01*
X-2204950Y3133020D01*
G01X-2054750Y2958400D02*
X-2059490Y2961580D01*
Y2967920D01*
X-2054750Y2971100D01*
X-2050010Y2967920D01*
Y2961580D01*
X-2054750Y2958400D01*
G01X-1864250Y2964750D02*
X-1847660Y2967920D01*
X-1828690Y2977450D01*
X-1816840Y2993320D01*
X-1812100Y3015550D01*
X-1816840Y3037770D01*
X-1831060Y3056820D01*
X-1852400Y3066350D01*
X-1876100D01*
X-1890330Y3072700D01*
X-1902180Y3088570D01*
X-1906920Y3110800D01*
X-1899810Y3133020D01*
X-1883220Y3148900D01*
X-1864250Y3155250D01*
X-1845290Y3148900D01*
X-1828690Y3133020D01*
X-1821580Y3110800D01*
X-1826320Y3088570D01*
X-1838170Y3072700D01*
X-1852400Y3066350D01*
X-1876100D01*
X-1897440Y3056820D01*
X-1911660Y3037770D01*
X-1916400Y3015550D01*
X-1911660Y2993320D01*
X-1899810Y2977450D01*
X-1880840Y2967920D01*
X-1864250Y2964750D01*
G01X-1755750Y2254750D02*
X-1739160Y2257920D01*
X-1720190Y2267450D01*
X-1708340Y2283320D01*
X-1703600Y2305550D01*
X-1708340Y2327770D01*
X-1722560Y2346820D01*
X-1743900Y2356350D01*
X-1767600D01*
X-1781830Y2362700D01*
X-1793680Y2378570D01*
X-1798420Y2400800D01*
X-1791310Y2423020D01*
X-1774720Y2438900D01*
X-1755750Y2445250D01*
X-1736790Y2438900D01*
X-1720190Y2423020D01*
X-1713080Y2400800D01*
X-1717820Y2378570D01*
X-1729670Y2362700D01*
X-1743900Y2356350D01*
X-1767600D01*
X-1788940Y2346820D01*
X-1803160Y2327770D01*
X-1807900Y2305550D01*
X-1803160Y2283320D01*
X-1791310Y2267450D01*
X-1772340Y2257920D01*
X-1755750Y2254750D01*
G01X-1565250Y2445250D02*
X-1584220Y2438900D01*
X-1598440Y2423020D01*
X-1607920Y2403980D01*
X-1615030Y2378570D01*
X-1617400Y2350000D01*
X-1615030Y2321420D01*
X-1607920Y2296020D01*
X-1598440Y2276970D01*
X-1584220Y2261100D01*
X-1565250Y2254750D01*
X-1546290Y2261100D01*
X-1532060Y2276970D01*
X-1522580Y2296020D01*
X-1515470Y2321420D01*
X-1513100Y2350000D01*
X-1515470Y2378570D01*
X-1522580Y2403980D01*
X-1532060Y2423020D01*
X-1546290Y2438900D01*
X-1565250Y2445250D01*
G01X-1374750Y2248400D02*
X-1379490Y2251580D01*
Y2257920D01*
X-1374750Y2261100D01*
X-1370010Y2257920D01*
Y2251580D01*
X-1374750Y2248400D01*
G01X-1236400Y2283320D02*
X-1222180Y2267450D01*
X-1205590Y2257920D01*
X-1184250Y2254750D01*
X-1162910Y2261100D01*
X-1146320Y2273800D01*
X-1134470Y2296020D01*
X-1132100Y2321420D01*
X-1136840Y2346820D01*
X-1148690Y2362700D01*
X-1165290Y2375400D01*
X-1181880Y2378570D01*
X-1198470Y2375400D01*
X-1219810Y2362700D01*
X-1212700Y2445250D01*
X-1148690D01*
G01X-1350800Y1296970D02*
X-1334210Y1281100D01*
X-1315240Y1274750D01*
X-1296280Y1281100D01*
X-1279680Y1300140D01*
X-1267830Y1328730D01*
X-1263090Y1357300D01*
Y1392220D01*
X-1267830Y1420800D01*
X-1279680Y1446200D01*
X-1293910Y1458900D01*
X-1310500Y1465250D01*
X-1329470Y1458900D01*
X-1343690Y1446200D01*
X-1353170Y1427150D01*
X-1357910Y1401750D01*
X-1353170Y1379530D01*
X-1341320Y1357300D01*
X-1327090Y1344600D01*
X-1310500Y1341420D01*
X-1291540Y1347770D01*
X-1277310Y1363650D01*
X-1263090Y1392220D01*
G01X-1120000Y1268400D02*
X-1124740Y1271580D01*
Y1277920D01*
X-1120000Y1281100D01*
X-1115260Y1277920D01*
Y1271580D01*
X-1120000Y1268400D01*
G01X-981650Y1303320D02*
X-967430Y1287450D01*
X-950840Y1277920D01*
X-929500Y1274750D01*
X-908160Y1281100D01*
X-891570Y1293800D01*
X-879720Y1316020D01*
X-877350Y1341420D01*
X-882090Y1366820D01*
X-893940Y1382700D01*
X-910540Y1395400D01*
X-927130Y1398570D01*
X-943720Y1395400D01*
X-965060Y1382700D01*
X-957950Y1465250D01*
X-893940D01*
G01X-812650Y772850D02*
X-798430Y750620D01*
X-779470Y737920D01*
X-758130Y734750D01*
X-739160Y737920D01*
X-720200Y753800D01*
X-708350Y772850D01*
X-705980Y791900D01*
X-710720Y814120D01*
X-727310Y830000D01*
X-743910Y836350D01*
X-765240D01*
G01X-743910D02*
X-729680Y845870D01*
X-717830Y861750D01*
X-713090Y880800D01*
X-717830Y899850D01*
X-729680Y915720D01*
X-751020Y925250D01*
X-772350Y922080D01*
X-793690Y909370D01*
G01X-570000Y728400D02*
X-574740Y731580D01*
Y737920D01*
X-570000Y741100D01*
X-565260Y737920D01*
Y731580D01*
X-570000Y728400D01*
G01X-424540Y893500D02*
X-410320Y912550D01*
X-393720Y922080D01*
X-374760Y925250D01*
X-351050Y918900D01*
X-334460Y903020D01*
X-329720Y883980D01*
X-332090Y864920D01*
X-341570Y849050D01*
X-388980Y817300D01*
X-410320Y795070D01*
X-424540Y763320D01*
X-429280Y734750D01*
X-329720D01*
G01X947350Y-337150D02*
X961570Y-359380D01*
X980530Y-372080D01*
X1001870Y-375250D01*
X1020840Y-372080D01*
X1039800Y-356200D01*
X1051650Y-337150D01*
X1054020Y-318100D01*
X1049280Y-295880D01*
X1032690Y-280000D01*
X1016090Y-273650D01*
X994760D01*
G01X1016090D02*
X1030320Y-264130D01*
X1042170Y-248250D01*
X1046910Y-229200D01*
X1042170Y-210150D01*
X1030320Y-194280D01*
X1008980Y-184750D01*
X987650Y-187920D01*
X966310Y-200630D01*
G01X1190000Y-381600D02*
X1185260Y-378420D01*
Y-372080D01*
X1190000Y-368900D01*
X1194740Y-372080D01*
Y-378420D01*
X1190000Y-381600D01*
G01X1335460Y-216500D02*
X1349680Y-197450D01*
X1366280Y-187920D01*
X1385240Y-184750D01*
X1408950Y-191100D01*
X1425540Y-206980D01*
X1430280Y-226020D01*
X1427910Y-245080D01*
X1418430Y-260950D01*
X1371020Y-292700D01*
X1349680Y-314930D01*
X1335460Y-346680D01*
X1330720Y-375250D01*
X1430280D01*
G01X2020010Y-655250D02*
X2024750Y-613980D01*
X2031860Y-579050D01*
X2041340Y-547300D01*
X2053200Y-512380D01*
X2072160Y-464750D01*
X1977340D01*
G01X2163100Y-626680D02*
X2177320Y-642550D01*
X2193910Y-652080D01*
X2215250Y-655250D01*
X2236590Y-648900D01*
X2253180Y-636200D01*
X2265030Y-613980D01*
X2267400Y-588580D01*
X2262660Y-563180D01*
X2250810Y-547300D01*
X2234210Y-534600D01*
X2217620Y-531430D01*
X2201030Y-534600D01*
X2179690Y-547300D01*
X2186800Y-464750D01*
X2250810D01*
G01X2593950Y-1013030D02*
X2610540Y-1028900D01*
X2629510Y-1035250D01*
X2648470Y-1028900D01*
X2665070Y-1009860D01*
X2676920Y-981270D01*
X2681660Y-952700D01*
Y-917780D01*
X2676920Y-889200D01*
X2665070Y-863800D01*
X2650840Y-851100D01*
X2634250Y-844750D01*
X2615280Y-851100D01*
X2601060Y-863800D01*
X2591580Y-882850D01*
X2586840Y-908250D01*
X2591580Y-930470D01*
X2603430Y-952700D01*
X2617660Y-965400D01*
X2634250Y-968580D01*
X2653210Y-962230D01*
X2667440Y-946350D01*
X2681660Y-917780D01*
G01X2824750Y-1035250D02*
Y-844750D01*
X2796300Y-882850D01*
G01Y-1035250D02*
X2853190D01*
G01X3015250Y-1041600D02*
X3010510Y-1038420D01*
Y-1032080D01*
X3015250Y-1028900D01*
X3019990Y-1032080D01*
Y-1038420D01*
X3015250Y-1041600D01*
G01X3153600Y-1006680D02*
X3167820Y-1022550D01*
X3184410Y-1032080D01*
X3205750Y-1035250D01*
X3227090Y-1028900D01*
X3243680Y-1016200D01*
X3255530Y-993980D01*
X3257900Y-968580D01*
X3253160Y-943180D01*
X3241310Y-927300D01*
X3224710Y-914600D01*
X3208120Y-911430D01*
X3191530Y-914600D01*
X3170190Y-927300D01*
X3177300Y-844750D01*
X3241310D01*
G01X4759000Y-1365250D02*
Y-1174750D01*
X4730550Y-1212850D01*
G01Y-1365250D02*
X4787440D01*
G01X4977950D02*
Y-1174750D01*
X4890230Y-1311270D01*
X5008770D01*
G01X5094960Y-1285880D02*
X5111550Y-1263650D01*
X5125780Y-1250950D01*
X5144740Y-1244600D01*
X5161340Y-1250950D01*
X5173190Y-1263650D01*
X5182670Y-1282700D01*
X5185040Y-1304930D01*
X5182670Y-1323980D01*
X5173190Y-1343030D01*
X5158960Y-1358900D01*
X5142370Y-1365250D01*
X5123410Y-1358900D01*
X5106810Y-1339860D01*
X5097330Y-1311270D01*
X5094960Y-1279530D01*
X5099700Y-1238250D01*
X5106810Y-1216020D01*
X5118660Y-1193800D01*
X5135260Y-1177920D01*
X5151850Y-1174750D01*
X5168450Y-1181100D01*
X5180300Y-1196980D01*
G01X5330500Y-1371600D02*
X5325760Y-1368420D01*
Y-1362080D01*
X5330500Y-1358900D01*
X5335240Y-1362080D01*
Y-1368420D01*
X5330500Y-1371600D01*
G01X5521000Y-1365250D02*
X5537590Y-1362080D01*
X5556560Y-1352550D01*
X5568410Y-1336680D01*
X5573150Y-1314450D01*
X5568410Y-1292230D01*
X5554190Y-1273180D01*
X5532850Y-1263650D01*
X5509150D01*
X5494920Y-1257300D01*
X5483070Y-1241430D01*
X5478330Y-1219200D01*
X5485440Y-1196980D01*
X5502030Y-1181100D01*
X5521000Y-1174750D01*
X5539960Y-1181100D01*
X5556560Y-1196980D01*
X5563670Y-1219200D01*
X5558930Y-1241430D01*
X5547080Y-1257300D01*
X5532850Y-1263650D01*
X5509150D01*
X5487810Y-1273180D01*
X5473590Y-1292230D01*
X5468850Y-1314450D01*
X5473590Y-1336680D01*
X5485440Y-1352550D01*
X5504410Y-1362080D01*
X5521000Y-1365250D01*
G01X5859500Y-1835250D02*
Y-1644750D01*
X5831050Y-1682850D01*
G01Y-1835250D02*
X5887940D01*
G01X5997850Y-1806680D02*
X6012070Y-1822550D01*
X6028660Y-1832080D01*
X6050000Y-1835250D01*
X6071340Y-1828900D01*
X6087930Y-1816200D01*
X6099780Y-1793980D01*
X6102150Y-1768580D01*
X6097410Y-1743180D01*
X6085560Y-1727300D01*
X6068960Y-1714600D01*
X6052370Y-1711430D01*
X6035780Y-1714600D01*
X6014440Y-1727300D01*
X6021550Y-1644750D01*
X6085560D01*
G01X6240500D02*
X6221530Y-1651100D01*
X6207310Y-1666980D01*
X6197830Y-1686020D01*
X6190720Y-1711430D01*
X6188350Y-1740000D01*
X6190720Y-1768580D01*
X6197830Y-1793980D01*
X6207310Y-1813030D01*
X6221530Y-1828900D01*
X6240500Y-1835250D01*
X6259460Y-1828900D01*
X6273690Y-1813030D01*
X6283170Y-1793980D01*
X6290280Y-1768580D01*
X6292650Y-1740000D01*
X6290280Y-1711430D01*
X6283170Y-1686020D01*
X6273690Y-1666980D01*
X6259460Y-1651100D01*
X6240500Y-1644750D01*
G01X16239520Y8128750D02*
Y8446250D01*
X16389140D01*
G01X16334010Y8292800D02*
X16239520D01*
G01X16582050Y8446250D02*
X16676530D01*
G01X16629290D02*
Y8128750D01*
G01X16582050D02*
X16676530D01*
G01X16967870Y8287500D02*
X17046620D01*
Y8192250D01*
X17022990Y8160490D01*
X16995430Y8139330D01*
X16956060Y8128750D01*
X16916690Y8139330D01*
X16889130Y8160490D01*
X16865510Y8192250D01*
X16849760Y8229290D01*
X16841880Y8271620D01*
Y8308670D01*
X16849760Y8340410D01*
X16865510Y8377460D01*
X16889130Y8409210D01*
X16912750Y8430370D01*
X16944250Y8446250D01*
X16971810D01*
X17003300Y8435670D01*
X17026930Y8414500D01*
G01X17172600Y8446250D02*
Y8218710D01*
X17188340Y8171070D01*
X17219840Y8139330D01*
X17259210Y8128750D01*
X17298580Y8139330D01*
X17330080Y8171070D01*
X17345820Y8218710D01*
Y8446250D01*
G01X17495430Y8128750D02*
Y8446250D01*
X17593850D01*
X17625350Y8430370D01*
X17645040Y8409210D01*
X17652910Y8366870D01*
X17645040Y8324540D01*
X17621410Y8298090D01*
X17593850Y8282200D01*
X17495430D01*
G01X17593850D02*
X17652910Y8128750D01*
G01X17967870D02*
X17810390D01*
Y8446250D01*
X17967870D01*
G01X17904880Y8292800D02*
X17810390D01*
G01X18837940Y8128750D02*
Y8446250D01*
X18987560D01*
G01X18932430Y8292800D02*
X18837940D01*
G01X19180470Y8446250D02*
X19274950D01*
G01X19227710D02*
Y8128750D01*
G01X19180470D02*
X19274950D01*
G01X19452120D02*
Y8446250D01*
X19633220Y8128750D01*
Y8446250D01*
G01X19810390D02*
X19904870D01*
G01X19857630D02*
Y8128750D01*
G01X19810390D02*
X19904870D01*
G01X20089910Y8171070D02*
X20121410Y8144620D01*
X20156840Y8128750D01*
X20188340D01*
X20219830Y8144620D01*
X20243460Y8171070D01*
X20255270Y8208130D01*
X20247400Y8245160D01*
X20227710Y8276910D01*
X20192270Y8298090D01*
X20145030Y8308670D01*
X20117470Y8329830D01*
X20105660Y8366870D01*
X20113540Y8403920D01*
X20133220Y8430370D01*
X20160780Y8446250D01*
X20188340D01*
X20215900Y8435670D01*
X20239520Y8409210D01*
G01X20404870Y8128750D02*
Y8446250D01*
G01X20570230D02*
Y8128750D01*
G01Y8287500D02*
X20404870D01*
G01X20881250Y8128750D02*
X20723770D01*
Y8446250D01*
X20881250D01*
G01X20818260Y8292800D02*
X20723770D01*
G01X21030860Y8128750D02*
Y8446250D01*
X21109590D01*
X21141090Y8430370D01*
X21164710Y8409210D01*
X21184400Y8377460D01*
X21200150Y8340410D01*
X21204080Y8287500D01*
X21200150Y8234580D01*
X21184400Y8197540D01*
X21164710Y8165780D01*
X21141090Y8144620D01*
X21109590Y8128750D01*
X21030860D01*
G01X21314320Y8022920D02*
X21550540D01*
G01X21664710Y8171070D02*
X21696210Y8144620D01*
X21731640Y8128750D01*
X21763140D01*
X21794630Y8144620D01*
X21818260Y8171070D01*
X21830070Y8208130D01*
X21822200Y8245160D01*
X21802510Y8276910D01*
X21767070Y8298090D01*
X21719830Y8308670D01*
X21692270Y8329830D01*
X21680460Y8366870D01*
X21688340Y8403920D01*
X21708020Y8430370D01*
X21735580Y8446250D01*
X21763140D01*
X21790700Y8435670D01*
X21814320Y8409210D01*
G01X22015110Y8446250D02*
X22109590D01*
G01X22062350D02*
Y8128750D01*
G01X22015110D02*
X22109590D01*
G01X22302500Y8446250D02*
X22452120D01*
X22302500Y8128750D01*
X22452120D01*
G01X22771010D02*
X22613530D01*
Y8446250D01*
X22771010D01*
G01X22708020Y8292800D02*
X22613530D01*
G01X19522980Y8763750D02*
X19621410Y9081250D01*
X19719840Y8763750D01*
G01X19684400Y8874870D02*
X19558410D01*
G01X19857630Y9081250D02*
Y8763750D01*
X20015110D01*
G01X20172590Y9081250D02*
Y8763750D01*
X20330070D01*
G01X20794640Y9081250D02*
Y8853710D01*
X20810380Y8806070D01*
X20841880Y8774330D01*
X20881250Y8763750D01*
X20920620Y8774330D01*
X20952120Y8806070D01*
X20967860Y8853710D01*
Y9081250D01*
G01X21105660Y8763750D02*
Y9081250D01*
X21286760Y8763750D01*
Y9081250D01*
G01X21463930D02*
X21558410D01*
G01X21511170D02*
Y8763750D01*
G01X21463930D02*
X21558410D01*
G01X21826130Y9081250D02*
Y8763750D01*
G01X21735580Y9081250D02*
X21916680D01*
G01X22058410Y8806070D02*
X22089910Y8779620D01*
X22125340Y8763750D01*
X22156840D01*
X22188330Y8779620D01*
X22211960Y8806070D01*
X22223770Y8843130D01*
X22215900Y8880160D01*
X22196210Y8911910D01*
X22160770Y8933090D01*
X22113530Y8943670D01*
X22085970Y8964830D01*
X22074160Y9001870D01*
X22082040Y9038920D01*
X22101720Y9065370D01*
X22129280Y9081250D01*
X22156840D01*
X22184400Y9070670D01*
X22208020Y9044210D01*
G01X22672580Y8763750D02*
X22771010Y9081250D01*
X22869440Y8763750D01*
G01X22834000Y8874870D02*
X22708010D01*
G01X23007230Y8763750D02*
Y9081250D01*
X23105650D01*
X23137150Y9065370D01*
X23156840Y9044210D01*
X23164710Y9001870D01*
X23156840Y8959540D01*
X23133210Y8933090D01*
X23105650Y8917200D01*
X23007230D01*
G01X23105650D02*
X23164710Y8763750D01*
G01X23479670D02*
X23322190D01*
Y9081250D01*
X23479670D01*
G01X23416680Y8927800D02*
X23322190D01*
G01X23983610Y9081250D02*
X24078090D01*
G01X24030850D02*
Y8763750D01*
G01X23983610D02*
X24078090D01*
G01X24255260D02*
Y9081250D01*
X24436360Y8763750D01*
Y9081250D01*
G01X24873360Y8763750D02*
Y9081250D01*
X24975730Y8816670D01*
X25078100Y9081250D01*
Y8763750D01*
G01X25243450Y9081250D02*
X25337930D01*
G01X25290690D02*
Y8763750D01*
G01X25243450D02*
X25337930D01*
G01X25526910Y9081250D02*
Y8763750D01*
X25684390D01*
G01X25841870Y9081250D02*
Y8763750D01*
X25999350D01*
G01X26188330Y9081250D02*
X26282810D01*
G01X26235570D02*
Y8763750D01*
G01X26188330D02*
X26282810D01*
G01X26448160D02*
Y9081250D01*
X26550530Y8816670D01*
X26652900Y9081250D01*
Y8763750D01*
G01X26944230D02*
X26786750D01*
Y9081250D01*
X26944230D01*
G01X26881240Y8927800D02*
X26786750D01*
G01X27180450Y9081250D02*
Y8763750D01*
G01X27089900Y9081250D02*
X27271000D01*
G01X27574150Y8763750D02*
X27416670D01*
Y9081250D01*
X27574150D01*
G01X27511160Y8927800D02*
X27416670D01*
G01X27731630Y8763750D02*
Y9081250D01*
X27830050D01*
X27861550Y9065370D01*
X27881240Y9044210D01*
X27889110Y9001870D01*
X27881240Y8959540D01*
X27857610Y8933090D01*
X27830050Y8917200D01*
X27731630D01*
G01X27830050D02*
X27889110Y8763750D01*
G01X28042650Y8806070D02*
X28074150Y8779620D01*
X28109580Y8763750D01*
X28141080D01*
X28172570Y8779620D01*
X28196200Y8806070D01*
X28208010Y8843130D01*
X28200140Y8880160D01*
X28180450Y8911910D01*
X28145010Y8933090D01*
X28097770Y8943670D01*
X28070210Y8964830D01*
X28058400Y9001870D01*
X28066280Y9038920D01*
X28085960Y9065370D01*
X28113520Y9081250D01*
X28141080D01*
X28168640Y9070670D01*
X28192260Y9044210D01*
G01X19771020Y-62750D02*
X19794630Y-99800D01*
X19826130Y-120960D01*
X19861570Y-126250D01*
X19893070Y-120960D01*
X19924560Y-94510D01*
X19944240Y-62750D01*
X19948180Y-31000D01*
X19940310Y6030D01*
X19912750Y32500D01*
X19885190Y43090D01*
X19849750D01*
G01X19885190D02*
X19908810Y58960D01*
X19928500Y85410D01*
X19936370Y117160D01*
X19928500Y148920D01*
X19908810Y175370D01*
X19873380Y191250D01*
X19837950Y185960D01*
X19802510Y164790D01*
G01X20172590Y-136830D02*
X20164710Y-131540D01*
Y-120960D01*
X20172590Y-115670D01*
X20180470Y-120960D01*
Y-131540D01*
X20172590Y-136830D01*
G01X20487550Y191250D02*
X20456050Y180670D01*
X20432430Y154210D01*
X20416680Y122460D01*
X20404870Y80120D01*
X20400940Y32500D01*
X20404870Y-15130D01*
X20416680Y-57460D01*
X20432430Y-89220D01*
X20456050Y-115670D01*
X20487550Y-126250D01*
X20519040Y-115670D01*
X20542670Y-89220D01*
X20558420Y-57460D01*
X20570230Y-15130D01*
X20574160Y32500D01*
X20570230Y80120D01*
X20558420Y122460D01*
X20542670Y154210D01*
X20519040Y180670D01*
X20487550Y191250D01*
G01X20743460Y85410D02*
X20861560Y-126250D01*
G01Y85410D02*
X20743460Y-126250D01*
G01X21117470D02*
Y191250D01*
X21070230Y127750D01*
G01Y-126250D02*
X21164710D01*
G01X21432430Y-136830D02*
X21424550Y-131540D01*
Y-120960D01*
X21432430Y-115670D01*
X21440310Y-120960D01*
Y-131540D01*
X21432430Y-136830D01*
G01X21747390Y191250D02*
X21715890Y180670D01*
X21692270Y154210D01*
X21676520Y122460D01*
X21664710Y80120D01*
X21660780Y32500D01*
X21664710Y-15130D01*
X21676520Y-57460D01*
X21692270Y-89220D01*
X21715890Y-115670D01*
X21747390Y-126250D01*
X21778880Y-115670D01*
X21802510Y-89220D01*
X21818260Y-57460D01*
X21830070Y-15130D01*
X21834000Y32500D01*
X21830070Y80120D01*
X21818260Y122460D01*
X21802510Y154210D01*
X21778880Y180670D01*
X21747390Y191250D01*
G01X19771020Y572250D02*
X19794630Y535200D01*
X19826130Y514040D01*
X19861570Y508750D01*
X19893070Y514040D01*
X19924560Y540490D01*
X19944240Y572250D01*
X19948180Y604000D01*
X19940310Y641030D01*
X19912750Y667500D01*
X19885190Y678090D01*
X19849750D01*
G01X19885190D02*
X19908810Y693960D01*
X19928500Y720410D01*
X19936370Y752160D01*
X19928500Y783920D01*
X19908810Y810370D01*
X19873380Y826250D01*
X19837950Y820960D01*
X19802510Y799790D01*
G01X20172590Y498170D02*
X20164710Y503460D01*
Y514040D01*
X20172590Y519330D01*
X20180470Y514040D01*
Y503460D01*
X20172590Y498170D01*
G01X20487550Y826250D02*
X20456050Y815670D01*
X20432430Y789210D01*
X20416680Y757460D01*
X20404870Y715120D01*
X20400940Y667500D01*
X20404870Y619870D01*
X20416680Y577540D01*
X20432430Y545780D01*
X20456050Y519330D01*
X20487550Y508750D01*
X20519040Y519330D01*
X20542670Y545780D01*
X20558420Y577540D01*
X20570230Y619870D01*
X20574160Y667500D01*
X20570230Y715120D01*
X20558420Y757460D01*
X20542670Y789210D01*
X20519040Y815670D01*
X20487550Y826250D01*
G01X20743460Y720410D02*
X20861560Y508750D01*
G01Y720410D02*
X20743460Y508750D01*
G01X21117470D02*
Y826250D01*
X21070230Y762750D01*
G01Y508750D02*
X21164710D01*
G01X21432430Y498170D02*
X21424550Y503460D01*
Y514040D01*
X21432430Y519330D01*
X21440310Y514040D01*
Y503460D01*
X21432430Y498170D01*
G01X21747390Y826250D02*
X21715890Y815670D01*
X21692270Y789210D01*
X21676520Y757460D01*
X21664710Y715120D01*
X21660780Y667500D01*
X21664710Y619870D01*
X21676520Y577540D01*
X21692270Y545780D01*
X21715890Y519330D01*
X21747390Y508750D01*
X21778880Y519330D01*
X21802510Y545780D01*
X21818260Y577540D01*
X21830070Y619870D01*
X21834000Y667500D01*
X21830070Y715120D01*
X21818260Y757460D01*
X21802510Y789210D01*
X21778880Y815670D01*
X21747390Y826250D01*
G01X20015110Y7811250D02*
X19983610Y7800670D01*
X19959990Y7774210D01*
X19944240Y7742460D01*
X19932430Y7700120D01*
X19928500Y7652500D01*
X19932430Y7604870D01*
X19944240Y7562540D01*
X19959990Y7530780D01*
X19983610Y7504330D01*
X20015110Y7493750D01*
X20046600Y7504330D01*
X20070230Y7530780D01*
X20085980Y7562540D01*
X20097790Y7604870D01*
X20101720Y7652500D01*
X20097790Y7700120D01*
X20085980Y7742460D01*
X20070230Y7774210D01*
X20046600Y7800670D01*
X20015110Y7811250D01*
G01X20330070Y7483170D02*
X20322190Y7488460D01*
Y7499040D01*
X20330070Y7504330D01*
X20337950Y7499040D01*
Y7488460D01*
X20330070Y7483170D01*
G01X20558420Y7557250D02*
X20582030Y7520200D01*
X20613530Y7499040D01*
X20648970Y7493750D01*
X20680470Y7499040D01*
X20711960Y7525490D01*
X20731640Y7557250D01*
X20735580Y7589000D01*
X20727710Y7626030D01*
X20700150Y7652500D01*
X20672590Y7663090D01*
X20637150D01*
G01X20672590D02*
X20696210Y7678960D01*
X20715900Y7705410D01*
X20723770Y7737160D01*
X20715900Y7768920D01*
X20696210Y7795370D01*
X20660780Y7811250D01*
X20625350Y7805960D01*
X20589910Y7784790D01*
G01X20959990Y7811250D02*
X20928490Y7800670D01*
X20904870Y7774210D01*
X20889120Y7742460D01*
X20877310Y7700120D01*
X20873380Y7652500D01*
X20877310Y7604870D01*
X20889120Y7562540D01*
X20904870Y7530780D01*
X20928490Y7504330D01*
X20959990Y7493750D01*
X20991480Y7504330D01*
X21015110Y7530780D01*
X21030860Y7562540D01*
X21042670Y7604870D01*
X21046600Y7652500D01*
X21042670Y7700120D01*
X21030860Y7742460D01*
X21015110Y7774210D01*
X20991480Y7800670D01*
X20959990Y7811250D01*
G01X21322190Y7493750D02*
Y7811250D01*
X21176520Y7583710D01*
X21373380D01*
G01X21589910Y7493750D02*
X21617470Y7499040D01*
X21648960Y7514910D01*
X21668650Y7541360D01*
X21676520Y7578420D01*
X21668650Y7615450D01*
X21645030Y7647200D01*
X21609590Y7663090D01*
X21570230D01*
X21546600Y7673670D01*
X21526910Y7700120D01*
X21519040Y7737160D01*
X21530860Y7774210D01*
X21558410Y7800670D01*
X21589910Y7811250D01*
X21621400Y7800670D01*
X21648960Y7774210D01*
X21660780Y7737160D01*
X21652900Y7700120D01*
X21633220Y7673670D01*
X21609590Y7663090D01*
X21570230D01*
X21534790Y7647200D01*
X21511170Y7615450D01*
X21503300Y7578420D01*
X21511170Y7541360D01*
X21530860Y7514910D01*
X21562350Y7499040D01*
X21589910Y7493750D01*
G01X19849760Y9413750D02*
Y9731250D01*
X19928490D01*
X19959990Y9715370D01*
X19983610Y9694210D01*
X20003300Y9662460D01*
X20019050Y9625410D01*
X20022980Y9572500D01*
X20019050Y9519580D01*
X20003300Y9482540D01*
X19983610Y9450780D01*
X19959990Y9429620D01*
X19928490Y9413750D01*
X19849760D01*
G01X20172590D02*
Y9731250D01*
X20271010D01*
X20302510Y9715370D01*
X20322200Y9694210D01*
X20330070Y9651870D01*
X20322200Y9609540D01*
X20298570Y9583090D01*
X20271010Y9567200D01*
X20172590D01*
G01X20271010D02*
X20330070Y9413750D01*
G01X20519050Y9731250D02*
X20613530D01*
G01X20566290D02*
Y9413750D01*
G01X20519050D02*
X20613530D01*
G01X20802510Y9731250D02*
Y9413750D01*
X20959990D01*
G01X21117470Y9731250D02*
Y9413750D01*
X21274950D01*
G01X21912740Y9704790D02*
X21889120Y9720670D01*
X21861570Y9731250D01*
X21830070D01*
X21794630Y9715370D01*
X21767080Y9688920D01*
X21747390Y9657160D01*
X21731640Y9604250D01*
X21727700Y9556620D01*
X21735580Y9509000D01*
X21747390Y9477250D01*
X21771010Y9445490D01*
X21798570Y9424330D01*
X21826130Y9413750D01*
X21853690D01*
X21881250Y9424330D01*
X21904870Y9440200D01*
X21924560Y9461360D01*
G01X22058410Y9413750D02*
Y9731250D01*
G01X22223770D02*
Y9413750D01*
G01Y9572500D02*
X22058410D01*
G01X22357620Y9413750D02*
X22456050Y9731250D01*
X22554480Y9413750D01*
G01X22519040Y9524870D02*
X22393050D01*
G01X22692270Y9413750D02*
Y9731250D01*
X22790690D01*
X22822190Y9715370D01*
X22841880Y9694210D01*
X22849750Y9651870D01*
X22841880Y9609540D01*
X22818250Y9583090D01*
X22790690Y9567200D01*
X22692270D01*
G01X22790690D02*
X22849750Y9413750D01*
G01X23085970Y9731250D02*
Y9413750D01*
G01X22995420Y9731250D02*
X23176520D01*
G01X23400930Y9403170D02*
X23393050Y9408460D01*
Y9419040D01*
X23400930Y9424330D01*
X23408810Y9419040D01*
Y9408460D01*
X23400930Y9403170D01*
G01Y9546030D02*
X23393050Y9551330D01*
Y9561910D01*
X23400930Y9567200D01*
X23408810Y9561910D01*
Y9551330D01*
X23400930Y9546030D01*
G01X24030850Y9731250D02*
Y9413750D01*
G01X23940300Y9731250D02*
X24121400D01*
G01X24345810Y9413750D02*
X24314310Y9419040D01*
X24286760Y9440200D01*
X24263130Y9471960D01*
X24247380Y9509000D01*
X24239510Y9551330D01*
Y9593670D01*
X24247380Y9636000D01*
X24263130Y9673040D01*
X24286760Y9704790D01*
X24314310Y9725960D01*
X24345810Y9731250D01*
X24377300Y9725960D01*
X24404860Y9704790D01*
X24428490Y9673040D01*
X24444240Y9636000D01*
X24452110Y9593670D01*
Y9551330D01*
X24444240Y9509000D01*
X24428490Y9471960D01*
X24404860Y9440200D01*
X24377300Y9419040D01*
X24345810Y9413750D01*
G01X24582030D02*
Y9731250D01*
X24676520D01*
X24708010Y9715370D01*
X24731640Y9678330D01*
X24739510Y9636000D01*
X24731640Y9593670D01*
X24711950Y9561910D01*
X24676520Y9546030D01*
X24582030D01*
G01X25290690Y9731250D02*
Y9413750D01*
G01X25235570Y9625410D02*
X25345810D01*
G01X25605650Y9413750D02*
X25582030Y9419040D01*
X25558410Y9440200D01*
X25542650Y9477250D01*
X25534780Y9519580D01*
X25542650Y9561910D01*
X25558410Y9598960D01*
X25582030Y9620120D01*
X25605650Y9625410D01*
X25629270Y9620120D01*
X25652890Y9598960D01*
X25668640Y9561910D01*
X25672580Y9519580D01*
X25668640Y9477250D01*
X25652890Y9440200D01*
X25629270Y9419040D01*
X25605650Y9413750D01*
G01X26267060Y9583090D02*
X26282810Y9598960D01*
X26294620Y9625410D01*
X26302500Y9662460D01*
X26294620Y9694210D01*
X26278880Y9715370D01*
X26251320Y9731250D01*
X26145020D01*
Y9413750D01*
X26274940D01*
X26302500Y9434910D01*
X26318250Y9466670D01*
X26326120Y9503710D01*
X26318250Y9540740D01*
X26294620Y9572500D01*
X26267060Y9583090D01*
X26145020D01*
G01X26550530Y9413750D02*
X26519030Y9419040D01*
X26491480Y9440200D01*
X26467850Y9471960D01*
X26452100Y9509000D01*
X26444230Y9551330D01*
Y9593670D01*
X26452100Y9636000D01*
X26467850Y9673040D01*
X26491480Y9704790D01*
X26519030Y9725960D01*
X26550530Y9731250D01*
X26582020Y9725960D01*
X26609580Y9704790D01*
X26633210Y9673040D01*
X26648960Y9636000D01*
X26656830Y9593670D01*
Y9551330D01*
X26648960Y9509000D01*
X26633210Y9471960D01*
X26609580Y9440200D01*
X26582020Y9419040D01*
X26550530Y9413750D01*
G01X26865490Y9731250D02*
Y9413750D01*
G01X26774940Y9731250D02*
X26956040D01*
G01X27180450D02*
Y9413750D01*
G01X27089900Y9731250D02*
X27271000D01*
G01X27495410Y9413750D02*
X27463910Y9419040D01*
X27436360Y9440200D01*
X27412730Y9471960D01*
X27396980Y9509000D01*
X27389110Y9551330D01*
Y9593670D01*
X27396980Y9636000D01*
X27412730Y9673040D01*
X27436360Y9704790D01*
X27463910Y9725960D01*
X27495410Y9731250D01*
X27526900Y9725960D01*
X27554460Y9704790D01*
X27578090Y9673040D01*
X27593840Y9636000D01*
X27601710Y9593670D01*
Y9551330D01*
X27593840Y9509000D01*
X27578090Y9471960D01*
X27554460Y9440200D01*
X27526900Y9419040D01*
X27495410Y9413750D01*
G01X27708000D02*
Y9731250D01*
X27810370Y9466670D01*
X27912740Y9731250D01*
Y9413750D01*
G01X20400940Y1207250D02*
X20424550Y1170200D01*
X20456050Y1149040D01*
X20491490Y1143750D01*
X20522990Y1149040D01*
X20554480Y1175490D01*
X20574160Y1207250D01*
X20578100Y1239000D01*
X20570230Y1276030D01*
X20542670Y1302500D01*
X20515110Y1313090D01*
X20479670D01*
G01X20515110D02*
X20538730Y1328960D01*
X20558420Y1355410D01*
X20566290Y1387160D01*
X20558420Y1418920D01*
X20538730Y1445370D01*
X20503300Y1461250D01*
X20467870Y1455960D01*
X20432430Y1434790D01*
G01X20802510Y1133170D02*
X20794630Y1138460D01*
Y1149040D01*
X20802510Y1154330D01*
X20810390Y1149040D01*
Y1138460D01*
X20802510Y1133170D01*
G01X21117470Y1143750D02*
Y1461250D01*
X21070230Y1397750D01*
G01Y1143750D02*
X21164710D01*
G01X20487550Y1778750D02*
Y2096250D01*
X20440310Y2032750D01*
G01Y1778750D02*
X20534790D01*
G01X20802510Y1768170D02*
X20794630Y1773460D01*
Y1784040D01*
X20802510Y1789330D01*
X20810390Y1784040D01*
Y1773460D01*
X20802510Y1768170D01*
G01X21117470Y1778750D02*
X21145030Y1784040D01*
X21176520Y1799910D01*
X21196210Y1826360D01*
X21204080Y1863420D01*
X21196210Y1900450D01*
X21172590Y1932200D01*
X21137150Y1948090D01*
X21097790D01*
X21074160Y1958670D01*
X21054470Y1985120D01*
X21046600Y2022160D01*
X21058420Y2059210D01*
X21085970Y2085670D01*
X21117470Y2096250D01*
X21148960Y2085670D01*
X21176520Y2059210D01*
X21188340Y2022160D01*
X21180460Y1985120D01*
X21160780Y1958670D01*
X21137150Y1948090D01*
X21097790D01*
X21062350Y1932200D01*
X21038730Y1900450D01*
X21030860Y1863420D01*
X21038730Y1826360D01*
X21058420Y1799910D01*
X21089910Y1784040D01*
X21117470Y1778750D01*
G01X20487550Y2413750D02*
Y2731250D01*
X20440310Y2667750D01*
G01Y2413750D02*
X20534790D01*
G01X20802510Y2403170D02*
X20794630Y2408460D01*
Y2419040D01*
X20802510Y2424330D01*
X20810390Y2419040D01*
Y2408460D01*
X20802510Y2403170D01*
G01X21042660Y2546030D02*
X21070230Y2583090D01*
X21093850Y2604250D01*
X21125350Y2614830D01*
X21152910Y2604250D01*
X21172590Y2583090D01*
X21188340Y2551330D01*
X21192280Y2514290D01*
X21188340Y2482540D01*
X21172590Y2450780D01*
X21148960Y2424330D01*
X21121410Y2413750D01*
X21089910Y2424330D01*
X21062350Y2456070D01*
X21046600Y2503710D01*
X21042660Y2556620D01*
X21050540Y2625410D01*
X21062350Y2662460D01*
X21082030Y2699500D01*
X21109590Y2725960D01*
X21137150Y2731250D01*
X21164710Y2720670D01*
X21184400Y2694210D01*
G01X20487550Y3048750D02*
Y3366250D01*
X20440310Y3302750D01*
G01Y3048750D02*
X20534790D01*
G01X20802510Y3038170D02*
X20794630Y3043460D01*
Y3054040D01*
X20802510Y3059330D01*
X20810390Y3054040D01*
Y3043460D01*
X20802510Y3038170D01*
G01X21030860Y3112250D02*
X21054470Y3075200D01*
X21085970Y3054040D01*
X21121410Y3048750D01*
X21152910Y3054040D01*
X21184400Y3080490D01*
X21204080Y3112250D01*
X21208020Y3144000D01*
X21200150Y3181030D01*
X21172590Y3207500D01*
X21145030Y3218090D01*
X21109590D01*
G01X21145030D02*
X21168650Y3233960D01*
X21188340Y3260410D01*
X21196210Y3292160D01*
X21188340Y3323920D01*
X21168650Y3350370D01*
X21133220Y3366250D01*
X21097790Y3360960D01*
X21062350Y3339790D01*
G01X20487550Y3683750D02*
Y4001250D01*
X20440310Y3937750D01*
G01Y3683750D02*
X20534790D01*
G01X20802510Y3673170D02*
X20794630Y3678460D01*
Y3689040D01*
X20802510Y3694330D01*
X20810390Y3689040D01*
Y3678460D01*
X20802510Y3673170D01*
G01X21042660Y3948330D02*
X21066290Y3980080D01*
X21093850Y3995960D01*
X21125350Y4001250D01*
X21164710Y3990670D01*
X21192280Y3964210D01*
X21200150Y3932460D01*
X21196210Y3900700D01*
X21180460Y3874250D01*
X21101720Y3821330D01*
X21066290Y3784290D01*
X21042660Y3731360D01*
X21034790Y3683750D01*
X21200150D01*
G01X20487550Y4318750D02*
Y4636250D01*
X20440310Y4572750D01*
G01Y4318750D02*
X20534790D01*
G01X20802510Y4308170D02*
X20794630Y4313460D01*
Y4324040D01*
X20802510Y4329330D01*
X20810390Y4324040D01*
Y4313460D01*
X20802510Y4308170D01*
G01X21117470Y4318750D02*
Y4636250D01*
X21070230Y4572750D01*
G01Y4318750D02*
X21164710D01*
G01X20487550Y4953750D02*
Y5271250D01*
X20440310Y5207750D01*
G01Y4953750D02*
X20534790D01*
G01X20802510Y4943170D02*
X20794630Y4948460D01*
Y4959040D01*
X20802510Y4964330D01*
X20810390Y4959040D01*
Y4948460D01*
X20802510Y4943170D01*
G01X21117470Y5271250D02*
X21085970Y5260670D01*
X21062350Y5234210D01*
X21046600Y5202460D01*
X21034790Y5160120D01*
X21030860Y5112500D01*
X21034790Y5064870D01*
X21046600Y5022540D01*
X21062350Y4990780D01*
X21085970Y4964330D01*
X21117470Y4953750D01*
X21148960Y4964330D01*
X21172590Y4990780D01*
X21188340Y5022540D01*
X21200150Y5064870D01*
X21204080Y5112500D01*
X21200150Y5160120D01*
X21188340Y5202460D01*
X21172590Y5234210D01*
X21148960Y5260670D01*
X21117470Y5271250D01*
G01X20487550Y5906250D02*
X20456050Y5895670D01*
X20432430Y5869210D01*
X20416680Y5837460D01*
X20404870Y5795120D01*
X20400940Y5747500D01*
X20404870Y5699870D01*
X20416680Y5657540D01*
X20432430Y5625780D01*
X20456050Y5599330D01*
X20487550Y5588750D01*
X20519040Y5599330D01*
X20542670Y5625780D01*
X20558420Y5657540D01*
X20570230Y5699870D01*
X20574160Y5747500D01*
X20570230Y5795120D01*
X20558420Y5837460D01*
X20542670Y5869210D01*
X20519040Y5895670D01*
X20487550Y5906250D01*
G01X20802510Y5578170D02*
X20794630Y5583460D01*
Y5594040D01*
X20802510Y5599330D01*
X20810390Y5594040D01*
Y5583460D01*
X20802510Y5578170D01*
G01X21050540Y5625780D02*
X21078100Y5599330D01*
X21109590Y5588750D01*
X21141090Y5599330D01*
X21168650Y5631070D01*
X21188340Y5678710D01*
X21196210Y5726330D01*
Y5784540D01*
X21188340Y5832160D01*
X21168650Y5874500D01*
X21145030Y5895670D01*
X21117470Y5906250D01*
X21085970Y5895670D01*
X21062350Y5874500D01*
X21046600Y5842750D01*
X21038730Y5800410D01*
X21046600Y5763380D01*
X21066290Y5726330D01*
X21089910Y5705160D01*
X21117470Y5699870D01*
X21148960Y5710450D01*
X21172590Y5736910D01*
X21196210Y5784540D01*
G01X20487550Y6541250D02*
X20456050Y6530670D01*
X20432430Y6504210D01*
X20416680Y6472460D01*
X20404870Y6430120D01*
X20400940Y6382500D01*
X20404870Y6334870D01*
X20416680Y6292540D01*
X20432430Y6260780D01*
X20456050Y6234330D01*
X20487550Y6223750D01*
X20519040Y6234330D01*
X20542670Y6260780D01*
X20558420Y6292540D01*
X20570230Y6334870D01*
X20574160Y6382500D01*
X20570230Y6430120D01*
X20558420Y6472460D01*
X20542670Y6504210D01*
X20519040Y6530670D01*
X20487550Y6541250D01*
G01X20802510Y6213170D02*
X20794630Y6218460D01*
Y6229040D01*
X20802510Y6234330D01*
X20810390Y6229040D01*
Y6218460D01*
X20802510Y6213170D01*
G01X21117470Y6223750D02*
X21145030Y6229040D01*
X21176520Y6244910D01*
X21196210Y6271360D01*
X21204080Y6308420D01*
X21196210Y6345450D01*
X21172590Y6377200D01*
X21137150Y6393090D01*
X21097790D01*
X21074160Y6403670D01*
X21054470Y6430120D01*
X21046600Y6467160D01*
X21058420Y6504210D01*
X21085970Y6530670D01*
X21117470Y6541250D01*
X21148960Y6530670D01*
X21176520Y6504210D01*
X21188340Y6467160D01*
X21180460Y6430120D01*
X21160780Y6403670D01*
X21137150Y6393090D01*
X21097790D01*
X21062350Y6377200D01*
X21038730Y6345450D01*
X21030860Y6308420D01*
X21038730Y6271360D01*
X21058420Y6244910D01*
X21089910Y6229040D01*
X21117470Y6223750D01*
G01X20487550Y7176250D02*
X20456050Y7165670D01*
X20432430Y7139210D01*
X20416680Y7107460D01*
X20404870Y7065120D01*
X20400940Y7017500D01*
X20404870Y6969870D01*
X20416680Y6927540D01*
X20432430Y6895780D01*
X20456050Y6869330D01*
X20487550Y6858750D01*
X20519040Y6869330D01*
X20542670Y6895780D01*
X20558420Y6927540D01*
X20570230Y6969870D01*
X20574160Y7017500D01*
X20570230Y7065120D01*
X20558420Y7107460D01*
X20542670Y7139210D01*
X20519040Y7165670D01*
X20487550Y7176250D01*
G01X20802510Y6848170D02*
X20794630Y6853460D01*
Y6864040D01*
X20802510Y6869330D01*
X20810390Y6864040D01*
Y6853460D01*
X20802510Y6848170D01*
G01X21042660Y6991030D02*
X21070230Y7028090D01*
X21093850Y7049250D01*
X21125350Y7059830D01*
X21152910Y7049250D01*
X21172590Y7028090D01*
X21188340Y6996330D01*
X21192280Y6959290D01*
X21188340Y6927540D01*
X21172590Y6895780D01*
X21148960Y6869330D01*
X21121410Y6858750D01*
X21089910Y6869330D01*
X21062350Y6901070D01*
X21046600Y6948710D01*
X21042660Y7001620D01*
X21050540Y7070410D01*
X21062350Y7107460D01*
X21082030Y7144500D01*
X21109590Y7170960D01*
X21137150Y7176250D01*
X21164710Y7165670D01*
X21184400Y7139210D01*
G01X24121400Y-89220D02*
X24148960Y-115670D01*
X24180450Y-126250D01*
X24211950Y-115670D01*
X24239510Y-83930D01*
X24259200Y-36290D01*
X24267070Y11330D01*
Y69540D01*
X24259200Y117160D01*
X24239510Y159500D01*
X24215890Y180670D01*
X24188330Y191250D01*
X24156830Y180670D01*
X24133210Y159500D01*
X24117460Y127750D01*
X24109590Y85410D01*
X24117460Y48380D01*
X24137150Y11330D01*
X24160770Y-9840D01*
X24188330Y-15130D01*
X24219820Y-4550D01*
X24243450Y21910D01*
X24267070Y69540D01*
G01X24503290Y191250D02*
X24471790Y180670D01*
X24448170Y154210D01*
X24432420Y122460D01*
X24420610Y80120D01*
X24416680Y32500D01*
X24420610Y-15130D01*
X24432420Y-57460D01*
X24448170Y-89220D01*
X24471790Y-115670D01*
X24503290Y-126250D01*
X24534780Y-115670D01*
X24558410Y-89220D01*
X24574160Y-57460D01*
X24585970Y-15130D01*
X24589900Y32500D01*
X24585970Y80120D01*
X24574160Y122460D01*
X24558410Y154210D01*
X24534780Y180670D01*
X24503290Y191250D01*
G01X24818250Y-136830D02*
X24810370Y-131540D01*
Y-120960D01*
X24818250Y-115670D01*
X24826130Y-120960D01*
Y-131540D01*
X24818250Y-136830D01*
G01X25133210Y191250D02*
X25101710Y180670D01*
X25078090Y154210D01*
X25062340Y122460D01*
X25050530Y80120D01*
X25046600Y32500D01*
X25050530Y-15130D01*
X25062340Y-57460D01*
X25078090Y-89220D01*
X25101710Y-115670D01*
X25133210Y-126250D01*
X25164700Y-115670D01*
X25188330Y-89220D01*
X25204080Y-57460D01*
X25215890Y-15130D01*
X25219820Y32500D01*
X25215890Y80120D01*
X25204080Y122460D01*
X25188330Y154210D01*
X25164700Y180670D01*
X25133210Y191250D01*
G01X25448170D02*
X25416670Y180670D01*
X25393050Y154210D01*
X25377300Y122460D01*
X25365490Y80120D01*
X25361560Y32500D01*
X25365490Y-15130D01*
X25377300Y-57460D01*
X25393050Y-89220D01*
X25416670Y-115670D01*
X25448170Y-126250D01*
X25479660Y-115670D01*
X25503290Y-89220D01*
X25519040Y-57460D01*
X25530850Y-15130D01*
X25534780Y32500D01*
X25530850Y80120D01*
X25519040Y122460D01*
X25503290Y154210D01*
X25479660Y180670D01*
X25448170Y191250D01*
G01X25763130D02*
X25731630Y180670D01*
X25708010Y154210D01*
X25692260Y122460D01*
X25680450Y80120D01*
X25676520Y32500D01*
X25680450Y-15130D01*
X25692260Y-57460D01*
X25708010Y-89220D01*
X25731630Y-115670D01*
X25763130Y-126250D01*
X25794620Y-115670D01*
X25818250Y-89220D01*
X25834000Y-57460D01*
X25845810Y-15130D01*
X25849740Y32500D01*
X25845810Y80120D01*
X25834000Y122460D01*
X25818250Y154210D01*
X25794620Y180670D01*
X25763130Y191250D01*
G01X23794630Y8128750D02*
Y8446250D01*
X23893050D01*
X23924550Y8430370D01*
X23944240Y8409210D01*
X23952110Y8366870D01*
X23944240Y8324540D01*
X23920610Y8298090D01*
X23893050Y8282200D01*
X23794630D01*
G01X23893050D02*
X23952110Y8128750D01*
G01X24188330D02*
X24156830Y8134040D01*
X24129280Y8155200D01*
X24105650Y8186960D01*
X24089900Y8224000D01*
X24082030Y8266330D01*
Y8308670D01*
X24089900Y8351000D01*
X24105650Y8388040D01*
X24129280Y8419790D01*
X24156830Y8440960D01*
X24188330Y8446250D01*
X24219820Y8440960D01*
X24247380Y8419790D01*
X24271010Y8388040D01*
X24286760Y8351000D01*
X24294630Y8308670D01*
Y8266330D01*
X24286760Y8224000D01*
X24271010Y8186960D01*
X24247380Y8155200D01*
X24219820Y8134040D01*
X24188330Y8128750D01*
G01X24503290Y8446250D02*
Y8128750D01*
G01X24412740Y8446250D02*
X24593840D01*
G01X24719820Y8128750D02*
X24818250Y8446250D01*
X24916680Y8128750D01*
G01X24881240Y8239870D02*
X24755250D01*
G01X25133210Y8446250D02*
Y8128750D01*
G01X25042660Y8446250D02*
X25223760D01*
G01X25400930D02*
X25495410D01*
G01X25448170D02*
Y8128750D01*
G01X25400930D02*
X25495410D01*
G01X25763130D02*
X25731630Y8134040D01*
X25704080Y8155200D01*
X25680450Y8186960D01*
X25664700Y8224000D01*
X25656830Y8266330D01*
Y8308670D01*
X25664700Y8351000D01*
X25680450Y8388040D01*
X25704080Y8419790D01*
X25731630Y8440960D01*
X25763130Y8446250D01*
X25794620Y8440960D01*
X25822180Y8419790D01*
X25845810Y8388040D01*
X25861560Y8351000D01*
X25869430Y8308670D01*
Y8266330D01*
X25861560Y8224000D01*
X25845810Y8186960D01*
X25822180Y8155200D01*
X25794620Y8134040D01*
X25763130Y8128750D01*
G01X25987540D02*
Y8446250D01*
X26168640Y8128750D01*
Y8446250D01*
G01X24345810Y826250D02*
X24314310Y815670D01*
X24290690Y789210D01*
X24274940Y757460D01*
X24263130Y715120D01*
X24259200Y667500D01*
X24263130Y619870D01*
X24274940Y577540D01*
X24290690Y545780D01*
X24314310Y519330D01*
X24345810Y508750D01*
X24377300Y519330D01*
X24400930Y545780D01*
X24416680Y577540D01*
X24428490Y619870D01*
X24432420Y667500D01*
X24428490Y715120D01*
X24416680Y757460D01*
X24400930Y789210D01*
X24377300Y815670D01*
X24345810Y826250D01*
G01X24660770Y498170D02*
X24652890Y503460D01*
Y514040D01*
X24660770Y519330D01*
X24668650Y514040D01*
Y503460D01*
X24660770Y498170D01*
G01X24975730Y826250D02*
X24944230Y815670D01*
X24920610Y789210D01*
X24904860Y757460D01*
X24893050Y715120D01*
X24889120Y667500D01*
X24893050Y619870D01*
X24904860Y577540D01*
X24920610Y545780D01*
X24944230Y519330D01*
X24975730Y508750D01*
X25007220Y519330D01*
X25030850Y545780D01*
X25046600Y577540D01*
X25058410Y619870D01*
X25062340Y667500D01*
X25058410Y715120D01*
X25046600Y757460D01*
X25030850Y789210D01*
X25007220Y815670D01*
X24975730Y826250D01*
G01X25290690D02*
X25259190Y815670D01*
X25235570Y789210D01*
X25219820Y757460D01*
X25208010Y715120D01*
X25204080Y667500D01*
X25208010Y619870D01*
X25219820Y577540D01*
X25235570Y545780D01*
X25259190Y519330D01*
X25290690Y508750D01*
X25322180Y519330D01*
X25345810Y545780D01*
X25361560Y577540D01*
X25373370Y619870D01*
X25377300Y667500D01*
X25373370Y715120D01*
X25361560Y757460D01*
X25345810Y789210D01*
X25322180Y815670D01*
X25290690Y826250D01*
G01X25605650D02*
X25574150Y815670D01*
X25550530Y789210D01*
X25534780Y757460D01*
X25522970Y715120D01*
X25519040Y667500D01*
X25522970Y619870D01*
X25534780Y577540D01*
X25550530Y545780D01*
X25574150Y519330D01*
X25605650Y508750D01*
X25637140Y519330D01*
X25660770Y545780D01*
X25676520Y577540D01*
X25688330Y619870D01*
X25692260Y667500D01*
X25688330Y715120D01*
X25676520Y757460D01*
X25660770Y789210D01*
X25637140Y815670D01*
X25605650Y826250D01*
G01X24924550Y1249580D02*
X25026910D01*
G01X24924550Y1884580D02*
X25026910D01*
G01X24924550Y2519580D02*
X25026910D01*
G01X24924550Y3154580D02*
X25026910D01*
G01X24924550Y3789580D02*
X25026910D01*
G01X24924550Y4424580D02*
X25026910D01*
G01X24924550Y5059580D02*
X25026910D01*
G01X24924550Y5694580D02*
X25026910D01*
G01X24924550Y6329580D02*
X25026910D01*
G01X24924550Y6964580D02*
X25026910D01*
G01X24924550Y7599580D02*
X25026910D01*
G01X25918070Y-443750D02*
Y-761250D01*
G01X25827520Y-443750D02*
X26008620D01*
G01X26233030Y-761250D02*
X26201530Y-755960D01*
X26173980Y-734800D01*
X26150350Y-703040D01*
X26134600Y-666000D01*
X26126730Y-623670D01*
Y-581330D01*
X26134600Y-539000D01*
X26150350Y-501960D01*
X26173980Y-470210D01*
X26201530Y-449040D01*
X26233030Y-443750D01*
X26264520Y-449040D01*
X26292080Y-470210D01*
X26315710Y-501960D01*
X26331460Y-539000D01*
X26339330Y-581330D01*
Y-623670D01*
X26331460Y-666000D01*
X26315710Y-703040D01*
X26292080Y-734800D01*
X26264520Y-755960D01*
X26233030Y-761250D01*
G01X26547990Y-443750D02*
Y-761250D01*
G01X26457440Y-443750D02*
X26638540D01*
G01X26764520Y-761250D02*
X26862950Y-443750D01*
X26961380Y-761250D01*
G01X26925940Y-650130D02*
X26799950D01*
G01X27099170Y-443750D02*
Y-761250D01*
X27256650D01*
G01X27725150D02*
Y-443750D01*
G01X27890510D02*
Y-761250D01*
G01Y-602500D02*
X27725150D01*
G01X28122790Y-761250D02*
X28091290Y-755960D01*
X28063740Y-734800D01*
X28040110Y-703040D01*
X28024360Y-666000D01*
X28016490Y-623670D01*
Y-581330D01*
X28024360Y-539000D01*
X28040110Y-501960D01*
X28063740Y-470210D01*
X28091290Y-449040D01*
X28122790Y-443750D01*
X28154280Y-449040D01*
X28181840Y-470210D01*
X28205470Y-501960D01*
X28221220Y-539000D01*
X28229090Y-581330D01*
Y-623670D01*
X28221220Y-666000D01*
X28205470Y-703040D01*
X28181840Y-734800D01*
X28154280Y-755960D01*
X28122790Y-761250D01*
G01X28359010Y-443750D02*
Y-761250D01*
X28516490D01*
G01X28831450D02*
X28673970D01*
Y-443750D01*
X28831450D01*
G01X28768460Y-597200D02*
X28673970D01*
G01X28984990Y-718930D02*
X29016490Y-745380D01*
X29051920Y-761250D01*
X29083420D01*
X29114910Y-745380D01*
X29138540Y-718930D01*
X29150350Y-681870D01*
X29142480Y-644840D01*
X29122790Y-613090D01*
X29087350Y-591910D01*
X29040110Y-581330D01*
X29012550Y-560170D01*
X29000740Y-523130D01*
X29008620Y-486080D01*
X29028300Y-459630D01*
X29055860Y-443750D01*
X29083420D01*
X29110980Y-454330D01*
X29134600Y-480790D01*
G01X29382630Y-771830D02*
X29374750Y-766540D01*
Y-755960D01*
X29382630Y-750670D01*
X29390510Y-755960D01*
Y-766540D01*
X29382630Y-771830D01*
G01Y-628970D02*
X29374750Y-623670D01*
Y-613090D01*
X29382630Y-607800D01*
X29390510Y-613090D01*
Y-623670D01*
X29382630Y-628970D01*
G01X27337930Y-126250D02*
Y191250D01*
X27432420D01*
X27463910Y175370D01*
X27487540Y138330D01*
X27495410Y96000D01*
X27487540Y53670D01*
X27467850Y21910D01*
X27432420Y6030D01*
X27337930D01*
G01X27652890Y191250D02*
Y-126250D01*
X27810370D01*
G01X27948160D02*
X28046590Y191250D01*
X28145020Y-126250D01*
G01X28109580Y-15130D02*
X27983590D01*
G01X28361550Y191250D02*
Y-126250D01*
G01X28271000Y191250D02*
X28452100D01*
G01X28755250Y-126250D02*
X28597770D01*
Y191250D01*
X28755250D01*
G01X28692260Y37800D02*
X28597770D01*
G01X28904860Y-126250D02*
Y191250D01*
X28983590D01*
X29015090Y175370D01*
X29038710Y154210D01*
X29058400Y122460D01*
X29074150Y85410D01*
X29078080Y32500D01*
X29074150Y-20420D01*
X29058400Y-57460D01*
X29038710Y-89220D01*
X29015090Y-110380D01*
X28983590Y-126250D01*
X28904860D01*
G01X27337930Y508750D02*
Y826250D01*
X27432420D01*
X27463910Y810370D01*
X27487540Y773330D01*
X27495410Y731000D01*
X27487540Y688670D01*
X27467850Y656910D01*
X27432420Y641030D01*
X27337930D01*
G01X27652890Y826250D02*
Y508750D01*
X27810370D01*
G01X27948160D02*
X28046590Y826250D01*
X28145020Y508750D01*
G01X28109580Y619870D02*
X27983590D01*
G01X28361550Y826250D02*
Y508750D01*
G01X28271000Y826250D02*
X28452100D01*
G01X28755250Y508750D02*
X28597770D01*
Y826250D01*
X28755250D01*
G01X28692260Y672800D02*
X28597770D01*
G01X28904860Y508750D02*
Y826250D01*
X28983590D01*
X29015090Y810370D01*
X29038710Y789210D01*
X29058400Y757460D01*
X29074150Y720410D01*
X29078080Y667500D01*
X29074150Y614580D01*
X29058400Y577540D01*
X29038710Y545780D01*
X29015090Y524620D01*
X28983590Y508750D01*
X28904860D01*
G01X27337930Y1143750D02*
Y1461250D01*
X27432420D01*
X27463910Y1445370D01*
X27487540Y1408330D01*
X27495410Y1366000D01*
X27487540Y1323670D01*
X27467850Y1291910D01*
X27432420Y1276030D01*
X27337930D01*
G01X27652890Y1461250D02*
Y1143750D01*
X27810370D01*
G01X27948160D02*
X28046590Y1461250D01*
X28145020Y1143750D01*
G01X28109580Y1254870D02*
X27983590D01*
G01X28361550Y1461250D02*
Y1143750D01*
G01X28271000Y1461250D02*
X28452100D01*
G01X28755250Y1143750D02*
X28597770D01*
Y1461250D01*
X28755250D01*
G01X28692260Y1307800D02*
X28597770D01*
G01X28904860Y1143750D02*
Y1461250D01*
X28983590D01*
X29015090Y1445370D01*
X29038710Y1424210D01*
X29058400Y1392460D01*
X29074150Y1355410D01*
X29078080Y1302500D01*
X29074150Y1249580D01*
X29058400Y1212540D01*
X29038710Y1180780D01*
X29015090Y1159620D01*
X28983590Y1143750D01*
X28904860D01*
G01X27337930Y1778750D02*
Y2096250D01*
X27432420D01*
X27463910Y2080370D01*
X27487540Y2043330D01*
X27495410Y2001000D01*
X27487540Y1958670D01*
X27467850Y1926910D01*
X27432420Y1911030D01*
X27337930D01*
G01X27652890Y2096250D02*
Y1778750D01*
X27810370D01*
G01X27948160D02*
X28046590Y2096250D01*
X28145020Y1778750D01*
G01X28109580Y1889870D02*
X27983590D01*
G01X28361550Y2096250D02*
Y1778750D01*
G01X28271000Y2096250D02*
X28452100D01*
G01X28755250Y1778750D02*
X28597770D01*
Y2096250D01*
X28755250D01*
G01X28692260Y1942800D02*
X28597770D01*
G01X28904860Y1778750D02*
Y2096250D01*
X28983590D01*
X29015090Y2080370D01*
X29038710Y2059210D01*
X29058400Y2027460D01*
X29074150Y1990410D01*
X29078080Y1937500D01*
X29074150Y1884580D01*
X29058400Y1847540D01*
X29038710Y1815780D01*
X29015090Y1794620D01*
X28983590Y1778750D01*
X28904860D01*
G01X27337930Y2413750D02*
Y2731250D01*
X27432420D01*
X27463910Y2715370D01*
X27487540Y2678330D01*
X27495410Y2636000D01*
X27487540Y2593670D01*
X27467850Y2561910D01*
X27432420Y2546030D01*
X27337930D01*
G01X27652890Y2731250D02*
Y2413750D01*
X27810370D01*
G01X27948160D02*
X28046590Y2731250D01*
X28145020Y2413750D01*
G01X28109580Y2524870D02*
X27983590D01*
G01X28361550Y2731250D02*
Y2413750D01*
G01X28271000Y2731250D02*
X28452100D01*
G01X28755250Y2413750D02*
X28597770D01*
Y2731250D01*
X28755250D01*
G01X28692260Y2577800D02*
X28597770D01*
G01X28904860Y2413750D02*
Y2731250D01*
X28983590D01*
X29015090Y2715370D01*
X29038710Y2694210D01*
X29058400Y2662460D01*
X29074150Y2625410D01*
X29078080Y2572500D01*
X29074150Y2519580D01*
X29058400Y2482540D01*
X29038710Y2450780D01*
X29015090Y2429620D01*
X28983590Y2413750D01*
X28904860D01*
G01X27337930Y3048750D02*
Y3366250D01*
X27432420D01*
X27463910Y3350370D01*
X27487540Y3313330D01*
X27495410Y3271000D01*
X27487540Y3228670D01*
X27467850Y3196910D01*
X27432420Y3181030D01*
X27337930D01*
G01X27652890Y3366250D02*
Y3048750D01*
X27810370D01*
G01X27948160D02*
X28046590Y3366250D01*
X28145020Y3048750D01*
G01X28109580Y3159870D02*
X27983590D01*
G01X28361550Y3366250D02*
Y3048750D01*
G01X28271000Y3366250D02*
X28452100D01*
G01X28755250Y3048750D02*
X28597770D01*
Y3366250D01*
X28755250D01*
G01X28692260Y3212800D02*
X28597770D01*
G01X28904860Y3048750D02*
Y3366250D01*
X28983590D01*
X29015090Y3350370D01*
X29038710Y3329210D01*
X29058400Y3297460D01*
X29074150Y3260410D01*
X29078080Y3207500D01*
X29074150Y3154580D01*
X29058400Y3117540D01*
X29038710Y3085780D01*
X29015090Y3064620D01*
X28983590Y3048750D01*
X28904860D01*
G01X27337930Y3683750D02*
Y4001250D01*
X27432420D01*
X27463910Y3985370D01*
X27487540Y3948330D01*
X27495410Y3906000D01*
X27487540Y3863670D01*
X27467850Y3831910D01*
X27432420Y3816030D01*
X27337930D01*
G01X27652890Y4001250D02*
Y3683750D01*
X27810370D01*
G01X27948160D02*
X28046590Y4001250D01*
X28145020Y3683750D01*
G01X28109580Y3794870D02*
X27983590D01*
G01X28361550Y4001250D02*
Y3683750D01*
G01X28271000Y4001250D02*
X28452100D01*
G01X28755250Y3683750D02*
X28597770D01*
Y4001250D01*
X28755250D01*
G01X28692260Y3847800D02*
X28597770D01*
G01X28904860Y3683750D02*
Y4001250D01*
X28983590D01*
X29015090Y3985370D01*
X29038710Y3964210D01*
X29058400Y3932460D01*
X29074150Y3895410D01*
X29078080Y3842500D01*
X29074150Y3789580D01*
X29058400Y3752540D01*
X29038710Y3720780D01*
X29015090Y3699620D01*
X28983590Y3683750D01*
X28904860D01*
G01X27337930Y4318750D02*
Y4636250D01*
X27432420D01*
X27463910Y4620370D01*
X27487540Y4583330D01*
X27495410Y4541000D01*
X27487540Y4498670D01*
X27467850Y4466910D01*
X27432420Y4451030D01*
X27337930D01*
G01X27652890Y4636250D02*
Y4318750D01*
X27810370D01*
G01X27948160D02*
X28046590Y4636250D01*
X28145020Y4318750D01*
G01X28109580Y4429870D02*
X27983590D01*
G01X28361550Y4636250D02*
Y4318750D01*
G01X28271000Y4636250D02*
X28452100D01*
G01X28755250Y4318750D02*
X28597770D01*
Y4636250D01*
X28755250D01*
G01X28692260Y4482800D02*
X28597770D01*
G01X28904860Y4318750D02*
Y4636250D01*
X28983590D01*
X29015090Y4620370D01*
X29038710Y4599210D01*
X29058400Y4567460D01*
X29074150Y4530410D01*
X29078080Y4477500D01*
X29074150Y4424580D01*
X29058400Y4387540D01*
X29038710Y4355780D01*
X29015090Y4334620D01*
X28983590Y4318750D01*
X28904860D01*
G01X27337930Y4953750D02*
Y5271250D01*
X27432420D01*
X27463910Y5255370D01*
X27487540Y5218330D01*
X27495410Y5176000D01*
X27487540Y5133670D01*
X27467850Y5101910D01*
X27432420Y5086030D01*
X27337930D01*
G01X27652890Y5271250D02*
Y4953750D01*
X27810370D01*
G01X27948160D02*
X28046590Y5271250D01*
X28145020Y4953750D01*
G01X28109580Y5064870D02*
X27983590D01*
G01X28361550Y5271250D02*
Y4953750D01*
G01X28271000Y5271250D02*
X28452100D01*
G01X28755250Y4953750D02*
X28597770D01*
Y5271250D01*
X28755250D01*
G01X28692260Y5117800D02*
X28597770D01*
G01X28904860Y4953750D02*
Y5271250D01*
X28983590D01*
X29015090Y5255370D01*
X29038710Y5234210D01*
X29058400Y5202460D01*
X29074150Y5165410D01*
X29078080Y5112500D01*
X29074150Y5059580D01*
X29058400Y5022540D01*
X29038710Y4990780D01*
X29015090Y4969620D01*
X28983590Y4953750D01*
X28904860D01*
G01X27337930Y5588750D02*
Y5906250D01*
X27432420D01*
X27463910Y5890370D01*
X27487540Y5853330D01*
X27495410Y5811000D01*
X27487540Y5768670D01*
X27467850Y5736910D01*
X27432420Y5721030D01*
X27337930D01*
G01X27652890Y5906250D02*
Y5588750D01*
X27810370D01*
G01X27948160D02*
X28046590Y5906250D01*
X28145020Y5588750D01*
G01X28109580Y5699870D02*
X27983590D01*
G01X28361550Y5906250D02*
Y5588750D01*
G01X28271000Y5906250D02*
X28452100D01*
G01X28755250Y5588750D02*
X28597770D01*
Y5906250D01*
X28755250D01*
G01X28692260Y5752800D02*
X28597770D01*
G01X28904860Y5588750D02*
Y5906250D01*
X28983590D01*
X29015090Y5890370D01*
X29038710Y5869210D01*
X29058400Y5837460D01*
X29074150Y5800410D01*
X29078080Y5747500D01*
X29074150Y5694580D01*
X29058400Y5657540D01*
X29038710Y5625780D01*
X29015090Y5604620D01*
X28983590Y5588750D01*
X28904860D01*
G01X27337930Y6223750D02*
Y6541250D01*
X27432420D01*
X27463910Y6525370D01*
X27487540Y6488330D01*
X27495410Y6446000D01*
X27487540Y6403670D01*
X27467850Y6371910D01*
X27432420Y6356030D01*
X27337930D01*
G01X27652890Y6541250D02*
Y6223750D01*
X27810370D01*
G01X27948160D02*
X28046590Y6541250D01*
X28145020Y6223750D01*
G01X28109580Y6334870D02*
X27983590D01*
G01X28361550Y6541250D02*
Y6223750D01*
G01X28271000Y6541250D02*
X28452100D01*
G01X28755250Y6223750D02*
X28597770D01*
Y6541250D01*
X28755250D01*
G01X28692260Y6387800D02*
X28597770D01*
G01X28904860Y6223750D02*
Y6541250D01*
X28983590D01*
X29015090Y6525370D01*
X29038710Y6504210D01*
X29058400Y6472460D01*
X29074150Y6435410D01*
X29078080Y6382500D01*
X29074150Y6329580D01*
X29058400Y6292540D01*
X29038710Y6260780D01*
X29015090Y6239620D01*
X28983590Y6223750D01*
X28904860D01*
G01X27337930Y6858750D02*
Y7176250D01*
X27432420D01*
X27463910Y7160370D01*
X27487540Y7123330D01*
X27495410Y7081000D01*
X27487540Y7038670D01*
X27467850Y7006910D01*
X27432420Y6991030D01*
X27337930D01*
G01X27652890Y7176250D02*
Y6858750D01*
X27810370D01*
G01X27948160D02*
X28046590Y7176250D01*
X28145020Y6858750D01*
G01X28109580Y6969870D02*
X27983590D01*
G01X28361550Y7176250D02*
Y6858750D01*
G01X28271000Y7176250D02*
X28452100D01*
G01X28755250Y6858750D02*
X28597770D01*
Y7176250D01*
X28755250D01*
G01X28692260Y7022800D02*
X28597770D01*
G01X28904860Y6858750D02*
Y7176250D01*
X28983590D01*
X29015090Y7160370D01*
X29038710Y7139210D01*
X29058400Y7107460D01*
X29074150Y7070410D01*
X29078080Y7017500D01*
X29074150Y6964580D01*
X29058400Y6927540D01*
X29038710Y6895780D01*
X29015090Y6874620D01*
X28983590Y6858750D01*
X28904860D01*
G01X27337930Y7493750D02*
Y7811250D01*
X27432420D01*
X27463910Y7795370D01*
X27487540Y7758330D01*
X27495410Y7716000D01*
X27487540Y7673670D01*
X27467850Y7641910D01*
X27432420Y7626030D01*
X27337930D01*
G01X27652890Y7811250D02*
Y7493750D01*
X27810370D01*
G01X27948160D02*
X28046590Y7811250D01*
X28145020Y7493750D01*
G01X28109580Y7604870D02*
X27983590D01*
G01X28361550Y7811250D02*
Y7493750D01*
G01X28271000Y7811250D02*
X28452100D01*
G01X28755250Y7493750D02*
X28597770D01*
Y7811250D01*
X28755250D01*
G01X28692260Y7657800D02*
X28597770D01*
G01X28904860Y7493750D02*
Y7811250D01*
X28983590D01*
X29015090Y7795370D01*
X29038710Y7774210D01*
X29058400Y7742460D01*
X29074150Y7705410D01*
X29078080Y7652500D01*
X29074150Y7599580D01*
X29058400Y7562540D01*
X29038710Y7530780D01*
X29015090Y7509620D01*
X28983590Y7493750D01*
X28904860D01*
G01X27337930Y8128750D02*
Y8446250D01*
X27432420D01*
X27463910Y8430370D01*
X27487540Y8393330D01*
X27495410Y8351000D01*
X27487540Y8308670D01*
X27467850Y8276910D01*
X27432420Y8261030D01*
X27337930D01*
G01X27652890Y8446250D02*
Y8128750D01*
X27810370D01*
G01X27948160D02*
X28046590Y8446250D01*
X28145020Y8128750D01*
G01X28109580Y8239870D02*
X27983590D01*
G01X28361550Y8446250D02*
Y8128750D01*
G01X28271000Y8446250D02*
X28452100D01*
G01X28755250Y8128750D02*
X28597770D01*
Y8446250D01*
X28755250D01*
G01X28692260Y8292800D02*
X28597770D01*
G01X28904860Y8128750D02*
Y8446250D01*
X28983590D01*
X29015090Y8430370D01*
X29038710Y8409210D01*
X29058400Y8377460D01*
X29074150Y8340410D01*
X29078080Y8287500D01*
X29074150Y8234580D01*
X29058400Y8197540D01*
X29038710Y8165780D01*
X29015090Y8144620D01*
X28983590Y8128750D01*
X28904860D01*
G01X30400920Y-713640D02*
X30424530Y-740090D01*
X30452090Y-755960D01*
X30487530Y-761250D01*
X30522970Y-750670D01*
X30550520Y-729510D01*
X30570210Y-692460D01*
X30574140Y-650130D01*
X30566270Y-607800D01*
X30546580Y-581330D01*
X30519020Y-560170D01*
X30491470Y-554880D01*
X30463910Y-560170D01*
X30428480Y-581330D01*
X30440290Y-443750D01*
X30546580D01*
G01X30802490D02*
X30770990Y-454330D01*
X30747370Y-480790D01*
X30731620Y-512540D01*
X30719810Y-554880D01*
X30715880Y-602500D01*
X30719810Y-650130D01*
X30731620Y-692460D01*
X30747370Y-724220D01*
X30770990Y-750670D01*
X30802490Y-761250D01*
X30833980Y-750670D01*
X30857610Y-724220D01*
X30873360Y-692460D01*
X30885170Y-650130D01*
X30889100Y-602500D01*
X30885170Y-554880D01*
X30873360Y-512540D01*
X30857610Y-480790D01*
X30833980Y-454330D01*
X30802490Y-443750D01*
G01X31042640Y-496670D02*
X31066270Y-464920D01*
X31093830Y-449040D01*
X31125330Y-443750D01*
X31164690Y-454330D01*
X31192260Y-480790D01*
X31200130Y-512540D01*
X31196190Y-544300D01*
X31180440Y-570750D01*
X31101700Y-623670D01*
X31066270Y-660710D01*
X31042640Y-713640D01*
X31034770Y-761250D01*
X31200130D01*
G01X30645010Y1143750D02*
Y1461250D01*
X30597770Y1397750D01*
G01Y1143750D02*
X30692250D01*
G01X30959970Y1461250D02*
X30928470Y1450670D01*
X30904850Y1424210D01*
X30889100Y1392460D01*
X30877290Y1350120D01*
X30873360Y1302500D01*
X30877290Y1254870D01*
X30889100Y1212540D01*
X30904850Y1180780D01*
X30928470Y1154330D01*
X30959970Y1143750D01*
X30991460Y1154330D01*
X31015090Y1180780D01*
X31030840Y1212540D01*
X31042650Y1254870D01*
X31046580Y1302500D01*
X31042650Y1350120D01*
X31030840Y1392460D01*
X31015090Y1424210D01*
X30991460Y1450670D01*
X30959970Y1461250D01*
G01X30645010Y2413750D02*
Y2731250D01*
X30597770Y2667750D01*
G01Y2413750D02*
X30692250D01*
G01X30885160Y2678330D02*
X30908790Y2710080D01*
X30936350Y2725960D01*
X30967850Y2731250D01*
X31007210Y2720670D01*
X31034780Y2694210D01*
X31042650Y2662460D01*
X31038710Y2630700D01*
X31022960Y2604250D01*
X30944220Y2551330D01*
X30908790Y2514290D01*
X30885160Y2461360D01*
X30877290Y2413750D01*
X31042650D01*
G01X30645010Y3048750D02*
Y3366250D01*
X30597770Y3302750D01*
G01Y3048750D02*
X30692250D01*
G01X30885160Y3181030D02*
X30912730Y3218090D01*
X30936350Y3239250D01*
X30967850Y3249830D01*
X30995410Y3239250D01*
X31015090Y3218090D01*
X31030840Y3186330D01*
X31034780Y3149290D01*
X31030840Y3117540D01*
X31015090Y3085780D01*
X30991460Y3059330D01*
X30963910Y3048750D01*
X30932410Y3059330D01*
X30904850Y3091070D01*
X30889100Y3138710D01*
X30885160Y3191620D01*
X30893040Y3260410D01*
X30904850Y3297460D01*
X30924530Y3334500D01*
X30952090Y3360960D01*
X30979650Y3366250D01*
X31007210Y3355670D01*
X31026900Y3329210D01*
G01X30645010Y3683750D02*
Y4001250D01*
X30597770Y3937750D01*
G01Y3683750D02*
X30692250D01*
G01X30959970Y4001250D02*
X30928470Y3990670D01*
X30904850Y3964210D01*
X30889100Y3932460D01*
X30877290Y3890120D01*
X30873360Y3842500D01*
X30877290Y3794870D01*
X30889100Y3752540D01*
X30904850Y3720780D01*
X30928470Y3694330D01*
X30959970Y3683750D01*
X30991460Y3694330D01*
X31015090Y3720780D01*
X31030840Y3752540D01*
X31042650Y3794870D01*
X31046580Y3842500D01*
X31042650Y3890120D01*
X31030840Y3932460D01*
X31015090Y3964210D01*
X30991460Y3990670D01*
X30959970Y4001250D01*
G01X30645010Y4318750D02*
Y4636250D01*
X30597770Y4572750D01*
G01Y4318750D02*
X30692250D01*
G01X30885160Y4451030D02*
X30912730Y4488090D01*
X30936350Y4509250D01*
X30967850Y4519830D01*
X30995410Y4509250D01*
X31015090Y4488090D01*
X31030840Y4456330D01*
X31034780Y4419290D01*
X31030840Y4387540D01*
X31015090Y4355780D01*
X30991460Y4329330D01*
X30963910Y4318750D01*
X30932410Y4329330D01*
X30904850Y4361070D01*
X30889100Y4408710D01*
X30885160Y4461620D01*
X30893040Y4530410D01*
X30904850Y4567460D01*
X30924530Y4604500D01*
X30952090Y4630960D01*
X30979650Y4636250D01*
X31007210Y4625670D01*
X31026900Y4599210D01*
G01X30645010Y5588750D02*
Y5906250D01*
X30597770Y5842750D01*
G01Y5588750D02*
X30692250D01*
G01X30959970Y5906250D02*
X30928470Y5895670D01*
X30904850Y5869210D01*
X30889100Y5837460D01*
X30877290Y5795120D01*
X30873360Y5747500D01*
X30877290Y5699870D01*
X30889100Y5657540D01*
X30904850Y5625780D01*
X30928470Y5599330D01*
X30959970Y5588750D01*
X30991460Y5599330D01*
X31015090Y5625780D01*
X31030840Y5657540D01*
X31042650Y5699870D01*
X31046580Y5747500D01*
X31042650Y5795120D01*
X31030840Y5837460D01*
X31015090Y5869210D01*
X30991460Y5895670D01*
X30959970Y5906250D01*
G01X30534770Y7493750D02*
Y7811250D01*
X30389100Y7583710D01*
X30585960D01*
G01X30802490Y7811250D02*
X30770990Y7800670D01*
X30747370Y7774210D01*
X30731620Y7742460D01*
X30719810Y7700120D01*
X30715880Y7652500D01*
X30719810Y7604870D01*
X30731620Y7562540D01*
X30747370Y7530780D01*
X30770990Y7504330D01*
X30802490Y7493750D01*
X30833980Y7504330D01*
X30857610Y7530780D01*
X30873360Y7562540D01*
X30885170Y7604870D01*
X30889100Y7652500D01*
X30885170Y7700120D01*
X30873360Y7742460D01*
X30857610Y7774210D01*
X30833980Y7800670D01*
X30802490Y7811250D01*
G01X31164690Y7493750D02*
Y7811250D01*
X31019020Y7583710D01*
X31215880D01*
G01X30487530Y8128750D02*
X30456030Y8134040D01*
X30428480Y8155200D01*
X30404850Y8186960D01*
X30389100Y8224000D01*
X30381230Y8266330D01*
Y8308670D01*
X30389100Y8351000D01*
X30404850Y8388040D01*
X30428480Y8419790D01*
X30456030Y8440960D01*
X30487530Y8446250D01*
X30519020Y8440960D01*
X30546580Y8419790D01*
X30570210Y8388040D01*
X30585960Y8351000D01*
X30593830Y8308670D01*
Y8266330D01*
X30585960Y8224000D01*
X30570210Y8186960D01*
X30546580Y8155200D01*
X30519020Y8134040D01*
X30487530Y8128750D01*
G01X30519020Y8213420D02*
X30566270Y8128750D01*
G01X30802490Y8446250D02*
Y8128750D01*
G01X30711940Y8446250D02*
X30893040D01*
G01X31117450Y8128750D02*
Y8271620D01*
X31038710Y8446250D01*
G01X31196190D02*
X31117450Y8271620D01*
G01X30802490Y-126250D02*
Y191250D01*
X30755250Y127750D01*
G01Y-126250D02*
X30849730D01*
G01X30727680Y773330D02*
X30751310Y805080D01*
X30778870Y820960D01*
X30810370Y826250D01*
X30849730Y815670D01*
X30877300Y789210D01*
X30885170Y757460D01*
X30881230Y725700D01*
X30865480Y699250D01*
X30786740Y646330D01*
X30751310Y609290D01*
X30727680Y556360D01*
X30719810Y508750D01*
X30885170D01*
G01X30802490Y1778750D02*
X30830050Y1784040D01*
X30861540Y1799910D01*
X30881230Y1826360D01*
X30889100Y1863420D01*
X30881230Y1900450D01*
X30857610Y1932200D01*
X30822170Y1948090D01*
X30782810D01*
X30759180Y1958670D01*
X30739490Y1985120D01*
X30731620Y2022160D01*
X30743440Y2059210D01*
X30770990Y2085670D01*
X30802490Y2096250D01*
X30833980Y2085670D01*
X30861540Y2059210D01*
X30873360Y2022160D01*
X30865480Y1985120D01*
X30845800Y1958670D01*
X30822170Y1948090D01*
X30782810D01*
X30747370Y1932200D01*
X30723750Y1900450D01*
X30715880Y1863420D01*
X30723750Y1826360D01*
X30743440Y1799910D01*
X30774930Y1784040D01*
X30802490Y1778750D01*
G01Y4953750D02*
X30830050Y4959040D01*
X30861540Y4974910D01*
X30881230Y5001360D01*
X30889100Y5038420D01*
X30881230Y5075450D01*
X30857610Y5107200D01*
X30822170Y5123090D01*
X30782810D01*
X30759180Y5133670D01*
X30739490Y5160120D01*
X30731620Y5197160D01*
X30743440Y5234210D01*
X30770990Y5260670D01*
X30802490Y5271250D01*
X30833980Y5260670D01*
X30861540Y5234210D01*
X30873360Y5197160D01*
X30865480Y5160120D01*
X30845800Y5133670D01*
X30822170Y5123090D01*
X30782810D01*
X30747370Y5107200D01*
X30723750Y5075450D01*
X30715880Y5038420D01*
X30723750Y5001360D01*
X30743440Y4974910D01*
X30774930Y4959040D01*
X30802490Y4953750D01*
G01X30727680Y6488330D02*
X30751310Y6520080D01*
X30778870Y6535960D01*
X30810370Y6541250D01*
X30849730Y6530670D01*
X30877300Y6504210D01*
X30885170Y6472460D01*
X30881230Y6440700D01*
X30865480Y6414250D01*
X30786740Y6361330D01*
X30751310Y6324290D01*
X30727680Y6271360D01*
X30719810Y6223750D01*
X30885170D01*
G01X30715880Y6922250D02*
X30739490Y6885200D01*
X30770990Y6864040D01*
X30806430Y6858750D01*
X30837930Y6864040D01*
X30869420Y6890490D01*
X30889100Y6922250D01*
X30893040Y6954000D01*
X30885170Y6991030D01*
X30857610Y7017500D01*
X30830050Y7028090D01*
X30794610D01*
G01X30830050D02*
X30853670Y7043960D01*
X30873360Y7070410D01*
X30881230Y7102160D01*
X30873360Y7133920D01*
X30853670Y7160370D01*
X30818240Y7176250D01*
X30782810Y7170960D01*
X30747370Y7149790D01*
G01X-250000Y0D02*
X-3030000D01*
G01X-2780000Y3394260D02*
Y0D01*
G01X-2842500Y400000D02*
X-2780000Y0D01*
X-2717500Y400000D01*
X-2842500D01*
G01X-2780000Y3885740D02*
Y9000000D01*
G01X-2717500Y8600000D02*
X-2780000Y9000000D01*
X-2842500Y8600000D01*
X-2717500D01*
G01X-220000Y9000000D02*
X-3030000D01*
G01X-250000Y0D02*
X-2400000D01*
G01X-2212500Y400000D02*
X-2150000Y0D01*
X-2087500Y400000D01*
X-2212500D01*
G01X70000Y8680000D02*
X-2400000D01*
G01X-2087500Y8280000D02*
X-2150000Y8680000D01*
X-2212500Y8280000D01*
X-2087500D01*
G01X-250000Y0D02*
X-1720000D01*
G01X-2150000Y2814260D02*
Y0D01*
G01Y3305740D02*
Y8680000D01*
G01X70000Y8050000D02*
X-1720000D01*
G01X-250000Y0D02*
X-1370000D01*
G01X-1470000Y2104260D02*
Y0D01*
G01X-1532500Y400000D02*
X-1470000Y0D01*
X-1407500Y400000D01*
X-1532500D01*
G01X70000Y950000D02*
X-1370000D01*
G01X-1470000Y2595740D02*
Y8050000D01*
G01X-1407500Y7650000D02*
X-1470000Y8050000D01*
X-1532500Y7650000D01*
X-1407500D01*
G01X-800000Y-280000D02*
X0D01*
G01X-250000Y0D02*
X-820000D01*
G01X-1120000Y950000D02*
Y0D01*
G01X-1182500Y400000D02*
X-1120000Y0D01*
X-1057500Y400000D01*
X-1182500D01*
G01X70000Y320000D02*
X-820000D01*
G01X-1057500Y550000D02*
X-1120000Y950000D01*
X-1182500Y550000D01*
X-1057500D01*
G01X-1120000Y1124260D02*
Y950000D01*
G01X-570000Y-800000D02*
Y0D01*
G01X-507500Y-400000D02*
X-570000Y0D01*
X-632500Y-400000D01*
X-507500D01*
G01X-400000Y-342500D02*
X0Y-280000D01*
X-400000Y-217500D01*
Y-342500D01*
G01X-570000Y584260D02*
Y320000D01*
G01X-632500Y720000D02*
X-570000Y320000D01*
X-507500Y720000D01*
X-632500D01*
G01X0Y-250000D02*
Y-1990000D01*
G01X5637890Y-1740000D02*
X0D01*
G01X400000Y-1677500D02*
X0Y-1740000D01*
X400000Y-1802500D01*
Y-1677500D01*
G01X0Y-250000D02*
Y-1520000D01*
G01X4537390Y-1270000D02*
X0D01*
G01X400000Y-1207500D02*
X0Y-1270000D01*
X400000Y-1332500D01*
Y-1207500D01*
G01X0Y-250000D02*
Y-810000D01*
G01Y-250000D02*
Y-1190000D01*
G01X2412640Y-940000D02*
X0D01*
G01X400000Y-877500D02*
X0Y-940000D01*
X400000Y-1002500D01*
Y-877500D01*
G01X0Y-250000D02*
Y-530000D01*
G01X1803140Y-560000D02*
X0D01*
G01X400000Y-497500D02*
X0Y-560000D01*
X400000Y-622500D01*
Y-497500D01*
G01X320000Y70000D02*
Y-530000D01*
G01X777890Y-280000D02*
X320000D01*
G01X720000Y-217500D02*
X320000Y-280000D01*
X720000Y-342500D01*
Y-217500D01*
G01X2436860Y-560000D02*
X7500000D01*
G01X3427360Y-940000D02*
X9150000D01*
G01X5742610Y-1270000D02*
X14680000D01*
G01X6462110Y-1740000D02*
X15000000D01*
G01X7100000Y-622500D02*
X7500000Y-560000D01*
X7100000Y-497500D01*
Y-622500D01*
G01X7500000Y70000D02*
Y-810000D01*
G01X9150000Y8430000D02*
Y-1190000D01*
G01X8750000Y-1002500D02*
X9150000Y-940000D01*
X8750000Y-877500D01*
Y-1002500D01*
G01X14600000Y-1802500D02*
X15000000Y-1740000D01*
X14600000Y-1677500D01*
Y-1802500D01*
G01X14280000Y-1332500D02*
X14680000Y-1270000D01*
X14280000Y-1207500D01*
Y-1332500D01*
G01X15000000Y-250000D02*
Y-1990000D01*
G01X14680000Y70000D02*
Y-1520000D01*
G01X15960000Y-285000D02*
Y9890000D01*
X31786740D01*
Y-285000D01*
X15960000D01*
G01Y350000D02*
X31786740D01*
G01X15960000Y985000D02*
X31786740D01*
G01X15960000Y1620000D02*
X31786740D01*
G01X15960000Y2255000D02*
X31786740D01*
G01X15960000Y2890000D02*
X31786740D01*
G01X15960000Y3525000D02*
X31786740D01*
G01X15960000Y4160000D02*
X31786740D01*
G01X15960000Y4795000D02*
X31786740D01*
G01X15960000Y5430000D02*
X31786740D01*
G01X15960000Y6065000D02*
X31786740D01*
G01X15960000Y6700000D02*
X31786740D01*
G01X15960000Y7335000D02*
X31786740D01*
G01X15960000Y7970000D02*
X31786740D01*
G01X15960000Y8605000D02*
X31786740D01*
G01X15960000Y9240000D02*
X31786740D01*
G01X18243460Y8605000D02*
Y-285000D01*
G01X23361560Y8605000D02*
Y-285000D01*
G01X26589900Y8605000D02*
Y-285000D01*
G01X29818240Y8605000D02*
Y-285000D01*
G54D14*
X1210000Y8810000D03*
X1718000D03*
X1464000D03*
X1972000D03*
X2560000D03*
X2814000D03*
X3350000D03*
X3604000D03*
X4112000D03*
X3858000D03*
X4680000D03*
X5188000D03*
X4934000D03*
X5442000D03*
X13390000Y6190000D03*
Y6444000D03*
X17101730Y4477500D03*
G54D15*
X2870000Y590000D03*
Y1190000D03*
X17101730Y667500D03*
G54D16*
X3350000Y910000D03*
X17101730Y32500D03*
G54D17*
X4350000Y1085000D03*
X4830000D03*
X5310000D03*
X13915000Y1610000D03*
Y2090000D03*
Y2570000D03*
Y4590000D03*
Y5070000D03*
Y5550000D03*
Y6300000D03*
Y6780000D03*
Y7260000D03*
X17101730Y2572500D03*
G54D18*
X5149420Y6590000D03*
X5909420D03*
X17101730Y6382500D03*
G54D19*
X6625000Y8460000D03*
X6875000D03*
X7125000D03*
X7375000D03*
X7625000D03*
X7875000D03*
X8125000D03*
X8820000Y6590000D03*
X8375000Y8460000D03*
X9320000Y6590000D03*
X17101730Y5747500D03*
M02*
