M48
METRIC,TZ
T01C.3048
T02C.6
T03C.8
T04C.9
T05C1.
T06C1.1
T07C1.2
T08C1.3
T09C1.6
T10C1.8
T11C3.1
;LEADER: 12 
;HEADER: 
;CODE  : ASCII 
;FILE  : JY02_V10_220108-1-2.drl for board G:/github/MotorDriver/HARDWARE/JY02_V10_220108/PCB/#Taaaaek08440.tmp ... layers TOP and BOTTOM
;T01 Holesize 1. = 0.304800 Tolerance = +0.000000/-0.000000 PLATED MM Quantity = 404
;T02 Holesize 2. = 0.600000 Tolerance = +0.000000/-0.000000 PLATED MM Quantity = 3
;T03 Holesize 3. = 0.800000 Tolerance = +0.000000/-0.000000 PLATED MM Quantity = 2
;T04 Holesize 4. = 0.900000 Tolerance = +0.000000/-0.000000 PLATED MM Quantity = 10
;T05 Holesize 5. = 1.000000 Tolerance = +0.000000/-0.000000 PLATED MM Quantity = 8
;T06 Holesize 6. = 1.100000 Tolerance = +0.000000/-0.000000 PLATED MM Quantity = 16
;T07 Holesize 7. = 1.200000 Tolerance = +0.000000/-0.000000 PLATED MM Quantity = 10
;T08 Holesize 8. = 1.300000 Tolerance = +0.000000/-0.000000 PLATED MM Quantity = 16
;T09 Holesize 9. = 1.600000 Tolerance = +0.000000/-0.000000 PLATED MM Quantity = 12
;T10 Holesize 10. = 1.800000 Tolerance = +0.000000/-0.000000 PLATED MM Quantity = 8
;T11 Holesize 11. = 3.100000 Tolerance = +0.000000/-0.000000 PLATED MM Quantity = 10
%
G90
T01
X1246800Y270200
X1746800Y270200
X2246800Y270200
X2746800Y270200
X3246800Y270200
X3879520Y683470
X4379520Y683470
X4879520Y683470
X5379520Y683470
X7915900Y136890
X7915900Y336890
X7915900Y536890
X7915900Y736890
X8285900Y136890
X8285900Y336890
X8285900Y536890
X9323110Y85900
X9323110Y285900
X9460000Y760000
X9523110Y85900
X9523110Y285900
X9570000Y760000
X9680000Y760000
X9723110Y85900
X9723110Y285900
X9800000Y760000
X9923110Y85900
X9923110Y285900
X10365900Y86890
X10365900Y286890
X10365900Y486890
X11443110Y95900
X11443110Y295900
X11643110Y95900
X11643110Y295900
X11843110Y95900
X11843110Y295900
X12043110Y95900
X12043110Y295900
X12475900Y96890
X12475900Y296890
X12475900Y496890
X13553110Y95900
X13553110Y295900
X13753110Y95900
X13753110Y295900
X13953110Y95900
X13953110Y295900
X14153110Y95900
X14153110Y295900
X14000000Y860000
X14000000Y780000
X13946890Y994100
X13880000Y860000
X13880000Y780000
X13770000Y860000
X13770000Y780000
X13746890Y994100
X13660000Y860000
X13660000Y780000
X13336890Y1394100
X13136890Y1394100
X12936890Y1394100
X12125900Y1426890
X12125900Y1226890
X12125900Y1026890
X11910000Y850000
X11910000Y770000
X11790000Y850000
X11790000Y770000
X11680000Y850000
X11680000Y770000
X11666890Y984100
X11570000Y850000
X11570000Y770000
X11466890Y984100
X11246890Y1394100
X11046890Y1394100
X10846890Y1394100
X10035900Y1396890
X10035900Y1196890
X10035900Y996890
X9800000Y840000
X9796890Y994100
X9680000Y840000
X9596890Y994100
X9570000Y840000
X9460000Y840000
X9396890Y994100
X9146890Y1394100
X8946890Y1394100
X8746890Y1394100
X6560000Y1110000
X6090000Y1105000
X2228050Y1720280
X2728050Y1720280
X3298050Y2220280
X3615000Y1935000
X3715000Y1615000
X3765000Y1935000
X3798050Y2220280
X3815000Y1615000
X3865000Y1935000
X4300000Y1800000
X4460000Y1800000
X5290000Y1750000
X5290000Y1830000
X5360000Y1750000
X5360000Y1830000
X5508050Y1990280
X5508050Y2220280
X6008050Y1990280
X6008050Y2220280
X6560000Y1990000
X9864350Y2214100
X10364350Y2214100
X14583830Y1724280
X14583830Y2224280
X14583830Y2724280
X13532780Y2351860
X13032780Y2351860
X12532780Y2351860
X12010000Y2730000
X11915000Y2690000
X11790000Y2510000
X11555000Y2690000
X11400000Y2510000
X11045000Y2655000
X10950000Y2460000
X10780000Y2970000
X10364350Y2714100
X9864350Y2714100
X7976550Y2867180
X7976550Y2367180
X7088050Y2940280
X6588050Y2940280
X5308050Y2960280
X4810000Y2350000
X4808050Y2960280
X3976430Y2606990
X3476430Y2606990
X2976430Y2606990
X2476430Y2606990
X2308050Y3520280
X2808050Y3520280
X3308050Y3520280
X3808050Y3520280
X4308050Y3520280
X4808050Y3520280
X5308050Y3520280
X6050000Y3680000
X6260000Y3680000
X6540000Y3690000
X6630000Y3190000
X6700000Y3650000
X6760000Y3190000
X7020000Y3700000
X7976550Y3367180
X9440000Y3570000
X10735000Y3215000
X10820000Y3480000
X11060000Y3480000
X11060000Y3780000
X11200000Y3285000
X11200000Y3390000
X11230000Y3780000
X11360000Y3570000
X11480000Y3390000
X11560000Y3285000
X11641700Y3478300
X11640000Y3570000
X11830000Y3440000
X11920000Y3285000
X11920000Y3570000
X12040000Y3690000
X12710000Y3690000
X12716440Y3068210
X12716440Y3418210
X13030000Y3690000
X13216440Y3068210
X13216440Y3418210
X14583830Y3224280
X14583830Y3724280
X14583830Y4224280
X13042500Y4122500
X13031600Y3911600
X12977500Y4430000
X12870000Y4430000
X12710000Y4100000
X12522500Y4467500
X12522500Y4100000
X12040000Y4170000
X11830000Y4060000
X11650000Y4060000
X11510000Y4430000
X11500000Y4060000
X11060000Y4480000
X11060000Y4240000
X10970000Y4565000
X10680000Y4360000
X10680000Y4120000
X10575000Y4565000
X10300000Y4360000
X10300000Y4120000
X10200000Y4565000
X9735900Y4506890
X7980000Y4400000
X7976550Y3867180
X7240000Y3815000
X7090040Y4480040
X7024420Y4415580
X6974420Y4154420
X6924420Y4414420
X6270000Y4100000
X6110000Y4100000
X5915000Y3905000
X5755000Y4345000
X5540000Y4460000
X5308050Y4020280
X4808050Y4020280
X4308050Y4020280
X3808050Y4020280
X3308050Y4020280
X2808050Y4020280
X2308050Y4020280
X2174990Y4888290
X2674990Y4888290
X3174990Y4888290
X3674990Y4888290
X4174990Y4888290
X4674990Y4888290
X4945000Y5145000
X5290000Y5320000
X5940040Y4980040
X6760000Y5080040
X6900000Y5010000
X6899960Y5180040
X7090040Y4630040
X7090040Y4730040
X7100000Y4930000
X7100000Y5150000
X7450000Y4600000
X7620000Y5140000
X7870000Y4680040
X7870000Y4830040
X8170000Y5130000
X8790000Y5120000
X9735900Y4706890
X9735900Y4906890
X9735900Y5106890
X9735900Y5296890
X9935900Y5106890
X9935900Y5296890
X9970000Y4950000
X10150000Y5110000
X10230000Y4700000
X10350000Y4950000
X10610000Y4700000
X10650000Y4950000
X10750000Y5200000
X10860000Y5090000
X10970000Y4890000
X11400000Y5010000
X11557250Y4710000
X12150000Y4730000
X12260000Y5020000
X12350000Y5030000
X12522500Y4730000
X12587500Y5037500
X12652500Y4730000
X12717500Y5037500
X12782500Y4730000
X12912500Y4730000
X13522590Y4663140
X13522590Y5163140
X14583830Y4724280
X14583830Y5224280
X14583830Y5724280
X13522590Y5663140
X12990000Y5780000
X12760000Y5690000
X12405000Y5775000
X12140000Y5780000
X11880000Y5775000
X11880000Y5690000
X11520000Y5690000
X11305000Y5695000
X11120000Y5950000
X10880000Y5690000
X10630000Y5690000
X10150000Y5880000
X10150000Y5700000
X9935900Y5876890
X9935900Y5696890
X9935900Y5496890
X9735900Y5696890
X9735900Y5496890
X8790000Y5450000
X8170000Y5460000
X7930000Y5953500
X7710000Y6070000
X7710000Y5930000
X7635000Y5595000
X7100000Y5870000
X7100000Y5590000
X6820000Y6080000
X6240000Y5880000
X6135000Y5685000
X5154990Y5918290
X5154990Y5418290
X4654990Y5918290
X4654990Y5418290
X4154990Y5918290
X4154990Y5418290
X3654990Y5918290
X3654990Y5418290
X3154990Y5918290
X3154990Y5418290
X2654990Y5918290
X2654990Y5418290
X2154990Y5918290
X2154990Y5418290
X540000Y6540000
X540000Y6620000
X620000Y6540000
X620000Y6620000
X4354020Y6852000
X6415000Y6825000
X6750000Y6770000
X6845000Y6525000
X7110000Y6620000
X7110000Y6770000
X7280000Y6350000
X7690000Y6460000
X8120000Y6340000
X8790000Y6330000
X10350000Y6530000
X10350000Y6600000
X10350000Y6680000
X10350000Y6750000
X10420000Y6530000
X10420000Y6600000
X10420000Y6680000
X10420000Y6750000
X10510000Y6360000
X10530000Y6750000
X10600000Y6750000
X10890000Y6210000
X11320000Y6560000
X11320000Y6630000
X11320000Y6730000
X11390000Y6290000
X11390000Y6730000
X11470000Y6730000
X11540000Y6730000
X11780000Y6200000
X12300000Y6560000
X12300000Y6630000
X12300000Y6730000
X12370000Y6730000
X12450000Y6730000
X12520000Y6730000
X13522590Y6663140
X14583830Y6224280
X14583830Y6724280
X14583830Y7224280
X13971550Y7581580
X13471550Y7581580
X12971550Y7581580
X8218290Y7315010
X7970000Y6960000
X7718290Y7315010
X7110000Y6920000
X6343870Y7408130
X5486700Y7617310
X5486700Y7117310
X4354020Y7352000
X3694990Y7208290
X3284990Y7228290
X2664990Y7108290
X2164990Y7108290
X1664990Y7108290
X1164990Y7108290
X840000Y7160000
X664990Y7108290
X164990Y7108290
X1174990Y7898290
X1674990Y7898290
X2174990Y7898290
X2674990Y7898290
X3284990Y7728290
X3694990Y7708290
X4354020Y7852000
X6343870Y7908130
X8134990Y7748290
X8134990Y8248290
X9018290Y7965010
X9518290Y7965010
X10110000Y7960000
X10629670Y8739800
X10129670Y8739800
X9629670Y8739800
X5820000Y8390000
X5635000Y8475000
T02
X14060000Y3320000
X14060000Y3570000
X14060000Y3820000
T03
X5149420Y6590000
X5909420Y6590000
T04
X6625000Y8460000
X6875000Y8460000
X7125000Y8460000
X7375000Y8460000
X7625000Y8460000
X7875000Y8460000
X8125000Y8460000
X8375000Y8460000
X8820000Y6590000
X9320000Y6590000
T05
X11880000Y8300000
X12180000Y8300000
X12480000Y8300000
X12780000Y8300000
X13080000Y8300000
X13380000Y8300000
X13680000Y8300000
X13980000Y8300000
T06
X13390000Y6190000
X13390000Y6444000
X5442000Y8810000
X5188000Y8810000
X4934000Y8810000
X4680000Y8810000
X4112000Y8810000
X3858000Y8810000
X3604000Y8810000
X3350000Y8810000
X2814000Y8810000
X2560000Y8810000
X1972000Y8810000
X1718000Y8810000
X1464000Y8810000
X1210000Y8810000
T07
X1159000Y760000
X1921000Y760000
X4165000Y163000
X5495000Y163000
X14837000Y1425000
X14837000Y2755000
X14837000Y4405000
X14837000Y5735000
X14837000Y6115000
X14837000Y7445000
T08
X165000Y1670000
X165000Y2170000
X165000Y2950000
X165000Y3450000
X165000Y4230000
X165000Y4730000
X165000Y5510000
X165000Y6010000
X1415000Y6010000
X1415000Y5510000
X1415000Y4730000
X1415000Y4230000
X1415000Y3450000
X1415000Y2950000
X1415000Y2170000
X1415000Y1670000
T09
X4350000Y1085000
X4830000Y1085000
X5310000Y1085000
X13915000Y1610000
X13915000Y2090000
X13915000Y2570000
X13915000Y4590000
X13915000Y5070000
X13915000Y5550000
X13915000Y6300000
X13915000Y6780000
X13915000Y7260000
T10
X9870000Y7260000
X10290000Y7260000
X10710000Y7260000
X11130000Y7260000
X11130000Y7810000
X10710000Y7810000
X10290000Y7810000
X9870000Y7810000
T11
X320000Y320000
X320000Y950000
X7500000Y320000
X14680000Y320000
X14680000Y950000
X14680000Y8680000
X14680000Y8050000
X9150000Y8680000
X320000Y8680000
X320000Y8050000
M30
