G04 ================== begin FILE IDENTIFICATION RECORD ==================*
G04 Layout Name:  JY02_V10_220108.brd*
G04 Film Name:    SolderMask_Bottom*
G04 File Format:  Gerber RS274X*
G04 File Origin:  Cadence Allegro 17.2-S071*
G04 Origin Date:  Sat Mar 12 10:20:53 2022*
G04 *
G04 Layer:  BOARD GEOMETRY/SOLDERMASK_BOTTOM*
G04 Layer:  PACKAGE GEOMETRY/SOLDERMASK_BOTTOM*
G04 Layer:  PIN/SOLDERMASK_BOTTOM*
G04 *
G04 Offset:    (0.0000 0.0000)*
G04 Mirror:    No*
G04 Mode:      Positive*
G04 Rotation:  0*
G04 FullContactRelief:  No*
G04 UndefLineWidth:     0.1524*
G04 ================== end FILE IDENTIFICATION RECORD ====================*
%FSLAX55Y55*MOMM*%
%IR0*IPPOS*OFA0.00000B0.00000*MIA0B0*SFA1.00000B1.00000*%
%ADD15O,4.15X2.15*%
%ADD24C,1.1*%
%ADD16O,2.15X4.15*%
%ADD11C,2.1*%
%ADD18C,1.4*%
%ADD12C,2.3*%
%ADD17C,2.4*%
%ADD21C,2.6*%
%ADD19C,1.7*%
%ADD14C,1.9*%
%ADD23C,1.75*%
%ADD20R,1.7X1.7*%
%ADD10C,6.45*%
%ADD22R,1.8X1.8*%
%ADD13R,1.9X1.9*%
%LPD*%
G75*
G54D10*
X320000Y320000D03*
Y950000D03*
Y8050000D03*
Y8680000D03*
X7500000Y320000D03*
X9150000Y8680000D03*
X14680000Y320000D03*
Y950000D03*
Y8050000D03*
Y8680000D03*
G54D20*
X8375000Y8460000D03*
G54D11*
X165000Y1670000D03*
Y2170000D03*
Y2950000D03*
Y3450000D03*
Y4230000D03*
Y4730000D03*
Y5510000D03*
Y6010000D03*
X1415000Y1670000D03*
Y2170000D03*
Y2950000D03*
Y3450000D03*
Y4230000D03*
Y4730000D03*
Y5510000D03*
Y6010000D03*
G54D21*
X10290000Y7260000D03*
X9870000D03*
X10290000Y7810000D03*
X9870000D03*
X10710000Y7260000D03*
Y7810000D03*
X11130000Y7260000D03*
Y7810000D03*
G54D12*
X1159000Y760000D03*
X1921000D03*
X4165000Y163000D03*
X5495000D03*
X14837000Y1425000D03*
Y2755000D03*
Y4405000D03*
Y5735000D03*
Y6115000D03*
Y7445000D03*
G54D13*
X1210000Y8810000D03*
X2560000D03*
X3350000D03*
X4680000D03*
X13390000Y6190000D03*
G54D22*
X11880000Y8300000D03*
G54D23*
X12180000D03*
X12480000D03*
X13080000D03*
X12780000D03*
X13680000D03*
X13380000D03*
X13980000D03*
G54D14*
X1718000Y8810000D03*
X1464000D03*
X1972000D03*
X2814000D03*
X3604000D03*
X4112000D03*
X3858000D03*
X5188000D03*
X4934000D03*
X5442000D03*
X8820000Y6590000D03*
X9320000D03*
X13390000Y6444000D03*
G54D24*
X14060000Y3320000D03*
Y3570000D03*
Y3820000D03*
G54D15*
X2870000Y590000D03*
Y1190000D03*
G54D16*
X3350000Y910000D03*
G54D17*
X4350000Y1085000D03*
X4830000D03*
X5310000D03*
X13915000Y1610000D03*
Y2090000D03*
Y2570000D03*
Y4590000D03*
Y5070000D03*
Y5550000D03*
Y6300000D03*
Y6780000D03*
Y7260000D03*
G54D18*
X5149420Y6590000D03*
X5909420D03*
G54D19*
X6625000Y8460000D03*
X6875000D03*
X7125000D03*
X7375000D03*
X7625000D03*
X7875000D03*
X8125000D03*
M02*
