G04 ================== begin FILE IDENTIFICATION RECORD ==================*
G04 Layout Name:  MM32SPIN27PF_V10_220608.brd*
G04 Film Name:    BOTTOM*
G04 File Format:  Gerber RS274X*
G04 File Origin:  Cadence Allegro 17.2-S079*
G04 Origin Date:  Mon Jun 13 16:00:24 2022*
G04 *
G04 Layer:  ETCH/BOTTOM*
G04 Layer:  PIN/BOTTOM*
G04 Layer:  VIA CLASS/BOTTOM*
G04 *
G04 Offset:    (0.0000 0.0000)*
G04 Mirror:    No*
G04 Mode:      Positive*
G04 Rotation:  0*
G04 FullContactRelief:  No*
G04 UndefLineWidth:     0.1524*
G04 ================== end FILE IDENTIFICATION RECORD ====================*
%FSLAX55Y55*MOMM*%
%IR0*IPPOS*OFA0.00000B0.00000*MIA0B0*SFA1.00000B1.00000*%
%ADD12C,.508*%
%ADD15O,1.X2.1*%
%ADD14O,4.X2.*%
%ADD17O,2.X4.*%
%ADD16O,1.X1.6*%
%ADD13C,1.*%
%ADD18C,2.2*%
%ADD20C,2.3*%
%ADD24C,2.5*%
%ADD19R,1.X1.*%
%ADD22C,1.8*%
%ADD11C,1.65*%
%ADD10C,6.9*%
%ADD21R,1.8X1.8*%
%ADD23R,1.9X1.9*%
%ADD25C,.2032*%
%ADD26C,.254*%
%ADD27C,.7112*%
%ADD30C,1.2004*%
%ADD31C,3.1148*%
%ADD32C,3.2148*%
%ADD35C,3.4148*%
%ADD34C,2.7148*%
%ADD33C,1.9148*%
%ADD28O,1.9148X2.5148*%
%ADD29O,2.9148X4.9148*%
G75*
%LPD*%
G75*
G36*
G01X630310Y9970000D02*
X5202180D01*
Y9953380D01*
X5196320Y9950640D01*
G03X5180470Y9939530I23677J-50640D01*
G01X5010470Y9769530D01*
G03X4994100Y9730000I39543J-39530D01*
G01Y8756440D01*
X4976080D01*
X4974110Y8764050D01*
G03X4959530Y8789530I-54108J-14050D01*
G01X4799530Y8949530D01*
G03X4760000Y8965900I-39530J-39543D01*
G01X3604000D01*
G03X3560000Y8981140I-44000J-55897D01*
G03Y8838860I0J-71140D01*
G03X3604000Y8854100I0J71137D01*
G01X4736850D01*
X4864100Y8726850D01*
Y8114000D01*
G03Y8026000I55897J-44000D01*
G01Y7974000D01*
G03Y7886000I55897J-44000D01*
G01Y7553150D01*
X4826850Y7515900D01*
X4504000D01*
G03X4460000Y7531140I-44000J-55897D01*
G03Y7388860I0J-71140D01*
G03X4504000Y7404100I0J71137D01*
G01X4850000D01*
G03X4889530Y7420470I0J55913D01*
G01X4959530Y7490470D01*
G03X4974110Y7515950I-39528J39530D01*
G01X4976080Y7523560D01*
X4994100D01*
Y7413150D01*
X4936850Y7355900D01*
X3994000D01*
G03X3950000Y7371140I-44000J-55897D01*
G03X3878860Y7300000I0J-71140D01*
G03X3888070Y7265000I71138J8D01*
G03X3878860Y7230000I61928J-35008D01*
G03X3888070Y7195000I71138J8D01*
G03X3878860Y7160000I61928J-35008D01*
G03X3950000Y7088860I71140J0D01*
G03X3994000Y7104100I0J71137D01*
G01X4473860D01*
Y6584470D01*
X4460530Y6571140D01*
X3779470D01*
X3730610Y6620000D01*
X3810300Y6699700D01*
G03X3831140Y6750000I-50297J50306D01*
G01Y7480530D01*
X3909470Y7558860D01*
X4579200D01*
G03X4629500Y7579700I-6J71137D01*
G01X4680300Y7630500D01*
G03X4701140Y7680800I-50297J50306D01*
G01Y8254200D01*
G03X4680300Y8304500I-71137J-6D01*
G01X4629500Y8355300D01*
G03X4579200Y8376140I-50306J-50297D01*
G01X4326140D01*
Y8645000D01*
G03X4305300Y8695300I-71137J-6D01*
G01X4230300Y8770300D01*
G03X4180000Y8791140I-50306J-50297D01*
G01X3419470D01*
X3401140Y8809470D01*
Y9040530D01*
X3419470Y9058860D01*
X3710000D01*
G03Y9201140I0J71140D01*
G01X3390000D01*
G03X3339700Y9180300I6J-71137D01*
G01X3279700Y9120300D01*
G03X3258860Y9070000I50297J-50306D01*
G01Y8780000D01*
G03X3279700Y8729700I71137J6D01*
G01X3339700Y8669700D01*
G03X3390000Y8648860I50306J50297D01*
G01X4150530D01*
X4183860Y8615530D01*
Y8305000D01*
G03X4255000Y8233860I71140J0D01*
G01X4549730D01*
X4558860Y8224730D01*
Y7710270D01*
X4549730Y7701140D01*
X3880000D01*
G03X3829700Y7680300I6J-71137D01*
G01X3709700Y7560300D01*
G03X3688860Y7510000I50297J-50306D01*
G01Y6779470D01*
X3579700Y6670300D01*
G03X3558860Y6620000I50297J-50306D01*
G03X3579700Y6569700I71137J6D01*
G01X3699700Y6449700D01*
G03X3750000Y6428860I50306J50297D01*
G01X4490000D01*
G03X4540300Y6449700I-6J71137D01*
G01X4595300Y6504700D01*
G03X4616140Y6555000I-50297J50306D01*
G01Y7028860D01*
X4970000D01*
G03X4988500Y7031310I-9J71139D01*
G02X5014100Y7011690I5280J-19623D01*
G01Y3880000D01*
G03X5030470Y3840470I55913J0D01*
G01X5124260Y3746690D01*
Y1511050D01*
X5404260Y1231050D01*
Y555400D01*
G02X5369570Y541040I-20319J4D01*
G01X5310300Y600300D01*
G03X5260000Y621140I-50306J-50297D01*
G01X1099470D01*
X811140Y909470D01*
Y2090000D01*
G03X668860I-71140J0D01*
G01Y880000D01*
G03X689700Y829700I71123J0D01*
G01X1019700Y499700D01*
G03X1070000Y478860I50306J50297D01*
G01X5230530D01*
X5404260Y305130D01*
Y282880D01*
G02X5369060Y269040I-20321J-1D01*
G03X5255000Y318740I-114060J-106032D01*
G03X5099260Y163000I0J-155740D01*
G03X5135330Y63320I155743J-9D01*
G02X5119720Y30000I-15612J-13003D01*
G01X4060280D01*
G02X4044670Y63320I2J20317D01*
G03X4080740Y163000I-119673J99671D01*
G03X3769260I-155740J0D01*
G03X3805330Y63320I155743J-9D01*
G02X3789720Y30000I-15612J-13003D01*
G01X630310D01*
G02X616950Y65630I1J20320D01*
G03X750740Y360000I-256947J294370D01*
G03X360000Y750740I-390740J0D01*
G03X65630Y616950I0J-390737D01*
G02X30000Y630310I-15310J13361D01*
G01Y4313800D01*
G02X59850Y4331740I20319J-5D01*
G03X120000Y4316760I60150J113272D01*
G03Y4573240I0J128240D01*
G03X59850Y4558260I0J-128252D01*
G02X30000Y4576200I-9531J17945D01*
G01Y5063800D01*
G02X59850Y5081740I20319J-5D01*
G03X120000Y5066760I60150J113272D01*
G03X248240Y5195000I0J128240D01*
G03X189300Y5302900I-128235J0D01*
G02Y5337100I10981J17100D01*
G03X248240Y5445000I-69295J107900D01*
G03X120000Y5573240I-128240J0D01*
G03X59850Y5558260I0J-128252D01*
G02X30000Y5576200I-9531J17945D01*
G01Y6063800D01*
G02X59850Y6081740I20319J-5D01*
G03X120000Y6066760I60150J113272D01*
G03X248240Y6195000I0J128240D01*
G03X201180Y6294270I-128232J0D01*
G02Y6325730I12868J15730D01*
G03X248240Y6425000I-81172J99270D01*
G03X120000Y6553240I-128240J0D01*
G03X59850Y6538260I0J-128252D01*
G02X30000Y6556200I-9531J17945D01*
G01Y7043800D01*
G02X59850Y7061740I20319J-5D01*
G03X120000Y7046760I60150J113272D01*
G03X248240Y7175000I0J128240D01*
G03X201180Y7274270I-128232J0D01*
G02Y7305730I12868J15730D01*
G03X248240Y7405000I-81172J99270D01*
G03X120000Y7533240I-128240J0D01*
G03X59850Y7518260I0J-128252D01*
G02X30000Y7536200I-9531J17945D01*
G01Y8023800D01*
G02X59850Y8041740I20319J-5D01*
G03X120000Y8026760I60150J113272D01*
G03X248240Y8155000I0J128240D01*
G03X209860Y8246490I-128237J0D01*
G02Y8275480I14242J14495D01*
G03X248240Y8366970I-89857J91490D01*
G03X120000Y8495210I-128240J0D01*
G03X59850Y8480230I0J-128252D01*
G02X30000Y8498170I-9531J17945D01*
G01Y8985770D01*
G02X59850Y9003710I20319J-5D01*
G03X120000Y8988730I60150J113272D01*
G03Y9245210I0J128240D01*
G03X59850Y9230230I0J-128252D01*
G02X30000Y9248170I-9531J17945D01*
G01Y9369690D01*
G02X65630Y9383050I20320J-1D01*
G03X360000Y9249260I294370J256947D01*
G03X750740Y9640000I0J390740D01*
G03X616950Y9934370I-390737J0D01*
G02X630310Y9970000I13361J15310D01*
G37*
G36*
G01X5374670Y63320D02*
G03X5410740Y163000I-119673J99671D01*
G03X5407390Y195110I-155738J-18D01*
G02X5441640Y213670I19883J4190D01*
G01X5531050Y124260D01*
X5585130D01*
X5644700Y64690D01*
G02X5630340Y30000I-14364J-14371D01*
G01X5390280D01*
G02X5374670Y63320I2J20317D01*
G37*
G36*
G01X5260000Y3860000D02*
X6169180D01*
G02X6180480Y3822800I-4J-20318D01*
G03X6120260Y3710000I75523J-112794D01*
G03X6134540Y3649390I135741J-6D01*
G02X6116360Y3620000I-18181J-9071D01*
G01X5580000D01*
X5520000Y3560000D01*
Y2822710D01*
X5519860Y2821870D01*
G03X5518860Y2810000I70139J-11886D01*
G03X5519860Y2798130I71139J16D01*
G01X5520000Y2797290D01*
Y2550000D01*
X5570000Y2500000D01*
X6320000D01*
X6340000Y2480000D01*
Y2117570D01*
G02X6310090Y2099660I-20319J3D01*
G03X6246000Y2115740I-64085J-119661D01*
G03X6110260Y1980000I0J-135740D01*
G03X6124540Y1919390I135741J-6D01*
G02X6106360Y1890000I-18181J-9071D01*
G01X5830000D01*
X5790000Y1850000D01*
Y840000D01*
X5850000Y780000D01*
X6310000D01*
X6330000Y760000D01*
Y397570D01*
G02X6300090Y379660I-20319J3D01*
G03X6236000Y395740I-64085J-119661D01*
G03X6100260Y260000I0J-135740D01*
G03X6114540Y199390I135741J-6D01*
G02X6096360Y170000I-18181J-9071D01*
G01X5740610D01*
X5450000Y460610D01*
Y1250000D01*
X5170000Y1530000D01*
Y3770000D01*
X5260000Y3860000D01*
G37*
G36*
G01X5840470Y9704100D02*
X6469530D01*
G02X6489670Y9681080I-1J-20321D01*
G03X6489260Y9675000I45328J-6110D01*
G01Y9485000D01*
G03X6516880Y9443000I45743J0D01*
G02X6524610Y9411540I-8051J-18658D01*
G03X6494260Y9326000I105388J-85546D01*
G03X6551110Y9215540I135737J0D01*
G02Y9182460I-11805J-16540D01*
G03X6494260Y9072000I78887J-110460D01*
G03X6630000Y8936260I135740J0D01*
G03X6765270Y9060770I0J135735D01*
G02X6799890Y9073460I20251J-1678D01*
G01X6901560Y8971790D01*
Y8218210D01*
X6883790Y8211480D01*
G03X6881320Y8214100I-43736J-38758D01*
G01X6758060Y8337360D01*
X6759840Y8343200D01*
G03X6765740Y8382780I-129839J39584D01*
G03X6735390Y8468320I-135738J-6D01*
G02X6743120Y8499780I15781J12802D01*
G03X6770740Y8541780I-18123J42000D01*
G01Y8731780D01*
G03X6725000Y8777520I-45740J0D01*
G01X6535000D01*
G03X6489260Y8731780I0J-45740D01*
G01Y8541780D01*
G03X6516880Y8499780I45743J0D01*
G02X6524610Y8468320I-8051J-18658D01*
G03X6494260Y8382780I105388J-85546D01*
G03X6551110Y8272320I135737J0D01*
G02Y8239240I-11805J-16540D01*
G03X6494260Y8128780I78887J-110460D01*
G03X6630000Y7993040I135740J0D01*
G03X6744150Y8055330I0J135738D01*
G02X6781560Y8044340I17090J-10992D01*
G01Y7820230D01*
G02X6750090Y7803240I-20321J-1D01*
G03X6725000Y7810740I-25096J-38238D01*
G01X6535000D01*
G03X6489260Y7765000I0J-45740D01*
G01Y7575000D01*
G03X6516880Y7533000I45743J0D01*
G02X6524610Y7501540I-8051J-18658D01*
G03X6494260Y7416000I105388J-85546D01*
G03X6551110Y7305540I135737J0D01*
G02Y7272460I-11805J-16540D01*
G03X6494260Y7162000I78887J-110460D01*
G03X6765740I135740J0D01*
G03X6708890Y7272460I-135737J0D01*
G02Y7305540I11805J16540D01*
G03X6754340Y7361560I-78895J110456D01*
G01X6841030D01*
G02X6859680Y7333190I-5J-20319D01*
G03X6853860Y7305000I65322J-28182D01*
G03X6925000Y7233860I71140J0D01*
G01X7735530D01*
X7778860Y7190530D01*
Y2801460D01*
G03X7799700Y2751160I71137J6D01*
G01X7899850Y2651000D01*
X7897890Y2645050D01*
G03X7889260Y2591460I162109J-53596D01*
G03X7897890Y2537870I170739J6D01*
G01X7899850Y2531920D01*
X7809700Y2441760D01*
G03X7788860Y2391460I50283J-50300D01*
G01Y2030000D01*
G03X7809700Y1979700I71123J0D01*
G01X7949700Y1839700D01*
G03X8000000Y1818860I50306J50297D01*
G01X8440530D01*
X8538860Y1720530D01*
Y319470D01*
X8380530Y161140D01*
X6625740D01*
Y350000D01*
G03X6580000Y395740I-45740J0D01*
G01X6400000D01*
G03X6397270Y395660I-26J-45741D01*
G02X6375740Y415940I-1211J20283D01*
G01Y778950D01*
X6328950Y825740D01*
X5868950D01*
X5835740Y858950D01*
Y1329610D01*
G02X5859160Y1349690I20319J-1D01*
G03X5870000Y1348860I10835J70310D01*
G03X5910570Y1361560I0J71150D01*
G01X6724260D01*
Y1191050D01*
X6791050Y1124260D01*
X7528950D01*
X7585740Y1181050D01*
Y4622750D01*
X7586410Y4624510D01*
G03X7591140Y4650000I-66407J25507D01*
G03X7586410Y4675490I-71137J-17D01*
G01X7585740Y4677250D01*
Y4722750D01*
X7586410Y4724510D01*
G03X7591140Y4750000I-66407J25507D01*
G03X7586410Y4775490I-71137J-17D01*
G01X7585740Y4777250D01*
Y4822750D01*
X7586410Y4824510D01*
G03X7591140Y4850000I-66407J25507D01*
G03X7586410Y4875490I-71137J-17D01*
G01X7585740Y4877250D01*
Y5958950D01*
X7528950Y6015740D01*
X6791050D01*
X6724260Y5948950D01*
Y5075400D01*
G02X6689570Y5061040I-20319J4D01*
G01X6670300Y5080300D01*
G03X6620000Y5101140I-50306J-50297D01*
G01X6130000D01*
G03Y4958860I0J-71140D01*
G01X6590530D01*
X6658860Y4890530D01*
Y4529250D01*
G02X6624170Y4514880I-20321J-1D01*
G01X6529530Y4609530D01*
G03X6490000Y4625900I-39530J-39543D01*
G01X5483150D01*
X5415900Y4693150D01*
Y7706000D01*
G03X5424700Y7720420I-55896J44006D01*
G01X5427410Y7726360D01*
X5444100D01*
Y6940000D01*
G03X5460470Y6900470I55913J0D01*
G01X5540470Y6820470D01*
G03X5580000Y6804100I39530J39543D01*
G01X7634100D01*
Y655900D01*
X6914000D01*
G03X6870000Y671140I-44000J-55897D01*
G03Y528860I0J-71140D01*
G03X6914000Y544100I0J71137D01*
G01X7669680D01*
G03X7709210Y560470I0J55913D01*
G01X7729530Y580790D01*
G03X7745900Y620320I-39543J39530D01*
G01Y6839680D01*
G03X7729530Y6879210I-55913J0D01*
G01X7709210Y6899530D01*
G03X7669680Y6915900I-39530J-39543D01*
G01X5603150D01*
X5555900Y6963150D01*
Y8012230D01*
G02X5589730Y8027400I20318J-4D01*
G03X5680000Y7993040I90264J101382D01*
G03X5815740Y8128780I0J135740D01*
G03X5758890Y8239240I-135737J0D01*
G02Y8272320I11805J16540D01*
G03X5815740Y8382780I-78887J110460D01*
G03X5785390Y8468320I-135738J-6D01*
G02X5793120Y8499780I15781J12802D01*
G03X5820740Y8541780I-18123J42000D01*
G01Y8731780D01*
G03X5775000Y8777520I-45740J0D01*
G01X5585000D01*
G03X5539260Y8731780I0J-45740D01*
G01Y8541780D01*
G03X5566880Y8499780I45743J0D01*
G02X5574610Y8468320I-8051J-18658D01*
G03X5544260Y8382780I105388J-85546D01*
G03X5601110Y8272320I135737J0D01*
G02Y8239240I-11805J-16540D01*
G03X5545780Y8149060I78887J-110465D01*
G02X5511320Y8137730I-20091J3038D01*
G01X5430730Y8218330D01*
X5430200Y8221550D01*
G03X5360000Y8281140I-70200J-11555D01*
G03X5341500Y8278690I9J-71139D01*
G02X5315900Y8298310I-5280J19623D01*
G01Y8911850D01*
X5368330Y8964270D01*
X5371550Y8964800D01*
G03X5431140Y9035000I-11555J70200D01*
G03X5360000Y9106140I-71140J0D01*
G03X5289800Y9046550I0J-71145D01*
G01X5289270Y9043330D01*
X5280590Y9034640D01*
G02X5245900Y9049010I-14369J14369D01*
G01Y9648850D01*
X5301150Y9704100D01*
X5519530D01*
G02X5539670Y9681080I-1J-20321D01*
G03X5539260Y9675000I45328J-6110D01*
G01Y9485000D01*
G03X5566880Y9443000I45743J0D01*
G02X5574610Y9411540I-8051J-18658D01*
G03X5544260Y9326000I105388J-85546D01*
G03X5601110Y9215540I135737J0D01*
G02Y9182460I-11805J-16540D01*
G03X5544260Y9072000I78887J-110460D01*
G03X5815740I135740J0D01*
G03X5758890Y9182460I-135737J0D01*
G02Y9215540I11805J16540D01*
G03X5815740Y9326000I-78887J110460D01*
G03X5785390Y9411540I-135738J-6D01*
G02X5793120Y9443000I15781J12802D01*
G03X5820740Y9485000I-18123J42000D01*
G01Y9675000D01*
G03X5820330Y9681080I-45738J-30D01*
G02X5840470Y9704100I20141J2699D01*
G37*
G36*
G01X6810000Y5970000D02*
X7510000D01*
X7540000Y5940000D01*
Y1200000D01*
X7510000Y1170000D01*
X6810000D01*
X6770000Y1210000D01*
Y1333490D01*
G02X6796910Y1352710I20319J-1D01*
G03X6820000Y1348860I23086J67291D01*
G03Y1491140I0J71140D01*
G03X6796910Y1487290I-4J-71141D01*
G02X6770000Y1506510I-6591J19221D01*
G01Y3091560D01*
X6789330D01*
X6791820Y3089970D01*
G03X6830000Y3078860I38175J60031D01*
G03Y3221140I0J71140D01*
G03X6791820Y3210030I-5J-71141D01*
G01X6789330Y3208440D01*
X6770000D01*
Y3329390D01*
X6780300Y3339700D01*
G03X6801140Y3390000I-50297J50306D01*
G01Y4920000D01*
G03X6780300Y4970300I-71137J-6D01*
G01X6770000Y4980610D01*
Y5612280D01*
G02X6802000Y5628910I20320J2D01*
G03X6880000Y5604260I78000J111083D01*
G03Y5875740I0J135740D01*
G03X6802000Y5851090I0J-135733D01*
G02X6770000Y5867720I-11680J16628D01*
G01Y5930000D01*
X6810000Y5970000D01*
G37*
G36*
G01X8120470Y9704100D02*
X8569530D01*
G02X8589670Y9681080I-1J-20321D01*
G03X8589260Y9675000I45328J-6110D01*
G01Y9485000D01*
G03X8616880Y9443000I45743J0D01*
G02X8624610Y9411540I-8051J-18658D01*
G03X8594260Y9326000I105388J-85546D01*
G03X8651110Y9215540I135737J0D01*
G02Y9182460I-11805J-16540D01*
G03X8594260Y9072000I78887J-110460D01*
G03X8865740I135740J0D01*
G03X8808890Y9182460I-135737J0D01*
G02Y9215540I11805J16540D01*
G03X8865740Y9326000I-78887J110460D01*
G03X8859040Y9368120I-135745J0D01*
G01X8857100Y9374050D01*
X8877260Y9394200D01*
G02X8894600Y9387020I7181J-7185D01*
G01Y8626430D01*
X8888080Y8619920D01*
G02X8870740Y8627100I-7181J7185D01*
G01Y8731780D01*
G03X8825000Y8777520I-45740J0D01*
G01X8635000D01*
G03X8589260Y8731780I0J-45740D01*
G01Y8541780D01*
G03X8616880Y8499780I45743J0D01*
G02X8624610Y8468320I-8051J-18658D01*
G03X8594260Y8382780I105388J-85546D01*
G03X8651110Y8272320I135737J0D01*
G02Y8239240I-11805J-16540D01*
G03X8594260Y8128780I78887J-110460D01*
G03X8865740I135740J0D01*
G03X8808890Y8239240I-135737J0D01*
G02Y8272320I11805J16540D01*
G03X8865740Y8382780I-78887J110460D01*
G03X8859040Y8424900I-135745J0D01*
G01X8857100Y8430830D01*
X8909410Y8483140D01*
G02X8944100Y8468770I14369J-14369D01*
G01Y7709150D01*
X8905430Y7670480D01*
G02X8870740Y7684850I-14369J14369D01*
G01Y7765000D01*
G03X8825000Y7810740I-45740J0D01*
G01X8635000D01*
G03X8589260Y7765000I0J-45740D01*
G01Y7750400D01*
G02X8554570Y7736040I-20319J4D01*
G01X8460300Y7830300D01*
G03X8410000Y7851140I-50306J-50297D01*
G01X7159470D01*
X7111140Y7899470D01*
Y9200000D01*
G03X6968860I-71140J0D01*
G01Y9118840D01*
G02X6934170Y9104470I-20321J0D01*
G01X6758060Y9280580D01*
X6759840Y9286420D01*
G03X6765740Y9326000I-129839J39584D01*
G03X6735390Y9411540I-135738J-6D01*
G02X6743120Y9443000I15781J12802D01*
G03X6770740Y9485000I-18123J42000D01*
G01Y9675000D01*
G03X6770330Y9681080I-45738J-30D01*
G02X6790470Y9704100I20141J2699D01*
G01X7799530D01*
G02X7819670Y9681080I-1J-20321D01*
G03X7819260Y9675000I45328J-6110D01*
G01Y9485000D01*
G03X7846880Y9443000I45743J0D01*
G02X7854610Y9411540I-8051J-18658D01*
G03X7824260Y9326000I105388J-85546D01*
G03X7881110Y9215540I135737J0D01*
G02Y9182460I-11805J-16540D01*
G03X7824260Y9072000I78887J-110460D01*
G03X8095740I135740J0D01*
G03X8038890Y9182460I-135737J0D01*
G02Y9215540I11805J16540D01*
G03X8095740Y9326000I-78887J110460D01*
G03X8065390Y9411540I-135738J-6D01*
G02X8073120Y9443000I15781J12802D01*
G03X8100740Y9485000I-18123J42000D01*
G01Y9675000D01*
G03X8100330Y9681080I-45738J-30D01*
G02X8120470Y9704100I20141J2699D01*
G37*
G36*
G01X8488440Y6821900D02*
G02X8523130Y6836260I20319J-4D01*
G01X8589700Y6769700D01*
G03X8640000Y6748860I50306J50297D01*
G01X9570530D01*
X9668860Y6650530D01*
Y5134820D01*
G03X9634400Y5097140I81149J-108811D01*
G01X9536000D01*
G03X9485700Y5076300I6J-71137D01*
G01X9399700Y4990300D01*
G03X9378860Y4940000I50297J-50306D01*
G01Y2039470D01*
X9300530Y1961140D01*
X8750000D01*
G03X8699700Y1940300I6J-71137D01*
G01X8610000Y1850610D01*
X8520300Y1940300D01*
G03X8470000Y1961140I-50306J-50297D01*
G01X8029470D01*
X8023260Y1967350D01*
G02X8040010Y2001890I14371J14362D01*
G03X8060000Y2000720I19954J169572D01*
G03Y2342200I0J170740D01*
G03X7963000Y2311970I0J-170739D01*
G02X7931140Y2328690I-11540J16725D01*
G01Y2361990D01*
X8000460Y2431310D01*
X8006410Y2429350D01*
G03X8060000Y2420720I53596J162109D01*
G03X8188760Y2479330I0J170741D01*
G02X8218510Y2480300I15326J-13340D01*
G03X8218680Y2480140I40116J42453D01*
G01X8455140Y2243680D01*
X8452500Y2237390D01*
G03X8439260Y2171460I157501J-65924D01*
G03X8610000Y2342200I170740J0D01*
G03X8544070Y2328960I-6J-170741D01*
G01X8537780Y2326320D01*
X8318440Y2545670D01*
Y3591320D01*
G02X8353130Y3605690I20321J0D01*
G01X8455140Y3503680D01*
X8452500Y3497390D01*
G03X8439260Y3431460I157501J-65924D01*
G03X8610000Y3260720I170740J0D01*
G03X8745160Y3327130I0J170746D01*
G02X8781560Y3314710I16081J-12420D01*
G01Y3265670D01*
X8682220Y3166320D01*
X8675930Y3168960D01*
G03X8610000Y3182200I-65924J-157501D01*
G03X8780740Y3011460I0J-170740D01*
G03X8767500Y3077390I-170741J6D01*
G01X8764860Y3083680D01*
X8881320Y3200140D01*
G03X8898440Y3241460I-41304J41320D01*
G01Y3540000D01*
G03X8881320Y3581320I-58424J0D01*
G01X8488440Y3974210D01*
Y6821900D01*
G37*
G36*
G01X7858100Y7361560D02*
X8155790D01*
X8201560Y7315790D01*
Y3579120D01*
G02X8168350Y3563420I-20319J6D01*
G03X8060000Y3602200I-108350J-131973D01*
G03X7954070Y3565360I7J-170737D01*
G02X7921140Y3581300I-12609J15937D01*
G01Y7220000D01*
G03X7900300Y7270300I-71137J-6D01*
G01X7843740Y7326870D01*
G02X7858100Y7361560I14364J14371D01*
G37*
G36*
G01X8907820Y9970000D02*
X9369690D01*
G02X9383050Y9934370I-1J-20320D01*
G03X9249260Y9640000I256947J-294370D01*
G03X9640000Y9249260I390740J0D01*
G03X9934370Y9383050I0J390737D01*
G02X9970000Y9369690I15310J-13361D01*
G01Y630310D01*
G02X9934370Y616950I-20320J1D01*
G03X9640000Y750740I-294370J-256947D01*
G03X9249260Y360000I0J-390740D01*
G03X9383050Y65630I390737J0D01*
G02X9369690Y30000I-13361J-15310D01*
G01X8499660D01*
G02X8485300Y64690I4J20319D01*
G01X8660300Y239700D01*
G03X8681140Y290000I-50283J50300D01*
G01Y1720530D01*
X8779470Y1818860D01*
X9330000D01*
G03X9380300Y1839700I-6J71137D01*
G01X9500300Y1959700D01*
G03X9521140Y2010000I-50283J50300D01*
G01Y4910530D01*
X9565470Y4954860D01*
X9634400D01*
G03X9671110Y4915540I115606J71135D01*
G02Y4882460I-11805J-16540D01*
G03Y4661540I78887J-110460D01*
G02Y4628460I-11805J-16540D01*
G03Y4407540I78887J-110460D01*
G02Y4374460I-11805J-16540D01*
G03X9614260Y4264000I78887J-110460D01*
G03X9644610Y4178460I135738J6D01*
G02X9636880Y4147000I-15781J-12802D01*
G03X9609260Y4105000I18123J-42000D01*
G01Y3915000D01*
G03X9655000Y3869260I45740J0D01*
G01X9845000D01*
G03X9890740Y3915000I0J45740D01*
G01Y4105000D01*
G03X9863120Y4147000I-45743J0D01*
G02X9855390Y4178460I8051J18658D01*
G03X9885740Y4264000I-105388J85546D01*
G03X9828890Y4374460I-135737J0D01*
G02Y4407540I11805J16540D01*
G03Y4628460I-78887J110460D01*
G02Y4661540I11805J16540D01*
G03Y4882460I-78887J110460D01*
G02Y4915540I11805J16540D01*
G03X9885740Y5026000I-78887J110460D01*
G03X9811140Y5147190I-135738J0D01*
G01Y6680000D01*
G03X9790300Y6730300I-71137J-6D01*
G01X9650300Y6870300D01*
G03X9600000Y6891140I-50306J-50297D01*
G01X8669470D01*
X8601140Y6959470D01*
Y7049870D01*
G02X8635590Y7064470I20320J-2D01*
G03X8730000Y7026260I94410J97530D01*
G03X8865740Y7162000I0J135740D01*
G03X8808890Y7272460I-135737J0D01*
G02Y7305540I11805J16540D01*
G03X8865740Y7416000I-78887J110460D01*
G03X8859040Y7458120I-135745J0D01*
G01X8857100Y7464050D01*
X9039530Y7646470D01*
G03X9055900Y7686000I-39543J39530D01*
G01Y9790000D01*
G03X9039530Y9829530I-55913J0D01*
G01X8929530Y9939530D01*
G03X8913680Y9950640I-39527J-39530D01*
G01X8907820Y9953380D01*
Y9970000D01*
G37*
%LPC*%
G75*
G36*
G01X1318200Y1557770D02*
X1518200D01*
G02Y1266290I0J-145740D01*
G01X1318200D01*
G02Y1557770I0J145740D01*
G37*
G36*
G01Y957770D02*
X1518200D01*
G02Y666290I0J-145740D01*
G01X1318200D01*
G02Y957770I0J145740D01*
G37*
G36*
G01X3564000Y1914100D02*
G02X3520000Y1898860I-44000J55897D01*
G02Y2041140I0J71140D01*
G02X3564000Y2025900I0J-71137D01*
G01X4036000D01*
G02X4080000Y2041140I44000J-55897D01*
G02Y1898860I0J-71140D01*
G02X4036000Y1914100I0J71137D01*
G01X3564000D01*
G37*
G36*
G01X4441830Y4168500D02*
G03X4473900Y4161530I18580J8225D01*
G02X4564000Y4195740I90095J-101532D01*
G02Y3924260I0J-135740D01*
G02X4473900Y3958470I-5J135742D01*
G03X4441830Y3951500I-13490J-15195D01*
G02X4400000Y3924260I-41830J18497D01*
G01X4220000D01*
G02X4174260Y3970000I0J45740D01*
G01Y4150000D01*
G02X4220000Y4195740I45740J0D01*
G01X4400000D01*
G02X4441830Y4168500I0J-45737D01*
G37*
G36*
G01X2880000Y8435900D02*
X3566050D01*
X3678470Y8548330D01*
X3679000Y8551550D01*
G02X3749200Y8611140I70200J-11555D01*
G02X3820340Y8540000I0J-71140D01*
G02X3800200Y8490400I-71146J0D01*
G02X3821140Y8440000I-50198J-50406D01*
G02X3761550Y8369800I-71145J0D01*
G01X3758330Y8369270D01*
X3679530Y8290470D01*
G02X3640000Y8274100I-39530J39543D01*
G01X2943150D01*
X2829640Y8160590D01*
G03X2844010Y8125900I14369J-14369D01*
G01X2896000D01*
G02X2940000Y8141140I44000J-55897D01*
G02X3011140Y8070000I0J-71140D01*
G02X3008790Y8051850I-71142J-16D01*
G01X3007300Y8046210D01*
X3089530Y7963980D01*
G02X3105900Y7924450I-39543J-39530D01*
G01Y5213150D01*
X3123150Y5195900D01*
X4743860D01*
G02X4783390Y5179530I0J-55913D01*
G01X4832360Y5130560D01*
G02X4848730Y5091030I-39543J-39530D01*
G01Y4922820D01*
G02X4832360Y4883290I-55913J0D01*
G01X4812040Y4862970D01*
G02X4790880Y4849710I-39513J39541D01*
G02X4791940Y4837500I-70078J-12235D01*
G02X4770850Y4786940I-71150J0D01*
G03Y4758060I14292J-14440D01*
G02X4791940Y4707500I-50060J-50560D01*
G02X4720800Y4636360I-71140J0D01*
G02X4676800Y4651600I0J71137D01*
G01X2802850D01*
G02X2763320Y4667970I0J55913D01*
G01X2680470Y4750820D01*
G02X2664100Y4790350I39543J39530D01*
G01Y7945990D01*
G03X2629410Y7960360I-20321J1D01*
G01X2595900Y7926850D01*
Y4213150D01*
X2608150Y4200900D01*
X3786310D01*
G02X3830310Y4216140I44000J-55897D01*
G02Y4073860I0J-71140D01*
G02X3786310Y4089100I0J71137D01*
G01X2585000D01*
G02X2545470Y4105470I0J55913D01*
G01X2500470Y4150470D01*
G02X2484100Y4190000I39543J39530D01*
G01Y7950000D01*
G02X2500470Y7989530I55913J0D01*
G01X2550360Y8039410D01*
G03X2535990Y8074100I-14369J14369D01*
G01X763150D01*
X675900Y7986850D01*
Y4077490D01*
G03X703880Y4058670I20318J-2D01*
G02X740000Y4065740I36108J-88672D01*
G02X804070Y4041140I0J-95734D01*
G01X4040000D01*
G02Y3898860I0J-71140D01*
G01X804070D01*
G02X740000Y3874260I-64070J71134D01*
G02X691230Y3887610I-5J95741D01*
G03X675900Y3878870I-5171J-8745D01*
G01Y3863150D01*
X724460Y3814600D01*
X729320Y3815140D01*
G02X740000Y3815740I10702J-95139D01*
G02X644260Y3720000I0J-95740D01*
G02X644860Y3730680I95739J-22D01*
G01X645400Y3735540D01*
X580470Y3800470D01*
G02X564100Y3840000I39543J39530D01*
G01Y8010000D01*
G02X580470Y8049530I55913J0D01*
G01X700470Y8169530D01*
G02X740000Y8185900I39530J-39543D01*
G01X2606850D01*
X2840470Y8419530D01*
G02X2880000Y8435900I39530J-39543D01*
G37*
G36*
G01X1650570Y9051560D02*
G02X1610000Y9038860I-40570J58450D01*
G02Y9181140I0J71140D01*
G02X1650570Y9168440I0J-71150D01*
G01X2049430D01*
G02X2090000Y9181140I40570J-58450D01*
G02Y9038860I0J-71140D01*
G02X2049430Y9051560I0J71150D01*
G01X1650570D01*
G37*
G36*
G01X810530Y8451140D02*
X848860Y8489470D01*
Y9290000D01*
G02X991140I71140J0D01*
G01Y8489470D01*
X1029470Y8451140D01*
X2148860D01*
Y8650000D01*
G02X2169700Y8700300I71137J-6D01*
G01X2269700Y8800300D01*
G02X2320000Y8821140I50300J-50283D01*
G01X2590530D01*
X2608860Y8839470D01*
Y9280000D01*
G02X2751140I71140J0D01*
G01Y8810000D01*
G02X2730300Y8759700I-71137J6D01*
G01X2670300Y8699700D01*
G02X2620000Y8678860I-50306J50297D01*
G01X2349470D01*
X2291140Y8620530D01*
Y8380000D01*
G02X2220000Y8308860I-71140J0D01*
G01X1000000D01*
G02X949700Y8329700I0J71123D01*
G01X920000Y8359390D01*
X890300Y8329700D01*
G02X840000Y8308860I-50300J50283D01*
G01X619470D01*
X531140Y8220530D01*
Y2680000D01*
G02X388860I-71140J0D01*
G01Y8250000D01*
G02X409700Y8300300I71137J-6D01*
G01X539700Y8430300D01*
G02X590000Y8451140I50300J-50283D01*
G01X810530D01*
G37*
G36*
G01X3826500Y9775150D02*
G02X3953500I63500J-71646D01*
G02X4080500I63500J-71646D01*
G02X4144000Y9799240I63500J-71646D01*
G02X4239740Y9703500I0J-95740D01*
G02X4215650Y9640000I-95736J0D01*
G02X4239740Y9576500I-71646J-63500D01*
G02X4144000Y9480760I-95740J0D01*
G02X4091200Y9496630I-8J95742D01*
G03X4075440Y9488160I-5602J-8474D01*
G01Y9476500D01*
G02X4058320Y9435180I-58438J6D01*
G01X3896960Y9273820D01*
G02X3855640Y9256700I-41320J41304D01*
G01X3159340D01*
X3078440Y9175800D01*
Y8750000D01*
G02X3061320Y8708680I-58438J6D01*
G01X2711320Y8358680D01*
G02X2670000Y8341560I-41320J41304D01*
G01X2575960D01*
G03X2556860Y8314300I-2J-20320D01*
G02X2561140Y8290000I-66859J-24303D01*
G02X2490000Y8218860I-71140J0D01*
G02X2451820Y8229970I-5J71141D01*
G01X2449330Y8231560D01*
X2430000D01*
G02X2388680Y8248680I6J58438D01*
G01X2328680Y8308680D01*
G02X2311560Y8350000I41318J41326D01*
G01Y8550000D01*
G02X2328680Y8591320I58438J-6D01*
G01X2378680Y8641320D01*
G02X2420000Y8658440I41326J-41318D01*
G01X2665790D01*
X2791560Y8784210D01*
Y9300000D01*
G02X2808680Y9341320I58438J-6D01*
G01X2978680Y9511320D01*
G02X3020000Y9528440I41320J-41304D01*
G01X3540260D01*
Y9626500D01*
G02X3552160Y9657270I45731J0D01*
G02X3540260Y9703500I83849J46230D01*
G02X3636000Y9799240I95740J0D01*
G02X3699500Y9775150I0J-95736D01*
G02X3826500I63500J-71646D01*
G37*
G36*
G01X1322260Y9319000D02*
Y9429000D01*
G02X1418000Y9524740I95740J0D01*
G02X1505870Y9467000I0J-95731D01*
G03X1536810Y9458880I18652J8066D01*
G02X1561000Y9467020I24190J-31873D01*
G02Y9386980I0J-40020D01*
G02X1543130Y9391190I0J40031D01*
G03X1513740Y9373010I-9071J-18182D01*
G01Y9319000D01*
G02X1322260I-95740J0D01*
G37*
G36*
G01X2156870Y9391190D02*
G02X2139000Y9386980I-17870J35821D01*
G02Y9467020I0J40020D01*
G02X2163190Y9458880I0J-40013D01*
G03X2194130Y9467000I12288J16186D01*
G02X2282000Y9524740I87870J-37991D01*
G02X2377740Y9429000I0J-95740D01*
G01Y9319000D01*
G02X2186260I-95740J0D01*
G01Y9373010D01*
G03X2156870Y9391190I-20319J-2D01*
G37*
G36*
G01X5840570Y4781560D02*
G02X5800000Y4768860I-40570J58450D01*
G02Y4911140I0J71140D01*
G02X5840570Y4898440I0J-71150D01*
G01X6519430D01*
G02X6560000Y4911140I40570J-58450D01*
G02Y4768860I0J-71140D01*
G02X6519430Y4781560I0J71150D01*
G01X5840570D01*
G37*
G36*
G01X7819260Y8541780D02*
Y8731780D01*
G02X7865000Y8777520I45740J0D01*
G01X8055000D01*
G02X8100740Y8731780I0J-45740D01*
G01Y8541780D01*
G02X8073120Y8499780I-45743J0D01*
G03X8065390Y8468320I8051J-18658D01*
G02X8095740Y8382780I-105388J-85546D01*
G02X8038890Y8272320I-135737J0D01*
G03Y8239240I11805J-16540D01*
G02X8095740Y8128780I-78887J-110460D01*
G02X7824260I-135740J0D01*
G02X7881110Y8239240I135737J0D01*
G03Y8272320I-11805J16540D01*
G02X7824260Y8382780I78887J110460D01*
G02X7854610Y8468320I135738J-6D01*
G03X7846880Y8499780I-15781J12802D01*
G02X7819260Y8541780I18123J42000D01*
G37*
G36*
G01X9149290Y4881660D02*
G02X9118860Y4940000I40709J58340D01*
G02X9261140I71140J0D01*
G02X9230710Y4881660I-71139J0D01*
G03Y4848340I11634J-16660D01*
G02Y4731660I-40709J-58340D01*
G03Y4698340I11634J-16660D01*
G02X9261140Y4640000I-40709J-58340D01*
G02X9118860I-71140J0D01*
G02X9149290Y4698340I71139J0D01*
G03Y4731660I-11634J16660D01*
G02Y4848340I40709J58340D01*
G03Y4881660I-11634J16660D01*
G37*
G54D30*
X150000Y8856970D03*
Y8626970D03*
Y6915000D03*
Y6685000D03*
Y5935000D03*
Y5705000D03*
Y4935000D03*
Y4705000D03*
Y7895000D03*
Y7665000D03*
G54D31*
X2439000Y960000D03*
X3201000D03*
G54D32*
X4110000Y1085000D03*
X4590000D03*
X5070000D03*
G54D35*
X8610000Y2591460D03*
G54D34*
X6880000Y6240000D03*
G54D33*
X740000Y3470000D03*
G54D28*
X2282000Y9792000D03*
X1418000D03*
G54D29*
X1898200Y1132030D03*
%LPD*%
G75*
G54D10*
X360000Y360000D03*
Y9640000D03*
X9640000Y360000D03*
Y9640000D03*
G54D11*
X120000Y4445000D03*
Y5445000D03*
Y5195000D03*
Y6195000D03*
Y6425000D03*
Y7175000D03*
Y7405000D03*
Y8366970D03*
Y8155000D03*
Y9116970D03*
G54D20*
X4110000Y1085000D03*
X4590000D03*
X5070000D03*
G54D21*
X4310000Y4060000D03*
X6490000Y260000D03*
X6500000Y1980000D03*
X6510000Y3710000D03*
G54D12*
G01X460000Y2680000D02*
Y8250000D01*
X590000Y8380000D01*
X840000D01*
X920000Y8460000D01*
G01X740000Y2090000D02*
Y880000D01*
X1070000Y550000D01*
X5260000D01*
X5720000Y90000D01*
X8410000D01*
X8610000Y290000D01*
Y1750000D01*
G01X4040000Y3970000D02*
X740000D01*
G01X2220000Y8380000D02*
X1000000D01*
X920000Y8460000D01*
G01D02*
Y9290000D01*
G01X2220000Y8380000D02*
Y8650000D01*
X2315000Y8745000D01*
G01D02*
X2320000Y8750000D01*
X2620000D01*
X2680000Y8810000D01*
Y9280000D01*
G01X2880000Y6620000D02*
X2885000Y6625000D01*
Y7465000D01*
G01X3710000Y9130000D02*
X3390000D01*
X3330000Y9070000D01*
Y8780000D01*
X3390000Y8720000D01*
X4180000D01*
X4255000Y8645000D01*
Y8305000D01*
G01X4545000Y7100000D02*
Y6555000D01*
X4490000Y6500000D01*
X3750000D01*
X3630000Y6620000D01*
G01D02*
X3760000Y6750000D01*
Y7510000D01*
X3880000Y7630000D01*
X4470000D01*
G01X4255000Y8305000D02*
X4579200D01*
X4630000Y8254200D01*
Y7680800D01*
X4579200Y7630000D01*
X4470000D01*
G01X4545000Y7100000D02*
X4970000D01*
G01X5900000Y3300000D02*
X5850800D01*
X5800000Y3249200D01*
Y3060800D01*
X5850800Y3010000D01*
X6600000D01*
X6680000Y2930000D01*
Y1700000D01*
X6600000Y1620000D01*
X5910000D01*
G01X5900000Y3300000D02*
X6640000D01*
X6730000Y3390000D01*
Y4920000D01*
X6620000Y5030000D01*
X6130000D01*
G01X6925000Y7305000D02*
X7765000D01*
X7850000Y7220000D01*
Y2801460D01*
X8060000Y2591460D01*
G01X9750000Y5026000D02*
X9740000Y5036000D01*
Y6680000D01*
X9600000Y6820000D01*
X8640000D01*
X8530000Y6930000D01*
Y7660000D01*
X8410000Y7780000D01*
X7130000D01*
X7040000Y7870000D01*
Y8250000D01*
G01Y9200000D02*
Y8250000D01*
G01X8610000Y1750000D02*
X8470000Y1890000D01*
X8000000D01*
X7860000Y2030000D01*
Y2391460D01*
X8060000Y2591460D01*
G01X8610000Y1750000D02*
X8750000Y1890000D01*
X9330000D01*
X9450000Y2010000D01*
Y4640000D01*
G01D02*
Y4790000D01*
G01D02*
Y4940000D01*
G01D02*
X9536000Y5026000D01*
X9750000D01*
X216170Y1010630D03*
Y1510630D03*
Y2010630D03*
X460000Y2680000D03*
X503120Y2336950D03*
X740000Y2090000D03*
X503120Y2586950D03*
X753050Y3013120D03*
Y3163120D03*
X840000Y7660000D03*
Y7910000D03*
X1138240Y302610D03*
X1022980Y1833910D03*
X1003050Y3013120D03*
Y3163120D03*
X1082630Y4501310D03*
Y5001310D03*
Y5501310D03*
Y6001310D03*
Y6501310D03*
X1150000Y7660000D03*
Y7900000D03*
X920000Y9290000D03*
X1522980Y1833910D03*
X1483050Y2373120D03*
Y2523120D03*
X1273050Y3013120D03*
X1523050D03*
X1273050Y3163120D03*
X1523050D03*
X1480000Y8520000D03*
Y8710000D03*
X1610000Y8880000D03*
Y9110000D03*
X1638240Y302610D03*
X1803050Y3013120D03*
Y3163120D03*
X1750000Y8490000D03*
X1960000Y8700000D03*
X1630000Y8710000D03*
X1730000Y9600000D03*
Y9850000D03*
X2138240Y302610D03*
X2123050Y3133120D03*
Y3443120D03*
Y3773120D03*
X2259930Y4410740D03*
Y4910740D03*
Y5410740D03*
Y5910740D03*
X2030000Y7650000D03*
X2340000D03*
X2030000Y7900000D03*
X2340000Y7890000D03*
X2220000Y8380000D03*
X2315000Y8745000D03*
X2060000Y8880000D03*
X2090000Y9110000D03*
X2040000Y9600000D03*
Y9840000D03*
X2638240Y302610D03*
X2623050Y3133120D03*
Y3443120D03*
Y3773120D03*
X2490000Y8290000D03*
Y8400000D03*
Y8520000D03*
X2680000Y9280000D03*
X3138240Y302610D03*
X3123050Y3133120D03*
X2880000Y6620000D03*
X2885000Y7465000D03*
X2870000Y7780970D03*
X2940000Y8070000D03*
X2870000Y8014120D03*
X2937180Y7958240D03*
X2870000Y7900000D03*
X2940000Y7840000D03*
X3130000Y8700000D03*
Y9150000D03*
X2890000Y9470000D03*
X3270000Y2500000D03*
X3150000D03*
X3240000Y2810000D03*
Y2930000D03*
X3445460Y6119060D03*
X3330000Y7600000D03*
X3450000Y7840000D03*
Y8090000D03*
X3360000Y8450000D03*
X3440000Y8840000D03*
Y9020000D03*
X3370000Y9230000D03*
X3638240Y302610D03*
X3693050Y1853120D03*
X3520000Y1970000D03*
X3800000Y2320000D03*
X3710000D03*
X3620000D03*
X3680000Y2190000D03*
X3770000D03*
X3680000Y2060000D03*
X3770000D03*
X3710000Y2559080D03*
X3620000Y2680000D03*
X3710000D03*
X3800000D03*
Y2560000D03*
X3620000D03*
Y2440000D03*
X3710000D03*
X3800000D03*
X3663050Y3123120D03*
X3800000Y2810000D03*
X3710000D03*
X3620000D03*
X3800000Y2940000D03*
X3710000D03*
X3620000D03*
X3613050Y3833120D03*
X3830310Y4145000D03*
X3840000Y4510000D03*
X3673050Y5413120D03*
X3890000Y6705000D03*
X3630000Y6620000D03*
Y7090000D03*
X3590000Y7600000D03*
X3800000Y7840000D03*
Y8090000D03*
X3750000Y8440000D03*
X3749200Y8540000D03*
X3710000Y9130000D03*
X3560000Y8910000D03*
X4138240Y302610D03*
X4193050Y1853120D03*
X3943050D03*
X4080000Y1970000D03*
X4163050Y3123120D03*
X4113050Y3833120D03*
X4040000Y3970000D03*
X4173050Y5413120D03*
X3945460Y6119060D03*
X4250000Y6760000D03*
Y6970000D03*
X3950000Y7160000D03*
Y7230000D03*
Y7300000D03*
X4080000Y8310000D03*
X4255000Y8305000D03*
X4080000Y8580000D03*
Y8830000D03*
Y9270000D03*
X4638240Y302610D03*
X4443050Y1853120D03*
X4303050Y1993120D03*
X4553050D03*
X4303050Y1713120D03*
X4553050D03*
X4613050Y3833120D03*
X4340000Y4510000D03*
X4445460Y6119060D03*
X4650000Y6890000D03*
X4545000Y7100000D03*
X4310000Y7390000D03*
X4470000Y7630000D03*
X4460000Y7460000D03*
X4470000Y7750000D03*
X4350000Y8120000D03*
X4390000Y8580000D03*
X4660000D03*
Y8820000D03*
X4390000D03*
X4560000Y9380000D03*
Y9630000D03*
X4930000Y4000000D03*
Y4100000D03*
Y4200000D03*
Y4300000D03*
Y4500000D03*
Y4400000D03*
Y4600000D03*
Y4700000D03*
Y4900000D03*
Y4800000D03*
Y5000000D03*
X4670000Y5032500D03*
X4720800Y4707500D03*
X4670000Y4902500D03*
Y4772500D03*
X4720800Y4967500D03*
Y4837500D03*
X4930000Y5100000D03*
X4673050Y5413120D03*
X4980000Y6830000D03*
X4970000Y7100000D03*
Y7440000D03*
X4920000Y8070000D03*
Y7930000D03*
X4870000Y9380000D03*
Y9620000D03*
X5130000Y4380000D03*
X5135000Y5915000D03*
Y6825000D03*
X5260000Y6670000D03*
X5360000Y7750000D03*
Y8210000D03*
Y9035000D03*
X5590000Y2810000D03*
X5690000Y3770000D03*
Y3670000D03*
X5790000Y3770000D03*
Y3670000D03*
X5800000Y4840000D03*
X5613050Y5433120D03*
X5664210Y6209620D03*
X6080000Y220000D03*
X5980000D03*
Y320000D03*
X6080000D03*
X5870000Y1420000D03*
X5910000Y1620000D03*
X6090000Y1940000D03*
X5990000D03*
X6090000Y2040000D03*
X5990000D03*
X6025000Y2810000D03*
X5900000Y3300000D03*
X5890000Y3150000D03*
Y3770000D03*
Y3670000D03*
X5990000Y3770000D03*
Y3670000D03*
X6090000Y3770000D03*
Y3670000D03*
X5910000Y4380000D03*
X6130000Y5030000D03*
X6113050Y5433120D03*
X6164210Y6209620D03*
X6055270Y7366340D03*
Y7866340D03*
Y8366340D03*
X6190000Y440000D03*
X6290000D03*
X6190000Y540000D03*
X6290000D03*
X6190000Y640000D03*
X6290000D03*
Y740000D03*
X6190000D03*
X6300000Y2360000D03*
X6200000D03*
X6300000Y2260000D03*
X6200000D03*
X6300000Y2160000D03*
X6200000D03*
Y2460000D03*
X6300000D03*
X6560000Y4840000D03*
X6273050Y6673120D03*
X6330000Y9580000D03*
X6870000Y600000D03*
X6910000Y1210000D03*
X6820000Y1420000D03*
X6920000Y2930000D03*
X6830000Y3150000D03*
X6930000Y4660000D03*
X6613050Y5433120D03*
X6664210Y6209620D03*
X6773050Y6673120D03*
X6775840Y6980380D03*
X6925000Y7305000D03*
X7150000Y1210000D03*
X7070000D03*
X6990000D03*
X7260000Y1400000D03*
X7270000Y3120000D03*
X7160000Y2930000D03*
X7080000D03*
X7000000D03*
X7010000Y4660000D03*
X7090000D03*
X7170000D03*
X7280000Y4850000D03*
X7080000Y5720000D03*
X7180000D03*
X7280000D03*
X7080000Y5620000D03*
X7180000D03*
X7280000D03*
X7080000Y5920000D03*
X7180000D03*
X7280000D03*
X7080000Y5820000D03*
X7180000D03*
X7280000D03*
X7164210Y6209620D03*
X7273050Y6673120D03*
X7275840Y6980380D03*
X7040000Y8250000D03*
Y9200000D03*
X7420000Y1200000D03*
X7500000D03*
X7340000Y1400000D03*
X7420000Y1300000D03*
Y1400000D03*
X7500000D03*
Y1300000D03*
X7350000Y3120000D03*
X7430000Y2920000D03*
X7510000D03*
X7430000Y3020000D03*
Y3120000D03*
X7510000D03*
Y3020000D03*
X7520000Y4650000D03*
X7440000D03*
X7520000Y4750000D03*
Y4850000D03*
X7440000Y4750000D03*
Y4850000D03*
X7360000D03*
X7380000Y5720000D03*
X7480000D03*
X7380000Y5620000D03*
X7480000D03*
X7380000Y5920000D03*
X7480000D03*
X7380000Y5820000D03*
X7480000D03*
X7585840Y7910380D03*
X7620000Y8260000D03*
X7585840Y8870380D03*
X7690000Y9200000D03*
X7685840Y9620380D03*
X8043120Y5336950D03*
Y5836950D03*
Y6336950D03*
X8059620Y6795840D03*
Y7295840D03*
X8085840Y7910380D03*
Y8870380D03*
X8380000Y8270000D03*
X8370000Y9200000D03*
X8185840Y9620380D03*
X8633120Y5336950D03*
Y5836950D03*
Y6336950D03*
X9115830Y854200D03*
Y1354200D03*
X9190000Y4640000D03*
Y4940000D03*
Y4790000D03*
X9179620Y7065840D03*
Y7565840D03*
Y8065840D03*
Y8565840D03*
Y9065840D03*
X9450000Y4640000D03*
Y4790000D03*
Y4940000D03*
X9303120Y5336950D03*
Y5836950D03*
Y6336950D03*
X9615830Y854200D03*
Y1354200D03*
X9679620Y7065840D03*
Y7565840D03*
Y8065840D03*
Y8565840D03*
Y9065840D03*
G54D22*
X4564000Y4060000D03*
X5680000Y8128780D03*
Y8382780D03*
Y9072000D03*
Y9326000D03*
X6236000Y260000D03*
X6246000Y1980000D03*
X6256000Y3710000D03*
X6630000Y7162000D03*
Y7416000D03*
Y8128780D03*
Y8382780D03*
Y9072000D03*
Y9326000D03*
X6880000Y5740000D03*
Y6240000D03*
X7960000Y8128780D03*
Y8382780D03*
Y9072000D03*
Y9326000D03*
X8730000Y7162000D03*
Y7416000D03*
Y8128780D03*
Y8382780D03*
Y9072000D03*
Y9326000D03*
X9750000Y4264000D03*
Y4518000D03*
Y5026000D03*
Y4772000D03*
G54D13*
X740000Y3470000D03*
Y3720000D03*
Y3970000D03*
X3890000Y9576500D03*
X3763000D03*
X3890000Y9703500D03*
X3763000D03*
X3636000D03*
X4144000Y9576500D03*
X4017000D03*
X4144000Y9703500D03*
X4017000D03*
G54D23*
X5680000Y8636780D03*
Y9580000D03*
X6630000Y7670000D03*
Y8636780D03*
Y9580000D03*
X7960000Y8636780D03*
Y9580000D03*
X8730000Y7670000D03*
Y8636780D03*
Y9580000D03*
X9750000Y4010000D03*
G54D14*
X1418200Y812030D03*
Y1412030D03*
G54D24*
X8060000Y2171460D03*
Y2591460D03*
Y3011460D03*
Y3431460D03*
X8610000Y2171460D03*
Y2591460D03*
Y3011460D03*
Y3431460D03*
G54D15*
X1418000Y9374000D03*
X2282000D03*
G54D25*
G01X3749200Y8540000D02*
X3589200Y8380000D01*
X2880000D01*
X2630000Y8130000D01*
X740000D01*
X620000Y8010000D01*
Y3840000D01*
X740000Y3720000D01*
G01X3750000Y8440000D02*
X3640000Y8330000D01*
X2920000D01*
X2540000Y7950000D01*
Y4190000D01*
X2585000Y4145000D01*
X3830310D01*
G01X4720800Y4707500D02*
X2802850D01*
X2720000Y4790350D01*
Y8000000D01*
X2790000Y8070000D01*
X2940000D01*
G01X4670000Y4772500D02*
X2829780D01*
X2760000Y4842280D01*
Y7900000D01*
X2818240Y7958240D01*
X2937180D01*
G01X4720800Y4837500D02*
X2856710D01*
X2800000Y4894210D01*
Y7790000D01*
X2850000Y7840000D01*
X2940000D01*
G01X2870000Y7780970D02*
X2965160Y7685810D01*
Y5154840D01*
X3060000Y5060000D01*
X4642500D01*
X4670000Y5032500D01*
G01X2870000Y8014120D02*
X2960330D01*
X3050000Y7924450D01*
Y5190000D01*
X3100000Y5140000D01*
X4743860D01*
X4792830Y5091030D01*
Y4922820D01*
X4772510Y4902500D01*
X4670000D01*
G01X2870000Y7900000D02*
X2959030D01*
X3007580Y7851450D01*
Y5172430D01*
X3080010Y5100000D01*
X4691930D01*
X4727830Y5064100D01*
Y4974530D01*
X4720800Y4967500D01*
G01X4080000Y1970000D02*
X3520000D01*
G01X3560000Y8910000D02*
X4760000D01*
X4920000Y8750000D01*
Y8070000D01*
G01X8730000Y9326000D02*
X8901000Y9497000D01*
Y9691000D01*
X8832000Y9760000D01*
X5278000D01*
X5190000Y9672000D01*
Y7332000D01*
X5018000Y7160000D01*
X3950000D01*
G01X8730000Y8382780D02*
X8950500Y8603280D01*
Y9740500D01*
X8861000Y9830000D01*
X5249000D01*
X5120000Y9701000D01*
Y7361000D01*
X4989000Y7230000D01*
X3950000D01*
G01X8730000Y7416000D02*
X9000000Y7686000D01*
Y9790000D01*
X8890000Y9900000D01*
X5220000D01*
X5050000Y9730000D01*
Y7390000D01*
X4960000Y7300000D01*
X3950000D01*
G01X4920000Y7930000D02*
Y7530000D01*
X4850000Y7460000D01*
X4460000D01*
G01X4920000Y8070000D02*
Y7930000D01*
G01X5250000Y3770000D02*
X5180000D01*
G01D02*
X5070000Y3880000D01*
Y7100000D01*
X5260000Y7290000D01*
Y8935000D01*
X5360000Y9035000D01*
G01X5260000Y6670000D02*
Y4500320D01*
X5280320Y4480000D01*
X6430000D01*
X6510000Y4400000D01*
Y3710000D01*
G01X5360000Y7750000D02*
Y4670000D01*
X5460000Y4570000D01*
X6490000D01*
X6660000Y4400000D01*
Y3530000D01*
X6610000Y3480000D01*
X5770000D01*
X5720000Y3430000D01*
Y2970000D01*
X5770000Y2920000D01*
X6430000D01*
X6500000Y2850000D01*
Y1980000D01*
G01X6870000Y600000D02*
X7669680D01*
X7690000Y620320D01*
Y6839680D01*
X7669680Y6860000D01*
X5580000D01*
X5500000Y6940000D01*
Y8070000D01*
X5360000Y8210000D01*
G54D16*
X1418000Y9792000D03*
X2282000D03*
G54D26*
G01X1610000Y9110000D02*
X2090000D01*
G01X2490000Y8290000D02*
X2430000D01*
X2370000Y8350000D01*
Y8550000D01*
X2420000Y8600000D01*
X2690000D01*
X2850000Y8760000D01*
Y9300000D01*
X3020000Y9470000D01*
X3737600D01*
X3763000Y9495400D01*
Y9576500D01*
G01X2490000Y8400000D02*
X2670000D01*
X3020000Y8750000D01*
Y9200010D01*
X3135130Y9315140D01*
X3855640D01*
X4017000Y9476500D01*
Y9576500D01*
G01X2490000Y8520000D02*
X2690000D01*
X2930000Y8760000D01*
Y9250000D01*
X3080000Y9400000D01*
X3813500D01*
X3890000Y9476500D01*
Y9576500D01*
G01X5130000Y4380000D02*
X5910000D01*
G01X5135000Y6825000D02*
Y5915000D01*
G01X6025000Y2810000D02*
X5590000D01*
G01X5870000Y1420000D02*
X6820000D01*
G01X5890000Y3150000D02*
X6830000D01*
G01X5800000Y4840000D02*
X6560000D01*
G01X6630000Y8382780D02*
X6840000Y8172780D01*
Y7700000D01*
X7010000Y7530000D01*
X8250000D01*
X8350000Y7430000D01*
Y3691460D01*
X8610000Y3431460D01*
G01Y2171460D02*
X8260000Y2521460D01*
Y7340000D01*
X8180000Y7420000D01*
X6634000D01*
X6630000Y7416000D01*
G01X8610000Y3011460D02*
X8840000Y3241460D01*
Y3540000D01*
X8430000Y3950000D01*
Y7540000D01*
X8290000Y7680000D01*
X7070000D01*
X6960000Y7790000D01*
Y8996000D01*
X6630000Y9326000D01*
G54D17*
X1898200Y1132030D03*
G54D27*
G01X360000Y360000D02*
Y760900D01*
G01Y360000D02*
X760900D01*
G01X120000Y4306600D02*
Y4445000D01*
G01D02*
Y4583400D01*
G01Y4445000D02*
X258400D01*
G01X120000Y5056600D02*
Y5195000D01*
G01D02*
X258400D01*
G01X120000Y5445000D02*
Y5583400D01*
G01Y5445000D02*
X258400D01*
G01X120000Y6056600D02*
Y6195000D01*
G01D02*
X258400D01*
G01X120000Y6425000D02*
Y6563400D01*
G01Y6425000D02*
X258400D01*
G01X120000Y7036600D02*
Y7175000D01*
G01D02*
X258400D01*
G01X120000Y7405000D02*
Y7543400D01*
G01Y7405000D02*
X258400D01*
G01X120000Y8016600D02*
Y8155000D01*
G01D02*
X258400D01*
G01X120000Y8366970D02*
Y8505370D01*
G01Y8366970D02*
X258400D01*
G01X120000Y8978570D02*
Y9116970D01*
G01D02*
Y9255370D01*
G01Y9116970D02*
X258400D01*
G01X360000Y9239100D02*
Y9640000D01*
G01D02*
X760900D01*
G01X740000Y3364100D02*
Y3470000D01*
G01D02*
Y3575900D01*
G01X634100Y3470000D02*
X740000D01*
G01D02*
X845900D01*
G01X1162300Y812030D02*
X1418200D01*
G01D02*
Y967930D01*
G01Y812030D02*
X1674100D01*
G01X1418000Y9213100D02*
Y9374000D01*
G01D02*
Y9534900D01*
G01X1312100Y9374000D02*
X1418000D01*
G01Y9656100D02*
Y9792000D01*
G01D02*
Y9927900D01*
G01X1312100Y9792000D02*
X1418000D01*
G01D02*
X1523900D01*
G01X2282000Y9213100D02*
Y9374000D01*
G01D02*
Y9534900D01*
G01Y9374000D02*
X2387900D01*
G01X2282000Y9656100D02*
Y9792000D01*
G01D02*
Y9927900D01*
G01X2176100Y9792000D02*
X2282000D01*
G01D02*
X2387900D01*
G01X3035100Y960000D02*
X3201000D01*
G01Y794100D02*
Y960000D01*
G01D02*
Y1125900D01*
G01Y960000D02*
X3366900D01*
G01X3759100Y163000D02*
X3925000D01*
G01D02*
Y328900D01*
G01Y163000D02*
X4090900D01*
G01X4144000Y9470600D02*
Y9576500D01*
G01D02*
X4249900D01*
G01X4564000Y3914100D02*
Y4060000D01*
G01D02*
Y4205900D01*
G01Y4060000D02*
X4709900D01*
G01X5255000Y163000D02*
Y328900D01*
G01X5089100Y163000D02*
X5255000D01*
G01D02*
X5420900D01*
G01X6090100Y260000D02*
X6236000D01*
G01X6100100Y1980000D02*
X6246000D01*
G01X6236000Y260000D02*
Y405900D01*
G01X6246000Y1980000D02*
Y2125900D01*
G01X6880000Y5594100D02*
Y5740000D01*
G01D02*
Y5885900D01*
G01Y5740000D02*
X7025900D01*
G01X6880000Y6094100D02*
Y6240000D01*
G01D02*
Y6385900D01*
G01X6734100Y6240000D02*
X6880000D01*
G01D02*
X7025900D01*
G01X8429100Y2591460D02*
X8610000D01*
G01Y2410560D02*
Y2591460D01*
G01D02*
Y2772360D01*
G01Y2591460D02*
X8790900D01*
G01X9239100Y360000D02*
X9640000D01*
G01X9239100Y9640000D02*
X9640000D01*
G01X9604100Y4772000D02*
X9750000D01*
G01X9640000Y360000D02*
Y760900D01*
G01X9750000Y4772000D02*
X9895900D01*
G01X9640000Y9239100D02*
Y9640000D01*
G54D18*
X2439000Y960000D03*
X3201000D03*
X3925000Y163000D03*
X5255000D03*
G54D19*
X3636000Y9576500D03*
M02*
