M48
METRIC,TZ
T01C.254
T02C.6
T03C.9
T04C1.
T05C1.1
T06C1.5
T07C1.6
T08C1.8
T09C3.3
;LEADER: 12 
;HEADER: 
;CODE  : ASCII 
;FILE  : MM32SPIN27PF_V10_220608-1-2.drl for board G:/github/MotorDriver/HARDWARE/MM32SPIN27PF_V10_220608/PCB/#Taaaabf17308.tmp ... layers TOP and BOTTOM
;T01 Holesize 1. = 0.254000 Tolerance = +0.000000/-0.000000 PLATED MM Quantity = 370
;T02 Holesize 2. = 0.600000 Tolerance = +0.000000/-0.000000 PLATED MM Quantity = 13
;T03 Holesize 3. = 0.900000 Tolerance = +0.000000/-0.000000 PLATED MM Quantity = 2
;T04 Holesize 4. = 1.000000 Tolerance = +0.000000/-0.000000 PLATED MM Quantity = 10
;T05 Holesize 5. = 1.100000 Tolerance = +0.000000/-0.000000 PLATED MM Quantity = 43
;T06 Holesize 6. = 1.500000 Tolerance = +0.000000/-0.000000 PLATED MM Quantity = 4
;T07 Holesize 7. = 1.600000 Tolerance = +0.000000/-0.000000 PLATED MM Quantity = 3
;T08 Holesize 8. = 1.800000 Tolerance = +0.000000/-0.000000 PLATED MM Quantity = 8
;T09 Holesize 9. = 3.300000 Tolerance = +0.000000/-0.000000 PLATED MM Quantity = 4
%
G90
T01
X216170Y1010630
X1138240Y302610
X1638240Y302610
X2138240Y302610
X2638240Y302610
X3138240Y302610
X3638240Y302610
X4138240Y302610
X4638240Y302610
X5980000Y220000
X5980000Y320000
X6080000Y220000
X6080000Y320000
X6190000Y440000
X6190000Y540000
X6190000Y640000
X6190000Y740000
X6290000Y440000
X6290000Y540000
X6290000Y640000
X6290000Y740000
X6870000Y600000
X6910000Y1210000
X6990000Y1210000
X7070000Y1210000
X7150000Y1210000
X7420000Y1200000
X7500000Y1200000
X9115830Y854200
X9615830Y854200
X9615830Y1354200
X9115830Y1354200
X7500000Y1400000
X7500000Y1300000
X7420000Y1400000
X7420000Y1300000
X7340000Y1400000
X7260000Y1400000
X6820000Y1420000
X6300000Y2460000
X6300000Y2360000
X6300000Y2260000
X6300000Y2160000
X6200000Y2460000
X6200000Y2360000
X6200000Y2260000
X6200000Y2160000
X6090000Y2040000
X6090000Y1940000
X5990000Y2040000
X5990000Y1940000
X5910000Y1620000
X5870000Y1420000
X4553050Y1993120
X4553050Y1713120
X4443050Y1853120
X4303050Y1993120
X4303050Y1713120
X4193050Y1853120
X4080000Y1970000
X3943050Y1853120
X3800000Y2440000
X3800000Y2320000
X3770000Y2190000
X3770000Y2060000
X3710000Y2440000
X3710000Y2320000
X3693050Y1853120
X3680000Y2190000
X3680000Y2060000
X3620000Y2440000
X3620000Y2320000
X3520000Y1970000
X3270000Y2500000
X3150000Y2500000
X1522980Y1833910
X1483050Y2523120
X1483050Y2373120
X1022980Y1833910
X740000Y2090000
X503120Y2336950
X216170Y2010630
X216170Y1510630
X460000Y2680000
X503120Y2586950
X753050Y3013120
X753050Y3163120
X1003050Y3013120
X1003050Y3163120
X1273050Y3013120
X1273050Y3163120
X1523050Y3013120
X1523050Y3163120
X1803050Y3013120
X1803050Y3163120
X2123050Y3133120
X2123050Y3443120
X2123050Y3773120
X2623050Y3133120
X2623050Y3443120
X2623050Y3773120
X3123050Y3133120
X3240000Y2810000
X3240000Y2930000
X3620000Y2560000
X3620000Y2680000
X3620000Y2810000
X3620000Y2940000
X3663050Y3123120
X3710000Y2559080
X3710000Y2680000
X3710000Y2810000
X3710000Y2940000
X3800000Y2560000
X3800000Y2680000
X3800000Y2810000
X3800000Y2940000
X4163050Y3123120
X5590000Y2810000
X5690000Y3670000
X5690000Y3770000
X5790000Y3670000
X5790000Y3770000
X5890000Y3150000
X5890000Y3670000
X5890000Y3770000
X5900000Y3300000
X5990000Y3670000
X5990000Y3770000
X6025000Y2810000
X6090000Y3670000
X6090000Y3770000
X6830000Y3150000
X6920000Y2930000
X7000000Y2930000
X7080000Y2930000
X7160000Y2930000
X7270000Y3120000
X7350000Y3120000
X7430000Y2920000
X7430000Y3020000
X7430000Y3120000
X7510000Y2920000
X7510000Y3020000
X7510000Y3120000
X9450000Y4940000
X9450000Y4790000
X9450000Y4640000
X9190000Y4940000
X9190000Y4790000
X9190000Y4640000
X7520000Y4850000
X7520000Y4750000
X7520000Y4650000
X7440000Y4850000
X7440000Y4750000
X7440000Y4650000
X7360000Y4850000
X7280000Y4850000
X7170000Y4660000
X7090000Y4660000
X7010000Y4660000
X6930000Y4660000
X6560000Y4840000
X6130000Y5030000
X5910000Y4380000
X5800000Y4840000
X5130000Y4380000
X4930000Y5000000
X4930000Y4900000
X4930000Y4800000
X4930000Y4700000
X4930000Y4600000
X4930000Y4500000
X4930000Y4400000
X4930000Y4300000
X4930000Y4200000
X4930000Y4100000
X4930000Y4000000
X4720800Y4967500
X4720800Y4837500
X4720800Y4707500
X4670000Y5032500
X4670000Y4902500
X4670000Y4772500
X4613050Y3833120
X4340000Y4510000
X4113050Y3833120
X4040000Y3970000
X3840000Y4510000
X3830310Y4145000
X3613050Y3833120
X2259930Y4910740
X2259930Y4410740
X1082630Y5001310
X1082630Y4501310
X1082630Y5501310
X1082630Y6001310
X2259930Y5410740
X2259930Y5910740
X3445460Y6119060
X3673050Y5413120
X3945460Y6119060
X4173050Y5413120
X4445460Y6119060
X4673050Y5413120
X4930000Y5100000
X5135000Y5915000
X5613050Y5433120
X5664210Y6209620
X6113050Y5433120
X6164210Y6209620
X6613050Y5433120
X6664210Y6209620
X7080000Y5620000
X7080000Y5720000
X7080000Y5820000
X7080000Y5920000
X7164210Y6209620
X7180000Y5620000
X7180000Y5720000
X7180000Y5820000
X7180000Y5920000
X7280000Y5620000
X7280000Y5720000
X7280000Y5820000
X7280000Y5920000
X7380000Y5620000
X7380000Y5720000
X7380000Y5820000
X7380000Y5920000
X7480000Y5620000
X7480000Y5720000
X7480000Y5820000
X7480000Y5920000
X8043120Y5336950
X8043120Y5836950
X8043120Y6336950
X8633120Y5336950
X8633120Y5836950
X8633120Y6336950
X9303120Y5336950
X9303120Y5836950
X9303120Y6336950
X9679620Y7565840
X9679620Y7065840
X9179620Y7565840
X9179620Y7065840
X8059620Y7295840
X8059620Y6795840
X7275840Y6980380
X7273050Y6673120
X6925000Y7305000
X6775840Y6980380
X6773050Y6673120
X6273050Y6673120
X6055270Y7366340
X5260000Y6670000
X5135000Y6825000
X4980000Y6830000
X4970000Y7440000
X4970000Y7100000
X4650000Y6890000
X4545000Y7100000
X4460000Y7460000
X4310000Y7390000
X4250000Y6970000
X4250000Y6760000
X3950000Y7300000
X3950000Y7230000
X3950000Y7160000
X3890000Y6705000
X3630000Y7090000
X3630000Y6620000
X3590000Y7600000
X3330000Y7600000
X2885000Y7465000
X2880000Y6620000
X1082630Y6501310
X840000Y7660000
X840000Y7910000
X1150000Y7660000
X1150000Y7900000
X1480000Y8520000
X1480000Y8710000
X1610000Y8880000
X1630000Y8710000
X1750000Y8490000
X1960000Y8700000
X2030000Y7650000
X2030000Y7900000
X2060000Y8880000
X2220000Y8380000
X2315000Y8745000
X2340000Y7650000
X2340000Y7890000
X2490000Y8290000
X2490000Y8400000
X2490000Y8520000
X2870000Y7780970
X2870000Y7900000
X2870000Y8014120
X2937180Y7958240
X2940000Y7840000
X2940000Y8070000
X3130000Y8700000
X3360000Y8450000
X3440000Y8840000
X3450000Y7840000
X3450000Y8090000
X3750000Y8440000
X3749200Y8540000
X3800000Y7840000
X3800000Y8090000
X4080000Y8310000
X4080000Y8580000
X4080000Y8830000
X4255000Y8305000
X4350000Y8120000
X4390000Y8580000
X4390000Y8820000
X4470000Y7630000
X4470000Y7750000
X4660000Y8580000
X4660000Y8820000
X4920000Y7930000
X4920000Y8070000
X5360000Y7750000
X5360000Y8210000
X6055270Y7866340
X6055270Y8366340
X7040000Y8250000
X7585840Y7910380
X7585840Y8870380
X7620000Y8260000
X8085840Y7910380
X8085840Y8870380
X8380000Y8270000
X9179620Y8065840
X9179620Y8565840
X9679620Y8065840
X9679620Y8565840
X9679620Y9065840
X9179620Y9065840
X8370000Y9200000
X8185840Y9620380
X7690000Y9200000
X7685840Y9620380
X7040000Y9200000
X6330000Y9580000
X5360000Y9035000
X4870000Y9620000
X4870000Y9380000
X4560000Y9630000
X4560000Y9380000
X4080000Y9270000
X3710000Y9130000
X3560000Y8910000
X3440000Y9020000
X3370000Y9230000
X3130000Y9150000
X2890000Y9470000
X2680000Y9280000
X2090000Y9110000
X2040000Y9840000
X2040000Y9600000
X1730000Y9850000
X1730000Y9600000
X1610000Y9110000
X920000Y9290000
T02
X740000Y3470000
X740000Y3720000
X740000Y3970000
X3636000Y9576500
X3763000Y9576500
X3890000Y9576500
X4017000Y9576500
X4144000Y9576500
X4144000Y9703500
X4017000Y9703500
X3890000Y9703500
X3763000Y9703500
X3636000Y9703500
T03
X6880000Y5740000
X6880000Y6240000
T04
X120000Y4445000
X120000Y5195000
X120000Y5445000
X120000Y6195000
X120000Y6425000
X120000Y7175000
X120000Y7405000
X120000Y8155000
X120000Y8366970
X120000Y9116970
T05
X6236000Y260000
X6490000Y260000
X6500000Y1980000
X6246000Y1980000
X4310000Y4060000
X4564000Y4060000
X6256000Y3710000
X6510000Y3710000
X9750000Y4010000
X9750000Y4264000
X9750000Y4518000
X9750000Y4772000
X9750000Y5026000
X8730000Y8636780
X8730000Y8382780
X8730000Y8128780
X8730000Y7670000
X8730000Y7416000
X8730000Y7162000
X7960000Y8636780
X7960000Y8382780
X7960000Y8128780
X6630000Y8636780
X6630000Y8382780
X6630000Y8128780
X6630000Y7670000
X6630000Y7416000
X6630000Y7162000
X5680000Y8636780
X5680000Y8382780
X5680000Y8128780
X5680000Y9072000
X5680000Y9326000
X5680000Y9580000
X6630000Y9072000
X6630000Y9326000
X6630000Y9580000
X7960000Y9072000
X7960000Y9326000
X7960000Y9580000
X8730000Y9072000
X8730000Y9326000
X8730000Y9580000
T06
X2439000Y960000
X3201000Y960000
X3925000Y163000
X5255000Y163000
T07
X4110000Y1085000
X4590000Y1085000
X5070000Y1085000
T08
X8060000Y2171460
X8060000Y2591460
X8060000Y3011460
X8060000Y3431460
X8610000Y3431460
X8610000Y3011460
X8610000Y2591460
X8610000Y2171460
T09
X360000Y360000
X9640000Y360000
X9640000Y9640000
X360000Y9640000
M30
