G04 ================== begin FILE IDENTIFICATION RECORD ==================*
G04 Layout Name:  MM32SPIN27PF_V10_220608.brd*
G04 Film Name:    PasteMask_Top*
G04 File Format:  Gerber RS274X*
G04 File Origin:  Cadence Allegro 17.2-S079*
G04 Origin Date:  Mon Jun 13 16:00:24 2022*
G04 *
G04 Layer:  PIN/PASTEMASK_TOP*
G04 Layer:  PACKAGE GEOMETRY/PASTEMASK_TOP*
G04 *
G04 Offset:    (0.0000 0.0000)*
G04 Mirror:    No*
G04 Mode:      Positive*
G04 Rotation:  0*
G04 FullContactRelief:  No*
G04 UndefLineWidth:     0.1524*
G04 ================== end FILE IDENTIFICATION RECORD ====================*
%FSLAX55Y55*MOMM*%
%IR0*IPPOS*OFA0.00000B0.00000*MIA0B0*SFA1.00000B1.00000*%
%ADD17R,1.2X.3*%
%ADD21R,.3X1.2*%
%ADD26R,.5X2.*%
%ADD14R,1.1X.6*%
%ADD19R,.7X1.1*%
%ADD18R,.6X1.2*%
%ADD24R,1.5X.6*%
%ADD32R,.8X1.4*%
%ADD30R,1.52X.25*%
%ADD13C,.75*%
%ADD20R,.7X.7*%
%ADD12R,1.2X1.*%
%ADD29R,1.X1.2*%
%ADD11R,1.2X1.4*%
%ADD27R,2.4X3.1*%
%ADD31R,1.8X3.2*%
%ADD28R,1.8X1.6*%
%ADD23R,.5X.6*%
%ADD22R,2.5X3.5*%
%ADD25R,1.6X1.8*%
%ADD15R,.6X.5*%
%ADD16R,.7X.9*%
%ADD10C,6.9*%
%LPD*%
G75*
G54D10*
X360000Y360000D03*
Y9640000D03*
X9640000Y360000D03*
Y9640000D03*
G54D11*
X320000Y4600000D03*
Y5040000D03*
Y5600000D03*
Y6040000D03*
Y6580000D03*
Y7020000D03*
Y7560000D03*
Y8000000D03*
Y8521970D03*
Y8961970D03*
G54D20*
X1740000Y8790000D03*
X1960000Y8990000D03*
X1740000D03*
X5070000Y7300000D03*
X5290000Y7500000D03*
X5070000D03*
G54D12*
X740000Y2220480D03*
Y2423680D03*
Y2678400D03*
Y2881600D03*
X1610000Y2220480D03*
Y2678400D03*
Y2423680D03*
Y2881600D03*
X2140000Y2668400D03*
X2350000D03*
X2140000Y2871600D03*
X2350000D03*
X2560000Y2668400D03*
X2770000D03*
X2560000Y2871600D03*
X2770000D03*
X4380000Y6971600D03*
Y6768400D03*
G54D30*
X4510000Y4642500D03*
Y4577500D03*
Y4512500D03*
Y4447500D03*
Y5032500D03*
Y4967500D03*
Y4902500D03*
Y4837500D03*
Y4772500D03*
Y4707500D03*
X5130000Y4447500D03*
Y4512500D03*
Y4577500D03*
Y4642500D03*
Y4707500D03*
Y4772500D03*
Y4837500D03*
Y4902500D03*
Y4967500D03*
Y5032500D03*
G54D21*
X1675000Y9270000D03*
X1725000D03*
X1775000D03*
X1825000D03*
X1875000D03*
X1925000D03*
X1975000D03*
X2025000D03*
X3484990Y7380960D03*
X3435010D03*
X3384990D03*
X3335010D03*
X3284990D03*
Y8230960D03*
X3335010D03*
X3384990D03*
X3435010D03*
X3484990D03*
X3835010Y7380960D03*
X3784990D03*
X3735010D03*
X3684990D03*
X3635010D03*
X3584990D03*
X3535010D03*
Y8230960D03*
X3584990D03*
X3635010D03*
X3684990D03*
X3735010D03*
X3784990D03*
X3835010D03*
G54D22*
X2170000Y1980000D03*
X3210000D03*
G54D31*
X5110000Y4060000D03*
X5750000D03*
X6050000Y610000D03*
X6060000Y2330000D03*
X6070000Y4060000D03*
X6690000Y610000D03*
X6700000Y2330000D03*
X6710000Y4060000D03*
G54D13*
X570000Y2230000D03*
Y2680000D03*
X1940000Y2670000D03*
X4250000Y7150000D03*
Y7650000D03*
Y7950000D03*
X5440000Y7500000D03*
G54D23*
X2315000Y8400000D03*
Y8520000D03*
Y8650000D03*
X2405000Y8400000D03*
Y8520000D03*
Y8650000D03*
X2795000Y7680000D03*
X2885000D03*
Y7550000D03*
X2795000D03*
X4245000Y4670000D03*
X4155000D03*
X4045000Y5030000D03*
X3955000D03*
X4245000Y4950000D03*
X4155000D03*
X4045000Y4880000D03*
X3955000D03*
X4245000Y4810000D03*
X4155000D03*
X4045000Y4740000D03*
X3955000D03*
X4255000Y8210000D03*
X4635000Y7320000D03*
X4545000D03*
Y7200000D03*
X4635000D03*
X4545000Y7460000D03*
X4635000D03*
X4545000Y7630000D03*
X4635000D03*
Y7930000D03*
X4545000D03*
X4635000Y7750000D03*
X4545000D03*
X4635000Y8070000D03*
X4545000D03*
X4635000Y8210000D03*
X4545000D03*
Y8330000D03*
X4635000D03*
X4345000Y8210000D03*
X4835000Y7320000D03*
X4745000D03*
Y7460000D03*
X4835000D03*
Y8070000D03*
X4745000D03*
X4835000Y7750000D03*
X4745000D03*
X4835000Y7930000D03*
X4745000D03*
X4835000Y8210000D03*
X4745000D03*
X5225000Y6910000D03*
X5135000D03*
Y7030000D03*
X5225000D03*
Y7150000D03*
X5135000D03*
X6175000Y8980000D03*
X6085000D03*
X6175000Y9100000D03*
X6085000D03*
X6175000Y9220000D03*
X6085000D03*
X6175000Y9460000D03*
X6085000D03*
Y9340000D03*
X6175000D03*
X6085000Y9580000D03*
X6175000D03*
X6295000Y1090000D03*
X6385000D03*
X6295000Y1210000D03*
X6385000D03*
X6305000Y2810000D03*
X6395000D03*
X6305000Y2930000D03*
X6395000D03*
X6315000Y4660000D03*
X6405000D03*
X6315000Y4540000D03*
X6405000D03*
X6885000Y7160000D03*
X6975000D03*
X7405000Y7330000D03*
X7495000D03*
Y7450000D03*
X7405000D03*
Y7570000D03*
X7495000D03*
Y8310000D03*
X7405000D03*
Y8440000D03*
X7495000D03*
X7405000Y8190000D03*
X7495000D03*
X7705000Y8380000D03*
X7615000D03*
X7405000Y8560000D03*
X7495000D03*
X7405000Y9140000D03*
X7495000D03*
Y9260000D03*
X7405000D03*
Y9390000D03*
X7495000D03*
X7405000Y9510000D03*
X7495000D03*
X7705000Y9330000D03*
X7615000D03*
X8465000Y7410000D03*
X8375000D03*
X8465000Y8380000D03*
X8375000D03*
X8465000Y9330000D03*
X8375000D03*
X9105000Y4640000D03*
X9015000D03*
X9105000Y4940000D03*
X9015000D03*
X9105000Y4790000D03*
X9015000D03*
X9275000Y4640000D03*
X9365000D03*
X9275000Y4940000D03*
X9365000D03*
X9275000Y4790000D03*
X9365000D03*
G54D32*
X6015000Y930000D03*
Y1370000D03*
Y1580000D03*
X6025000Y2650000D03*
Y3090000D03*
Y3300000D03*
X6035000Y4380000D03*
Y5030000D03*
Y4820000D03*
X6365000Y930000D03*
Y1370000D03*
Y1580000D03*
X6375000Y2650000D03*
Y3090000D03*
Y3300000D03*
X6385000Y4380000D03*
Y5030000D03*
Y4820000D03*
X6925000Y7450000D03*
Y8250000D03*
Y8500000D03*
Y9200000D03*
Y9450000D03*
X7275000Y7450000D03*
Y8250000D03*
Y8500000D03*
Y9200000D03*
Y9450000D03*
G54D14*
X1090000Y2227080D03*
Y2417080D03*
Y2685000D03*
Y2875000D03*
X1350000Y2322080D03*
Y2227080D03*
Y2417080D03*
Y2780000D03*
Y2685000D03*
Y2875000D03*
G54D15*
X900000Y2185000D03*
Y2275000D03*
Y2385000D03*
Y2475000D03*
Y2635000D03*
Y2725000D03*
Y2835000D03*
Y2925000D03*
X920000Y9465000D03*
Y9375000D03*
X1040000Y9465000D03*
Y9375000D03*
X1490000Y8975000D03*
Y8885000D03*
X2210000D03*
Y8975000D03*
X2680000Y9375000D03*
Y9465000D03*
X2970000Y2625000D03*
Y2715000D03*
X3120000D03*
Y2625000D03*
X2970000Y2835000D03*
Y2925000D03*
X3120000Y2835000D03*
Y2925000D03*
X2980000Y9375000D03*
Y9465000D03*
X2800000Y9375000D03*
Y9465000D03*
X3240000Y2625000D03*
Y2715000D03*
X3320000Y8825000D03*
Y8735000D03*
Y8615000D03*
Y8525000D03*
X3440000D03*
Y8615000D03*
X3630000Y6705000D03*
Y6795000D03*
X3800000D03*
Y6705000D03*
Y6915000D03*
X3630000D03*
X3800000Y7005000D03*
X3630000D03*
X3830000Y8615000D03*
Y8525000D03*
X3560000Y8825000D03*
Y8735000D03*
X3830000D03*
Y8825000D03*
X3710000Y8735000D03*
Y8825000D03*
X3560000Y8525000D03*
Y8615000D03*
X3710000Y9035000D03*
Y8945000D03*
X3830000Y9035000D03*
Y8945000D03*
X4080000Y2195000D03*
Y2105000D03*
X4190000Y2925000D03*
Y2835000D03*
X4040000Y4145000D03*
Y4055000D03*
X3920000D03*
Y4145000D03*
Y6915000D03*
Y7005000D03*
X4310000Y2725000D03*
Y2635000D03*
Y2925000D03*
Y2835000D03*
X4530000Y6915000D03*
X4650000Y6715000D03*
Y6805000D03*
X4530000Y6715000D03*
Y6805000D03*
Y7005000D03*
X6540000Y1055000D03*
Y965000D03*
Y1215000D03*
Y1305000D03*
X6550000Y2685000D03*
Y2775000D03*
Y2935000D03*
Y3025000D03*
X6560000Y4505000D03*
Y4415000D03*
Y4665000D03*
Y4755000D03*
G54D24*
X3440000Y2369080D03*
Y2496080D03*
Y2623080D03*
Y2750080D03*
X3980000Y2369080D03*
Y2750080D03*
Y2623080D03*
Y2496080D03*
X6755320Y949000D03*
Y1076000D03*
Y1203000D03*
Y1330000D03*
X6765320Y2669000D03*
Y2796000D03*
Y2923000D03*
Y3050000D03*
X6775320Y4399000D03*
Y4526000D03*
Y4653000D03*
Y4780000D03*
X7295320Y1203000D03*
Y1076000D03*
Y949000D03*
Y1330000D03*
X7305320Y2669000D03*
Y3050000D03*
Y2923000D03*
Y2796000D03*
X7315320Y4653000D03*
Y4526000D03*
Y4399000D03*
Y4780000D03*
G54D16*
X930000Y9600000D03*
X1030000D03*
X930000Y9780000D03*
X1030000D03*
X2630000Y9600000D03*
X2730000D03*
X2630000Y9780000D03*
X2730000D03*
X2970000Y9600000D03*
X2870000D03*
X2970000Y9780000D03*
X2870000D03*
G54D25*
X3520000Y2130000D03*
X3900000D03*
X6600000Y1580000D03*
X6610000Y3300000D03*
X6620000Y5030000D03*
X6880000Y1580000D03*
X6890000Y3300000D03*
X6900000Y5030000D03*
G54D26*
X3250000Y6960000D03*
X3370000D03*
X3490000D03*
G54D17*
X1605000Y8420000D03*
Y8470000D03*
Y8520000D03*
Y8570000D03*
Y8620000D03*
X2095000Y8420000D03*
Y8620000D03*
Y8570000D03*
Y8520000D03*
Y8470000D03*
X3135000Y7530950D03*
Y7580970D03*
Y7630950D03*
Y7680970D03*
Y7730950D03*
Y7780970D03*
Y7830950D03*
Y7880970D03*
Y7930950D03*
Y7980970D03*
Y8030950D03*
Y8080970D03*
X3985000Y7680970D03*
Y7630950D03*
Y7580970D03*
Y7530950D03*
Y8080970D03*
Y8030950D03*
Y7980970D03*
Y7930950D03*
Y7880970D03*
Y7830950D03*
Y7780970D03*
Y7730950D03*
G54D27*
X3710000Y2559080D03*
G54D18*
X1530000Y9270000D03*
X1610000D03*
X2090000D03*
X2170000D03*
G54D28*
X4270000Y2160000D03*
Y2440000D03*
X4520000Y2160000D03*
Y2440000D03*
Y2720000D03*
Y3100000D03*
X4770000Y2160000D03*
Y2440000D03*
G54D19*
X1960000Y8810000D03*
X5290000Y7320000D03*
G54D29*
X4201600Y4500000D03*
X3998400D03*
M02*
