G04 ================== begin FILE IDENTIFICATION RECORD ==================*
G04 Layout Name:  MCF8316A_V10_211228.brd*
G04 Film Name:    BOTTOM*
G04 File Format:  Gerber RS274X*
G04 File Origin:  Cadence Allegro 17.2-S071*
G04 Origin Date:  Thu Mar 10 20:12:21 2022*
G04 *
G04 Layer:  ETCH/BOTTOM*
G04 Layer:  PIN/BOTTOM*
G04 Layer:  VIA CLASS/BOTTOM*
G04 *
G04 Offset:    (0.0000 0.0000)*
G04 Mirror:    No*
G04 Mode:      Positive*
G04 Rotation:  0*
G04 FullContactRelief:  No*
G04 UndefLineWidth:     0.1524*
G04 ================== end FILE IDENTIFICATION RECORD ====================*
%FSLAX55Y55*MOMM*%
%IR0*IPPOS*OFA0.00000B0.00000*MIA0B0*SFA1.00000B1.00000*%
%ADD11C,.6096*%
%ADD14O,4.X2.*%
%ADD16O,2.X4.*%
%ADD17C,2.2*%
%ADD15C,1.3*%
%ADD18C,2.5*%
%ADD10C,1.7*%
%ADD13C,1.8*%
%ADD12R,1.8X1.8*%
%ADD19C,.2032*%
%ADD20C,.254*%
%ADD21C,.508*%
%ADD24C,2.2148*%
%ADD23C,3.1148*%
%ADD25C,3.4148*%
%ADD22O,2.9148X4.9148*%
G75*
%LPD*%
G75*
G36*
G01X4710000Y5170000D02*
X6860000D01*
G02X6930000Y5100000I0J-70000D01*
G01Y100000D01*
G02X6860000Y30000I-70000J0D01*
G01X100000D01*
G02X30000Y100000I0J70000D01*
G01Y5100000D01*
G02X100000Y5170000I70000J0D01*
G01X2010000D01*
G02X2080000Y5100000I0J-70000D01*
G01Y4900000D01*
G03X2210000Y4770000I130000J0D01*
G01X4510000D01*
G03X4640000Y4900000I0J130000D01*
G01Y5100000D01*
G02X4710000Y5170000I70000J0D01*
G37*
%LPC*%
G75*
G36*
G01X1600000Y1515740D02*
X1800000D01*
G02Y1224260I0J-145740D01*
G01X1600000D01*
G02Y1515740I0J145740D01*
G37*
G36*
G01X4004260Y2521050D02*
Y2658950D01*
X4051050Y2705740D01*
X4948950D01*
X5155740Y2498950D01*
Y1851050D01*
X5125760Y1821070D01*
X5125140Y1820070D01*
G02X5069930Y1764860I-145140J89930D01*
G01X5068930Y1764240D01*
X5048950Y1744260D01*
X5021030D01*
X5019870Y1743980D01*
G02X4940130I-39870J166032D01*
G01X4938970Y1744260D01*
X4921050D01*
X4911890Y1753420D01*
X4910190Y1754190D01*
G02X4824190Y1840190I69810J155810D01*
G01X4823420Y1841890D01*
X4814260Y1851050D01*
Y1868970D01*
X4813980Y1870130D01*
G02Y1949870I166032J39870D01*
G01X4814260Y1951030D01*
Y2451050D01*
X4801050Y2464260D01*
X4061050D01*
X4004260Y2521050D01*
G37*
G36*
G01X6270260Y4962680D02*
G02X6316000Y5008420I45740J0D01*
G01X6496000D01*
G02X6539190Y4977750I0J-45745D01*
G03X6572040Y4969410I19183J6694D01*
G02X6660000Y5003420I87960J-96740D01*
G02X6790740Y4872680I0J-130740D01*
G02X6730790Y4762760I-130746J0D01*
G03Y4728600I11003J-17080D01*
G02Y4508760I-70796J-109920D01*
G03Y4474600I11003J-17080D01*
G02Y4254760I-70796J-109920D01*
G03Y4220600I11003J-17080D01*
G02Y4000760I-70796J-109920D01*
G03Y3966600I11003J-17080D01*
G02Y3746760I-70796J-109920D01*
G03Y3712600I11003J-17080D01*
G02Y3492760I-70796J-109920D01*
G03Y3458600I11003J-17080D01*
G02Y3238760I-70796J-109920D01*
G03Y3204600I11003J-17080D01*
G02Y2984760I-70796J-109920D01*
G03Y2950600I11003J-17080D01*
G02X6790740Y2840680I-70796J-109920D01*
G02X6660000Y2709940I-130740J0D01*
G02X6622110Y2715550I-3J130740D01*
G03X6595900Y2696100I-5891J-19447D01*
G01Y2477260D01*
G03X6622110Y2457810I20319J-3D01*
G02X6660000Y2463420I37887J-125130D01*
G02X6790740Y2332680I0J-130740D01*
G02X6730790Y2222760I-130746J0D01*
G03Y2188600I11003J-17080D01*
G02Y1968760I-70796J-109920D01*
G03Y1934600I11003J-17080D01*
G02Y1714760I-70796J-109920D01*
G03Y1680600I11003J-17080D01*
G02Y1460760I-70796J-109920D01*
G03Y1426600I11003J-17080D01*
G02X6790740Y1316680I-70796J-109920D01*
G02X6660000Y1185940I-130740J0D01*
G02X6622110Y1191550I-3J130740D01*
G03X6595900Y1172100I-5891J-19447D01*
G01Y990000D01*
G02X6579530Y950470I-55913J0D01*
G01X6519530Y890470D01*
G02X6512500Y884520I-39506J39549D01*
G02X6523840Y865300I-106521J-75804D01*
G03X6542160I9160J4403D01*
G02X6660000Y939420I117840J-56614D01*
G02X6790740Y808680I0J-130740D01*
G02X6730790Y698760I-130746J0D01*
G03Y664600I11003J-17080D01*
G02Y444760I-70796J-109920D01*
G03Y410600I11003J-17080D01*
G02X6790740Y300680I-70796J-109920D01*
G02X6660000Y169940I-130740J0D01*
G02X6550080Y229890I0J130746D01*
G03X6515920I-17080J-11003D01*
G02X6406000Y169940I-109920J70796D01*
G02X6275260Y300680I0J130740D01*
G02X6335210Y410600I130746J0D01*
G03Y444760I-11003J17080D01*
G02Y664600I70796J109920D01*
G03Y698760I-11003J17080D01*
G02X6275260Y808680I70796J109920D01*
G02X6281220Y847710I130741J6D01*
G03X6261830Y874100I-19391J6071D01*
G01X6183150D01*
X6160900Y851850D01*
Y821810D01*
G02X6181220Y770000I-55890J-51810D01*
G02X6105000Y693780I-76220J0D01*
G02X6041290Y728170I0J76209D01*
G03X6007860Y728950I-16984J-11156D01*
G02X5976890Y698220I-109851J79738D01*
G03Y665140I11805J-16540D01*
G02X6033740Y554680I-78887J-110460D01*
G02X5999530Y464580I-135742J-5D01*
G03X6006500Y432510I15195J-13490D01*
G02X6033740Y390680I-18497J-41830D01*
G01Y210680D01*
G02X5988000Y164940I-45740J0D01*
G01X5808000D01*
G02X5762260Y210680I0J45740D01*
G01Y390680D01*
G02X5789500Y432510I45737J0D01*
G03X5796470Y464580I-8225J18580D01*
G02X5762260Y554680I101532J90095D01*
G02X5819110Y665140I135737J0D01*
G03Y698220I-11805J16540D01*
G02Y919140I78887J110460D01*
G03Y952220I-11805J16540D01*
G02Y1173140I78887J110460D01*
G03Y1206220I-11805J16540D01*
G02Y1427140I78887J110460D01*
G03Y1460220I-11805J16540D01*
G02Y1681140I78887J110460D01*
G03Y1714220I-11805J16540D01*
G02Y1935140I78887J110460D01*
G03Y1968220I-11805J16540D01*
G02X5762260Y2078680I78887J110460D01*
G02X6033740I135740J0D01*
G02X5976890Y1968220I-135737J0D01*
G03Y1935140I11805J-16540D01*
G02Y1714220I-78887J-110460D01*
G03Y1681140I11805J-16540D01*
G02X5994890Y1665750I-78875J-110473D01*
G01X5994920Y1665720D01*
X6034060Y1626580D01*
X6277010D01*
X6312690Y1662250D01*
X6312720Y1662290D01*
G02X6335210Y1680600I93281J-91608D01*
G03Y1714760I-11003J17080D01*
G02Y1934600I70796J109920D01*
G03Y1968760I-11003J17080D01*
G02Y2188600I70796J109920D01*
G03Y2222760I-11003J17080D01*
G02X6279620Y2299200I70792J109916D01*
G03X6262140Y2303270I-9820J-2605D01*
G02X6259530Y2300470I-42172J36694D01*
G01X6219530Y2260470D01*
G02X6180000Y2244100I-39530J39543D01*
G01X6156950D01*
X6154110Y2241710D01*
G02X6105000Y2223780I-49110J58291D01*
G02Y2376220I0J76220D01*
G02X6135620Y2369800I0J-76231D01*
G03X6164100Y2388410I8161J18609D01*
G01Y2921590D01*
G03X6135620Y2940200I-20319J1D01*
G02X6105000Y2933780I-30620J69811D01*
G02X6056200Y2951450I0J76222D01*
G03X6024280Y2943300I-13016J-15604D01*
G02X5976890Y2882620I-126282J49779D01*
G03Y2849540I11805J-16540D01*
G02X6033740Y2739080I-78887J-110460D01*
G02X5999530Y2648980I-135742J-5D01*
G03X6006500Y2616910I15195J-13490D01*
G02X6033740Y2575080I-18497J-41830D01*
G01Y2395080D01*
G02X5988000Y2349340I-45740J0D01*
G01X5808000D01*
G02X5762260Y2395080I0J45740D01*
G01Y2575080D01*
G02X5789500Y2616910I45737J0D01*
G03X5796470Y2648980I-8225J18580D01*
G02X5762260Y2739080I101532J90095D01*
G02X5819110Y2849540I135737J0D01*
G03Y2882620I-11805J16540D01*
G02X5762260Y2993080I78887J110460D01*
G02X5769620Y3037180I135742J10D01*
G03X5750410Y3064100I-19216J6601D01*
G01X5103150D01*
X5070900Y3031850D01*
Y2861810D01*
G02X5091220Y2810000I-55890J-51810D01*
G02X4938780I-76220J0D01*
G02X4959100Y2861810I76210J0D01*
G01Y3055000D01*
G02X4975470Y3094530I55913J0D01*
G01X5040470Y3159530D01*
G02X5080000Y3175900I39530J-39543D01*
G01X5750460D01*
G03X5769670Y3202840I0J20319D01*
G02X5769570Y3203130I128276J44395D01*
G03X5744920Y3216130I-19224J-6582D01*
G02X5730000Y3214100I-14927J53869D01*
G01X4811810D01*
G02X4761150Y3193790I-51812J55900D01*
G03X4751140Y3183630I150J-10159D01*
G01Y2987420D01*
X4751740Y2985750D01*
G02X4756220Y2960000I-71741J-25746D01*
G02X4681150Y2883790I-76219J0D01*
G03X4671140Y2873630I150J-10159D01*
G01Y2860800D01*
G02X4650300Y2810500I-71137J6D01*
G01X4589500Y2749700D01*
G02X4539200Y2728860I-50306J50297D01*
G01X4000270D01*
X3981140Y2709730D01*
Y2041570D01*
G03X4016190Y2027580I20318J2D01*
G02X4140000Y2080740I123804J-117583D01*
G02Y1739260I0J-170740D01*
G02X4016190Y1792420I-6J170743D01*
G03X3981140Y1778430I-14732J-13992D01*
G01Y1619470D01*
X4069870Y1530740D01*
X4140000D01*
G02X3969260Y1360000I0J-170740D01*
G01Y1430130D01*
X3859700Y1539700D01*
G02X3838860Y1590000I50283J50300D01*
G01Y2063720D01*
G03X3821520Y2070910I-10159J4D01*
G01X3820300Y2069700D01*
G02X3770000Y2048860I-50306J50297D01*
G01X3311140D01*
Y1867420D01*
X3311740Y1865750D01*
G02X3316220Y1840000I-71741J-25746D01*
G02X3311740Y1814250I-76221J-4D01*
G01X3311140Y1812580D01*
Y1567420D01*
X3311740Y1565750D01*
G02X3316220Y1540000I-71741J-25746D01*
G02X3163780I-76220J0D01*
G02X3168260Y1565750I76221J4D01*
G01X3168860Y1567420D01*
Y1812580D01*
X3168260Y1814250D01*
G02X3163780Y1840000I71741J25746D01*
G02X3168260Y1865750I76221J4D01*
G01X3168860Y1867420D01*
Y2092580D01*
X3168260Y2094250D01*
G02X3163780Y2120000I71741J25746D01*
G02X3240000Y2196220I76220J0D01*
G02X3265750Y2191740I4J-76221D01*
G01X3267420Y2191140D01*
X3740530D01*
X3748860Y2199470D01*
Y2770000D01*
G02X3769700Y2820300I71137J-6D01*
G01X3879700Y2930300D01*
G02X3930000Y2951140I50306J-50297D01*
G01X4419730D01*
X4438860Y2970270D01*
Y3412010D01*
G03X4404110Y3426320I-20320J4D01*
G02X4350000Y3403780I-54110J53679D01*
G02X4274060Y3473510I0J76217D01*
G01X4273740Y3477200D01*
X4166850Y3584100D01*
X3133150D01*
X3115900Y3566850D01*
Y1890000D01*
G02X3099530Y1850470I-55913J0D01*
G01X2939530Y1690470D01*
G02X2900000Y1674100I-39530J39543D01*
G01X1207640D01*
Y1663640D01*
X1207660Y1663350D01*
G02X1207740Y1660680I-45659J-2704D01*
G01Y1480680D01*
G02X1180500Y1438850I-45737J0D01*
G03X1173530Y1406780I8225J-18580D01*
G02X1207740Y1316680I-101532J-90095D01*
G02X1150890Y1206220I-135737J0D01*
G03Y1173140I11805J-16540D01*
G02Y952220I-78887J-110460D01*
G03Y919140I11805J-16540D01*
G02Y698220I-78887J-110460D01*
G03Y665140I11805J-16540D01*
G02Y444220I-78887J-110460D01*
G03Y411140I11805J-16540D01*
G02X1207740Y300680I-78887J-110460D01*
G02X1180050Y218520I-135735J0D01*
G03X1196230Y185900I16174J-12300D01*
G01X5546850D01*
X5584100Y223150D01*
Y1261610D01*
G03X5546360Y1272080I-20321J6D01*
G02X5400000Y1189260I-146360J87914D01*
G02Y1530740I0J170740D01*
G02X5546360Y1447920I0J-170734D01*
G03X5584100Y1458390I17419J10464D01*
G01Y1811610D01*
G03X5546360Y1822080I-20321J6D01*
G02X5400000Y1739260I-146360J87914D01*
G02X5229260Y1910000I0J170740D01*
G02X5280150Y2031600I170738J-5D01*
G01X5280170Y2031630D01*
X5349100Y2100560D01*
Y2758190D01*
G02X5345790Y2762010I55914J51793D01*
G03X5314210I-15790J-12796D01*
G02X5255000Y2733780I-59210J47979D01*
G02X5178780Y2810000I0J76220D01*
G02X5248510Y2885940I76217J0D01*
G01X5252200Y2886260D01*
X5276430Y2910490D01*
G02X5315960Y2926860I39530J-39543D01*
G01X5559040D01*
G02X5598570Y2910490I0J-55913D01*
G01X5679530Y2829530D01*
G02X5695900Y2790000I-39543J-39530D01*
G01Y200000D01*
G02X5679530Y160470I-55913J0D01*
G01X5609530Y90470D01*
G02X5570000Y74100I-39530J39543D01*
G01X770000D01*
G02X730470Y90470I0J55913D01*
G01X670470Y150470D01*
G02X656400Y174140I39537J39518D01*
G03X627100Y186180I-19489J-5757D01*
G02X564000Y169940I-63108J114498D01*
G02X454080Y229890I0J130746D01*
G03X419920I-17080J-11003D01*
G02X310000Y169940I-109920J70796D01*
G02X179260Y300680I0J130740D01*
G02X239210Y410600I130746J0D01*
G03Y444760I-11003J17080D01*
G02Y664600I70796J109920D01*
G03Y698760I-11003J17080D01*
G02Y918600I70796J109920D01*
G03Y952760I-11003J17080D01*
G02Y1172600I70796J109920D01*
G03Y1206760I-11003J17080D01*
G02X179260Y1316680I70796J109920D01*
G02X239210Y1426600I130746J0D01*
G03Y1460760I-11003J17080D01*
G02Y1680600I70796J109920D01*
G03Y1714760I-11003J17080D01*
G02Y1934600I70796J109920D01*
G03Y1968760I-11003J17080D01*
G02Y2188600I70796J109920D01*
G03Y2222760I-11003J17080D01*
G02X179260Y2332680I70796J109920D01*
G02X440740I130740J0D01*
G02X380790Y2222760I-130746J0D01*
G03Y2188600I11003J-17080D01*
G02X419920Y2149470I-70790J-109920D01*
G03X454080I17080J11003D01*
G02X564000Y2209420I109920J-70796D01*
G02X694740Y2078680I0J-130740D01*
G02X634790Y1968760I-130746J0D01*
G03Y1934600I11003J-17080D01*
G02Y1714760I-70796J-109920D01*
G03Y1680600I11003J-17080D01*
G02Y1460760I-70796J-109920D01*
G03Y1426600I11003J-17080D01*
G02X694740Y1316680I-70796J-109920D01*
G02X634790Y1206760I-130746J0D01*
G03Y1172600I11003J-17080D01*
G02X694740Y1062680I-70796J-109920D01*
G02X689300Y1025360I-130733J0D01*
G01X687570Y1019560D01*
X699040Y1008090D01*
X723740Y1032800D01*
X724060Y1036490D01*
G02X795090Y1106060I75942J-6490D01*
G03X814100Y1126340I-1310J20278D01*
G01Y1183660D01*
G03X795090Y1203940I-20320J2D01*
G02X723780Y1280000I4908J76060D01*
G02X744100Y1331810I76210J0D01*
G01Y1710000D01*
G02X760470Y1749530I55913J0D01*
G01X806730Y1795790D01*
G03X806600Y1824650I-14368J14366D01*
G02X783780Y1879040I53408J54390D01*
G02X860000Y1955260I76220J0D01*
G02X911810Y1934940I0J-76210D01*
G01X976490D01*
G03X988930Y1971330I2J20321D01*
G02X936260Y2078680I83063J107350D01*
G02X1207740I135740J0D01*
G02X1155070Y1971330I-135733J0D01*
G03X1167510Y1934940I12438J-16069D01*
G01X2775890D01*
X2829100Y1988150D01*
Y2406900D01*
G03X2791910Y2418230I-20320J2D01*
G02X2700000Y2369260I-91910J61766D01*
G02Y2590740I0J110740D01*
G02X2791910Y2541770I0J-110736D01*
G03X2829100Y2553100I16870J11328D01*
G01Y3069440D01*
G03X2794410Y3083800I-20319J-4D01*
G01X2754980Y3044380D01*
G02X2704680Y3023540I-50306J50297D01*
G01X1192820D01*
X1169310Y3000040D01*
X1169260Y3000000D01*
G02X1150890Y2984220I-97280J94664D01*
G03Y2951140I11805J-16540D01*
G02X1207740Y2840680I-78887J-110460D01*
G02X1072000Y2704940I-135740J0D01*
G02X974740Y2746000I7J135737D01*
G01X974690Y2746040D01*
X951180Y2769540D01*
X677750D01*
X657710Y2749520D01*
X657660Y2749470D01*
G02X564000Y2709940I-93667J91207D01*
G02X454080Y2769890I0J130746D01*
G03X419920I-17080J-11003D01*
G02X310000Y2709940I-109920J70796D01*
G02X179260Y2840680I0J130740D01*
G02X239210Y2950600I130746J0D01*
G03Y2984760I-11003J17080D01*
G02Y3204600I70796J109920D01*
G03Y3238760I-11003J17080D01*
G02Y3458600I70796J109920D01*
G03Y3492760I-11003J17080D01*
G02Y3712600I70796J109920D01*
G03Y3746760I-11003J17080D01*
G02Y3966600I70796J109920D01*
G03Y4000760I-11003J17080D01*
G02Y4220600I70796J109920D01*
G03Y4254760I-11003J17080D01*
G02Y4474600I70796J109920D01*
G03Y4508760I-11003J17080D01*
G02X179260Y4618680I70796J109920D01*
G02X213270Y4706640I130750J0D01*
G03X204930Y4739490I-15034J13667D01*
G02X174260Y4782680I15075J43190D01*
G01Y4962680D01*
G02X220000Y5008420I45740J0D01*
G01X400000D01*
G02X443190Y4977750I0J-45745D01*
G03X476040Y4969410I19183J6694D01*
G02X564000Y5003420I87960J-96740D01*
G02X694740Y4872680I0J-130740D01*
G02X634790Y4762760I-130746J0D01*
G03Y4728600I11003J-17080D01*
G02Y4508760I-70796J-109920D01*
G03Y4474600I11003J-17080D01*
G02X694740Y4364680I-70796J-109920D01*
G02X564000Y4233940I-130740J0D01*
G02X454080Y4293890I0J130746D01*
G03X419920I-17080J-11003D01*
G02X380790Y4254760I-109920J70790D01*
G03Y4220600I11003J-17080D01*
G02Y4000760I-70796J-109920D01*
G03Y3966600I11003J-17080D01*
G02X419920Y3927470I-70790J-109920D01*
G03X454080I17080J11003D01*
G02X564000Y3987420I109920J-70796D01*
G02X694740Y3856680I0J-130740D01*
G02X634790Y3746760I-130746J0D01*
G03Y3712600I11003J-17080D01*
G02Y3492760I-70796J-109920D01*
G03Y3458600I11003J-17080D01*
G02X657660Y3439890I-70819J-109897D01*
G01X657710Y3439840D01*
X677750Y3419820D01*
X951180D01*
X974690Y3443320D01*
X974740Y3443360D01*
G02X993110Y3459140I97280J-94664D01*
G03Y3492220I-11805J16540D01*
G02X936260Y3602680I78887J110460D01*
G02X970470Y3692780I135742J5D01*
G03X963500Y3724850I-15195J13490D01*
G02X936260Y3766680I18497J41830D01*
G01Y3946680D01*
G02X982000Y3992420I45740J0D01*
G01X1162000D01*
G02X1173450Y3990960I-14J-45738D01*
G03X1198860Y4010640I5089J19673D01*
G01Y4110000D01*
G02X1219700Y4160300I71137J-6D01*
G01X1299700Y4240300D01*
G02X1350000Y4261140I50300J-50283D01*
G01X2950000D01*
G02X3000300Y4240300I-6J-71137D01*
G01X3109470Y4131140D01*
X3732580D01*
X3734250Y4131740D01*
G02X3760000Y4136220I25746J-71741D01*
G02X3763840Y4136120I-64J-76218D01*
G03X3784890Y4152960I1025J20295D01*
G02X3860000Y4216220I75110J-12960D01*
G02X3911810Y4195900I0J-76210D01*
G01X5749140D01*
G03X5768520Y4222320I-1J20318D01*
G02X5762260Y4263080I129482J40747D01*
G02X5819110Y4373540I135737J0D01*
G03Y4406620I-11805J16540D01*
G02Y4627540I78887J110460D01*
G03Y4660620I-11805J16540D01*
G02X5762260Y4771080I78887J110460D01*
G02X5898000Y4906820I135740J0D01*
G02X5995270Y4865760I0J-135745D01*
G01X5995310Y4865710D01*
X6031520Y4829520D01*
X6253600D01*
G02X6259140Y4829260I33J-58442D01*
G03X6270260Y4839370I961J10113D01*
G01Y4962680D01*
G37*
G54D24*
X1840000Y2480000D03*
G54D23*
X2679000Y920000D03*
G54D25*
X4560000Y1910000D03*
Y1360000D03*
G54D22*
X2180000Y1090000D03*
%LPD*%
G75*
G36*
G01X834520Y545320D02*
Y525000D01*
X866800Y523200D01*
X865000Y555480D01*
X844680D01*
G03X834520Y545320I0J-10160D01*
G37*
G36*
G01X779680Y999520D02*
X800000D01*
X801800Y1031800D01*
X769520Y1030000D01*
Y1009680D01*
G03X779680Y999520I10160J0D01*
G37*
G36*
G01X885320Y805480D02*
X865000D01*
X863200Y773200D01*
X895480Y775000D01*
Y795320D01*
G03X885320Y805480I-10160J0D01*
G37*
G36*
G01X792820Y1315920D02*
X778450Y1301550D01*
X800000Y1277460D01*
X821550Y1301550D01*
X807180Y1315920D01*
G03X792820I-7180J-7180D01*
G37*
G36*
G01X895920Y1886220D02*
X881550Y1900590D01*
X857460Y1879040D01*
X881550Y1857490D01*
X895920Y1871860D01*
G03Y1886220I-7180J7180D01*
G37*
G36*
G01X666250Y2858640D02*
X624090Y2900780D01*
X557650Y2840680D01*
X624090Y2780580D01*
X666250Y2822720D01*
G03Y2858640I-17960J17960D01*
G37*
G36*
G01Y3366640D02*
X624090Y3408780D01*
X557650Y3348680D01*
X624090Y3288580D01*
X666250Y3330720D01*
G03Y3366640I-17960J17960D01*
G37*
G36*
G01X1379470Y4118860D02*
X2704260D01*
Y3941050D01*
X2751050Y3894260D01*
X2844600D01*
G02X2858960Y3859570I-4J-20319D01*
G01X2769700Y3770300D01*
G03X2748860Y3720000I50297J-50306D01*
G01Y3239470D01*
X2675210Y3165820D01*
X1192820D01*
X1169310Y3189320D01*
X1169260Y3189360D01*
G03X1150890Y3205140I-97280J-94664D01*
G02Y3238220I11805J16540D01*
G03Y3459140I-78887J110460D01*
G02Y3492220I11805J16540D01*
G03X1169260Y3508000I-78910J110444D01*
G01X1169310Y3508040D01*
X1192820Y3531540D01*
X1202680D01*
G03X1252980Y3552380I0J71123D01*
G01X1320300Y3619700D01*
G03X1341140Y3670000I-50297J50306D01*
G01Y4080530D01*
X1379470Y4118860D01*
G37*
G36*
G01X1181320Y3112640D02*
X1135630Y3158310D01*
X1065650Y3094680D01*
X1135630Y3031050D01*
X1181320Y3076720D01*
G03Y3112640I-17960J17960D01*
G37*
G36*
G01X962680Y2822720D02*
X1008370Y2777050D01*
X1078350Y2840680D01*
X1008370Y2904310D01*
X962680Y2858640D01*
G03Y2822720I17960J-17960D01*
G37*
G36*
G01X1181320Y3620640D02*
X1135630Y3666310D01*
X1065650Y3602680D01*
X1135630Y3539050D01*
X1181320Y3584720D01*
G03Y3620640I-17960J17960D01*
G37*
G36*
G01X962680Y3330720D02*
X1008370Y3285050D01*
X1078350Y3348680D01*
X1008370Y3412310D01*
X962680Y3366640D01*
G03Y3330720I17960J-17960D01*
G37*
G36*
G01X2768860Y4118860D02*
X2911140D01*
X2930000Y4100000D01*
Y3960000D01*
X2910000Y3940000D01*
X2770000D01*
X2750000Y3960000D01*
Y4100000D01*
X2768860Y4118860D01*
G37*
G36*
G01X4015000Y1459600D02*
Y1360000D01*
X4144490Y1355510D01*
X4140000Y1485000D01*
X4040400D01*
G03X4015000Y1459600I0J-25400D01*
G37*
G36*
G01X5030000Y1790000D02*
X4940000D01*
X4860000Y1870000D01*
Y2470000D01*
X4820000Y2510000D01*
X4080000D01*
X4050000Y2540000D01*
Y2640000D01*
X4070000Y2660000D01*
X4930000D01*
X5110000Y2480000D01*
Y1870000D01*
X5030000Y1790000D01*
G37*
G36*
G01X3794080Y3742820D02*
X3808450Y3728450D01*
X3832540Y3750000D01*
X3808450Y3771550D01*
X3794080Y3757180D01*
G03Y3742820I7180J-7180D01*
G37*
G36*
G01X3895920Y4147180D02*
X3881550Y4161550D01*
X3857460Y4140000D01*
X3881550Y4118450D01*
X3895920Y4132820D01*
G03Y4147180I-7180J7180D01*
G37*
G36*
G01X3904080Y3812820D02*
X3918450Y3798450D01*
X3942540Y3820000D01*
X3918450Y3841550D01*
X3904080Y3827180D01*
G03Y3812820I7180J-7180D01*
G37*
G36*
G01X4319520Y3500320D02*
Y3480000D01*
X4351800Y3478200D01*
X4350000Y3510480D01*
X4329680D01*
G03X4319520Y3500320I0J-10160D01*
G37*
G36*
G01Y3640320D02*
Y3620000D01*
X4351800Y3618200D01*
X4350000Y3650480D01*
X4329680D01*
G03X4319520Y3640320I0J-10160D01*
G37*
G36*
G01X5007820Y2845920D02*
X4993450Y2831550D01*
X5015000Y2807460D01*
X5036550Y2831550D01*
X5022180Y2845920D01*
G03X5007820I-7180J-7180D01*
G37*
G36*
G01X4795920Y3277180D02*
X4781550Y3291550D01*
X4757460Y3270000D01*
X4781550Y3248450D01*
X4795920Y3262820D01*
G03Y3277180I-7180J7180D01*
G37*
G36*
G01X4715560Y4084100D02*
X6056850D01*
X6190470Y3950470D01*
G03X6230000Y3934100I39530J39543D01*
G01X6466850D01*
X6484100Y3916850D01*
Y3742250D01*
G02X6456010Y3723480I-20319J4D01*
G03X6406000Y3733420I-50003J-120801D01*
G03X6277460Y3626590I0J-130746D01*
G02X6243120Y3615940I-19974J3716D01*
G01X6189530Y3669530D01*
G03X6150000Y3685900I-39530J-39543D01*
G01X6046210D01*
G02X6026920Y3712580I6J20318D01*
G03X6033740Y3755080I-128922J42485D01*
G03X5762260I-135740J0D01*
G03X5787860Y3675740I135746J0D01*
G03X5780470Y3669530I32135J-45743D01*
G01X5710470Y3599530D01*
G03X5694100Y3560000I39543J-39530D01*
G01Y3433150D01*
X5647810Y3386860D01*
X5606270D01*
G02X5586010Y3405670I3J20319D01*
G03X5510000Y3476220I-76010J-5671D01*
G03X5484250Y3471740I-4J-76221D01*
G01X5482580Y3471140D01*
X5297420D01*
X5295750Y3471740D01*
G03X5270000Y3476220I-25746J-71741D01*
G03X5244250Y3471740I-4J-76221D01*
G01X5242580Y3471140D01*
X5101140D01*
Y3540000D01*
G03X5080300Y3590300I-71137J-6D01*
G01X5000300Y3670300D01*
G03X4950000Y3691140I-50306J-50297D01*
G01X4751140D01*
Y3970000D01*
G03X4730300Y4020300I-71137J-6D01*
G01X4701200Y4049410D01*
G02X4715560Y4084100I14364J14371D01*
G37*
G36*
G01X4790480Y3389680D02*
Y3410000D01*
X4758200Y3411800D01*
X4760000Y3379520D01*
X4780320D01*
G03X4790480Y3389680I0J10160D01*
G37*
G36*
G01X5397820Y2084590D02*
X5311620Y1998390D01*
X5399920Y1907460D01*
X5488810Y1997920D01*
X5412610Y2084140D01*
G03X5397820Y2084590I-7607J-6732D01*
G37*
G36*
G01X5412180Y2774080D02*
X5426550Y2788450D01*
X5405000Y2812540D01*
X5383450Y2788450D01*
X5397820Y2774080D01*
G03X5412180I7180J7180D01*
G37*
G36*
G01X5275320Y2840480D02*
X5255000D01*
X5253200Y2808200D01*
X5285480Y2810000D01*
Y2830320D01*
G03X5275320Y2840480I-10160J0D01*
G37*
G36*
G01X6097820Y805920D02*
X6083450Y791550D01*
X6105000Y767460D01*
X6126550Y791550D01*
X6112180Y805920D01*
G03X6097820I-7180J-7180D01*
G37*
G36*
G01X6018090Y1577860D02*
X5961640Y1634310D01*
X5895460Y1570680D01*
X5961640Y1507050D01*
X6018090Y1563500D01*
G03Y1577860I-7180J7180D01*
G37*
G36*
G01X6292980Y1563500D02*
X6345900Y1510580D01*
X6408540Y1570680D01*
X6345900Y1630780D01*
X6292980Y1577860D01*
G03Y1563500I7180J-7180D01*
G37*
G36*
G01X6140920Y2307180D02*
X6126550Y2321550D01*
X6102460Y2300000D01*
X6126550Y2278450D01*
X6140920Y2292820D01*
G03Y2307180I-7180J7180D01*
G37*
G36*
G01X6074520Y3030320D02*
Y3010000D01*
X6106800Y3008200D01*
X6105000Y3040480D01*
X6084680D01*
G03X6074520Y3030320I0J-10160D01*
G37*
G36*
G01X6084680Y3374520D02*
X6105000D01*
X6106800Y3406800D01*
X6074520Y3405000D01*
Y3384680D01*
G03X6084680Y3374520I10160J0D01*
G37*
G36*
G01X6007320Y4281040D02*
X5961630Y4326710D01*
X5891650Y4263080D01*
X5961630Y4199450D01*
X6007320Y4245120D01*
G03Y4281040I-17960J17960D01*
G37*
G36*
G01X6016300Y4780060D02*
X5961630Y4834710D01*
X5894820Y4771080D01*
X5961630Y4707450D01*
X6016300Y4762100D01*
G03Y4780060I-8980J8980D01*
G37*
G36*
G01Y4526060D02*
X5961630Y4580710D01*
X5894820Y4517080D01*
X5961630Y4453450D01*
X6016300Y4508100D01*
G03Y4526060I-8980J8980D01*
G37*
G36*
G01X6321000Y4170280D02*
Y4110680D01*
X6410490Y4106190D01*
X6406000Y4195680D01*
X6346400D01*
G03X6321000Y4170280I0J-25400D01*
G37*
G36*
G01Y4690980D02*
Y4618680D01*
X6408250Y4616430D01*
X6406000Y4703680D01*
X6333700D01*
G03X6321000Y4690980I0J-12700D01*
G37*
G36*
G01Y4436980D02*
Y4364680D01*
X6408250Y4362430D01*
X6406000Y4449680D01*
X6333700D01*
G03X6321000Y4436980I0J-12700D01*
G37*
G54D10*
X310000Y300680D03*
Y554680D03*
Y808680D03*
Y1062680D03*
Y1316680D03*
Y1570680D03*
Y1824680D03*
Y2078680D03*
Y2332680D03*
Y2586680D03*
Y2840680D03*
Y3094680D03*
Y3348680D03*
Y3602680D03*
Y3856680D03*
Y4110680D03*
Y4364680D03*
Y4618680D03*
X564000Y300680D03*
Y554680D03*
Y808680D03*
Y1062680D03*
Y1316680D03*
Y1570680D03*
Y1824680D03*
Y2078680D03*
Y2332680D03*
Y2586680D03*
Y2840680D03*
Y3094680D03*
Y3348680D03*
Y3602680D03*
Y3856680D03*
Y4110680D03*
Y4364680D03*
Y4618680D03*
Y4872680D03*
X6660000Y300680D03*
Y554680D03*
X6406000Y300680D03*
Y554680D03*
X6660000Y808680D03*
Y1062680D03*
X6406000Y808680D03*
Y1062680D03*
X6660000Y1316680D03*
Y1570680D03*
X6406000Y1316680D03*
Y1570680D03*
X6660000Y1824680D03*
Y2078680D03*
X6406000Y1824680D03*
Y2078680D03*
X6660000Y2332680D03*
Y2586680D03*
X6406000Y2332680D03*
Y2586680D03*
X6660000Y2840680D03*
Y3094680D03*
X6406000Y2840680D03*
Y3094680D03*
X6660000Y3348680D03*
Y3602680D03*
Y3856680D03*
X6406000Y3348680D03*
Y3602680D03*
Y3856680D03*
X6660000Y4110680D03*
Y4364680D03*
X6406000Y4110680D03*
Y4364680D03*
X6660000Y4618680D03*
X6406000D03*
X6660000Y4872680D03*
G54D20*
G01X5898000Y4771080D02*
X6253600D01*
X6406000Y4618680D01*
G01X5898000Y4517080D02*
X6253600D01*
X6406000Y4364680D01*
G54D11*
X118570Y332770D03*
Y732770D03*
Y1532770D03*
Y1132770D03*
Y3102770D03*
Y3502770D03*
Y4302770D03*
Y3902770D03*
X865000Y525000D03*
X800000Y1030000D03*
X865000Y775000D03*
X800000Y1280000D03*
X860000Y1879040D03*
X1427230Y388570D03*
X1419330Y855390D03*
Y1255390D03*
X1049330Y4115390D03*
Y4515390D03*
X1827230Y388570D03*
X1469330Y2095390D03*
Y2495390D03*
X1459330Y2935390D03*
X1859330D03*
X1849330Y3805390D03*
X1449330D03*
X1849330Y3405390D03*
X1449330D03*
X1459330Y4295390D03*
X1859330D03*
X1652770Y4691430D03*
X2227230Y388570D03*
X2259330Y2935390D03*
X2249330Y3805390D03*
Y3405390D03*
X2259330Y4295390D03*
X2452770Y4691430D03*
X2052770D03*
X2627230Y388570D03*
X2898570Y792770D03*
Y1592770D03*
Y1192770D03*
X2659330Y2935390D03*
X2649330Y3805390D03*
Y3405390D03*
X2659330Y4295390D03*
X2790000Y4080000D03*
X2890000D03*
Y3980000D03*
X2790000D03*
X3387230Y358570D03*
Y758570D03*
X3600000Y1540000D03*
X3360000D03*
X3240000D03*
X3600000Y1840000D03*
X3360000D03*
X3240000D03*
Y2120000D03*
X3360000Y2230000D03*
X3600000D03*
X3610000Y4180000D03*
X3390000Y4290000D03*
X3140000D03*
X3262770Y4691430D03*
X3787230Y358570D03*
Y758570D03*
X4090000Y2620000D03*
Y2546340D03*
X3940000Y3240000D03*
X3800000D03*
X4080000D03*
Y3040000D03*
X3800000D03*
X3940000D03*
Y3140000D03*
X3800000D03*
X4080000D03*
Y3340000D03*
X3800000D03*
X3940000D03*
X4080000Y3440000D03*
X3800000D03*
X3940000D03*
X3830000Y3750000D03*
X3940000Y3820000D03*
X3990000Y4250000D03*
X3760000Y4060000D03*
X3860000Y4140000D03*
X4140000Y4420000D03*
X4062770Y4691430D03*
X3662770D03*
X4587230Y358570D03*
X4187230D03*
X4587230Y758570D03*
X4187230D03*
X4190000Y2546340D03*
Y2620000D03*
X4290000Y2546340D03*
Y2620000D03*
X4390000Y2546340D03*
Y2620000D03*
X4490000Y2546340D03*
Y2620000D03*
X4590000Y2546340D03*
Y2620000D03*
X4690000Y2546340D03*
Y2620000D03*
X4330000Y3170000D03*
Y3060000D03*
X4680000Y2960000D03*
Y3340000D03*
Y3620000D03*
X4350000Y3480000D03*
Y3620000D03*
X4987230Y358570D03*
Y758570D03*
X4790000Y2546340D03*
Y2620000D03*
X4890000Y2546340D03*
Y2620000D03*
X5015000Y2810000D03*
X4760000Y3270000D03*
X5030000Y3400000D03*
X4760000Y3410000D03*
X5118570Y3902770D03*
Y4302770D03*
Y4702770D03*
X5387230Y358570D03*
Y758570D03*
X5405000Y2810000D03*
X5255000D03*
X5270000Y3400000D03*
X5510000D03*
X5588570Y3902770D03*
Y4302770D03*
Y4702770D03*
X6105000Y770000D03*
Y2300000D03*
Y3010000D03*
Y3405000D03*
X6838570Y222770D03*
Y622770D03*
Y1022770D03*
Y1422770D03*
Y2992770D03*
Y3392770D03*
Y3792770D03*
Y4152770D03*
Y4552770D03*
Y4952770D03*
G54D21*
G01X564000Y2840680D02*
X1072000D01*
G01Y3348680D02*
X564000D01*
G01X1072000Y3094680D02*
X2704680D01*
X2820000Y3210000D01*
Y3720000D01*
X2996200Y3896200D01*
X4443800D01*
X4510000Y3830000D01*
Y2940800D01*
X4449200Y2880000D01*
X3930000D01*
X3820000Y2770000D01*
Y2170000D01*
X3770000Y2120000D01*
X3240000D01*
G01X3760000Y4060000D02*
X3080000D01*
X2950000Y4190000D01*
X1350000D01*
X1270000Y4110000D01*
Y3670000D01*
X1202680Y3602680D01*
X1072000D01*
G01X2890000Y3980000D02*
X4519200D01*
X4600000Y3899200D01*
Y2860800D01*
X4539200Y2800000D01*
X3970800D01*
X3910000Y2739200D01*
Y1590000D01*
X4140000Y1360000D01*
G01X3240000Y1540000D02*
Y1840000D01*
G01D02*
Y2120000D01*
G01X3760000Y4060000D02*
X4590000D01*
X4680000Y3970000D01*
Y3620000D01*
G01Y2960000D02*
Y3340000D01*
G01D02*
Y3620000D01*
G01X5030000Y3400000D02*
Y3540000D01*
X4950000Y3620000D01*
X4680000D01*
G01X5030000Y3400000D02*
X5270000D01*
G01D02*
X5510000D01*
G01X5898000Y4263080D02*
X6253600D01*
X6406000Y4110680D01*
G54D12*
X310000Y4872680D03*
X1072000Y1570680D03*
Y3856680D03*
X5898000Y300680D03*
Y2485080D03*
X6406000Y4872680D03*
G54D13*
X1072000Y300680D03*
Y554680D03*
Y808680D03*
Y1062680D03*
Y1316680D03*
Y2078680D03*
Y2332680D03*
Y2586680D03*
Y2840680D03*
Y3094680D03*
Y3348680D03*
Y3602680D03*
X5898000Y554680D03*
Y1062680D03*
Y808680D03*
Y1570680D03*
Y1316680D03*
Y2078680D03*
Y1824680D03*
Y2739080D03*
Y3247080D03*
Y2993080D03*
Y3755080D03*
Y3501080D03*
Y4263080D03*
Y4009080D03*
Y4771080D03*
Y4517080D03*
G54D14*
X1700000Y770000D03*
Y1370000D03*
G54D15*
X1840000Y2480000D03*
Y2780000D03*
X2700000Y2480000D03*
Y2780000D03*
G54D16*
X2180000Y1090000D03*
G54D17*
X2679000Y920000D03*
X3441000D03*
G54D18*
X4140000Y1360000D03*
Y1910000D03*
X4560000Y1360000D03*
Y1910000D03*
X4980000Y1360000D03*
Y1910000D03*
X5400000Y1360000D03*
Y1910000D03*
G54D19*
G01X800000Y1030000D02*
X710000Y940000D01*
Y190000D01*
X770000Y130000D01*
X5570000D01*
X5640000Y200000D01*
Y2790000D01*
X5559040Y2870960D01*
X5315960D01*
X5255000Y2810000D01*
G01X4350000Y3620000D02*
X4280960Y3689040D01*
X3069040D01*
X3000000Y3620000D01*
Y1910000D01*
X2870000Y1780000D01*
X950000D01*
X870000Y1700000D01*
Y960000D01*
X780000Y870000D01*
Y610000D01*
X865000Y525000D01*
G01X4350000Y3480000D02*
X4190000Y3640000D01*
X3110000D01*
X3060000Y3590000D01*
Y1890000D01*
X2900000Y1730000D01*
X980000D01*
X930000Y1680000D01*
Y840000D01*
X865000Y775000D01*
G01X3830000Y3750000D02*
X3040000D01*
X2940000Y3650000D01*
Y1930000D01*
X2835000Y1825000D01*
X915000D01*
X800000Y1710000D01*
Y1280000D01*
G01X3940000Y3820000D02*
X3030000D01*
X2885000Y3675000D01*
Y1965000D01*
X2799040Y1879040D01*
X860000D01*
G01X3860000Y4140000D02*
X6080000D01*
X6230000Y3990000D01*
X6490000D01*
X6540000Y3940000D01*
Y990000D01*
X6480000Y930000D01*
X6160000D01*
X6105000Y875000D01*
Y770000D01*
G01Y3010000D02*
X5995000Y3120000D01*
X5080000D01*
X5015000Y3055000D01*
Y2810000D01*
G01X4760000Y3270000D02*
X5730000D01*
X5830000Y3370000D01*
X6070000D01*
X6105000Y3405000D01*
G01X4760000Y3410000D02*
X4839040Y3330960D01*
X5670960D01*
X5750000Y3410000D01*
Y3560000D01*
X5820000Y3630000D01*
X6150000D01*
X6220000Y3560000D01*
Y2340000D01*
X6180000Y2300000D01*
X6105000D01*
G01X5405000Y2810000D02*
Y1915000D01*
X5400000Y1910000D01*
G01X5898000Y1570680D02*
X6406000D01*
M02*
