G04 ================== begin FILE IDENTIFICATION RECORD ==================*
G04 Layout Name:  MCF8316A_V10_211228.brd*
G04 Film Name:    Drill_Legend*
G04 File Format:  Gerber RS274X*
G04 File Origin:  Cadence Allegro 17.2-S071*
G04 Origin Date:  Thu Mar 10 20:12:21 2022*
G04 *
G04 Layer:  MANUFACTURING/NCLEGEND-1-2*
G04 Layer:  MANUFACTURING/NCDRILL_LEGEND*
G04 Layer:  MANUFACTURING/NCDRILL_FIGURE*
G04 Layer:  BOARD GEOMETRY/DIMENSION*
G04 *
G04 Offset:    (0.0000 0.0000)*
G04 Mirror:    No*
G04 Mode:      Positive*
G04 Rotation:  0*
G04 FullContactRelief:  No*
G04 UndefLineWidth:     0.1524*
G04 ================== end FILE IDENTIFICATION RECORD ====================*
%FSLAX55Y55*MOMM*%
%IR0*IPPOS*OFA0.00000B0.00000*MIA0B0*SFA1.00000B1.00000*%
%AMMACRO16*
1,1,.1524,.372792,-.9*
20,1,.1524,.372792,-.9,-.372792,-.9,0.0*
1,1,.1524,-.372792,-.9*
20,1,.1524,-.372792,-.9,-.9,-.372792,0.0*
1,1,.1524,-.9,-.372792*
20,1,.1524,-.9,-.372792,-.9,.372792,0.0*
1,1,.1524,-.9,.372792*
20,1,.1524,-.9,.372792,-.372792,.9,0.0*
1,1,.1524,-.372792,.9*
20,1,.1524,-.372792,.9,.372792,.9,0.0*
1,1,.1524,.372792,.9*
20,1,.1524,.372792,.9,.9,.372792,0.0*
1,1,.1524,.9,.372792*
20,1,.1524,.9,.372792,.9,-.372792,0.0*
1,1,.1524,.9,-.372792*
20,1,.1524,.9,-.372792,.372792,-.9,0.0*
1,1,.1524,.372792,-.9*
%
%ADD16MACRO16*%
%AMMACRO13*
1,1,.1524,.4,.4*
20,1,.1524,.4,.4,.4,-.4,0.0*
1,1,.1524,.4,-.4*
20,1,.1524,.4,-.4,-.4,-.4,0.0*
1,1,.1524,-.4,-.4*
20,1,.1524,-.4,-.4,-.4,.4,0.0*
1,1,.1524,-.4,.4*
20,1,.1524,-.4,.4,.4,.4,0.0*
1,1,.1524,.4,.4*
%
%ADD13MACRO13*%
%AMMACRO11*
1,1,.1524,.1524,0.0*
20,1,.1524,.1524,0.0,-.1524,0.0,0.0*
1,1,.1524,-.1524,0.0*
1,1,.1524,0.0,.1524*
20,1,.1524,0.0,.1524,0.0,-.1524,0.0*
1,1,.1524,0.0,-.1524*
%
%ADD11MACRO11*%
%AMMACRO10*
1,1,.1524,.55,0.0*
20,1,.1524,.55,0.0,.275,.476314,0.0*
1,1,.1524,.275,.476314*
20,1,.1524,.275,.476314,-.275,.476314,0.0*
1,1,.1524,-.275,.476314*
20,1,.1524,-.275,.476314,-.55,0.0,0.0*
1,1,.1524,-.55,0.0*
20,1,.1524,-.55,0.0,-.275,-.476314,0.0*
1,1,.1524,-.275,-.476314*
20,1,.1524,-.275,-.476314,.275,-.476314,0.0*
1,1,.1524,.275,-.476314*
20,1,.1524,.275,-.476314,.55,0.0,0.0*
1,1,.1524,.55,0.0*
%
%ADD10MACRO10*%
%AMMACRO14*
1,1,.1524,-.5,-1.*
20,1,.1524,-.5,-1.,-.5,1.,0.0*
1,1,.1524,-.5,1.*
20,1,.1524,-.5,1.,-.492404,1.086824,0.0*
1,1,.1524,-.492404,1.086824*
20,1,.1524,-.492404,1.086824,-.469846,1.17101,0.0*
1,1,.1524,-.469846,1.17101*
20,1,.1524,-.469846,1.17101,-.433013,1.25,0.0*
1,1,.1524,-.433013,1.25*
20,1,.1524,-.433013,1.25,-.383022,1.321394,0.0*
1,1,.1524,-.383022,1.321394*
20,1,.1524,-.383022,1.321394,-.321394,1.383022,0.0*
1,1,.1524,-.321394,1.383022*
20,1,.1524,-.321394,1.383022,-.25,1.433013,0.0*
1,1,.1524,-.25,1.433013*
20,1,.1524,-.25,1.433013,-.17101,1.469846,0.0*
1,1,.1524,-.17101,1.469846*
20,1,.1524,-.17101,1.469846,-.086824,1.492404,0.0*
1,1,.1524,-.086824,1.492404*
20,1,.1524,-.086824,1.492404,0.0,1.5,0.0*
1,1,.1524,0.0,1.5*
20,1,.1524,0.0,1.5,.086824,1.492404,0.0*
1,1,.1524,.086824,1.492404*
20,1,.1524,.086824,1.492404,.17101,1.469846,0.0*
1,1,.1524,.17101,1.469846*
20,1,.1524,.17101,1.469846,.25,1.433013,0.0*
1,1,.1524,.25,1.433013*
20,1,.1524,.25,1.433013,.321394,1.383022,0.0*
1,1,.1524,.321394,1.383022*
20,1,.1524,.321394,1.383022,.383022,1.321394,0.0*
1,1,.1524,.383022,1.321394*
20,1,.1524,.383022,1.321394,.433013,1.25,0.0*
1,1,.1524,.433013,1.25*
20,1,.1524,.433013,1.25,.469846,1.17101,0.0*
1,1,.1524,.469846,1.17101*
20,1,.1524,.469846,1.17101,.492404,1.086824,0.0*
1,1,.1524,.492404,1.086824*
20,1,.1524,.492404,1.086824,.5,1.,0.0*
1,1,.1524,.5,1.*
20,1,.1524,.5,1.,.5,-1.,0.0*
1,1,.1524,.5,-1.*
20,1,.1524,.5,-1.,.492404,-1.086824,0.0*
1,1,.1524,.492404,-1.086824*
20,1,.1524,.492404,-1.086824,.469846,-1.17101,0.0*
1,1,.1524,.469846,-1.17101*
20,1,.1524,.469846,-1.17101,.433013,-1.25,0.0*
1,1,.1524,.433013,-1.25*
20,1,.1524,.433013,-1.25,.383022,-1.321394,0.0*
1,1,.1524,.383022,-1.321394*
20,1,.1524,.383022,-1.321394,.321394,-1.383022,0.0*
1,1,.1524,.321394,-1.383022*
20,1,.1524,.321394,-1.383022,.25,-1.433013,0.0*
1,1,.1524,.25,-1.433013*
20,1,.1524,.25,-1.433013,.17101,-1.469846,0.0*
1,1,.1524,.17101,-1.469846*
20,1,.1524,.17101,-1.469846,.086824,-1.492404,0.0*
1,1,.1524,.086824,-1.492404*
20,1,.1524,.086824,-1.492404,0.0,-1.5,0.0*
1,1,.1524,0.0,-1.5*
20,1,.1524,0.0,-1.5,-.086824,-1.492404,0.0*
1,1,.1524,-.086824,-1.492404*
20,1,.1524,-.086824,-1.492404,-.17101,-1.469846,0.0*
1,1,.1524,-.17101,-1.469846*
20,1,.1524,-.17101,-1.469846,-.25,-1.433013,0.0*
1,1,.1524,-.25,-1.433013*
20,1,.1524,-.25,-1.433013,-.321394,-1.383022,0.0*
1,1,.1524,-.321394,-1.383022*
20,1,.1524,-.321394,-1.383022,-.383022,-1.321394,0.0*
1,1,.1524,-.383022,-1.321394*
20,1,.1524,-.383022,-1.321394,-.433013,-1.25,0.0*
1,1,.1524,-.433013,-1.25*
20,1,.1524,-.433013,-1.25,-.469846,-1.17101,0.0*
1,1,.1524,-.469846,-1.17101*
20,1,.1524,-.469846,-1.17101,-.492404,-1.086824,0.0*
1,1,.1524,-.492404,-1.086824*
20,1,.1524,-.492404,-1.086824,-.5,-1.,0.0*
1,1,.1524,-.5,-1.*
1,1,.1524,-.25,-.25*
20,1,.1524,-.25,-.25,-.3167,-.2417,0.0*
1,1,.1524,-.3167,-.2417*
20,1,.1524,-.3167,-.2417,-.375,-.2083,0.0*
1,1,.1524,-.375,-.2083*
20,1,.1524,-.375,-.2083,-.425,-.1583,0.0*
1,1,.1524,-.425,-.1583*
20,1,.1524,-.425,-.1583,-.4583,-.1,0.0*
1,1,.1524,-.4583,-.1*
20,1,.1524,-.4583,-.1,-.475,-.0333,0.0*
1,1,.1524,-.475,-.0333*
20,1,.1524,-.475,-.0333,-.475,.0333,0.0*
1,1,.1524,-.475,.0333*
20,1,.1524,-.475,.0333,-.4583,.1,0.0*
1,1,.1524,-.4583,.1*
20,1,.1524,-.4583,.1,-.425,.1583,0.0*
1,1,.1524,-.425,.1583*
20,1,.1524,-.425,.1583,-.375,.2083,0.0*
1,1,.1524,-.375,.2083*
20,1,.1524,-.375,.2083,-.3167,.2417,0.0*
1,1,.1524,-.3167,.2417*
20,1,.1524,-.3167,.2417,-.25,.25,0.0*
1,1,.1524,-.25,.25*
20,1,.1524,-.25,.25,-.1833,.2417,0.0*
1,1,.1524,-.1833,.2417*
20,1,.1524,-.1833,.2417,-.125,.2083,0.0*
1,1,.1524,-.125,.2083*
20,1,.1524,-.125,.2083,-.075,.1583,0.0*
1,1,.1524,-.075,.1583*
20,1,.1524,-.075,.1583,-.0417,.1,0.0*
1,1,.1524,-.0417,.1*
20,1,.1524,-.0417,.1,-.025,.0333,0.0*
1,1,.1524,-.025,.0333*
20,1,.1524,-.025,.0333,-.025,-.0333,0.0*
1,1,.1524,-.025,-.0333*
20,1,.1524,-.025,-.0333,-.0417,-.1,0.0*
1,1,.1524,-.0417,-.1*
20,1,.1524,-.0417,-.1,-.075,-.1583,0.0*
1,1,.1524,-.075,-.1583*
20,1,.1524,-.075,-.1583,-.125,-.2083,0.0*
1,1,.1524,-.125,-.2083*
20,1,.1524,-.125,-.2083,-.1833,-.2417,0.0*
1,1,.1524,-.1833,-.2417*
20,1,.1524,-.1833,-.2417,-.25,-.25,0.0*
1,1,.1524,-.25,-.25*
1,1,.1524,.0418,-.25*
20,1,.1524,.0418,-.25,.2501,.25,0.0*
1,1,.1524,.2501,.25*
20,1,.1524,.2501,.25,.4584,-.25,0.0*
1,1,.1524,.4584,-.25*
1,1,.1524,.3834,-.075*
20,1,.1524,.3834,-.075,.1168,-.075,0.0*
1,1,.1524,.1168,-.075*
%
%ADD14MACRO14*%
%AMMACRO12*
1,1,.1524,-1.,.5*
20,1,.1524,-1.,.5,1.,.5,0.0*
1,1,.1524,1.,.5*
20,1,.1524,1.,.5,1.086824,.492404,0.0*
1,1,.1524,1.086824,.492404*
20,1,.1524,1.086824,.492404,1.17101,.469846,0.0*
1,1,.1524,1.17101,.469846*
20,1,.1524,1.17101,.469846,1.25,.433013,0.0*
1,1,.1524,1.25,.433013*
20,1,.1524,1.25,.433013,1.321394,.383022,0.0*
1,1,.1524,1.321394,.383022*
20,1,.1524,1.321394,.383022,1.383022,.321394,0.0*
1,1,.1524,1.383022,.321394*
20,1,.1524,1.383022,.321394,1.433013,.25,0.0*
1,1,.1524,1.433013,.25*
20,1,.1524,1.433013,.25,1.469846,.17101,0.0*
1,1,.1524,1.469846,.17101*
20,1,.1524,1.469846,.17101,1.492404,.086824,0.0*
1,1,.1524,1.492404,.086824*
20,1,.1524,1.492404,.086824,1.5,0.0,0.0*
1,1,.1524,1.5,0.0*
20,1,.1524,1.5,0.0,1.492404,-.086824,0.0*
1,1,.1524,1.492404,-.086824*
20,1,.1524,1.492404,-.086824,1.469846,-.17101,0.0*
1,1,.1524,1.469846,-.17101*
20,1,.1524,1.469846,-.17101,1.433013,-.25,0.0*
1,1,.1524,1.433013,-.25*
20,1,.1524,1.433013,-.25,1.383022,-.321394,0.0*
1,1,.1524,1.383022,-.321394*
20,1,.1524,1.383022,-.321394,1.321394,-.383022,0.0*
1,1,.1524,1.321394,-.383022*
20,1,.1524,1.321394,-.383022,1.25,-.433013,0.0*
1,1,.1524,1.25,-.433013*
20,1,.1524,1.25,-.433013,1.17101,-.469846,0.0*
1,1,.1524,1.17101,-.469846*
20,1,.1524,1.17101,-.469846,1.086824,-.492404,0.0*
1,1,.1524,1.086824,-.492404*
20,1,.1524,1.086824,-.492404,1.,-.5,0.0*
1,1,.1524,1.,-.5*
20,1,.1524,1.,-.5,-1.,-.5,0.0*
1,1,.1524,-1.,-.5*
20,1,.1524,-1.,-.5,-1.086824,-.492404,0.0*
1,1,.1524,-1.086824,-.492404*
20,1,.1524,-1.086824,-.492404,-1.17101,-.469846,0.0*
1,1,.1524,-1.17101,-.469846*
20,1,.1524,-1.17101,-.469846,-1.25,-.433013,0.0*
1,1,.1524,-1.25,-.433013*
20,1,.1524,-1.25,-.433013,-1.321394,-.383022,0.0*
1,1,.1524,-1.321394,-.383022*
20,1,.1524,-1.321394,-.383022,-1.383022,-.321394,0.0*
1,1,.1524,-1.383022,-.321394*
20,1,.1524,-1.383022,-.321394,-1.433013,-.25,0.0*
1,1,.1524,-1.433013,-.25*
20,1,.1524,-1.433013,-.25,-1.469846,-.17101,0.0*
1,1,.1524,-1.469846,-.17101*
20,1,.1524,-1.469846,-.17101,-1.492404,-.086824,0.0*
1,1,.1524,-1.492404,-.086824*
20,1,.1524,-1.492404,-.086824,-1.5,0.0,0.0*
1,1,.1524,-1.5,0.0*
20,1,.1524,-1.5,0.0,-1.492404,.086824,0.0*
1,1,.1524,-1.492404,.086824*
20,1,.1524,-1.492404,.086824,-1.469846,.17101,0.0*
1,1,.1524,-1.469846,.17101*
20,1,.1524,-1.469846,.17101,-1.433013,.25,0.0*
1,1,.1524,-1.433013,.25*
20,1,.1524,-1.433013,.25,-1.383022,.321394,0.0*
1,1,.1524,-1.383022,.321394*
20,1,.1524,-1.383022,.321394,-1.321394,.383022,0.0*
1,1,.1524,-1.321394,.383022*
20,1,.1524,-1.321394,.383022,-1.25,.433013,0.0*
1,1,.1524,-1.25,.433013*
20,1,.1524,-1.25,.433013,-1.17101,.469846,0.0*
1,1,.1524,-1.17101,.469846*
20,1,.1524,-1.17101,.469846,-1.086824,.492404,0.0*
1,1,.1524,-1.086824,.492404*
20,1,.1524,-1.086824,.492404,-1.,.5,0.0*
1,1,.1524,-1.,.5*
1,1,.1524,-.25,-.25*
20,1,.1524,-.25,-.25,-.3167,-.2417,0.0*
1,1,.1524,-.3167,-.2417*
20,1,.1524,-.3167,-.2417,-.375,-.2083,0.0*
1,1,.1524,-.375,-.2083*
20,1,.1524,-.375,-.2083,-.425,-.1583,0.0*
1,1,.1524,-.425,-.1583*
20,1,.1524,-.425,-.1583,-.4583,-.1,0.0*
1,1,.1524,-.4583,-.1*
20,1,.1524,-.4583,-.1,-.475,-.0333,0.0*
1,1,.1524,-.475,-.0333*
20,1,.1524,-.475,-.0333,-.475,.0333,0.0*
1,1,.1524,-.475,.0333*
20,1,.1524,-.475,.0333,-.4583,.1,0.0*
1,1,.1524,-.4583,.1*
20,1,.1524,-.4583,.1,-.425,.1583,0.0*
1,1,.1524,-.425,.1583*
20,1,.1524,-.425,.1583,-.375,.2083,0.0*
1,1,.1524,-.375,.2083*
20,1,.1524,-.375,.2083,-.3167,.2417,0.0*
1,1,.1524,-.3167,.2417*
20,1,.1524,-.3167,.2417,-.25,.25,0.0*
1,1,.1524,-.25,.25*
20,1,.1524,-.25,.25,-.1833,.2417,0.0*
1,1,.1524,-.1833,.2417*
20,1,.1524,-.1833,.2417,-.125,.2083,0.0*
1,1,.1524,-.125,.2083*
20,1,.1524,-.125,.2083,-.075,.1583,0.0*
1,1,.1524,-.075,.1583*
20,1,.1524,-.075,.1583,-.0417,.1,0.0*
1,1,.1524,-.0417,.1*
20,1,.1524,-.0417,.1,-.025,.0333,0.0*
1,1,.1524,-.025,.0333*
20,1,.1524,-.025,.0333,-.025,-.0333,0.0*
1,1,.1524,-.025,-.0333*
20,1,.1524,-.025,-.0333,-.0417,-.1,0.0*
1,1,.1524,-.0417,-.1*
20,1,.1524,-.0417,-.1,-.075,-.1583,0.0*
1,1,.1524,-.075,-.1583*
20,1,.1524,-.075,-.1583,-.125,-.2083,0.0*
1,1,.1524,-.125,-.2083*
20,1,.1524,-.125,-.2083,-.1833,-.2417,0.0*
1,1,.1524,-.1833,-.2417*
20,1,.1524,-.1833,-.2417,-.25,-.25,0.0*
1,1,.1524,-.25,-.25*
1,1,.1524,.0418,-.25*
20,1,.1524,.0418,-.25,.2501,.25,0.0*
1,1,.1524,.2501,.25*
20,1,.1524,.2501,.25,.4584,-.25,0.0*
1,1,.1524,.4584,-.25*
1,1,.1524,.3834,-.075*
20,1,.1524,.3834,-.075,.1168,-.075,0.0*
1,1,.1524,.1168,-.075*
%
%ADD12MACRO12*%
%AMMACRO15*
1,1,.1524,0.0,.75*
20,1,.1524,0.0,.75,-.649519,.375,0.0*
1,1,.1524,-.649519,.375*
20,1,.1524,-.649519,.375,-.649519,-.375,0.0*
1,1,.1524,-.649519,-.375*
20,1,.1524,-.649519,-.375,0.0,-.75,0.0*
1,1,.1524,0.0,-.75*
20,1,.1524,0.0,-.75,.649519,-.375,0.0*
1,1,.1524,.649519,-.375*
20,1,.1524,.649519,-.375,.649519,.375,0.0*
1,1,.1524,.649519,.375*
20,1,.1524,.649519,.375,0.0,.75,0.0*
1,1,.1524,0.0,.75*
%
%ADD15MACRO15*%
%ADD17C,.1524*%
G75*
%LPD*%
G75*
G54D10*
X310000Y300680D03*
Y554680D03*
Y808680D03*
Y1062680D03*
Y1316680D03*
Y1570680D03*
Y1824680D03*
Y2078680D03*
Y2332680D03*
Y2586680D03*
Y2840680D03*
Y3094680D03*
Y3348680D03*
Y3602680D03*
Y3856680D03*
Y4110680D03*
Y4364680D03*
Y4618680D03*
Y4872680D03*
X564000Y300680D03*
Y554680D03*
Y808680D03*
Y1062680D03*
Y1316680D03*
Y1570680D03*
Y1824680D03*
Y2078680D03*
Y2332680D03*
Y2586680D03*
Y2840680D03*
Y3094680D03*
Y3348680D03*
Y3602680D03*
Y3856680D03*
Y4110680D03*
Y4364680D03*
Y4618680D03*
Y4872680D03*
X1072000Y300680D03*
Y554680D03*
Y808680D03*
Y1062680D03*
Y1570680D03*
Y1316680D03*
Y2078680D03*
Y2332680D03*
Y2586680D03*
Y2840680D03*
Y3094680D03*
Y3348680D03*
Y3856680D03*
Y3602680D03*
X5898000Y300680D03*
Y554680D03*
Y1062680D03*
Y808680D03*
Y1570680D03*
Y1316680D03*
Y2078680D03*
Y1824680D03*
Y2485080D03*
Y2739080D03*
Y3247080D03*
Y2993080D03*
Y3755080D03*
Y3501080D03*
Y4263080D03*
Y4009080D03*
Y4771080D03*
Y4517080D03*
X6660000Y300680D03*
Y554680D03*
X6406000Y300680D03*
Y554680D03*
X6660000Y808680D03*
Y1062680D03*
X6406000Y808680D03*
Y1062680D03*
X6660000Y1316680D03*
Y1570680D03*
X6406000Y1316680D03*
Y1570680D03*
X6660000Y1824680D03*
Y2078680D03*
X6406000Y1824680D03*
Y2078680D03*
X6660000Y2332680D03*
Y2586680D03*
X6406000Y2332680D03*
Y2586680D03*
X6660000Y2840680D03*
Y3094680D03*
X6406000Y2840680D03*
Y3094680D03*
X6660000Y3348680D03*
Y3602680D03*
Y3856680D03*
X6406000Y3348680D03*
Y3602680D03*
Y3856680D03*
X6660000Y4110680D03*
Y4364680D03*
X6406000Y4110680D03*
Y4364680D03*
X6660000Y4618680D03*
X6406000D03*
Y4872680D03*
X6660000D03*
X8611730Y2822500D03*
G54D11*
X118570Y332770D03*
Y732770D03*
Y1532770D03*
Y1132770D03*
Y3102770D03*
Y3502770D03*
Y4302770D03*
Y3902770D03*
X865000Y525000D03*
X800000Y1030000D03*
X865000Y775000D03*
X800000Y1280000D03*
X860000Y1879040D03*
X1427230Y388570D03*
X1419330Y855390D03*
Y1255390D03*
X1049330Y4115390D03*
Y4515390D03*
X1827230Y388570D03*
X1469330Y2095390D03*
Y2495390D03*
X1459330Y2935390D03*
X1859330D03*
X1849330Y3805390D03*
X1449330D03*
X1849330Y3405390D03*
X1449330D03*
X1459330Y4295390D03*
X1859330D03*
X1652770Y4691430D03*
X2227230Y388570D03*
X2259330Y2935390D03*
X2249330Y3805390D03*
Y3405390D03*
X2259330Y4295390D03*
X2452770Y4691430D03*
X2052770D03*
X2627230Y388570D03*
X2898570Y792770D03*
Y1592770D03*
Y1192770D03*
X2659330Y2935390D03*
X2649330Y3805390D03*
Y3405390D03*
X2659330Y4295390D03*
X2790000Y4080000D03*
X2890000D03*
Y3980000D03*
X2790000D03*
X3387230Y358570D03*
Y758570D03*
X3600000Y1540000D03*
X3360000D03*
X3240000D03*
X3600000Y1840000D03*
X3360000D03*
X3240000D03*
Y2120000D03*
X3360000Y2230000D03*
X3600000D03*
X3610000Y4180000D03*
X3390000Y4290000D03*
X3140000D03*
X3262770Y4691430D03*
X3787230Y358570D03*
Y758570D03*
X4090000Y2620000D03*
Y2546340D03*
X3940000Y3240000D03*
X3800000D03*
X4080000D03*
Y3040000D03*
X3800000D03*
X3940000D03*
Y3140000D03*
X3800000D03*
X4080000D03*
Y3340000D03*
X3800000D03*
X3940000D03*
X4080000Y3440000D03*
X3800000D03*
X3940000D03*
X3830000Y3750000D03*
X3940000Y3820000D03*
X3990000Y4250000D03*
X3760000Y4060000D03*
X3860000Y4140000D03*
X4140000Y4420000D03*
X4062770Y4691430D03*
X3662770D03*
X4587230Y358570D03*
X4187230D03*
X4587230Y758570D03*
X4187230D03*
X4190000Y2546340D03*
Y2620000D03*
X4290000Y2546340D03*
Y2620000D03*
X4390000Y2546340D03*
Y2620000D03*
X4490000Y2546340D03*
Y2620000D03*
X4590000Y2546340D03*
Y2620000D03*
X4690000Y2546340D03*
Y2620000D03*
X4330000Y3170000D03*
Y3060000D03*
X4680000Y2960000D03*
Y3340000D03*
Y3620000D03*
X4350000Y3480000D03*
Y3620000D03*
X4987230Y358570D03*
Y758570D03*
X4790000Y2546340D03*
Y2620000D03*
X4890000Y2546340D03*
Y2620000D03*
X5015000Y2810000D03*
X4760000Y3270000D03*
X5030000Y3400000D03*
X4760000Y3410000D03*
X5118570Y3902770D03*
Y4302770D03*
Y4702770D03*
X5387230Y358570D03*
Y758570D03*
X5405000Y2810000D03*
X5255000D03*
X5270000Y3400000D03*
X5510000D03*
X5588570Y3902770D03*
Y4302770D03*
Y4702770D03*
X6105000Y770000D03*
Y2300000D03*
Y3010000D03*
Y3405000D03*
X6838570Y222770D03*
Y622770D03*
Y1022770D03*
Y1422770D03*
Y2992770D03*
Y3392770D03*
Y3792770D03*
Y4152770D03*
Y4552770D03*
Y4952770D03*
X8611730Y4092500D03*
G54D12*
X1700000Y770000D03*
Y1370000D03*
X8611730Y917500D03*
G54D13*
X1840000Y2480000D03*
Y2780000D03*
X2700000Y2480000D03*
Y2780000D03*
X8611730Y3457500D03*
G54D14*
X2180000Y1090000D03*
X8611730Y282500D03*
G54D15*
X2679000Y920000D03*
X3441000D03*
X8611730Y2187500D03*
G54D16*
X4140000Y1360000D03*
Y1910000D03*
X4560000Y1360000D03*
Y1910000D03*
X4980000Y1360000D03*
Y1910000D03*
X5400000Y1360000D03*
Y1910000D03*
X8611730Y1552500D03*
G54D17*
G01X-637400Y2413320D02*
X-623180Y2397450D01*
X-606590Y2387920D01*
X-585250Y2384750D01*
X-563910Y2391100D01*
X-547320Y2403800D01*
X-535470Y2426020D01*
X-533100Y2451420D01*
X-537840Y2476820D01*
X-549690Y2492700D01*
X-566290Y2505400D01*
X-582880Y2508570D01*
X-599470Y2505400D01*
X-620810Y2492700D01*
X-613700Y2575250D01*
X-549690D01*
G01X-439790Y2543500D02*
X-425570Y2562550D01*
X-408970Y2572080D01*
X-390010Y2575250D01*
X-366300Y2568900D01*
X-349710Y2553020D01*
X-344970Y2533980D01*
X-347340Y2514920D01*
X-356820Y2499050D01*
X-404230Y2467300D01*
X-425570Y2445070D01*
X-439790Y2413320D01*
X-444530Y2384750D01*
X-344970D01*
G01X2979210Y-485880D02*
X2995800Y-463650D01*
X3010030Y-450950D01*
X3028990Y-444600D01*
X3045590Y-450950D01*
X3057440Y-463650D01*
X3066920Y-482700D01*
X3069290Y-504930D01*
X3066920Y-523980D01*
X3057440Y-543030D01*
X3043210Y-558900D01*
X3026620Y-565250D01*
X3007660Y-558900D01*
X2991060Y-539860D01*
X2981580Y-511270D01*
X2979210Y-479530D01*
X2983950Y-438250D01*
X2991060Y-416020D01*
X3002910Y-393800D01*
X3019510Y-377920D01*
X3036100Y-374750D01*
X3052700Y-381100D01*
X3064550Y-396980D01*
G01X3174450Y-543030D02*
X3191040Y-558900D01*
X3210010Y-565250D01*
X3228970Y-558900D01*
X3245570Y-539860D01*
X3257420Y-511270D01*
X3262160Y-482700D01*
Y-447780D01*
X3257420Y-419200D01*
X3245570Y-393800D01*
X3231340Y-381100D01*
X3214750Y-374750D01*
X3195780Y-381100D01*
X3181560Y-393800D01*
X3172080Y-412850D01*
X3167340Y-438250D01*
X3172080Y-460470D01*
X3183930Y-482700D01*
X3198160Y-495400D01*
X3214750Y-498580D01*
X3233710Y-492230D01*
X3247940Y-476350D01*
X3262160Y-447780D01*
G01X3405250Y-571600D02*
X3400510Y-568420D01*
Y-562080D01*
X3405250Y-558900D01*
X3409990Y-562080D01*
Y-568420D01*
X3405250Y-571600D01*
G01X3550710Y-485880D02*
X3567300Y-463650D01*
X3581530Y-450950D01*
X3600490Y-444600D01*
X3617090Y-450950D01*
X3628940Y-463650D01*
X3638420Y-482700D01*
X3640790Y-504930D01*
X3638420Y-523980D01*
X3628940Y-543030D01*
X3614710Y-558900D01*
X3598120Y-565250D01*
X3579160Y-558900D01*
X3562560Y-539860D01*
X3553080Y-511270D01*
X3550710Y-479530D01*
X3555450Y-438250D01*
X3562560Y-416020D01*
X3574410Y-393800D01*
X3591010Y-377920D01*
X3607600Y-374750D01*
X3624200Y-381100D01*
X3636050Y-396980D01*
G01X7749520Y4568750D02*
Y4886250D01*
X7899140D01*
G01X7844010Y4732800D02*
X7749520D01*
G01X8092050Y4886250D02*
X8186530D01*
G01X8139290D02*
Y4568750D01*
G01X8092050D02*
X8186530D01*
G01X8477870Y4727500D02*
X8556620D01*
Y4632250D01*
X8532990Y4600490D01*
X8505430Y4579330D01*
X8466060Y4568750D01*
X8426690Y4579330D01*
X8399130Y4600490D01*
X8375510Y4632250D01*
X8359760Y4669290D01*
X8351880Y4711620D01*
Y4748670D01*
X8359760Y4780410D01*
X8375510Y4817460D01*
X8399130Y4849210D01*
X8422750Y4870370D01*
X8454250Y4886250D01*
X8481810D01*
X8513300Y4875670D01*
X8536930Y4854500D01*
G01X8682600Y4886250D02*
Y4658710D01*
X8698340Y4611070D01*
X8729840Y4579330D01*
X8769210Y4568750D01*
X8808580Y4579330D01*
X8840080Y4611070D01*
X8855820Y4658710D01*
Y4886250D01*
G01X9005430Y4568750D02*
Y4886250D01*
X9103850D01*
X9135350Y4870370D01*
X9155040Y4849210D01*
X9162910Y4806870D01*
X9155040Y4764540D01*
X9131410Y4738090D01*
X9103850Y4722200D01*
X9005430D01*
G01X9103850D02*
X9162910Y4568750D01*
G01X9477870D02*
X9320390D01*
Y4886250D01*
X9477870D01*
G01X9414880Y4732800D02*
X9320390D01*
G01X10347940Y4568750D02*
Y4886250D01*
X10497560D01*
G01X10442430Y4732800D02*
X10347940D01*
G01X10690470Y4886250D02*
X10784950D01*
G01X10737710D02*
Y4568750D01*
G01X10690470D02*
X10784950D01*
G01X10962120D02*
Y4886250D01*
X11143220Y4568750D01*
Y4886250D01*
G01X11320390D02*
X11414870D01*
G01X11367630D02*
Y4568750D01*
G01X11320390D02*
X11414870D01*
G01X11599910Y4611070D02*
X11631410Y4584620D01*
X11666840Y4568750D01*
X11698340D01*
X11729830Y4584620D01*
X11753460Y4611070D01*
X11765270Y4648130D01*
X11757400Y4685160D01*
X11737710Y4716910D01*
X11702270Y4738090D01*
X11655030Y4748670D01*
X11627470Y4769830D01*
X11615660Y4806870D01*
X11623540Y4843920D01*
X11643220Y4870370D01*
X11670780Y4886250D01*
X11698340D01*
X11725900Y4875670D01*
X11749520Y4849210D01*
G01X11914870Y4568750D02*
Y4886250D01*
G01X12080230D02*
Y4568750D01*
G01Y4727500D02*
X11914870D01*
G01X12391250Y4568750D02*
X12233770D01*
Y4886250D01*
X12391250D01*
G01X12328260Y4732800D02*
X12233770D01*
G01X12540860Y4568750D02*
Y4886250D01*
X12619590D01*
X12651090Y4870370D01*
X12674710Y4849210D01*
X12694400Y4817460D01*
X12710150Y4780410D01*
X12714080Y4727500D01*
X12710150Y4674580D01*
X12694400Y4637540D01*
X12674710Y4605780D01*
X12651090Y4584620D01*
X12619590Y4568750D01*
X12540860D01*
G01X12824320Y4462920D02*
X13060540D01*
G01X13174710Y4611070D02*
X13206210Y4584620D01*
X13241640Y4568750D01*
X13273140D01*
X13304630Y4584620D01*
X13328260Y4611070D01*
X13340070Y4648130D01*
X13332200Y4685160D01*
X13312510Y4716910D01*
X13277070Y4738090D01*
X13229830Y4748670D01*
X13202270Y4769830D01*
X13190460Y4806870D01*
X13198340Y4843920D01*
X13218020Y4870370D01*
X13245580Y4886250D01*
X13273140D01*
X13300700Y4875670D01*
X13324320Y4849210D01*
G01X13525110Y4886250D02*
X13619590D01*
G01X13572350D02*
Y4568750D01*
G01X13525110D02*
X13619590D01*
G01X13812500Y4886250D02*
X13962120D01*
X13812500Y4568750D01*
X13962120D01*
G01X14281010D02*
X14123530D01*
Y4886250D01*
X14281010D01*
G01X14218020Y4732800D02*
X14123530D01*
G01X11032980Y5203750D02*
X11131410Y5521250D01*
X11229840Y5203750D01*
G01X11194400Y5314870D02*
X11068410D01*
G01X11367630Y5521250D02*
Y5203750D01*
X11525110D01*
G01X11682590Y5521250D02*
Y5203750D01*
X11840070D01*
G01X12304640Y5521250D02*
Y5293710D01*
X12320380Y5246070D01*
X12351880Y5214330D01*
X12391250Y5203750D01*
X12430620Y5214330D01*
X12462120Y5246070D01*
X12477860Y5293710D01*
Y5521250D01*
G01X12615660Y5203750D02*
Y5521250D01*
X12796760Y5203750D01*
Y5521250D01*
G01X12973930D02*
X13068410D01*
G01X13021170D02*
Y5203750D01*
G01X12973930D02*
X13068410D01*
G01X13336130Y5521250D02*
Y5203750D01*
G01X13245580Y5521250D02*
X13426680D01*
G01X13568410Y5246070D02*
X13599910Y5219620D01*
X13635340Y5203750D01*
X13666840D01*
X13698330Y5219620D01*
X13721960Y5246070D01*
X13733770Y5283130D01*
X13725900Y5320160D01*
X13706210Y5351910D01*
X13670770Y5373090D01*
X13623530Y5383670D01*
X13595970Y5404830D01*
X13584160Y5441870D01*
X13592040Y5478920D01*
X13611720Y5505370D01*
X13639280Y5521250D01*
X13666840D01*
X13694400Y5510670D01*
X13718020Y5484210D01*
G01X14182580Y5203750D02*
X14281010Y5521250D01*
X14379440Y5203750D01*
G01X14344000Y5314870D02*
X14218010D01*
G01X14517230Y5203750D02*
Y5521250D01*
X14615650D01*
X14647150Y5505370D01*
X14666840Y5484210D01*
X14674710Y5441870D01*
X14666840Y5399540D01*
X14643210Y5373090D01*
X14615650Y5357200D01*
X14517230D01*
G01X14615650D02*
X14674710Y5203750D01*
G01X14989670D02*
X14832190D01*
Y5521250D01*
X14989670D01*
G01X14926680Y5367800D02*
X14832190D01*
G01X15493610Y5521250D02*
X15588090D01*
G01X15540850D02*
Y5203750D01*
G01X15493610D02*
X15588090D01*
G01X15765260D02*
Y5521250D01*
X15946360Y5203750D01*
Y5521250D01*
G01X16383360Y5203750D02*
Y5521250D01*
X16485730Y5256670D01*
X16588100Y5521250D01*
Y5203750D01*
G01X16753450Y5521250D02*
X16847930D01*
G01X16800690D02*
Y5203750D01*
G01X16753450D02*
X16847930D01*
G01X17036910Y5521250D02*
Y5203750D01*
X17194390D01*
G01X17351870Y5521250D02*
Y5203750D01*
X17509350D01*
G01X17698330Y5521250D02*
X17792810D01*
G01X17745570D02*
Y5203750D01*
G01X17698330D02*
X17792810D01*
G01X17958160D02*
Y5521250D01*
X18060530Y5256670D01*
X18162900Y5521250D01*
Y5203750D01*
G01X18454230D02*
X18296750D01*
Y5521250D01*
X18454230D01*
G01X18391240Y5367800D02*
X18296750D01*
G01X18690450Y5521250D02*
Y5203750D01*
G01X18599900Y5521250D02*
X18781000D01*
G01X19084150Y5203750D02*
X18926670D01*
Y5521250D01*
X19084150D01*
G01X19021160Y5367800D02*
X18926670D01*
G01X19241630Y5203750D02*
Y5521250D01*
X19340050D01*
X19371550Y5505370D01*
X19391240Y5484210D01*
X19399110Y5441870D01*
X19391240Y5399540D01*
X19367610Y5373090D01*
X19340050Y5357200D01*
X19241630D01*
G01X19340050D02*
X19399110Y5203750D01*
G01X19552650Y5246070D02*
X19584150Y5219620D01*
X19619580Y5203750D01*
X19651080D01*
X19682570Y5219620D01*
X19706200Y5246070D01*
X19718010Y5283130D01*
X19710140Y5320160D01*
X19690450Y5351910D01*
X19655010Y5373090D01*
X19607770Y5383670D01*
X19580210Y5404830D01*
X19568400Y5441870D01*
X19576280Y5478920D01*
X19595960Y5505370D01*
X19623520Y5521250D01*
X19651080D01*
X19678640Y5510670D01*
X19702260Y5484210D01*
G01X11281020Y187250D02*
X11304630Y150200D01*
X11336130Y129040D01*
X11371570Y123750D01*
X11403070Y129040D01*
X11434560Y155490D01*
X11454240Y187250D01*
X11458180Y219000D01*
X11450310Y256030D01*
X11422750Y282500D01*
X11395190Y293090D01*
X11359750D01*
G01X11395190D02*
X11418810Y308960D01*
X11438500Y335410D01*
X11446370Y367160D01*
X11438500Y398920D01*
X11418810Y425370D01*
X11383380Y441250D01*
X11347950Y435960D01*
X11312510Y414790D01*
G01X11682590Y113170D02*
X11674710Y118460D01*
Y129040D01*
X11682590Y134330D01*
X11690470Y129040D01*
Y118460D01*
X11682590Y113170D01*
G01X11997550Y441250D02*
X11966050Y430670D01*
X11942430Y404210D01*
X11926680Y372460D01*
X11914870Y330120D01*
X11910940Y282500D01*
X11914870Y234870D01*
X11926680Y192540D01*
X11942430Y160780D01*
X11966050Y134330D01*
X11997550Y123750D01*
X12029040Y134330D01*
X12052670Y160780D01*
X12068420Y192540D01*
X12080230Y234870D01*
X12084160Y282500D01*
X12080230Y330120D01*
X12068420Y372460D01*
X12052670Y404210D01*
X12029040Y430670D01*
X11997550Y441250D01*
G01X12253460Y335410D02*
X12371560Y123750D01*
G01Y335410D02*
X12253460Y123750D01*
G01X12627470D02*
Y441250D01*
X12580230Y377750D01*
G01Y123750D02*
X12674710D01*
G01X12942430Y113170D02*
X12934550Y118460D01*
Y129040D01*
X12942430Y134330D01*
X12950310Y129040D01*
Y118460D01*
X12942430Y113170D01*
G01X13257390Y441250D02*
X13225890Y430670D01*
X13202270Y404210D01*
X13186520Y372460D01*
X13174710Y330120D01*
X13170780Y282500D01*
X13174710Y234870D01*
X13186520Y192540D01*
X13202270Y160780D01*
X13225890Y134330D01*
X13257390Y123750D01*
X13288880Y134330D01*
X13312510Y160780D01*
X13328260Y192540D01*
X13340070Y234870D01*
X13344000Y282500D01*
X13340070Y330120D01*
X13328260Y372460D01*
X13312510Y404210D01*
X13288880Y430670D01*
X13257390Y441250D01*
G01X11281020Y822250D02*
X11304630Y785200D01*
X11336130Y764040D01*
X11371570Y758750D01*
X11403070Y764040D01*
X11434560Y790490D01*
X11454240Y822250D01*
X11458180Y854000D01*
X11450310Y891030D01*
X11422750Y917500D01*
X11395190Y928090D01*
X11359750D01*
G01X11395190D02*
X11418810Y943960D01*
X11438500Y970410D01*
X11446370Y1002160D01*
X11438500Y1033920D01*
X11418810Y1060370D01*
X11383380Y1076250D01*
X11347950Y1070960D01*
X11312510Y1049790D01*
G01X11682590Y748170D02*
X11674710Y753460D01*
Y764040D01*
X11682590Y769330D01*
X11690470Y764040D01*
Y753460D01*
X11682590Y748170D01*
G01X11997550Y1076250D02*
X11966050Y1065670D01*
X11942430Y1039210D01*
X11926680Y1007460D01*
X11914870Y965120D01*
X11910940Y917500D01*
X11914870Y869870D01*
X11926680Y827540D01*
X11942430Y795780D01*
X11966050Y769330D01*
X11997550Y758750D01*
X12029040Y769330D01*
X12052670Y795780D01*
X12068420Y827540D01*
X12080230Y869870D01*
X12084160Y917500D01*
X12080230Y965120D01*
X12068420Y1007460D01*
X12052670Y1039210D01*
X12029040Y1065670D01*
X11997550Y1076250D01*
G01X12253460Y970410D02*
X12371560Y758750D01*
G01Y970410D02*
X12253460Y758750D01*
G01X12627470D02*
Y1076250D01*
X12580230Y1012750D01*
G01Y758750D02*
X12674710D01*
G01X12942430Y748170D02*
X12934550Y753460D01*
Y764040D01*
X12942430Y769330D01*
X12950310Y764040D01*
Y753460D01*
X12942430Y748170D01*
G01X13257390Y1076250D02*
X13225890Y1065670D01*
X13202270Y1039210D01*
X13186520Y1007460D01*
X13174710Y965120D01*
X13170780Y917500D01*
X13174710Y869870D01*
X13186520Y827540D01*
X13202270Y795780D01*
X13225890Y769330D01*
X13257390Y758750D01*
X13288880Y769330D01*
X13312510Y795780D01*
X13328260Y827540D01*
X13340070Y869870D01*
X13344000Y917500D01*
X13340070Y965120D01*
X13328260Y1007460D01*
X13312510Y1039210D01*
X13288880Y1065670D01*
X13257390Y1076250D01*
G01X11525110Y4251250D02*
X11493610Y4240670D01*
X11469990Y4214210D01*
X11454240Y4182460D01*
X11442430Y4140120D01*
X11438500Y4092500D01*
X11442430Y4044870D01*
X11454240Y4002540D01*
X11469990Y3970780D01*
X11493610Y3944330D01*
X11525110Y3933750D01*
X11556600Y3944330D01*
X11580230Y3970780D01*
X11595980Y4002540D01*
X11607790Y4044870D01*
X11611720Y4092500D01*
X11607790Y4140120D01*
X11595980Y4182460D01*
X11580230Y4214210D01*
X11556600Y4240670D01*
X11525110Y4251250D01*
G01X11840070Y3923170D02*
X11832190Y3928460D01*
Y3939040D01*
X11840070Y3944330D01*
X11847950Y3939040D01*
Y3928460D01*
X11840070Y3923170D01*
G01X12068420Y3997250D02*
X12092030Y3960200D01*
X12123530Y3939040D01*
X12158970Y3933750D01*
X12190470Y3939040D01*
X12221960Y3965490D01*
X12241640Y3997250D01*
X12245580Y4029000D01*
X12237710Y4066030D01*
X12210150Y4092500D01*
X12182590Y4103090D01*
X12147150D01*
G01X12182590D02*
X12206210Y4118960D01*
X12225900Y4145410D01*
X12233770Y4177160D01*
X12225900Y4208920D01*
X12206210Y4235370D01*
X12170780Y4251250D01*
X12135350Y4245960D01*
X12099910Y4224790D01*
G01X12469990Y4251250D02*
X12438490Y4240670D01*
X12414870Y4214210D01*
X12399120Y4182460D01*
X12387310Y4140120D01*
X12383380Y4092500D01*
X12387310Y4044870D01*
X12399120Y4002540D01*
X12414870Y3970780D01*
X12438490Y3944330D01*
X12469990Y3933750D01*
X12501480Y3944330D01*
X12525110Y3970780D01*
X12540860Y4002540D01*
X12552670Y4044870D01*
X12556600Y4092500D01*
X12552670Y4140120D01*
X12540860Y4182460D01*
X12525110Y4214210D01*
X12501480Y4240670D01*
X12469990Y4251250D01*
G01X12832190Y3933750D02*
Y4251250D01*
X12686520Y4023710D01*
X12883380D01*
G01X13099910Y3933750D02*
X13127470Y3939040D01*
X13158960Y3954910D01*
X13178650Y3981360D01*
X13186520Y4018420D01*
X13178650Y4055450D01*
X13155030Y4087200D01*
X13119590Y4103090D01*
X13080230D01*
X13056600Y4113670D01*
X13036910Y4140120D01*
X13029040Y4177160D01*
X13040860Y4214210D01*
X13068410Y4240670D01*
X13099910Y4251250D01*
X13131400Y4240670D01*
X13158960Y4214210D01*
X13170780Y4177160D01*
X13162900Y4140120D01*
X13143220Y4113670D01*
X13119590Y4103090D01*
X13080230D01*
X13044790Y4087200D01*
X13021170Y4055450D01*
X13013300Y4018420D01*
X13021170Y3981360D01*
X13040860Y3954910D01*
X13072350Y3939040D01*
X13099910Y3933750D01*
G01X11359760Y5853750D02*
Y6171250D01*
X11438490D01*
X11469990Y6155370D01*
X11493610Y6134210D01*
X11513300Y6102460D01*
X11529050Y6065410D01*
X11532980Y6012500D01*
X11529050Y5959580D01*
X11513300Y5922540D01*
X11493610Y5890780D01*
X11469990Y5869620D01*
X11438490Y5853750D01*
X11359760D01*
G01X11682590D02*
Y6171250D01*
X11781010D01*
X11812510Y6155370D01*
X11832200Y6134210D01*
X11840070Y6091870D01*
X11832200Y6049540D01*
X11808570Y6023090D01*
X11781010Y6007200D01*
X11682590D01*
G01X11781010D02*
X11840070Y5853750D01*
G01X12029050Y6171250D02*
X12123530D01*
G01X12076290D02*
Y5853750D01*
G01X12029050D02*
X12123530D01*
G01X12312510Y6171250D02*
Y5853750D01*
X12469990D01*
G01X12627470Y6171250D02*
Y5853750D01*
X12784950D01*
G01X13422740Y6144790D02*
X13399120Y6160670D01*
X13371570Y6171250D01*
X13340070D01*
X13304630Y6155370D01*
X13277080Y6128920D01*
X13257390Y6097160D01*
X13241640Y6044250D01*
X13237700Y5996620D01*
X13245580Y5949000D01*
X13257390Y5917250D01*
X13281010Y5885490D01*
X13308570Y5864330D01*
X13336130Y5853750D01*
X13363690D01*
X13391250Y5864330D01*
X13414870Y5880200D01*
X13434560Y5901360D01*
G01X13568410Y5853750D02*
Y6171250D01*
G01X13733770D02*
Y5853750D01*
G01Y6012500D02*
X13568410D01*
G01X13867620Y5853750D02*
X13966050Y6171250D01*
X14064480Y5853750D01*
G01X14029040Y5964870D02*
X13903050D01*
G01X14202270Y5853750D02*
Y6171250D01*
X14300690D01*
X14332190Y6155370D01*
X14351880Y6134210D01*
X14359750Y6091870D01*
X14351880Y6049540D01*
X14328250Y6023090D01*
X14300690Y6007200D01*
X14202270D01*
G01X14300690D02*
X14359750Y5853750D01*
G01X14595970Y6171250D02*
Y5853750D01*
G01X14505420Y6171250D02*
X14686520D01*
G01X14910930Y5843170D02*
X14903050Y5848460D01*
Y5859040D01*
X14910930Y5864330D01*
X14918810Y5859040D01*
Y5848460D01*
X14910930Y5843170D01*
G01Y5986030D02*
X14903050Y5991330D01*
Y6001910D01*
X14910930Y6007200D01*
X14918810Y6001910D01*
Y5991330D01*
X14910930Y5986030D01*
G01X15540850Y6171250D02*
Y5853750D01*
G01X15450300Y6171250D02*
X15631400D01*
G01X15855810Y5853750D02*
X15824310Y5859040D01*
X15796760Y5880200D01*
X15773130Y5911960D01*
X15757380Y5949000D01*
X15749510Y5991330D01*
Y6033670D01*
X15757380Y6076000D01*
X15773130Y6113040D01*
X15796760Y6144790D01*
X15824310Y6165960D01*
X15855810Y6171250D01*
X15887300Y6165960D01*
X15914860Y6144790D01*
X15938490Y6113040D01*
X15954240Y6076000D01*
X15962110Y6033670D01*
Y5991330D01*
X15954240Y5949000D01*
X15938490Y5911960D01*
X15914860Y5880200D01*
X15887300Y5859040D01*
X15855810Y5853750D01*
G01X16092030D02*
Y6171250D01*
X16186520D01*
X16218010Y6155370D01*
X16241640Y6118330D01*
X16249510Y6076000D01*
X16241640Y6033670D01*
X16221950Y6001910D01*
X16186520Y5986030D01*
X16092030D01*
G01X16800690Y6171250D02*
Y5853750D01*
G01X16745570Y6065410D02*
X16855810D01*
G01X17115650Y5853750D02*
X17092030Y5859040D01*
X17068410Y5880200D01*
X17052650Y5917250D01*
X17044780Y5959580D01*
X17052650Y6001910D01*
X17068410Y6038960D01*
X17092030Y6060120D01*
X17115650Y6065410D01*
X17139270Y6060120D01*
X17162890Y6038960D01*
X17178640Y6001910D01*
X17182580Y5959580D01*
X17178640Y5917250D01*
X17162890Y5880200D01*
X17139270Y5859040D01*
X17115650Y5853750D01*
G01X17777060Y6023090D02*
X17792810Y6038960D01*
X17804620Y6065410D01*
X17812500Y6102460D01*
X17804620Y6134210D01*
X17788880Y6155370D01*
X17761320Y6171250D01*
X17655020D01*
Y5853750D01*
X17784940D01*
X17812500Y5874910D01*
X17828250Y5906670D01*
X17836120Y5943710D01*
X17828250Y5980740D01*
X17804620Y6012500D01*
X17777060Y6023090D01*
X17655020D01*
G01X18060530Y5853750D02*
X18029030Y5859040D01*
X18001480Y5880200D01*
X17977850Y5911960D01*
X17962100Y5949000D01*
X17954230Y5991330D01*
Y6033670D01*
X17962100Y6076000D01*
X17977850Y6113040D01*
X18001480Y6144790D01*
X18029030Y6165960D01*
X18060530Y6171250D01*
X18092020Y6165960D01*
X18119580Y6144790D01*
X18143210Y6113040D01*
X18158960Y6076000D01*
X18166830Y6033670D01*
Y5991330D01*
X18158960Y5949000D01*
X18143210Y5911960D01*
X18119580Y5880200D01*
X18092020Y5859040D01*
X18060530Y5853750D01*
G01X18375490Y6171250D02*
Y5853750D01*
G01X18284940Y6171250D02*
X18466040D01*
G01X18690450D02*
Y5853750D01*
G01X18599900Y6171250D02*
X18781000D01*
G01X19005410Y5853750D02*
X18973910Y5859040D01*
X18946360Y5880200D01*
X18922730Y5911960D01*
X18906980Y5949000D01*
X18899110Y5991330D01*
Y6033670D01*
X18906980Y6076000D01*
X18922730Y6113040D01*
X18946360Y6144790D01*
X18973910Y6165960D01*
X19005410Y6171250D01*
X19036900Y6165960D01*
X19064460Y6144790D01*
X19088090Y6113040D01*
X19103840Y6076000D01*
X19111710Y6033670D01*
Y5991330D01*
X19103840Y5949000D01*
X19088090Y5911960D01*
X19064460Y5880200D01*
X19036900Y5859040D01*
X19005410Y5853750D01*
G01X19218000D02*
Y6171250D01*
X19320370Y5906670D01*
X19422740Y6171250D01*
Y5853750D01*
G01X11997550Y1393750D02*
Y1711250D01*
X11950310Y1647750D01*
G01Y1393750D02*
X12044790D01*
G01X12312510Y1383170D02*
X12304630Y1388460D01*
Y1399040D01*
X12312510Y1404330D01*
X12320390Y1399040D01*
Y1388460D01*
X12312510Y1383170D01*
G01X12627470Y1393750D02*
X12655030Y1399040D01*
X12686520Y1414910D01*
X12706210Y1441360D01*
X12714080Y1478420D01*
X12706210Y1515450D01*
X12682590Y1547200D01*
X12647150Y1563090D01*
X12607790D01*
X12584160Y1573670D01*
X12564470Y1600120D01*
X12556600Y1637160D01*
X12568420Y1674210D01*
X12595970Y1700670D01*
X12627470Y1711250D01*
X12658960Y1700670D01*
X12686520Y1674210D01*
X12698340Y1637160D01*
X12690460Y1600120D01*
X12670780Y1573670D01*
X12647150Y1563090D01*
X12607790D01*
X12572350Y1547200D01*
X12548730Y1515450D01*
X12540860Y1478420D01*
X12548730Y1441360D01*
X12568420Y1414910D01*
X12599910Y1399040D01*
X12627470Y1393750D01*
G01X11997550Y2028750D02*
Y2346250D01*
X11950310Y2282750D01*
G01Y2028750D02*
X12044790D01*
G01X12312510Y2018170D02*
X12304630Y2023460D01*
Y2034040D01*
X12312510Y2039330D01*
X12320390Y2034040D01*
Y2023460D01*
X12312510Y2018170D01*
G01X12540860Y2076360D02*
X12564470Y2049910D01*
X12592030Y2034040D01*
X12627470Y2028750D01*
X12662910Y2039330D01*
X12690460Y2060490D01*
X12710150Y2097540D01*
X12714080Y2139870D01*
X12706210Y2182200D01*
X12686520Y2208670D01*
X12658960Y2229830D01*
X12631410Y2235120D01*
X12603850Y2229830D01*
X12568420Y2208670D01*
X12580230Y2346250D01*
X12686520D01*
G01X11997550Y2663750D02*
Y2981250D01*
X11950310Y2917750D01*
G01Y2663750D02*
X12044790D01*
G01X12312510Y2653170D02*
X12304630Y2658460D01*
Y2669040D01*
X12312510Y2674330D01*
X12320390Y2669040D01*
Y2658460D01*
X12312510Y2653170D01*
G01X12627470Y2663750D02*
Y2981250D01*
X12580230Y2917750D01*
G01Y2663750D02*
X12674710D01*
G01X11997550Y3616250D02*
X11966050Y3605670D01*
X11942430Y3579210D01*
X11926680Y3547460D01*
X11914870Y3505120D01*
X11910940Y3457500D01*
X11914870Y3409870D01*
X11926680Y3367540D01*
X11942430Y3335780D01*
X11966050Y3309330D01*
X11997550Y3298750D01*
X12029040Y3309330D01*
X12052670Y3335780D01*
X12068420Y3367540D01*
X12080230Y3409870D01*
X12084160Y3457500D01*
X12080230Y3505120D01*
X12068420Y3547460D01*
X12052670Y3579210D01*
X12029040Y3605670D01*
X11997550Y3616250D01*
G01X12312510Y3288170D02*
X12304630Y3293460D01*
Y3304040D01*
X12312510Y3309330D01*
X12320390Y3304040D01*
Y3293460D01*
X12312510Y3288170D01*
G01X12627470Y3298750D02*
X12655030Y3304040D01*
X12686520Y3319910D01*
X12706210Y3346360D01*
X12714080Y3383420D01*
X12706210Y3420450D01*
X12682590Y3452200D01*
X12647150Y3468090D01*
X12607790D01*
X12584160Y3478670D01*
X12564470Y3505120D01*
X12556600Y3542160D01*
X12568420Y3579210D01*
X12595970Y3605670D01*
X12627470Y3616250D01*
X12658960Y3605670D01*
X12686520Y3579210D01*
X12698340Y3542160D01*
X12690460Y3505120D01*
X12670780Y3478670D01*
X12647150Y3468090D01*
X12607790D01*
X12572350Y3452200D01*
X12548730Y3420450D01*
X12540860Y3383420D01*
X12548730Y3346360D01*
X12568420Y3319910D01*
X12599910Y3304040D01*
X12627470Y3298750D01*
G01X15304630Y4568750D02*
Y4886250D01*
X15403050D01*
X15434550Y4870370D01*
X15454240Y4849210D01*
X15462110Y4806870D01*
X15454240Y4764540D01*
X15430610Y4738090D01*
X15403050Y4722200D01*
X15304630D01*
G01X15403050D02*
X15462110Y4568750D01*
G01X15698330D02*
X15666830Y4574040D01*
X15639280Y4595200D01*
X15615650Y4626960D01*
X15599900Y4664000D01*
X15592030Y4706330D01*
Y4748670D01*
X15599900Y4791000D01*
X15615650Y4828040D01*
X15639280Y4859790D01*
X15666830Y4880960D01*
X15698330Y4886250D01*
X15729820Y4880960D01*
X15757380Y4859790D01*
X15781010Y4828040D01*
X15796760Y4791000D01*
X15804630Y4748670D01*
Y4706330D01*
X15796760Y4664000D01*
X15781010Y4626960D01*
X15757380Y4595200D01*
X15729820Y4574040D01*
X15698330Y4568750D01*
G01X16013290Y4886250D02*
Y4568750D01*
G01X15922740Y4886250D02*
X16103840D01*
G01X16229820Y4568750D02*
X16328250Y4886250D01*
X16426680Y4568750D01*
G01X16391240Y4679870D02*
X16265250D01*
G01X16643210Y4886250D02*
Y4568750D01*
G01X16552660Y4886250D02*
X16733760D01*
G01X16910930D02*
X17005410D01*
G01X16958170D02*
Y4568750D01*
G01X16910930D02*
X17005410D01*
G01X17273130D02*
X17241630Y4574040D01*
X17214080Y4595200D01*
X17190450Y4626960D01*
X17174700Y4664000D01*
X17166830Y4706330D01*
Y4748670D01*
X17174700Y4791000D01*
X17190450Y4828040D01*
X17214080Y4859790D01*
X17241630Y4880960D01*
X17273130Y4886250D01*
X17304620Y4880960D01*
X17332180Y4859790D01*
X17355810Y4828040D01*
X17371560Y4791000D01*
X17379430Y4748670D01*
Y4706330D01*
X17371560Y4664000D01*
X17355810Y4626960D01*
X17332180Y4595200D01*
X17304620Y4574040D01*
X17273130Y4568750D01*
G01X17497540D02*
Y4886250D01*
X17678640Y4568750D01*
Y4886250D01*
G01X15631400Y160780D02*
X15658960Y134330D01*
X15690450Y123750D01*
X15721950Y134330D01*
X15749510Y166070D01*
X15769200Y213710D01*
X15777070Y261330D01*
Y319540D01*
X15769200Y367160D01*
X15749510Y409500D01*
X15725890Y430670D01*
X15698330Y441250D01*
X15666830Y430670D01*
X15643210Y409500D01*
X15627460Y377750D01*
X15619590Y335410D01*
X15627460Y298380D01*
X15647150Y261330D01*
X15670770Y240160D01*
X15698330Y234870D01*
X15729820Y245450D01*
X15753450Y271910D01*
X15777070Y319540D01*
G01X16013290Y441250D02*
X15981790Y430670D01*
X15958170Y404210D01*
X15942420Y372460D01*
X15930610Y330120D01*
X15926680Y282500D01*
X15930610Y234870D01*
X15942420Y192540D01*
X15958170Y160780D01*
X15981790Y134330D01*
X16013290Y123750D01*
X16044780Y134330D01*
X16068410Y160780D01*
X16084160Y192540D01*
X16095970Y234870D01*
X16099900Y282500D01*
X16095970Y330120D01*
X16084160Y372460D01*
X16068410Y404210D01*
X16044780Y430670D01*
X16013290Y441250D01*
G01X16328250Y113170D02*
X16320370Y118460D01*
Y129040D01*
X16328250Y134330D01*
X16336130Y129040D01*
Y118460D01*
X16328250Y113170D01*
G01X16643210Y441250D02*
X16611710Y430670D01*
X16588090Y404210D01*
X16572340Y372460D01*
X16560530Y330120D01*
X16556600Y282500D01*
X16560530Y234870D01*
X16572340Y192540D01*
X16588090Y160780D01*
X16611710Y134330D01*
X16643210Y123750D01*
X16674700Y134330D01*
X16698330Y160780D01*
X16714080Y192540D01*
X16725890Y234870D01*
X16729820Y282500D01*
X16725890Y330120D01*
X16714080Y372460D01*
X16698330Y404210D01*
X16674700Y430670D01*
X16643210Y441250D01*
G01X16958170D02*
X16926670Y430670D01*
X16903050Y404210D01*
X16887300Y372460D01*
X16875490Y330120D01*
X16871560Y282500D01*
X16875490Y234870D01*
X16887300Y192540D01*
X16903050Y160780D01*
X16926670Y134330D01*
X16958170Y123750D01*
X16989660Y134330D01*
X17013290Y160780D01*
X17029040Y192540D01*
X17040850Y234870D01*
X17044780Y282500D01*
X17040850Y330120D01*
X17029040Y372460D01*
X17013290Y404210D01*
X16989660Y430670D01*
X16958170Y441250D01*
G01X17273130D02*
X17241630Y430670D01*
X17218010Y404210D01*
X17202260Y372460D01*
X17190450Y330120D01*
X17186520Y282500D01*
X17190450Y234870D01*
X17202260Y192540D01*
X17218010Y160780D01*
X17241630Y134330D01*
X17273130Y123750D01*
X17304620Y134330D01*
X17328250Y160780D01*
X17344000Y192540D01*
X17355810Y234870D01*
X17359740Y282500D01*
X17355810Y330120D01*
X17344000Y372460D01*
X17328250Y404210D01*
X17304620Y430670D01*
X17273130Y441250D01*
G01X15855810Y1076250D02*
X15824310Y1065670D01*
X15800690Y1039210D01*
X15784940Y1007460D01*
X15773130Y965120D01*
X15769200Y917500D01*
X15773130Y869870D01*
X15784940Y827540D01*
X15800690Y795780D01*
X15824310Y769330D01*
X15855810Y758750D01*
X15887300Y769330D01*
X15910930Y795780D01*
X15926680Y827540D01*
X15938490Y869870D01*
X15942420Y917500D01*
X15938490Y965120D01*
X15926680Y1007460D01*
X15910930Y1039210D01*
X15887300Y1065670D01*
X15855810Y1076250D01*
G01X16170770Y748170D02*
X16162890Y753460D01*
Y764040D01*
X16170770Y769330D01*
X16178650Y764040D01*
Y753460D01*
X16170770Y748170D01*
G01X16485730Y1076250D02*
X16454230Y1065670D01*
X16430610Y1039210D01*
X16414860Y1007460D01*
X16403050Y965120D01*
X16399120Y917500D01*
X16403050Y869870D01*
X16414860Y827540D01*
X16430610Y795780D01*
X16454230Y769330D01*
X16485730Y758750D01*
X16517220Y769330D01*
X16540850Y795780D01*
X16556600Y827540D01*
X16568410Y869870D01*
X16572340Y917500D01*
X16568410Y965120D01*
X16556600Y1007460D01*
X16540850Y1039210D01*
X16517220Y1065670D01*
X16485730Y1076250D01*
G01X16800690D02*
X16769190Y1065670D01*
X16745570Y1039210D01*
X16729820Y1007460D01*
X16718010Y965120D01*
X16714080Y917500D01*
X16718010Y869870D01*
X16729820Y827540D01*
X16745570Y795780D01*
X16769190Y769330D01*
X16800690Y758750D01*
X16832180Y769330D01*
X16855810Y795780D01*
X16871560Y827540D01*
X16883370Y869870D01*
X16887300Y917500D01*
X16883370Y965120D01*
X16871560Y1007460D01*
X16855810Y1039210D01*
X16832180Y1065670D01*
X16800690Y1076250D01*
G01X17115650D02*
X17084150Y1065670D01*
X17060530Y1039210D01*
X17044780Y1007460D01*
X17032970Y965120D01*
X17029040Y917500D01*
X17032970Y869870D01*
X17044780Y827540D01*
X17060530Y795780D01*
X17084150Y769330D01*
X17115650Y758750D01*
X17147140Y769330D01*
X17170770Y795780D01*
X17186520Y827540D01*
X17198330Y869870D01*
X17202260Y917500D01*
X17198330Y965120D01*
X17186520Y1007460D01*
X17170770Y1039210D01*
X17147140Y1065670D01*
X17115650Y1076250D01*
G01X16434550Y1499580D02*
X16536910D01*
G01X16434550Y2134580D02*
X16536910D01*
G01X16434550Y2769580D02*
X16536910D01*
G01X16434550Y3404580D02*
X16536910D01*
G01X16434550Y4039580D02*
X16536910D01*
G01X17428070Y-193750D02*
Y-511250D01*
G01X17337520Y-193750D02*
X17518620D01*
G01X17743030Y-511250D02*
X17711530Y-505960D01*
X17683980Y-484800D01*
X17660350Y-453040D01*
X17644600Y-416000D01*
X17636730Y-373670D01*
Y-331330D01*
X17644600Y-289000D01*
X17660350Y-251960D01*
X17683980Y-220210D01*
X17711530Y-199040D01*
X17743030Y-193750D01*
X17774520Y-199040D01*
X17802080Y-220210D01*
X17825710Y-251960D01*
X17841460Y-289000D01*
X17849330Y-331330D01*
Y-373670D01*
X17841460Y-416000D01*
X17825710Y-453040D01*
X17802080Y-484800D01*
X17774520Y-505960D01*
X17743030Y-511250D01*
G01X18057990Y-193750D02*
Y-511250D01*
G01X17967440Y-193750D02*
X18148540D01*
G01X18274520Y-511250D02*
X18372950Y-193750D01*
X18471380Y-511250D01*
G01X18435940Y-400130D02*
X18309950D01*
G01X18609170Y-193750D02*
Y-511250D01*
X18766650D01*
G01X19235150D02*
Y-193750D01*
G01X19400510D02*
Y-511250D01*
G01Y-352500D02*
X19235150D01*
G01X19632790Y-511250D02*
X19601290Y-505960D01*
X19573740Y-484800D01*
X19550110Y-453040D01*
X19534360Y-416000D01*
X19526490Y-373670D01*
Y-331330D01*
X19534360Y-289000D01*
X19550110Y-251960D01*
X19573740Y-220210D01*
X19601290Y-199040D01*
X19632790Y-193750D01*
X19664280Y-199040D01*
X19691840Y-220210D01*
X19715470Y-251960D01*
X19731220Y-289000D01*
X19739090Y-331330D01*
Y-373670D01*
X19731220Y-416000D01*
X19715470Y-453040D01*
X19691840Y-484800D01*
X19664280Y-505960D01*
X19632790Y-511250D01*
G01X19869010Y-193750D02*
Y-511250D01*
X20026490D01*
G01X20341450D02*
X20183970D01*
Y-193750D01*
X20341450D01*
G01X20278460Y-347200D02*
X20183970D01*
G01X20494990Y-468930D02*
X20526490Y-495380D01*
X20561920Y-511250D01*
X20593420D01*
X20624910Y-495380D01*
X20648540Y-468930D01*
X20660350Y-431870D01*
X20652480Y-394840D01*
X20632790Y-363090D01*
X20597350Y-341910D01*
X20550110Y-331330D01*
X20522550Y-310170D01*
X20510740Y-273130D01*
X20518620Y-236080D01*
X20538300Y-209630D01*
X20565860Y-193750D01*
X20593420D01*
X20620980Y-204330D01*
X20644600Y-230790D01*
G01X20892630Y-521830D02*
X20884750Y-516540D01*
Y-505960D01*
X20892630Y-500670D01*
X20900510Y-505960D01*
Y-516540D01*
X20892630Y-521830D01*
G01Y-378970D02*
X20884750Y-373670D01*
Y-363090D01*
X20892630Y-357800D01*
X20900510Y-363090D01*
Y-373670D01*
X20892630Y-378970D01*
G01X18847930Y123750D02*
Y441250D01*
X18942420D01*
X18973910Y425370D01*
X18997540Y388330D01*
X19005410Y346000D01*
X18997540Y303670D01*
X18977850Y271910D01*
X18942420Y256030D01*
X18847930D01*
G01X19162890Y441250D02*
Y123750D01*
X19320370D01*
G01X19458160D02*
X19556590Y441250D01*
X19655020Y123750D01*
G01X19619580Y234870D02*
X19493590D01*
G01X19871550Y441250D02*
Y123750D01*
G01X19781000Y441250D02*
X19962100D01*
G01X20265250Y123750D02*
X20107770D01*
Y441250D01*
X20265250D01*
G01X20202260Y287800D02*
X20107770D01*
G01X20414860Y123750D02*
Y441250D01*
X20493590D01*
X20525090Y425370D01*
X20548710Y404210D01*
X20568400Y372460D01*
X20584150Y335410D01*
X20588080Y282500D01*
X20584150Y229580D01*
X20568400Y192540D01*
X20548710Y160780D01*
X20525090Y139620D01*
X20493590Y123750D01*
X20414860D01*
G01X18847930Y758750D02*
Y1076250D01*
X18942420D01*
X18973910Y1060370D01*
X18997540Y1023330D01*
X19005410Y981000D01*
X18997540Y938670D01*
X18977850Y906910D01*
X18942420Y891030D01*
X18847930D01*
G01X19162890Y1076250D02*
Y758750D01*
X19320370D01*
G01X19458160D02*
X19556590Y1076250D01*
X19655020Y758750D01*
G01X19619580Y869870D02*
X19493590D01*
G01X19871550Y1076250D02*
Y758750D01*
G01X19781000Y1076250D02*
X19962100D01*
G01X20265250Y758750D02*
X20107770D01*
Y1076250D01*
X20265250D01*
G01X20202260Y922800D02*
X20107770D01*
G01X20414860Y758750D02*
Y1076250D01*
X20493590D01*
X20525090Y1060370D01*
X20548710Y1039210D01*
X20568400Y1007460D01*
X20584150Y970410D01*
X20588080Y917500D01*
X20584150Y864580D01*
X20568400Y827540D01*
X20548710Y795780D01*
X20525090Y774620D01*
X20493590Y758750D01*
X20414860D01*
G01X18847930Y1393750D02*
Y1711250D01*
X18942420D01*
X18973910Y1695370D01*
X18997540Y1658330D01*
X19005410Y1616000D01*
X18997540Y1573670D01*
X18977850Y1541910D01*
X18942420Y1526030D01*
X18847930D01*
G01X19162890Y1711250D02*
Y1393750D01*
X19320370D01*
G01X19458160D02*
X19556590Y1711250D01*
X19655020Y1393750D01*
G01X19619580Y1504870D02*
X19493590D01*
G01X19871550Y1711250D02*
Y1393750D01*
G01X19781000Y1711250D02*
X19962100D01*
G01X20265250Y1393750D02*
X20107770D01*
Y1711250D01*
X20265250D01*
G01X20202260Y1557800D02*
X20107770D01*
G01X20414860Y1393750D02*
Y1711250D01*
X20493590D01*
X20525090Y1695370D01*
X20548710Y1674210D01*
X20568400Y1642460D01*
X20584150Y1605410D01*
X20588080Y1552500D01*
X20584150Y1499580D01*
X20568400Y1462540D01*
X20548710Y1430780D01*
X20525090Y1409620D01*
X20493590Y1393750D01*
X20414860D01*
G01X18847930Y2028750D02*
Y2346250D01*
X18942420D01*
X18973910Y2330370D01*
X18997540Y2293330D01*
X19005410Y2251000D01*
X18997540Y2208670D01*
X18977850Y2176910D01*
X18942420Y2161030D01*
X18847930D01*
G01X19162890Y2346250D02*
Y2028750D01*
X19320370D01*
G01X19458160D02*
X19556590Y2346250D01*
X19655020Y2028750D01*
G01X19619580Y2139870D02*
X19493590D01*
G01X19871550Y2346250D02*
Y2028750D01*
G01X19781000Y2346250D02*
X19962100D01*
G01X20265250Y2028750D02*
X20107770D01*
Y2346250D01*
X20265250D01*
G01X20202260Y2192800D02*
X20107770D01*
G01X20414860Y2028750D02*
Y2346250D01*
X20493590D01*
X20525090Y2330370D01*
X20548710Y2309210D01*
X20568400Y2277460D01*
X20584150Y2240410D01*
X20588080Y2187500D01*
X20584150Y2134580D01*
X20568400Y2097540D01*
X20548710Y2065780D01*
X20525090Y2044620D01*
X20493590Y2028750D01*
X20414860D01*
G01X18847930Y2663750D02*
Y2981250D01*
X18942420D01*
X18973910Y2965370D01*
X18997540Y2928330D01*
X19005410Y2886000D01*
X18997540Y2843670D01*
X18977850Y2811910D01*
X18942420Y2796030D01*
X18847930D01*
G01X19162890Y2981250D02*
Y2663750D01*
X19320370D01*
G01X19458160D02*
X19556590Y2981250D01*
X19655020Y2663750D01*
G01X19619580Y2774870D02*
X19493590D01*
G01X19871550Y2981250D02*
Y2663750D01*
G01X19781000Y2981250D02*
X19962100D01*
G01X20265250Y2663750D02*
X20107770D01*
Y2981250D01*
X20265250D01*
G01X20202260Y2827800D02*
X20107770D01*
G01X20414860Y2663750D02*
Y2981250D01*
X20493590D01*
X20525090Y2965370D01*
X20548710Y2944210D01*
X20568400Y2912460D01*
X20584150Y2875410D01*
X20588080Y2822500D01*
X20584150Y2769580D01*
X20568400Y2732540D01*
X20548710Y2700780D01*
X20525090Y2679620D01*
X20493590Y2663750D01*
X20414860D01*
G01X18847930Y3298750D02*
Y3616250D01*
X18942420D01*
X18973910Y3600370D01*
X18997540Y3563330D01*
X19005410Y3521000D01*
X18997540Y3478670D01*
X18977850Y3446910D01*
X18942420Y3431030D01*
X18847930D01*
G01X19162890Y3616250D02*
Y3298750D01*
X19320370D01*
G01X19458160D02*
X19556590Y3616250D01*
X19655020Y3298750D01*
G01X19619580Y3409870D02*
X19493590D01*
G01X19871550Y3616250D02*
Y3298750D01*
G01X19781000Y3616250D02*
X19962100D01*
G01X20265250Y3298750D02*
X20107770D01*
Y3616250D01*
X20265250D01*
G01X20202260Y3462800D02*
X20107770D01*
G01X20414860Y3298750D02*
Y3616250D01*
X20493590D01*
X20525090Y3600370D01*
X20548710Y3579210D01*
X20568400Y3547460D01*
X20584150Y3510410D01*
X20588080Y3457500D01*
X20584150Y3404580D01*
X20568400Y3367540D01*
X20548710Y3335780D01*
X20525090Y3314620D01*
X20493590Y3298750D01*
X20414860D01*
G01X18847930Y3933750D02*
Y4251250D01*
X18942420D01*
X18973910Y4235370D01*
X18997540Y4198330D01*
X19005410Y4156000D01*
X18997540Y4113670D01*
X18977850Y4081910D01*
X18942420Y4066030D01*
X18847930D01*
G01X19162890Y4251250D02*
Y3933750D01*
X19320370D01*
G01X19458160D02*
X19556590Y4251250D01*
X19655020Y3933750D01*
G01X19619580Y4044870D02*
X19493590D01*
G01X19871550Y4251250D02*
Y3933750D01*
G01X19781000Y4251250D02*
X19962100D01*
G01X20265250Y3933750D02*
X20107770D01*
Y4251250D01*
X20265250D01*
G01X20202260Y4097800D02*
X20107770D01*
G01X20414860Y3933750D02*
Y4251250D01*
X20493590D01*
X20525090Y4235370D01*
X20548710Y4214210D01*
X20568400Y4182460D01*
X20584150Y4145410D01*
X20588080Y4092500D01*
X20584150Y4039580D01*
X20568400Y4002540D01*
X20548710Y3970780D01*
X20525090Y3949620D01*
X20493590Y3933750D01*
X20414860D01*
G01X18847930Y4568750D02*
Y4886250D01*
X18942420D01*
X18973910Y4870370D01*
X18997540Y4833330D01*
X19005410Y4791000D01*
X18997540Y4748670D01*
X18977850Y4716910D01*
X18942420Y4701030D01*
X18847930D01*
G01X19162890Y4886250D02*
Y4568750D01*
X19320370D01*
G01X19458160D02*
X19556590Y4886250D01*
X19655020Y4568750D01*
G01X19619580Y4679870D02*
X19493590D01*
G01X19871550Y4886250D02*
Y4568750D01*
G01X19781000Y4886250D02*
X19962100D01*
G01X20265250Y4568750D02*
X20107770D01*
Y4886250D01*
X20265250D01*
G01X20202260Y4732800D02*
X20107770D01*
G01X20414860Y4568750D02*
Y4886250D01*
X20493590D01*
X20525090Y4870370D01*
X20548710Y4849210D01*
X20568400Y4817460D01*
X20584150Y4780410D01*
X20588080Y4727500D01*
X20584150Y4674580D01*
X20568400Y4637540D01*
X20548710Y4605780D01*
X20525090Y4584620D01*
X20493590Y4568750D01*
X20414860D01*
G01X21922720Y-246670D02*
X21946350Y-214920D01*
X21973910Y-199040D01*
X22005410Y-193750D01*
X22044770Y-204330D01*
X22072340Y-230790D01*
X22080210Y-262540D01*
X22076270Y-294300D01*
X22060520Y-320750D01*
X21981780Y-373670D01*
X21946350Y-410710D01*
X21922720Y-463640D01*
X21914850Y-511250D01*
X22080210D01*
G01X22304610D02*
X22312490Y-442460D01*
X22324300Y-384260D01*
X22340050Y-331330D01*
X22359730Y-273130D01*
X22391230Y-193750D01*
X22233750D01*
G01X22540840Y-463640D02*
X22564450Y-490090D01*
X22592010Y-505960D01*
X22627450Y-511250D01*
X22662890Y-500670D01*
X22690440Y-479510D01*
X22710130Y-442460D01*
X22714060Y-400130D01*
X22706190Y-357800D01*
X22686500Y-331330D01*
X22658940Y-310170D01*
X22631390Y-304880D01*
X22603830Y-310170D01*
X22568400Y-331330D01*
X22580210Y-193750D01*
X22686500D01*
G01X21997530Y2663750D02*
Y2981250D01*
X21950290Y2917750D01*
G01Y2663750D02*
X22044770D01*
G01X22312490Y2981250D02*
X22280990Y2970670D01*
X22257370Y2944210D01*
X22241620Y2912460D01*
X22229810Y2870120D01*
X22225880Y2822500D01*
X22229810Y2774870D01*
X22241620Y2732540D01*
X22257370Y2700780D01*
X22280990Y2674330D01*
X22312490Y2663750D01*
X22343980Y2674330D01*
X22367610Y2700780D01*
X22383360Y2732540D01*
X22395170Y2774870D01*
X22399100Y2822500D01*
X22395170Y2870120D01*
X22383360Y2912460D01*
X22367610Y2944210D01*
X22343980Y2970670D01*
X22312490Y2981250D01*
G01X22627450Y2663750D02*
X22655010Y2669040D01*
X22686500Y2684910D01*
X22706190Y2711360D01*
X22714060Y2748420D01*
X22706190Y2785450D01*
X22682570Y2817200D01*
X22647130Y2833090D01*
X22607770D01*
X22584140Y2843670D01*
X22564450Y2870120D01*
X22556580Y2907160D01*
X22568400Y2944210D01*
X22595950Y2970670D01*
X22627450Y2981250D01*
X22658940Y2970670D01*
X22686500Y2944210D01*
X22698320Y2907160D01*
X22690440Y2870120D01*
X22670760Y2843670D01*
X22647130Y2833090D01*
X22607770D01*
X22572330Y2817200D01*
X22548710Y2785450D01*
X22540840Y2748420D01*
X22548710Y2711360D01*
X22568400Y2684910D01*
X22599890Y2669040D01*
X22627450Y2663750D01*
G01X21997530Y3933750D02*
Y4251250D01*
X21950290Y4187750D01*
G01Y3933750D02*
X22044770D01*
G01X22225880Y3981360D02*
X22249490Y3954910D01*
X22277050Y3939040D01*
X22312490Y3933750D01*
X22347930Y3944330D01*
X22375480Y3965490D01*
X22395170Y4002540D01*
X22399100Y4044870D01*
X22391230Y4087200D01*
X22371540Y4113670D01*
X22343980Y4134830D01*
X22316430Y4140120D01*
X22288870Y4134830D01*
X22253440Y4113670D01*
X22265250Y4251250D01*
X22371540D01*
G01X22627450D02*
X22595950Y4240670D01*
X22572330Y4214210D01*
X22556580Y4182460D01*
X22544770Y4140120D01*
X22540840Y4092500D01*
X22544770Y4044870D01*
X22556580Y4002540D01*
X22572330Y3970780D01*
X22595950Y3944330D01*
X22627450Y3933750D01*
X22658940Y3944330D01*
X22682570Y3970780D01*
X22698320Y4002540D01*
X22710130Y4044870D01*
X22714060Y4092500D01*
X22710130Y4140120D01*
X22698320Y4182460D01*
X22682570Y4214210D01*
X22658940Y4240670D01*
X22627450Y4251250D01*
G01X21997530Y4568750D02*
X21966030Y4574040D01*
X21938480Y4595200D01*
X21914850Y4626960D01*
X21899100Y4664000D01*
X21891230Y4706330D01*
Y4748670D01*
X21899100Y4791000D01*
X21914850Y4828040D01*
X21938480Y4859790D01*
X21966030Y4880960D01*
X21997530Y4886250D01*
X22029020Y4880960D01*
X22056580Y4859790D01*
X22080210Y4828040D01*
X22095960Y4791000D01*
X22103830Y4748670D01*
Y4706330D01*
X22095960Y4664000D01*
X22080210Y4626960D01*
X22056580Y4595200D01*
X22029020Y4574040D01*
X21997530Y4568750D01*
G01X22029020Y4653420D02*
X22076270Y4568750D01*
G01X22312490Y4886250D02*
Y4568750D01*
G01X22221940Y4886250D02*
X22403040D01*
G01X22627450Y4568750D02*
Y4711620D01*
X22548710Y4886250D01*
G01X22706190D02*
X22627450Y4711620D01*
G01X22312490Y123750D02*
Y441250D01*
X22265250Y377750D01*
G01Y123750D02*
X22359730D01*
G01X22237680Y1023330D02*
X22261310Y1055080D01*
X22288870Y1070960D01*
X22320370Y1076250D01*
X22359730Y1065670D01*
X22387300Y1039210D01*
X22395170Y1007460D01*
X22391230Y975700D01*
X22375480Y949250D01*
X22296740Y896330D01*
X22261310Y859290D01*
X22237680Y806360D01*
X22229810Y758750D01*
X22395170D01*
G01X22312490Y1393750D02*
X22340050Y1399040D01*
X22371540Y1414910D01*
X22391230Y1441360D01*
X22399100Y1478420D01*
X22391230Y1515450D01*
X22367610Y1547200D01*
X22332170Y1563090D01*
X22292810D01*
X22269180Y1573670D01*
X22249490Y1600120D01*
X22241620Y1637160D01*
X22253440Y1674210D01*
X22280990Y1700670D01*
X22312490Y1711250D01*
X22343980Y1700670D01*
X22371540Y1674210D01*
X22383360Y1637160D01*
X22375480Y1600120D01*
X22355800Y1573670D01*
X22332170Y1563090D01*
X22292810D01*
X22257370Y1547200D01*
X22233750Y1515450D01*
X22225880Y1478420D01*
X22233750Y1441360D01*
X22253440Y1414910D01*
X22284930Y1399040D01*
X22312490Y1393750D01*
G01X22237680Y2293330D02*
X22261310Y2325080D01*
X22288870Y2340960D01*
X22320370Y2346250D01*
X22359730Y2335670D01*
X22387300Y2309210D01*
X22395170Y2277460D01*
X22391230Y2245700D01*
X22375480Y2219250D01*
X22296740Y2166330D01*
X22261310Y2129290D01*
X22237680Y2076360D01*
X22229810Y2028750D01*
X22395170D01*
G01X22359730Y3298750D02*
Y3616250D01*
X22214060Y3388710D01*
X22410920D01*
G01X-250000Y0D02*
X-740000D01*
G01X-490000Y2234260D02*
Y0D01*
G01X-552500Y400000D02*
X-490000Y0D01*
X-427500Y400000D01*
X-552500D01*
G01X-490000Y2725740D02*
Y5200000D01*
G01X-427500Y4800000D02*
X-490000Y5200000D01*
X-552500Y4800000D01*
X-427500D01*
G01X-90000Y5200000D02*
X-740000D01*
G01X0Y-250000D02*
Y-720000D01*
G01X2802640Y-470000D02*
X0D01*
G01X400000Y-407500D02*
X0Y-470000D01*
X400000Y-532500D01*
Y-407500D01*
G01X3817360Y-470000D02*
X6960000D01*
G01X6560000Y-532500D02*
X6960000Y-470000D01*
X6560000Y-407500D01*
Y-532500D01*
G01X6960000Y-100000D02*
Y-720000D01*
G01X7470000Y-35000D02*
Y6330000D01*
X23296740D01*
Y-35000D01*
X7470000D01*
G01Y600000D02*
X23296740D01*
G01X7470000Y1235000D02*
X23296740D01*
G01X7470000Y1870000D02*
X23296740D01*
G01X7470000Y2505000D02*
X23296740D01*
G01X7470000Y3140000D02*
X23296740D01*
G01X7470000Y3775000D02*
X23296740D01*
G01X7470000Y4410000D02*
X23296740D01*
G01X7470000Y5045000D02*
X23296740D01*
G01X7470000Y5680000D02*
X23296740D01*
G01X9753460Y5045000D02*
Y-35000D01*
G01X14871560Y5045000D02*
Y-35000D01*
G01X18099900Y5045000D02*
Y-35000D01*
G01X21328240Y5045000D02*
Y-35000D01*
M02*
