M48
METRIC,TZ
T01C.3048
T02C.8
T03C1.1
T04C1.5
T05C1.8
;LEADER: 12 
;HEADER: 
;CODE  : ASCII 
;FILE  : MCF8316A_V10_211228-1-2.drl for board G:/github/MotorDriver/HARDWARE/MCF8316A_V10_211228/PCB/#Taaaaba06228.tmp ... layers TOP and BOTTOM
;T01 Holesize 1. = 0.304800 Tolerance = +0.000000/-0.000000 PLATED MM Quantity = 150
;T02 Holesize 2. = 0.800000 Tolerance = +0.000000/-0.000000 PLATED MM Quantity = 4
;T03 Holesize 3. = 1.100000 Tolerance = +0.000000/-0.000000 PLATED MM Quantity = 108
;T04 Holesize 4. = 1.500000 Tolerance = +0.000000/-0.000000 PLATED MM Quantity = 2
;T05 Holesize 5. = 1.800000 Tolerance = +0.000000/-0.000000 PLATED MM Quantity = 8
%
G90
T01
X118570Y332770
X118570Y732770
X118570Y1132770
X118570Y1532770
X118570Y3102770
X118570Y3502770
X118570Y3902770
X118570Y4302770
X1049330Y4515390
X1459330Y4295390
X1049330Y4115390
X1449330Y3805390
X1449330Y3405390
X1459330Y2935390
X1469330Y2495390
X1469330Y2095390
X860000Y1879040
X800000Y1280000
X1419330Y1255390
X800000Y1030000
X1419330Y855390
X865000Y775000
X865000Y525000
X1427230Y388570
X1827230Y388570
X2227230Y388570
X1859330Y2935390
X2259330Y2935390
X1849330Y3405390
X2249330Y3405390
X1849330Y3805390
X2249330Y3805390
X1859330Y4295390
X2259330Y4295390
X1652770Y4691430
X2052770Y4691430
X2452770Y4691430
X2659330Y4295390
X2890000Y4080000
X2790000Y4080000
X2890000Y3980000
X2790000Y3980000
X2649330Y3805390
X2649330Y3405390
X2659330Y2935390
X2898570Y1592770
X2898570Y1192770
X2898570Y792770
X2627230Y388570
X3387230Y358570
X3787230Y358570
X3387230Y758570
X3787230Y758570
X3240000Y1540000
X3360000Y1540000
X3600000Y1540000
X3240000Y1840000
X3360000Y1840000
X3600000Y1840000
X3240000Y2120000
X3360000Y2230000
X3600000Y2230000
X3800000Y3040000
X3800000Y3140000
X3800000Y3240000
X3800000Y3340000
X3800000Y3440000
X3760000Y4060000
X3610000Y4180000
X3140000Y4290000
X3390000Y4290000
X3262770Y4691430
X3662770Y4691430
X4062770Y4691430
X4140000Y4420000
X3990000Y4250000
X3860000Y4140000
X3940000Y3820000
X3830000Y3750000
X4350000Y3620000
X4350000Y3480000
X4080000Y3440000
X3940000Y3440000
X4080000Y3340000
X3940000Y3340000
X4080000Y3240000
X3940000Y3240000
X4330000Y3170000
X4080000Y3140000
X3940000Y3140000
X4330000Y3060000
X4080000Y3040000
X3940000Y3040000
X4490000Y2620000
X4390000Y2620000
X4290000Y2620000
X4190000Y2620000
X4090000Y2620000
X4490000Y2546340
X4390000Y2546340
X4290000Y2546340
X4190000Y2546340
X4090000Y2546340
X4187230Y758570
X4187230Y358570
X4587230Y358570
X4987230Y358570
X4587230Y758570
X4987230Y758570
X4590000Y2546340
X4690000Y2546340
X4790000Y2546340
X4890000Y2546340
X4590000Y2620000
X4690000Y2620000
X4790000Y2620000
X4890000Y2620000
X5015000Y2810000
X5255000Y2810000
X4680000Y2960000
X4760000Y3270000
X4680000Y3340000
X5030000Y3400000
X5270000Y3400000
X4760000Y3410000
X4680000Y3620000
X5118570Y3902770
X5118570Y4302770
X5118570Y4702770
X5588570Y4702770
X5588570Y4302770
X5588570Y3902770
X5510000Y3400000
X5405000Y2810000
X5387230Y758570
X5387230Y358570
X6838570Y222770
X6838570Y622770
X6105000Y770000
X6838570Y1022770
X6838570Y1422770
X6105000Y2300000
X6838570Y2992770
X6105000Y3010000
X6838570Y3392770
X6105000Y3405000
X6838570Y3792770
X6838570Y4152770
X6838570Y4552770
X6838570Y4952770
T02
X1840000Y2480000
X1840000Y2780000
X2700000Y2780000
X2700000Y2480000
T03
X310000Y300680
X310000Y554680
X310000Y808680
X310000Y1062680
X310000Y1316680
X310000Y1570680
X310000Y1824680
X310000Y2078680
X310000Y2332680
X310000Y2586680
X310000Y2840680
X310000Y3094680
X310000Y3348680
X310000Y3602680
X310000Y3856680
X310000Y4110680
X310000Y4364680
X310000Y4618680
X310000Y4872680
X564000Y4872680
X564000Y4618680
X564000Y4364680
X564000Y4110680
X564000Y3856680
X564000Y3602680
X564000Y3348680
X564000Y3094680
X564000Y2840680
X564000Y2586680
X564000Y2332680
X564000Y2078680
X564000Y1824680
X564000Y1570680
X564000Y1316680
X564000Y1062680
X564000Y808680
X564000Y554680
X564000Y300680
X1072000Y300680
X1072000Y554680
X1072000Y808680
X1072000Y1062680
X1072000Y1316680
X1072000Y1570680
X1072000Y2078680
X1072000Y2332680
X1072000Y2586680
X1072000Y2840680
X1072000Y3094680
X1072000Y3348680
X1072000Y3602680
X1072000Y3856680
X5898000Y4771080
X5898000Y4517080
X5898000Y4263080
X5898000Y4009080
X5898000Y3755080
X5898000Y3501080
X5898000Y3247080
X5898000Y2993080
X5898000Y2739080
X5898000Y2485080
X5898000Y2078680
X5898000Y1824680
X5898000Y1570680
X5898000Y1316680
X5898000Y1062680
X5898000Y808680
X5898000Y554680
X5898000Y300680
X6406000Y300680
X6406000Y554680
X6406000Y808680
X6406000Y1062680
X6406000Y1316680
X6406000Y1570680
X6406000Y1824680
X6406000Y2078680
X6406000Y2332680
X6406000Y2586680
X6406000Y2840680
X6406000Y3094680
X6406000Y3348680
X6406000Y3602680
X6406000Y3856680
X6406000Y4110680
X6406000Y4364680
X6406000Y4618680
X6406000Y4872680
X6660000Y4872680
X6660000Y4618680
X6660000Y4364680
X6660000Y4110680
X6660000Y3856680
X6660000Y3602680
X6660000Y3348680
X6660000Y3094680
X6660000Y2840680
X6660000Y2586680
X6660000Y2332680
X6660000Y2078680
X6660000Y1824680
X6660000Y1570680
X6660000Y1316680
X6660000Y1062680
X6660000Y808680
X6660000Y554680
X6660000Y300680
T04
X2679000Y920000
X3441000Y920000
T05
X4140000Y1360000
X4560000Y1360000
X4980000Y1360000
X5400000Y1360000
X5400000Y1910000
X4980000Y1910000
X4560000Y1910000
X4140000Y1910000
M30
