G04 ================== begin FILE IDENTIFICATION RECORD ==================*
G04 Layout Name:  MCF8316A_V10_211228.brd*
G04 Film Name:    SilkScreen_Top*
G04 File Format:  Gerber RS274X*
G04 File Origin:  Cadence Allegro 17.2-S071*
G04 Origin Date:  Thu Mar 10 20:12:21 2022*
G04 *
G04 Layer:  REF DES/SILKSCREEN_TOP*
G04 Layer:  PACKAGE GEOMETRY/SILKSCREEN_TOP*
G04 Layer:  BOARD GEOMETRY/SILKSCREEN_TOP*
G04 *
G04 Offset:    (0.0000 0.0000)*
G04 Mirror:    No*
G04 Mode:      Positive*
G04 Rotation:  0*
G04 FullContactRelief:  No*
G04 UndefLineWidth:     0.1524*
G04 ================== end FILE IDENTIFICATION RECORD ====================*
%FSLAX55Y55*MOMM*%
%IR0*IPPOS*OFA0.00000B0.00000*MIA0B0*SFA1.00000B1.00000*%
%ADD10C,.2*%
%ADD11C,.1524*%
%ADD12C,1.6*%
G75*
%LPD*%
G75*
G36*
G01X180000Y4872680D02*
X130000Y4922680D01*
Y4822680D01*
X180000Y4872680D01*
G37*
G36*
G01X942000Y1570680D02*
X892000Y1620680D01*
Y1520680D01*
X942000Y1570680D01*
G37*
G36*
G01Y3856680D02*
X892000Y3906680D01*
Y3806680D01*
X942000Y3856680D01*
G37*
G36*
G01X1430000Y2630000D02*
G02X2250000I410000J0D01*
G01X1430000D01*
G37*
G36*
G01X1810000Y4860000D02*
Y4770000D01*
X2000000D01*
Y4860000D01*
X1810000D01*
G37*
G36*
G01Y4700000D02*
Y4610000D01*
X2000000D01*
Y4700000D01*
X1810000D01*
G37*
G36*
G01Y5020000D02*
Y4930000D01*
X2000000D01*
Y5020000D01*
X1810000D01*
G37*
G36*
G01X2290000Y2630000D02*
G02X3110000I410000J0D01*
G01X2290000D01*
G37*
G36*
G01X3070000Y1450000D02*
X3120000Y1400000D01*
X3170000Y1450000D01*
X3070000D01*
G37*
G36*
G01Y1740000D02*
X3120000Y1690000D01*
X3170000Y1740000D01*
X3070000D01*
G37*
G36*
G01Y2030000D02*
X3120000Y1980000D01*
X3170000Y2030000D01*
X3070000D01*
G37*
G36*
G01X3640000Y3515000D02*
G03I-30000J0D01*
G37*
G36*
G01X5100000Y3260000D02*
X5150000Y3210000D01*
X5200000Y3260000D01*
X5100000D01*
G37*
G36*
G01X4980000D02*
X5030000Y3210000D01*
X5080000Y3260000D01*
X4980000D01*
G37*
G36*
G01X4860000D02*
X4910000Y3210000D01*
X4960000Y3260000D01*
X4860000D01*
G37*
G36*
G01X5648700Y1360600D02*
G03I-50800J0D01*
G37*
G36*
G01X5220000Y3260000D02*
X5270000Y3210000D01*
X5320000Y3260000D01*
X5220000D01*
G37*
G36*
G01X5460000D02*
X5510000Y3210000D01*
X5560000Y3260000D01*
X5460000D01*
G37*
G36*
G01X5340000D02*
X5390000Y3210000D01*
X5440000Y3260000D01*
X5340000D01*
G37*
G36*
G01X6028000Y300680D02*
X6078000Y250680D01*
Y350680D01*
X6028000Y300680D01*
G37*
G36*
G01Y2485080D02*
X6078000Y2435080D01*
Y2535080D01*
X6028000Y2485080D01*
G37*
G36*
G01X6276000Y4872680D02*
X6226000Y4922680D01*
Y4822680D01*
X6276000Y4872680D01*
G37*
%LPC*%
G75*
G54D12*
X1840000Y2780000D03*
X2700000D03*
%LPD*%
G75*
G54D10*
G01X180000Y5002680D02*
Y172680D01*
X690000D01*
Y5002680D01*
X180000D01*
G01X910000Y110000D02*
X730000D01*
Y210000D01*
X910000D01*
Y110000D01*
G01Y380000D02*
X730000D01*
Y480000D01*
X910000D01*
Y380000D01*
G01Y890000D02*
X730000D01*
Y990000D01*
X910000D01*
Y890000D01*
G01Y630000D02*
X730000D01*
Y730000D01*
X910000D01*
Y630000D01*
G01Y1400000D02*
X730000D01*
Y1500000D01*
X910000D01*
Y1400000D01*
G01Y1140000D02*
X730000D01*
Y1240000D01*
X910000D01*
Y1140000D01*
G01Y1650000D02*
X730000D01*
Y1750000D01*
X910000D01*
Y1650000D01*
G01Y2920000D02*
X730000D01*
Y3020000D01*
X910000D01*
Y2920000D01*
G01Y4570000D02*
X730000D01*
Y4670000D01*
X910000D01*
Y4570000D01*
G01Y4822680D02*
X730000D01*
Y4922680D01*
X910000D01*
Y4822680D01*
G01Y4700000D02*
X730000D01*
Y4800000D01*
X910000D01*
Y4700000D01*
G01Y4950000D02*
X730000D01*
Y5050000D01*
X910000D01*
Y4950000D01*
G01X2180000Y860000D02*
Y-30000D01*
X1280000D01*
Y1370000D01*
X1470000D01*
G01X1202000Y1703680D02*
X942000D01*
Y160680D01*
X1202000D01*
Y1703680D01*
G01X1290000Y1510000D02*
G03Y1410000I50000J-50000D01*
G01X1450000D02*
X1290000D01*
G01Y1510000D02*
X1450000D01*
G01X1460000Y1530000D02*
X1280000D01*
Y1630000D01*
X1460000D01*
Y1530000D01*
G01X1202000Y3989680D02*
X942000D01*
Y1936680D01*
X1202000D01*
Y3989680D01*
G01X1280000Y1750000D02*
X1460000D01*
Y1650000D01*
X1280000D01*
Y1750000D01*
G01X960000Y5070000D02*
X2050000D01*
Y4560000D01*
X960000D01*
Y5070000D01*
G01X1930000Y1370000D02*
X2180000D01*
Y1320000D01*
G01X1450000Y1410000D02*
G03Y1510000I-50000J50000D01*
G01X1700000Y1720000D02*
X2180000D01*
Y1500000D01*
X1700000D01*
Y1720000D01*
G01X1880000Y2140000D02*
X1800000D01*
G01X1840000Y2100000D02*
Y2180000D01*
G01X1600000Y2040000D02*
X2180000D01*
Y1760000D01*
X1600000D01*
Y2040000D01*
G01X1430000Y2630000D02*
X2250000D01*
G01D02*
G03I-410000J0D01*
G01X1880000Y2300000D02*
X1800000D01*
G01X1840000Y2260000D02*
Y2340000D01*
G01X2341000Y-30000D02*
Y1130000D01*
G01X3831000Y-30000D02*
X2291000D01*
Y1130000D01*
X3831000D01*
Y-30000D01*
G01X2641000Y130000D02*
Y380000D01*
X2391000D01*
G01Y460000D02*
X2641000D01*
Y710000D01*
G01X2979000Y420000D02*
G03I-300000J0D01*
G01X2180000Y2040000D02*
X2210000D01*
Y1760000D01*
X2180000D01*
G01X2290000Y2630000D02*
X3110000D01*
G01D02*
G03I-410000J0D01*
G01X3036000Y-30000D02*
Y1130000D01*
G01X2971000Y380000D02*
X2721000D01*
Y130000D01*
G01Y710000D02*
Y460000D01*
X2971000D01*
G01X2620000Y1220000D02*
X2740000D01*
G01X2680000Y1280000D02*
Y1160000D01*
G01X2740000Y2140000D02*
X2660000D01*
G01X2700000Y2100000D02*
Y2180000D01*
G01X2740000Y2300000D02*
X2660000D01*
G01X2700000Y2260000D02*
Y2340000D01*
G01X3390000Y3950000D02*
Y3370000D01*
X2870000D01*
Y3950000D01*
X3390000D01*
G01X3050000Y3670000D02*
G02X2970000I-40000J0D01*
G01X3090000Y4340000D02*
G03X2930000I-80000J-147500D01*
G01Y4000000D02*
G03X3090000I80000J147500D01*
G01X2930000D02*
Y4340000D01*
G01X3086000Y-30000D02*
Y1130000D01*
G01X3481000Y710000D02*
Y460000D01*
X3731000D01*
G01X3151000D02*
X3401000D01*
Y710000D01*
G01Y130000D02*
Y380000D01*
X3151000D01*
G01X3731000D02*
X3481000D01*
Y130000D01*
G01X3741000Y420000D02*
G03I-300000J0D01*
G01X3380000Y1220000D02*
X3500000D01*
G01X3410000Y1480000D02*
G03X3310000I-50000J-50000D01*
G01Y1320000D02*
G03X3410000I50000J50000D01*
G01Y1480000D02*
Y1320000D01*
G01X3310000D02*
Y1480000D01*
G01Y1620000D02*
G03X3410000I50000J50000D01*
G01Y1780000D02*
Y1620000D01*
G01X3310000D02*
Y1780000D01*
G01X3070000Y1600000D02*
Y1570000D01*
X3170000D01*
Y1600000D01*
G01X3070000D02*
Y1840000D01*
X3170000D01*
Y1600000D01*
X3070000D01*
G01Y1310000D02*
Y1280000D01*
X3170000D01*
Y1310000D01*
G01X3070000D02*
Y1550000D01*
X3170000D01*
Y1310000D01*
X3070000D01*
G01X3730000Y1610000D02*
X3550000D01*
Y1710000D01*
X3730000D01*
Y1610000D01*
G01Y1310000D02*
X3550000D01*
Y1410000D01*
X3730000D01*
Y1310000D01*
G01X3530000Y1790000D02*
Y1610000D01*
X3430000D01*
Y1790000D01*
X3530000D01*
G01Y1490000D02*
Y1310000D01*
X3430000D01*
Y1490000D01*
X3530000D01*
G01X3190000Y1610000D02*
Y1790000D01*
X3290000D01*
Y1610000D01*
X3190000D01*
G01Y1310000D02*
Y1490000D01*
X3290000D01*
Y1310000D01*
X3190000D01*
G01X3410000Y1780000D02*
G03X3310000I-50000J-50000D01*
G01X3410000Y2060000D02*
G03X3310000I-50000J-50000D01*
G01Y1900000D02*
G03X3410000I50000J50000D01*
G01Y2060000D02*
Y1900000D01*
G01X3310000D02*
Y2060000D01*
G01X3070000Y1890000D02*
Y1860000D01*
X3170000D01*
Y1890000D01*
G01X3070000D02*
Y2130000D01*
X3170000D01*
Y1890000D01*
X3070000D01*
G01X3530000Y2070000D02*
Y1890000D01*
X3430000D01*
Y2070000D01*
X3530000D01*
G01X3730000Y1890000D02*
X3550000D01*
Y1990000D01*
X3730000D01*
Y1890000D01*
G01X3190000D02*
Y2070000D01*
X3290000D01*
Y1890000D01*
X3190000D01*
G01X3230000Y3340000D02*
G03Y3240000I50000J-50000D01*
G01X3390000D02*
G03Y3340000I-50000J50000D01*
G01Y3240000D02*
X3230000D01*
G01X3130000Y3190000D02*
G03Y3070000I77500J-60000D01*
G01X3390000D02*
G03Y3190000I-77500J60000D01*
G01X3130000Y3070000D02*
X3390000D01*
G01Y3190000D02*
X3130000D01*
G01X3230000Y3340000D02*
X3390000D01*
G01X3210000Y3670000D02*
G02X3130000I-40000J0D01*
G01D02*
G02X3050000I-40000J0D01*
G01X3290000D02*
G02X3210000I-40000J0D01*
G01X3090000Y4340000D02*
Y4000000D01*
G01X3340000Y4340000D02*
G03X3180000I-80000J-147500D01*
G01Y4000000D02*
G03X3340000I80000J147500D01*
G01Y4340000D02*
Y4000000D01*
G01X3180000D02*
Y4340000D01*
G01X3670000Y4110000D02*
G03X3550000I-60000J-77500D01*
G01Y3850000D02*
G03X3670000I60000J77500D01*
G01X3550000Y4110000D02*
Y3850000D01*
G01X3781000Y-30000D02*
Y1130000D01*
G01X3880000Y-30000D02*
X5680000D01*
Y1250000D01*
X5500000D01*
G01X3880000D02*
Y-30000D01*
G01X4050000Y1250000D02*
X3880000D01*
G01X3680000Y2930000D02*
Y2880000D01*
X3730000D01*
G01Y3600000D02*
X3680000D01*
Y3550000D01*
G01X3670000Y3850000D02*
Y4110000D01*
G01X3810000Y4020000D02*
Y3840000D01*
X3710000D01*
Y4020000D01*
X3810000D01*
G01X3970000Y3840000D02*
Y4020000D01*
X4070000D01*
Y3840000D01*
X3970000D01*
G01X4110000D02*
Y4020000D01*
X4210000D01*
Y3840000D01*
X4110000D01*
G01X4620000Y310000D02*
Y-30000D01*
G01X4920000Y210000D02*
X4620000D01*
G01X4920000Y310000D02*
X4620000D01*
G01X4150000Y2880000D02*
X4200000D01*
Y2930000D01*
G01X4460000Y3250000D02*
G03Y3130000I77500J-60000D01*
G01D02*
X4720000D01*
G01Y3250000D02*
X4460000D01*
G01X4640000Y2910000D02*
X4460000D01*
Y3010000D01*
X4640000D01*
Y2910000D01*
G01X4200000Y3550000D02*
Y3600000D01*
X4150000D01*
G01X4640000Y3290000D02*
X4460000D01*
Y3390000D01*
X4640000D01*
Y3290000D01*
G01Y3430000D02*
X4460000D01*
Y3530000D01*
X4640000D01*
Y3430000D01*
G01Y3570000D02*
X4460000D01*
Y3670000D01*
X4640000D01*
Y3570000D01*
G01X4393500Y3930000D02*
G03I-63500J0D01*
G01X4603500D02*
G03I-63500J0D01*
G01X4920000Y-30000D02*
Y310000D01*
G01X5100000Y3120000D02*
Y3090000D01*
X5200000D01*
Y3120000D01*
G01X5100000D02*
Y3360000D01*
X5200000D01*
Y3120000D01*
X5100000D01*
G01X5220000D02*
Y3090000D01*
X5320000D01*
Y3120000D01*
G01X5220000D02*
Y3360000D01*
X5320000D01*
Y3120000D01*
X5220000D01*
G01X4980000D02*
Y3090000D01*
X5080000D01*
Y3120000D01*
G01X4980000D02*
Y3360000D01*
X5080000D01*
Y3120000D01*
X4980000D01*
G01X4860000D02*
Y3090000D01*
X4960000D01*
Y3120000D01*
G01X4860000D02*
Y3360000D01*
X4960000D01*
Y3120000D01*
X4860000D01*
G01X4720000Y3130000D02*
G03Y3250000I-77500J60000D01*
G01X5300000Y2970000D02*
X5120000D01*
Y3070000D01*
X5300000D01*
Y2970000D01*
G01X5060000D02*
X4880000D01*
Y3070000D01*
X5060000D01*
Y2970000D01*
G01X5120000Y2950000D02*
X5300000D01*
Y2850000D01*
X5120000D01*
Y2950000D01*
G01X4880000D02*
X5060000D01*
Y2850000D01*
X4880000D01*
Y2950000D01*
G01X5460000Y3120000D02*
Y3090000D01*
X5560000D01*
Y3120000D01*
G01X5460000D02*
Y3360000D01*
X5560000D01*
Y3120000D01*
X5460000D01*
G01X5340000D02*
Y3090000D01*
X5440000D01*
Y3120000D01*
G01X5340000D02*
Y3360000D01*
X5440000D01*
Y3120000D01*
X5340000D01*
G01X5540000Y2970000D02*
X5360000D01*
Y3070000D01*
X5540000D01*
Y2970000D01*
G01X5360000Y2950000D02*
X5540000D01*
Y2850000D01*
X5360000D01*
Y2950000D01*
G01X6276000Y5002680D02*
Y172680D01*
X6786000D01*
Y5002680D01*
X6276000D01*
G01X5768000Y167680D02*
X6028000D01*
Y2220680D01*
X5768000D01*
Y167680D01*
G01X6060000Y730000D02*
X6240000D01*
Y630000D01*
X6060000D01*
Y730000D01*
G01Y1240000D02*
X6240000D01*
Y1140000D01*
X6060000D01*
Y1240000D01*
G01Y1750000D02*
X6240000D01*
Y1650000D01*
X6060000D01*
Y1750000D01*
G01Y2260000D02*
X6240000D01*
Y2160000D01*
X6060000D01*
Y2260000D01*
G01X5768000Y2352080D02*
X6028000D01*
Y4905080D01*
X5768000D01*
Y2352080D01*
G01X6060000Y3150000D02*
X6240000D01*
Y3050000D01*
X6060000D01*
Y3150000D01*
G01Y3540000D02*
X6240000D01*
Y3440000D01*
X6060000D01*
Y3540000D01*
G01Y3660000D02*
X6240000D01*
Y3560000D01*
X6060000D01*
Y3660000D01*
G01Y4922680D02*
X6240000D01*
Y4822680D01*
X6060000D01*
Y4922680D01*
G54D11*
G01X175000Y5048000D02*
X180000Y5039000D01*
X186000Y5033000D01*
X193000Y5030000D01*
X201000Y5033000D01*
X207000Y5039000D01*
X213000Y5048000D01*
X215000Y5060000D01*
Y5120000D01*
G01X243000Y5048000D02*
X249000Y5037500D01*
X257000Y5031500D01*
X266000Y5030000D01*
X274000Y5031500D01*
X282000Y5039000D01*
X287000Y5048000D01*
X288000Y5057000D01*
X286000Y5067500D01*
X279000Y5075000D01*
X272000Y5078000D01*
X263000D01*
G01X272000D02*
X278000Y5082500D01*
X283000Y5090000D01*
X285000Y5099000D01*
X283000Y5108000D01*
X278000Y5115500D01*
X269000Y5120000D01*
X260000Y5118500D01*
X251000Y5112500D01*
G01X730000Y235000D02*
Y325000D01*
X755000D01*
X763000Y320500D01*
X768000Y314500D01*
X770000Y302500D01*
X768000Y290500D01*
X762000Y283000D01*
X755000Y278500D01*
X730000D01*
G01X755000D02*
X770000Y235000D01*
G01X832000D02*
Y325000D01*
X795000Y260500D01*
X845000D01*
G01X902000Y235000D02*
Y325000D01*
X865000Y260500D01*
X915000D01*
G01X730000Y505000D02*
Y595000D01*
X755000D01*
X763000Y590500D01*
X768000Y584500D01*
X770000Y572500D01*
X768000Y560500D01*
X762000Y553000D01*
X755000Y548500D01*
X730000D01*
G01X755000D02*
X770000Y505000D01*
G01X832000D02*
Y595000D01*
X795000Y530500D01*
X845000D01*
G01X868000Y523000D02*
X874000Y512500D01*
X882000Y506500D01*
X891000Y505000D01*
X899000Y506500D01*
X907000Y514000D01*
X912000Y523000D01*
X913000Y532000D01*
X911000Y542500D01*
X904000Y550000D01*
X897000Y553000D01*
X888000D01*
G01X897000D02*
X903000Y557500D01*
X908000Y565000D01*
X910000Y574000D01*
X908000Y583000D01*
X903000Y590500D01*
X894000Y595000D01*
X885000Y593500D01*
X876000Y587500D01*
G01X730000Y1015000D02*
Y1105000D01*
X755000D01*
X763000Y1100500D01*
X768000Y1094500D01*
X770000Y1082500D01*
X768000Y1070500D01*
X762000Y1063000D01*
X755000Y1058500D01*
X730000D01*
G01X755000D02*
X770000Y1015000D01*
G01X832000D02*
Y1105000D01*
X795000Y1040500D01*
X845000D01*
G01X890000Y1105000D02*
X882000Y1102000D01*
X876000Y1094500D01*
X872000Y1085500D01*
X869000Y1073500D01*
X868000Y1060000D01*
X869000Y1046500D01*
X872000Y1034500D01*
X876000Y1025500D01*
X882000Y1018000D01*
X890000Y1015000D01*
X898000Y1018000D01*
X904000Y1025500D01*
X908000Y1034500D01*
X911000Y1046500D01*
X912000Y1060000D01*
X911000Y1073500D01*
X908000Y1085500D01*
X904000Y1094500D01*
X898000Y1102000D01*
X890000Y1105000D01*
G01X730000Y755000D02*
Y845000D01*
X755000D01*
X763000Y840500D01*
X768000Y834500D01*
X770000Y822500D01*
X768000Y810500D01*
X762000Y803000D01*
X755000Y798500D01*
X730000D01*
G01X755000D02*
X770000Y755000D01*
G01X832000D02*
Y845000D01*
X795000Y780500D01*
X845000D01*
G01X890000Y755000D02*
Y845000D01*
X878000Y827000D01*
G01Y755000D02*
X902000D01*
G01X730000Y1525000D02*
Y1615000D01*
X755000D01*
X763000Y1610500D01*
X768000Y1604500D01*
X770000Y1592500D01*
X768000Y1580500D01*
X762000Y1573000D01*
X755000Y1568500D01*
X730000D01*
G01X755000D02*
X770000Y1525000D01*
G01X798000Y1543000D02*
X804000Y1532500D01*
X812000Y1526500D01*
X821000Y1525000D01*
X829000Y1526500D01*
X837000Y1534000D01*
X842000Y1543000D01*
X843000Y1552000D01*
X841000Y1562500D01*
X834000Y1570000D01*
X827000Y1573000D01*
X818000D01*
G01X827000D02*
X833000Y1577500D01*
X838000Y1585000D01*
X840000Y1594000D01*
X838000Y1603000D01*
X833000Y1610500D01*
X824000Y1615000D01*
X815000Y1613500D01*
X806000Y1607500D01*
G01X902000Y1525000D02*
Y1615000D01*
X865000Y1550500D01*
X915000D01*
G01X730000Y1265000D02*
Y1355000D01*
X755000D01*
X763000Y1350500D01*
X768000Y1344500D01*
X770000Y1332500D01*
X768000Y1320500D01*
X762000Y1313000D01*
X755000Y1308500D01*
X730000D01*
G01X755000D02*
X770000Y1265000D01*
G01X798000Y1283000D02*
X804000Y1272500D01*
X812000Y1266500D01*
X821000Y1265000D01*
X829000Y1266500D01*
X837000Y1274000D01*
X842000Y1283000D01*
X843000Y1292000D01*
X841000Y1302500D01*
X834000Y1310000D01*
X827000Y1313000D01*
X818000D01*
G01X827000D02*
X833000Y1317500D01*
X838000Y1325000D01*
X840000Y1334000D01*
X838000Y1343000D01*
X833000Y1350500D01*
X824000Y1355000D01*
X815000Y1353500D01*
X806000Y1347500D01*
G01X890000Y1265000D02*
X897000Y1266500D01*
X905000Y1271000D01*
X910000Y1278500D01*
X912000Y1289000D01*
X910000Y1299500D01*
X904000Y1308500D01*
X895000Y1313000D01*
X885000D01*
X879000Y1316000D01*
X874000Y1323500D01*
X872000Y1334000D01*
X875000Y1344500D01*
X882000Y1352000D01*
X890000Y1355000D01*
X898000Y1352000D01*
X905000Y1344500D01*
X908000Y1334000D01*
X906000Y1323500D01*
X901000Y1316000D01*
X895000Y1313000D01*
X885000D01*
X876000Y1308500D01*
X870000Y1299500D01*
X868000Y1289000D01*
X870000Y1278500D01*
X875000Y1271000D01*
X883000Y1266500D01*
X890000Y1265000D01*
G01X730000Y1775000D02*
Y1865000D01*
X755000D01*
X763000Y1860500D01*
X768000Y1854500D01*
X770000Y1842500D01*
X768000Y1830500D01*
X762000Y1823000D01*
X755000Y1818500D01*
X730000D01*
G01X755000D02*
X770000Y1775000D01*
G01X801000Y1850000D02*
X807000Y1859000D01*
X814000Y1863500D01*
X822000Y1865000D01*
X832000Y1862000D01*
X839000Y1854500D01*
X841000Y1845500D01*
X840000Y1836500D01*
X836000Y1829000D01*
X816000Y1814000D01*
X807000Y1803500D01*
X801000Y1788500D01*
X799000Y1775000D01*
X841000D01*
G01X888000D02*
X890000Y1794500D01*
X893000Y1811000D01*
X897000Y1826000D01*
X902000Y1842500D01*
X910000Y1865000D01*
X870000D01*
G01X730000Y3045000D02*
Y3135000D01*
X755000D01*
X763000Y3130500D01*
X768000Y3124500D01*
X770000Y3112500D01*
X768000Y3100500D01*
X762000Y3093000D01*
X755000Y3088500D01*
X730000D01*
G01X755000D02*
X770000Y3045000D01*
G01X820000D02*
Y3135000D01*
X808000Y3117000D01*
G01Y3045000D02*
X832000D01*
G01X890000D02*
X897000Y3046500D01*
X905000Y3051000D01*
X910000Y3058500D01*
X912000Y3069000D01*
X910000Y3079500D01*
X904000Y3088500D01*
X895000Y3093000D01*
X885000D01*
X879000Y3096000D01*
X874000Y3103500D01*
X872000Y3114000D01*
X875000Y3124500D01*
X882000Y3132000D01*
X890000Y3135000D01*
X898000Y3132000D01*
X905000Y3124500D01*
X908000Y3114000D01*
X906000Y3103500D01*
X901000Y3096000D01*
X895000Y3093000D01*
X885000D01*
X876000Y3088500D01*
X870000Y3079500D01*
X868000Y3069000D01*
X870000Y3058500D01*
X875000Y3051000D01*
X883000Y3046500D01*
X890000Y3045000D01*
G01X765000Y4065000D02*
Y4155000D01*
X790000D01*
X798000Y4150500D01*
X803000Y4144500D01*
X805000Y4132500D01*
X803000Y4120500D01*
X797000Y4113000D01*
X790000Y4108500D01*
X765000D01*
G01X790000D02*
X805000Y4065000D01*
G01X833000Y4078500D02*
X839000Y4071000D01*
X846000Y4066500D01*
X855000Y4065000D01*
X864000Y4068000D01*
X871000Y4074000D01*
X876000Y4084500D01*
X877000Y4096500D01*
X875000Y4108500D01*
X870000Y4116000D01*
X863000Y4122000D01*
X856000Y4123500D01*
X849000Y4122000D01*
X840000Y4116000D01*
X843000Y4155000D01*
X870000D01*
G01X765000Y4317680D02*
Y4407680D01*
X790000D01*
X798000Y4403180D01*
X803000Y4397180D01*
X805000Y4385180D01*
X803000Y4373180D01*
X797000Y4365680D01*
X790000Y4361180D01*
X765000D01*
G01X790000D02*
X805000Y4317680D01*
G01X836000Y4392680D02*
X842000Y4401680D01*
X849000Y4406180D01*
X857000Y4407680D01*
X867000Y4404680D01*
X874000Y4397180D01*
X876000Y4388180D01*
X875000Y4379180D01*
X871000Y4371680D01*
X851000Y4356680D01*
X842000Y4346180D01*
X836000Y4331180D01*
X834000Y4317680D01*
X876000D01*
G01X765000Y4195000D02*
Y4285000D01*
X790000D01*
X798000Y4280500D01*
X803000Y4274500D01*
X805000Y4262500D01*
X803000Y4250500D01*
X797000Y4243000D01*
X790000Y4238500D01*
X765000D01*
G01X790000D02*
X805000Y4195000D01*
G01X867000D02*
Y4285000D01*
X830000Y4220500D01*
X880000D01*
G01X765000Y4445000D02*
Y4535000D01*
X790000D01*
X798000Y4530500D01*
X803000Y4524500D01*
X805000Y4512500D01*
X803000Y4500500D01*
X797000Y4493000D01*
X790000Y4488500D01*
X765000D01*
G01X790000D02*
X805000Y4445000D01*
G01X855000D02*
Y4535000D01*
X843000Y4517000D01*
G01Y4445000D02*
X867000D01*
G01X945000Y1748000D02*
X950000Y1739000D01*
X956000Y1733000D01*
X963000Y1730000D01*
X971000Y1733000D01*
X977000Y1739000D01*
X983000Y1748000D01*
X985000Y1760000D01*
Y1820000D01*
G01X1016000Y1767500D02*
X1023000Y1778000D01*
X1029000Y1784000D01*
X1037000Y1787000D01*
X1044000Y1784000D01*
X1049000Y1778000D01*
X1053000Y1769000D01*
X1054000Y1758500D01*
X1053000Y1749500D01*
X1049000Y1740500D01*
X1043000Y1733000D01*
X1036000Y1730000D01*
X1028000Y1733000D01*
X1021000Y1742000D01*
X1017000Y1755500D01*
X1016000Y1770500D01*
X1018000Y1790000D01*
X1021000Y1800500D01*
X1026000Y1811000D01*
X1033000Y1818500D01*
X1040000Y1820000D01*
X1047000Y1817000D01*
X1052000Y1809500D01*
G01X1332000Y1867500D02*
X1326000Y1872000D01*
X1319000Y1875000D01*
X1311000D01*
X1302000Y1870500D01*
X1295000Y1863000D01*
X1290000Y1854000D01*
X1286000Y1839000D01*
X1285000Y1825500D01*
X1287000Y1812000D01*
X1290000Y1803000D01*
X1296000Y1794000D01*
X1303000Y1788000D01*
X1310000Y1785000D01*
X1317000D01*
X1324000Y1788000D01*
X1330000Y1792500D01*
X1335000Y1798500D01*
G01X1380000Y1785000D02*
Y1875000D01*
X1368000Y1857000D01*
G01Y1785000D02*
X1392000D01*
G01X1450000D02*
Y1875000D01*
X1438000Y1857000D01*
G01Y1785000D02*
X1462000D01*
G01X1290000Y2025000D02*
Y2115000D01*
X1315000D01*
X1323000Y2110500D01*
X1328000Y2104500D01*
X1330000Y2092500D01*
X1328000Y2080500D01*
X1322000Y2073000D01*
X1315000Y2068500D01*
X1290000D01*
G01X1315000D02*
X1330000Y2025000D01*
G01X1361000Y2100000D02*
X1367000Y2109000D01*
X1374000Y2113500D01*
X1382000Y2115000D01*
X1392000Y2112000D01*
X1399000Y2104500D01*
X1401000Y2095500D01*
X1400000Y2086500D01*
X1396000Y2079000D01*
X1376000Y2064000D01*
X1367000Y2053500D01*
X1361000Y2038500D01*
X1359000Y2025000D01*
X1401000D01*
G01X1450000D02*
X1457000Y2026500D01*
X1465000Y2031000D01*
X1470000Y2038500D01*
X1472000Y2049000D01*
X1470000Y2059500D01*
X1464000Y2068500D01*
X1455000Y2073000D01*
X1445000D01*
X1439000Y2076000D01*
X1434000Y2083500D01*
X1432000Y2094000D01*
X1435000Y2104500D01*
X1442000Y2112000D01*
X1450000Y2115000D01*
X1458000Y2112000D01*
X1465000Y2104500D01*
X1468000Y2094000D01*
X1466000Y2083500D01*
X1461000Y2076000D01*
X1455000Y2073000D01*
X1445000D01*
X1436000Y2068500D01*
X1430000Y2059500D01*
X1428000Y2049000D01*
X1430000Y2038500D01*
X1435000Y2031000D01*
X1443000Y2026500D01*
X1450000Y2025000D01*
G01X1290000Y1905000D02*
Y1995000D01*
X1315000D01*
X1323000Y1990500D01*
X1328000Y1984500D01*
X1330000Y1972500D01*
X1328000Y1960500D01*
X1322000Y1953000D01*
X1315000Y1948500D01*
X1290000D01*
G01X1315000D02*
X1330000Y1905000D01*
G01X1358000Y1923000D02*
X1364000Y1912500D01*
X1372000Y1906500D01*
X1381000Y1905000D01*
X1389000Y1906500D01*
X1397000Y1914000D01*
X1402000Y1923000D01*
X1403000Y1932000D01*
X1401000Y1942500D01*
X1394000Y1950000D01*
X1387000Y1953000D01*
X1378000D01*
G01X1387000D02*
X1393000Y1957500D01*
X1398000Y1965000D01*
X1400000Y1974000D01*
X1398000Y1983000D01*
X1393000Y1990500D01*
X1384000Y1995000D01*
X1375000Y1993500D01*
X1366000Y1987500D01*
G01X1428000Y1923000D02*
X1434000Y1912500D01*
X1442000Y1906500D01*
X1451000Y1905000D01*
X1459000Y1906500D01*
X1467000Y1914000D01*
X1472000Y1923000D01*
X1473000Y1932000D01*
X1471000Y1942500D01*
X1464000Y1950000D01*
X1457000Y1953000D01*
X1448000D01*
G01X1457000D02*
X1463000Y1957500D01*
X1468000Y1965000D01*
X1470000Y1974000D01*
X1468000Y1983000D01*
X1463000Y1990500D01*
X1454000Y1995000D01*
X1445000Y1993500D01*
X1436000Y1987500D01*
G01X955000Y4038000D02*
X960000Y4029000D01*
X966000Y4023000D01*
X973000Y4020000D01*
X981000Y4023000D01*
X987000Y4029000D01*
X993000Y4038000D01*
X995000Y4050000D01*
Y4110000D01*
G01X1026000Y4095000D02*
X1032000Y4104000D01*
X1039000Y4108500D01*
X1047000Y4110000D01*
X1057000Y4107000D01*
X1064000Y4099500D01*
X1066000Y4090500D01*
X1065000Y4081500D01*
X1061000Y4074000D01*
X1041000Y4059000D01*
X1032000Y4048500D01*
X1026000Y4033500D01*
X1024000Y4020000D01*
X1066000D01*
G01X1014000Y4770000D02*
Y4860000D01*
X1040000Y4785000D01*
X1066000Y4860000D01*
Y4770000D01*
G01X1132000Y4852500D02*
X1126000Y4857000D01*
X1119000Y4860000D01*
X1111000D01*
X1102000Y4855500D01*
X1095000Y4848000D01*
X1090000Y4839000D01*
X1086000Y4824000D01*
X1085000Y4810500D01*
X1087000Y4797000D01*
X1090000Y4788000D01*
X1096000Y4779000D01*
X1103000Y4773000D01*
X1110000Y4770000D01*
X1117000D01*
X1124000Y4773000D01*
X1130000Y4777500D01*
X1135000Y4783500D01*
G01X1180000Y4860000D02*
Y4770000D01*
G01X1157000Y4860000D02*
X1203000D01*
G01X1250000Y4770000D02*
X1257000Y4771500D01*
X1265000Y4776000D01*
X1270000Y4783500D01*
X1272000Y4794000D01*
X1270000Y4804500D01*
X1264000Y4813500D01*
X1255000Y4818000D01*
X1245000D01*
X1239000Y4821000D01*
X1234000Y4828500D01*
X1232000Y4839000D01*
X1235000Y4849500D01*
X1242000Y4857000D01*
X1250000Y4860000D01*
X1258000Y4857000D01*
X1265000Y4849500D01*
X1268000Y4839000D01*
X1266000Y4828500D01*
X1261000Y4821000D01*
X1255000Y4818000D01*
X1245000D01*
X1236000Y4813500D01*
X1230000Y4804500D01*
X1228000Y4794000D01*
X1230000Y4783500D01*
X1235000Y4776000D01*
X1243000Y4771500D01*
X1250000Y4770000D01*
G01X1298000Y4788000D02*
X1304000Y4777500D01*
X1312000Y4771500D01*
X1321000Y4770000D01*
X1329000Y4771500D01*
X1337000Y4779000D01*
X1342000Y4788000D01*
X1343000Y4797000D01*
X1341000Y4807500D01*
X1334000Y4815000D01*
X1327000Y4818000D01*
X1318000D01*
G01X1327000D02*
X1333000Y4822500D01*
X1338000Y4830000D01*
X1340000Y4839000D01*
X1338000Y4848000D01*
X1333000Y4855500D01*
X1324000Y4860000D01*
X1315000Y4858500D01*
X1306000Y4852500D01*
G01X1390000Y4770000D02*
Y4860000D01*
X1378000Y4842000D01*
G01Y4770000D02*
X1402000D01*
G01X1441000Y4807500D02*
X1448000Y4818000D01*
X1454000Y4824000D01*
X1462000Y4827000D01*
X1469000Y4824000D01*
X1474000Y4818000D01*
X1478000Y4809000D01*
X1479000Y4798500D01*
X1478000Y4789500D01*
X1474000Y4780500D01*
X1468000Y4773000D01*
X1461000Y4770000D01*
X1453000Y4773000D01*
X1446000Y4782000D01*
X1442000Y4795500D01*
X1441000Y4810500D01*
X1443000Y4830000D01*
X1446000Y4840500D01*
X1451000Y4851000D01*
X1458000Y4858500D01*
X1465000Y4860000D01*
X1472000Y4857000D01*
X1477000Y4849500D01*
G01X1511000Y4860000D02*
X1549000D01*
X1511000Y4770000D01*
X1549000D01*
G01X1600000Y4860000D02*
X1592000Y4857000D01*
X1586000Y4849500D01*
X1582000Y4840500D01*
X1579000Y4828500D01*
X1578000Y4815000D01*
X1579000Y4801500D01*
X1582000Y4789500D01*
X1586000Y4780500D01*
X1592000Y4773000D01*
X1600000Y4770000D01*
X1608000Y4773000D01*
X1614000Y4780500D01*
X1618000Y4789500D01*
X1621000Y4801500D01*
X1622000Y4815000D01*
X1621000Y4828500D01*
X1618000Y4840500D01*
X1614000Y4849500D01*
X1608000Y4857000D01*
X1600000Y4860000D01*
G01X1670000D02*
Y4770000D01*
G01X1647000Y4860000D02*
X1693000D01*
G01X1014000Y4610000D02*
Y4700000D01*
X1040000Y4625000D01*
X1066000Y4700000D01*
Y4610000D01*
G01X1132000Y4692500D02*
X1126000Y4697000D01*
X1119000Y4700000D01*
X1111000D01*
X1102000Y4695500D01*
X1095000Y4688000D01*
X1090000Y4679000D01*
X1086000Y4664000D01*
X1085000Y4650500D01*
X1087000Y4637000D01*
X1090000Y4628000D01*
X1096000Y4619000D01*
X1103000Y4613000D01*
X1110000Y4610000D01*
X1117000D01*
X1124000Y4613000D01*
X1130000Y4617500D01*
X1135000Y4623500D01*
G01X1161000Y4610000D02*
Y4700000D01*
X1199000D01*
G01X1185000Y4656500D02*
X1161000D01*
G01X1250000Y4610000D02*
X1257000Y4611500D01*
X1265000Y4616000D01*
X1270000Y4623500D01*
X1272000Y4634000D01*
X1270000Y4644500D01*
X1264000Y4653500D01*
X1255000Y4658000D01*
X1245000D01*
X1239000Y4661000D01*
X1234000Y4668500D01*
X1232000Y4679000D01*
X1235000Y4689500D01*
X1242000Y4697000D01*
X1250000Y4700000D01*
X1258000Y4697000D01*
X1265000Y4689500D01*
X1268000Y4679000D01*
X1266000Y4668500D01*
X1261000Y4661000D01*
X1255000Y4658000D01*
X1245000D01*
X1236000Y4653500D01*
X1230000Y4644500D01*
X1228000Y4634000D01*
X1230000Y4623500D01*
X1235000Y4616000D01*
X1243000Y4611500D01*
X1250000Y4610000D01*
G01X1298000Y4628000D02*
X1304000Y4617500D01*
X1312000Y4611500D01*
X1321000Y4610000D01*
X1329000Y4611500D01*
X1337000Y4619000D01*
X1342000Y4628000D01*
X1343000Y4637000D01*
X1341000Y4647500D01*
X1334000Y4655000D01*
X1327000Y4658000D01*
X1318000D01*
G01X1327000D02*
X1333000Y4662500D01*
X1338000Y4670000D01*
X1340000Y4679000D01*
X1338000Y4688000D01*
X1333000Y4695500D01*
X1324000Y4700000D01*
X1315000Y4698500D01*
X1306000Y4692500D01*
G01X1390000Y4610000D02*
Y4700000D01*
X1378000Y4682000D01*
G01Y4610000D02*
X1402000D01*
G01X1441000Y4647500D02*
X1448000Y4658000D01*
X1454000Y4664000D01*
X1462000Y4667000D01*
X1469000Y4664000D01*
X1474000Y4658000D01*
X1478000Y4649000D01*
X1479000Y4638500D01*
X1478000Y4629500D01*
X1474000Y4620500D01*
X1468000Y4613000D01*
X1461000Y4610000D01*
X1453000Y4613000D01*
X1446000Y4622000D01*
X1442000Y4635500D01*
X1441000Y4650500D01*
X1443000Y4670000D01*
X1446000Y4680500D01*
X1451000Y4691000D01*
X1458000Y4698500D01*
X1465000Y4700000D01*
X1472000Y4697000D01*
X1477000Y4689500D01*
G01X1505000Y4610000D02*
X1530000Y4700000D01*
X1555000Y4610000D01*
G01X1546000Y4641500D02*
X1514000D01*
G01X1600000Y4610000D02*
Y4700000D01*
X1588000Y4682000D01*
G01Y4610000D02*
X1612000D01*
G01X1645000Y4700000D02*
X1670000Y4610000D01*
X1695000Y4700000D01*
G01X1014000Y4930000D02*
Y5020000D01*
X1040000Y4945000D01*
X1066000Y5020000D01*
Y4930000D01*
G01X1132000Y5012500D02*
X1126000Y5017000D01*
X1119000Y5020000D01*
X1111000D01*
X1102000Y5015500D01*
X1095000Y5008000D01*
X1090000Y4999000D01*
X1086000Y4984000D01*
X1085000Y4970500D01*
X1087000Y4957000D01*
X1090000Y4948000D01*
X1096000Y4939000D01*
X1103000Y4933000D01*
X1110000Y4930000D01*
X1117000D01*
X1124000Y4933000D01*
X1130000Y4937500D01*
X1135000Y4943500D01*
G01X1180000Y5020000D02*
Y4930000D01*
G01X1157000Y5020000D02*
X1203000D01*
G01X1250000Y4930000D02*
X1257000Y4931500D01*
X1265000Y4936000D01*
X1270000Y4943500D01*
X1272000Y4954000D01*
X1270000Y4964500D01*
X1264000Y4973500D01*
X1255000Y4978000D01*
X1245000D01*
X1239000Y4981000D01*
X1234000Y4988500D01*
X1232000Y4999000D01*
X1235000Y5009500D01*
X1242000Y5017000D01*
X1250000Y5020000D01*
X1258000Y5017000D01*
X1265000Y5009500D01*
X1268000Y4999000D01*
X1266000Y4988500D01*
X1261000Y4981000D01*
X1255000Y4978000D01*
X1245000D01*
X1236000Y4973500D01*
X1230000Y4964500D01*
X1228000Y4954000D01*
X1230000Y4943500D01*
X1235000Y4936000D01*
X1243000Y4931500D01*
X1250000Y4930000D01*
G01X1298000Y4948000D02*
X1304000Y4937500D01*
X1312000Y4931500D01*
X1321000Y4930000D01*
X1329000Y4931500D01*
X1337000Y4939000D01*
X1342000Y4948000D01*
X1343000Y4957000D01*
X1341000Y4967500D01*
X1334000Y4975000D01*
X1327000Y4978000D01*
X1318000D01*
G01X1327000D02*
X1333000Y4982500D01*
X1338000Y4990000D01*
X1340000Y4999000D01*
X1338000Y5008000D01*
X1333000Y5015500D01*
X1324000Y5020000D01*
X1315000Y5018500D01*
X1306000Y5012500D01*
G01X1390000Y4930000D02*
Y5020000D01*
X1378000Y5002000D01*
G01Y4930000D02*
X1402000D01*
G01X1441000Y4967500D02*
X1448000Y4978000D01*
X1454000Y4984000D01*
X1462000Y4987000D01*
X1469000Y4984000D01*
X1474000Y4978000D01*
X1478000Y4969000D01*
X1479000Y4958500D01*
X1478000Y4949500D01*
X1474000Y4940500D01*
X1468000Y4933000D01*
X1461000Y4930000D01*
X1453000Y4933000D01*
X1446000Y4942000D01*
X1442000Y4955500D01*
X1441000Y4970500D01*
X1443000Y4990000D01*
X1446000Y5000500D01*
X1451000Y5011000D01*
X1458000Y5018500D01*
X1465000Y5020000D01*
X1472000Y5017000D01*
X1477000Y5009500D01*
G01X1505000Y4930000D02*
X1530000Y5020000D01*
X1555000Y4930000D01*
G01X1546000Y4961500D02*
X1514000D01*
G01X1600000Y4930000D02*
Y5020000D01*
X1588000Y5002000D01*
G01Y4930000D02*
X1612000D01*
G01X1645000Y5020000D02*
X1670000Y4930000D01*
X1695000Y5020000D01*
G01X1563000Y1640000D02*
Y1730000D01*
X1583000D01*
X1591000Y1725500D01*
X1597000Y1719500D01*
X1602000Y1710500D01*
X1606000Y1700000D01*
X1607000Y1685000D01*
X1606000Y1670000D01*
X1602000Y1659500D01*
X1597000Y1650500D01*
X1591000Y1644500D01*
X1583000Y1640000D01*
X1563000D01*
G01X1655000D02*
X1662000Y1641500D01*
X1670000Y1646000D01*
X1675000Y1653500D01*
X1677000Y1664000D01*
X1675000Y1674500D01*
X1669000Y1683500D01*
X1660000Y1688000D01*
X1650000D01*
X1644000Y1691000D01*
X1639000Y1698500D01*
X1637000Y1709000D01*
X1640000Y1719500D01*
X1647000Y1727000D01*
X1655000Y1730000D01*
X1663000Y1727000D01*
X1670000Y1719500D01*
X1673000Y1709000D01*
X1671000Y1698500D01*
X1666000Y1691000D01*
X1660000Y1688000D01*
X1650000D01*
X1641000Y1683500D01*
X1635000Y1674500D01*
X1633000Y1664000D01*
X1635000Y1653500D01*
X1640000Y1646000D01*
X1648000Y1641500D01*
X1655000Y1640000D01*
G01X1566000Y1510000D02*
Y1600000D01*
X1604000D01*
G01X1590000Y1556500D02*
X1566000D01*
G01X1655000Y1510000D02*
Y1600000D01*
X1643000Y1582000D01*
G01Y1510000D02*
X1667000D01*
G01X1827000Y3157500D02*
X1821000Y3162000D01*
X1814000Y3165000D01*
X1806000D01*
X1797000Y3160500D01*
X1790000Y3153000D01*
X1785000Y3144000D01*
X1781000Y3129000D01*
X1780000Y3115500D01*
X1782000Y3102000D01*
X1785000Y3093000D01*
X1791000Y3084000D01*
X1798000Y3078000D01*
X1805000Y3075000D01*
X1812000D01*
X1819000Y3078000D01*
X1825000Y3082500D01*
X1830000Y3088500D01*
G01X1873000Y3075000D02*
X1875000Y3094500D01*
X1878000Y3111000D01*
X1882000Y3126000D01*
X1887000Y3142500D01*
X1895000Y3165000D01*
X1855000D01*
G01X2008000Y1390000D02*
Y1480000D01*
X2028000D01*
X2036000Y1475500D01*
X2042000Y1469500D01*
X2047000Y1460500D01*
X2051000Y1450000D01*
X2052000Y1435000D01*
X2051000Y1420000D01*
X2047000Y1409500D01*
X2042000Y1400500D01*
X2036000Y1394500D01*
X2028000Y1390000D01*
X2008000D01*
G01X2122000Y1472500D02*
X2116000Y1477000D01*
X2109000Y1480000D01*
X2101000D01*
X2092000Y1475500D01*
X2085000Y1468000D01*
X2080000Y1459000D01*
X2076000Y1444000D01*
X2075000Y1430500D01*
X2077000Y1417000D01*
X2080000Y1408000D01*
X2086000Y1399000D01*
X2093000Y1393000D01*
X2100000Y1390000D01*
X2107000D01*
X2114000Y1393000D01*
X2120000Y1397500D01*
X2125000Y1403500D01*
G01X2170000Y1390000D02*
Y1480000D01*
X2158000Y1462000D01*
G01Y1390000D02*
X2182000D01*
G01X2465000Y1613000D02*
X2375000D01*
Y1633000D01*
X2379500Y1641000D01*
X2385500Y1647000D01*
X2394500Y1652000D01*
X2405000Y1656000D01*
X2420000Y1657000D01*
X2435000Y1656000D01*
X2445500Y1652000D01*
X2454500Y1647000D01*
X2460500Y1641000D01*
X2465000Y1633000D01*
Y1613000D01*
G01X2454500Y1688000D02*
X2462000Y1695000D01*
X2465000Y1703000D01*
X2462000Y1711000D01*
X2453000Y1718000D01*
X2439500Y1723000D01*
X2426000Y1725000D01*
X2409500D01*
X2396000Y1723000D01*
X2384000Y1718000D01*
X2378000Y1712000D01*
X2375000Y1705000D01*
X2378000Y1697000D01*
X2384000Y1691000D01*
X2393000Y1687000D01*
X2405000Y1685000D01*
X2415500Y1687000D01*
X2426000Y1692000D01*
X2432000Y1698000D01*
X2433500Y1705000D01*
X2430500Y1713000D01*
X2423000Y1719000D01*
X2409500Y1725000D01*
G01X2465000Y1318000D02*
X2375000D01*
Y1338000D01*
X2379500Y1346000D01*
X2385500Y1352000D01*
X2394500Y1357000D01*
X2405000Y1361000D01*
X2420000Y1362000D01*
X2435000Y1361000D01*
X2445500Y1357000D01*
X2454500Y1352000D01*
X2460500Y1346000D01*
X2465000Y1338000D01*
Y1318000D01*
G01Y1410000D02*
X2375000D01*
X2393000Y1398000D01*
G01X2465000D02*
Y1422000D01*
G01X2375000Y1480000D02*
X2378000Y1472000D01*
X2385500Y1466000D01*
X2394500Y1462000D01*
X2406500Y1459000D01*
X2420000Y1458000D01*
X2433500Y1459000D01*
X2445500Y1462000D01*
X2454500Y1466000D01*
X2462000Y1472000D01*
X2465000Y1480000D01*
X2462000Y1488000D01*
X2454500Y1494000D01*
X2445500Y1498000D01*
X2433500Y1501000D01*
X2420000Y1502000D01*
X2406500Y1501000D01*
X2394500Y1498000D01*
X2385500Y1494000D01*
X2378000Y1488000D01*
X2375000Y1480000D01*
G01X2585000Y1620000D02*
X2495000D01*
Y1645000D01*
X2499500Y1653000D01*
X2505500Y1658000D01*
X2517500Y1660000D01*
X2529500Y1658000D01*
X2537000Y1652000D01*
X2541500Y1645000D01*
Y1620000D01*
G01Y1645000D02*
X2585000Y1660000D01*
G01X2510000Y1691000D02*
X2501000Y1697000D01*
X2496500Y1704000D01*
X2495000Y1712000D01*
X2498000Y1722000D01*
X2505500Y1729000D01*
X2514500Y1731000D01*
X2523500Y1730000D01*
X2531000Y1726000D01*
X2546000Y1706000D01*
X2556500Y1697000D01*
X2571500Y1691000D01*
X2585000Y1689000D01*
Y1731000D01*
G01X2574500Y1763000D02*
X2582000Y1770000D01*
X2585000Y1778000D01*
X2582000Y1786000D01*
X2573000Y1793000D01*
X2559500Y1798000D01*
X2546000Y1800000D01*
X2529500D01*
X2516000Y1798000D01*
X2504000Y1793000D01*
X2498000Y1787000D01*
X2495000Y1780000D01*
X2498000Y1772000D01*
X2504000Y1766000D01*
X2513000Y1762000D01*
X2525000Y1760000D01*
X2535500Y1762000D01*
X2546000Y1767000D01*
X2552000Y1773000D01*
X2553500Y1780000D01*
X2550500Y1788000D01*
X2543000Y1794000D01*
X2529500Y1800000D01*
G01X2585000Y1320000D02*
X2495000D01*
Y1345000D01*
X2499500Y1353000D01*
X2505500Y1358000D01*
X2517500Y1360000D01*
X2529500Y1358000D01*
X2537000Y1352000D01*
X2541500Y1345000D01*
Y1320000D01*
G01Y1345000D02*
X2585000Y1360000D01*
G01X2567000Y1388000D02*
X2577500Y1394000D01*
X2583500Y1402000D01*
X2585000Y1411000D01*
X2583500Y1419000D01*
X2576000Y1427000D01*
X2567000Y1432000D01*
X2558000Y1433000D01*
X2547500Y1431000D01*
X2540000Y1424000D01*
X2537000Y1417000D01*
Y1408000D01*
G01Y1417000D02*
X2532500Y1423000D01*
X2525000Y1428000D01*
X2516000Y1430000D01*
X2507000Y1428000D01*
X2499500Y1423000D01*
X2495000Y1414000D01*
X2496500Y1405000D01*
X2502500Y1396000D01*
G01X2571500Y1458000D02*
X2579000Y1464000D01*
X2583500Y1471000D01*
X2585000Y1480000D01*
X2582000Y1489000D01*
X2576000Y1496000D01*
X2565500Y1501000D01*
X2553500Y1502000D01*
X2541500Y1500000D01*
X2534000Y1495000D01*
X2528000Y1488000D01*
X2526500Y1481000D01*
X2528000Y1474000D01*
X2534000Y1465000D01*
X2495000Y1468000D01*
Y1495000D01*
G01X2305000Y1178000D02*
X2310000Y1169000D01*
X2316000Y1163000D01*
X2323000Y1160000D01*
X2331000Y1163000D01*
X2337000Y1169000D01*
X2343000Y1178000D01*
X2345000Y1190000D01*
Y1250000D01*
G01X2395000Y1160000D02*
X2402000Y1161500D01*
X2410000Y1166000D01*
X2415000Y1173500D01*
X2417000Y1184000D01*
X2415000Y1194500D01*
X2409000Y1203500D01*
X2400000Y1208000D01*
X2390000D01*
X2384000Y1211000D01*
X2379000Y1218500D01*
X2377000Y1229000D01*
X2380000Y1239500D01*
X2387000Y1247000D01*
X2395000Y1250000D01*
X2403000Y1247000D01*
X2410000Y1239500D01*
X2413000Y1229000D01*
X2411000Y1218500D01*
X2406000Y1211000D01*
X2400000Y1208000D01*
X2390000D01*
X2381000Y1203500D01*
X2375000Y1194500D01*
X2373000Y1184000D01*
X2375000Y1173500D01*
X2380000Y1166000D01*
X2388000Y1161500D01*
X2395000Y1160000D01*
G01X2465000Y1903000D02*
X2375000D01*
Y1923000D01*
X2379500Y1931000D01*
X2385500Y1937000D01*
X2394500Y1942000D01*
X2405000Y1946000D01*
X2420000Y1947000D01*
X2435000Y1946000D01*
X2445500Y1942000D01*
X2454500Y1937000D01*
X2460500Y1931000D01*
X2465000Y1923000D01*
Y1903000D01*
G01Y1993000D02*
X2445500Y1995000D01*
X2429000Y1998000D01*
X2414000Y2002000D01*
X2397500Y2007000D01*
X2375000Y2015000D01*
Y1975000D01*
G01X2585000Y1900000D02*
X2495000D01*
Y1925000D01*
X2499500Y1933000D01*
X2505500Y1938000D01*
X2517500Y1940000D01*
X2529500Y1938000D01*
X2537000Y1932000D01*
X2541500Y1925000D01*
Y1900000D01*
G01Y1925000D02*
X2585000Y1940000D01*
G01X2510000Y1971000D02*
X2501000Y1977000D01*
X2496500Y1984000D01*
X2495000Y1992000D01*
X2498000Y2002000D01*
X2505500Y2009000D01*
X2514500Y2011000D01*
X2523500Y2010000D01*
X2531000Y2006000D01*
X2546000Y1986000D01*
X2556500Y1977000D01*
X2571500Y1971000D01*
X2585000Y1969000D01*
Y2011000D01*
G01Y2072000D02*
X2495000D01*
X2559500Y2035000D01*
Y2085000D01*
G01X2971000Y1235000D02*
X2977000Y1244000D01*
X2984000Y1248500D01*
X2992000Y1250000D01*
X3002000Y1247000D01*
X3009000Y1239500D01*
X3011000Y1230500D01*
X3010000Y1221500D01*
X3006000Y1214000D01*
X2986000Y1199000D01*
X2977000Y1188500D01*
X2971000Y1173500D01*
X2969000Y1160000D01*
X3011000D01*
G01X3072000D02*
Y1250000D01*
X3035000Y1185500D01*
X3085000D01*
G01X3105000Y1250000D02*
X3130000Y1160000D01*
X3155000Y1250000D01*
G01X2622500Y1362000D02*
X2618000Y1356000D01*
X2615000Y1349000D01*
Y1341000D01*
X2619500Y1332000D01*
X2627000Y1325000D01*
X2636000Y1320000D01*
X2651000Y1316000D01*
X2664500Y1315000D01*
X2678000Y1317000D01*
X2687000Y1320000D01*
X2696000Y1326000D01*
X2702000Y1333000D01*
X2705000Y1340000D01*
Y1347000D01*
X2702000Y1354000D01*
X2697500Y1360000D01*
X2691500Y1365000D01*
G01X2705000Y1410000D02*
X2615000D01*
X2633000Y1398000D01*
G01X2705000D02*
Y1422000D01*
G01X2630000Y1461000D02*
X2621000Y1467000D01*
X2616500Y1474000D01*
X2615000Y1482000D01*
X2618000Y1492000D01*
X2625500Y1499000D01*
X2634500Y1501000D01*
X2643500Y1500000D01*
X2651000Y1496000D01*
X2666000Y1476000D01*
X2676500Y1467000D01*
X2691500Y1461000D01*
X2705000Y1459000D01*
Y1501000D01*
G01X2622500Y1662000D02*
X2618000Y1656000D01*
X2615000Y1649000D01*
Y1641000D01*
X2619500Y1632000D01*
X2627000Y1625000D01*
X2636000Y1620000D01*
X2651000Y1616000D01*
X2664500Y1615000D01*
X2678000Y1617000D01*
X2687000Y1620000D01*
X2696000Y1626000D01*
X2702000Y1633000D01*
X2705000Y1640000D01*
Y1647000D01*
X2702000Y1654000D01*
X2697500Y1660000D01*
X2691500Y1665000D01*
G01X2705000Y1710000D02*
X2615000D01*
X2633000Y1698000D01*
G01X2705000D02*
Y1722000D01*
G01X2615000Y1780000D02*
X2618000Y1772000D01*
X2625500Y1766000D01*
X2634500Y1762000D01*
X2646500Y1759000D01*
X2660000Y1758000D01*
X2673500Y1759000D01*
X2685500Y1762000D01*
X2694500Y1766000D01*
X2702000Y1772000D01*
X2705000Y1780000D01*
X2702000Y1788000D01*
X2694500Y1794000D01*
X2685500Y1798000D01*
X2673500Y1801000D01*
X2660000Y1802000D01*
X2646500Y1801000D01*
X2634500Y1798000D01*
X2625500Y1794000D01*
X2618000Y1788000D01*
X2615000Y1780000D01*
G01X2850000Y1625000D02*
Y1715000D01*
X2875000D01*
X2883000Y1710500D01*
X2888000Y1704500D01*
X2890000Y1692500D01*
X2888000Y1680500D01*
X2882000Y1673000D01*
X2875000Y1668500D01*
X2850000D01*
G01X2875000D02*
X2890000Y1625000D01*
G01X2918000Y1643000D02*
X2924000Y1632500D01*
X2932000Y1626500D01*
X2941000Y1625000D01*
X2949000Y1626500D01*
X2957000Y1634000D01*
X2962000Y1643000D01*
X2963000Y1652000D01*
X2961000Y1662500D01*
X2954000Y1670000D01*
X2947000Y1673000D01*
X2938000D01*
G01X2947000D02*
X2953000Y1677500D01*
X2958000Y1685000D01*
X2960000Y1694000D01*
X2958000Y1703000D01*
X2953000Y1710500D01*
X2944000Y1715000D01*
X2935000Y1713500D01*
X2926000Y1707500D01*
G01X2991000Y1700000D02*
X2997000Y1709000D01*
X3004000Y1713500D01*
X3012000Y1715000D01*
X3022000Y1712000D01*
X3029000Y1704500D01*
X3031000Y1695500D01*
X3030000Y1686500D01*
X3026000Y1679000D01*
X3006000Y1664000D01*
X2997000Y1653500D01*
X2991000Y1638500D01*
X2989000Y1625000D01*
X3031000D01*
G01X2850000Y1325000D02*
Y1415000D01*
X2875000D01*
X2883000Y1410500D01*
X2888000Y1404500D01*
X2890000Y1392500D01*
X2888000Y1380500D01*
X2882000Y1373000D01*
X2875000Y1368500D01*
X2850000D01*
G01X2875000D02*
X2890000Y1325000D01*
G01X2918000Y1343000D02*
X2924000Y1332500D01*
X2932000Y1326500D01*
X2941000Y1325000D01*
X2949000Y1326500D01*
X2957000Y1334000D01*
X2962000Y1343000D01*
X2963000Y1352000D01*
X2961000Y1362500D01*
X2954000Y1370000D01*
X2947000Y1373000D01*
X2938000D01*
G01X2947000D02*
X2953000Y1377500D01*
X2958000Y1385000D01*
X2960000Y1394000D01*
X2958000Y1403000D01*
X2953000Y1410500D01*
X2944000Y1415000D01*
X2935000Y1413500D01*
X2926000Y1407500D01*
G01X3008000Y1325000D02*
X3010000Y1344500D01*
X3013000Y1361000D01*
X3017000Y1376000D01*
X3022000Y1392500D01*
X3030000Y1415000D01*
X2990000D01*
G01X2825000Y1620000D02*
X2735000D01*
Y1645000D01*
X2739500Y1653000D01*
X2745500Y1658000D01*
X2757500Y1660000D01*
X2769500Y1658000D01*
X2777000Y1652000D01*
X2781500Y1645000D01*
Y1620000D01*
G01Y1645000D02*
X2825000Y1660000D01*
G01X2807000Y1688000D02*
X2817500Y1694000D01*
X2823500Y1702000D01*
X2825000Y1711000D01*
X2823500Y1719000D01*
X2816000Y1727000D01*
X2807000Y1732000D01*
X2798000Y1733000D01*
X2787500Y1731000D01*
X2780000Y1724000D01*
X2777000Y1717000D01*
Y1708000D01*
G01Y1717000D02*
X2772500Y1723000D01*
X2765000Y1728000D01*
X2756000Y1730000D01*
X2747000Y1728000D01*
X2739500Y1723000D01*
X2735000Y1714000D01*
X2736500Y1705000D01*
X2742500Y1696000D01*
G01X2735000Y1780000D02*
X2738000Y1772000D01*
X2745500Y1766000D01*
X2754500Y1762000D01*
X2766500Y1759000D01*
X2780000Y1758000D01*
X2793500Y1759000D01*
X2805500Y1762000D01*
X2814500Y1766000D01*
X2822000Y1772000D01*
X2825000Y1780000D01*
X2822000Y1788000D01*
X2814500Y1794000D01*
X2805500Y1798000D01*
X2793500Y1801000D01*
X2780000Y1802000D01*
X2766500Y1801000D01*
X2754500Y1798000D01*
X2745500Y1794000D01*
X2738000Y1788000D01*
X2735000Y1780000D01*
G01X2825000Y1320000D02*
X2735000D01*
Y1345000D01*
X2739500Y1353000D01*
X2745500Y1358000D01*
X2757500Y1360000D01*
X2769500Y1358000D01*
X2777000Y1352000D01*
X2781500Y1345000D01*
Y1320000D01*
G01Y1345000D02*
X2825000Y1360000D01*
G01X2807000Y1388000D02*
X2817500Y1394000D01*
X2823500Y1402000D01*
X2825000Y1411000D01*
X2823500Y1419000D01*
X2816000Y1427000D01*
X2807000Y1432000D01*
X2798000Y1433000D01*
X2787500Y1431000D01*
X2780000Y1424000D01*
X2777000Y1417000D01*
Y1408000D01*
G01Y1417000D02*
X2772500Y1423000D01*
X2765000Y1428000D01*
X2756000Y1430000D01*
X2747000Y1428000D01*
X2739500Y1423000D01*
X2735000Y1414000D01*
X2736500Y1405000D01*
X2742500Y1396000D01*
G01X2787500Y1461000D02*
X2777000Y1468000D01*
X2771000Y1474000D01*
X2768000Y1482000D01*
X2771000Y1489000D01*
X2777000Y1494000D01*
X2786000Y1498000D01*
X2796500Y1499000D01*
X2805500Y1498000D01*
X2814500Y1494000D01*
X2822000Y1488000D01*
X2825000Y1481000D01*
X2822000Y1473000D01*
X2813000Y1466000D01*
X2799500Y1462000D01*
X2784500Y1461000D01*
X2765000Y1463000D01*
X2754500Y1466000D01*
X2744000Y1471000D01*
X2736500Y1478000D01*
X2735000Y1485000D01*
X2738000Y1492000D01*
X2745500Y1497000D01*
G01X2622500Y1977000D02*
X2618000Y1971000D01*
X2615000Y1964000D01*
Y1956000D01*
X2619500Y1947000D01*
X2627000Y1940000D01*
X2636000Y1935000D01*
X2651000Y1931000D01*
X2664500Y1930000D01*
X2678000Y1932000D01*
X2687000Y1935000D01*
X2696000Y1941000D01*
X2702000Y1948000D01*
X2705000Y1955000D01*
Y1962000D01*
X2702000Y1969000D01*
X2697500Y1975000D01*
X2691500Y1980000D01*
G01X2694500Y2008000D02*
X2702000Y2015000D01*
X2705000Y2023000D01*
X2702000Y2031000D01*
X2693000Y2038000D01*
X2679500Y2043000D01*
X2666000Y2045000D01*
X2649500D01*
X2636000Y2043000D01*
X2624000Y2038000D01*
X2618000Y2032000D01*
X2615000Y2025000D01*
X2618000Y2017000D01*
X2624000Y2011000D01*
X2633000Y2007000D01*
X2645000Y2005000D01*
X2655500Y2007000D01*
X2666000Y2012000D01*
X2672000Y2018000D01*
X2673500Y2025000D01*
X2670500Y2033000D01*
X2663000Y2039000D01*
X2649500Y2045000D01*
G01X2825000Y1900000D02*
X2735000D01*
Y1925000D01*
X2739500Y1933000D01*
X2745500Y1938000D01*
X2757500Y1940000D01*
X2769500Y1938000D01*
X2777000Y1932000D01*
X2781500Y1925000D01*
Y1900000D01*
G01Y1925000D02*
X2825000Y1940000D01*
G01X2750000Y1971000D02*
X2741000Y1977000D01*
X2736500Y1984000D01*
X2735000Y1992000D01*
X2738000Y2002000D01*
X2745500Y2009000D01*
X2754500Y2011000D01*
X2763500Y2010000D01*
X2771000Y2006000D01*
X2786000Y1986000D01*
X2796500Y1977000D01*
X2811500Y1971000D01*
X2825000Y1969000D01*
Y2011000D01*
G01X2811500Y2038000D02*
X2819000Y2044000D01*
X2823500Y2051000D01*
X2825000Y2060000D01*
X2822000Y2069000D01*
X2816000Y2076000D01*
X2805500Y2081000D01*
X2793500Y2082000D01*
X2781500Y2080000D01*
X2774000Y2075000D01*
X2768000Y2068000D01*
X2766500Y2061000D01*
X2768000Y2054000D01*
X2774000Y2045000D01*
X2735000Y2048000D01*
Y2075000D01*
G01X2850000Y1905000D02*
Y1995000D01*
X2875000D01*
X2883000Y1990500D01*
X2888000Y1984500D01*
X2890000Y1972500D01*
X2888000Y1960500D01*
X2882000Y1953000D01*
X2875000Y1948500D01*
X2850000D01*
G01X2875000D02*
X2890000Y1905000D01*
G01X2921000Y1980000D02*
X2927000Y1989000D01*
X2934000Y1993500D01*
X2942000Y1995000D01*
X2952000Y1992000D01*
X2959000Y1984500D01*
X2961000Y1975500D01*
X2960000Y1966500D01*
X2956000Y1959000D01*
X2936000Y1944000D01*
X2927000Y1933500D01*
X2921000Y1918500D01*
X2919000Y1905000D01*
X2961000D01*
G01X2991000Y1942500D02*
X2998000Y1953000D01*
X3004000Y1959000D01*
X3012000Y1962000D01*
X3019000Y1959000D01*
X3024000Y1953000D01*
X3028000Y1944000D01*
X3029000Y1933500D01*
X3028000Y1924500D01*
X3024000Y1915500D01*
X3018000Y1908000D01*
X3011000Y1905000D01*
X3003000Y1908000D01*
X2996000Y1917000D01*
X2992000Y1930500D01*
X2991000Y1945500D01*
X2993000Y1965000D01*
X2996000Y1975500D01*
X3001000Y1986000D01*
X3008000Y1993500D01*
X3015000Y1995000D01*
X3022000Y1992000D01*
X3027000Y1984500D01*
G01X2687000Y3157500D02*
X2681000Y3162000D01*
X2674000Y3165000D01*
X2666000D01*
X2657000Y3160500D01*
X2650000Y3153000D01*
X2645000Y3144000D01*
X2641000Y3129000D01*
X2640000Y3115500D01*
X2642000Y3102000D01*
X2645000Y3093000D01*
X2651000Y3084000D01*
X2658000Y3078000D01*
X2665000Y3075000D01*
X2672000D01*
X2679000Y3078000D01*
X2685000Y3082500D01*
X2690000Y3088500D01*
G01X2735000Y3075000D02*
X2742000Y3076500D01*
X2750000Y3081000D01*
X2755000Y3088500D01*
X2757000Y3099000D01*
X2755000Y3109500D01*
X2749000Y3118500D01*
X2740000Y3123000D01*
X2730000D01*
X2724000Y3126000D01*
X2719000Y3133500D01*
X2717000Y3144000D01*
X2720000Y3154500D01*
X2727000Y3162000D01*
X2735000Y3165000D01*
X2743000Y3162000D01*
X2750000Y3154500D01*
X2753000Y3144000D01*
X2751000Y3133500D01*
X2746000Y3126000D01*
X2740000Y3123000D01*
X2730000D01*
X2721000Y3118500D01*
X2715000Y3109500D01*
X2713000Y3099000D01*
X2715000Y3088500D01*
X2720000Y3081000D01*
X2728000Y3076500D01*
X2735000Y3075000D01*
G01X3017000Y3177500D02*
X3011000Y3182000D01*
X3004000Y3185000D01*
X2996000D01*
X2987000Y3180500D01*
X2980000Y3173000D01*
X2975000Y3164000D01*
X2971000Y3149000D01*
X2970000Y3135500D01*
X2972000Y3122000D01*
X2975000Y3113000D01*
X2981000Y3104000D01*
X2988000Y3098000D01*
X2995000Y3095000D01*
X3002000D01*
X3009000Y3098000D01*
X3015000Y3102500D01*
X3020000Y3108500D01*
G01X3046000Y3132500D02*
X3053000Y3143000D01*
X3059000Y3149000D01*
X3067000Y3152000D01*
X3074000Y3149000D01*
X3079000Y3143000D01*
X3083000Y3134000D01*
X3084000Y3123500D01*
X3083000Y3114500D01*
X3079000Y3105500D01*
X3073000Y3098000D01*
X3066000Y3095000D01*
X3058000Y3098000D01*
X3051000Y3107000D01*
X3047000Y3120500D01*
X3046000Y3135500D01*
X3048000Y3155000D01*
X3051000Y3165500D01*
X3056000Y3176000D01*
X3063000Y3183500D01*
X3070000Y3185000D01*
X3077000Y3182000D01*
X3082000Y3174500D01*
G01X2735000Y3460000D02*
Y3370000D01*
X2775000D01*
G01X2825000D02*
Y3460000D01*
X2813000Y3442000D01*
G01Y3370000D02*
X2837000D01*
G01X2972500Y4437000D02*
X2968000Y4431000D01*
X2965000Y4424000D01*
Y4416000D01*
X2969500Y4407000D01*
X2977000Y4400000D01*
X2986000Y4395000D01*
X3001000Y4391000D01*
X3014500Y4390000D01*
X3028000Y4392000D01*
X3037000Y4395000D01*
X3046000Y4401000D01*
X3052000Y4408000D01*
X3055000Y4415000D01*
Y4422000D01*
X3052000Y4429000D01*
X3047500Y4435000D01*
X3041500Y4440000D01*
G01X3055000Y4485000D02*
X2965000D01*
X2983000Y4473000D01*
G01X3055000D02*
Y4497000D01*
G01X3107000Y3332500D02*
X3101000Y3337000D01*
X3094000Y3340000D01*
X3086000D01*
X3077000Y3335500D01*
X3070000Y3328000D01*
X3065000Y3319000D01*
X3061000Y3304000D01*
X3060000Y3290500D01*
X3062000Y3277000D01*
X3065000Y3268000D01*
X3071000Y3259000D01*
X3078000Y3253000D01*
X3085000Y3250000D01*
X3092000D01*
X3099000Y3253000D01*
X3105000Y3257500D01*
X3110000Y3263500D01*
G01X3167000Y3250000D02*
Y3340000D01*
X3130000Y3275500D01*
X3180000D01*
G01X3577500Y4207000D02*
X3573000Y4201000D01*
X3570000Y4194000D01*
Y4186000D01*
X3574500Y4177000D01*
X3582000Y4170000D01*
X3591000Y4165000D01*
X3606000Y4161000D01*
X3619500Y4160000D01*
X3633000Y4162000D01*
X3642000Y4165000D01*
X3651000Y4171000D01*
X3657000Y4178000D01*
X3660000Y4185000D01*
Y4192000D01*
X3657000Y4199000D01*
X3652500Y4205000D01*
X3646500Y4210000D01*
G01X3642000Y4233000D02*
X3652500Y4239000D01*
X3658500Y4247000D01*
X3660000Y4256000D01*
X3658500Y4264000D01*
X3651000Y4272000D01*
X3642000Y4277000D01*
X3633000Y4278000D01*
X3622500Y4276000D01*
X3615000Y4269000D01*
X3612000Y4262000D01*
Y4253000D01*
G01Y4262000D02*
X3607500Y4268000D01*
X3600000Y4273000D01*
X3591000Y4275000D01*
X3582000Y4273000D01*
X3574500Y4268000D01*
X3570000Y4259000D01*
X3571500Y4250000D01*
X3577500Y4241000D01*
G01X3222500Y4437000D02*
X3218000Y4431000D01*
X3215000Y4424000D01*
Y4416000D01*
X3219500Y4407000D01*
X3227000Y4400000D01*
X3236000Y4395000D01*
X3251000Y4391000D01*
X3264500Y4390000D01*
X3278000Y4392000D01*
X3287000Y4395000D01*
X3296000Y4401000D01*
X3302000Y4408000D01*
X3305000Y4415000D01*
Y4422000D01*
X3302000Y4429000D01*
X3297500Y4435000D01*
X3291500Y4440000D01*
G01X3230000Y4466000D02*
X3221000Y4472000D01*
X3216500Y4479000D01*
X3215000Y4487000D01*
X3218000Y4497000D01*
X3225500Y4504000D01*
X3234500Y4506000D01*
X3243500Y4505000D01*
X3251000Y4501000D01*
X3266000Y4481000D01*
X3276500Y4472000D01*
X3291500Y4466000D01*
X3305000Y4464000D01*
Y4506000D01*
G01X3875000Y1298000D02*
X3880000Y1289000D01*
X3886000Y1283000D01*
X3893000Y1280000D01*
X3901000Y1283000D01*
X3907000Y1289000D01*
X3913000Y1298000D01*
X3915000Y1310000D01*
Y1370000D01*
G01X3963000Y1280000D02*
X3965000Y1299500D01*
X3968000Y1316000D01*
X3972000Y1331000D01*
X3977000Y1347500D01*
X3985000Y1370000D01*
X3945000D01*
G01X4080000Y1731740D02*
X4082120Y1720480D01*
X4088460Y1707610D01*
X4099050Y1699570D01*
X4113870Y1696350D01*
X4128680Y1699570D01*
X4141380Y1709220D01*
X4147730Y1723700D01*
Y1739780D01*
X4151970Y1749440D01*
X4162550Y1757480D01*
X4177370Y1760700D01*
X4192180Y1755870D01*
X4202770Y1744610D01*
X4207000Y1731740D01*
X4202770Y1718870D01*
X4192180Y1707610D01*
X4177370Y1702780D01*
X4162550Y1706000D01*
X4151970Y1714040D01*
X4147730Y1723700D01*
Y1739780D01*
X4141380Y1754260D01*
X4128680Y1763910D01*
X4113870Y1767130D01*
X4099050Y1763910D01*
X4088460Y1755870D01*
X4082120Y1743000D01*
X4080000Y1731740D01*
G01X3673000Y3760000D02*
Y3695500D01*
X3677000Y3682000D01*
X3685000Y3673000D01*
X3695000Y3670000D01*
X3705000Y3673000D01*
X3713000Y3682000D01*
X3717000Y3695500D01*
Y3760000D01*
G01X3765000Y3670000D02*
Y3760000D01*
X3753000Y3742000D01*
G01Y3670000D02*
X3777000D01*
G01X3805000Y4045000D02*
X3715000D01*
Y4070000D01*
X3719500Y4078000D01*
X3725500Y4083000D01*
X3737500Y4085000D01*
X3749500Y4083000D01*
X3757000Y4077000D01*
X3761500Y4070000D01*
Y4045000D01*
G01Y4070000D02*
X3805000Y4085000D01*
G01X3767500Y4116000D02*
X3757000Y4123000D01*
X3751000Y4129000D01*
X3748000Y4137000D01*
X3751000Y4144000D01*
X3757000Y4149000D01*
X3766000Y4153000D01*
X3776500Y4154000D01*
X3785500Y4153000D01*
X3794500Y4149000D01*
X3802000Y4143000D01*
X3805000Y4136000D01*
X3802000Y4128000D01*
X3793000Y4121000D01*
X3779500Y4117000D01*
X3764500Y4116000D01*
X3745000Y4118000D01*
X3734500Y4121000D01*
X3724000Y4126000D01*
X3716500Y4133000D01*
X3715000Y4140000D01*
X3718000Y4147000D01*
X3725500Y4152000D01*
G01X4065000Y4045000D02*
X3975000D01*
Y4070000D01*
X3979500Y4078000D01*
X3985500Y4083000D01*
X3997500Y4085000D01*
X4009500Y4083000D01*
X4017000Y4077000D01*
X4021500Y4070000D01*
Y4045000D01*
G01Y4070000D02*
X4065000Y4085000D01*
G01Y4133000D02*
X4045500Y4135000D01*
X4029000Y4138000D01*
X4014000Y4142000D01*
X3997500Y4147000D01*
X3975000Y4155000D01*
Y4115000D01*
G01X4205000Y4045000D02*
X4115000D01*
Y4070000D01*
X4119500Y4078000D01*
X4125500Y4083000D01*
X4137500Y4085000D01*
X4149500Y4083000D01*
X4157000Y4077000D01*
X4161500Y4070000D01*
Y4045000D01*
G01Y4070000D02*
X4205000Y4085000D01*
G01Y4135000D02*
X4203500Y4142000D01*
X4199000Y4150000D01*
X4191500Y4155000D01*
X4181000Y4157000D01*
X4170500Y4155000D01*
X4161500Y4149000D01*
X4157000Y4140000D01*
Y4130000D01*
X4154000Y4124000D01*
X4146500Y4119000D01*
X4136000Y4117000D01*
X4125500Y4120000D01*
X4118000Y4127000D01*
X4115000Y4135000D01*
X4118000Y4143000D01*
X4125500Y4150000D01*
X4136000Y4153000D01*
X4146500Y4151000D01*
X4154000Y4146000D01*
X4157000Y4140000D01*
Y4130000D01*
X4161500Y4121000D01*
X4170500Y4115000D01*
X4181000Y4113000D01*
X4191500Y4115000D01*
X4199000Y4120000D01*
X4203500Y4128000D01*
X4205000Y4135000D01*
G01X4697000Y3102500D02*
X4691000Y3107000D01*
X4684000Y3110000D01*
X4676000D01*
X4667000Y3105500D01*
X4660000Y3098000D01*
X4655000Y3089000D01*
X4651000Y3074000D01*
X4650000Y3060500D01*
X4652000Y3047000D01*
X4655000Y3038000D01*
X4661000Y3029000D01*
X4668000Y3023000D01*
X4675000Y3020000D01*
X4682000D01*
X4689000Y3023000D01*
X4695000Y3027500D01*
X4700000Y3033500D01*
G01X4723000D02*
X4729000Y3026000D01*
X4736000Y3021500D01*
X4745000Y3020000D01*
X4754000Y3023000D01*
X4761000Y3029000D01*
X4766000Y3039500D01*
X4767000Y3051500D01*
X4765000Y3063500D01*
X4760000Y3071000D01*
X4753000Y3077000D01*
X4746000Y3078500D01*
X4739000Y3077000D01*
X4730000Y3071000D01*
X4733000Y3110000D01*
X4760000D01*
G01X4660000Y2910000D02*
Y3000000D01*
X4685000D01*
X4693000Y2995500D01*
X4698000Y2989500D01*
X4700000Y2977500D01*
X4698000Y2965500D01*
X4692000Y2958000D01*
X4685000Y2953500D01*
X4660000D01*
G01X4685000D02*
X4700000Y2910000D01*
G01X4750000D02*
Y3000000D01*
X4738000Y2982000D01*
G01Y2910000D02*
X4762000D01*
G01X4803000Y2920500D02*
X4810000Y2913000D01*
X4818000Y2910000D01*
X4826000Y2913000D01*
X4833000Y2922000D01*
X4838000Y2935500D01*
X4840000Y2949000D01*
Y2965500D01*
X4838000Y2979000D01*
X4833000Y2991000D01*
X4827000Y2997000D01*
X4820000Y3000000D01*
X4812000Y2997000D01*
X4806000Y2991000D01*
X4802000Y2982000D01*
X4800000Y2970000D01*
X4802000Y2959500D01*
X4807000Y2949000D01*
X4813000Y2943000D01*
X4820000Y2941500D01*
X4828000Y2944500D01*
X4834000Y2952000D01*
X4840000Y2965500D01*
G01X4660000Y3305000D02*
Y3395000D01*
X4685000D01*
X4693000Y3390500D01*
X4698000Y3384500D01*
X4700000Y3372500D01*
X4698000Y3360500D01*
X4692000Y3353000D01*
X4685000Y3348500D01*
X4660000D01*
G01X4685000D02*
X4700000Y3305000D01*
G01X4750000D02*
Y3395000D01*
X4738000Y3377000D01*
G01Y3305000D02*
X4762000D01*
G01X4798000Y3323000D02*
X4804000Y3312500D01*
X4812000Y3306500D01*
X4821000Y3305000D01*
X4829000Y3306500D01*
X4837000Y3314000D01*
X4842000Y3323000D01*
X4843000Y3332000D01*
X4841000Y3342500D01*
X4834000Y3350000D01*
X4827000Y3353000D01*
X4818000D01*
G01X4827000D02*
X4833000Y3357500D01*
X4838000Y3365000D01*
X4840000Y3374000D01*
X4838000Y3383000D01*
X4833000Y3390500D01*
X4824000Y3395000D01*
X4815000Y3393500D01*
X4806000Y3387500D01*
G01X4660000Y3445000D02*
Y3535000D01*
X4685000D01*
X4693000Y3530500D01*
X4698000Y3524500D01*
X4700000Y3512500D01*
X4698000Y3500500D01*
X4692000Y3493000D01*
X4685000Y3488500D01*
X4660000D01*
G01X4685000D02*
X4700000Y3445000D01*
G01X4750000D02*
Y3535000D01*
X4738000Y3517000D01*
G01Y3445000D02*
X4762000D01*
G01X4801000Y3520000D02*
X4807000Y3529000D01*
X4814000Y3533500D01*
X4822000Y3535000D01*
X4832000Y3532000D01*
X4839000Y3524500D01*
X4841000Y3515500D01*
X4840000Y3506500D01*
X4836000Y3499000D01*
X4816000Y3484000D01*
X4807000Y3473500D01*
X4801000Y3458500D01*
X4799000Y3445000D01*
X4841000D01*
G01X4655000Y3580000D02*
Y3670000D01*
X4680000D01*
X4688000Y3665500D01*
X4693000Y3659500D01*
X4695000Y3647500D01*
X4693000Y3635500D01*
X4687000Y3628000D01*
X4680000Y3623500D01*
X4655000D01*
G01X4680000D02*
X4695000Y3580000D01*
G01X4728000Y3590500D02*
X4735000Y3583000D01*
X4743000Y3580000D01*
X4751000Y3583000D01*
X4758000Y3592000D01*
X4763000Y3605500D01*
X4765000Y3619000D01*
Y3635500D01*
X4763000Y3649000D01*
X4758000Y3661000D01*
X4752000Y3667000D01*
X4745000Y3670000D01*
X4737000Y3667000D01*
X4731000Y3661000D01*
X4727000Y3652000D01*
X4725000Y3640000D01*
X4727000Y3629500D01*
X4732000Y3619000D01*
X4738000Y3613000D01*
X4745000Y3611500D01*
X4753000Y3614500D01*
X4759000Y3622000D01*
X4765000Y3635500D01*
G01X4282000Y4112500D02*
X4276000Y4117000D01*
X4269000Y4120000D01*
X4261000D01*
X4252000Y4115500D01*
X4245000Y4108000D01*
X4240000Y4099000D01*
X4236000Y4084000D01*
X4235000Y4070500D01*
X4237000Y4057000D01*
X4240000Y4048000D01*
X4246000Y4039000D01*
X4253000Y4033000D01*
X4260000Y4030000D01*
X4267000D01*
X4274000Y4033000D01*
X4280000Y4037500D01*
X4285000Y4043500D01*
G01X4310000Y4120000D02*
Y4030000D01*
X4350000D01*
G01X4378000D02*
Y4120000D01*
G01X4416000D02*
X4378000Y4064500D01*
G01X4422000Y4030000D02*
X4395000Y4090000D01*
G01X4510000Y4120000D02*
X4524000Y4030000D01*
X4540000Y4120000D01*
X4556000Y4030000D01*
X4570000Y4120000D01*
G01X4588000Y4030000D02*
Y4120000D01*
X4608000D01*
X4616000Y4115500D01*
X4622000Y4109500D01*
X4627000Y4100500D01*
X4631000Y4090000D01*
X4632000Y4075000D01*
X4631000Y4060000D01*
X4627000Y4049500D01*
X4622000Y4040500D01*
X4616000Y4034500D01*
X4608000Y4030000D01*
X4588000D01*
G01X4260000Y4255000D02*
Y4165000D01*
G01X4237000Y4255000D02*
X4283000D01*
G01X4310000Y4165000D02*
Y4255000D01*
X4334000D01*
X4342000Y4250500D01*
X4348000Y4240000D01*
X4350000Y4228000D01*
X4348000Y4216000D01*
X4343000Y4207000D01*
X4334000Y4202500D01*
X4310000D01*
G01X4400000Y4165000D02*
Y4255000D01*
X4388000Y4237000D01*
G01Y4165000D02*
X4412000D01*
G01X4470000Y4255000D02*
Y4165000D01*
G01X4447000Y4255000D02*
X4493000D01*
G01X4520000Y4165000D02*
Y4255000D01*
X4544000D01*
X4552000Y4250500D01*
X4558000Y4240000D01*
X4560000Y4228000D01*
X4558000Y4216000D01*
X4553000Y4207000D01*
X4544000Y4202500D01*
X4520000D01*
G01X4591000Y4240000D02*
X4597000Y4249000D01*
X4604000Y4253500D01*
X4612000Y4255000D01*
X4622000Y4252000D01*
X4629000Y4244500D01*
X4631000Y4235500D01*
X4630000Y4226500D01*
X4626000Y4219000D01*
X4606000Y4204000D01*
X4597000Y4193500D01*
X4591000Y4178500D01*
X4589000Y4165000D01*
X4631000D01*
G01X5130000Y2735000D02*
Y2825000D01*
X5155000D01*
X5163000Y2820500D01*
X5168000Y2814500D01*
X5170000Y2802500D01*
X5168000Y2790500D01*
X5162000Y2783000D01*
X5155000Y2778500D01*
X5130000D01*
G01X5155000D02*
X5170000Y2735000D01*
G01X5220000D02*
Y2825000D01*
X5208000Y2807000D01*
G01Y2735000D02*
X5232000D01*
G01X5271000Y2772500D02*
X5278000Y2783000D01*
X5284000Y2789000D01*
X5292000Y2792000D01*
X5299000Y2789000D01*
X5304000Y2783000D01*
X5308000Y2774000D01*
X5309000Y2763500D01*
X5308000Y2754500D01*
X5304000Y2745500D01*
X5298000Y2738000D01*
X5291000Y2735000D01*
X5283000Y2738000D01*
X5276000Y2747000D01*
X5272000Y2760500D01*
X5271000Y2775500D01*
X5273000Y2795000D01*
X5276000Y2805500D01*
X5281000Y2816000D01*
X5288000Y2823500D01*
X5295000Y2825000D01*
X5302000Y2822000D01*
X5307000Y2814500D01*
G01X4890000Y2735000D02*
Y2825000D01*
X4915000D01*
X4923000Y2820500D01*
X4928000Y2814500D01*
X4930000Y2802500D01*
X4928000Y2790500D01*
X4922000Y2783000D01*
X4915000Y2778500D01*
X4890000D01*
G01X4915000D02*
X4930000Y2735000D01*
G01X4980000D02*
Y2825000D01*
X4968000Y2807000D01*
G01Y2735000D02*
X4992000D01*
G01X5028000Y2748500D02*
X5034000Y2741000D01*
X5041000Y2736500D01*
X5050000Y2735000D01*
X5059000Y2738000D01*
X5066000Y2744000D01*
X5071000Y2754500D01*
X5072000Y2766500D01*
X5070000Y2778500D01*
X5065000Y2786000D01*
X5058000Y2792000D01*
X5051000Y2793500D01*
X5044000Y2792000D01*
X5035000Y2786000D01*
X5038000Y2825000D01*
X5065000D01*
G01X5130000Y2615000D02*
Y2705000D01*
X5155000D01*
X5163000Y2700500D01*
X5168000Y2694500D01*
X5170000Y2682500D01*
X5168000Y2670500D01*
X5162000Y2663000D01*
X5155000Y2658500D01*
X5130000D01*
G01X5155000D02*
X5170000Y2615000D01*
G01X5201000Y2690000D02*
X5207000Y2699000D01*
X5214000Y2703500D01*
X5222000Y2705000D01*
X5232000Y2702000D01*
X5239000Y2694500D01*
X5241000Y2685500D01*
X5240000Y2676500D01*
X5236000Y2669000D01*
X5216000Y2654000D01*
X5207000Y2643500D01*
X5201000Y2628500D01*
X5199000Y2615000D01*
X5241000D01*
G01X5290000D02*
Y2705000D01*
X5278000Y2687000D01*
G01Y2615000D02*
X5302000D01*
G01X4890000D02*
Y2705000D01*
X4915000D01*
X4923000Y2700500D01*
X4928000Y2694500D01*
X4930000Y2682500D01*
X4928000Y2670500D01*
X4922000Y2663000D01*
X4915000Y2658500D01*
X4890000D01*
G01X4915000D02*
X4930000Y2615000D01*
G01X4961000Y2690000D02*
X4967000Y2699000D01*
X4974000Y2703500D01*
X4982000Y2705000D01*
X4992000Y2702000D01*
X4999000Y2694500D01*
X5001000Y2685500D01*
X5000000Y2676500D01*
X4996000Y2669000D01*
X4976000Y2654000D01*
X4967000Y2643500D01*
X4961000Y2628500D01*
X4959000Y2615000D01*
X5001000D01*
G01X5050000Y2705000D02*
X5042000Y2702000D01*
X5036000Y2694500D01*
X5032000Y2685500D01*
X5029000Y2673500D01*
X5028000Y2660000D01*
X5029000Y2646500D01*
X5032000Y2634500D01*
X5036000Y2625500D01*
X5042000Y2618000D01*
X5050000Y2615000D01*
X5058000Y2618000D01*
X5064000Y2625500D01*
X5068000Y2634500D01*
X5071000Y2646500D01*
X5072000Y2660000D01*
X5071000Y2673500D01*
X5068000Y2685500D01*
X5064000Y2694500D01*
X5058000Y2702000D01*
X5050000Y2705000D01*
G01X5195000Y3393000D02*
X5105000D01*
Y3413000D01*
X5109500Y3421000D01*
X5115500Y3427000D01*
X5124500Y3432000D01*
X5135000Y3436000D01*
X5150000Y3437000D01*
X5165000Y3436000D01*
X5175500Y3432000D01*
X5184500Y3427000D01*
X5190500Y3421000D01*
X5195000Y3413000D01*
Y3393000D01*
G01X5177000Y3463000D02*
X5187500Y3469000D01*
X5193500Y3477000D01*
X5195000Y3486000D01*
X5193500Y3494000D01*
X5186000Y3502000D01*
X5177000Y3507000D01*
X5168000Y3508000D01*
X5157500Y3506000D01*
X5150000Y3499000D01*
X5147000Y3492000D01*
Y3483000D01*
G01Y3492000D02*
X5142500Y3498000D01*
X5135000Y3503000D01*
X5126000Y3505000D01*
X5117000Y3503000D01*
X5109500Y3498000D01*
X5105000Y3489000D01*
X5106500Y3480000D01*
X5112500Y3471000D01*
G01X5075000Y3393000D02*
X4985000D01*
Y3413000D01*
X4989500Y3421000D01*
X4995500Y3427000D01*
X5004500Y3432000D01*
X5015000Y3436000D01*
X5030000Y3437000D01*
X5045000Y3436000D01*
X5055500Y3432000D01*
X5064500Y3427000D01*
X5070500Y3421000D01*
X5075000Y3413000D01*
Y3393000D01*
G01X5000000Y3466000D02*
X4991000Y3472000D01*
X4986500Y3479000D01*
X4985000Y3487000D01*
X4988000Y3497000D01*
X4995500Y3504000D01*
X5004500Y3506000D01*
X5013500Y3505000D01*
X5021000Y3501000D01*
X5036000Y3481000D01*
X5046500Y3472000D01*
X5061500Y3466000D01*
X5075000Y3464000D01*
Y3506000D01*
G01X4955000Y3393000D02*
X4865000D01*
Y3413000D01*
X4869500Y3421000D01*
X4875500Y3427000D01*
X4884500Y3432000D01*
X4895000Y3436000D01*
X4910000Y3437000D01*
X4925000Y3436000D01*
X4935500Y3432000D01*
X4944500Y3427000D01*
X4950500Y3421000D01*
X4955000Y3413000D01*
Y3393000D01*
G01Y3485000D02*
X4865000D01*
X4883000Y3473000D01*
G01X4955000D02*
Y3497000D01*
G01X5340000Y1521740D02*
X5467000D01*
X5441600Y1541040D01*
G01X5340000D02*
Y1502440D01*
G01X5765000Y2258000D02*
X5770000Y2249000D01*
X5776000Y2243000D01*
X5783000Y2240000D01*
X5791000Y2243000D01*
X5797000Y2249000D01*
X5803000Y2258000D01*
X5805000Y2270000D01*
Y2330000D01*
G01X5833000Y2253500D02*
X5839000Y2246000D01*
X5846000Y2241500D01*
X5855000Y2240000D01*
X5864000Y2243000D01*
X5871000Y2249000D01*
X5876000Y2259500D01*
X5877000Y2271500D01*
X5875000Y2283500D01*
X5870000Y2291000D01*
X5863000Y2297000D01*
X5856000Y2298500D01*
X5849000Y2297000D01*
X5840000Y2291000D01*
X5843000Y2330000D01*
X5870000D01*
G01X5370000Y2735000D02*
Y2825000D01*
X5395000D01*
X5403000Y2820500D01*
X5408000Y2814500D01*
X5410000Y2802500D01*
X5408000Y2790500D01*
X5402000Y2783000D01*
X5395000Y2778500D01*
X5370000D01*
G01X5395000D02*
X5410000Y2735000D01*
G01X5460000D02*
Y2825000D01*
X5448000Y2807000D01*
G01Y2735000D02*
X5472000D01*
G01X5528000D02*
X5530000Y2754500D01*
X5533000Y2771000D01*
X5537000Y2786000D01*
X5542000Y2802500D01*
X5550000Y2825000D01*
X5510000D01*
G01X5370000Y2615000D02*
Y2705000D01*
X5395000D01*
X5403000Y2700500D01*
X5408000Y2694500D01*
X5410000Y2682500D01*
X5408000Y2670500D01*
X5402000Y2663000D01*
X5395000Y2658500D01*
X5370000D01*
G01X5395000D02*
X5410000Y2615000D01*
G01X5441000Y2690000D02*
X5447000Y2699000D01*
X5454000Y2703500D01*
X5462000Y2705000D01*
X5472000Y2702000D01*
X5479000Y2694500D01*
X5481000Y2685500D01*
X5480000Y2676500D01*
X5476000Y2669000D01*
X5456000Y2654000D01*
X5447000Y2643500D01*
X5441000Y2628500D01*
X5439000Y2615000D01*
X5481000D01*
G01X5511000Y2690000D02*
X5517000Y2699000D01*
X5524000Y2703500D01*
X5532000Y2705000D01*
X5542000Y2702000D01*
X5549000Y2694500D01*
X5551000Y2685500D01*
X5550000Y2676500D01*
X5546000Y2669000D01*
X5526000Y2654000D01*
X5517000Y2643500D01*
X5511000Y2628500D01*
X5509000Y2615000D01*
X5551000D01*
G01X5315000Y3393000D02*
X5225000D01*
Y3413000D01*
X5229500Y3421000D01*
X5235500Y3427000D01*
X5244500Y3432000D01*
X5255000Y3436000D01*
X5270000Y3437000D01*
X5285000Y3436000D01*
X5295500Y3432000D01*
X5304500Y3427000D01*
X5310500Y3421000D01*
X5315000Y3413000D01*
Y3393000D01*
G01Y3497000D02*
X5225000D01*
X5289500Y3460000D01*
Y3510000D01*
G01X5555000Y3393000D02*
X5465000D01*
Y3413000D01*
X5469500Y3421000D01*
X5475500Y3427000D01*
X5484500Y3432000D01*
X5495000Y3436000D01*
X5510000Y3437000D01*
X5525000Y3436000D01*
X5535500Y3432000D01*
X5544500Y3427000D01*
X5550500Y3421000D01*
X5555000Y3413000D01*
Y3393000D01*
G01X5517500Y3466000D02*
X5507000Y3473000D01*
X5501000Y3479000D01*
X5498000Y3487000D01*
X5501000Y3494000D01*
X5507000Y3499000D01*
X5516000Y3503000D01*
X5526500Y3504000D01*
X5535500Y3503000D01*
X5544500Y3499000D01*
X5552000Y3493000D01*
X5555000Y3486000D01*
X5552000Y3478000D01*
X5543000Y3471000D01*
X5529500Y3467000D01*
X5514500Y3466000D01*
X5495000Y3468000D01*
X5484500Y3471000D01*
X5474000Y3476000D01*
X5466500Y3483000D01*
X5465000Y3490000D01*
X5468000Y3497000D01*
X5475500Y3502000D01*
G01X5435000Y3393000D02*
X5345000D01*
Y3413000D01*
X5349500Y3421000D01*
X5355500Y3427000D01*
X5364500Y3432000D01*
X5375000Y3436000D01*
X5390000Y3437000D01*
X5405000Y3436000D01*
X5415500Y3432000D01*
X5424500Y3427000D01*
X5430500Y3421000D01*
X5435000Y3413000D01*
Y3393000D01*
G01X5421500Y3463000D02*
X5429000Y3469000D01*
X5433500Y3476000D01*
X5435000Y3485000D01*
X5432000Y3494000D01*
X5426000Y3501000D01*
X5415500Y3506000D01*
X5403500Y3507000D01*
X5391500Y3505000D01*
X5384000Y3500000D01*
X5378000Y3493000D01*
X5376500Y3486000D01*
X5378000Y3479000D01*
X5384000Y3470000D01*
X5345000Y3473000D01*
Y3500000D01*
G01X5765000Y4948000D02*
X5770000Y4939000D01*
X5776000Y4933000D01*
X5783000Y4930000D01*
X5791000Y4933000D01*
X5797000Y4939000D01*
X5803000Y4948000D01*
X5805000Y4960000D01*
Y5020000D01*
G01X5855000Y4930000D02*
Y5020000D01*
X5843000Y5002000D01*
G01Y4930000D02*
X5867000D01*
G01X6060000Y755000D02*
Y845000D01*
X6085000D01*
X6093000Y840500D01*
X6098000Y834500D01*
X6100000Y822500D01*
X6098000Y810500D01*
X6092000Y803000D01*
X6085000Y798500D01*
X6060000D01*
G01X6085000D02*
X6100000Y755000D01*
G01X6162000D02*
Y845000D01*
X6125000Y780500D01*
X6175000D01*
G01X6201000Y830000D02*
X6207000Y839000D01*
X6214000Y843500D01*
X6222000Y845000D01*
X6232000Y842000D01*
X6239000Y834500D01*
X6241000Y825500D01*
X6240000Y816500D01*
X6236000Y809000D01*
X6216000Y794000D01*
X6207000Y783500D01*
X6201000Y768500D01*
X6199000Y755000D01*
X6241000D01*
G01X6060000Y1265000D02*
Y1355000D01*
X6085000D01*
X6093000Y1350500D01*
X6098000Y1344500D01*
X6100000Y1332500D01*
X6098000Y1320500D01*
X6092000Y1313000D01*
X6085000Y1308500D01*
X6060000D01*
G01X6085000D02*
X6100000Y1265000D01*
G01X6128000Y1283000D02*
X6134000Y1272500D01*
X6142000Y1266500D01*
X6151000Y1265000D01*
X6159000Y1266500D01*
X6167000Y1274000D01*
X6172000Y1283000D01*
X6173000Y1292000D01*
X6171000Y1302500D01*
X6164000Y1310000D01*
X6157000Y1313000D01*
X6148000D01*
G01X6157000D02*
X6163000Y1317500D01*
X6168000Y1325000D01*
X6170000Y1334000D01*
X6168000Y1343000D01*
X6163000Y1350500D01*
X6154000Y1355000D01*
X6145000Y1353500D01*
X6136000Y1347500D01*
G01X6203000Y1275500D02*
X6210000Y1268000D01*
X6218000Y1265000D01*
X6226000Y1268000D01*
X6233000Y1277000D01*
X6238000Y1290500D01*
X6240000Y1304000D01*
Y1320500D01*
X6238000Y1334000D01*
X6233000Y1346000D01*
X6227000Y1352000D01*
X6220000Y1355000D01*
X6212000Y1352000D01*
X6206000Y1346000D01*
X6202000Y1337000D01*
X6200000Y1325000D01*
X6202000Y1314500D01*
X6207000Y1304000D01*
X6213000Y1298000D01*
X6220000Y1296500D01*
X6228000Y1299500D01*
X6234000Y1307000D01*
X6240000Y1320500D01*
G01X6060000Y1775000D02*
Y1865000D01*
X6085000D01*
X6093000Y1860500D01*
X6098000Y1854500D01*
X6100000Y1842500D01*
X6098000Y1830500D01*
X6092000Y1823000D01*
X6085000Y1818500D01*
X6060000D01*
G01X6085000D02*
X6100000Y1775000D01*
G01X6128000Y1793000D02*
X6134000Y1782500D01*
X6142000Y1776500D01*
X6151000Y1775000D01*
X6159000Y1776500D01*
X6167000Y1784000D01*
X6172000Y1793000D01*
X6173000Y1802000D01*
X6171000Y1812500D01*
X6164000Y1820000D01*
X6157000Y1823000D01*
X6148000D01*
G01X6157000D02*
X6163000Y1827500D01*
X6168000Y1835000D01*
X6170000Y1844000D01*
X6168000Y1853000D01*
X6163000Y1860500D01*
X6154000Y1865000D01*
X6145000Y1863500D01*
X6136000Y1857500D01*
G01X6220000Y1775000D02*
Y1865000D01*
X6208000Y1847000D01*
G01Y1775000D02*
X6232000D01*
G01X6060000Y2285000D02*
Y2375000D01*
X6085000D01*
X6093000Y2370500D01*
X6098000Y2364500D01*
X6100000Y2352500D01*
X6098000Y2340500D01*
X6092000Y2333000D01*
X6085000Y2328500D01*
X6060000D01*
G01X6085000D02*
X6100000Y2285000D01*
G01X6131000Y2360000D02*
X6137000Y2369000D01*
X6144000Y2373500D01*
X6152000Y2375000D01*
X6162000Y2372000D01*
X6169000Y2364500D01*
X6171000Y2355500D01*
X6170000Y2346500D01*
X6166000Y2339000D01*
X6146000Y2324000D01*
X6137000Y2313500D01*
X6131000Y2298500D01*
X6129000Y2285000D01*
X6171000D01*
G01X6198000Y2303000D02*
X6204000Y2292500D01*
X6212000Y2286500D01*
X6221000Y2285000D01*
X6229000Y2286500D01*
X6237000Y2294000D01*
X6242000Y2303000D01*
X6243000Y2312000D01*
X6241000Y2322500D01*
X6234000Y2330000D01*
X6227000Y2333000D01*
X6218000D01*
G01X6227000D02*
X6233000Y2337500D01*
X6238000Y2345000D01*
X6240000Y2354000D01*
X6238000Y2363000D01*
X6233000Y2370500D01*
X6224000Y2375000D01*
X6215000Y2373500D01*
X6206000Y2367500D01*
G01X6060000Y3175000D02*
Y3265000D01*
X6085000D01*
X6093000Y3260500D01*
X6098000Y3254500D01*
X6100000Y3242500D01*
X6098000Y3230500D01*
X6092000Y3223000D01*
X6085000Y3218500D01*
X6060000D01*
G01X6085000D02*
X6100000Y3175000D01*
G01X6150000D02*
Y3265000D01*
X6138000Y3247000D01*
G01Y3175000D02*
X6162000D01*
G01X6232000D02*
Y3265000D01*
X6195000Y3200500D01*
X6245000D01*
G01X6060000Y3685000D02*
Y3775000D01*
X6085000D01*
X6093000Y3770500D01*
X6098000Y3764500D01*
X6100000Y3752500D01*
X6098000Y3740500D01*
X6092000Y3733000D01*
X6085000Y3728500D01*
X6060000D01*
G01X6085000D02*
X6100000Y3685000D01*
G01X6150000D02*
Y3775000D01*
X6138000Y3757000D01*
G01Y3685000D02*
X6162000D01*
G01X6220000D02*
Y3775000D01*
X6208000Y3757000D01*
G01Y3685000D02*
X6232000D01*
G01X6060000Y3805000D02*
Y3895000D01*
X6085000D01*
X6093000Y3890500D01*
X6098000Y3884500D01*
X6100000Y3872500D01*
X6098000Y3860500D01*
X6092000Y3853000D01*
X6085000Y3848500D01*
X6060000D01*
G01X6085000D02*
X6100000Y3805000D01*
G01X6150000D02*
Y3895000D01*
X6138000Y3877000D01*
G01Y3805000D02*
X6162000D01*
G01X6220000Y3895000D02*
X6212000Y3892000D01*
X6206000Y3884500D01*
X6202000Y3875500D01*
X6199000Y3863500D01*
X6198000Y3850000D01*
X6199000Y3836500D01*
X6202000Y3824500D01*
X6206000Y3815500D01*
X6212000Y3808000D01*
X6220000Y3805000D01*
X6228000Y3808000D01*
X6234000Y3815500D01*
X6238000Y3824500D01*
X6241000Y3836500D01*
X6242000Y3850000D01*
X6241000Y3863500D01*
X6238000Y3875500D01*
X6234000Y3884500D01*
X6228000Y3892000D01*
X6220000Y3895000D01*
G01X6275000Y5048000D02*
X6280000Y5039000D01*
X6286000Y5033000D01*
X6293000Y5030000D01*
X6301000Y5033000D01*
X6307000Y5039000D01*
X6313000Y5048000D01*
X6315000Y5060000D01*
Y5120000D01*
G01X6377000Y5030000D02*
Y5120000D01*
X6340000Y5055500D01*
X6390000D01*
G01X6065000Y4950000D02*
Y5040000D01*
X6090000D01*
X6098000Y5035500D01*
X6103000Y5029500D01*
X6105000Y5017500D01*
X6103000Y5005500D01*
X6097000Y4998000D01*
X6090000Y4993500D01*
X6065000D01*
G01X6090000D02*
X6105000Y4950000D01*
G01X6133000Y4968000D02*
X6139000Y4957500D01*
X6147000Y4951500D01*
X6156000Y4950000D01*
X6164000Y4951500D01*
X6172000Y4959000D01*
X6177000Y4968000D01*
X6178000Y4977000D01*
X6176000Y4987500D01*
X6169000Y4995000D01*
X6162000Y4998000D01*
X6153000D01*
G01X6162000D02*
X6168000Y5002500D01*
X6173000Y5010000D01*
X6175000Y5019000D01*
X6173000Y5028000D01*
X6168000Y5035500D01*
X6159000Y5040000D01*
X6150000Y5038500D01*
X6141000Y5032500D01*
M02*
