G04 ================== begin FILE IDENTIFICATION RECORD ==================*
G04 Layout Name:  MCF8316A_V10_211228.brd*
G04 Film Name:    SilkScreen_Bottom*
G04 File Format:  Gerber RS274X*
G04 File Origin:  Cadence Allegro 17.2-S071*
G04 Origin Date:  Thu Mar 10 20:12:21 2022*
G04 *
G04 Layer:  REF DES/SILKSCREEN_BOTTOM*
G04 Layer:  PACKAGE GEOMETRY/SILKSCREEN_BOTTOM*
G04 Layer:  BOARD GEOMETRY/SILKSCREEN_BOTTOM*
G04 *
G04 Offset:    (0.0000 0.0000)*
G04 Mirror:    No*
G04 Mode:      Positive*
G04 Rotation:  0*
G04 FullContactRelief:  No*
G04 UndefLineWidth:     0.1524*
G04 ================== end FILE IDENTIFICATION RECORD ====================*
%FSLAX55Y55*MOMM*%
%IR0*IPPOS*OFA0.00000B0.00000*MIA0B0*SFA1.00000B1.00000*%
%ADD10C,.2*%
%ADD11C,.1524*%
G75*
%LPD*%
G75*
G54D10*
G01X3860000Y450000D02*
X2960000D01*
Y20000D01*
X3860000D01*
Y450000D01*
G54D11*
G01X3816000Y320000D02*
Y410000D01*
X3790000Y335000D01*
X3764000Y410000D01*
Y320000D01*
G01X3698000Y402500D02*
X3704000Y407000D01*
X3711000Y410000D01*
X3719000D01*
X3728000Y405500D01*
X3735000Y398000D01*
X3740000Y389000D01*
X3744000Y374000D01*
X3745000Y360500D01*
X3743000Y347000D01*
X3740000Y338000D01*
X3734000Y329000D01*
X3727000Y323000D01*
X3720000Y320000D01*
X3713000D01*
X3706000Y323000D01*
X3700000Y327500D01*
X3695000Y333500D01*
G01X3669000Y320000D02*
Y410000D01*
X3631000D01*
G01X3645000Y366500D02*
X3669000D01*
G01X3580000Y320000D02*
X3573000Y321500D01*
X3565000Y326000D01*
X3560000Y333500D01*
X3558000Y344000D01*
X3560000Y354500D01*
X3566000Y363500D01*
X3575000Y368000D01*
X3585000D01*
X3591000Y371000D01*
X3596000Y378500D01*
X3598000Y389000D01*
X3595000Y399500D01*
X3588000Y407000D01*
X3580000Y410000D01*
X3572000Y407000D01*
X3565000Y399500D01*
X3562000Y389000D01*
X3564000Y378500D01*
X3569000Y371000D01*
X3575000Y368000D01*
X3585000D01*
X3594000Y363500D01*
X3600000Y354500D01*
X3602000Y344000D01*
X3600000Y333500D01*
X3595000Y326000D01*
X3587000Y321500D01*
X3580000Y320000D01*
G01X3532000Y338000D02*
X3526000Y327500D01*
X3518000Y321500D01*
X3509000Y320000D01*
X3501000Y321500D01*
X3493000Y329000D01*
X3488000Y338000D01*
X3487000Y347000D01*
X3489000Y357500D01*
X3496000Y365000D01*
X3503000Y368000D01*
X3512000D01*
G01X3503000D02*
X3497000Y372500D01*
X3492000Y380000D01*
X3490000Y389000D01*
X3492000Y398000D01*
X3497000Y405500D01*
X3506000Y410000D01*
X3515000Y408500D01*
X3524000Y402500D01*
G01X3440000Y320000D02*
Y410000D01*
X3452000Y392000D01*
G01Y320000D02*
X3428000D01*
G01X3389000Y357500D02*
X3382000Y368000D01*
X3376000Y374000D01*
X3368000Y377000D01*
X3361000Y374000D01*
X3356000Y368000D01*
X3352000Y359000D01*
X3351000Y348500D01*
X3352000Y339500D01*
X3356000Y330500D01*
X3362000Y323000D01*
X3369000Y320000D01*
X3377000Y323000D01*
X3384000Y332000D01*
X3388000Y345500D01*
X3389000Y360500D01*
X3387000Y380000D01*
X3384000Y390500D01*
X3379000Y401000D01*
X3372000Y408500D01*
X3365000Y410000D01*
X3358000Y407000D01*
X3353000Y399500D01*
G01X3325000Y320000D02*
X3300000Y410000D01*
X3275000Y320000D01*
G01X3284000Y351500D02*
X3316000D01*
G01X3260000Y290000D02*
X3200000D01*
G01X3185000Y410000D02*
X3160000Y320000D01*
X3135000Y410000D01*
G01X3090000Y320000D02*
Y410000D01*
X3102000Y392000D01*
G01Y320000D02*
X3078000D01*
G01X3020000Y410000D02*
X3028000Y407000D01*
X3034000Y399500D01*
X3038000Y390500D01*
X3041000Y378500D01*
X3042000Y365000D01*
X3041000Y351500D01*
X3038000Y339500D01*
X3034000Y330500D01*
X3028000Y323000D01*
X3020000Y320000D01*
X3012000Y323000D01*
X3006000Y330500D01*
X3002000Y339500D01*
X2999000Y351500D01*
X2998000Y365000D01*
X2999000Y378500D01*
X3002000Y390500D01*
X3006000Y399500D01*
X3012000Y407000D01*
X3020000Y410000D01*
G01X3799000Y265000D02*
X3793000Y274000D01*
X3786000Y278500D01*
X3778000Y280000D01*
X3768000Y277000D01*
X3761000Y269500D01*
X3759000Y260500D01*
X3760000Y251500D01*
X3764000Y244000D01*
X3784000Y229000D01*
X3793000Y218500D01*
X3799000Y203500D01*
X3801000Y190000D01*
X3759000D01*
G01X3710000D02*
Y280000D01*
X3722000Y262000D01*
G01Y190000D02*
X3698000D01*
G01X3640000D02*
Y280000D01*
X3652000Y262000D01*
G01Y190000D02*
X3628000D01*
G01X3589000Y265000D02*
X3583000Y274000D01*
X3576000Y278500D01*
X3568000Y280000D01*
X3558000Y277000D01*
X3551000Y269500D01*
X3549000Y260500D01*
X3550000Y251500D01*
X3554000Y244000D01*
X3574000Y229000D01*
X3583000Y218500D01*
X3589000Y203500D01*
X3591000Y190000D01*
X3549000D01*
G01X3519000Y265000D02*
X3513000Y274000D01*
X3506000Y278500D01*
X3498000Y280000D01*
X3488000Y277000D01*
X3481000Y269500D01*
X3479000Y260500D01*
X3480000Y251500D01*
X3484000Y244000D01*
X3504000Y229000D01*
X3513000Y218500D01*
X3519000Y203500D01*
X3521000Y190000D01*
X3479000D01*
G01X3430000D02*
X3423000Y191500D01*
X3415000Y196000D01*
X3410000Y203500D01*
X3408000Y214000D01*
X3410000Y224500D01*
X3416000Y233500D01*
X3425000Y238000D01*
X3435000D01*
X3441000Y241000D01*
X3446000Y248500D01*
X3448000Y259000D01*
X3445000Y269500D01*
X3438000Y277000D01*
X3430000Y280000D01*
X3422000Y277000D01*
X3415000Y269500D01*
X3412000Y259000D01*
X3414000Y248500D01*
X3419000Y241000D01*
X3425000Y238000D01*
X3435000D01*
X3444000Y233500D01*
X3450000Y224500D01*
X3452000Y214000D01*
X3450000Y203500D01*
X3445000Y196000D01*
X3437000Y191500D01*
X3430000Y190000D01*
G01X3801000Y60000D02*
X3759000Y150000D01*
G01X3801000D02*
X3759000Y60000D01*
G01X3731000D02*
X3689000Y150000D01*
G01X3731000D02*
X3689000Y60000D01*
G01X3661000D02*
X3619000Y150000D01*
G01X3661000D02*
X3619000Y60000D01*
G01X3590000Y150000D02*
Y60000D01*
X3550000D01*
G01X3519000Y150000D02*
X3481000D01*
X3519000Y60000D01*
X3481000D01*
G01X3450000Y78000D02*
X3445000Y69000D01*
X3439000Y63000D01*
X3432000Y60000D01*
X3424000Y63000D01*
X3418000Y69000D01*
X3412000Y78000D01*
X3410000Y90000D01*
Y150000D01*
G01X3381000Y60000D02*
X3339000Y150000D01*
G01X3381000D02*
X3339000Y60000D01*
G01X3311000D02*
X3269000Y150000D01*
G01X3311000D02*
X3269000Y60000D01*
G01X3241000D02*
X3199000Y150000D01*
G01X3241000D02*
X3199000Y60000D01*
M02*
