G04 ================== begin FILE IDENTIFICATION RECORD ==================*
G04 Layout Name:  MCF8316A_V10_211228.brd*
G04 Film Name:    SolderMask_Bottom*
G04 File Format:  Gerber RS274X*
G04 File Origin:  Cadence Allegro 17.2-S071*
G04 Origin Date:  Thu Mar 10 20:12:21 2022*
G04 *
G04 Layer:  PIN/SOLDERMASK_BOTTOM*
G04 Layer:  PACKAGE GEOMETRY/SOLDERMASK_BOTTOM*
G04 Layer:  BOARD GEOMETRY/SOLDERMASK_BOTTOM*
G04 *
G04 Offset:    (0.0000 0.0000)*
G04 Mirror:    No*
G04 Mode:      Positive*
G04 Rotation:  0*
G04 FullContactRelief:  No*
G04 UndefLineWidth:     0.1524*
G04 ================== end FILE IDENTIFICATION RECORD ====================*
%FSLAX55Y55*MOMM*%
%IR0*IPPOS*OFA0.00000B0.00000*MIA0B0*SFA1.00000B1.00000*%
%ADD13O,4.15X2.15*%
%ADD15O,2.15X4.15*%
%ADD16C,2.3*%
%ADD14C,1.4*%
%ADD17C,2.6*%
%ADD10C,1.8*%
%ADD12C,1.9*%
%ADD11R,1.9X1.9*%
G75*
%LPD*%
G75*
G36*
G01X3740000Y3530000D02*
Y2950000D01*
X4140000D01*
Y3530000D01*
X3740000D01*
G37*
G54D10*
X310000Y300680D03*
Y554680D03*
Y808680D03*
Y1062680D03*
Y1316680D03*
Y1570680D03*
Y1824680D03*
Y2078680D03*
Y2332680D03*
Y2586680D03*
Y2840680D03*
Y3094680D03*
Y3348680D03*
Y3602680D03*
Y3856680D03*
Y4110680D03*
Y4364680D03*
Y4618680D03*
X564000Y300680D03*
Y554680D03*
Y808680D03*
Y1062680D03*
Y1316680D03*
Y1570680D03*
Y1824680D03*
Y2078680D03*
Y2332680D03*
Y2586680D03*
Y2840680D03*
Y3094680D03*
Y3348680D03*
Y3602680D03*
Y3856680D03*
Y4110680D03*
Y4364680D03*
Y4618680D03*
Y4872680D03*
X6660000Y300680D03*
Y554680D03*
X6406000Y300680D03*
Y554680D03*
X6660000Y808680D03*
Y1062680D03*
X6406000Y808680D03*
Y1062680D03*
X6660000Y1316680D03*
Y1570680D03*
X6406000Y1316680D03*
Y1570680D03*
X6660000Y1824680D03*
Y2078680D03*
X6406000Y1824680D03*
Y2078680D03*
X6660000Y2332680D03*
Y2586680D03*
X6406000Y2332680D03*
Y2586680D03*
X6660000Y2840680D03*
Y3094680D03*
X6406000Y2840680D03*
Y3094680D03*
X6660000Y3348680D03*
Y3602680D03*
Y3856680D03*
X6406000Y3348680D03*
Y3602680D03*
Y3856680D03*
X6660000Y4110680D03*
Y4364680D03*
X6406000Y4110680D03*
Y4364680D03*
X6660000Y4618680D03*
X6406000D03*
X6660000Y4872680D03*
G54D11*
X310000D03*
X1072000Y1570680D03*
Y3856680D03*
X5898000Y300680D03*
Y2485080D03*
X6406000Y4872680D03*
G54D12*
X1072000Y300680D03*
Y554680D03*
Y808680D03*
Y1062680D03*
Y1316680D03*
Y2078680D03*
Y2332680D03*
Y2586680D03*
Y2840680D03*
Y3094680D03*
Y3348680D03*
Y3602680D03*
X5898000Y554680D03*
Y1062680D03*
Y808680D03*
Y1570680D03*
Y1316680D03*
Y2078680D03*
Y1824680D03*
Y2739080D03*
Y3247080D03*
Y2993080D03*
Y3755080D03*
Y3501080D03*
Y4263080D03*
Y4009080D03*
Y4771080D03*
Y4517080D03*
G54D13*
X1700000Y770000D03*
Y1370000D03*
G54D14*
X1840000Y2480000D03*
Y2780000D03*
X2700000Y2480000D03*
Y2780000D03*
G54D15*
X2180000Y1090000D03*
G54D16*
X2679000Y920000D03*
X3441000D03*
G54D17*
X4140000Y1360000D03*
Y1910000D03*
X4560000Y1360000D03*
Y1910000D03*
X4980000Y1360000D03*
Y1910000D03*
X5400000Y1360000D03*
Y1910000D03*
M02*
