G04 ================== begin FILE IDENTIFICATION RECORD ==================*
G04 Layout Name:  MCF8316A_V10_211228.brd*
G04 Film Name:    TOP*
G04 File Format:  Gerber RS274X*
G04 File Origin:  Cadence Allegro 17.2-S071*
G04 Origin Date:  Thu Mar 10 20:12:21 2022*
G04 *
G04 Layer:  VIA CLASS/TOP*
G04 Layer:  PIN/TOP*
G04 Layer:  ETCH/TOP*
G04 *
G04 Offset:    (0.0000 0.0000)*
G04 Mirror:    No*
G04 Mode:      Positive*
G04 Rotation:  0*
G04 FullContactRelief:  No*
G04 UndefLineWidth:     0.1524*
G04 ================== end FILE IDENTIFICATION RECORD ====================*
%FSLAX55Y55*MOMM*%
%IR0*IPPOS*OFA0.00000B0.00000*MIA0B0*SFA1.00000B1.00000*%
%ADD29C,.75*%
%ADD24R,.8X.8*%
%ADD11C,.6096*%
%ADD15O,4.X2.*%
%ADD21R,1.2X1.*%
%ADD18O,2.X4.*%
%ADD20R,4.2X1.4*%
%ADD13R,.5X.6*%
%ADD22R,.6X.5*%
%ADD16R,1.6X1.8*%
%ADD23R,.7X.6*%
%ADD19C,2.2*%
%ADD17C,1.3*%
%ADD27R,.7X.25*%
%ADD26R,.25X.7*%
%ADD25C,2.5*%
%ADD10C,1.7*%
%ADD14C,1.8*%
%ADD28R,3.8X5.8*%
%ADD12R,1.8X1.8*%
%ADD30C,.2032*%
%ADD31C,.254*%
%ADD32C,.508*%
%ADD33C,.762*%
%ADD34O,2.9148X4.9148*%
G75*
%LPD*%
G75*
G36*
G01X4710000Y5170000D02*
X6860000D01*
G02X6930000Y5100000I0J-70000D01*
G01Y100000D01*
G02X6860000Y30000I-70000J0D01*
G01X100000D01*
G02X30000Y100000I0J70000D01*
G01Y5100000D01*
G02X100000Y5170000I70000J0D01*
G01X2010000D01*
G02X2080000Y5100000I0J-70000D01*
G01Y4900000D01*
G03X2210000Y4770000I130000J0D01*
G01X4510000D01*
G03X4640000Y4900000I0J130000D01*
G01Y5100000D01*
G02X4710000Y5170000I70000J0D01*
G37*
%LPC*%
G75*
G36*
G01X110470Y5059530D02*
X170470Y5119530D01*
G02X210000Y5135900I39530J-39543D01*
G01X1020000D01*
G02X1059530Y5119530I0J-55913D01*
G01X1553150Y4625900D01*
X4700000D01*
G02X4739530Y4609530I0J-55913D01*
G01X4869530Y4479530D01*
G02X4885900Y4440000I-39543J-39530D01*
G01Y3538320D01*
G03X4915230Y3520110I20320J4D01*
G02X4940000Y3525900I24775J-50109D01*
G01X5120000D01*
G02X5150000Y3517170I0J-55911D01*
G02X5180000Y3525900I30000J-47181D01*
G01X5326850D01*
X5334100Y3533150D01*
Y4850000D01*
G02X5350470Y4889530I55913J0D01*
G01X5410470Y4949530D01*
G02X5450000Y4965900I39530J-39543D01*
G01X6067680D01*
G02X6099860Y4955700I-11J-55897D01*
G01X6101680Y4954420D01*
X6134190Y4948420D01*
X6220000D01*
G02X6237130Y4945090I-3J-45739D01*
G01X6243370Y4942570D01*
X6270140Y4969370D01*
X6270770Y4972310D01*
G02X6309190Y5008420I45230J-9630D01*
G01X6496000D01*
G02X6539190Y4977750I0J-45745D01*
G03X6572040Y4969410I19183J6694D01*
G02X6660000Y5003420I87960J-96740D01*
G02X6790740Y4872680I0J-130740D01*
G02X6730790Y4762760I-130746J0D01*
G03Y4728600I11003J-17080D01*
G02Y4508760I-70796J-109920D01*
G03Y4474600I11003J-17080D01*
G02Y4254760I-70796J-109920D01*
G03Y4220600I11003J-17080D01*
G02Y4000760I-70796J-109920D01*
G03Y3966600I11003J-17080D01*
G02Y3746760I-70796J-109920D01*
G03Y3712600I11003J-17080D01*
G02Y3492760I-70796J-109920D01*
G03Y3458600I11003J-17080D01*
G02Y3238760I-70796J-109920D01*
G03Y3204600I11003J-17080D01*
G02Y2984760I-70796J-109920D01*
G03Y2950600I11003J-17080D01*
G02X6790740Y2840680I-70796J-109920D01*
G02X6660000Y2709940I-130740J0D01*
G02X6581570Y2736080I0J130730D01*
G01X6574520Y2741370D01*
X6561100Y2727950D01*
X6579530Y2709530D01*
G02X6595900Y2670000I-39543J-39530D01*
G01Y2477250D01*
G03X6622110Y2457810I20319J7D01*
G02X6659990Y2463420I37887J-125130D01*
G01X6660000D01*
G02X6790740Y2332680I0J-130740D01*
G02X6730790Y2222760I-130746J0D01*
G03Y2188600I11003J-17080D01*
G02Y1968760I-70796J-109920D01*
G03Y1934600I11003J-17080D01*
G02Y1714760I-70796J-109920D01*
G03Y1680600I11003J-17080D01*
G02Y1460760I-70796J-109920D01*
G03Y1426600I11003J-17080D01*
G02X6790740Y1316680I-70796J-109920D01*
G02X6660000Y1185940I-130740J0D01*
G01X6659990D01*
G02X6622110Y1191550I7J130740D01*
G03X6595900Y1172110I-5891J-19447D01*
G01Y953250D01*
G03X6622110Y933810I20319J7D01*
G02X6659990Y939420I37887J-125130D01*
G01X6660000D01*
G02X6790740Y808680I0J-130740D01*
G02X6730790Y698760I-130746J0D01*
G03Y664600I11003J-17080D01*
G02Y444760I-70796J-109920D01*
G03Y410600I11003J-17080D01*
G02X6790740Y300680I-70796J-109920D01*
G02X6660000Y169940I-130740J0D01*
G01X6659990D01*
G02X6584740Y193770I5J130742D01*
G01X6577750Y198700D01*
X6479530Y100470D01*
G02X6440000Y84100I-39530J39543D01*
G01X885000D01*
G02X881180Y84240I136J55896D01*
G01X880820Y84260D01*
X759240D01*
X758890Y84240D01*
G02X755000Y84100I-3954J55758D01*
G01X360000D01*
G02X320470Y100470I0J55913D01*
G01X270470Y150470D01*
G02X259950Y165100I39533J39524D01*
G01X259210Y166580D01*
X218430Y207370D01*
X218390Y207400D01*
G02X179260Y300680I91618J93280D01*
G02X239210Y410600I130746J0D01*
G03Y444760I-11003J17080D01*
G02Y664600I70796J109920D01*
G03Y698760I-11003J17080D01*
G02Y918600I70796J109920D01*
G03Y952760I-11003J17080D01*
G02Y1172600I70796J109920D01*
G03Y1206760I-11003J17080D01*
G02Y1426600I70796J109920D01*
G03Y1460760I-11003J17080D01*
G02Y1680600I70796J109920D01*
G03Y1714760I-11003J17080D01*
G02Y1934600I70796J109920D01*
G03Y1968760I-11003J17080D01*
G02Y2188600I70796J109920D01*
G03Y2222760I-11003J17080D01*
G02X179260Y2332680I70796J109920D01*
G02X310000Y2463420I130740J0D01*
G01X310010D01*
G02X347890Y2457810I-7J-130740D01*
G03X374100Y2477250I5891J19447D01*
G01Y2660000D01*
G02X390470Y2699530I55913J0D01*
G01X440470Y2749530D01*
G02X450080Y2757220I39520J-39537D01*
G03X453250Y2771200I-5437J8582D01*
G02X446160Y2784060I110766J69452D01*
G03X427950Y2784280I-9160J-4403D01*
G02X310000Y2709940I-117950J56401D01*
G02X179260Y2840680I0J130740D01*
G02X239210Y2950600I130746J0D01*
G03Y2984760I-11003J17080D01*
G02Y3204600I70796J109920D01*
G03Y3238760I-11003J17080D01*
G02Y3458600I70796J109920D01*
G03Y3492760I-11003J17080D01*
G02Y3712600I70796J109920D01*
G03Y3746760I-11003J17080D01*
G02Y3966600I70796J109920D01*
G03Y4000760I-11003J17080D01*
G02Y4220600I70796J109920D01*
G03Y4254760I-11003J17080D01*
G02X179260Y4364680I70796J109920D01*
G01Y4364690D01*
G02X198470Y4432900I130740J-10D01*
G01X194190Y4440350D01*
X191840Y4441710D01*
G02X180470Y4450470I28151J48297D01*
G01X110470Y4520470D01*
G02X94100Y4560000I39543J39530D01*
G01Y5020000D01*
G02X110470Y5059530I55913J0D01*
G37*
%LPD*%
G75*
G36*
G01X317180Y187660D02*
X370100Y240580D01*
X310000Y303220D01*
X249900Y240580D01*
X302820Y187660D01*
G03X317180I7180J7180D01*
G37*
G36*
G01X384840Y2925680D02*
X310000D01*
X308200Y2838880D01*
X395000Y2840680D01*
Y2915520D01*
G03X384840Y2925680I-10160J0D01*
G37*
G36*
G01Y4703680D02*
X310000D01*
X308200Y4616880D01*
X395000Y4618680D01*
Y4693520D01*
G03X384840Y4703680I-10160J0D01*
G37*
G36*
G01X677020Y307860D02*
X624100Y360780D01*
X561460Y300680D01*
X624100Y240580D01*
X677020Y293500D01*
G03Y307860I-7180J7180D01*
G37*
G36*
G01X780180Y376430D02*
X800000Y400000D01*
X775000Y432540D01*
X750000Y400000D01*
X769820Y376430D01*
G03X780180I5180J8740D01*
G37*
G36*
G01X677020Y561860D02*
X624100Y614780D01*
X561460Y554680D01*
X624100Y494580D01*
X677020Y547500D01*
G03Y561860I-7180J7180D01*
G37*
G36*
G01X709050Y129900D02*
X800000Y130000D01*
X777430Y160750D01*
X750000Y190000D01*
X702220Y146330D01*
G03X709050Y129900I7949J-6330D01*
G37*
G36*
G01X937780Y146330D02*
X890000Y190000D01*
X862570Y160750D01*
X840000Y130000D01*
X930950Y129900D01*
G03X937780Y146330I-1119J10100D01*
G37*
G36*
G01X872180Y489080D02*
X886550Y503450D01*
X865000Y527540D01*
X843450Y503450D01*
X857820Y489080D01*
G03X872180I7180J7180D01*
G37*
G36*
G01X859820Y483570D02*
X840000Y460000D01*
X865000Y427460D01*
X890000Y460000D01*
X870180Y483570D01*
G03X859820I-5180J-8740D01*
G37*
G36*
G01X775000Y623730D02*
Y594990D01*
X810920Y602170D01*
X782180Y630910D01*
X775000Y623730D01*
G37*
G36*
G01X780180Y626430D02*
X800000Y650000D01*
X775000Y682540D01*
X750000Y650000D01*
X769820Y626430D01*
G03X780180I5180J8740D01*
G37*
G36*
G01X775000Y873740D02*
Y845000D01*
X810920Y852180D01*
X782180Y880920D01*
X775000Y873740D01*
G37*
G36*
G01X677020Y815860D02*
X624100Y868780D01*
X561460Y808680D01*
X624100Y748580D01*
X677020Y801500D01*
G03Y815860I-7180J7180D01*
G37*
G36*
G01X780180Y886430D02*
X800000Y910000D01*
X775000Y942540D01*
X750000Y910000D01*
X769820Y886430D01*
G03X780180I5180J8740D01*
G37*
G36*
G01X830480Y1009680D02*
Y1030000D01*
X798200Y1031800D01*
X800000Y999520D01*
X820320D01*
G03X830480Y1009680I0J10160D01*
G37*
G36*
G01X829840Y990000D02*
X840000Y910000D01*
X866140Y937730D01*
X890000Y970000D01*
X843770Y999430D01*
G03X829840Y990000I-3773J-9430D01*
G37*
G36*
G01X872180Y739080D02*
X886550Y753450D01*
X865000Y777540D01*
X843450Y753450D01*
X857820Y739080D01*
G03X872180I7180J7180D01*
G37*
G36*
G01X859820Y733570D02*
X840000Y710000D01*
X865000Y677460D01*
X890000Y710000D01*
X870180Y733570D01*
G03X859820I-5180J-8740D01*
G37*
G36*
G01X677020Y1069860D02*
X624100Y1122780D01*
X561460Y1062680D01*
X624100Y1002580D01*
X677020Y1055500D01*
G03Y1069860I-7180J7180D01*
G37*
G36*
G01X830480Y1259680D02*
Y1280000D01*
X798200Y1281800D01*
X800000Y1249520D01*
X820320D01*
G03X830480Y1259680I0J10160D01*
G37*
G36*
G01X829840Y1240000D02*
X840000Y1160000D01*
X866140Y1187730D01*
X890000Y1220000D01*
X843770Y1249430D01*
G03X829840Y1240000I-3773J-9430D01*
G37*
G36*
G01X918310Y1455600D02*
X890000Y1480000D01*
X862460Y1450000D01*
X890000Y1420000D01*
X918310Y1444400D01*
G03Y1455600I-8480J5600D01*
G37*
G36*
G01X795320Y1584680D02*
X775000Y1605000D01*
X754680Y1574520D01*
X795320D01*
Y1584680D01*
G37*
G36*
G01X677020Y1577860D02*
X624100Y1630780D01*
X561460Y1570680D01*
X624100Y1510580D01*
X677020Y1563500D01*
G03Y1577860I-7180J7180D01*
G37*
G36*
G01X775000Y1383740D02*
Y1355000D01*
X810920Y1362180D01*
X782180Y1390920D01*
X775000Y1383740D01*
G37*
G36*
G01X677020Y1323860D02*
X624100Y1376780D01*
X561460Y1316680D01*
X624100Y1256580D01*
X677020Y1309500D01*
G03Y1323860I-7180J7180D01*
G37*
G36*
G01X780180Y1396430D02*
X800000Y1420000D01*
X775000Y1452540D01*
X750000Y1420000D01*
X769820Y1396430D01*
G03X780180I5180J8740D01*
G37*
G36*
G01X775000Y1133740D02*
Y1105000D01*
X810920Y1112180D01*
X782180Y1140920D01*
X775000Y1133740D01*
G37*
G36*
G01X780180Y1136430D02*
X800000Y1160000D01*
X775000Y1192540D01*
X750000Y1160000D01*
X769820Y1136430D01*
G03X780180I5180J8740D01*
G37*
G36*
G01X996850Y4694100D02*
X1350470Y4340470D01*
G03X1390000Y4324100I39530J39543D01*
G01X3586850D01*
X3634100Y4276850D01*
Y3989540D01*
X3570000D01*
G03X3524260Y3943800I0J-45740D01*
G01Y3863800D01*
G03X3546600Y3824500I45738J0D01*
G01X3551560Y3821550D01*
Y3570000D01*
G03X3551580Y3568580I58438J113D01*
G02X3516900Y3553710I-20314J-499D01*
G01X3491140Y3579470D01*
Y3720000D01*
G03X3470300Y3770300I-71137J-6D01*
G01X3395740Y3844870D01*
Y4118950D01*
X3348950Y4165740D01*
X2751050D01*
X2704260Y4118950D01*
Y3781050D01*
X2751050Y3734260D01*
X2860000D01*
Y3350000D01*
X2911790D01*
X2912610Y3349870D01*
G03X2920000Y3349260I7445J45125D01*
G01X3174550D01*
G02X3194680Y3326190I-2J-20319D01*
G03X3194260Y3320010I45320J-6184D01*
G01Y3260000D01*
G03X3197370Y3243420I45751J0D01*
G02X3178430Y3215740I-18939J-7361D01*
G01X3143800D01*
G03X3098060Y3170000I0J-45740D01*
G01Y3092750D01*
X3034260Y3028950D01*
Y2738950D01*
X3001050Y2705740D01*
X1721050D01*
X1664260Y2648950D01*
Y2101050D01*
X1721050Y2044260D01*
X1951050D01*
X1954260Y2041050D01*
Y1815900D01*
X1470000D01*
G03X1430470Y1799530I0J-55913D01*
G01X1406690Y1775740D01*
X1300000D01*
G03X1254260Y1730000I0J-45740D01*
G01Y1670000D01*
G03X1265470Y1640000I45748J0D01*
G03X1254260Y1610000I34538J-30000D01*
G01Y1550000D01*
G03X1265470Y1520000I45748J0D01*
G03X1259530Y1511320I34528J-30001D01*
G01X1256670Y1505900D01*
X1207740D01*
Y1660680D01*
G03X1162000Y1706420I-45740J0D01*
G01X981980D01*
G03X964040Y1702750I12J-45742D01*
G02X935740Y1721430I-7981J18685D01*
G01Y1730000D01*
G03X920900Y1763720I-45730J0D01*
G01Y1833210D01*
G03X936220Y1879040I-60891J45830D01*
G03X783780I-76220J0D01*
G03X809100Y1822310I76212J0D01*
G01Y1775740D01*
X750000D01*
G03X704260Y1730000I0J-45740D01*
G01Y1670000D01*
G03X712420Y1643920I45757J0D01*
G01X713260Y1642710D01*
X714180Y1639920D01*
G02X704530Y1626580I-9648J-3181D01*
G01X692990D01*
X657500Y1662070D01*
X657460Y1662110D01*
G03X634790Y1680600I-93451J-91435D01*
G02Y1714760I11003J17080D01*
G03Y1934600I-70796J109920D01*
G02Y1968760I11003J17080D01*
G03X673690Y2007540I-70795J109914D01*
G01X956400D01*
G03X1072000Y1942940I115600J71132D01*
G03Y2214420I0J135740D01*
G03X956400Y2149820I0J-135732D01*
G01X673690D01*
G03X564000Y2209420I-109690J-71139D01*
G01X563990D01*
G03X513990Y2199480I3J-130741D01*
G02X485900Y2218250I-7771J18774D01*
G01Y2636850D01*
X503150Y2654100D01*
X780000D01*
G03X819530Y2670470I0J55913D01*
G01X904530Y2755470D01*
G03X920900Y2795000I-39543J39530D01*
G01Y2813110D01*
X938860D01*
X940870Y2805580D01*
G03X1072000Y2704940I131130J35109D01*
G03X1207740Y2840680I0J135740D01*
G03X1150890Y2951140I-135737J0D01*
G02Y2984220I11805J16540D01*
G03Y3205140I-78887J110460D01*
G02Y3238220I11805J16540D01*
G03Y3459140I-78887J110460D01*
G02Y3492220I11805J16540D01*
G03X1207740Y3602680I-78887J110460D01*
G01Y3602690D01*
G03X1173530Y3692780I-135742J-5D01*
G02X1180500Y3724850I15195J13490D01*
G03X1207740Y3766680I-18497J41830D01*
G01Y3946680D01*
G03X1162000Y3992420I-45740J0D01*
G01X982000D01*
G03X936260Y3946680I0J-45740D01*
G01Y3766680D01*
G03X963500Y3724850I45737J0D01*
G02X970470Y3692780I-8225J-18580D01*
G03X965250Y3686520I101595J-90023D01*
G01X664320D01*
G03X634790Y3712600I-100323J-83836D01*
G02Y3746760I11003J17080D01*
G03X694740Y3856680I-70796J109920D01*
G03X564000Y3987420I-130740J0D01*
G03X454080Y3927470I0J-130746D01*
G02X419920I-17080J11003D01*
G03X380790Y3966600I-109920J-70790D01*
G02Y4000760I11003J17080D01*
G03Y4220600I-70796J109920D01*
G02Y4254760I11003J17080D01*
G03X419920Y4293890I-70790J109920D01*
G02X454080I17080J-11003D01*
G03X564000Y4233940I109920J70796D01*
G03X694740Y4364680I0J130740D01*
G03X687640Y4407180I-130751J0D01*
G02X706860Y4434100I19218J6601D01*
G01X735930D01*
G03X775460Y4450470I0J55913D01*
G01X869240Y4544260D01*
X890000D01*
G03X935740Y4590000I0J45740D01*
G01Y4650000D01*
G03X932670Y4666470I-45739J-5D01*
G02X951630Y4694100I18960J7310D01*
G01X996850D01*
G37*
G36*
G01X874150Y1840880D02*
X883510Y1860250D01*
X859630Y1881550D01*
X838450Y1857490D01*
X857820Y1838120D01*
G03X874150Y1840880I7184J7182D01*
G37*
G36*
G01X859820Y1753570D02*
X840000Y1730000D01*
X865000Y1697460D01*
X890000Y1730000D01*
X870180Y1753570D01*
G03X859820I-5180J-8740D01*
G37*
G36*
G01X780180Y1646430D02*
X800000Y1670000D01*
X775000Y1702540D01*
X750000Y1670000D01*
X769820Y1646430D01*
G03X780180I5180J8740D01*
G37*
G36*
G01X666250Y2096640D02*
X624090Y2138780D01*
X557650Y2078680D01*
X624090Y2018580D01*
X666250Y2060720D01*
G03Y2096640I-17960J17960D01*
G37*
G36*
G01X721690Y2964400D02*
X750000Y2940000D01*
X777540Y2970000D01*
X750000Y3000000D01*
X721690Y2975600D01*
G03Y2964400I8480J-5600D01*
G37*
G36*
G01X870180Y2916430D02*
X890000Y2940000D01*
X865000Y2972540D01*
X840000Y2940000D01*
X859820Y2916430D01*
G03X870180I5180J8740D01*
G37*
G36*
G01X721690Y4867080D02*
X750000Y4842680D01*
X777540Y4872680D01*
X750000Y4902680D01*
X721690Y4878280D01*
G03Y4867080I8480J-5600D01*
G37*
G36*
G01X677020Y4879860D02*
X624100Y4932780D01*
X561460Y4872680D01*
X624100Y4812580D01*
X677020Y4865500D01*
G03Y4879860I-7180J7180D01*
G37*
G36*
G01X721690Y4744400D02*
X750000Y4720000D01*
X777540Y4750000D01*
X750000Y4780000D01*
X721690Y4755600D01*
G03Y4744400I8480J-5600D01*
G37*
G36*
G01X677020Y4625860D02*
X624100Y4678780D01*
X561460Y4618680D01*
X624100Y4558580D01*
X677020Y4611500D01*
G03Y4625860I-7180J7180D01*
G37*
G36*
G01X720670Y4612650D02*
X750000Y4590000D01*
X777540Y4620070D01*
X750000Y4650000D01*
X720430Y4624370D01*
G03X720670Y4612650I8419J-5690D01*
G37*
G36*
G01X835940Y4579840D02*
X890000Y4590000D01*
X866770Y4621820D01*
X840000Y4650000D01*
X825800Y4590690D01*
G03X835940Y4579840I10140J-687D01*
G37*
G36*
G01X918310Y4878280D02*
X890000Y4902680D01*
X862460Y4872680D01*
X890000Y4842680D01*
X918310Y4867080D01*
G03Y4878280I-8480J5600D01*
G37*
G36*
G01Y4755600D02*
X890000Y4780000D01*
X862460Y4750000D01*
X890000Y4720000D01*
X918310Y4744400D01*
G03Y4755600I-8480J5600D01*
G37*
G36*
G01X721690Y4994400D02*
X750000Y4970000D01*
X777540Y5000000D01*
X750000Y5030000D01*
X721690Y5005600D01*
G03Y4994400I8480J-5600D01*
G37*
G36*
G01X918310Y5005600D02*
X890000Y5030000D01*
X862460Y5000000D01*
X890000Y4970000D01*
X918310Y4994400D01*
G03Y5005600I-8480J5600D01*
G37*
G36*
G01X1395590Y1624260D02*
X1440080D01*
G03X1443200Y1624370I-51J45741D01*
G01X1443360Y1624380D01*
X1443720Y1624390D01*
G02X1454260Y1614240I381J-10151D01*
G01Y941050D01*
X1531050Y864260D01*
X1821050D01*
X1899260Y786050D01*
Y586050D01*
X1961050Y524260D01*
X2808950D01*
X2865740Y581050D01*
Y1458950D01*
X2824690Y1500000D01*
X2865740Y1541050D01*
Y2261050D01*
X2868950Y2264260D01*
X3578950D01*
X3629570Y2314890D01*
G02X3664260Y2300520I14369J-14370D01*
G01Y2121050D01*
X3751050Y2034260D01*
X3979690D01*
G02X3999830Y2011290I-5J-20319D01*
G01X3954440Y1965900D01*
X3756460D01*
X3755470Y1974960D01*
G03X3710000Y2015740I-45470J-4960D01*
G01X3570000D01*
G03X3534380Y1998700I0J-45750D01*
G03X3510000Y2005740I-24380J-38695D01*
G01X3450000D01*
G03X3420000Y1994530I0J-45748D01*
G03X3390000Y2005740I-30000J-34538D01*
G01X3329920D01*
G03X3326800Y2005630I51J-45741D01*
G01X3326640Y2005620D01*
X3326280Y2005610D01*
G02X3315740Y2015760I-381J10151D01*
G01Y2050000D01*
G03X3304730Y2079760I-45738J-5D01*
G03X3316220Y2120000I-64719J40240D01*
G03X3240000Y2196220I-76220J0D01*
G03X3191070Y2178440I0J-76217D01*
G01X3160000D01*
G03X3127730Y2168720I0J-58428D01*
G01X3126290Y2167770D01*
X3073670Y2154310D01*
G03X3039260Y2110000I11324J-44310D01*
G01X3039250Y2050000D01*
G03X3048810Y2022020I45747J7D01*
G02Y1997980I-16383J-12020D01*
G03X3040520Y1980710I36183J-27994D01*
G01X3040510Y1980640D01*
X3029840Y1938890D01*
X2998970Y1908020D01*
X2950470Y1859530D01*
G03X2934100Y1820000I39543J-39530D01*
G01Y303150D01*
X2867050Y236100D01*
X1221650D01*
G02X1202170Y262180I4J20318D01*
G03X1207740Y300650I-130172J38486D01*
G01Y300680D01*
G03X1150890Y411140I-135737J0D01*
G02Y444220I11805J16540D01*
G03Y665140I-78887J110460D01*
G02Y698220I11805J16540D01*
G03Y919140I-78887J110460D01*
G02Y952220I11805J16540D01*
G03Y1173140I-78887J110460D01*
G02Y1206220I11805J16540D01*
G03X1207740Y1316680I-78887J110460D01*
G01Y1316700D01*
G03X1198330Y1366350I-135742J-10D01*
G02X1217240Y1394100I18911J7432D01*
G01X1271480D01*
X1274080Y1392310D01*
G03X1299990Y1384260I25916J37691D01*
G01X1350000D01*
G03X1395740Y1430000I0J45740D01*
G01Y1490000D01*
G03X1384530Y1520000I-45748J0D01*
G03X1395740Y1550000I-34538J30000D01*
G01Y1610040D01*
G03X1395620Y1613360I-45742J9D01*
G01X1395590Y1613730D01*
Y1624260D01*
G37*
G36*
G01X951910Y293500D02*
X1008360Y237050D01*
X1074540Y300680D01*
X1008360Y364310D01*
X951910Y307860D01*
G03Y293500I7180J-7180D01*
G37*
G36*
G01X920840Y587810D02*
X1008350Y500290D01*
X1074450Y554000D01*
X1013870Y619610D01*
X926360Y605010D01*
G03X920840Y587810I1670J-10022D01*
G37*
G36*
G01X918960Y837820D02*
X1008350Y748420D01*
X1074460Y808070D01*
X1013390Y874330D01*
X923990Y854930D01*
G03X918960Y837820I2159J-9929D01*
G37*
G36*
G01X921880Y1097820D02*
X1008350Y1011340D01*
X1074440Y1061960D01*
X1014100Y1127430D01*
X927630Y1115060D01*
G03X921880Y1097820I1439J-10059D01*
G37*
G36*
G01X1264510Y1441560D02*
X1300000Y1430000D01*
X1327500Y1460460D01*
X1300000Y1490000D01*
X1262030Y1456070D01*
G03X1264510Y1441560I8142J-6075D01*
G37*
G36*
G01X1319820Y1513570D02*
X1300000Y1490000D01*
X1325000Y1457460D01*
X1350000Y1490000D01*
X1330180Y1513570D01*
G03X1319820I-5180J-8740D01*
G37*
G36*
G01X1330180Y1526430D02*
X1350000Y1550000D01*
X1325000Y1582540D01*
X1300000Y1550000D01*
X1319820Y1526430D01*
G03X1330180I5180J8740D01*
G37*
G36*
G01X1319820Y1633570D02*
X1300000Y1610000D01*
X1325000Y1577460D01*
X1350000Y1610000D01*
X1330180Y1633570D01*
G03X1319820I-5180J-8740D01*
G37*
G36*
G01X910630Y1564260D02*
X982000Y1492800D01*
X1074540Y1570680D01*
X982000Y1648560D01*
X910630Y1577100D01*
G03Y1564260I7870J-6420D01*
G37*
G36*
G01X919880Y1347820D02*
X1008350Y1259340D01*
X1074460Y1316030D01*
X1013630Y1381900D01*
X925160Y1364980D01*
G03X919880Y1347820I1910J-9980D01*
G37*
G36*
G01X1330180Y1646430D02*
X1350000Y1670000D01*
X1325000Y1702540D01*
X1300000Y1670000D01*
X1319820Y1646430D01*
G03X1330180I5180J8740D01*
G37*
G36*
G01X962680Y2060720D02*
X1008370Y2015050D01*
X1078350Y2078680D01*
X1008370Y2142310D01*
X962680Y2096640D01*
G03Y2060720I17960J-17960D01*
G37*
G36*
G01X1530000Y1700000D02*
X1880000D01*
X1890000Y1690000D01*
Y1510000D01*
X1920000Y1480000D01*
X1977690D01*
X1979810Y1478960D01*
G03X2000000Y1474260I20195J41039D01*
G01X2160000D01*
G03X2180190Y1478960I-5J45739D01*
G01X2182310Y1480000D01*
X2780000D01*
X2820000Y1440000D01*
Y600000D01*
X2790000Y570000D01*
X1980000D01*
X1945000Y605000D01*
Y755320D01*
X1945050Y755820D01*
G03X1945740Y770000I-145051J14165D01*
G03X1945050Y784180I-145741J15D01*
G01X1945000Y784680D01*
Y805000D01*
X1940230Y809770D01*
X1939490Y812210D01*
G03X1800000Y915740I-139490J-42205D01*
G01X1600000D01*
G03X1560820Y910370I17J-145738D01*
G01X1559480Y910000D01*
X1550000D01*
X1500000Y960000D01*
Y1670000D01*
X1530000Y1700000D01*
G37*
G36*
G01X3462120Y3109100D02*
X3620000D01*
Y3012030D01*
G03X3604260Y2977500I30006J-34530D01*
G01Y2954180D01*
X3604240Y2953820D01*
G03X3604100Y2950000I55755J-3956D01*
G01Y2354100D01*
X3560000Y2310000D01*
X2850000D01*
X2820000Y2280000D01*
Y1560000D01*
X2785740Y1525740D01*
X2000000D01*
Y2060000D01*
X1970000Y2090000D01*
X1740000D01*
X1710000Y2120000D01*
Y2630000D01*
X1740000Y2660000D01*
X3020000D01*
X3080000Y2720000D01*
Y3010000D01*
X3120000Y3050000D01*
X3273890D01*
X3276010Y3048960D01*
G03X3296200Y3044260I20195J41039D01*
G01X3376200D01*
G03X3407880Y3057010I0J45733D01*
G01X3462120Y3109100D01*
G37*
G36*
G01X3045900Y280000D02*
Y1035990D01*
G02X3080590Y1050360I20321J1D01*
G01X3090470Y1040470D01*
G03X3130000Y1024100I39530J39543D01*
G01X5720000D01*
G03X5742720Y1028920I12J55902D01*
G02X5770120Y1017170I8258J-18565D01*
G03X5819110Y952220I127883J45508D01*
G02Y919140I-11805J-16540D01*
G03Y698220I78887J-110460D01*
G02Y665140I-11805J-16540D01*
G03X5762260Y554680I78887J-110460D01*
G03X5796470Y464580I135742J-5D01*
G02X5789500Y432510I-15195J-13490D01*
G03X5762260Y390680I18497J-41830D01*
G01Y210680D01*
G03X5762420Y206900I45738J43D01*
G01X5762450Y206480D01*
Y195900D01*
X3034010D01*
G02X3019640Y230590I-1J20321D01*
G01X3029530Y240470D01*
G03X3045900Y280000I-39543J39530D01*
G37*
G36*
G01X3350000Y3780000D02*
X2770000D01*
X2750000Y3800000D01*
Y4100000D01*
X2770000Y4120000D01*
X3330000D01*
X3350000Y4100000D01*
Y3780000D01*
G37*
G36*
G01X3510000Y1584260D02*
G03X3540000Y1595470I0J45748D01*
G03X3570000Y1584260I30000J34538D01*
G01X3636150D01*
G02X3650520Y1549570I1J-20321D01*
G01X3645470Y1544530D01*
G03X3629100Y1505000I39543J-39530D01*
G01Y1435740D01*
X3570000D01*
G03X3534380Y1418700I0J-45750D01*
G03X3510000Y1425740I-24380J-38695D01*
G01X3450000D01*
G03X3420000Y1414530I0J-45748D01*
G03X3390000Y1425740I-30000J-34538D01*
G01X3330000D01*
G03X3326650Y1425620I-39J-45741D01*
G02X3315740Y1435750I-751J10131D01*
G01Y1470000D01*
G03X3304730Y1499760I-45738J-5D01*
G03X3316220Y1540000I-64719J40240D01*
G03X3309600Y1571080I-76222J10D01*
G02X3320900Y1585180I9277J4143D01*
G03X3330000Y1584260I9127J44817D01*
G01X3390000D01*
G03X3420000Y1595470I0J45748D01*
G03X3450000Y1584260I30000J34538D01*
G01X3510000D01*
G37*
G36*
G01X3154100Y1547670D02*
X3085000Y1530000D01*
X3117750Y1497750D01*
X3155000Y1470000D01*
X3167700Y1535000D01*
G03X3154100Y1547670I-12702J0D01*
G37*
G36*
G01X3205880Y1531020D02*
X3218460Y1518460D01*
X3243180Y1540000D01*
X3218460Y1561540D01*
X3205880Y1548980D01*
G03Y1531020I8980J-8980D01*
G37*
G36*
G01X3248980Y1505880D02*
X3261540Y1518460D01*
X3240000Y1543180D01*
X3218460Y1518460D01*
X3231020Y1505880D01*
G03X3248980I8980J8980D01*
G37*
G36*
G01X3233660Y1498290D02*
X3210000Y1470000D01*
X3240000Y1441820D01*
X3270000Y1470000D01*
X3246340Y1498290D01*
G03X3233660I-6340J-11000D01*
G37*
G36*
G01X3085720Y1604870D02*
X3155000Y1620000D01*
X3121800Y1651800D01*
X3085000Y1680000D01*
X3074840Y1615000D01*
G03X3085720Y1604870I10156J0D01*
G37*
G36*
G01X3187040Y1662160D02*
X3155000Y1680000D01*
X3117470Y1649790D01*
X3155000Y1620000D01*
X3188120Y1649120D01*
G03X3187040Y1662160I-8289J5878D01*
G37*
G36*
G01X3413570Y1360180D02*
X3390000Y1380000D01*
X3357460Y1355000D01*
X3390000Y1330000D01*
X3413570Y1349820D01*
G03Y1360180I-8740J5180D01*
G37*
G36*
G01X3306430Y1349820D02*
X3330000Y1330000D01*
X3362540Y1355000D01*
X3330000Y1380000D01*
X3306430Y1360180D01*
G03Y1349820I8740J-5180D01*
G37*
G36*
G01X3293570Y1360180D02*
X3270000Y1380000D01*
X3237460Y1355000D01*
X3270000Y1330000D01*
X3293570Y1349820D01*
G03Y1360180I-8740J5180D01*
G37*
G36*
G01X3186430Y1349820D02*
X3210000Y1330000D01*
X3242540Y1355000D01*
X3210000Y1380000D01*
X3186430Y1360180D01*
G03Y1349820I8740J-5180D01*
G37*
G36*
G01X3125880Y1296880D02*
X3155000Y1330000D01*
X3120000Y1362540D01*
X3085000Y1330000D01*
X3114120Y1296880D01*
G03X3125880I5880J8290D01*
G37*
G36*
G01X3188120Y1360880D02*
X3155000Y1390000D01*
X3117470Y1360210D01*
X3155000Y1330000D01*
X3187040Y1347840D01*
G03X3188120Y1360880I-7209J7162D01*
G37*
G36*
G01X3541690Y1354400D02*
X3570000Y1330000D01*
X3597540Y1360000D01*
X3570000Y1390000D01*
X3541690Y1365600D01*
G03Y1354400I8480J-5600D01*
G37*
G36*
G01X3426430Y1349820D02*
X3450000Y1330000D01*
X3482540Y1355000D01*
X3450000Y1380000D01*
X3426430Y1360180D01*
G03Y1349820I8740J-5180D01*
G37*
G36*
G01X3537040Y1367150D02*
X3510000Y1380000D01*
X3477470Y1354750D01*
X3510000Y1330000D01*
X3538310Y1354400D01*
G03X3537040Y1367150I-8480J5594D01*
G37*
G36*
G01X3390000Y1725740D02*
X3329920D01*
G03X3326800Y1725630I51J-45741D01*
G01X3326640Y1725620D01*
X3326280Y1725610D01*
G02X3315740Y1735760I-381J10151D01*
G01Y1770000D01*
G03X3304730Y1799760I-45738J-5D01*
G03X3316220Y1840000I-64719J40240D01*
G01Y1840020D01*
G03X3315230Y1852240I-76220J-25D01*
G01X3315170Y1852630D01*
X3315100Y1853450D01*
G02X3325660Y1864450I10125J848D01*
G01X3326050Y1864430D01*
X3326250Y1864410D01*
G03X3330000Y1864260I3702J45595D01*
G01X3390000D01*
G03X3420000Y1875470I0J45748D01*
G03X3450000Y1864260I30000J34538D01*
G01X3510000D01*
G03X3540000Y1875470I0J45748D01*
G03X3570000Y1864260I30000J34538D01*
G01X3682860D01*
G03X3715000Y1854100I32136J45741D01*
G01X3954440D01*
X4017500Y1791060D01*
X4017550Y1791010D01*
G03X4140000Y1739260I122450J118995D01*
G03X4310740Y1910000I0J170740D01*
G03X4283190Y2003000I-170744J0D01*
G02X4300310Y2034260I17123J10940D01*
G01X4399690D01*
G02X4416810Y2003000I-3J-20320D01*
G03X4389260Y1910000I143194J-93000D01*
G03X4440450Y1788090I170761J0D01*
G01X4440480Y1788060D01*
X4486190Y1742350D01*
G02X4480540Y1729590I-20274J1346D01*
G01X4466850Y1715900D01*
X3747700D01*
G03X3710000Y1735740I-37700J-25899D01*
G01X3570000D01*
G03X3534380Y1718700I0J-45750D01*
G03X3510000Y1725740I-24380J-38695D01*
G01X3450000D01*
G03X3420000Y1714530I0J-45748D01*
G03X3390000Y1725740I-30000J-34538D01*
G37*
G36*
G01X3154100Y2127670D02*
X3085000Y2110000D01*
X3117750Y2077750D01*
X3155000Y2050000D01*
X3167700Y2115000D01*
G03X3154100Y2127670I-12702J0D01*
G37*
G36*
G01X3205880Y2111020D02*
X3218460Y2098460D01*
X3243180Y2120000D01*
X3218460Y2141540D01*
X3205880Y2128980D01*
G03Y2111020I8980J-8980D01*
G37*
G36*
G01X3248980Y2085880D02*
X3261540Y2098460D01*
X3240000Y2123180D01*
X3218460Y2098460D01*
X3231020Y2085880D01*
G03X3248980I8980J8980D01*
G37*
G36*
G01X3233660Y2078290D02*
X3210000Y2050000D01*
X3240000Y2021820D01*
X3270000Y2050000D01*
X3246340Y2078290D01*
G03X3233660I-6340J-11000D01*
G37*
G36*
G01X3154100Y1837670D02*
X3085000Y1820000D01*
X3117750Y1787750D01*
X3155000Y1760000D01*
X3167700Y1825000D01*
G03X3154100Y1837670I-12702J0D01*
G37*
G36*
G01X3205880Y1831020D02*
X3218460Y1818460D01*
X3243180Y1840000D01*
X3218460Y1861540D01*
X3205880Y1848980D01*
G03Y1831020I8980J-8980D01*
G37*
G36*
G01X3248980Y1805880D02*
X3261540Y1818460D01*
X3240000Y1843180D01*
X3218460Y1818460D01*
X3231020Y1805880D01*
G03X3248980I8980J8980D01*
G37*
G36*
G01X3233660Y1798290D02*
X3210000Y1770000D01*
X3240000Y1741820D01*
X3270000Y1770000D01*
X3246340Y1798290D01*
G03X3233660I-6340J-11000D01*
G37*
G36*
G01X3413570Y1940180D02*
X3390000Y1960000D01*
X3357460Y1935000D01*
X3390000Y1910000D01*
X3413570Y1929820D01*
G03Y1940180I-8740J5180D01*
G37*
G36*
G01X3306430Y1929820D02*
X3330000Y1910000D01*
X3362540Y1935000D01*
X3330000Y1960000D01*
X3306430Y1940180D01*
G03Y1929820I8740J-5180D01*
G37*
G36*
G01X3293570Y1940180D02*
X3270000Y1960000D01*
X3237460Y1935000D01*
X3270000Y1910000D01*
X3293570Y1929820D01*
G03Y1940180I-8740J5180D01*
G37*
G36*
G01X3186430Y1929820D02*
X3210000Y1910000D01*
X3242540Y1935000D01*
X3210000Y1960000D01*
X3186430Y1940180D01*
G03Y1929820I8740J-5180D01*
G37*
G36*
G01X3080000Y1899840D02*
X3155000Y1910000D01*
X3122030Y1941520D01*
X3085000Y1970000D01*
X3069880Y1910840D01*
G03X3080000Y1899840I10120J-845D01*
G37*
G36*
G01X3188120Y1940880D02*
X3155000Y1970000D01*
X3117470Y1940210D01*
X3155000Y1910000D01*
X3187040Y1927840D01*
G03X3188120Y1940880I-7209J7162D01*
G37*
G36*
G01X3541690Y1934400D02*
X3570000Y1910000D01*
X3597540Y1940000D01*
X3570000Y1970000D01*
X3541690Y1945600D01*
G03Y1934400I8480J-5600D01*
G37*
G36*
G01X3426430Y1929820D02*
X3450000Y1910000D01*
X3482540Y1935000D01*
X3450000Y1960000D01*
X3426430Y1940180D01*
G03Y1929820I8740J-5180D01*
G37*
G36*
G01X3537040Y1947150D02*
X3510000Y1960000D01*
X3477470Y1934750D01*
X3510000Y1910000D01*
X3538310Y1934400D01*
G03X3537040Y1947150I-8480J5594D01*
G37*
G36*
G01X3413570Y1660180D02*
X3390000Y1680000D01*
X3357460Y1655000D01*
X3390000Y1630000D01*
X3413570Y1649820D01*
G03Y1660180I-8740J5180D01*
G37*
G36*
G01X3306430Y1649820D02*
X3330000Y1630000D01*
X3362540Y1655000D01*
X3330000Y1680000D01*
X3306430Y1660180D01*
G03Y1649820I8740J-5180D01*
G37*
G36*
G01X3293570Y1660180D02*
X3270000Y1680000D01*
X3237460Y1655000D01*
X3270000Y1630000D01*
X3293570Y1649820D01*
G03Y1660180I-8740J5180D01*
G37*
G36*
G01X3186430Y1649820D02*
X3210000Y1630000D01*
X3242540Y1655000D01*
X3210000Y1680000D01*
X3186430Y1660180D01*
G03Y1649820I8740J-5180D01*
G37*
G36*
G01X3541690Y1654400D02*
X3570000Y1630000D01*
X3597540Y1660000D01*
X3570000Y1690000D01*
X3541690Y1665600D01*
G03Y1654400I8480J-5600D01*
G37*
G36*
G01X3426430Y1649820D02*
X3450000Y1630000D01*
X3482540Y1655000D01*
X3450000Y1680000D01*
X3426430Y1660180D01*
G03Y1649820I8740J-5180D01*
G37*
G36*
G01X3537040Y1667150D02*
X3510000Y1680000D01*
X3477470Y1654750D01*
X3510000Y1630000D01*
X3538310Y1654400D01*
G03X3537040Y1667150I-8480J5594D01*
G37*
G36*
G01X3440050Y3175150D02*
X3296200Y3170000D01*
X3333790Y3129190D01*
X3376200Y3090000D01*
X3447450Y3158430D01*
G03X3440050Y3175150I-7750J6567D01*
G37*
G36*
G01X3192500Y3051550D02*
X3223800Y3090000D01*
X3183800Y3136350D01*
X3143800Y3090000D01*
X3175100Y3051550D01*
G03X3192500I8700J23860D01*
G37*
G36*
G01X3432710Y3271420D02*
X3380000Y3320000D01*
X3352610Y3290860D01*
X3330000Y3260000D01*
X3425360Y3254850D01*
G03X3432710Y3271420I-527J10149D01*
G37*
G36*
G01X3617160Y3826020D02*
X3650000Y3863800D01*
X3610000Y3906980D01*
X3570000Y3863800D01*
X3602840Y3826020D01*
G03X3617160I7160J10490D01*
G37*
G36*
G01X3679820Y1413570D02*
X3660000Y1390000D01*
X3685000Y1357460D01*
X3710000Y1390000D01*
X3690180Y1413570D01*
G03X3679820I-5180J-8740D01*
G37*
G36*
G01X3730000Y2840000D02*
X3807330D01*
X3809840Y2833500D01*
G03X3830000Y2810180I42658J16503D01*
G01Y2310000D01*
X3880000Y2260000D01*
X5400000D01*
X5530000Y2130000D01*
Y1870000D01*
X5450000Y1790000D01*
X5350000D01*
X5280000Y1860000D01*
Y2040000D01*
X5240000Y2080000D01*
X4995890D01*
X4995430Y2080040D01*
G03X4980000Y2080740I-15445J-170039D01*
G03X4964570Y2080040I15J-170739D01*
G01X4964110Y2080000D01*
X4575890D01*
X4575430Y2080040D01*
G03X4560000Y2080740I-15445J-170039D01*
G03X4544570Y2080040I15J-170739D01*
G01X4544110Y2080000D01*
X4155890D01*
X4155430Y2080040D01*
G03X4140000Y2080740I-15445J-170039D01*
G03X4124570Y2080040I15J-170739D01*
G01X4124110Y2080000D01*
X3770000D01*
X3710000Y2140000D01*
Y2820000D01*
X3730000Y2840000D01*
G37*
G36*
G01X3738310Y1665600D02*
X3710000Y1690000D01*
X3682460Y1660000D01*
X3710000Y1630000D01*
X3738310Y1654400D01*
G03Y1665600I-8480J5600D01*
G37*
G36*
G01X3725120Y1910840D02*
X3710000Y1970000D01*
X3683200Y1941800D01*
X3660000Y1910000D01*
X3715000Y1899840D01*
G03X3725120Y1910840I0J10155D01*
G37*
G36*
G01X3970410Y1902810D02*
X4051620Y1821630D01*
X4142540Y1910000D01*
X4051610Y1998380D01*
X3970410Y1917180D01*
G03Y1902810I7181J-7185D01*
G37*
G36*
G01X4072670Y2840000D02*
X4918950D01*
G02X4939160Y2817640I-6J-20318D01*
G03X4938780Y2810000I75842J-7602D01*
G03X4960000Y2757230I76224J0D01*
G01Y2530000D01*
X4935740Y2505740D01*
X4074260D01*
X4050000Y2530000D01*
Y2810180D01*
G03X4070160Y2833500I-22498J39823D01*
G01X4072670Y2840000D01*
G37*
G36*
G01X3922670D02*
X3957330D01*
X3959840Y2833500D01*
G03X3992140Y2805450I42659J16501D01*
G01X4000000Y2803620D01*
Y2500000D01*
X4040000Y2460000D01*
X5570000D01*
X5750000Y2280000D01*
Y1540000D01*
X5450000Y1240000D01*
X5360000D01*
X5280000Y1320000D01*
Y1420000D01*
X5580000Y1720000D01*
Y2150000D01*
X5420000Y2310000D01*
X3910000D01*
X3880000Y2340000D01*
Y2803620D01*
X3887860Y2805450D01*
G03X3920160Y2833500I-10359J44551D01*
G01X3922670Y2840000D01*
G37*
G36*
G01X3765740Y3514260D02*
X4114260D01*
Y3502500D01*
G03X4116000Y3490000I45741J-4D01*
G03X4114260Y3477500I44001J-12496D01*
G01Y3452500D01*
G03X4116000Y3440000I45741J-4D01*
G03X4114260Y3427500I44001J-12496D01*
G01Y3402500D01*
G03X4116000Y3390000I45741J-4D01*
G03X4114260Y3377500I44001J-12496D01*
G01Y3352500D01*
G03X4116000Y3340000I45741J-4D01*
G03X4114260Y3327500I44001J-12496D01*
G01Y3302500D01*
G03X4116000Y3290000I45741J-4D01*
G03X4114260Y3277500I44001J-12496D01*
G01Y3252500D01*
G03X4126080Y3221820I45727J0D01*
G02Y3208180I-7535J-6820D01*
G03X4114260Y3177500I33907J-30680D01*
G01Y3152500D01*
G03X4116000Y3140000I45741J-4D01*
G03X4114260Y3127500I44001J-12496D01*
G01Y3102500D01*
G03X4116000Y3090000I45741J-4D01*
G03X4114260Y3077500I44001J-12496D01*
G01Y3052500D01*
G03X4116000Y3040000I45741J-4D01*
G03X4114260Y3027500I44001J-12496D01*
G01Y3002500D01*
G03X4116000Y2990000I45741J-4D01*
G03X4114260Y2977500I44001J-12496D01*
G01Y2965740D01*
X4052500D01*
G03X4021820Y2953920I0J-45727D01*
G02X4008180I-6820J7535D01*
G03X3977500Y2965740I-30680J-33907D01*
G01X3902500D01*
G03X3871820Y2953920I0J-45727D01*
G02X3858180I-6820J7535D01*
G03X3827500Y2965740I-30680J-33907D01*
G01X3783980D01*
G02X3764300Y2991120I0J20320D01*
G03X3765740Y3002500I-44299J11387D01*
G01Y3027500D01*
G03X3764000Y3040000I-45741J4D01*
G03X3765740Y3052500I-44001J12496D01*
G01Y3077500D01*
G03X3764000Y3090000I-45741J4D01*
G03X3765740Y3102500I-44001J12496D01*
G01Y3127500D01*
G03X3764000Y3140000I-45741J4D01*
G03X3765740Y3152500I-44001J12496D01*
G01Y3177500D01*
G03X3764000Y3190000I-45741J4D01*
G03X3765740Y3202500I-44001J12496D01*
G01Y3227500D01*
G03X3764000Y3240000I-45741J4D01*
G03X3765740Y3252500I-44001J12496D01*
G01Y3277500D01*
G03X3764000Y3290000I-45741J4D01*
G03X3765740Y3302500I-44001J12496D01*
G01Y3327500D01*
G03X3753920Y3358180I-45727J0D01*
G02Y3371820I7535J6820D01*
G03X3765740Y3402500I-33907J30680D01*
G01Y3427500D01*
G03X3753920Y3458180I-45727J0D01*
G02Y3471820I7535J6820D01*
G03X3765740Y3502500I-33907J30680D01*
G01Y3514260D01*
G37*
G36*
G01X3660420Y2939850D02*
X3720000Y2952500D01*
X3693710Y2970230D01*
X3650000Y2977500D01*
X3650450Y2946530D01*
G03X3660420Y2939850I9549J3471D01*
G37*
G36*
G01X3637680Y3263140D02*
X3650000Y3252500D01*
X3687540Y3265000D01*
X3650000Y3277500D01*
X3637680Y3266860D01*
G03Y3263140I9990J-1860D01*
G37*
G36*
G01Y3213140D02*
X3650000Y3202500D01*
X3687540Y3215000D01*
X3650000Y3227500D01*
X3637680Y3216860D01*
G03Y3213140I9990J-1860D01*
G37*
G36*
G01Y3163140D02*
X3650000Y3152500D01*
X3687540Y3165000D01*
X3650000Y3177500D01*
X3637680Y3166860D01*
G03Y3163140I9990J-1860D01*
G37*
G36*
G01X4113140Y3642320D02*
X4102500Y3630000D01*
X4115000Y3592460D01*
X4127500Y3630000D01*
X4116860Y3642320D01*
G03X4113140I-1860J-9990D01*
G37*
G36*
G01X4063140D02*
X4052500Y3630000D01*
X4065000Y3592460D01*
X4077500Y3630000D01*
X4066860Y3642320D01*
G03X4063140I-1860J-9990D01*
G37*
G36*
G01X4016070Y3646700D02*
X4002500Y3630000D01*
X4013810Y3584910D01*
X4027500Y3560000D01*
X4030110Y3638310D01*
G03X4016070Y3646700I-10112J-979D01*
G37*
G36*
G01X3763140Y3642320D02*
X3752500Y3630000D01*
X3765000Y3592460D01*
X3777500Y3630000D01*
X3766860Y3642320D01*
G03X3763140I-1860J-9990D01*
G37*
G36*
G01X3913140D02*
X3902500Y3630000D01*
X3915000Y3592460D01*
X3927500Y3630000D01*
X3916860Y3642320D01*
G03X3913140I-1860J-9990D01*
G37*
G36*
G01X3837180Y3714080D02*
X3851550Y3728450D01*
X3830000Y3752540D01*
X3808450Y3728450D01*
X3822820Y3714080D01*
G03X3837180I7180J7180D01*
G37*
G36*
G01X3863140Y3642320D02*
X3852500Y3630000D01*
X3865000Y3592460D01*
X3877500Y3630000D01*
X3866860Y3642320D01*
G03X3863140I-1860J-9990D01*
G37*
G36*
G01X3970480Y3799680D02*
Y3820000D01*
X3938200Y3821800D01*
X3940000Y3789520D01*
X3960320D01*
G03X3970480Y3799680I0J10160D01*
G37*
G36*
G01X3963140Y3642320D02*
X3952500Y3630000D01*
X3965000Y3592460D01*
X3977500Y3630000D01*
X3966860Y3642320D01*
G03X3963140I-1860J-9990D01*
G37*
G36*
G01X3724010Y4394100D02*
X3966850D01*
X4034100Y4326850D01*
Y3962620D01*
X3983430Y3955270D01*
G03X3944260Y3910000I6575J-45270D01*
G01Y3906180D01*
G02X3934790Y3896040I-10160J-3D01*
G03X3927710Y3895220I5219J-76040D01*
G01X3926900Y3895090D01*
X3915900D01*
Y4088190D01*
G03X3936220Y4140000I-55890J51810D01*
G03X3860000Y4216220I-76220J0D01*
G03X3784890Y4152960I0J-76220D01*
G02X3763840Y4136120I-20025J3455D01*
G03X3760000Y4136220I-3904J-76118D01*
G03X3756520Y4136140I11J-76220D01*
G02X3745900Y4146290I-460J10149D01*
G01Y4300000D01*
G03X3729530Y4339530I-55913J0D01*
G01X3709640Y4359410D01*
G02X3724010Y4394100I14369J14369D01*
G37*
G36*
G01X3768980Y4025880D02*
X3781540Y4038460D01*
X3760000Y4063180D01*
X3738460Y4038460D01*
X3751020Y4025880D01*
G03X3768980I8980J8980D01*
G37*
G36*
G01X3753660Y4028290D02*
X3730000Y4000000D01*
X3760000Y3971820D01*
X3790000Y4000000D01*
X3766340Y4028290D01*
G03X3753660I-6340J-11000D01*
G37*
G36*
G01X4130840Y3844880D02*
X4190000Y3860000D01*
X4161800Y3886800D01*
X4130000Y3910000D01*
X4119840Y3855000D01*
G03X4130840Y3844880I10155J0D01*
G37*
G36*
G01X4060000Y3920160D02*
X3990000Y3910000D01*
X4017850Y3883650D01*
X4050000Y3860000D01*
X4069960Y3908010D01*
G03X4060000Y3920160I-9960J1993D01*
G37*
G36*
G01X4025600Y3831690D02*
X4050000Y3860000D01*
X4020000Y3887540D01*
X3990000Y3860000D01*
X4014400Y3831690D01*
G03X4025600I5600J8480D01*
G37*
G36*
G01X3772160Y3827960D02*
X3790000Y3860000D01*
X3759750Y3887530D01*
X3730000Y3860000D01*
X3759120Y3826880D01*
G03X3772160Y3827960I5878J8289D01*
G37*
G36*
G01X3867180Y4104080D02*
X3881550Y4118450D01*
X3860000Y4142540D01*
X3838450Y4118450D01*
X3852820Y4104080D01*
G03X3867180I7180J7180D01*
G37*
G36*
G01X4114010Y4454100D02*
X4136850D01*
X4174100Y4416850D01*
Y3973150D01*
X4163240Y3962300D01*
G02X4145900Y3969480I-7181J7185D01*
G01Y4350000D01*
G03X4129530Y4389530I-55913J0D01*
G01X4099640Y4419410D01*
G02X4114010Y4454100I14369J14369D01*
G37*
G36*
G01X5140310Y2034260D02*
X5221050D01*
X5234260Y2021050D01*
Y1951040D01*
X5233980Y1949870D01*
G03Y1870130I166032J-39870D01*
G01X5234260Y1868960D01*
Y1841050D01*
X5254250Y1821060D01*
G03X5310070Y1764860I145748J88941D01*
G01X5311070Y1764240D01*
X5331050Y1744260D01*
X5358960D01*
X5360130Y1743980D01*
G03X5439870I39870J166032D01*
G01X5441040Y1744260D01*
X5468950D01*
X5488940Y1764250D01*
G03X5501820Y1772940I-88956J145738D01*
G02X5534260Y1756630I12121J-16308D01*
G01Y1738950D01*
X5234260Y1438950D01*
Y1401040D01*
X5233980Y1399870D01*
G03Y1320130I166032J-39870D01*
G01X5234260Y1318960D01*
Y1301050D01*
X5243450Y1291860D01*
G03X5287560Y1231510I156556J68132D01*
G02X5274180Y1195900I-13382J-15291D01*
G01X4685820D01*
G02X4672440Y1231510I2J20319D01*
G03X4730740Y1360000I-112442J128490D01*
G03X4610970Y1522950I-170734J0D01*
G03X4599530Y1539530I-50978J-22938D01*
G01X4524050Y1615000D01*
X4558300Y1649250D01*
X4599530Y1690470D01*
G03X4615170Y1721010I-39545J39527D01*
G01X4615700Y1724240D01*
X4679820Y1788360D01*
X4679840Y1788390D01*
G03X4730740Y1910000I-119838J121615D01*
G03X4703190Y2003000I-170744J0D01*
G02X4720310Y2034260I17123J10940D01*
G01X4819690D01*
G02X4836740Y2002890I-3J-20320D01*
G03X4809260Y1910000I143257J-92890D01*
G03X5150740I170740J0D01*
G03X5123260Y2002890I-170737J0D01*
G02X5140310Y2034260I17053J11050D01*
G37*
G36*
G01X4552820Y1507180D02*
X4494030Y1448390D01*
X4560000Y1357460D01*
X4625970Y1448390D01*
X4567180Y1507180D01*
G03X4552820I-7180J-7180D01*
G37*
G36*
G01X4567180Y1740410D02*
X4648380Y1821610D01*
X4560000Y1912540D01*
X4471620Y1821610D01*
X4552820Y1740410D01*
G03X4567180I7180J7180D01*
G37*
G36*
G01X4599540Y3214100D02*
X4708190D01*
G03X4755090Y3193940I51812J55900D01*
G02X4774100Y3173660I-1310J-20278D01*
G01Y3093150D01*
X4766850Y3085900D01*
X4574040D01*
G03X4568490Y3085620I38J-55900D01*
G01X4562900Y3085060D01*
X4561500Y3084470D01*
X4560720Y3084280D01*
G03X4534540Y3069530I13340J-54285D01*
G01X4500760Y3035740D01*
X4480000D01*
G03X4446280Y3020900I0J-45730D01*
G01X4276260D01*
X4275650Y3030410D01*
G03X4274000Y3040000I-45648J-2917D01*
G03X4275740Y3052490I-44001J12496D01*
G01Y3077510D01*
G03X4274000Y3090000I-45741J-6D01*
G03X4275740Y3102490I-44001J12496D01*
G01Y3127510D01*
G03X4274000Y3140000I-45741J-6D01*
G03X4275740Y3152490I-44001J12496D01*
G01Y3177520D01*
G03X4275070Y3185310I-45741J-10D01*
G02X4295090Y3209100I20020J3471D01*
G01X4341850D01*
X4381110Y3169830D01*
X4400470Y3150470D01*
G03X4416490Y3139280I39529J39529D01*
G01X4417860Y3138650D01*
X4443320Y3115890D01*
G03X4473800Y3104260I30475J34112D01*
G01X4553840D01*
G03X4557800Y3104430I20J45743D01*
G01X4563060Y3104890D01*
X4564560Y3105530D01*
X4565300Y3105730D01*
G03X4599540Y3150000I-11499J44270D01*
G01Y3214100D01*
G37*
G36*
G01X4645880Y2951020D02*
X4658460Y2938460D01*
X4683180Y2960000D01*
X4658460Y2981540D01*
X4645880Y2968980D01*
G03Y2951020I8980J-8980D01*
G37*
G36*
G01X4648290Y2966340D02*
X4620000Y2990000D01*
X4591820Y2960000D01*
X4620000Y2930000D01*
X4648290Y2953660D01*
G03Y2966340I-11000J6340D01*
G37*
G36*
G01X4242320Y2966860D02*
X4230000Y2977500D01*
X4192460Y2965000D01*
X4230000Y2952500D01*
X4242320Y2963140D01*
G03Y2966860I-9990J1860D01*
G37*
G36*
G01X4534060Y3000160D02*
X4480000Y2990000D01*
X4503230Y2958180D01*
X4530000Y2930000D01*
X4544200Y2989310D01*
G03X4534060Y3000160I-10140J687D01*
G37*
G36*
G01X4446880Y2959120D02*
X4480000Y2930000D01*
X4507530Y2959750D01*
X4480000Y2990000D01*
X4447960Y2972160D01*
G03X4446880Y2959120I7209J-7162D01*
G37*
G36*
G01X4435830Y3183930D02*
X4473800Y3150000D01*
X4516340Y3190000D01*
X4473800Y3230000D01*
X4435830Y3196070D01*
G03Y3183930I8140J-6070D01*
G37*
G36*
G01X4242320Y3266860D02*
X4230000Y3277500D01*
X4192460Y3265000D01*
X4230000Y3252500D01*
X4242320Y3263140D01*
G03Y3266860I-9990J1860D01*
G37*
G36*
G01X4645880Y3611020D02*
X4658460Y3598460D01*
X4683180Y3620000D01*
X4658460Y3641540D01*
X4645880Y3628980D01*
G03Y3611020I8980J-8980D01*
G37*
G36*
G01X4648290Y3626340D02*
X4620000Y3650000D01*
X4591820Y3620000D01*
X4620000Y3590000D01*
X4648290Y3613660D01*
G03Y3626340I-11000J6340D01*
G37*
G36*
G01X4600600Y3566310D02*
X4620000Y3590000D01*
X4595000Y3623180D01*
X4570000Y3590000D01*
X4589400Y3566310D01*
G03X4600600I5600J11400D01*
G37*
G36*
G01X4589400Y3533690D02*
X4570000Y3510000D01*
X4595000Y3476820D01*
X4620000Y3510000D01*
X4600600Y3533690D01*
G03X4589400I-5600J-11400D01*
G37*
G36*
G01X4645880Y3331020D02*
X4658460Y3318460D01*
X4683180Y3340000D01*
X4658460Y3361540D01*
X4645880Y3348980D01*
G03Y3331020I8980J-8980D01*
G37*
G36*
G01X4648290Y3346340D02*
X4620000Y3370000D01*
X4591820Y3340000D01*
X4620000Y3310000D01*
X4648290Y3333660D01*
G03Y3346340I-11000J6340D01*
G37*
G36*
G01X4242320Y3316860D02*
X4230000Y3327500D01*
X4192460Y3315000D01*
X4230000Y3302500D01*
X4242320Y3313140D01*
G03Y3316860I-9990J1860D01*
G37*
G36*
G01Y3366860D02*
X4230000Y3377500D01*
X4192460Y3365000D01*
X4230000Y3352500D01*
X4242320Y3363140D01*
G03Y3366860I-9990J1860D01*
G37*
G36*
G01X4528010Y3389960D02*
X4480000Y3370000D01*
X4503650Y3337850D01*
X4530000Y3310000D01*
X4540160Y3380000D01*
G03X4528010Y3389960I-10157J0D01*
G37*
G36*
G01X4427290Y3358580D02*
X4480000Y3310000D01*
X4507390Y3339140D01*
X4530000Y3370000D01*
X4434640Y3375150D01*
G03X4427290Y3358580I527J-10149D01*
G37*
G36*
G01X4385920Y3487180D02*
X4371550Y3501550D01*
X4347460Y3480000D01*
X4371550Y3458450D01*
X4385920Y3472820D01*
G03Y3487180I-7180J7180D01*
G37*
G36*
G01X4329680Y3449520D02*
X4350000D01*
X4351800Y3481800D01*
X4319520Y3480000D01*
Y3459680D01*
G03X4329680Y3449520I10160J0D01*
G37*
G36*
G01X4242320Y3416860D02*
X4230000Y3427500D01*
X4192460Y3415000D01*
X4230000Y3402500D01*
X4242320Y3413140D01*
G03Y3416860I-9990J1860D01*
G37*
G36*
G01X4451690Y3474400D02*
X4480000Y3450000D01*
X4507540Y3480000D01*
X4480000Y3510000D01*
X4451690Y3485600D01*
G03Y3474400I8480J-5600D01*
G37*
G36*
G01X4357180Y3584080D02*
X4371550Y3598450D01*
X4350000Y3622540D01*
X4328450Y3598450D01*
X4342820Y3584080D01*
G03X4357180I7180J7180D01*
G37*
G36*
G01X4385920Y3627180D02*
X4371550Y3641550D01*
X4347460Y3620000D01*
X4371550Y3598450D01*
X4385920Y3612820D01*
G03Y3627180I-7180J7180D01*
G37*
G36*
G01X4242320Y3466860D02*
X4230000Y3477500D01*
X4192460Y3465000D01*
X4230000Y3452500D01*
X4242320Y3463140D01*
G03Y3466860I-9990J1860D01*
G37*
G36*
G01X4451690Y3614400D02*
X4480000Y3590000D01*
X4507540Y3620000D01*
X4480000Y3650000D01*
X4451690Y3625600D01*
G03Y3614400I8480J-5600D01*
G37*
G36*
G01X4189120Y3560620D02*
X4160000Y3527500D01*
X4195000Y3512460D01*
X4230000Y3527500D01*
X4200880Y3560620D01*
G03X4189120I-5880J-8290D01*
G37*
G36*
G01X4302660Y3892500D02*
X4330000D01*
X4331800Y3931800D01*
X4292500Y3930000D01*
Y3902660D01*
G03X4302660Y3892500I10160J0D01*
G37*
G36*
G01X4494160Y3922820D02*
X4513490Y3903490D01*
X4542540Y3930000D01*
X4513490Y3956510D01*
X4494160Y3937180D01*
G03Y3922820I7180J-7180D01*
G37*
G36*
G01X4930180Y2846430D02*
X4950000Y2870000D01*
X4925000Y2902540D01*
X4900000Y2870000D01*
X4919820Y2846430D01*
G03X4930180I5180J8740D01*
G37*
G36*
G01X5170180D02*
X5190000Y2870000D01*
X5165000Y2902540D01*
X5140000Y2870000D01*
X5159820Y2846430D01*
G03X5170180I5180J8740D01*
G37*
G36*
G01X5159820Y3073570D02*
X5140000Y3050000D01*
X5165000Y3017460D01*
X5190000Y3050000D01*
X5170180Y3073570D01*
G03X5159820I-5180J-8740D01*
G37*
G36*
G01X5174080Y3095610D02*
X5185000Y3140000D01*
X5149470Y3172480D01*
X5115000Y3140000D01*
X5158670Y3092220D01*
G03X5174080Y3095610I6329J7949D01*
G37*
G36*
G01X4919820Y3073570D02*
X4900000Y3050000D01*
X4925000Y3017460D01*
X4950000Y3050000D01*
X4930180Y3073570D01*
G03X4919820I-5180J-8740D01*
G37*
G36*
G01X4934080Y3095610D02*
X4945000Y3140000D01*
X4909470Y3172480D01*
X4875000Y3140000D01*
X4918670Y3092220D01*
G03X4934080Y3095610I6329J7949D01*
G37*
G36*
G01X5007820Y2845920D02*
X4993450Y2831550D01*
X5015000Y2807460D01*
X5036550Y2831550D01*
X5022180Y2845920D01*
G03X5007820I-7180J-7180D01*
G37*
G36*
G01X5020180Y2846430D02*
X5040000Y2870000D01*
X5015000Y2902540D01*
X4990000Y2870000D01*
X5009820Y2846430D01*
G03X5020180I5180J8740D01*
G37*
G36*
G01X5009820Y2953570D02*
X4990000Y2930000D01*
X5015000Y2897460D01*
X5040000Y2930000D01*
X5020180Y2953570D01*
G03X5009820I-5180J-8740D01*
G37*
G36*
G01X5020180Y2966430D02*
X5040000Y2990000D01*
X5015000Y3022540D01*
X4990000Y2990000D01*
X5009820Y2966430D01*
G03X5020180I5180J8740D01*
G37*
G36*
G01X5009820Y3073570D02*
X4990000Y3050000D01*
X5015000Y3017460D01*
X5040000Y3050000D01*
X5020180Y3073570D01*
G03X5009820I-5180J-8740D01*
G37*
G36*
G01X5021330Y3092220D02*
X5065000Y3140000D01*
X5030530Y3172480D01*
X4995000Y3140000D01*
X5005920Y3095610D01*
G03X5021330Y3092220I9081J4559D01*
G37*
G36*
G01X4724080Y3262820D02*
X4738450Y3248450D01*
X4762540Y3270000D01*
X4738450Y3291550D01*
X4724080Y3277180D01*
G03Y3262820I7180J-7180D01*
G37*
G36*
G01X5038980Y3365880D02*
X5051540Y3378460D01*
X5030000Y3403180D01*
X5008460Y3378460D01*
X5021020Y3365880D01*
G03X5038980I8980J8980D01*
G37*
G36*
G01X5023180Y3373000D02*
X4995000Y3340000D01*
X5030000Y3306820D01*
X5065000Y3340000D01*
X5036820Y3373000D01*
G03X5023180I-6820J-10710D01*
G37*
G36*
G01X5129680Y3460320D02*
X5150000Y3440000D01*
X5170320Y3470480D01*
X5129680D01*
Y3460320D01*
G37*
G36*
G01X5144120Y3373120D02*
X5115000Y3340000D01*
X5150000Y3307460D01*
X5185000Y3340000D01*
X5155880Y3373120D01*
G03X5144120I-5880J-8290D01*
G37*
G36*
G01X4904120D02*
X4875000Y3340000D01*
X4910000Y3307460D01*
X4945000Y3340000D01*
X4915880Y3373120D01*
G03X4904120I-5880J-8290D01*
G37*
G36*
G01X4724080Y3402820D02*
X4738450Y3388450D01*
X4762540Y3410000D01*
X4738450Y3431550D01*
X4724080Y3417180D01*
G03Y3402820I7180J-7180D01*
G37*
G36*
G01X6199240Y3685740D02*
X6090380Y3794610D01*
G03X6050850Y3810980I-39530J-39543D01*
G01X6034060D01*
X5995060Y3849970D01*
X5995030Y3850010D01*
G03X5898000Y3890820I-97030J-94944D01*
G03X5762260Y3755080I0J-135740D01*
G03X5819280Y3644500I135735J0D01*
G02X5819110Y3611540I-11975J-16419D01*
G03Y3390620I78887J-110460D01*
G02Y3357540I-11805J-16540D01*
G03Y3136620I78887J-110460D01*
G02Y3103540I-11805J-16540D01*
G03X5762260Y2993080I78887J-110460D01*
G01Y2993070D01*
G03X5771590Y2943620I135741J6D01*
G02X5752670Y2915900I-18923J-7401D01*
G01X5565740D01*
Y2930000D01*
G03X5554530Y2960000I-45748J0D01*
G03X5565740Y2990000I-34538J30000D01*
G01Y3050000D01*
G03X5559820Y3072500I-45739J-6D01*
G02X5567510Y3100180I17693J9993D01*
G03X5590740Y3140000I-22514J39820D01*
G01Y3200000D01*
G03X5581400Y3227700I-45745J0D01*
G02Y3252300I16173J12300D01*
G03X5590740Y3280000I-36405J27700D01*
G01Y3340000D01*
G03X5579890Y3369580I-45746J0D01*
G03X5586220Y3399980I-69892J30412D01*
G01Y3400000D01*
G03X5510000Y3476220I-76220J0D01*
G03X5463150Y3460120I0J-76215D01*
G02X5430820Y3471800I-12484J16030D01*
G03X5445900Y3509990I-40822J38192D01*
G01Y4826850D01*
X5473150Y4854100D01*
X5755090D01*
G02X5773700Y4825620I0J-20320D01*
G03X5762260Y4771080I124289J-54540D01*
G03X5819110Y4660620I135737J0D01*
G02Y4627540I-11805J-16540D01*
G03Y4406620I78887J-110460D01*
G02Y4373540I-11805J-16540D01*
G03X5762260Y4263080I78887J-110460D01*
G03X6033740I135740J0D01*
G03X5976890Y4373540I-135737J0D01*
G02Y4406620I11805J16540D01*
G03Y4627540I-78887J110460D01*
G02Y4660620I11805J16540D01*
G03X6033740Y4771080I-78887J110460D01*
G03X6033400Y4780660I-135739J-21D01*
G02X6061770Y4800730I20270J1434D01*
G03X6080000Y4796940I18230J41948D01*
G01X6169760D01*
X6220000D01*
G03X6237130Y4800270I-3J45739D01*
G01X6243370Y4802790D01*
X6270140Y4775990D01*
X6270770Y4773050D01*
G03X6304350Y4737930I45229J9632D01*
G02X6309270Y4706640I-10114J-17622D01*
G03X6275260Y4618680I96740J-87960D01*
G03X6335210Y4508760I130746J0D01*
G02Y4474600I-11003J-17080D01*
G03Y4254760I70796J-109920D01*
G02Y4220600I-11003J-17080D01*
G03X6275260Y4110680I70796J-109920D01*
G03X6406000Y3979940I130740J0D01*
G03X6515920Y4039890I0J130746D01*
G02X6550080I17080J-11003D01*
G03X6589210Y4000760I109920J70790D01*
G02Y3966600I-11003J-17080D01*
G03Y3746760I70796J-109920D01*
G02Y3712600I-11003J-17080D01*
G03X6550080Y3673470I70790J-109920D01*
G02X6515920I-17080J11003D01*
G03X6312600Y3694170I-109921J-70795D01*
G01X6312570Y3694130D01*
X6277010Y3658580D01*
X6262190D01*
X6259230Y3663520D01*
G03X6220000Y3685740I-39230J-23521D01*
G01X6199240D01*
G37*
G36*
G01X5397820Y2845920D02*
X5383450Y2831550D01*
X5405000Y2807460D01*
X5426550Y2831550D01*
X5412180Y2845920D01*
G03X5397820I-7180J-7180D01*
G37*
G36*
G01X5410180Y2846430D02*
X5430000Y2870000D01*
X5405000Y2902540D01*
X5380000Y2870000D01*
X5399820Y2846430D01*
G03X5410180I5180J8740D01*
G37*
G36*
G01X5399820Y3073570D02*
X5380000Y3050000D01*
X5405000Y3017460D01*
X5430000Y3050000D01*
X5410180Y3073570D01*
G03X5399820I-5180J-8740D01*
G37*
G36*
G01X5414080Y3095610D02*
X5425000Y3140000D01*
X5389470Y3172480D01*
X5355000Y3140000D01*
X5398670Y3092220D01*
G03X5414080Y3095610I6329J7949D01*
G37*
G36*
G01X5535120Y2870840D02*
X5520000Y2930000D01*
X5493200Y2901800D01*
X5470000Y2870000D01*
X5525000Y2859840D01*
G03X5535120Y2870840I0J10155D01*
G37*
G36*
G01X5489820Y2953570D02*
X5470000Y2930000D01*
X5495000Y2897460D01*
X5520000Y2930000D01*
X5500180Y2953570D01*
G03X5489820I-5180J-8740D01*
G37*
G36*
G01X5500180Y2966430D02*
X5520000Y2990000D01*
X5495000Y3022540D01*
X5470000Y2990000D01*
X5489820Y2966430D01*
G03X5500180I5180J8740D01*
G37*
G36*
G01X5489820Y3073570D02*
X5470000Y3050000D01*
X5495000Y3017460D01*
X5520000Y3050000D01*
X5500180Y3073570D01*
G03X5489820I-5180J-8740D01*
G37*
G36*
G01X5501330Y3092220D02*
X5545000Y3140000D01*
X5510530Y3172480D01*
X5475000Y3140000D01*
X5485920Y3095610D01*
G03X5501330Y3092220I9081J4559D01*
G37*
G36*
G01X5247820Y2845920D02*
X5233450Y2831550D01*
X5255000Y2807460D01*
X5276550Y2831550D01*
X5262180Y2845920D01*
G03X5247820I-7180J-7180D01*
G37*
G36*
G01X5260180Y2846430D02*
X5280000Y2870000D01*
X5255000Y2902540D01*
X5230000Y2870000D01*
X5249820Y2846430D01*
G03X5260180I5180J8740D01*
G37*
G36*
G01X5249820Y2953570D02*
X5230000Y2930000D01*
X5255000Y2897460D01*
X5280000Y2930000D01*
X5260180Y2953570D01*
G03X5249820I-5180J-8740D01*
G37*
G36*
G01X5260180Y2966430D02*
X5280000Y2990000D01*
X5255000Y3022540D01*
X5230000Y2990000D01*
X5249820Y2966430D01*
G03X5260180I5180J8740D01*
G37*
G36*
G01X5249820Y3073570D02*
X5230000Y3050000D01*
X5255000Y3017460D01*
X5280000Y3050000D01*
X5260180Y3073570D01*
G03X5249820I-5180J-8740D01*
G37*
G36*
G01X5261330Y3092220D02*
X5305000Y3140000D01*
X5270530Y3172480D01*
X5235000Y3140000D01*
X5245920Y3095610D01*
G03X5261330Y3092220I9081J4559D01*
G37*
G36*
G01X5518980Y3365880D02*
X5531540Y3378460D01*
X5510000Y3403180D01*
X5488460Y3378460D01*
X5501020Y3365880D01*
G03X5518980I8980J8980D01*
G37*
G36*
G01X5503180Y3373000D02*
X5475000Y3340000D01*
X5510000Y3306820D01*
X5545000Y3340000D01*
X5516820Y3373000D01*
G03X5503180I-6820J-10710D01*
G37*
G36*
G01X5278980Y3365880D02*
X5291540Y3378460D01*
X5270000Y3403180D01*
X5248460Y3378460D01*
X5261020Y3365880D01*
G03X5278980I8980J8980D01*
G37*
G36*
G01X5263180Y3373000D02*
X5235000Y3340000D01*
X5270000Y3306820D01*
X5305000Y3340000D01*
X5276820Y3373000D01*
G03X5263180I-6820J-10710D01*
G37*
G36*
G01X5380480Y3449680D02*
Y3490320D01*
X5350000Y3470000D01*
X5370320Y3449680D01*
X5380480D01*
G37*
G36*
G01X5384120Y3373120D02*
X5355000Y3340000D01*
X5390000Y3307460D01*
X5425000Y3340000D01*
X5395880Y3373120D01*
G03X5384120I-5880J-8290D01*
G37*
G36*
G01X6018090Y561860D02*
X5961640Y618310D01*
X5895460Y554680D01*
X5961640Y491050D01*
X6018090Y547500D01*
G03Y561860I-7180J7180D01*
G37*
G36*
G01X6061520Y308490D02*
X5988000Y382150D01*
X5894820Y300680D01*
X5988000Y219210D01*
X6061520Y292870D01*
G03Y308490I-10020J7810D01*
G37*
G36*
G01X6294770Y291700D02*
X6345910Y240600D01*
X6409180Y300680D01*
X6345900Y360770D01*
X6294770Y309660D01*
G03Y291700I8980J-8980D01*
G37*
G36*
G01X6174680Y568590D02*
X6215320D01*
X6195000Y599070D01*
X6174680Y578750D01*
Y568590D01*
G37*
G36*
G01X6292980Y547500D02*
X6345900Y494580D01*
X6408540Y554680D01*
X6345900Y614780D01*
X6292980Y561860D01*
G03Y547500I7180J-7180D01*
G37*
G36*
G01X6200180Y626430D02*
X6220000Y650000D01*
X6195000Y682540D01*
X6170000Y650000D01*
X6189820Y626430D01*
G03X6200180I5180J8740D01*
G37*
G36*
G01X5975300Y898680D02*
X5898000D01*
X5895750Y806430D01*
X5988000Y808680D01*
Y885980D01*
G03X5975300Y898680I-12700J0D01*
G37*
G36*
G01X6292980Y1055500D02*
X6345900Y1002580D01*
X6408540Y1062680D01*
X6345900Y1122780D01*
X6292980Y1069860D01*
G03Y1055500I7180J-7180D01*
G37*
G36*
G01X6018090Y1069860D02*
X5961640Y1126310D01*
X5895460Y1062680D01*
X5961640Y999050D01*
X6018090Y1055500D01*
G03Y1069860I-7180J7180D01*
G37*
G36*
G01X6112180Y734080D02*
X6126550Y748450D01*
X6105000Y772540D01*
X6083450Y748450D01*
X6097820Y734080D01*
G03X6112180I7180J7180D01*
G37*
G36*
G01X6099820Y733570D02*
X6080000Y710000D01*
X6105000Y677460D01*
X6130000Y710000D01*
X6110180Y733570D01*
G03X6099820I-5180J-8740D01*
G37*
G36*
G01X6200180Y1136430D02*
X6220000Y1160000D01*
X6195000Y1192540D01*
X6170000Y1160000D01*
X6189820Y1136430D01*
G03X6200180I5180J8740D01*
G37*
G36*
G01X6016300Y1325660D02*
X5961630Y1380310D01*
X5894820Y1316680D01*
X5961630Y1253050D01*
X6016300Y1307700D01*
G03Y1325660I-8980J8980D01*
G37*
G36*
G01X6294770Y1307700D02*
X6345910Y1256600D01*
X6409180Y1316680D01*
X6345900Y1376770D01*
X6294770Y1325660D01*
G03Y1307700I8980J-8980D01*
G37*
G36*
G01X6051690Y1184400D02*
X6080000Y1160000D01*
X6107540Y1190000D01*
X6080000Y1220000D01*
X6051690Y1195600D01*
G03Y1184400I8480J-5600D01*
G37*
G36*
G01X6292980Y1817500D02*
X6345900Y1764580D01*
X6408540Y1824680D01*
X6345900Y1884780D01*
X6292980Y1831860D01*
G03Y1817500I7180J-7180D01*
G37*
G36*
G01X6018090Y1831860D02*
X5961640Y1888310D01*
X5895460Y1824680D01*
X5961640Y1761050D01*
X6018090Y1817500D01*
G03Y1831860I-7180J7180D01*
G37*
G36*
G01X6189820Y1753570D02*
X6170000Y1730000D01*
X6195000Y1697460D01*
X6220000Y1730000D01*
X6200180Y1753570D01*
G03X6189820I-5180J-8740D01*
G37*
G36*
G01X6292980Y2071500D02*
X6345900Y2018580D01*
X6408540Y2078680D01*
X6345900Y2138780D01*
X6292980Y2085860D01*
G03Y2071500I7180J-7180D01*
G37*
G36*
G01X6018090Y2085860D02*
X5961640Y2142310D01*
X5895460Y2078680D01*
X5961640Y2015050D01*
X6018090Y2071500D01*
G03Y2085860I-7180J7180D01*
G37*
G36*
G01X6200180Y2156430D02*
X6220000Y2180000D01*
X6195000Y2212540D01*
X6170000Y2180000D01*
X6189820Y2156430D01*
G03X6200180I5180J8740D01*
G37*
G36*
G01X6110180Y1646430D02*
X6130000Y1670000D01*
X6105000Y1702540D01*
X6080000Y1670000D01*
X6099820Y1646430D01*
G03X6110180I5180J8740D01*
G37*
G36*
G01X6016300Y2748060D02*
X5961630Y2802710D01*
X5894820Y2739080D01*
X5961630Y2675450D01*
X6016300Y2730100D01*
G03Y2748060I-8980J8980D01*
G37*
G36*
G01X6294770Y2577700D02*
X6345910Y2526600D01*
X6409180Y2586680D01*
X6345900Y2646770D01*
X6294770Y2595660D01*
G03Y2577700I8980J-8980D01*
G37*
G36*
G01X6061520Y2492890D02*
X5988000Y2566550D01*
X5894820Y2485080D01*
X5988000Y2403610D01*
X6061520Y2477270D01*
G03Y2492890I-10020J7810D01*
G37*
G36*
G01X6294770Y2323700D02*
X6345910Y2272600D01*
X6409180Y2332680D01*
X6345900Y2392770D01*
X6294770Y2341660D01*
G03Y2323700I8980J-8980D01*
G37*
G36*
G01X6112180Y2264080D02*
X6126550Y2278450D01*
X6105000Y2302540D01*
X6083450Y2278450D01*
X6097820Y2264080D01*
G03X6112180I7180J7180D01*
G37*
G36*
G01X6099820Y2263570D02*
X6080000Y2240000D01*
X6105000Y2207460D01*
X6130000Y2240000D01*
X6110180Y2263570D01*
G03X6099820I-5180J-8740D01*
G37*
G36*
G01X6294770Y2831700D02*
X6345910Y2780600D01*
X6409180Y2840680D01*
X6345900Y2900770D01*
X6294770Y2849660D01*
G03Y2831700I8980J-8980D01*
G37*
G36*
G01X6016300Y3002060D02*
X5961630Y3056710D01*
X5894820Y2993080D01*
X5961630Y2929450D01*
X6016300Y2984100D01*
G03Y3002060I-8980J8980D01*
G37*
G36*
G01X6018090Y3254260D02*
X5961640Y3310710D01*
X5895460Y3247080D01*
X5961640Y3183450D01*
X6018090Y3239900D01*
G03Y3254260I-7180J7180D01*
G37*
G36*
G01X6292980Y3087500D02*
X6345900Y3034580D01*
X6408540Y3094680D01*
X6345900Y3154780D01*
X6292980Y3101860D01*
G03Y3087500I7180J-7180D01*
G37*
G36*
G01X6155800Y3129310D02*
X6170000Y3070000D01*
X6196770Y3098180D01*
X6220000Y3130000D01*
X6165940Y3140160D01*
G03X6155800Y3129310I0J-10163D01*
G37*
G36*
G01X6253430Y3100570D02*
X6220000Y3130000D01*
X6192470Y3100270D01*
X6220000Y3070000D01*
X6252270Y3087430D01*
G03X6253430Y3100570I-7119J7250D01*
G37*
G36*
G01X6097820Y3045920D02*
X6083450Y3031550D01*
X6105000Y3007460D01*
X6126550Y3031550D01*
X6112180Y3045920D01*
G03X6097820I-7180J-7180D01*
G37*
G36*
G01X6110180Y3046430D02*
X6130000Y3070000D01*
X6105000Y3102540D01*
X6080000Y3070000D01*
X6099820Y3046430D01*
G03X6110180I5180J8740D01*
G37*
G36*
G01X6018090Y3762260D02*
X5961640Y3818710D01*
X5895460Y3755080D01*
X5961640Y3691450D01*
X6018090Y3747900D01*
G03Y3762260I-7180J7180D01*
G37*
G36*
G01X6292980Y3595500D02*
X6345900Y3542580D01*
X6408540Y3602680D01*
X6345900Y3662780D01*
X6292980Y3609860D01*
G03Y3595500I7180J-7180D01*
G37*
G36*
G01X6155800Y3639310D02*
X6170000Y3580000D01*
X6196770Y3608180D01*
X6220000Y3640000D01*
X6165940Y3650160D01*
G03X6155800Y3639310I0J-10163D01*
G37*
G36*
G01X6255370Y3608660D02*
X6220000Y3640000D01*
X6192480Y3610350D01*
X6220000Y3580000D01*
X6253660Y3594880D01*
G03X6255370Y3608660I-6508J7804D01*
G37*
G36*
G01X6174680Y3354520D02*
X6215320D01*
X6195000Y3385000D01*
X6174680Y3364680D01*
Y3354520D01*
G37*
G36*
G01X6292980Y3341500D02*
X6345900Y3288580D01*
X6408540Y3348680D01*
X6345900Y3408780D01*
X6292980Y3355860D01*
G03Y3341500I7180J-7180D01*
G37*
G36*
G01X6200180Y3436430D02*
X6220000Y3460000D01*
X6195000Y3492540D01*
X6170000Y3460000D01*
X6189820Y3436430D01*
G03X6200180I5180J8740D01*
G37*
G36*
G01X5988920Y3421360D02*
X5987990Y3501200D01*
X5896190Y3502870D01*
X5898000Y3411080D01*
X5978760D01*
G03X5988920Y3421360I0J10161D01*
G37*
G36*
G01X6097820Y3440920D02*
X6083450Y3426550D01*
X6105000Y3402460D01*
X6126550Y3426550D01*
X6112180Y3440920D01*
G03X6097820I-7180J-7180D01*
G37*
G36*
G01X6110180Y3436430D02*
X6130000Y3460000D01*
X6105000Y3492540D01*
X6080000Y3460000D01*
X6099820Y3436430D01*
G03X6110180I5180J8740D01*
G37*
G36*
G01X6099820Y3543570D02*
X6080000Y3520000D01*
X6105000Y3487460D01*
X6130000Y3520000D01*
X6110180Y3543570D01*
G03X6099820I-5180J-8740D01*
G37*
G36*
G01X6110180Y3556430D02*
X6130000Y3580000D01*
X6105000Y3612540D01*
X6080000Y3580000D01*
X6099820Y3556430D01*
G03X6110180I5180J8740D01*
G37*
G36*
G01X6248310Y4878280D02*
X6220000Y4902680D01*
X6192460Y4872680D01*
X6220000Y4842680D01*
X6248310Y4867080D01*
G03Y4878280I-8480J5600D01*
G37*
G36*
G01X6244630Y4866260D02*
X6316000Y4794800D01*
X6408540Y4872680D01*
X6316000Y4950560D01*
X6244630Y4879100D01*
G03Y4866260I7870J-6420D01*
G37*
G36*
G01X6064880Y4901840D02*
X6080000Y4842680D01*
X6106800Y4870880D01*
X6130000Y4902680D01*
X6075000Y4912840D01*
G03X6064880Y4901840I0J-10155D01*
G37*
G36*
G01X6321000Y880980D02*
Y808680D01*
X6408250Y806430D01*
X6406000Y893680D01*
X6333700D01*
G03X6321000Y880980I0J-12700D01*
G37*
%LPC*%
G75*
G54D34*
X2180000Y1090000D03*
%LPD*%
G75*
G54D10*
X310000Y300680D03*
Y554680D03*
Y808680D03*
Y1062680D03*
Y1316680D03*
Y1570680D03*
Y1824680D03*
Y2078680D03*
Y2332680D03*
Y2586680D03*
Y2840680D03*
Y3094680D03*
Y3348680D03*
Y3602680D03*
Y3856680D03*
Y4110680D03*
Y4364680D03*
Y4618680D03*
X564000Y300680D03*
Y554680D03*
Y808680D03*
Y1062680D03*
Y1316680D03*
Y1570680D03*
Y1824680D03*
Y2078680D03*
Y2332680D03*
Y2586680D03*
Y2840680D03*
Y3094680D03*
Y3348680D03*
Y3602680D03*
Y3856680D03*
Y4110680D03*
Y4364680D03*
Y4618680D03*
Y4872680D03*
X6660000Y300680D03*
Y554680D03*
X6406000Y300680D03*
Y554680D03*
X6660000Y808680D03*
Y1062680D03*
X6406000Y808680D03*
Y1062680D03*
X6660000Y1316680D03*
Y1570680D03*
X6406000Y1316680D03*
Y1570680D03*
X6660000Y1824680D03*
Y2078680D03*
X6406000Y1824680D03*
Y2078680D03*
X6660000Y2332680D03*
Y2586680D03*
X6406000Y2332680D03*
Y2586680D03*
X6660000Y2840680D03*
Y3094680D03*
X6406000Y2840680D03*
Y3094680D03*
X6660000Y3348680D03*
Y3602680D03*
Y3856680D03*
X6406000Y3348680D03*
Y3602680D03*
Y3856680D03*
X6660000Y4110680D03*
Y4364680D03*
X6406000Y4110680D03*
Y4364680D03*
X6660000Y4618680D03*
X6406000D03*
X6660000Y4872680D03*
G54D20*
X3130000Y3855000D03*
Y3465000D03*
G54D11*
X118570Y332770D03*
Y732770D03*
Y1532770D03*
Y1132770D03*
Y3102770D03*
Y3502770D03*
Y4302770D03*
Y3902770D03*
X865000Y525000D03*
X800000Y1030000D03*
X865000Y775000D03*
X800000Y1280000D03*
X860000Y1879040D03*
X1427230Y388570D03*
X1419330Y855390D03*
Y1255390D03*
X1049330Y4115390D03*
Y4515390D03*
X1827230Y388570D03*
X1469330Y2095390D03*
Y2495390D03*
X1459330Y2935390D03*
X1859330D03*
X1849330Y3805390D03*
X1449330D03*
X1849330Y3405390D03*
X1449330D03*
X1459330Y4295390D03*
X1859330D03*
X1652770Y4691430D03*
X2227230Y388570D03*
X2259330Y2935390D03*
X2249330Y3805390D03*
Y3405390D03*
X2259330Y4295390D03*
X2452770Y4691430D03*
X2052770D03*
X2627230Y388570D03*
X2898570Y792770D03*
Y1592770D03*
Y1192770D03*
X2659330Y2935390D03*
X2649330Y3805390D03*
Y3405390D03*
X2659330Y4295390D03*
X2790000Y4080000D03*
X2890000D03*
Y3980000D03*
X2790000D03*
X3387230Y358570D03*
Y758570D03*
X3600000Y1540000D03*
X3360000D03*
X3240000D03*
X3600000Y1840000D03*
X3360000D03*
X3240000D03*
Y2120000D03*
X3360000Y2230000D03*
X3600000D03*
X3610000Y4180000D03*
X3390000Y4290000D03*
X3140000D03*
X3262770Y4691430D03*
X3787230Y358570D03*
Y758570D03*
X4090000Y2620000D03*
Y2546340D03*
X3940000Y3240000D03*
X3800000D03*
X4080000D03*
Y3040000D03*
X3800000D03*
X3940000D03*
Y3140000D03*
X3800000D03*
X4080000D03*
Y3340000D03*
X3800000D03*
X3940000D03*
X4080000Y3440000D03*
X3800000D03*
X3940000D03*
X3830000Y3750000D03*
X3940000Y3820000D03*
X3990000Y4250000D03*
X3760000Y4060000D03*
X3860000Y4140000D03*
X4140000Y4420000D03*
X4062770Y4691430D03*
X3662770D03*
X4587230Y358570D03*
X4187230D03*
X4587230Y758570D03*
X4187230D03*
X4190000Y2546340D03*
Y2620000D03*
X4290000Y2546340D03*
Y2620000D03*
X4390000Y2546340D03*
Y2620000D03*
X4490000Y2546340D03*
Y2620000D03*
X4590000Y2546340D03*
Y2620000D03*
X4690000Y2546340D03*
Y2620000D03*
X4330000Y3170000D03*
Y3060000D03*
X4680000Y2960000D03*
Y3340000D03*
Y3620000D03*
X4350000Y3480000D03*
Y3620000D03*
X4987230Y358570D03*
Y758570D03*
X4790000Y2546340D03*
Y2620000D03*
X4890000Y2546340D03*
Y2620000D03*
X5015000Y2810000D03*
X4760000Y3270000D03*
X5030000Y3400000D03*
X4760000Y3410000D03*
X5118570Y3902770D03*
Y4302770D03*
Y4702770D03*
X5387230Y358570D03*
Y758570D03*
X5405000Y2810000D03*
X5255000D03*
X5270000Y3400000D03*
X5510000D03*
X5588570Y3902770D03*
Y4302770D03*
Y4702770D03*
X6105000Y770000D03*
Y2300000D03*
Y3010000D03*
Y3405000D03*
X6838570Y222770D03*
Y622770D03*
Y1022770D03*
Y1422770D03*
Y2992770D03*
Y3392770D03*
Y3792770D03*
Y4152770D03*
Y4552770D03*
Y4952770D03*
G54D30*
G01X775000Y160000D02*
X755000Y140000D01*
X360000D01*
X310000Y190000D01*
Y300680D01*
G01X775000Y2970000D02*
X439320D01*
X310000Y2840680D01*
G01X775000Y5000000D02*
X437320D01*
X310000Y4872680D01*
G01X775000Y4750000D02*
X441320D01*
X310000Y4618680D01*
G01X865000Y4620000D02*
Y4619070D01*
X735930Y4490000D01*
X220000D01*
X150000Y4560000D01*
Y5020000D01*
X210000Y5080000D01*
X1020000D01*
X1530000Y4570000D01*
X4700000D01*
X4830000Y4440000D01*
Y3070000D01*
X4790000Y3030000D01*
X4574070D01*
X4505000Y2960930D01*
Y2960000D01*
G01X564000Y300680D02*
X740680D01*
X775000Y335000D01*
G01D02*
Y430000D01*
G01X1072000Y300680D02*
X809310D01*
X775000Y334990D01*
Y335000D01*
G01X865000Y160000D02*
X885000Y140000D01*
X6440000D01*
X6540000Y240000D01*
Y2670000D01*
X6500000Y2710000D01*
X6190000D01*
X6040000Y2860000D01*
X5535000D01*
X5495000Y2900000D01*
G01X865000Y430000D02*
Y525000D01*
G01X3120000Y1940000D02*
X3110000D01*
X2990000Y1820000D01*
Y280000D01*
X2890200Y180200D01*
X979800D01*
X920000Y240000D01*
X700000D01*
X645200Y185200D01*
X474800D01*
X430000Y230000D01*
Y2660000D01*
X480000Y2710000D01*
X780000D01*
X865000Y2795000D01*
Y2970000D01*
G01X564000Y554680D02*
X734690D01*
X775000Y594990D01*
G01D02*
Y680000D01*
G01X1072000Y554680D02*
X1031690Y594990D01*
X775000D01*
G01X564000Y808680D02*
X738680D01*
X775000Y845000D01*
G01D02*
Y940000D01*
G01X1072000Y808680D02*
X1035680Y845000D01*
X775000D01*
G01X865000Y940000D02*
Y965000D01*
X800000Y1030000D01*
G01X865000Y680000D02*
Y775000D01*
G01X564000Y1062680D02*
X732680D01*
X775000Y1105000D01*
G01X865000Y1190000D02*
Y1215000D01*
X800000Y1280000D01*
G01X865000Y1450000D02*
X1315000D01*
X1325000Y1460000D01*
G01X1072000Y1570680D02*
X809320D01*
X775000Y1605000D01*
G01D02*
Y1700000D01*
G01X564000Y1570680D02*
X740680D01*
X775000Y1605000D01*
G01X564000Y1316680D02*
X736680D01*
X775000Y1355000D01*
G01D02*
Y1450000D01*
G01X1072000Y1316680D02*
X1033680Y1355000D01*
X775000D01*
G01Y1105000D02*
X1034760D01*
X1072000Y1067760D01*
Y1062680D01*
G01X775000Y1105000D02*
Y1190000D01*
G01X865000Y1700000D02*
Y1874040D01*
X860000Y1879040D01*
G01X775000Y4872680D02*
X564000D01*
G01Y4618680D02*
X773680D01*
X775000Y4620000D01*
G01X4020000Y3885000D02*
X4035000D01*
X4090000Y3940000D01*
Y4350000D01*
X3990000Y4450000D01*
X1440000D01*
X1017320Y4872680D01*
X865000D01*
G01X3760000Y3885000D02*
X3755000D01*
X3690000Y3950000D01*
Y4300000D01*
X3610000Y4380000D01*
X1390000D01*
X1020000Y4750000D01*
X865000D01*
G01X4160000Y3885000D02*
X4165000D01*
X4230000Y3950000D01*
Y4440000D01*
X4160000Y4510000D01*
X1480000D01*
X990000Y5000000D01*
X865000D01*
G01X1325000Y1580000D02*
Y1700000D01*
G01Y1460000D02*
Y1580000D01*
G01X2080000Y1760000D02*
X1470000D01*
X1415000Y1705000D01*
Y1700000D01*
G01X3120000Y1650000D02*
X3045000Y1575000D01*
Y1165000D01*
X3130000Y1080000D01*
X5720000D01*
X5830000Y1190000D01*
X6105000D01*
G01X3595000Y1360000D02*
X3485000D01*
X3480000Y1355000D01*
G01X3240000D02*
X3125000D01*
X3120000Y1360000D01*
G01X3360000Y1355000D02*
X3240000D01*
G01X3480000D02*
X3360000D01*
G01X6105000Y1700000D02*
Y1505000D01*
X6040000Y1440000D01*
X5800000D01*
X5500000Y1140000D01*
X3170000D01*
X3120000Y1190000D01*
Y1360000D01*
G01X3595000Y1940000D02*
X3485000D01*
X3480000Y1935000D01*
G01X3240000D02*
X3125000D01*
X3120000Y1940000D01*
G01X3360000Y1935000D02*
X3240000D01*
G01X3480000D02*
X3360000D01*
G01X3595000Y1660000D02*
X3485000D01*
X3480000Y1655000D01*
G01X3240000D02*
X3125000D01*
X3120000Y1650000D01*
G01X3360000Y1655000D02*
X3240000D01*
G01X3480000D02*
X3360000D01*
G01X3685000Y3265000D02*
X3380000D01*
X3355000Y3290000D01*
G01X3265000D02*
Y3285000D01*
X3335000Y3215000D01*
X3685000D01*
G01Y3165000D02*
X3371200D01*
X3336200Y3130000D01*
G01X3685000Y1360000D02*
Y1505000D01*
X3760000Y1580000D01*
X4480000D01*
X4560000Y1500000D01*
Y1360000D01*
G01X3685000Y1660000D02*
X4490000D01*
X4560000Y1730000D01*
Y1910000D01*
G01X3685000Y1940000D02*
X3715000Y1910000D01*
X4140000D01*
G01X3640000Y2300000D02*
X3660000Y2320000D01*
Y2950000D01*
X3675000Y2965000D01*
X3685000D01*
G01X4115000Y3595000D02*
Y3715000D01*
X4330000Y3930000D01*
G01X4065000Y3595000D02*
Y3790000D01*
X4160000Y3885000D01*
G01X4015000Y3595000D02*
X4020000Y3600000D01*
Y3885000D01*
G01X3765000Y3595000D02*
Y3880000D01*
X3760000Y3885000D01*
G01X3860000Y4140000D02*
Y3810000D01*
X3915000Y3755000D01*
Y3595000D01*
G01X3830000Y3750000D02*
Y3700000D01*
X3865000Y3665000D01*
Y3595000D01*
G01X3940000Y3820000D02*
X3965000Y3795000D01*
Y3595000D01*
G01X4195000Y2965000D02*
X4500000D01*
X4505000Y2960000D01*
G01X4513800Y3190000D02*
X4440000D01*
X4365000Y3265000D01*
X4195000D01*
G01X4760000Y3270000D02*
X4450000D01*
X4405000Y3315000D01*
X4195000D01*
G01X4505000Y3340000D02*
X4480000Y3365000D01*
X4195000D01*
G01X4760000Y3410000D02*
X4560000D01*
X4505000Y3355000D01*
Y3340000D01*
G01Y3480000D02*
X4350000D01*
G01D02*
X4285000Y3415000D01*
X4195000D01*
G01X4505000Y3620000D02*
X4350000D01*
G01X4195000Y3465000D02*
X4245000D01*
X4350000Y3570000D01*
Y3620000D01*
G01X4540000Y3930000D02*
X4440000D01*
X4195000Y3685000D01*
Y3515000D01*
G01X5180000Y2410000D02*
X5165000Y2425000D01*
G01D02*
Y2900000D01*
G01X4937720Y2817720D02*
X4925000Y2830440D01*
G01D02*
Y2900000D01*
G01X5165000Y3020000D02*
Y3155000D01*
X5150000Y3170000D01*
G01X4925000Y3020000D02*
Y3155000D01*
X4910000Y3170000D01*
G01X5015000Y3020000D02*
Y3155000D01*
X5030000Y3170000D01*
G01X5015000Y3020000D02*
Y2900000D01*
G01D02*
Y2810000D01*
G01X5150000Y3310000D02*
Y3440000D01*
G01D02*
X5120000Y3470000D01*
X4940000D01*
X4910000Y3440000D01*
Y3310000D01*
G01X5350000Y3470000D02*
X5180000D01*
X5150000Y3440000D01*
G01X5405000Y2900000D02*
Y2810000D01*
G01Y3020000D02*
Y3155000D01*
X5390000Y3170000D01*
G01X5495000Y3020000D02*
Y3155000D01*
X5510000Y3170000D01*
G01X5495000Y3020000D02*
Y2900000D01*
G01X5255000Y3020000D02*
Y3155000D01*
X5270000Y3170000D01*
G01X5255000Y3020000D02*
Y2900000D01*
G01D02*
Y2810000D01*
G01X5350000Y3470000D02*
X5390000Y3430000D01*
Y3310000D01*
G01X6105000Y4872680D02*
X6067680Y4910000D01*
X5450000D01*
X5390000Y4850000D01*
Y3510000D01*
X5350000Y3470000D01*
G01X5898000Y554680D02*
X6150610D01*
X6195000Y599070D01*
G01D02*
Y680000D01*
G01X6406000Y554680D02*
X6239390D01*
X6195000Y599070D01*
G01X5898000Y1062680D02*
X6162690D01*
X6195000Y1094990D01*
Y1095000D01*
G01X6406000Y1062680D02*
X6227320D01*
X6195000Y1095000D01*
G01X6105000Y680000D02*
Y770000D01*
G01X6195000Y1095000D02*
Y1190000D01*
G01X5898000Y1824680D02*
X6155330D01*
X6195000Y1785010D01*
Y1785000D01*
G01D02*
Y1700000D01*
G01X6406000Y1824680D02*
X6234680D01*
X6195000Y1785000D01*
G01X5898000Y2078680D02*
X6158690D01*
X6195000Y2114990D01*
Y2115000D01*
G01D02*
Y2210000D01*
G01X6406000Y2078680D02*
X6231320D01*
X6195000Y2115000D01*
G01X6105000Y2210000D02*
Y2300000D01*
G01X6406000Y3094680D02*
X6200320D01*
X6195000Y3100000D01*
G01X5898000Y3247080D02*
X6048850D01*
X6195000Y3100930D01*
Y3100000D01*
G01X6105000D02*
Y3010000D01*
G01X6406000Y3602680D02*
X6202320D01*
X6195000Y3610000D01*
G01X5898000Y3755080D02*
X6050850D01*
X6195000Y3610930D01*
Y3610000D01*
G01X5898000Y3501080D02*
X5898920D01*
X6055960Y3344040D01*
X6154040D01*
X6195000Y3385000D01*
G01D02*
Y3490000D01*
G01X6406000Y3348680D02*
X6231320D01*
X6195000Y3385000D01*
G01X6105000Y3490000D02*
Y3610000D01*
G01Y3490000D02*
Y3405000D01*
G01X6195000Y4872680D02*
X6406000D01*
G54D12*
X310000D03*
X1072000Y1570680D03*
Y3856680D03*
X5898000Y300680D03*
Y2485080D03*
X6406000Y4872680D03*
G54D21*
X3010000Y4068400D03*
Y4271600D03*
X3260000Y4068400D03*
Y4271600D03*
G54D31*
G01X3240000Y1445000D02*
Y1540000D01*
G01D02*
X3160000D01*
X3120000Y1500000D01*
G01X3240000Y1745000D02*
Y1840000D01*
G01D02*
X3170000D01*
X3120000Y1790000D01*
G01X3240000Y2025000D02*
Y2120000D01*
G01D02*
X3160000D01*
X3120000Y2080000D01*
G01X3580000Y3070000D02*
X3585000Y3065000D01*
G01X3590000Y3020000D02*
X3595000Y3015000D01*
G01X3585000Y3065000D02*
X3685000D01*
G01X3595000Y3015000D02*
X3685000D01*
G01X3380000Y3030000D02*
X3465000Y3115000D01*
X3685000D01*
G01Y3315000D02*
X3575000D01*
X3570000Y3320000D01*
G01X3685000Y3415000D02*
X3555000D01*
G01X4090000Y2620000D02*
Y2790000D01*
G01X3965000Y3215000D02*
X4015000Y3165000D01*
G01X3940000Y3240000D02*
X3965000Y3215000D01*
G01X3865000Y3055000D02*
Y2885000D01*
G01X3940000Y3340000D02*
Y3240000D01*
G01D02*
X3865000Y3165000D01*
Y3055000D01*
G01D02*
X3775000Y2965000D01*
X3685000D01*
G01X3965000Y3215000D02*
X4025970D01*
X4056850Y3184120D01*
X4103150D01*
G01X4015000Y3165000D02*
Y2885000D01*
G01X4103150Y3184120D02*
X4134030Y3215000D01*
X4195000D01*
G01X3815000Y3365000D02*
X3940000Y3240000D01*
G01X4115000Y2885000D02*
Y2815000D01*
G01X4090000Y2790000D02*
X4065000Y2815000D01*
G01D02*
Y2885000D01*
G01X4115000Y2815000D02*
X4090000Y2790000D01*
G01X3910000Y2780000D02*
X3915000Y2785000D01*
G01X3950000Y2790000D02*
X3965000Y2805000D01*
G01X3915000Y2825000D02*
X3890000Y2800000D01*
G01X3915000Y2885000D02*
Y2825000D01*
G01X3965000D02*
X3990000Y2800000D01*
G01X3965000Y2885000D02*
Y2825000D01*
G01X3915000Y2785000D02*
Y2825000D01*
G01X3965000Y2805000D02*
Y2825000D01*
G01X3760000Y2820000D02*
X3765000Y2825000D01*
G01X3810000Y2800000D02*
X3815000Y2805000D01*
G01X3765000Y2855000D02*
X3730000Y2820000D01*
G01X3765000Y2885000D02*
Y2855000D01*
G01X3815000Y2805000D02*
Y2885000D01*
G01X3765000Y2825000D02*
Y2855000D01*
G01X3685000Y3465000D02*
X3835000D01*
G01X3685000Y3365000D02*
X3815000D01*
G01X3835000Y3465000D02*
X3940000Y3360000D01*
Y3340000D01*
G01X3610000Y3903800D02*
Y3570000D01*
X3665000Y3515000D01*
X3685000D01*
G01X3760000Y3975000D02*
Y4060000D01*
G01X4195000Y3215000D02*
X4285000D01*
X4330000Y3170000D01*
G01X4595000Y2960000D02*
X4680000D01*
G01X4595000Y3340000D02*
X4680000D01*
G01X4595000Y3480000D02*
Y3620000D01*
G01D02*
X4680000D01*
G01X5030000Y3310000D02*
Y3400000D01*
G01X5270000Y3310000D02*
Y3400000D01*
G01X5510000Y3310000D02*
Y3400000D01*
G01X5898000Y300680D02*
X6406000D01*
G01X5898000Y808680D02*
X5989320Y900000D01*
X6314680D01*
X6406000Y808680D01*
G01X5898000Y1316680D02*
X6406000D01*
G01X5898000Y2739080D02*
X6040920D01*
X6193320Y2586680D01*
X6406000D01*
G01X5898000Y2485080D02*
X6074920D01*
X6227320Y2332680D01*
X6406000D01*
G01Y2840680D02*
X6169310D01*
X6016910Y2993080D01*
X5898000D01*
G54D22*
X3360000Y1445000D03*
Y1355000D03*
X3480000D03*
Y1445000D03*
X3240000D03*
Y1355000D03*
X3360000Y1745000D03*
Y1655000D03*
Y2025000D03*
Y1935000D03*
X3480000D03*
Y2025000D03*
Y1655000D03*
Y1745000D03*
X3240000Y2025000D03*
Y1935000D03*
Y1745000D03*
Y1655000D03*
X3760000Y3885000D03*
Y3975000D03*
X4020000D03*
Y3885000D03*
X4160000Y3975000D03*
Y3885000D03*
G54D13*
X775000Y160000D03*
X865000D03*
X775000Y430000D03*
X865000D03*
X775000Y940000D03*
X865000D03*
X775000Y680000D03*
X865000D03*
X775000Y1450000D03*
X865000D03*
X775000Y1190000D03*
X865000D03*
X775000Y1700000D03*
X865000D03*
X775000Y2970000D03*
X865000D03*
X775000Y4620000D03*
X865000D03*
X775000Y4872680D03*
X865000D03*
X775000Y4750000D03*
X865000D03*
X775000Y5000000D03*
X865000D03*
X1415000Y1460000D03*
X1325000D03*
Y1580000D03*
X1415000D03*
Y1700000D03*
X1325000D03*
X3595000Y1360000D03*
Y1660000D03*
Y1940000D03*
X3265000Y3290000D03*
X3355000D03*
X3685000Y1360000D03*
Y1660000D03*
Y1940000D03*
X4505000Y2960000D03*
X4595000D03*
X4505000Y3340000D03*
X4595000D03*
X4505000Y3480000D03*
X4595000D03*
X4505000Y3620000D03*
X4595000D03*
X5165000Y3020000D03*
X4925000D03*
X5015000D03*
X5165000Y2900000D03*
X5015000D03*
X4925000D03*
X5405000Y3020000D03*
X5495000D03*
X5255000D03*
X5495000Y2900000D03*
X5405000D03*
X5255000D03*
X6195000Y680000D03*
X6105000D03*
X6195000Y1190000D03*
X6105000D03*
X6195000Y1700000D03*
X6105000D03*
X6195000Y2210000D03*
X6105000D03*
X6195000Y3100000D03*
X6105000D03*
X6195000Y3490000D03*
X6105000D03*
X6195000Y3610000D03*
X6105000D03*
X6195000Y4872680D03*
X6105000D03*
G54D32*
G01X1072000Y2078680D02*
X564000D01*
G01X3180000Y3040000D02*
X3183800Y3043800D01*
G01D02*
Y3130000D01*
G01X3570000Y3320000D02*
X3450000D01*
X3305000Y3465000D01*
X3130000D01*
G01X3555000Y3415000D02*
X3420000Y3550000D01*
Y3720000D01*
X3290000Y3850000D01*
G01D02*
X3135000D01*
X3130000Y3855000D01*
G54D14*
X1072000Y300680D03*
Y554680D03*
Y808680D03*
Y1062680D03*
Y1316680D03*
Y2078680D03*
Y2332680D03*
Y2586680D03*
Y2840680D03*
Y3094680D03*
Y3348680D03*
Y3602680D03*
X5898000Y554680D03*
Y1062680D03*
Y808680D03*
Y1570680D03*
Y1316680D03*
Y2078680D03*
Y1824680D03*
Y2739080D03*
Y3247080D03*
Y2993080D03*
Y3755080D03*
Y3501080D03*
Y4263080D03*
Y4009080D03*
Y4771080D03*
Y4517080D03*
G54D23*
X3120000Y1650000D03*
Y1500000D03*
Y1360000D03*
Y1790000D03*
Y2080000D03*
Y1940000D03*
X5150000Y3170000D03*
X5030000D03*
X4910000D03*
X5150000Y3310000D03*
X5030000D03*
X4910000D03*
X5270000Y3170000D03*
X5510000D03*
X5390000D03*
X5270000Y3310000D03*
X5510000D03*
X5390000D03*
G54D33*
G01X564000Y3094680D02*
X810000D01*
G01D02*
X1072000D01*
G01X810000Y3602680D02*
Y3094680D01*
G01X564000Y3602680D02*
X810000D01*
G01D02*
X1072000D01*
G54D15*
X1700000Y770000D03*
Y1370000D03*
G54D24*
X3336200Y3130000D03*
X3183800D03*
X3610000Y3903800D03*
Y4056200D03*
X4666200Y3190000D03*
X4513800D03*
G54D25*
X4140000Y1360000D03*
Y1910000D03*
X4560000Y1360000D03*
Y1910000D03*
X4980000Y1360000D03*
Y1910000D03*
X5400000Y1360000D03*
Y1910000D03*
G54D16*
X1800000Y1610000D03*
X1700000Y1900000D03*
X2080000Y1610000D03*
Y1900000D03*
G54D26*
X4115000Y2885000D03*
X4065000D03*
X4015000D03*
X3965000D03*
X3915000D03*
X3865000D03*
X3815000D03*
X3765000D03*
Y3595000D03*
X3815000D03*
X3865000D03*
X3915000D03*
X3965000D03*
X4015000D03*
X4065000D03*
X4115000D03*
G54D17*
X1840000Y2480000D03*
Y2780000D03*
X2700000Y2480000D03*
Y2780000D03*
G54D27*
X3685000Y2965000D03*
Y3015000D03*
Y3065000D03*
Y3115000D03*
Y3165000D03*
Y3215000D03*
Y3265000D03*
Y3315000D03*
Y3365000D03*
Y3415000D03*
Y3465000D03*
Y3515000D03*
X4195000Y3265000D03*
Y3215000D03*
Y3165000D03*
Y3115000D03*
Y3065000D03*
Y3015000D03*
Y2965000D03*
Y3515000D03*
Y3465000D03*
Y3415000D03*
Y3365000D03*
Y3315000D03*
G54D18*
X2180000Y1090000D03*
G54D28*
X3940000Y3240000D03*
G54D19*
X2679000Y920000D03*
X3441000D03*
G54D29*
X4330000Y3930000D03*
X4540000D03*
M02*
