G04 ================== begin FILE IDENTIFICATION RECORD ==================*
G04 Layout Name:  H:/MotorDriver/HARDWARE/DRV8711_TEST_V10A/PCB/DRV8711_TEST_V10A.brd*
G04 Film Name:    BOTTOM*
G04 File Format:  Gerber RS274X*
G04 File Origin:  Cadence Allegro 17.2-S045*
G04 Origin Date:  Fri Feb 15 09:59:43 2019*
G04 *
G04 Layer:  BOARD GEOMETRY/OUTLINE*
G04 Layer:  ETCH/BOTTOM*
G04 Layer:  PIN/BOTTOM*
G04 Layer:  VIA CLASS/BOTTOM*
G04 *
G04 Offset:    (0.0000 0.0000)*
G04 Mirror:    No*
G04 Mode:      Positive*
G04 Rotation:  0*
G04 FullContactRelief:  No*
G04 UndefLineWidth:     0.1524*
G04 ================== end FILE IDENTIFICATION RECORD ====================*
%FSLAX55Y55*MOMM*%
%IR0*IPPOS*OFA0.00000B0.00000*MIA0B0*SFA1.00000B1.00000*%
%ADD17R,.8X.8*%
%ADD11C,.6096*%
%ADD19O,4.X2.*%
%ADD16O,2.X4.*%
%ADD15R,1.8X1.*%
%ADD10R,1.X1.8*%
%ADD20C,2.5*%
%ADD12C,1.8*%
%ADD14C,1.65*%
%ADD18R,1.8X1.8*%
%ADD13R,1.9X1.9*%
%ADD21C,.1*%
%ADD22C,.2032*%
%ADD23C,.7112*%
%ADD24C,.508*%
%ADD25C,.762*%
%ADD29C,.6328*%
%ADD28C,1.2004*%
%ADD26C,3.4148*%
%ADD27C,2.7148*%
%ADD30O,2.9148X4.9148*%
G75*
%LPD*%
G75*
G36*
G01X590000Y6980000D02*
X9410000D01*
Y6410000D01*
X9980000D01*
Y590000D01*
X9410000D01*
Y20000D01*
X4036200D01*
G02X4018260Y49850I5J20319D01*
G03X4033240Y110000I-113272J60150D01*
G03X3776760I-128240J0D01*
G03X3791740Y49850I128252J0D01*
G02X3773800Y20000I-17945J-9531D01*
G01X3286200D01*
G02X3268260Y49850I5J20319D01*
G03X3283240Y110000I-113272J60150D01*
G03X3026760I-128240J0D01*
G03X3041740Y49850I128252J0D01*
G02X3023800Y20000I-17945J-9531D01*
G01X2906200D01*
G02X2888260Y49850I5J20319D01*
G03X2903240Y110000I-113272J60150D01*
G03X2646760I-128240J0D01*
G03X2661740Y49850I128252J0D01*
G02X2643800Y20000I-17945J-9531D01*
G01X2156200D01*
G02X2138260Y49850I5J20319D01*
G03X2153240Y110000I-113272J60150D01*
G03X1896760I-128240J0D01*
G03X1911740Y49850I128252J0D01*
G02X1893800Y20000I-17945J-9531D01*
G01X1776200D01*
G02X1758260Y49850I5J20319D01*
G03X1773240Y110000I-113272J60150D01*
G03X1516760I-128240J0D01*
G03X1531740Y49850I128252J0D01*
G02X1513800Y20000I-17945J-9531D01*
G01X1026200D01*
G02X1008260Y49850I5J20319D01*
G03X1023240Y110000I-113272J60150D01*
G03X766760I-128240J0D01*
G03X781740Y49850I128252J0D01*
G02X763800Y20000I-17945J-9531D01*
G01X590000D01*
Y590000D01*
X20000D01*
Y6410000D01*
X590000D01*
Y6980000D01*
G37*
%LPC*%
G75*
G36*
G01X7654260Y6638950D02*
X7741050Y6725740D01*
X8388950D01*
X8465740Y6648950D01*
Y6078950D01*
X8528950Y6015740D01*
X8683470D01*
G03X8696120Y6051960I-1J20319D01*
G02X8639180Y6170000I93882J118040D01*
G02X8790000Y6320820I150820J0D01*
G01X8990000D01*
G02Y6019180I0J-150820D01*
G01X8874560D01*
G03X8860190Y5984490I0J-20321D01*
G01X8945740Y5898950D01*
Y5158950D01*
X9048950Y5055740D01*
X9318950D01*
X9435740Y4938950D01*
Y4481050D01*
X9318950Y4364260D01*
X7871050D01*
X7654260Y4581050D01*
Y6638950D01*
G37*
G36*
G01X3001840Y6485730D02*
G03X3020750Y6514110I257J20319D01*
G02X3009180Y6570000I129248J55899D01*
G02X3150000Y6710820I140820J0D01*
G02X3259240Y6658870I0J-140829D01*
G03X3290760I15760J12821D01*
G02X3400000Y6710820I109240J-88879D01*
G02X3512050Y6655290I0J-140814D01*
G03X3544080Y6654890I16171J12305D01*
G02X3650000Y6705740I105920J-84890D01*
G02X3785740Y6570000I0J-135740D01*
G02X3773750Y6514230I-135738J9D01*
G03X3793220Y6485580I18527J-8350D01*
G02X3800000Y6485740I6827J-145579D01*
G02X3945740Y6340000I0J-145740D01*
G01Y6140000D01*
G02X3654260I-145740J0D01*
G01Y6340000D01*
G02X3669510Y6404900I145739J-4D01*
G03X3651140Y6434260I-18196J9042D01*
G01X3650000D01*
G02X3544080Y6485110I0J135740D01*
G03X3512050Y6484710I-15859J-12705D01*
G02X3400000Y6429180I-112050J85284D01*
G02X3290760Y6481130I0J140829D01*
G03X3259240I-15760J-12821D01*
G02X3150970Y6429180I-109239J88869D01*
G03X3132620Y6400440I139J-20317D01*
G02X3145740Y6340000I-132622J-60433D01*
G01Y6140000D01*
G02X2854260I-145740J0D01*
G01Y6340000D01*
G02X3000000Y6485740I145740J0D01*
G02X3001840Y6485730I128J-145741D01*
G37*
G36*
G01X59260Y6177940D02*
G02X105000Y6223680I45740J0D01*
G01X295000D01*
G02X340740Y6177940I0J-45740D01*
G01Y5987940D01*
G02X316380Y5947500I-45747J0D01*
G03X310010Y5916860I9501J-17957D01*
G02X340820Y5828940I-110013J-87911D01*
G01Y5788730D01*
X431140Y5698410D01*
Y4869470D01*
X509470Y4791140D01*
X4179470D01*
X4312100Y4658500D01*
X4362170Y4639890D01*
X4363340Y4639750D01*
G02X4422850Y4618000I-17346J-139748D01*
G03X4454260Y4635030I11090J17027D01*
G01Y4781050D01*
X4421050Y4814260D01*
X1431050D01*
X1384260Y4861050D01*
Y5058950D01*
X1431050Y5105740D01*
X4608950D01*
X4745740Y4968950D01*
Y4597860D01*
X4745750Y4597600D01*
G02X4745820Y4595000I-50748J-2667D01*
G01Y4405000D01*
G02X4745750Y4402400I-50818J67D01*
G01X4745740Y4402140D01*
Y4354260D01*
X4697860D01*
X4697600Y4354250D01*
G02X4695000Y4354180I-2667J50748D01*
G01X4505000D01*
G02X4502400Y4354250I67J50818D01*
G01X4502140Y4354260D01*
X4454260D01*
Y4384600D01*
G03X4436910Y4391780I-10161J0D01*
G01X4417140Y4372000D01*
Y4158000D01*
X4428990Y4146150D01*
G03X4460970Y4150370I14373J14364D01*
G02X4505000Y4175820I44030J-25362D01*
G01X4695000D01*
G02X4745820Y4125000I0J-50820D01*
G01Y3935000D01*
G02X4695000Y3884180I-50820J0D01*
G01X4505000D01*
G02X4461910Y3908060I0J50817D01*
G03X4429110Y3910350I-17232J-10769D01*
G01X4421140Y3900850D01*
Y3690530D01*
X4299470Y3568860D01*
X3567420D01*
X3565750Y3568260D01*
G02X3540000Y3563780I-25746J71741D01*
G02Y3716220I0J76220D01*
G02X3565750Y3711740I4J-76221D01*
G01X3567420Y3711140D01*
X4240530D01*
X4278860Y3749470D01*
Y3898000D01*
X4247800Y3929070D01*
X4247750Y3929120D01*
G02Y4130880I98245J100880D01*
G01X4247800Y4130930D01*
X4274860Y4158000D01*
Y4372000D01*
X4247800Y4399070D01*
X4247750Y4399120D01*
G02X4205180Y4500000I98245J100880D01*
G01Y4564210D01*
X4120530Y4648860D01*
X450530D01*
X288860Y4810530D01*
Y5175100D01*
G03X259900Y5193490I-20318J1D01*
G02X200000Y5180120I-59890J127452D01*
G02X59180Y5320940I0J140820D01*
G02X113330Y5431930I140822J0D01*
G03Y5463950I-12512J16010D01*
G02Y5685930I86672J110990D01*
G03Y5717950I-12512J16010D01*
G02X59180Y5828940I86672J110990D01*
G02X89990Y5916860I140823J9D01*
G03X83620Y5947500I-15871J12683D01*
G02X59260Y5987940I21387J40440D01*
G01Y6177940D01*
G37*
G36*
G01X398860Y3659470D02*
X640530Y3901140D01*
X1272580D01*
X1274250Y3901740D01*
G02X1300000Y3906220I25746J-71741D01*
G02Y3753780I0J-76220D01*
G02X1274250Y3758260I-4J76221D01*
G01X1272580Y3758860D01*
X699470D01*
X541140Y3600530D01*
Y2750430D01*
X340820Y2550110D01*
Y2509900D01*
G02X340810Y2508510I-140818J318D01*
G01Y2508460D01*
X340880Y2469730D01*
X359470Y2451140D01*
X1042580D01*
X1044250Y2451740D01*
G02X1070000Y2456220I25746J-71741D01*
G02Y2303780I0J-76220D01*
G02X1044250Y2308260I-4J76221D01*
G01X1042580Y2308860D01*
X433450D01*
G03X415880Y2278320I-4J-20322D01*
G02X426220Y2240000I-65877J-38331D01*
G02X415660Y2201300I-76218J7D01*
G01X411850Y2194830D01*
X425860Y2179500D01*
X432450Y2182240D01*
G02X450000Y2185740I17550J-42250D01*
G01X1900000D01*
G02X1945740Y2140000I0J-45740D01*
G01Y1960000D01*
G02X1941970Y1941810I-45741J-6D01*
G01X1939220Y1935470D01*
X1955740Y1918950D01*
Y1371050D01*
X1878950Y1294260D01*
X651050D01*
X584260Y1361050D01*
Y1888950D01*
X592230Y1896920D01*
G03X585050Y1914260I-7186J7181D01*
G01X450000D01*
G02X425000Y1921700I5J45739D01*
G02X400000Y1914260I-25005J38299D01*
G01X300000D01*
G02X275000Y1921700I5J45739D01*
G02X250000Y1914260I-25005J38299D01*
G01X150000D01*
G02X104260Y1960000I0J45740D01*
G01Y2140000D01*
G02X116240Y2170860I45737J0D01*
G01X138150Y2194830D01*
X134340Y2201300D01*
G02X123780Y2240000I65658J38707D01*
G02X200000Y2316220I76220J0D01*
G02X259210Y2287990I0J-76209D01*
G03X290790I15790J12796D01*
G02X292540Y2290080I59303J-47878D01*
G03X291590Y2317800I-15316J13351D01*
G01X240310Y2369080D01*
X200000D01*
G02X59180Y2509900I0J140820D01*
G02X113330Y2620890I140822J0D01*
G03Y2652910I-12512J16010D01*
G02Y2874890I86672J110990D01*
G03Y2906910I-12512J16010D01*
G02X59180Y3017900I86672J110990D01*
G02X89990Y3105820I140823J9D01*
G03X83620Y3136460I-15871J12683D01*
G02X59260Y3176900I21387J40440D01*
G01Y3366900D01*
G02X105000Y3412640I45740J0D01*
G01X295000D01*
G02X340740Y3366900I0J-45740D01*
G01Y3176900D01*
G02X316380Y3136460I-45747J0D01*
G03X310010Y3105820I9501J-17957D01*
G02X340820Y3017900I-110013J-87911D01*
G02X286670Y2906910I-140822J0D01*
G03Y2874890I12512J-16010D01*
G02X337830Y2792790I-86666J-110995D01*
G03X372080Y2782590I19885J4168D01*
G01X398860Y2809370D01*
Y3659470D01*
G37*
G36*
G01X5094260Y2291050D02*
Y3518950D01*
X5301050Y3725740D01*
X8598950D01*
X8745740Y3578950D01*
Y3154950D01*
G03X8763080Y3147770I10159J6D01*
G01X8771050Y3155740D01*
X9258950D01*
X9325740Y3088950D01*
Y2671050D01*
X9290530Y2635840D01*
G03X9291240Y2606430I14367J-14367D01*
G02X9305190Y2589500I-51238J-56431D01*
G01X9325740Y2568950D01*
Y2171050D01*
X9305190Y2150500D01*
G02X9280450Y2125400I-65183J39506D01*
G01X9279470Y2124790D01*
X9264690Y2110000D01*
X9325740Y2048950D01*
Y1591050D01*
X9249690Y1515000D01*
X9261530Y1503160D01*
X9263830Y1502400D01*
G02X9312400Y1453830I-23830J-72400D01*
G01X9313160Y1451530D01*
X9325740Y1438950D01*
Y1061050D01*
X9258950Y994260D01*
X8781050D01*
X8780430Y994890D01*
G03X8745740Y980520I-14369J-14370D01*
G01Y741050D01*
X8698950Y694260D01*
X8191050D01*
X8114260Y771050D01*
Y3341050D01*
X8051050Y3404260D01*
X5688950D01*
X5615740Y3331050D01*
Y2271050D01*
X5558950Y2214260D01*
X5171050D01*
X5094260Y2291050D01*
G37*
G36*
G01X916810Y3529100D02*
G02X865000Y3661220I-51810J55902D01*
G02X916810Y3640900I0J-76210D01*
G01X1938190D01*
G02X1990000Y3661220I51810J-55890D01*
G02Y3508780I0J-76220D01*
G02X1938190Y3529100I0J76210D01*
G01X916810D01*
G37*
G36*
G01X2039260Y1875000D02*
Y1975000D01*
G02X2085000Y2020740I45740J0D01*
G01X2265000D01*
G02X2310740Y1975000I0J-45740D01*
G01Y1875000D01*
G02X2303300Y1850000I-45739J5D01*
G02X2310740Y1825000I-38299J-25005D01*
G01Y1725000D01*
G02X2303300Y1700000I-45739J5D01*
G02X2310740Y1675000I-38299J-25005D01*
G01Y1575000D01*
G02X2303300Y1550000I-45739J5D01*
G02X2310740Y1525000I-38299J-25005D01*
G01Y1425000D01*
G02X2303300Y1400000I-45739J5D01*
G02X2310740Y1375000I-38299J-25005D01*
G01Y1275000D01*
G02X2303300Y1250000I-45739J5D01*
G02X2310740Y1225000I-38299J-25005D01*
G01Y1125000D01*
G02X2303300Y1100000I-45739J5D01*
G02X2310740Y1075000I-38299J-25005D01*
G01Y975000D01*
G02X2303300Y950000I-45739J5D01*
G02X2310740Y925000I-38299J-25005D01*
G01Y825000D01*
G02X2265000Y779260I-45740J0D01*
G01X2095740D01*
Y660000D01*
G02X2050000Y614260I-45740J0D01*
G01X1800000D01*
G02X1775000Y621700I5J45739D01*
G02X1750000Y614260I-25005J38299D01*
G01X1650000D01*
G02X1625000Y621700I5J45739D01*
G02X1600000Y614260I-25005J38299D01*
G01X150000D01*
G02X104260Y660000I0J45740D01*
G01Y840000D01*
G02X150000Y885740I45740J0D01*
G01X1600000D01*
G02X1617550Y882240I0J-45750D01*
G01X1624140Y879500D01*
X1641950Y898990D01*
X1603050Y937900D01*
X718010D01*
G02X666200Y917580I-51810J55890D01*
G02Y1070020I0J76220D01*
G02X718010Y1049700I0J-76210D01*
G01X1649350D01*
X1755900Y943150D01*
Y901340D01*
X1775860Y879500D01*
X1782450Y882240D01*
G02X1800000Y885740I17550J-42250D01*
G01X2039260D01*
Y925000D01*
G02X2046700Y950000I45739J-5D01*
G02X2039260Y975000I38299J25005D01*
G01Y1075000D01*
G02X2046700Y1100000I45739J-5D01*
G02X2039260Y1125000I38299J25005D01*
G01Y1225000D01*
G02X2046700Y1250000I45739J-5D01*
G02X2039260Y1275000I38299J25005D01*
G01Y1375000D01*
G02X2046700Y1400000I45739J-5D01*
G02X2039260Y1425000I38299J25005D01*
G01Y1525000D01*
G02X2046700Y1550000I45739J-5D01*
G02X2039260Y1575000I38299J25005D01*
G01Y1675000D01*
G02X2046700Y1700000I45739J-5D01*
G02X2039260Y1725000I38299J25005D01*
G01Y1825000D01*
G02X2046700Y1850000I45739J-5D01*
G02X2039260Y1875000I38299J25005D01*
G37*
G36*
G01X5803860Y925530D02*
X5539080Y1190310D01*
X5537480Y1191060D01*
G02X5493780Y1260000I32529J68940D01*
G02X5570000Y1336220I76220J0D01*
G02X5638940Y1292520I0J-76229D01*
G01X5639690Y1290920D01*
X5946140Y984470D01*
Y807420D01*
X5946740Y805750D01*
G02X5951220Y780000I-71741J-25746D01*
G02X5946740Y754250I-76221J-4D01*
G01X5946140Y752580D01*
Y342420D01*
X5946740Y340750D01*
G02X5951220Y315000I-71741J-25746D01*
G02X5798780I-76220J0D01*
G02X5803260Y340750I76221J4D01*
G01X5803860Y342420D01*
Y752580D01*
X5803260Y754250D01*
G02X5798780Y780000I71741J25746D01*
G02X5803260Y805750I76221J4D01*
G01X5803860Y807420D01*
Y925530D01*
G37*
G36*
G01X2124100Y4133150D02*
X2266850Y4275900D01*
X3190630D01*
X3346540Y4119990D01*
Y3642510D01*
X3491870Y3497180D01*
X4102150D01*
X4122520Y3515390D01*
G02X4153000Y3527020I30475J-34112D01*
G01X4233000D01*
G02X4262620Y3516130I0J-45727D01*
G03X4275780I6580J7745D01*
G02X4305400Y3527020I29620J-34837D01*
G01X4385400D01*
G02X4415880Y3515390I5J-45742D01*
G01X4425670Y3506640D01*
X4460050Y3541070D01*
X4460740Y3543770D01*
G02X4510000Y3582100I49260J-12488D01*
G01X4690000D01*
G02X4740820Y3531280I0J-50820D01*
G01Y3351280D01*
G02X4714850Y3306950I-50820J0D01*
G03X4709050Y3276370I9939J-17725D01*
G02X4740820Y3187280I-109048J-89097D01*
G02X4686670Y3076290I-140822J0D01*
G03Y3044270I12512J-16010D01*
G02Y2822290I-86672J-110990D01*
G03Y2790270I12512J-16010D01*
G02Y2568290I-86672J-110990D01*
G03Y2536270I12512J-16010D01*
G02Y2314290I-86672J-110990D01*
G03Y2282270I12512J-16010D01*
G02Y2060290I-86672J-110990D01*
G03Y2028270I12512J-16010D01*
G02Y1806290I-86672J-110990D01*
G03Y1774270I12512J-16010D01*
G02Y1552290I-86672J-110990D01*
G03Y1520270I12512J-16010D01*
G02Y1298290I-86672J-110990D01*
G03Y1266270I12512J-16010D01*
G02Y1044290I-86672J-110990D01*
G03Y1012270I12512J-16010D01*
G02Y790290I-86672J-110990D01*
G03Y758270I12512J-16010D01*
G02X4740820Y647280I-86672J-110990D01*
G02X4600000Y506460I-140820J0D01*
G02X4499500Y548630I-8J140823D01*
G01X4499470Y548670D01*
X4456760Y591380D01*
X4436460D01*
X4413100Y573600D01*
G02X4385400Y564260I-27700J36405D01*
G01X4305400D01*
G02X4275780Y575150I0J45727D01*
G03X4262620I-6580J-7745D01*
G02X4233000Y564260I-29620J34837D01*
G01X4153000D01*
G02X4122520Y575890I-5J45742D01*
G01X4102150Y594100D01*
X2636850D01*
X2344100Y886850D01*
Y2528190D01*
G02X2323780Y2580000I55890J51810D01*
G02X2398790Y2656210I76220J0D01*
G02X2474040Y2731210I76209J-1213D01*
G03X2494100Y2751530I-261J20319D01*
G01Y2916690D01*
G03X2463510Y2934230I-20321J4D01*
G02X2425000Y2923780I-38519J65767D01*
G02X2382500Y2936730I0J76214D01*
G02X2340000Y2923780I-42500J63264D01*
G02X2264060Y2993510I0J76217D01*
G01X2263740Y2997200D01*
X2124100Y3136850D01*
Y4133150D01*
G37*
G54D29*
X460000Y4480000D03*
Y4080000D03*
G54D28*
X3645000Y140000D03*
X3415000D03*
X2515000D03*
X2285000D03*
X1385000D03*
X1155000D03*
G54D26*
X8950800Y4146000D03*
G54D27*
X7420000Y6200000D03*
G54D30*
X9210000Y5690000D03*
%LPD*%
G75*
G36*
G01X290100Y2445340D02*
X289990Y2509940D01*
X195510Y2514390D01*
X200000Y2419900D01*
X264700D01*
G03X290100Y2445340I0J25400D01*
G37*
G36*
G01X207180Y2204080D02*
X221550Y2218450D01*
X200000Y2242540D01*
X178450Y2218450D01*
X192820Y2204080D01*
G03X207180I7180J7180D01*
G37*
G36*
G01X193670Y2187780D02*
X150000Y2140000D01*
X200000Y2047460D01*
X250000Y2140000D01*
X206330Y2187780D01*
G03X193670I-6330J-7950D01*
G37*
G36*
G01X357180Y2204080D02*
X371550Y2218450D01*
X350000Y2242540D01*
X328450Y2218450D01*
X342820Y2204080D01*
G03X357180I7180J7180D01*
G37*
G36*
G01X343670Y2187780D02*
X300000Y2140000D01*
X350000Y2047460D01*
X400000Y2140000D01*
X356330Y2187780D01*
G03X343670I-6330J-7950D01*
G37*
G36*
G01X264600Y2599900D02*
X200000D01*
X195510Y2505410D01*
X290000Y2509900D01*
Y2574500D01*
G03X264600Y2599900I-25400J0D01*
G37*
G36*
G01X290000Y5764340D02*
Y5828940D01*
X195510Y5833430D01*
X200000Y5738940D01*
X264600D01*
G03X290000Y5764340I0J25400D01*
G37*
G36*
G01X1880000Y1930000D02*
X1910000Y1900000D01*
Y1390000D01*
X1860000Y1340000D01*
X670000D01*
X630000Y1380000D01*
Y1870000D01*
X674260Y1914260D01*
X1750000D01*
G03X1784530Y1930000I0J45746D01*
G01X1880000D01*
G37*
G36*
G01X702120Y1000980D02*
X687750Y1015350D01*
X663660Y993800D01*
X687750Y972250D01*
X702120Y986620D01*
G03Y1000980I-7180J7180D01*
G37*
G36*
G01X900920Y3592180D02*
X886550Y3606550D01*
X862460Y3585000D01*
X886550Y3563450D01*
X900920Y3577820D01*
G03Y3592180I-7180J7180D01*
G37*
G36*
G01X1693670Y887780D02*
X1650000Y840000D01*
X1700000Y747460D01*
X1750000Y840000D01*
X1706330Y887780D01*
G03X1693670I-6330J-7950D01*
G37*
G36*
G01X1430000Y4880000D02*
Y5040000D01*
X1450000Y5060000D01*
X4590000D01*
X4700000Y4950000D01*
Y4400000D01*
X4500000D01*
Y4800000D01*
X4440000Y4860000D01*
X1450000D01*
X1430000Y4880000D01*
G37*
G36*
G01X2407180Y2544080D02*
X2421550Y2558450D01*
X2400000Y2582540D01*
X2378450Y2558450D01*
X2392820Y2544080D01*
G03X2407180I7180J7180D01*
G37*
G36*
G01X2309520Y3020320D02*
Y3000000D01*
X2341800Y2998200D01*
X2340000Y3030480D01*
X2319680D01*
G03X2309520Y3020320I0J-10160D01*
G37*
G36*
G01X2394520Y3035320D02*
Y3000000D01*
X2426270Y2997800D01*
X2431030Y3028490D01*
X2410710Y3043490D01*
G03X2394520Y3035320I-6034J-8170D01*
G37*
G36*
G01X2382180Y3444080D02*
X2396550Y3458450D01*
X2375000Y3482540D01*
X2353450Y3458450D01*
X2367820Y3444080D01*
G03X2382180I7180J7180D01*
G37*
G36*
G01X2330480Y3769680D02*
Y3790000D01*
X2298200Y3791800D01*
X2300000Y3759520D01*
X2320320D01*
G03X2330480Y3769680I0J10160D01*
G37*
G36*
G01X1954080Y3577820D02*
X1968450Y3563450D01*
X1992540Y3585000D01*
X1968450Y3606550D01*
X1954080Y3592180D01*
G03Y3577820I7180J-7180D01*
G37*
G36*
G01X2455480Y4059680D02*
Y4080000D01*
X2423200Y4081800D01*
X2425000Y4049520D01*
X2445320D01*
G03X2455480Y4059680I0J10160D01*
G37*
G36*
G01X2785900Y2063150D02*
Y2235990D01*
G02X2820590Y2250360I20321J1D01*
G01X2955570Y2115380D01*
X4102150D01*
X4122520Y2097170D01*
G03X4153000Y2085540I30475J34112D01*
G01X4233000D01*
G03X4262620Y2096430I0J45727D01*
G02X4275780I6580J-7745D01*
G03X4305400Y2085540I29620J34837D01*
G01X4385400D01*
G03X4415880Y2097170I5J45742D01*
G01X4436250Y2115380D01*
X4456760D01*
X4499470Y2072670D01*
G03X4513330Y2060290I100535J98605D01*
G02Y2028270I-12512J-16010D01*
G03X4499470Y2015890I86675J-110985D01*
G01X4456760Y1973180D01*
X4436250D01*
X4415880Y1991390D01*
G03X4385400Y2003020I-30475J-34112D01*
G01X4305400D01*
G03X4275780Y1992130I0J-45727D01*
G02X4262620I-6580J7745D01*
G03X4233000Y2003020I-29620J-34837D01*
G01X4153000D01*
G03X4122520Y1991390I-5J-45742D01*
G01X4102150Y1973180D01*
X2875870D01*
X2785900Y2063150D01*
G37*
G36*
G01X2865900Y2363150D02*
Y2535990D01*
G02X2900590Y2550360I20321J1D01*
G01X3081570Y2369380D01*
X4102150D01*
X4122520Y2351170D01*
G03X4153000Y2339540I30475J34112D01*
G01X4233000D01*
G03X4262620Y2350430I0J45727D01*
G02X4275780I6580J-7745D01*
G03X4305400Y2339540I29620J34837D01*
G01X4385400D01*
G03X4415880Y2351170I5J45742D01*
G01X4436250Y2369380D01*
X4456760D01*
X4499470Y2326670D01*
G03X4513330Y2314290I100535J98605D01*
G02Y2282270I-12512J-16010D01*
G03X4499470Y2269890I86675J-110985D01*
G01X4456760Y2227180D01*
X4436250D01*
X4415880Y2245390D01*
G03X4385400Y2257020I-30475J-34112D01*
G01X4305400D01*
G03X4275780Y2246130I0J-45727D01*
G02X4262620I-6580J7745D01*
G03X4233000Y2257020I-29620J-34837D01*
G01X4153000D01*
G03X4122520Y2245390I-5J-45742D01*
G01X4102150Y2227180D01*
X3001870D01*
X2865900Y2363150D01*
G37*
G36*
G01X2935900Y2673150D02*
Y2775990D01*
G02X2970590Y2790360I20321J1D01*
G01X3137570Y2623380D01*
X4102150D01*
X4122520Y2605170D01*
G03X4153000Y2593540I30475J34112D01*
G01X4233000D01*
G03X4262620Y2604430I0J45727D01*
G02X4275780I6580J-7745D01*
G03X4305400Y2593540I29620J34837D01*
G01X4385400D01*
G03X4415880Y2605170I5J45742D01*
G01X4436250Y2623380D01*
X4456760D01*
X4499470Y2580670D01*
G03X4513330Y2568290I100535J98605D01*
G02Y2536270I-12512J-16010D01*
G03X4499470Y2523890I86675J-110985D01*
G01X4456760Y2481180D01*
X4436250D01*
X4415880Y2499390D01*
G03X4385400Y2511020I-30475J-34112D01*
G01X4305400D01*
G03X4275780Y2500130I0J-45727D01*
G02X4262620I-6580J7745D01*
G03X4233000Y2511020I-29620J-34837D01*
G01X4153000D01*
G03X4122520Y2499390I-5J-45742D01*
G01X4102150Y2481180D01*
X3127870D01*
X2935900Y2673150D01*
G37*
G36*
G01X2482180Y2619080D02*
X2496550Y2633450D01*
X2475000Y2657540D01*
X2453450Y2633450D01*
X2467820Y2619080D01*
G03X2482180I7180J7180D01*
G37*
G36*
G01X2957180Y3384080D02*
X2971550Y3398450D01*
X2950000Y3422540D01*
X2928450Y3398450D01*
X2942820Y3384080D01*
G03X2957180I7180J7180D01*
G37*
G36*
G01X2817180Y3459080D02*
X2831550Y3473450D01*
X2810000Y3497540D01*
X2788450Y3473450D01*
X2802820Y3459080D01*
G03X2817180I7180J7180D01*
G37*
G36*
G01X2467180Y3444080D02*
X2481550Y3458450D01*
X2460000Y3482540D01*
X2438450Y3458450D01*
X2452820Y3444080D01*
G03X2467180I7180J7180D01*
G37*
G36*
G01X2750480Y4059680D02*
Y4080000D01*
X2718200Y4081800D01*
X2720000Y4049520D01*
X2740320D01*
G03X2750480Y4059680I0J10160D01*
G37*
G36*
G01X2640480D02*
Y4080000D01*
X2608200Y4081800D01*
X2610000Y4049520D01*
X2630320D01*
G03X2640480Y4059680I0J10160D01*
G37*
G36*
G01X4423370Y907350D02*
X4385400Y941280D01*
X4342860Y901280D01*
X4385400Y861280D01*
X4423370Y895210D01*
G03Y907350I-8140J6070D01*
G37*
G36*
G01X4479910Y894100D02*
X4536360Y837650D01*
X4602540Y901280D01*
X4536360Y964910D01*
X4479910Y908460D01*
G03Y894100I7180J-7180D01*
G37*
G36*
G01X4426030Y653440D02*
X4385400Y690000D01*
X4342860Y650100D01*
X4385400Y610000D01*
X4425600Y640600D01*
G03X4426030Y653440I-7651J6683D01*
G37*
G36*
G01X4479910Y640100D02*
X4536360Y583650D01*
X4602540Y647280D01*
X4536360Y710910D01*
X4479910Y654460D01*
G03Y640100I7180J-7180D01*
G37*
G36*
G01X4115030Y895210D02*
X4153000Y861280D01*
X4195540Y901280D01*
X4153000Y941280D01*
X4115030Y907350D01*
G03Y895210I8140J-6070D01*
G37*
G36*
G01Y643930D02*
X4153000Y610000D01*
X4195540Y650000D01*
X4153000Y690000D01*
X4115030Y656070D01*
G03Y643930I8140J-6070D01*
G37*
G36*
G01X4423370Y1415350D02*
X4385400Y1449280D01*
X4342860Y1409280D01*
X4385400Y1369280D01*
X4423370Y1403210D01*
G03Y1415350I-8140J6070D01*
G37*
G36*
G01X4479910Y1402100D02*
X4536360Y1345650D01*
X4602540Y1409280D01*
X4536360Y1472910D01*
X4479910Y1416460D01*
G03Y1402100I7180J-7180D01*
G37*
G36*
G01X4423370Y1161350D02*
X4385400Y1195280D01*
X4342860Y1155280D01*
X4385400Y1115280D01*
X4423370Y1149210D01*
G03Y1161350I-8140J6070D01*
G37*
G36*
G01X4479910Y1148100D02*
X4536360Y1091650D01*
X4602540Y1155280D01*
X4536360Y1218910D01*
X4479910Y1162460D01*
G03Y1148100I7180J-7180D01*
G37*
G36*
G01X4115030Y1403210D02*
X4153000Y1369280D01*
X4195540Y1409280D01*
X4153000Y1449280D01*
X4115030Y1415350D01*
G03Y1403210I8140J-6070D01*
G37*
G36*
G01Y1149210D02*
X4153000Y1115280D01*
X4195540Y1155280D01*
X4153000Y1195280D01*
X4115030Y1161350D01*
G03Y1149210I8140J-6070D01*
G37*
G36*
G01X4423370Y1923350D02*
X4385400Y1957280D01*
X4342860Y1917280D01*
X4385400Y1877280D01*
X4423370Y1911210D01*
G03Y1923350I-8140J6070D01*
G37*
G36*
G01X4479910Y1910100D02*
X4536360Y1853650D01*
X4602540Y1917280D01*
X4536360Y1980910D01*
X4479910Y1924460D01*
G03Y1910100I7180J-7180D01*
G37*
G36*
G01X4423370Y1669350D02*
X4385400Y1703280D01*
X4342860Y1663280D01*
X4385400Y1623280D01*
X4423370Y1657210D01*
G03Y1669350I-8140J6070D01*
G37*
G36*
G01X4479910Y1656100D02*
X4536360Y1599650D01*
X4602540Y1663280D01*
X4536360Y1726910D01*
X4479910Y1670460D01*
G03Y1656100I7180J-7180D01*
G37*
G36*
G01X4115030Y1911210D02*
X4153000Y1877280D01*
X4195540Y1917280D01*
X4153000Y1957280D01*
X4115030Y1923350D01*
G03Y1911210I8140J-6070D01*
G37*
G36*
G01Y1657210D02*
X4153000Y1623280D01*
X4195540Y1663280D01*
X4153000Y1703280D01*
X4115030Y1669350D01*
G03Y1657210I8140J-6070D01*
G37*
G36*
G01X4423370Y2431350D02*
X4385400Y2465280D01*
X4342860Y2425280D01*
X4385400Y2385280D01*
X4423370Y2419210D01*
G03Y2431350I-8140J6070D01*
G37*
G36*
G01X4479910Y2418100D02*
X4536360Y2361650D01*
X4602540Y2425280D01*
X4536360Y2488910D01*
X4479910Y2432460D01*
G03Y2418100I7180J-7180D01*
G37*
G36*
G01X4423370Y2177350D02*
X4385400Y2211280D01*
X4342860Y2171280D01*
X4385400Y2131280D01*
X4423370Y2165210D01*
G03Y2177350I-8140J6070D01*
G37*
G36*
G01X4479910Y2164100D02*
X4536360Y2107650D01*
X4602540Y2171280D01*
X4536360Y2234910D01*
X4479910Y2178460D01*
G03Y2164100I7180J-7180D01*
G37*
G36*
G01X4115030Y2419210D02*
X4153000Y2385280D01*
X4195540Y2425280D01*
X4153000Y2465280D01*
X4115030Y2431350D01*
G03Y2419210I8140J-6070D01*
G37*
G36*
G01Y2165210D02*
X4153000Y2131280D01*
X4195540Y2171280D01*
X4153000Y2211280D01*
X4115030Y2177350D01*
G03Y2165210I8140J-6070D01*
G37*
G36*
G01X4423370Y2685350D02*
X4385400Y2719280D01*
X4342860Y2679280D01*
X4385400Y2639280D01*
X4423370Y2673210D01*
G03Y2685350I-8140J6070D01*
G37*
G36*
G01X4479910Y2672100D02*
X4536360Y2615650D01*
X4602540Y2679280D01*
X4536360Y2742910D01*
X4479910Y2686460D01*
G03Y2672100I7180J-7180D01*
G37*
G36*
G01X4115030Y2927210D02*
X4153000Y2893280D01*
X4195540Y2933280D01*
X4153000Y2973280D01*
X4115030Y2939350D01*
G03Y2927210I8140J-6070D01*
G37*
G36*
G01Y2673210D02*
X4153000Y2639280D01*
X4195540Y2679280D01*
X4153000Y2719280D01*
X4115030Y2685350D01*
G03Y2673210I8140J-6070D01*
G37*
G36*
G01X4423370Y2939350D02*
X4385400Y2973280D01*
X4342860Y2933280D01*
X4385400Y2893280D01*
X4423370Y2927210D01*
G03Y2939350I-8140J6070D01*
G37*
G36*
G01X4479910Y2926100D02*
X4536360Y2869650D01*
X4602540Y2933280D01*
X4536360Y2996910D01*
X4479910Y2940460D01*
G03Y2926100I7180J-7180D01*
G37*
G36*
G01X4115030Y3435210D02*
X4153000Y3401280D01*
X4195540Y3441280D01*
X4153000Y3481280D01*
X4115030Y3447350D01*
G03Y3435210I8140J-6070D01*
G37*
G36*
G01Y3181210D02*
X4153000Y3147280D01*
X4195540Y3187280D01*
X4153000Y3227280D01*
X4115030Y3193350D01*
G03Y3181210I8140J-6070D01*
G37*
G36*
G01X4423370Y3447350D02*
X4385400Y3481280D01*
X4342860Y3441280D01*
X4385400Y3401280D01*
X4423370Y3435210D01*
G03Y3447350I-8140J6070D01*
G37*
G36*
G01X4438630Y3434860D02*
X4510000Y3363400D01*
X4602540Y3441280D01*
X4510000Y3519160D01*
X4438630Y3447700D01*
G03Y3434860I7870J-6420D01*
G37*
G36*
G01X4423370Y3193350D02*
X4385400Y3227280D01*
X4342860Y3187280D01*
X4385400Y3147280D01*
X4423370Y3181210D01*
G03Y3193350I-8140J6070D01*
G37*
G36*
G01X4479910Y3180100D02*
X4536360Y3123650D01*
X4602540Y3187280D01*
X4536360Y3250910D01*
X4479910Y3194460D01*
G03Y3180100I7180J-7180D01*
G37*
G36*
G01X4369460Y3918310D02*
X4411130Y3968000D01*
X4345730Y4036340D01*
X4282370Y3966370D01*
X4332040Y3916680D01*
G03X4369460Y3918310I17963J17959D01*
G37*
G36*
G01X4256000Y4588600D02*
Y4500000D01*
X4349740Y4494870D01*
X4354840Y4588400D01*
X4290250Y4612410D01*
G03X4256000Y4588600I-8849J-23810D01*
G37*
G36*
G01X4363960Y4390680D02*
X4409630Y4436370D01*
X4346000Y4506350D01*
X4282370Y4436370D01*
X4328040Y4390680D01*
G03X4363960I17960J17960D01*
G37*
G36*
G01X4328040Y4139320D02*
X4282370Y4093630D01*
X4346000Y4023650D01*
X4409630Y4093630D01*
X4363960Y4139320D01*
G03X4328040I-17960J-17960D01*
G37*
G36*
G01X5140000Y3500000D02*
X5320000Y3680000D01*
X8580000D01*
X8700000Y3560000D01*
Y760000D01*
X8680000Y740000D01*
X8210000D01*
X8160000Y790000D01*
Y3360000D01*
X8070000Y3450000D01*
X5670000D01*
X5570000Y3350000D01*
Y2290000D01*
X5540000Y2260000D01*
X5190000D01*
X5140000Y2310000D01*
Y3500000D01*
G37*
G36*
G01X7700000Y6620000D02*
X7760000Y6680000D01*
X8370000D01*
X8420000Y6630000D01*
Y6060000D01*
X8510000Y5970000D01*
X8810000D01*
X8900000Y5880000D01*
Y5140000D01*
X9030000Y5010000D01*
X9300000D01*
X9390000Y4920000D01*
Y4500000D01*
X9300000Y4410000D01*
X7890000D01*
X7700000Y4600000D01*
Y6620000D01*
G37*
G36*
G01X8800000Y1040000D02*
X8760000Y1080000D01*
Y1440000D01*
X8790000Y1470000D01*
X9230000D01*
X9280000Y1420000D01*
Y1080000D01*
X9240000Y1040000D01*
X8800000D01*
G37*
G36*
G01X8790000Y1530000D02*
X8760000Y1560000D01*
Y2040000D01*
X8790000Y2070000D01*
X9240000D01*
X9280000Y2030000D01*
Y1610000D01*
X9200000Y1530000D01*
X8790000D01*
G37*
G36*
G01X8780000Y2150000D02*
X8760000Y2170000D01*
Y2570000D01*
X8790000Y2600000D01*
X9230000D01*
X9280000Y2550000D01*
Y2190000D01*
X9240000Y2150000D01*
X8780000D01*
G37*
G36*
G01X8790000Y2640000D02*
X8760000Y2670000D01*
Y3080000D01*
X8790000Y3110000D01*
X9240000D01*
X9280000Y3070000D01*
Y2690000D01*
X9230000Y2640000D01*
X8790000D01*
G37*
G54D10*
X200000Y750000D03*
X350000D03*
Y2050000D03*
X200000D03*
X500000Y750000D03*
X650000D03*
X800000D03*
Y2050000D03*
X650000D03*
X500000D03*
X950000Y750000D03*
X1100000D03*
X1250000D03*
X1400000D03*
Y2050000D03*
X1250000D03*
X1100000D03*
X950000D03*
X1550000Y750000D03*
X1700000D03*
X1850000D03*
Y2050000D03*
X1700000D03*
X1550000D03*
X2000000Y750000D03*
Y2050000D03*
G54D20*
X8950800Y1296000D03*
Y1804000D03*
Y2312000D03*
Y2820000D03*
Y4654000D03*
Y4146000D03*
G54D11*
X330000Y950000D03*
X140000D03*
X200000Y2240000D03*
X350000D03*
X670000Y200000D03*
Y390000D03*
X666200Y1400000D03*
Y993800D03*
Y1810000D03*
X750000Y3720000D03*
X680000Y3650000D03*
X600000Y3570000D03*
X865000Y3585000D03*
X1110000Y580000D03*
X1300000D03*
X1130000Y1180000D03*
X1320000D03*
X1420000Y2430000D03*
Y2240000D03*
X1070000Y2380000D03*
X1420000Y2820000D03*
Y2630000D03*
X1360000Y3110000D03*
X1050000Y3090000D03*
X960000Y3000000D03*
Y3090000D03*
X1300000Y3670000D03*
Y3830000D03*
X1310000Y4180000D03*
X1097670Y6129410D03*
Y5629410D03*
X1500000Y580000D03*
X1690000D03*
X1920000D03*
X1520000Y1180000D03*
X1710000D03*
X1850000Y1910000D03*
X1680000Y3130000D03*
Y3440000D03*
X1780000Y3800000D03*
Y3690000D03*
X1510000Y3840000D03*
Y4180000D03*
X1710000D03*
X1470000Y4990000D03*
X1550000D03*
X1630000D03*
X1470000Y4910000D03*
X1550000D03*
X1630000D03*
X1710000D03*
Y4990000D03*
X1597670Y6129410D03*
Y5629410D03*
X2310000Y580000D03*
X2110000D03*
X2000000Y1080000D03*
Y1270000D03*
Y1470000D03*
Y1660000D03*
X2300000Y2060000D03*
Y2150000D03*
X1970000Y2940000D03*
X2210000D03*
X2400000Y2580000D03*
X1970000Y3130000D03*
Y3440000D03*
X2340000Y3000000D03*
X2425000D03*
X2460000Y3480000D03*
X2375000D03*
X1950000Y3800000D03*
X2300000Y3790000D03*
X1990000Y3585000D03*
X2425000Y4080000D03*
X2097670Y6129410D03*
Y5629410D03*
X2500000Y580000D03*
X2860000Y2130000D03*
Y2050000D03*
X2960000D03*
X2475000Y2655000D03*
X2950000Y3420000D03*
X2810000Y3495000D03*
X2720000Y4080000D03*
X2610000D03*
X2597670Y6129410D03*
Y5629410D03*
X3490000Y2300000D03*
X3300000D03*
X3490000Y2070000D03*
X3300000D03*
X3020000Y2290000D03*
X3300000Y2550000D03*
X3490000D03*
X3030000Y2630000D03*
X3880000Y2300000D03*
X3690000D03*
X3880000Y2070000D03*
X3690000D03*
Y2550000D03*
X3880000D03*
X3540000Y3530000D03*
Y3770000D03*
Y3640000D03*
X4024970Y5354200D03*
Y5854200D03*
Y6354200D03*
X4400000Y150000D03*
X4210000D03*
X4410000Y430000D03*
X4220000D03*
X4524970Y5354200D03*
Y5854200D03*
Y6354200D03*
X4790000Y150000D03*
X4600000D03*
X4800000Y430000D03*
X4610000D03*
X5050000Y2300000D03*
X5570000Y1260000D03*
X5200000Y2320000D03*
X5280000D03*
X5360000D03*
X5440000D03*
X5520000D03*
X5384370Y3769630D03*
Y4269630D03*
Y4769630D03*
X5600000Y6490000D03*
X5490000Y6487280D03*
X5380000Y6490000D03*
X5600000Y6580000D03*
X5490000Y6577280D03*
X5380000Y6580000D03*
X5150000D03*
X5260000Y6577280D03*
X5150000Y6490000D03*
X5260000Y6487280D03*
X5150000Y6400000D03*
X5260000Y6397280D03*
X5150000Y6310000D03*
X5260000Y6307280D03*
Y6217280D03*
X5150000Y6220000D03*
X5875000Y315000D03*
X6100000Y860000D03*
X5875000Y780000D03*
X6100000Y1240000D03*
X5900000D03*
X6100000Y1120000D03*
X5900000D03*
X6100000Y980000D03*
X5970000Y1940000D03*
X6080000Y1937280D03*
X5970000Y1850000D03*
X6080000Y1847280D03*
X5970000Y1740000D03*
X6080000Y1737280D03*
X5970000Y1650000D03*
X6080000Y1647280D03*
X5970000Y1550000D03*
X6080000Y1547280D03*
X5970000Y1460000D03*
X6080000Y1457280D03*
X5970000Y2030000D03*
X6080000Y2027280D03*
X5970000Y2120000D03*
X6080000Y2117280D03*
X5970000Y2210000D03*
X6080000Y2207280D03*
Y2317280D03*
X5970000Y2320000D03*
X6080000Y2407280D03*
X5970000Y2410000D03*
X5885030Y2800670D03*
X6080000Y2507280D03*
X5970000Y2510000D03*
X6080000Y2597280D03*
X5970000Y2600000D03*
X5885030Y3300670D03*
X5884370Y3769630D03*
Y4269630D03*
Y4769630D03*
X5710000Y5580000D03*
X5820000Y5577280D03*
X5710000Y5490000D03*
X5820000Y5487280D03*
X5930000Y5580000D03*
Y5490000D03*
X5884370Y5129630D03*
X5710000Y5680000D03*
X5820000Y5677280D03*
X5930000Y5680000D03*
X6450370Y184370D03*
X6460370Y594370D03*
X6480000Y860000D03*
X6290000D03*
Y1240000D03*
Y1120000D03*
X6480000D03*
Y1240000D03*
Y980000D03*
X6290000D03*
X6190000Y1940000D03*
Y1850000D03*
Y1740000D03*
Y1650000D03*
Y1550000D03*
Y1460000D03*
Y2030000D03*
Y2120000D03*
Y2210000D03*
Y2320000D03*
Y2410000D03*
X6385030Y2800670D03*
X6190000Y2510000D03*
Y2600000D03*
X6135030Y2800670D03*
X6385030Y3300670D03*
X6384370Y3769630D03*
Y4269630D03*
Y4769630D03*
Y5129630D03*
X6564370Y5809630D03*
X6950370Y184370D03*
X6960370Y594370D03*
X6860000Y1100000D03*
X6930000D03*
X7000000D03*
X6860000Y1030000D03*
X6930000D03*
X7000000D03*
X7180000Y2270000D03*
X7110000D03*
X6884370Y3769630D03*
Y4269630D03*
Y4769630D03*
X7064370Y5809630D03*
X6684370D03*
X6814370D03*
X6934370D03*
Y5689630D03*
X7064370D03*
X7074370Y6009630D03*
Y6349630D03*
Y6509630D03*
Y6869630D03*
Y6689630D03*
X7450370Y184370D03*
X7460370Y594370D03*
X7440000Y1220000D03*
Y1150000D03*
Y1080000D03*
Y1010000D03*
X7250000Y2270000D03*
X7320000D03*
X7390000D03*
X7460000D03*
Y2340000D03*
Y2410000D03*
X7384370Y3769630D03*
Y4269630D03*
Y4769630D03*
X7184370Y5809630D03*
X7314370D03*
X7434370D03*
X7574370Y6009630D03*
Y6349630D03*
Y6509630D03*
X7344370D03*
X7574370Y6869630D03*
Y6689630D03*
X7344370D03*
Y6869630D03*
X7919330Y185030D03*
X7929330Y595030D03*
X8210000Y820000D03*
X8160000Y6620000D03*
Y6530000D03*
Y6440000D03*
X7980000Y6620000D03*
Y6530000D03*
Y6440000D03*
X8070000D03*
Y6530000D03*
Y6620000D03*
X7890000D03*
Y6530000D03*
Y6440000D03*
X7800000D03*
Y6530000D03*
Y6620000D03*
X8070000Y6350000D03*
Y6260000D03*
X8160000D03*
Y6350000D03*
X7890000D03*
X7800000D03*
X7980000D03*
X8419330Y185030D03*
X8429330Y595030D03*
X8660000Y820000D03*
X8480000D03*
X8390000D03*
X8570000D03*
X8300000D03*
X8570000Y1090000D03*
Y1000000D03*
Y910000D03*
X8390000Y1090000D03*
Y1000000D03*
Y910000D03*
X8480000D03*
Y1000000D03*
Y1090000D03*
X8660000Y910000D03*
Y1000000D03*
X8480000Y1920000D03*
X8390000D03*
Y1830000D03*
X8480000D03*
X8570000Y1920000D03*
X8480000Y2010000D03*
X8390000D03*
Y2280000D03*
Y2190000D03*
Y2100000D03*
X8480000D03*
Y2190000D03*
Y2280000D03*
X8570000Y2190000D03*
Y2100000D03*
Y2010000D03*
X8660000D03*
Y2100000D03*
X8230000Y3410000D03*
Y3320000D03*
Y3230000D03*
X8320000D03*
Y3320000D03*
Y3410000D03*
X8500000D03*
Y3320000D03*
Y3230000D03*
X8410000D03*
Y3320000D03*
Y3410000D03*
X8590000Y3230000D03*
Y3320000D03*
Y3410000D03*
Y3140000D03*
Y3050000D03*
X8410000Y3140000D03*
Y3050000D03*
X8500000D03*
Y3140000D03*
X8250000Y6620000D03*
Y6530000D03*
Y6440000D03*
X8340000D03*
Y6530000D03*
Y6620000D03*
Y6350000D03*
Y6260000D03*
X8250000D03*
Y6350000D03*
X8790000Y1410000D03*
X9240000Y1350000D03*
X9150000D03*
X9240000Y1270000D03*
X9150000D03*
X9240000Y1190000D03*
X9150000D03*
X9240000Y1110000D03*
X9150000D03*
X9060000D03*
X8970000D03*
X8880000D03*
X8790000D03*
X9150000Y1430000D03*
X9240000D03*
X8790000Y1940000D03*
X9240000Y1890000D03*
X9150000D03*
X9240000Y1800000D03*
X9150000D03*
X9240000Y1710000D03*
X9150000D03*
X9240000Y1620000D03*
X9150000D03*
X9060000D03*
X8970000D03*
X8880000D03*
X8790000D03*
X9150000Y2460000D03*
X9240000D03*
X9150000Y2370000D03*
X9240000D03*
X9150000Y2280000D03*
X9240000D03*
X9150000Y2190000D03*
X9240000D03*
X8790000D03*
Y2460000D03*
X9060000D03*
X8870000Y1990000D03*
X8970000D03*
X9060000D03*
X9150000D03*
X9240000D03*
Y2970000D03*
X9150000D03*
X9240000Y2870000D03*
X9150000D03*
X9240000Y2770000D03*
X9150000D03*
X8790000Y2680000D03*
X9150000D03*
X8790000Y2970000D03*
X9060000D03*
X8790000Y2550000D03*
X8880000D03*
X9060000D03*
X9150000D03*
X9240000D03*
X8970000D03*
X8790000Y3060000D03*
X8880000D03*
X8970000D03*
X9240000D03*
X9150000D03*
X9060000D03*
X9705030Y820670D03*
Y1320670D03*
X9715030Y1860670D03*
Y2360670D03*
X9714370Y2829630D03*
Y3329630D03*
Y3829630D03*
X9715030Y4310670D03*
Y4810670D03*
X9714370Y5279630D03*
Y5779630D03*
Y6279630D03*
G54D21*
G01X290000Y0D02*
X9710000D01*
G03X10000000Y290000I0J290000D01*
G01Y6710000D01*
G03X9710000Y7000000I-290000J0D01*
G01X290000D01*
G03X0Y6710000I0J-290000D01*
G01Y290000D01*
G03X290000Y0I290000J0D01*
G01X450000Y290000D02*
G03I-160000J0D01*
G01Y6710000D02*
G03I-160000J0D01*
G01X490000Y4480000D02*
G03I-30000J0D01*
G01Y4080000D02*
G03I-30000J0D01*
G01X1205000Y140000D02*
G03I-50000J0D01*
G01X1435000D02*
G03I-50000J0D01*
G01X2335000D02*
G03I-50000J0D01*
G01X2565000D02*
G03I-50000J0D01*
G01X3465000D02*
G03I-50000J0D01*
G01X3695000D02*
G03I-50000J0D01*
G01X9870000Y290000D02*
G03I-160000J0D01*
G01Y6710000D02*
G03I-160000J0D01*
G54D12*
X200000Y2509900D03*
Y2763900D03*
Y3017900D03*
Y5320940D03*
Y5574940D03*
Y5828940D03*
X3150000Y6570000D03*
X3400000D03*
X3650000D03*
X4600000Y647280D03*
Y901280D03*
Y1155280D03*
Y1409280D03*
Y1663280D03*
Y1917280D03*
Y2171280D03*
Y2425280D03*
Y2679280D03*
Y2933280D03*
Y3187280D03*
X4346000Y4030000D03*
Y4500000D03*
X7420000Y6200000D03*
X7920000D03*
G54D22*
G01X200000Y2050000D02*
Y2240000D01*
G01X350000Y2050000D02*
Y2240000D01*
G01X1700000Y750000D02*
Y920000D01*
X1626200Y993800D01*
X666200D01*
G01X1990000Y3585000D02*
X865000D01*
G01X2400000Y2580000D02*
Y910000D01*
X2660000Y650000D01*
X4193000D01*
G01X2340000Y3000000D02*
X2180000Y3160000D01*
Y4110000D01*
X2290000Y4220000D01*
X3167480D01*
X3290640Y4096840D01*
Y3619360D01*
X3468720Y3441280D01*
X4193000D01*
G01X2425000Y3000000D02*
Y3015000D01*
X2230000Y3210000D01*
Y4090000D01*
X2310000Y4170000D01*
X3160000D01*
X3250000Y4080000D01*
Y3360000D01*
X3422720Y3187280D01*
X4193000D01*
G01X2375000Y3480000D02*
Y3225000D01*
X2550000Y3050000D01*
Y1360000D01*
X2754720Y1155280D01*
X4193000D01*
G01X2300000Y3790000D02*
X2670000Y3420000D01*
Y1800780D01*
X2807500Y1663280D01*
X4193000D01*
G01X2425000Y4080000D02*
X2730000Y3775000D01*
Y2040000D01*
X2852720Y1917280D01*
X4193000D01*
G01X2475000Y2655000D02*
Y1095000D01*
X2668720Y901280D01*
X4193000D01*
G01X2460000Y3480000D02*
Y3220000D01*
X2610000Y3070000D01*
Y1540000D01*
X2740720Y1409280D01*
X4193000D01*
G01X2810000Y3495000D02*
Y2340000D01*
X2978720Y2171280D01*
X4193000D01*
G01X2950000Y3420000D02*
Y2890000D01*
X3160720Y2679280D01*
X4193000D01*
G01X2610000Y4080000D02*
X2880000Y3810000D01*
Y2650000D01*
X3104720Y2425280D01*
X4193000D01*
G01X2720000Y4080000D02*
X3050000Y3750000D01*
Y3130000D01*
X3246720Y2933280D01*
X4193000D01*
G01X4345400Y650000D02*
X4348120Y647280D01*
X4600000D01*
G01X4345400Y1155280D02*
X4600000D01*
G01X4345400Y901280D02*
X4600000D01*
G01X4345400Y1917280D02*
X4600000D01*
G01X4345400Y1409280D02*
X4600000D01*
G01X4345400Y1663280D02*
X4600000D01*
G01X4345400Y2425280D02*
X4600000D01*
G01X4345400Y2171280D02*
X4600000D01*
G01X4345400Y2679280D02*
X4600000D01*
G01X4345400Y2933280D02*
X4600000D01*
G01X4345400Y3441280D02*
X4600000D01*
G01X4345400Y3187280D02*
X4600000D01*
G54D13*
X200000Y3271900D03*
Y6082940D03*
X4600000Y4030000D03*
Y4500000D03*
G54D23*
G01X200000Y3271900D02*
Y3422800D01*
G01Y3271900D02*
X350900D01*
G01X200000Y6082940D02*
Y6233840D01*
G01Y6082940D02*
X350900D01*
G01X895000Y110000D02*
Y248400D01*
G01X756600Y110000D02*
X895000D01*
G01D02*
X1033400D01*
G01X1886600D02*
X2025000D01*
G01X1645000D02*
Y248400D01*
G01X1506600Y110000D02*
X1645000D01*
G01D02*
X1783400D01*
G01X2025000D02*
Y248400D01*
G01Y110000D02*
X2163400D01*
G01X2775000D02*
Y248400D01*
G01X2636600Y110000D02*
X2775000D01*
G01D02*
X2913400D01*
G01X2844100Y6240000D02*
X3000000D01*
G01X3155000Y110000D02*
Y248400D01*
G01X3016600Y110000D02*
X3155000D01*
G01D02*
X3293400D01*
G01X3000000Y5984100D02*
Y6240000D01*
G01D02*
Y6495900D01*
G01Y6240000D02*
X3155900D01*
G01X3905000Y110000D02*
Y248400D01*
G01X3766600Y110000D02*
X3905000D01*
G01D02*
X4043400D01*
G01X3800000Y5984100D02*
Y6240000D01*
G01X3650000Y6424100D02*
Y6570000D01*
G01D02*
Y6715900D01*
G01Y6570000D02*
X3795900D01*
G01X3800000Y6240000D02*
Y6495900D01*
G01X3644100Y6240000D02*
X3800000D01*
G01D02*
X3955900D01*
G01X7420000Y6054100D02*
Y6200000D01*
G01D02*
Y6345900D01*
G01X7274100Y6200000D02*
X7420000D01*
G01D02*
X7565900D01*
G01X8950800Y3965100D02*
Y4146000D01*
G01D02*
Y4326900D01*
G01X8769900Y4146000D02*
X8950800D01*
G01D02*
X9131700D01*
G01X9210000Y5434100D02*
Y5690000D01*
G01D02*
Y5945900D01*
G01X9054100Y5690000D02*
X9210000D01*
G01D02*
X9365900D01*
G54D14*
X895000Y110000D03*
X1645000D03*
X2025000D03*
X2775000D03*
X3155000D03*
X3905000D03*
G54D24*
G01X1070000Y2380000D02*
X330000D01*
X200100Y2509900D01*
X200000D01*
G01D02*
X470000Y2779900D01*
Y3630000D01*
X670000Y3830000D01*
X1300000D01*
G01X200000Y5828940D02*
X360000Y5668940D01*
Y4840000D01*
X480000Y4720000D01*
X4150000D01*
X4346000Y4524000D01*
Y4500000D01*
G01Y4030000D02*
X4350000Y4026000D01*
Y3720000D01*
X4270000Y3640000D01*
X3540000D01*
G01X4346000Y4030000D02*
Y4500000D01*
G01X5570000Y1260000D02*
X5875000Y955000D01*
Y780000D01*
G01Y315000D02*
Y780000D01*
G54D15*
X2175000Y875000D03*
Y1025000D03*
Y1175000D03*
Y1325000D03*
Y1475000D03*
Y1625000D03*
Y1775000D03*
Y1925000D03*
G54D25*
G01X1850000Y2050000D02*
Y1910000D01*
G54D16*
X3000000Y6240000D03*
X3800000D03*
X8610000Y5690000D03*
X9210000D03*
G54D17*
X4193000Y901280D03*
X4345400D03*
X4193000Y650000D03*
X4345400D03*
X4193000Y1409280D03*
X4345400D03*
X4193000Y1155280D03*
X4345400D03*
X4193000Y1663280D03*
X4345400D03*
X4193000Y1917280D03*
X4345400D03*
X4193000Y2425280D03*
X4345400D03*
X4193000Y2171280D03*
X4345400D03*
X4193000Y2679280D03*
X4345400D03*
X4193000Y2933280D03*
X4345400D03*
X4193000Y3441280D03*
X4345400D03*
X4193000Y3187280D03*
X4345400D03*
G54D18*
X4600000Y3441280D03*
G54D19*
X8890000Y6170000D03*
M02*
