G04 ================== begin FILE IDENTIFICATION RECORD ==================*
G04 Layout Name:  H:/MotorDriver/HARDWARE/DRV8711_TEST_V10A/PCB/DRV8711_TEST_V10A.brd*
G04 Film Name:    Drill_Legend*
G04 File Format:  Gerber RS274X*
G04 File Origin:  Cadence Allegro 17.2-S045*
G04 Origin Date:  Fri Feb 15 09:59:43 2019*
G04 *
G04 Layer:  BOARD GEOMETRY/OUTLINE*
G04 Layer:  MANUFACTURING/NCDRILL_FIGURE*
G04 Layer:  BOARD GEOMETRY/DIMENSION*
G04 Layer:  MANUFACTURING/NCDRILL_LEGEND*
G04 Layer:  MANUFACTURING/NCLEGEND-1-2*
G04 *
G04 Offset:    (0.0000 0.0000)*
G04 Mirror:    No*
G04 Mode:      Positive*
G04 Rotation:  0*
G04 FullContactRelief:  No*
G04 UndefLineWidth:     0.1524*
G04 ================== end FILE IDENTIFICATION RECORD ====================*
%FSLAX55Y55*MOMM*%
%IR0*IPPOS*OFA0.00000B0.00000*MIA0B0*SFA1.00000B1.00000*%
%AMMACRO17*
1,1,.1524,.372792,-.9*
20,1,.1524,.372792,-.9,-.372792,-.9,0.0*
1,1,.1524,-.372792,-.9*
20,1,.1524,-.372792,-.9,-.9,-.372792,0.0*
1,1,.1524,-.9,-.372792*
20,1,.1524,-.9,-.372792,-.9,.372792,0.0*
1,1,.1524,-.9,.372792*
20,1,.1524,-.9,.372792,-.372792,.9,0.0*
1,1,.1524,-.372792,.9*
20,1,.1524,-.372792,.9,.372792,.9,0.0*
1,1,.1524,.372792,.9*
20,1,.1524,.372792,.9,.9,.372792,0.0*
1,1,.1524,.9,.372792*
20,1,.1524,.9,.372792,.9,-.372792,0.0*
1,1,.1524,.9,-.372792*
20,1,.1524,.9,-.372792,.372792,-.9,0.0*
1,1,.1524,.372792,-.9*
%
%ADD17MACRO17*%
%AMMACRO14*
1,1,.1524,.45,.45*
20,1,.1524,.45,.45,.45,-.45,0.0*
1,1,.1524,.45,-.45*
20,1,.1524,.45,-.45,-.45,-.45,0.0*
1,1,.1524,-.45,-.45*
20,1,.1524,-.45,-.45,-.45,.45,0.0*
1,1,.1524,-.45,.45*
20,1,.1524,-.45,.45,.45,.45,0.0*
1,1,.1524,.45,.45*
%
%ADD14MACRO14*%
%AMMACRO10*
1,1,.1524,.1524,0.0*
20,1,.1524,.1524,0.0,-.1524,0.0,0.0*
1,1,.1524,-.1524,0.0*
1,1,.1524,0.0,.1524*
20,1,.1524,0.0,.1524,0.0,-.1524,0.0*
1,1,.1524,0.0,-.1524*
%
%ADD10MACRO10*%
%AMMACRO12*
1,1,.1524,.5,0.0*
20,1,.1524,.5,0.0,.25,.433013,0.0*
1,1,.1524,.25,.433013*
20,1,.1524,.25,.433013,-.25,.433013,0.0*
1,1,.1524,-.25,.433013*
20,1,.1524,-.25,.433013,-.5,0.0,0.0*
1,1,.1524,-.5,0.0*
20,1,.1524,-.5,0.0,-.25,-.433013,0.0*
1,1,.1524,-.25,-.433013*
20,1,.1524,-.25,-.433013,.25,-.433013,0.0*
1,1,.1524,.25,-.433013*
20,1,.1524,.25,-.433013,.5,0.0,0.0*
1,1,.1524,.5,0.0*
%
%ADD12MACRO12*%
%AMMACRO11*
1,1,.1524,0.0,.55*
20,1,.1524,0.0,.55,-.476314,.275,0.0*
1,1,.1524,-.476314,.275*
20,1,.1524,-.476314,.275,-.476314,-.275,0.0*
1,1,.1524,-.476314,-.275*
20,1,.1524,-.476314,-.275,0.0,-.55,0.0*
1,1,.1524,0.0,-.55*
20,1,.1524,0.0,-.55,.476314,-.275,0.0*
1,1,.1524,.476314,-.275*
20,1,.1524,.476314,-.275,.476314,.275,0.0*
1,1,.1524,.476314,.275*
20,1,.1524,.476314,.275,0.0,.55,0.0*
1,1,.1524,0.0,.55*
%
%ADD11MACRO11*%
%AMMACRO15*
1,1,.1524,-.5,-1.*
20,1,.1524,-.5,-1.,-.5,1.,0.0*
1,1,.1524,-.5,1.*
20,1,.1524,-.5,1.,-.492404,1.086824,0.0*
1,1,.1524,-.492404,1.086824*
20,1,.1524,-.492404,1.086824,-.469846,1.17101,0.0*
1,1,.1524,-.469846,1.17101*
20,1,.1524,-.469846,1.17101,-.433013,1.25,0.0*
1,1,.1524,-.433013,1.25*
20,1,.1524,-.433013,1.25,-.383022,1.321394,0.0*
1,1,.1524,-.383022,1.321394*
20,1,.1524,-.383022,1.321394,-.321394,1.383022,0.0*
1,1,.1524,-.321394,1.383022*
20,1,.1524,-.321394,1.383022,-.25,1.433013,0.0*
1,1,.1524,-.25,1.433013*
20,1,.1524,-.25,1.433013,-.17101,1.469846,0.0*
1,1,.1524,-.17101,1.469846*
20,1,.1524,-.17101,1.469846,-.086824,1.492404,0.0*
1,1,.1524,-.086824,1.492404*
20,1,.1524,-.086824,1.492404,0.0,1.5,0.0*
1,1,.1524,0.0,1.5*
20,1,.1524,0.0,1.5,.086824,1.492404,0.0*
1,1,.1524,.086824,1.492404*
20,1,.1524,.086824,1.492404,.17101,1.469846,0.0*
1,1,.1524,.17101,1.469846*
20,1,.1524,.17101,1.469846,.25,1.433013,0.0*
1,1,.1524,.25,1.433013*
20,1,.1524,.25,1.433013,.321394,1.383022,0.0*
1,1,.1524,.321394,1.383022*
20,1,.1524,.321394,1.383022,.383022,1.321394,0.0*
1,1,.1524,.383022,1.321394*
20,1,.1524,.383022,1.321394,.433013,1.25,0.0*
1,1,.1524,.433013,1.25*
20,1,.1524,.433013,1.25,.469846,1.17101,0.0*
1,1,.1524,.469846,1.17101*
20,1,.1524,.469846,1.17101,.492404,1.086824,0.0*
1,1,.1524,.492404,1.086824*
20,1,.1524,.492404,1.086824,.5,1.,0.0*
1,1,.1524,.5,1.*
20,1,.1524,.5,1.,.5,-1.,0.0*
1,1,.1524,.5,-1.*
20,1,.1524,.5,-1.,.492404,-1.086824,0.0*
1,1,.1524,.492404,-1.086824*
20,1,.1524,.492404,-1.086824,.469846,-1.17101,0.0*
1,1,.1524,.469846,-1.17101*
20,1,.1524,.469846,-1.17101,.433013,-1.25,0.0*
1,1,.1524,.433013,-1.25*
20,1,.1524,.433013,-1.25,.383022,-1.321394,0.0*
1,1,.1524,.383022,-1.321394*
20,1,.1524,.383022,-1.321394,.321394,-1.383022,0.0*
1,1,.1524,.321394,-1.383022*
20,1,.1524,.321394,-1.383022,.25,-1.433013,0.0*
1,1,.1524,.25,-1.433013*
20,1,.1524,.25,-1.433013,.17101,-1.469846,0.0*
1,1,.1524,.17101,-1.469846*
20,1,.1524,.17101,-1.469846,.086824,-1.492404,0.0*
1,1,.1524,.086824,-1.492404*
20,1,.1524,.086824,-1.492404,0.0,-1.5,0.0*
1,1,.1524,0.0,-1.5*
20,1,.1524,0.0,-1.5,-.086824,-1.492404,0.0*
1,1,.1524,-.086824,-1.492404*
20,1,.1524,-.086824,-1.492404,-.17101,-1.469846,0.0*
1,1,.1524,-.17101,-1.469846*
20,1,.1524,-.17101,-1.469846,-.25,-1.433013,0.0*
1,1,.1524,-.25,-1.433013*
20,1,.1524,-.25,-1.433013,-.321394,-1.383022,0.0*
1,1,.1524,-.321394,-1.383022*
20,1,.1524,-.321394,-1.383022,-.383022,-1.321394,0.0*
1,1,.1524,-.383022,-1.321394*
20,1,.1524,-.383022,-1.321394,-.433013,-1.25,0.0*
1,1,.1524,-.433013,-1.25*
20,1,.1524,-.433013,-1.25,-.469846,-1.17101,0.0*
1,1,.1524,-.469846,-1.17101*
20,1,.1524,-.469846,-1.17101,-.492404,-1.086824,0.0*
1,1,.1524,-.492404,-1.086824*
20,1,.1524,-.492404,-1.086824,-.5,-1.,0.0*
1,1,.1524,-.5,-1.*
1,1,.1524,-.25,-.25*
20,1,.1524,-.25,-.25,-.3167,-.2417,0.0*
1,1,.1524,-.3167,-.2417*
20,1,.1524,-.3167,-.2417,-.375,-.2083,0.0*
1,1,.1524,-.375,-.2083*
20,1,.1524,-.375,-.2083,-.425,-.1583,0.0*
1,1,.1524,-.425,-.1583*
20,1,.1524,-.425,-.1583,-.4583,-.1,0.0*
1,1,.1524,-.4583,-.1*
20,1,.1524,-.4583,-.1,-.475,-.0333,0.0*
1,1,.1524,-.475,-.0333*
20,1,.1524,-.475,-.0333,-.475,.0333,0.0*
1,1,.1524,-.475,.0333*
20,1,.1524,-.475,.0333,-.4583,.1,0.0*
1,1,.1524,-.4583,.1*
20,1,.1524,-.4583,.1,-.425,.1583,0.0*
1,1,.1524,-.425,.1583*
20,1,.1524,-.425,.1583,-.375,.2083,0.0*
1,1,.1524,-.375,.2083*
20,1,.1524,-.375,.2083,-.3167,.2417,0.0*
1,1,.1524,-.3167,.2417*
20,1,.1524,-.3167,.2417,-.25,.25,0.0*
1,1,.1524,-.25,.25*
20,1,.1524,-.25,.25,-.1833,.2417,0.0*
1,1,.1524,-.1833,.2417*
20,1,.1524,-.1833,.2417,-.125,.2083,0.0*
1,1,.1524,-.125,.2083*
20,1,.1524,-.125,.2083,-.075,.1583,0.0*
1,1,.1524,-.075,.1583*
20,1,.1524,-.075,.1583,-.0417,.1,0.0*
1,1,.1524,-.0417,.1*
20,1,.1524,-.0417,.1,-.025,.0333,0.0*
1,1,.1524,-.025,.0333*
20,1,.1524,-.025,.0333,-.025,-.0333,0.0*
1,1,.1524,-.025,-.0333*
20,1,.1524,-.025,-.0333,-.0417,-.1,0.0*
1,1,.1524,-.0417,-.1*
20,1,.1524,-.0417,-.1,-.075,-.1583,0.0*
1,1,.1524,-.075,-.1583*
20,1,.1524,-.075,-.1583,-.125,-.2083,0.0*
1,1,.1524,-.125,-.2083*
20,1,.1524,-.125,-.2083,-.1833,-.2417,0.0*
1,1,.1524,-.1833,-.2417*
20,1,.1524,-.1833,-.2417,-.25,-.25,0.0*
1,1,.1524,-.25,-.25*
1,1,.1524,.3168,.0167*
20,1,.1524,.3168,.0167,.3501,.0417,0.0*
1,1,.1524,.3501,.0417*
20,1,.1524,.3501,.0417,.3751,.0833,0.0*
1,1,.1524,.3751,.0833*
20,1,.1524,.3751,.0833,.3918,.1417,0.0*
1,1,.1524,.3918,.1417*
20,1,.1524,.3918,.1417,.3751,.1917,0.0*
1,1,.1524,.3751,.1917*
20,1,.1524,.3751,.1917,.3418,.225,0.0*
1,1,.1524,.3418,.225*
20,1,.1524,.3418,.225,.2834,.25,0.0*
1,1,.1524,.2834,.25*
20,1,.1524,.2834,.25,.0584,.25,0.0*
1,1,.1524,.0584,.25*
20,1,.1524,.0584,.25,.0584,-.25,0.0*
1,1,.1524,.0584,-.25*
20,1,.1524,.0584,-.25,.3334,-.25,0.0*
1,1,.1524,.3334,-.25*
20,1,.1524,.3334,-.25,.3918,-.2167,0.0*
1,1,.1524,.3918,-.2167*
20,1,.1524,.3918,-.2167,.4251,-.1667,0.0*
1,1,.1524,.4251,-.1667*
20,1,.1524,.4251,-.1667,.4418,-.1083,0.0*
1,1,.1524,.4418,-.1083*
20,1,.1524,.4418,-.1083,.4251,-.05,0.0*
1,1,.1524,.4251,-.05*
20,1,.1524,.4251,-.05,.3751,0.0,0.0*
1,1,.1524,.3751,0.0*
20,1,.1524,.3751,0.0,.3168,.0167,0.0*
1,1,.1524,.3168,.0167*
20,1,.1524,.3168,.0167,.0584,.0167,0.0*
1,1,.1524,.0584,.0167*
%
%ADD15MACRO15*%
%AMMACRO16*
1,1,.1524,-1.,.5*
20,1,.1524,-1.,.5,1.,.5,0.0*
1,1,.1524,1.,.5*
20,1,.1524,1.,.5,1.086824,.492404,0.0*
1,1,.1524,1.086824,.492404*
20,1,.1524,1.086824,.492404,1.17101,.469846,0.0*
1,1,.1524,1.17101,.469846*
20,1,.1524,1.17101,.469846,1.25,.433013,0.0*
1,1,.1524,1.25,.433013*
20,1,.1524,1.25,.433013,1.321394,.383022,0.0*
1,1,.1524,1.321394,.383022*
20,1,.1524,1.321394,.383022,1.383022,.321394,0.0*
1,1,.1524,1.383022,.321394*
20,1,.1524,1.383022,.321394,1.433013,.25,0.0*
1,1,.1524,1.433013,.25*
20,1,.1524,1.433013,.25,1.469846,.17101,0.0*
1,1,.1524,1.469846,.17101*
20,1,.1524,1.469846,.17101,1.492404,.086824,0.0*
1,1,.1524,1.492404,.086824*
20,1,.1524,1.492404,.086824,1.5,0.0,0.0*
1,1,.1524,1.5,0.0*
20,1,.1524,1.5,0.0,1.492404,-.086824,0.0*
1,1,.1524,1.492404,-.086824*
20,1,.1524,1.492404,-.086824,1.469846,-.17101,0.0*
1,1,.1524,1.469846,-.17101*
20,1,.1524,1.469846,-.17101,1.433013,-.25,0.0*
1,1,.1524,1.433013,-.25*
20,1,.1524,1.433013,-.25,1.383022,-.321394,0.0*
1,1,.1524,1.383022,-.321394*
20,1,.1524,1.383022,-.321394,1.321394,-.383022,0.0*
1,1,.1524,1.321394,-.383022*
20,1,.1524,1.321394,-.383022,1.25,-.433013,0.0*
1,1,.1524,1.25,-.433013*
20,1,.1524,1.25,-.433013,1.17101,-.469846,0.0*
1,1,.1524,1.17101,-.469846*
20,1,.1524,1.17101,-.469846,1.086824,-.492404,0.0*
1,1,.1524,1.086824,-.492404*
20,1,.1524,1.086824,-.492404,1.,-.5,0.0*
1,1,.1524,1.,-.5*
20,1,.1524,1.,-.5,-1.,-.5,0.0*
1,1,.1524,-1.,-.5*
20,1,.1524,-1.,-.5,-1.086824,-.492404,0.0*
1,1,.1524,-1.086824,-.492404*
20,1,.1524,-1.086824,-.492404,-1.17101,-.469846,0.0*
1,1,.1524,-1.17101,-.469846*
20,1,.1524,-1.17101,-.469846,-1.25,-.433013,0.0*
1,1,.1524,-1.25,-.433013*
20,1,.1524,-1.25,-.433013,-1.321394,-.383022,0.0*
1,1,.1524,-1.321394,-.383022*
20,1,.1524,-1.321394,-.383022,-1.383022,-.321394,0.0*
1,1,.1524,-1.383022,-.321394*
20,1,.1524,-1.383022,-.321394,-1.433013,-.25,0.0*
1,1,.1524,-1.433013,-.25*
20,1,.1524,-1.433013,-.25,-1.469846,-.17101,0.0*
1,1,.1524,-1.469846,-.17101*
20,1,.1524,-1.469846,-.17101,-1.492404,-.086824,0.0*
1,1,.1524,-1.492404,-.086824*
20,1,.1524,-1.492404,-.086824,-1.5,0.0,0.0*
1,1,.1524,-1.5,0.0*
20,1,.1524,-1.5,0.0,-1.492404,.086824,0.0*
1,1,.1524,-1.492404,.086824*
20,1,.1524,-1.492404,.086824,-1.469846,.17101,0.0*
1,1,.1524,-1.469846,.17101*
20,1,.1524,-1.469846,.17101,-1.433013,.25,0.0*
1,1,.1524,-1.433013,.25*
20,1,.1524,-1.433013,.25,-1.383022,.321394,0.0*
1,1,.1524,-1.383022,.321394*
20,1,.1524,-1.383022,.321394,-1.321394,.383022,0.0*
1,1,.1524,-1.321394,.383022*
20,1,.1524,-1.321394,.383022,-1.25,.433013,0.0*
1,1,.1524,-1.25,.433013*
20,1,.1524,-1.25,.433013,-1.17101,.469846,0.0*
1,1,.1524,-1.17101,.469846*
20,1,.1524,-1.17101,.469846,-1.086824,.492404,0.0*
1,1,.1524,-1.086824,.492404*
20,1,.1524,-1.086824,.492404,-1.,.5,0.0*
1,1,.1524,-1.,.5*
1,1,.1524,-.25,-.25*
20,1,.1524,-.25,-.25,-.3167,-.2417,0.0*
1,1,.1524,-.3167,-.2417*
20,1,.1524,-.3167,-.2417,-.375,-.2083,0.0*
1,1,.1524,-.375,-.2083*
20,1,.1524,-.375,-.2083,-.425,-.1583,0.0*
1,1,.1524,-.425,-.1583*
20,1,.1524,-.425,-.1583,-.4583,-.1,0.0*
1,1,.1524,-.4583,-.1*
20,1,.1524,-.4583,-.1,-.475,-.0333,0.0*
1,1,.1524,-.475,-.0333*
20,1,.1524,-.475,-.0333,-.475,.0333,0.0*
1,1,.1524,-.475,.0333*
20,1,.1524,-.475,.0333,-.4583,.1,0.0*
1,1,.1524,-.4583,.1*
20,1,.1524,-.4583,.1,-.425,.1583,0.0*
1,1,.1524,-.425,.1583*
20,1,.1524,-.425,.1583,-.375,.2083,0.0*
1,1,.1524,-.375,.2083*
20,1,.1524,-.375,.2083,-.3167,.2417,0.0*
1,1,.1524,-.3167,.2417*
20,1,.1524,-.3167,.2417,-.25,.25,0.0*
1,1,.1524,-.25,.25*
20,1,.1524,-.25,.25,-.1833,.2417,0.0*
1,1,.1524,-.1833,.2417*
20,1,.1524,-.1833,.2417,-.125,.2083,0.0*
1,1,.1524,-.125,.2083*
20,1,.1524,-.125,.2083,-.075,.1583,0.0*
1,1,.1524,-.075,.1583*
20,1,.1524,-.075,.1583,-.0417,.1,0.0*
1,1,.1524,-.0417,.1*
20,1,.1524,-.0417,.1,-.025,.0333,0.0*
1,1,.1524,-.025,.0333*
20,1,.1524,-.025,.0333,-.025,-.0333,0.0*
1,1,.1524,-.025,-.0333*
20,1,.1524,-.025,-.0333,-.0417,-.1,0.0*
1,1,.1524,-.0417,-.1*
20,1,.1524,-.0417,-.1,-.075,-.1583,0.0*
1,1,.1524,-.075,-.1583*
20,1,.1524,-.075,-.1583,-.125,-.2083,0.0*
1,1,.1524,-.125,-.2083*
20,1,.1524,-.125,-.2083,-.1833,-.2417,0.0*
1,1,.1524,-.1833,-.2417*
20,1,.1524,-.1833,-.2417,-.25,-.25,0.0*
1,1,.1524,-.25,-.25*
1,1,.1524,.3168,.0167*
20,1,.1524,.3168,.0167,.3501,.0417,0.0*
1,1,.1524,.3501,.0417*
20,1,.1524,.3501,.0417,.3751,.0833,0.0*
1,1,.1524,.3751,.0833*
20,1,.1524,.3751,.0833,.3918,.1417,0.0*
1,1,.1524,.3918,.1417*
20,1,.1524,.3918,.1417,.3751,.1917,0.0*
1,1,.1524,.3751,.1917*
20,1,.1524,.3751,.1917,.3418,.225,0.0*
1,1,.1524,.3418,.225*
20,1,.1524,.3418,.225,.2834,.25,0.0*
1,1,.1524,.2834,.25*
20,1,.1524,.2834,.25,.0584,.25,0.0*
1,1,.1524,.0584,.25*
20,1,.1524,.0584,.25,.0584,-.25,0.0*
1,1,.1524,.0584,-.25*
20,1,.1524,.0584,-.25,.3334,-.25,0.0*
1,1,.1524,.3334,-.25*
20,1,.1524,.3334,-.25,.3918,-.2167,0.0*
1,1,.1524,.3918,-.2167*
20,1,.1524,.3918,-.2167,.4251,-.1667,0.0*
1,1,.1524,.4251,-.1667*
20,1,.1524,.4251,-.1667,.4418,-.1083,0.0*
1,1,.1524,.4418,-.1083*
20,1,.1524,.4418,-.1083,.4251,-.05,0.0*
1,1,.1524,.4251,-.05*
20,1,.1524,.4251,-.05,.3751,0.0,0.0*
1,1,.1524,.3751,0.0*
20,1,.1524,.3751,0.0,.3168,.0167,0.0*
1,1,.1524,.3168,.0167*
20,1,.1524,.3168,.0167,.0584,.0167,0.0*
1,1,.1524,.0584,.0167*
%
%ADD16MACRO16*%
%AMMACRO13*
1,1,.1524,-.5,-.75*
20,1,.1524,-.5,-.75,-.5,.75,0.0*
1,1,.1524,-.5,.75*
20,1,.1524,-.5,.75,-.492404,.836824,0.0*
1,1,.1524,-.492404,.836824*
20,1,.1524,-.492404,.836824,-.469846,.92101,0.0*
1,1,.1524,-.469846,.92101*
20,1,.1524,-.469846,.92101,-.433013,1.,0.0*
1,1,.1524,-.433013,1.*
20,1,.1524,-.433013,1.,-.383022,1.071394,0.0*
1,1,.1524,-.383022,1.071394*
20,1,.1524,-.383022,1.071394,-.321394,1.133022,0.0*
1,1,.1524,-.321394,1.133022*
20,1,.1524,-.321394,1.133022,-.25,1.183013,0.0*
1,1,.1524,-.25,1.183013*
20,1,.1524,-.25,1.183013,-.17101,1.219846,0.0*
1,1,.1524,-.17101,1.219846*
20,1,.1524,-.17101,1.219846,-.086824,1.242404,0.0*
1,1,.1524,-.086824,1.242404*
20,1,.1524,-.086824,1.242404,0.0,1.25,0.0*
1,1,.1524,0.0,1.25*
20,1,.1524,0.0,1.25,.086824,1.242404,0.0*
1,1,.1524,.086824,1.242404*
20,1,.1524,.086824,1.242404,.17101,1.219846,0.0*
1,1,.1524,.17101,1.219846*
20,1,.1524,.17101,1.219846,.25,1.183013,0.0*
1,1,.1524,.25,1.183013*
20,1,.1524,.25,1.183013,.321394,1.133022,0.0*
1,1,.1524,.321394,1.133022*
20,1,.1524,.321394,1.133022,.383022,1.071394,0.0*
1,1,.1524,.383022,1.071394*
20,1,.1524,.383022,1.071394,.433013,1.,0.0*
1,1,.1524,.433013,1.*
20,1,.1524,.433013,1.,.469846,.92101,0.0*
1,1,.1524,.469846,.92101*
20,1,.1524,.469846,.92101,.492404,.836824,0.0*
1,1,.1524,.492404,.836824*
20,1,.1524,.492404,.836824,.5,.75,0.0*
1,1,.1524,.5,.75*
20,1,.1524,.5,.75,.5,-.75,0.0*
1,1,.1524,.5,-.75*
20,1,.1524,.5,-.75,.492404,-.836824,0.0*
1,1,.1524,.492404,-.836824*
20,1,.1524,.492404,-.836824,.469846,-.92101,0.0*
1,1,.1524,.469846,-.92101*
20,1,.1524,.469846,-.92101,.433013,-1.,0.0*
1,1,.1524,.433013,-1.*
20,1,.1524,.433013,-1.,.383022,-1.071394,0.0*
1,1,.1524,.383022,-1.071394*
20,1,.1524,.383022,-1.071394,.321394,-1.133022,0.0*
1,1,.1524,.321394,-1.133022*
20,1,.1524,.321394,-1.133022,.25,-1.183013,0.0*
1,1,.1524,.25,-1.183013*
20,1,.1524,.25,-1.183013,.17101,-1.219846,0.0*
1,1,.1524,.17101,-1.219846*
20,1,.1524,.17101,-1.219846,.086824,-1.242404,0.0*
1,1,.1524,.086824,-1.242404*
20,1,.1524,.086824,-1.242404,0.0,-1.25,0.0*
1,1,.1524,0.0,-1.25*
20,1,.1524,0.0,-1.25,-.086824,-1.242404,0.0*
1,1,.1524,-.086824,-1.242404*
20,1,.1524,-.086824,-1.242404,-.17101,-1.219846,0.0*
1,1,.1524,-.17101,-1.219846*
20,1,.1524,-.17101,-1.219846,-.25,-1.183013,0.0*
1,1,.1524,-.25,-1.183013*
20,1,.1524,-.25,-1.183013,-.321394,-1.133022,0.0*
1,1,.1524,-.321394,-1.133022*
20,1,.1524,-.321394,-1.133022,-.383022,-1.071394,0.0*
1,1,.1524,-.383022,-1.071394*
20,1,.1524,-.383022,-1.071394,-.433013,-1.,0.0*
1,1,.1524,-.433013,-1.*
20,1,.1524,-.433013,-1.,-.469846,-.92101,0.0*
1,1,.1524,-.469846,-.92101*
20,1,.1524,-.469846,-.92101,-.492404,-.836824,0.0*
1,1,.1524,-.492404,-.836824*
20,1,.1524,-.492404,-.836824,-.5,-.75,0.0*
1,1,.1524,-.5,-.75*
1,1,.1524,-.25,-.25*
20,1,.1524,-.25,-.25,-.3167,-.2417,0.0*
1,1,.1524,-.3167,-.2417*
20,1,.1524,-.3167,-.2417,-.375,-.2083,0.0*
1,1,.1524,-.375,-.2083*
20,1,.1524,-.375,-.2083,-.425,-.1583,0.0*
1,1,.1524,-.425,-.1583*
20,1,.1524,-.425,-.1583,-.4583,-.1,0.0*
1,1,.1524,-.4583,-.1*
20,1,.1524,-.4583,-.1,-.475,-.0333,0.0*
1,1,.1524,-.475,-.0333*
20,1,.1524,-.475,-.0333,-.475,.0333,0.0*
1,1,.1524,-.475,.0333*
20,1,.1524,-.475,.0333,-.4583,.1,0.0*
1,1,.1524,-.4583,.1*
20,1,.1524,-.4583,.1,-.425,.1583,0.0*
1,1,.1524,-.425,.1583*
20,1,.1524,-.425,.1583,-.375,.2083,0.0*
1,1,.1524,-.375,.2083*
20,1,.1524,-.375,.2083,-.3167,.2417,0.0*
1,1,.1524,-.3167,.2417*
20,1,.1524,-.3167,.2417,-.25,.25,0.0*
1,1,.1524,-.25,.25*
20,1,.1524,-.25,.25,-.1833,.2417,0.0*
1,1,.1524,-.1833,.2417*
20,1,.1524,-.1833,.2417,-.125,.2083,0.0*
1,1,.1524,-.125,.2083*
20,1,.1524,-.125,.2083,-.075,.1583,0.0*
1,1,.1524,-.075,.1583*
20,1,.1524,-.075,.1583,-.0417,.1,0.0*
1,1,.1524,-.0417,.1*
20,1,.1524,-.0417,.1,-.025,.0333,0.0*
1,1,.1524,-.025,.0333*
20,1,.1524,-.025,.0333,-.025,-.0333,0.0*
1,1,.1524,-.025,-.0333*
20,1,.1524,-.025,-.0333,-.0417,-.1,0.0*
1,1,.1524,-.0417,-.1*
20,1,.1524,-.0417,-.1,-.075,-.1583,0.0*
1,1,.1524,-.075,-.1583*
20,1,.1524,-.075,-.1583,-.125,-.2083,0.0*
1,1,.1524,-.125,-.2083*
20,1,.1524,-.125,-.2083,-.1833,-.2417,0.0*
1,1,.1524,-.1833,-.2417*
20,1,.1524,-.1833,-.2417,-.25,-.25,0.0*
1,1,.1524,-.25,-.25*
1,1,.1524,.0418,-.25*
20,1,.1524,.0418,-.25,.2501,.25,0.0*
1,1,.1524,.2501,.25*
20,1,.1524,.2501,.25,.4584,-.25,0.0*
1,1,.1524,.4584,-.25*
1,1,.1524,.3834,-.075*
20,1,.1524,.3834,-.075,.1168,-.075,0.0*
1,1,.1524,.1168,-.075*
%
%ADD13MACRO13*%
%ADD18C,.1*%
%ADD19C,.1524*%
G75*
%LPD*%
G75*
G54D10*
X330000Y950000D03*
X140000D03*
X200000Y2240000D03*
X350000D03*
X670000Y200000D03*
Y390000D03*
X666200Y1400000D03*
Y993800D03*
Y1810000D03*
X750000Y3720000D03*
X680000Y3650000D03*
X600000Y3570000D03*
X865000Y3585000D03*
X1110000Y580000D03*
X1300000D03*
X1130000Y1180000D03*
X1320000D03*
X1420000Y2430000D03*
Y2240000D03*
X1070000Y2380000D03*
X1420000Y2820000D03*
Y2630000D03*
X1360000Y3110000D03*
X1050000Y3090000D03*
X960000Y3000000D03*
Y3090000D03*
X1300000Y3670000D03*
Y3830000D03*
X1310000Y4180000D03*
X1097670Y6129410D03*
Y5629410D03*
X1500000Y580000D03*
X1690000D03*
X1920000D03*
X1520000Y1180000D03*
X1710000D03*
X1850000Y1910000D03*
X1680000Y3130000D03*
Y3440000D03*
X1780000Y3800000D03*
Y3690000D03*
X1510000Y3840000D03*
Y4180000D03*
X1710000D03*
X1470000Y4990000D03*
X1550000D03*
X1630000D03*
X1470000Y4910000D03*
X1550000D03*
X1630000D03*
X1710000D03*
Y4990000D03*
X1597670Y6129410D03*
Y5629410D03*
X2310000Y580000D03*
X2110000D03*
X2000000Y1080000D03*
Y1270000D03*
Y1470000D03*
Y1660000D03*
X2300000Y2060000D03*
Y2150000D03*
X1970000Y2940000D03*
X2210000D03*
X2400000Y2580000D03*
X1970000Y3130000D03*
Y3440000D03*
X2340000Y3000000D03*
X2425000D03*
X2460000Y3480000D03*
X2375000D03*
X1950000Y3800000D03*
X2300000Y3790000D03*
X1990000Y3585000D03*
X2425000Y4080000D03*
X2097670Y6129410D03*
Y5629410D03*
X2500000Y580000D03*
X2860000Y2130000D03*
Y2050000D03*
X2960000D03*
X2475000Y2655000D03*
X2950000Y3420000D03*
X2810000Y3495000D03*
X2720000Y4080000D03*
X2610000D03*
X2597670Y6129410D03*
Y5629410D03*
X3490000Y2300000D03*
X3300000D03*
X3490000Y2070000D03*
X3300000D03*
X3020000Y2290000D03*
X3300000Y2550000D03*
X3490000D03*
X3030000Y2630000D03*
X3880000Y2300000D03*
X3690000D03*
X3880000Y2070000D03*
X3690000D03*
Y2550000D03*
X3880000D03*
X3540000Y3530000D03*
Y3770000D03*
Y3640000D03*
X4024970Y5354200D03*
Y5854200D03*
Y6354200D03*
X4400000Y150000D03*
X4210000D03*
X4410000Y430000D03*
X4220000D03*
X4524970Y5354200D03*
Y5854200D03*
Y6354200D03*
X4790000Y150000D03*
X4600000D03*
X4800000Y430000D03*
X4610000D03*
X5050000Y2300000D03*
X5570000Y1260000D03*
X5200000Y2320000D03*
X5280000D03*
X5360000D03*
X5440000D03*
X5520000D03*
X5384370Y3769630D03*
Y4269630D03*
Y4769630D03*
X5600000Y6490000D03*
X5490000Y6487280D03*
X5380000Y6490000D03*
X5600000Y6580000D03*
X5490000Y6577280D03*
X5380000Y6580000D03*
X5150000D03*
X5260000Y6577280D03*
X5150000Y6490000D03*
X5260000Y6487280D03*
X5150000Y6400000D03*
X5260000Y6397280D03*
X5150000Y6310000D03*
X5260000Y6307280D03*
Y6217280D03*
X5150000Y6220000D03*
X5875000Y315000D03*
X6100000Y860000D03*
X5875000Y780000D03*
X6100000Y1240000D03*
X5900000D03*
X6100000Y1120000D03*
X5900000D03*
X6100000Y980000D03*
X5970000Y1940000D03*
X6080000Y1937280D03*
X5970000Y1850000D03*
X6080000Y1847280D03*
X5970000Y1740000D03*
X6080000Y1737280D03*
X5970000Y1650000D03*
X6080000Y1647280D03*
X5970000Y1550000D03*
X6080000Y1547280D03*
X5970000Y1460000D03*
X6080000Y1457280D03*
X5970000Y2030000D03*
X6080000Y2027280D03*
X5970000Y2120000D03*
X6080000Y2117280D03*
X5970000Y2210000D03*
X6080000Y2207280D03*
Y2317280D03*
X5970000Y2320000D03*
X6080000Y2407280D03*
X5970000Y2410000D03*
X5885030Y2800670D03*
X6080000Y2507280D03*
X5970000Y2510000D03*
X6080000Y2597280D03*
X5970000Y2600000D03*
X5885030Y3300670D03*
X5884370Y3769630D03*
Y4269630D03*
Y4769630D03*
X5710000Y5580000D03*
X5820000Y5577280D03*
X5710000Y5490000D03*
X5820000Y5487280D03*
X5930000Y5580000D03*
Y5490000D03*
X5884370Y5129630D03*
X5710000Y5680000D03*
X5820000Y5677280D03*
X5930000Y5680000D03*
X6450370Y184370D03*
X6460370Y594370D03*
X6480000Y860000D03*
X6290000D03*
Y1240000D03*
Y1120000D03*
X6480000D03*
Y1240000D03*
Y980000D03*
X6290000D03*
X6190000Y1940000D03*
Y1850000D03*
Y1740000D03*
Y1650000D03*
Y1550000D03*
Y1460000D03*
Y2030000D03*
Y2120000D03*
Y2210000D03*
Y2320000D03*
Y2410000D03*
X6385030Y2800670D03*
X6190000Y2510000D03*
Y2600000D03*
X6135030Y2800670D03*
X6385030Y3300670D03*
X6384370Y3769630D03*
Y4269630D03*
Y4769630D03*
Y5129630D03*
X6564370Y5809630D03*
X6950370Y184370D03*
X6960370Y594370D03*
X6860000Y1100000D03*
X6930000D03*
X7000000D03*
X6860000Y1030000D03*
X6930000D03*
X7000000D03*
X7180000Y2270000D03*
X7110000D03*
X6884370Y3769630D03*
Y4269630D03*
Y4769630D03*
X7064370Y5809630D03*
X6684370D03*
X6814370D03*
X6934370D03*
Y5689630D03*
X7064370D03*
X7074370Y6009630D03*
Y6349630D03*
Y6509630D03*
Y6869630D03*
Y6689630D03*
X7450370Y184370D03*
X7460370Y594370D03*
X7440000Y1220000D03*
Y1150000D03*
Y1080000D03*
Y1010000D03*
X7250000Y2270000D03*
X7320000D03*
X7390000D03*
X7460000D03*
Y2340000D03*
Y2410000D03*
X7384370Y3769630D03*
Y4269630D03*
Y4769630D03*
X7184370Y5809630D03*
X7314370D03*
X7434370D03*
X7574370Y6009630D03*
Y6349630D03*
Y6509630D03*
X7344370D03*
X7574370Y6869630D03*
Y6689630D03*
X7344370D03*
Y6869630D03*
X7919330Y185030D03*
X7929330Y595030D03*
X8210000Y820000D03*
X8160000Y6620000D03*
Y6530000D03*
Y6440000D03*
X7980000Y6620000D03*
Y6530000D03*
Y6440000D03*
X8070000D03*
Y6530000D03*
Y6620000D03*
X7890000D03*
Y6530000D03*
Y6440000D03*
X7800000D03*
Y6530000D03*
Y6620000D03*
X8070000Y6350000D03*
Y6260000D03*
X8160000D03*
Y6350000D03*
X7890000D03*
X7800000D03*
X7980000D03*
X8419330Y185030D03*
X8429330Y595030D03*
X8660000Y820000D03*
X8480000D03*
X8390000D03*
X8570000D03*
X8300000D03*
X8570000Y1090000D03*
Y1000000D03*
Y910000D03*
X8390000Y1090000D03*
Y1000000D03*
Y910000D03*
X8480000D03*
Y1000000D03*
Y1090000D03*
X8660000Y910000D03*
Y1000000D03*
X8480000Y1920000D03*
X8390000D03*
Y1830000D03*
X8480000D03*
X8570000Y1920000D03*
X8480000Y2010000D03*
X8390000D03*
Y2280000D03*
Y2190000D03*
Y2100000D03*
X8480000D03*
Y2190000D03*
Y2280000D03*
X8570000Y2190000D03*
Y2100000D03*
Y2010000D03*
X8660000D03*
Y2100000D03*
X8230000Y3410000D03*
Y3320000D03*
Y3230000D03*
X8320000D03*
Y3320000D03*
Y3410000D03*
X8500000D03*
Y3320000D03*
Y3230000D03*
X8410000D03*
Y3320000D03*
Y3410000D03*
X8590000Y3230000D03*
Y3320000D03*
Y3410000D03*
Y3140000D03*
Y3050000D03*
X8410000Y3140000D03*
Y3050000D03*
X8500000D03*
Y3140000D03*
X8250000Y6620000D03*
Y6530000D03*
Y6440000D03*
X8340000D03*
Y6530000D03*
Y6620000D03*
Y6350000D03*
Y6260000D03*
X8250000D03*
Y6350000D03*
X8790000Y1410000D03*
X9240000Y1350000D03*
X9150000D03*
X9240000Y1270000D03*
X9150000D03*
X9240000Y1190000D03*
X9150000D03*
X9240000Y1110000D03*
X9150000D03*
X9060000D03*
X8970000D03*
X8880000D03*
X8790000D03*
X9150000Y1430000D03*
X9240000D03*
X8790000Y1940000D03*
X9240000Y1890000D03*
X9150000D03*
X9240000Y1800000D03*
X9150000D03*
X9240000Y1710000D03*
X9150000D03*
X9240000Y1620000D03*
X9150000D03*
X9060000D03*
X8970000D03*
X8880000D03*
X8790000D03*
X9150000Y2460000D03*
X9240000D03*
X9150000Y2370000D03*
X9240000D03*
X9150000Y2280000D03*
X9240000D03*
X9150000Y2190000D03*
X9240000D03*
X8790000D03*
Y2460000D03*
X9060000D03*
X8870000Y1990000D03*
X8970000D03*
X9060000D03*
X9150000D03*
X9240000D03*
Y2970000D03*
X9150000D03*
X9240000Y2870000D03*
X9150000D03*
X9240000Y2770000D03*
X9150000D03*
X8790000Y2680000D03*
X9150000D03*
X8790000Y2970000D03*
X9060000D03*
X8790000Y2550000D03*
X8880000D03*
X9060000D03*
X9150000D03*
X9240000D03*
X8970000D03*
X8790000Y3060000D03*
X8880000D03*
X8970000D03*
X9240000D03*
X9150000D03*
X9060000D03*
X9705030Y820670D03*
Y1320670D03*
X9715030Y1860670D03*
Y2360670D03*
X9714370Y2829630D03*
Y3329630D03*
Y3829630D03*
X9715030Y4310670D03*
Y4810670D03*
X9714370Y5279630D03*
Y5779630D03*
Y6279630D03*
X12881730Y4842500D03*
G54D11*
X200000Y2509900D03*
Y2763900D03*
Y3017900D03*
Y3271900D03*
Y5320940D03*
Y5574940D03*
Y6082940D03*
Y5828940D03*
X3150000Y6570000D03*
X3400000D03*
X3650000D03*
X4600000Y647280D03*
Y901280D03*
Y1155280D03*
Y1409280D03*
Y1663280D03*
Y1917280D03*
Y2171280D03*
Y2425280D03*
Y2679280D03*
Y2933280D03*
Y3441280D03*
Y3187280D03*
Y4030000D03*
X4346000D03*
X4600000Y4500000D03*
X4346000D03*
X12881730Y2937500D03*
G54D12*
X895000Y110000D03*
X1645000D03*
X2025000D03*
X2775000D03*
X3155000D03*
X3905000D03*
X12881730Y3572500D03*
G54D13*
X3000000Y6240000D03*
X3800000D03*
X12881730Y1667500D03*
G54D14*
X7420000Y6200000D03*
X7920000D03*
X12881730Y4207500D03*
G54D15*
X8610000Y5690000D03*
X9210000D03*
X12881730Y397500D03*
G54D16*
X8890000Y6170000D03*
X12881730Y1032500D03*
G54D17*
X8950800Y1296000D03*
Y1804000D03*
Y2312000D03*
Y2820000D03*
Y4654000D03*
Y4146000D03*
X12881730Y2302500D03*
G54D18*
G01X290000Y0D02*
X9710000D01*
G03X10000000Y290000I0J290000D01*
G01Y6710000D01*
G03X9710000Y7000000I-290000J0D01*
G01X290000D01*
G03X0Y6710000I0J-290000D01*
G01Y290000D01*
G03X290000Y0I290000J0D01*
G01X450000Y290000D02*
G03I-160000J0D01*
G01Y6710000D02*
G03I-160000J0D01*
G01X490000Y4480000D02*
G03I-30000J0D01*
G01Y4080000D02*
G03I-30000J0D01*
G01X1205000Y140000D02*
G03I-50000J0D01*
G01X1435000D02*
G03I-50000J0D01*
G01X2335000D02*
G03I-50000J0D01*
G01X2565000D02*
G03I-50000J0D01*
G01X3465000D02*
G03I-50000J0D01*
G01X3695000D02*
G03I-50000J0D01*
G01X9870000Y290000D02*
G03I-160000J0D01*
G01Y6710000D02*
G03I-160000J0D01*
G54D19*
G01X-2199990Y3434750D02*
X-2195250Y3476020D01*
X-2188140Y3510950D01*
X-2178660Y3542700D01*
X-2166800Y3577620D01*
X-2147840Y3625250D01*
X-2242660D01*
G01X-2004750D02*
X-2023720Y3618900D01*
X-2037940Y3603020D01*
X-2047420Y3583980D01*
X-2054530Y3558570D01*
X-2056900Y3530000D01*
X-2054530Y3501420D01*
X-2047420Y3476020D01*
X-2037940Y3456970D01*
X-2023720Y3441100D01*
X-2004750Y3434750D01*
X-1985790Y3441100D01*
X-1971560Y3456970D01*
X-1962080Y3476020D01*
X-1954970Y3501420D01*
X-1952600Y3530000D01*
X-1954970Y3558570D01*
X-1962080Y3583980D01*
X-1971560Y3603020D01*
X-1985790Y3618900D01*
X-2004750Y3625250D01*
G01X-1770790Y3204120D02*
X-1754200Y3226350D01*
X-1739970Y3239050D01*
X-1721010Y3245400D01*
X-1704410Y3239050D01*
X-1692560Y3226350D01*
X-1683080Y3207300D01*
X-1680710Y3185070D01*
X-1683080Y3166020D01*
X-1692560Y3146970D01*
X-1706790Y3131100D01*
X-1723380Y3124750D01*
X-1742340Y3131100D01*
X-1758940Y3150140D01*
X-1768420Y3178730D01*
X-1770790Y3210470D01*
X-1766050Y3251750D01*
X-1758940Y3273980D01*
X-1747090Y3296200D01*
X-1730490Y3312080D01*
X-1713900Y3315250D01*
X-1697300Y3308900D01*
X-1685450Y3293020D01*
G01X-1539990Y3124750D02*
X-1535250Y3166020D01*
X-1528140Y3200950D01*
X-1518660Y3232700D01*
X-1506800Y3267620D01*
X-1487840Y3315250D01*
X-1582660D01*
G01X-1344750Y3118400D02*
X-1349490Y3121580D01*
Y3127920D01*
X-1344750Y3131100D01*
X-1340010Y3127920D01*
Y3121580D01*
X-1344750Y3118400D01*
G01X-1154250Y3124750D02*
Y3315250D01*
X-1182700Y3277150D01*
G01Y3124750D02*
X-1125810D01*
G01X-1345540Y1093500D02*
X-1331320Y1112550D01*
X-1314720Y1122080D01*
X-1295760Y1125250D01*
X-1272050Y1118900D01*
X-1255460Y1103020D01*
X-1250720Y1083980D01*
X-1253090Y1064920D01*
X-1262570Y1049050D01*
X-1309980Y1017300D01*
X-1331320Y995070D01*
X-1345540Y963320D01*
X-1350280Y934750D01*
X-1250720D01*
G01X-1110000Y928400D02*
X-1114740Y931580D01*
Y937920D01*
X-1110000Y941100D01*
X-1105260Y937920D01*
Y931580D01*
X-1110000Y928400D01*
G01X-959800Y956970D02*
X-943210Y941100D01*
X-924240Y934750D01*
X-905280Y941100D01*
X-888680Y960140D01*
X-876830Y988730D01*
X-872090Y1017300D01*
Y1052220D01*
X-876830Y1080800D01*
X-888680Y1106200D01*
X-902910Y1118900D01*
X-919500Y1125250D01*
X-938470Y1118900D01*
X-952690Y1106200D01*
X-962170Y1087150D01*
X-966910Y1061750D01*
X-962170Y1039530D01*
X-950320Y1017300D01*
X-936090Y1004600D01*
X-919500Y1001420D01*
X-900540Y1007770D01*
X-886310Y1023650D01*
X-872090Y1052220D01*
G01X954460Y-376500D02*
X968680Y-357450D01*
X985280Y-347920D01*
X1004240Y-344750D01*
X1027950Y-351100D01*
X1044540Y-366980D01*
X1049280Y-386020D01*
X1046910Y-405080D01*
X1037430Y-420950D01*
X990020Y-452700D01*
X968680Y-474930D01*
X954460Y-506680D01*
X949720Y-535250D01*
X1049280D01*
G01X1190000Y-541600D02*
X1185260Y-538420D01*
Y-532080D01*
X1190000Y-528900D01*
X1194740Y-532080D01*
Y-538420D01*
X1190000Y-541600D01*
G01X1340200Y-513030D02*
X1356790Y-528900D01*
X1375760Y-535250D01*
X1394720Y-528900D01*
X1411320Y-509860D01*
X1423170Y-481270D01*
X1427910Y-452700D01*
Y-417780D01*
X1423170Y-389200D01*
X1411320Y-363800D01*
X1397090Y-351100D01*
X1380500Y-344750D01*
X1361530Y-351100D01*
X1347310Y-363800D01*
X1337830Y-382850D01*
X1333090Y-408250D01*
X1337830Y-430470D01*
X1349680Y-452700D01*
X1363910Y-465400D01*
X1380500Y-468580D01*
X1399460Y-462230D01*
X1413690Y-446350D01*
X1427910Y-417780D01*
G01X4563950Y-913030D02*
X4580540Y-928900D01*
X4599510Y-935250D01*
X4618470Y-928900D01*
X4635070Y-909860D01*
X4646920Y-881270D01*
X4651660Y-852700D01*
Y-817780D01*
X4646920Y-789200D01*
X4635070Y-763800D01*
X4620840Y-751100D01*
X4604250Y-744750D01*
X4585280Y-751100D01*
X4571060Y-763800D01*
X4561580Y-782850D01*
X4556840Y-808250D01*
X4561580Y-830470D01*
X4573430Y-852700D01*
X4587660Y-865400D01*
X4604250Y-868580D01*
X4623210Y-862230D01*
X4637440Y-846350D01*
X4651660Y-817780D01*
G01X4790010Y-935250D02*
X4794750Y-893980D01*
X4801860Y-859050D01*
X4811340Y-827300D01*
X4823200Y-792380D01*
X4842160Y-744750D01*
X4747340D01*
G01X4985250Y-941600D02*
X4980510Y-938420D01*
Y-932080D01*
X4985250Y-928900D01*
X4989990Y-932080D01*
Y-938420D01*
X4985250Y-941600D01*
G01X5175750Y-935250D02*
Y-744750D01*
X5147300Y-782850D01*
G01Y-935250D02*
X5204190D01*
G01X4859500Y-1365250D02*
Y-1174750D01*
X4831050Y-1212850D01*
G01Y-1365250D02*
X4887940D01*
G01X5050000Y-1174750D02*
X5031030Y-1181100D01*
X5016810Y-1196980D01*
X5007330Y-1216020D01*
X5000220Y-1241430D01*
X4997850Y-1270000D01*
X5000220Y-1298580D01*
X5007330Y-1323980D01*
X5016810Y-1343030D01*
X5031030Y-1358900D01*
X5050000Y-1365250D01*
X5068960Y-1358900D01*
X5083190Y-1343030D01*
X5092670Y-1323980D01*
X5099780Y-1298580D01*
X5102150Y-1270000D01*
X5099780Y-1241430D01*
X5092670Y-1216020D01*
X5083190Y-1196980D01*
X5068960Y-1181100D01*
X5050000Y-1174750D01*
G01X5240500D02*
X5221530Y-1181100D01*
X5207310Y-1196980D01*
X5197830Y-1216020D01*
X5190720Y-1241430D01*
X5188350Y-1270000D01*
X5190720Y-1298580D01*
X5197830Y-1323980D01*
X5207310Y-1343030D01*
X5221530Y-1358900D01*
X5240500Y-1365250D01*
X5259460Y-1358900D01*
X5273690Y-1343030D01*
X5283170Y-1323980D01*
X5290280Y-1298580D01*
X5292650Y-1270000D01*
X5290280Y-1241430D01*
X5283170Y-1216020D01*
X5273690Y-1196980D01*
X5259460Y-1181100D01*
X5240500Y-1174750D01*
G01X10762920Y7192850D02*
X10777140Y7170620D01*
X10796100Y7157920D01*
X10817440Y7154750D01*
X10836410Y7157920D01*
X10855370Y7173800D01*
X10867220Y7192850D01*
X10869590Y7211900D01*
X10864850Y7234120D01*
X10848260Y7250000D01*
X10831660Y7256350D01*
X10810330D01*
G01X10831660D02*
X10845890Y7265870D01*
X10857740Y7281750D01*
X10862480Y7300800D01*
X10857740Y7319850D01*
X10845890Y7335720D01*
X10824550Y7345250D01*
X10803220Y7342080D01*
X10781880Y7329370D01*
G01X11005570Y7148400D02*
X11000830Y7151580D01*
Y7157920D01*
X11005570Y7161100D01*
X11010310Y7157920D01*
Y7151580D01*
X11005570Y7148400D01*
G01X11151030Y7313500D02*
X11165250Y7332550D01*
X11181850Y7342080D01*
X11200810Y7345250D01*
X11224520Y7338900D01*
X11241110Y7323020D01*
X11245850Y7303980D01*
X11243480Y7284920D01*
X11234000Y7269050D01*
X11186590Y7237300D01*
X11165250Y7215070D01*
X11151030Y7183320D01*
X11146290Y7154750D01*
X11245850D01*
G01X-250000Y0D02*
X-2350000D01*
G01X660000Y7000000D02*
X-2350000D01*
G01X-2100000Y3284260D02*
Y0D01*
G01X-2162500Y400000D02*
X-2100000Y0D01*
X-2037500Y400000D01*
X-2162500D01*
G01X-2100000Y3775740D02*
Y7000000D01*
G01X-2037500Y6600000D02*
X-2100000Y7000000D01*
X-2162500Y6600000D01*
X-2037500D01*
G01X40000Y290000D02*
X-1360000D01*
G01X-250000Y0D02*
X-1360000D01*
G01X-250000D02*
X-1690000D01*
G01X-1440000Y2974260D02*
Y0D01*
G01X-1502500Y400000D02*
X-1440000Y0D01*
X-1377500Y400000D01*
X-1502500D01*
G01X-1440000Y3465740D02*
Y6710000D01*
G01X-1377500Y6310000D02*
X-1440000Y6710000D01*
X-1502500Y6310000D01*
X-1377500D01*
G01X40000Y6710000D02*
X-1690000D01*
G01X-1110000Y-800000D02*
Y0D01*
G01X-1047500Y-400000D02*
X-1110000Y0D01*
X-1172500Y-400000D01*
X-1047500D01*
G01X-800000Y-440000D02*
X0D01*
G01X-1110000Y784260D02*
Y290000D01*
G01X-1172500Y690000D02*
X-1110000Y290000D01*
X-1047500Y690000D01*
X-1172500D01*
G01X-400000Y-502500D02*
X0Y-440000D01*
X-400000Y-377500D01*
Y-502500D01*
G01X0Y-250000D02*
Y-1520000D01*
G01X4637890Y-1270000D02*
X0D01*
G01X400000Y-1207500D02*
X0Y-1270000D01*
X400000Y-1332500D01*
Y-1207500D01*
G01X0Y-250000D02*
Y-1090000D01*
G01X4382640Y-840000D02*
X0D01*
G01X400000Y-777500D02*
X0Y-840000D01*
X400000Y-902500D01*
Y-777500D01*
G01X0Y-250000D02*
Y-690000D01*
G01X290000Y40000D02*
Y-690000D01*
G01X777890Y-440000D02*
X290000D01*
G01X690000Y-377500D02*
X290000Y-440000D01*
X690000Y-502500D01*
Y-377500D01*
G01X5462110Y-1270000D02*
X10000000D01*
G01X5397360Y-840000D02*
X9710000D01*
G01X9600000Y-1332500D02*
X10000000Y-1270000D01*
X9600000Y-1207500D01*
Y-1332500D01*
G01X9710000Y40000D02*
Y-1090000D01*
G01X9310000Y-902500D02*
X9710000Y-840000D01*
X9310000Y-777500D01*
Y-902500D01*
G01X10000000Y60000D02*
Y-1520000D01*
G01X10020490Y7180220D02*
X9812430Y6832920D01*
X10116520Y7100190D01*
X10020490Y7180220D01*
G01X9812430Y6832920D02*
X10160000Y7250000D01*
X10362320D01*
G01X10695690Y7392870D02*
X10505190Y7107130D01*
G01X10695690Y7250000D02*
G03I-95250J0D01*
G01X11740000Y80000D02*
Y7080000D01*
X27566740D01*
Y80000D01*
X11740000D01*
G01Y715000D02*
X27566740D01*
G01X11740000Y1350000D02*
X27566740D01*
G01X11740000Y1985000D02*
X27566740D01*
G01X11740000Y2620000D02*
X27566740D01*
G01X11740000Y3255000D02*
X27566740D01*
G01X11740000Y3890000D02*
X27566740D01*
G01X11740000Y4525000D02*
X27566740D01*
G01X11740000Y5160000D02*
X27566740D01*
G01X11740000Y5795000D02*
X27566740D01*
G01X11740000Y6430000D02*
X27566740D01*
G01X12019520Y5318750D02*
Y5636250D01*
X12169140D01*
G01X12114010Y5482800D02*
X12019520D01*
G01X12362050Y5636250D02*
X12456530D01*
G01X12409290D02*
Y5318750D01*
G01X12362050D02*
X12456530D01*
G01X12747870Y5477500D02*
X12826620D01*
Y5382250D01*
X12802990Y5350490D01*
X12775430Y5329330D01*
X12736060Y5318750D01*
X12696690Y5329330D01*
X12669130Y5350490D01*
X12645510Y5382250D01*
X12629760Y5419290D01*
X12621880Y5461620D01*
Y5498670D01*
X12629760Y5530410D01*
X12645510Y5567460D01*
X12669130Y5599210D01*
X12692750Y5620370D01*
X12724250Y5636250D01*
X12751810D01*
X12783300Y5625670D01*
X12806930Y5604500D01*
G01X12952600Y5636250D02*
Y5408710D01*
X12968340Y5361070D01*
X12999840Y5329330D01*
X13039210Y5318750D01*
X13078580Y5329330D01*
X13110080Y5361070D01*
X13125820Y5408710D01*
Y5636250D01*
G01X13275430Y5318750D02*
Y5636250D01*
X13373850D01*
X13405350Y5620370D01*
X13425040Y5599210D01*
X13432910Y5556870D01*
X13425040Y5514540D01*
X13401410Y5488090D01*
X13373850Y5472200D01*
X13275430D01*
G01X13373850D02*
X13432910Y5318750D01*
G01X13747870D02*
X13590390D01*
Y5636250D01*
X13747870D01*
G01X13684880Y5482800D02*
X13590390D01*
G01X14023460Y5795000D02*
Y80000D01*
G01X14617940Y5318750D02*
Y5636250D01*
X14767560D01*
G01X14712430Y5482800D02*
X14617940D01*
G01X14960470Y5636250D02*
X15054950D01*
G01X15007710D02*
Y5318750D01*
G01X14960470D02*
X15054950D01*
G01X15232120D02*
Y5636250D01*
X15413220Y5318750D01*
Y5636250D01*
G01X15590390D02*
X15684870D01*
G01X15637630D02*
Y5318750D01*
G01X15590390D02*
X15684870D01*
G01X15869910Y5361070D02*
X15901410Y5334620D01*
X15936840Y5318750D01*
X15968340D01*
X15999830Y5334620D01*
X16023460Y5361070D01*
X16035270Y5398130D01*
X16027400Y5435160D01*
X16007710Y5466910D01*
X15972270Y5488090D01*
X15925030Y5498670D01*
X15897470Y5519830D01*
X15885660Y5556870D01*
X15893540Y5593920D01*
X15913220Y5620370D01*
X15940780Y5636250D01*
X15968340D01*
X15995900Y5625670D01*
X16019520Y5599210D01*
G01X16184870Y5318750D02*
Y5636250D01*
G01X16350230D02*
Y5318750D01*
G01Y5477500D02*
X16184870D01*
G01X16661250Y5318750D02*
X16503770D01*
Y5636250D01*
X16661250D01*
G01X16598260Y5482800D02*
X16503770D01*
G01X16810860Y5318750D02*
Y5636250D01*
X16889590D01*
X16921090Y5620370D01*
X16944710Y5599210D01*
X16964400Y5567460D01*
X16980150Y5530410D01*
X16984080Y5477500D01*
X16980150Y5424580D01*
X16964400Y5387540D01*
X16944710Y5355780D01*
X16921090Y5334620D01*
X16889590Y5318750D01*
X16810860D01*
G01X17094320Y5212920D02*
X17330540D01*
G01X17444710Y5361070D02*
X17476210Y5334620D01*
X17511640Y5318750D01*
X17543140D01*
X17574630Y5334620D01*
X17598260Y5361070D01*
X17610070Y5398130D01*
X17602200Y5435160D01*
X17582510Y5466910D01*
X17547070Y5488090D01*
X17499830Y5498670D01*
X17472270Y5519830D01*
X17460460Y5556870D01*
X17468340Y5593920D01*
X17488020Y5620370D01*
X17515580Y5636250D01*
X17543140D01*
X17570700Y5625670D01*
X17594320Y5599210D01*
G01X17795110Y5636250D02*
X17889590D01*
G01X17842350D02*
Y5318750D01*
G01X17795110D02*
X17889590D01*
G01X18082500Y5636250D02*
X18232120D01*
X18082500Y5318750D01*
X18232120D01*
G01X18551010D02*
X18393530D01*
Y5636250D01*
X18551010D01*
G01X18488020Y5482800D02*
X18393530D01*
G01X15302980Y5953750D02*
X15401410Y6271250D01*
X15499840Y5953750D01*
G01X15464400Y6064870D02*
X15338410D01*
G01X15637630Y6271250D02*
Y5953750D01*
X15795110D01*
G01X15952590Y6271250D02*
Y5953750D01*
X16110070D01*
G01X16574640Y6271250D02*
Y6043710D01*
X16590380Y5996070D01*
X16621880Y5964330D01*
X16661250Y5953750D01*
X16700620Y5964330D01*
X16732120Y5996070D01*
X16747860Y6043710D01*
Y6271250D01*
G01X16885660Y5953750D02*
Y6271250D01*
X17066760Y5953750D01*
Y6271250D01*
G01X17243930D02*
X17338410D01*
G01X17291170D02*
Y5953750D01*
G01X17243930D02*
X17338410D01*
G01X17606130Y6271250D02*
Y5953750D01*
G01X17515580Y6271250D02*
X17696680D01*
G01X17838410Y5996070D02*
X17869910Y5969620D01*
X17905340Y5953750D01*
X17936840D01*
X17968330Y5969620D01*
X17991960Y5996070D01*
X18003770Y6033130D01*
X17995900Y6070160D01*
X17976210Y6101910D01*
X17940770Y6123090D01*
X17893530Y6133670D01*
X17865970Y6154830D01*
X17854160Y6191870D01*
X17862040Y6228920D01*
X17881720Y6255370D01*
X17909280Y6271250D01*
X17936840D01*
X17964400Y6260670D01*
X17988020Y6234210D01*
G01X18452580Y5953750D02*
X18551010Y6271250D01*
X18649440Y5953750D01*
G01X18614000Y6064870D02*
X18488010D01*
G01X18787230Y5953750D02*
Y6271250D01*
X18885650D01*
X18917150Y6255370D01*
X18936840Y6234210D01*
X18944710Y6191870D01*
X18936840Y6149540D01*
X18913210Y6123090D01*
X18885650Y6107200D01*
X18787230D01*
G01X18885650D02*
X18944710Y5953750D01*
G01X19259670D02*
X19102190D01*
Y6271250D01*
X19259670D01*
G01X19196680Y6117800D02*
X19102190D01*
G01X19763610Y6271250D02*
X19858090D01*
G01X19810850D02*
Y5953750D01*
G01X19763610D02*
X19858090D01*
G01X20035260D02*
Y6271250D01*
X20216360Y5953750D01*
Y6271250D01*
G01X20653360Y5953750D02*
Y6271250D01*
X20755730Y6006670D01*
X20858100Y6271250D01*
Y5953750D01*
G01X21023450Y6271250D02*
X21117930D01*
G01X21070690D02*
Y5953750D01*
G01X21023450D02*
X21117930D01*
G01X21306910Y6271250D02*
Y5953750D01*
X21464390D01*
G01X21621870Y6271250D02*
Y5953750D01*
X21779350D01*
G01X21968330Y6271250D02*
X22062810D01*
G01X22015570D02*
Y5953750D01*
G01X21968330D02*
X22062810D01*
G01X22228160D02*
Y6271250D01*
X22330530Y6006670D01*
X22432900Y6271250D01*
Y5953750D01*
G01X22724230D02*
X22566750D01*
Y6271250D01*
X22724230D01*
G01X22661240Y6117800D02*
X22566750D01*
G01X22960450Y6271250D02*
Y5953750D01*
G01X22869900Y6271250D02*
X23051000D01*
G01X23354150Y5953750D02*
X23196670D01*
Y6271250D01*
X23354150D01*
G01X23291160Y6117800D02*
X23196670D01*
G01X23511630Y5953750D02*
Y6271250D01*
X23610050D01*
X23641550Y6255370D01*
X23661240Y6234210D01*
X23669110Y6191870D01*
X23661240Y6149540D01*
X23637610Y6123090D01*
X23610050Y6107200D01*
X23511630D01*
G01X23610050D02*
X23669110Y5953750D01*
G01X23822650Y5996070D02*
X23854150Y5969620D01*
X23889580Y5953750D01*
X23921080D01*
X23952570Y5969620D01*
X23976200Y5996070D01*
X23988010Y6033130D01*
X23980140Y6070160D01*
X23960450Y6101910D01*
X23925010Y6123090D01*
X23877770Y6133670D01*
X23850210Y6154830D01*
X23838400Y6191870D01*
X23846280Y6228920D01*
X23865960Y6255370D01*
X23893520Y6271250D01*
X23921080D01*
X23948640Y6260670D01*
X23972260Y6234210D01*
G01X15551020Y302250D02*
X15574630Y265200D01*
X15606130Y244040D01*
X15641570Y238750D01*
X15673070Y244040D01*
X15704560Y270490D01*
X15724240Y302250D01*
X15728180Y334000D01*
X15720310Y371030D01*
X15692750Y397500D01*
X15665190Y408090D01*
X15629750D01*
G01X15665190D02*
X15688810Y423960D01*
X15708500Y450410D01*
X15716370Y482160D01*
X15708500Y513920D01*
X15688810Y540370D01*
X15653380Y556250D01*
X15617950Y550960D01*
X15582510Y529790D01*
G01X15952590Y228170D02*
X15944710Y233460D01*
Y244040D01*
X15952590Y249330D01*
X15960470Y244040D01*
Y233460D01*
X15952590Y228170D01*
G01X16267550Y556250D02*
X16236050Y545670D01*
X16212430Y519210D01*
X16196680Y487460D01*
X16184870Y445120D01*
X16180940Y397500D01*
X16184870Y349870D01*
X16196680Y307540D01*
X16212430Y275780D01*
X16236050Y249330D01*
X16267550Y238750D01*
X16299040Y249330D01*
X16322670Y275780D01*
X16338420Y307540D01*
X16350230Y349870D01*
X16354160Y397500D01*
X16350230Y445120D01*
X16338420Y487460D01*
X16322670Y519210D01*
X16299040Y545670D01*
X16267550Y556250D01*
G01X16523460Y450410D02*
X16641560Y238750D01*
G01Y450410D02*
X16523460Y238750D01*
G01X16897470D02*
Y556250D01*
X16850230Y492750D01*
G01Y238750D02*
X16944710D01*
G01X17212430Y228170D02*
X17204550Y233460D01*
Y244040D01*
X17212430Y249330D01*
X17220310Y244040D01*
Y233460D01*
X17212430Y228170D01*
G01X17527390Y556250D02*
X17495890Y545670D01*
X17472270Y519210D01*
X17456520Y487460D01*
X17444710Y445120D01*
X17440780Y397500D01*
X17444710Y349870D01*
X17456520Y307540D01*
X17472270Y275780D01*
X17495890Y249330D01*
X17527390Y238750D01*
X17558880Y249330D01*
X17582510Y275780D01*
X17598260Y307540D01*
X17610070Y349870D01*
X17614000Y397500D01*
X17610070Y445120D01*
X17598260Y487460D01*
X17582510Y519210D01*
X17558880Y545670D01*
X17527390Y556250D01*
G01X15551020Y937250D02*
X15574630Y900200D01*
X15606130Y879040D01*
X15641570Y873750D01*
X15673070Y879040D01*
X15704560Y905490D01*
X15724240Y937250D01*
X15728180Y969000D01*
X15720310Y1006030D01*
X15692750Y1032500D01*
X15665190Y1043090D01*
X15629750D01*
G01X15665190D02*
X15688810Y1058960D01*
X15708500Y1085410D01*
X15716370Y1117160D01*
X15708500Y1148920D01*
X15688810Y1175370D01*
X15653380Y1191250D01*
X15617950Y1185960D01*
X15582510Y1164790D01*
G01X15952590Y863170D02*
X15944710Y868460D01*
Y879040D01*
X15952590Y884330D01*
X15960470Y879040D01*
Y868460D01*
X15952590Y863170D01*
G01X16267550Y1191250D02*
X16236050Y1180670D01*
X16212430Y1154210D01*
X16196680Y1122460D01*
X16184870Y1080120D01*
X16180940Y1032500D01*
X16184870Y984870D01*
X16196680Y942540D01*
X16212430Y910780D01*
X16236050Y884330D01*
X16267550Y873750D01*
X16299040Y884330D01*
X16322670Y910780D01*
X16338420Y942540D01*
X16350230Y984870D01*
X16354160Y1032500D01*
X16350230Y1080120D01*
X16338420Y1122460D01*
X16322670Y1154210D01*
X16299040Y1180670D01*
X16267550Y1191250D01*
G01X16523460Y1085410D02*
X16641560Y873750D01*
G01Y1085410D02*
X16523460Y873750D01*
G01X16897470D02*
Y1191250D01*
X16850230Y1127750D01*
G01Y873750D02*
X16944710D01*
G01X17212430Y863170D02*
X17204550Y868460D01*
Y879040D01*
X17212430Y884330D01*
X17220310Y879040D01*
Y868460D01*
X17212430Y863170D01*
G01X17527390Y1191250D02*
X17495890Y1180670D01*
X17472270Y1154210D01*
X17456520Y1122460D01*
X17444710Y1080120D01*
X17440780Y1032500D01*
X17444710Y984870D01*
X17456520Y942540D01*
X17472270Y910780D01*
X17495890Y884330D01*
X17527390Y873750D01*
X17558880Y884330D01*
X17582510Y910780D01*
X17598260Y942540D01*
X17610070Y984870D01*
X17614000Y1032500D01*
X17610070Y1080120D01*
X17598260Y1122460D01*
X17582510Y1154210D01*
X17558880Y1180670D01*
X17527390Y1191250D01*
G01X15562820Y1773330D02*
X15586450Y1805080D01*
X15614010Y1820960D01*
X15645510Y1826250D01*
X15684870Y1815670D01*
X15712440Y1789210D01*
X15720310Y1757460D01*
X15716370Y1725700D01*
X15700620Y1699250D01*
X15621880Y1646330D01*
X15586450Y1609290D01*
X15562820Y1556360D01*
X15554950Y1508750D01*
X15720310D01*
G01X15952590Y1498170D02*
X15944710Y1503460D01*
Y1514040D01*
X15952590Y1519330D01*
X15960470Y1514040D01*
Y1503460D01*
X15952590Y1498170D01*
G01X16180940Y1556360D02*
X16204550Y1529910D01*
X16232110Y1514040D01*
X16267550Y1508750D01*
X16302990Y1519330D01*
X16330540Y1540490D01*
X16350230Y1577540D01*
X16354160Y1619870D01*
X16346290Y1662200D01*
X16326600Y1688670D01*
X16299040Y1709830D01*
X16271490Y1715120D01*
X16243930Y1709830D01*
X16208500Y1688670D01*
X16220310Y1826250D01*
X16326600D01*
G01X16523460Y1720410D02*
X16641560Y1508750D01*
G01Y1720410D02*
X16523460Y1508750D01*
G01X16897470D02*
Y1826250D01*
X16850230Y1762750D01*
G01Y1508750D02*
X16944710D01*
G01X17212430Y1498170D02*
X17204550Y1503460D01*
Y1514040D01*
X17212430Y1519330D01*
X17220310Y1514040D01*
Y1503460D01*
X17212430Y1498170D01*
G01X17527390Y1826250D02*
X17495890Y1815670D01*
X17472270Y1789210D01*
X17456520Y1757460D01*
X17444710Y1715120D01*
X17440780Y1667500D01*
X17444710Y1619870D01*
X17456520Y1577540D01*
X17472270Y1545780D01*
X17495890Y1519330D01*
X17527390Y1508750D01*
X17558880Y1519330D01*
X17582510Y1545780D01*
X17598260Y1577540D01*
X17610070Y1619870D01*
X17614000Y1667500D01*
X17610070Y1715120D01*
X17598260Y1757460D01*
X17582510Y1789210D01*
X17558880Y1815670D01*
X17527390Y1826250D01*
G01X15795110Y5001250D02*
X15763610Y4990670D01*
X15739990Y4964210D01*
X15724240Y4932460D01*
X15712430Y4890120D01*
X15708500Y4842500D01*
X15712430Y4794870D01*
X15724240Y4752540D01*
X15739990Y4720780D01*
X15763610Y4694330D01*
X15795110Y4683750D01*
X15826600Y4694330D01*
X15850230Y4720780D01*
X15865980Y4752540D01*
X15877790Y4794870D01*
X15881720Y4842500D01*
X15877790Y4890120D01*
X15865980Y4932460D01*
X15850230Y4964210D01*
X15826600Y4990670D01*
X15795110Y5001250D01*
G01X16110070Y4673170D02*
X16102190Y4678460D01*
Y4689040D01*
X16110070Y4694330D01*
X16117950Y4689040D01*
Y4678460D01*
X16110070Y4673170D01*
G01X16338420Y4747250D02*
X16362030Y4710200D01*
X16393530Y4689040D01*
X16428970Y4683750D01*
X16460470Y4689040D01*
X16491960Y4715490D01*
X16511640Y4747250D01*
X16515580Y4779000D01*
X16507710Y4816030D01*
X16480150Y4842500D01*
X16452590Y4853090D01*
X16417150D01*
G01X16452590D02*
X16476210Y4868960D01*
X16495900Y4895410D01*
X16503770Y4927160D01*
X16495900Y4958920D01*
X16476210Y4985370D01*
X16440780Y5001250D01*
X16405350Y4995960D01*
X16369910Y4974790D01*
G01X16739990Y5001250D02*
X16708490Y4990670D01*
X16684870Y4964210D01*
X16669120Y4932460D01*
X16657310Y4890120D01*
X16653380Y4842500D01*
X16657310Y4794870D01*
X16669120Y4752540D01*
X16684870Y4720780D01*
X16708490Y4694330D01*
X16739990Y4683750D01*
X16771480Y4694330D01*
X16795110Y4720780D01*
X16810860Y4752540D01*
X16822670Y4794870D01*
X16826600Y4842500D01*
X16822670Y4890120D01*
X16810860Y4932460D01*
X16795110Y4964210D01*
X16771480Y4990670D01*
X16739990Y5001250D01*
G01X17102190Y4683750D02*
Y5001250D01*
X16956520Y4773710D01*
X17153380D01*
G01X17369910Y4683750D02*
X17397470Y4689040D01*
X17428960Y4704910D01*
X17448650Y4731360D01*
X17456520Y4768420D01*
X17448650Y4805450D01*
X17425030Y4837200D01*
X17389590Y4853090D01*
X17350230D01*
X17326600Y4863670D01*
X17306910Y4890120D01*
X17299040Y4927160D01*
X17310860Y4964210D01*
X17338410Y4990670D01*
X17369910Y5001250D01*
X17401400Y4990670D01*
X17428960Y4964210D01*
X17440780Y4927160D01*
X17432900Y4890120D01*
X17413220Y4863670D01*
X17389590Y4853090D01*
X17350230D01*
X17314790Y4837200D01*
X17291170Y4805450D01*
X17283300Y4768420D01*
X17291170Y4731360D01*
X17310860Y4704910D01*
X17342350Y4689040D01*
X17369910Y4683750D01*
G01X15629760Y6603750D02*
Y6921250D01*
X15708490D01*
X15739990Y6905370D01*
X15763610Y6884210D01*
X15783300Y6852460D01*
X15799050Y6815410D01*
X15802980Y6762500D01*
X15799050Y6709580D01*
X15783300Y6672540D01*
X15763610Y6640780D01*
X15739990Y6619620D01*
X15708490Y6603750D01*
X15629760D01*
G01X15952590D02*
Y6921250D01*
X16051010D01*
X16082510Y6905370D01*
X16102200Y6884210D01*
X16110070Y6841870D01*
X16102200Y6799540D01*
X16078570Y6773090D01*
X16051010Y6757200D01*
X15952590D01*
G01X16051010D02*
X16110070Y6603750D01*
G01X16299050Y6921250D02*
X16393530D01*
G01X16346290D02*
Y6603750D01*
G01X16299050D02*
X16393530D01*
G01X16582510Y6921250D02*
Y6603750D01*
X16739990D01*
G01X16897470Y6921250D02*
Y6603750D01*
X17054950D01*
G01X17692740Y6894790D02*
X17669120Y6910670D01*
X17641570Y6921250D01*
X17610070D01*
X17574630Y6905370D01*
X17547080Y6878920D01*
X17527390Y6847160D01*
X17511640Y6794250D01*
X17507700Y6746620D01*
X17515580Y6699000D01*
X17527390Y6667250D01*
X17551010Y6635490D01*
X17578570Y6614330D01*
X17606130Y6603750D01*
X17633690D01*
X17661250Y6614330D01*
X17684870Y6630200D01*
X17704560Y6651360D01*
G01X17838410Y6603750D02*
Y6921250D01*
G01X18003770D02*
Y6603750D01*
G01Y6762500D02*
X17838410D01*
G01X18137620Y6603750D02*
X18236050Y6921250D01*
X18334480Y6603750D01*
G01X18299040Y6714870D02*
X18173050D01*
G01X18472270Y6603750D02*
Y6921250D01*
X18570690D01*
X18602190Y6905370D01*
X18621880Y6884210D01*
X18629750Y6841870D01*
X18621880Y6799540D01*
X18598250Y6773090D01*
X18570690Y6757200D01*
X18472270D01*
G01X18570690D02*
X18629750Y6603750D01*
G01X18865970Y6921250D02*
Y6603750D01*
G01X18775420Y6921250D02*
X18956520D01*
G01X19180930Y6593170D02*
X19173050Y6598460D01*
Y6609040D01*
X19180930Y6614330D01*
X19188810Y6609040D01*
Y6598460D01*
X19180930Y6593170D01*
G01Y6736030D02*
X19173050Y6741330D01*
Y6751910D01*
X19180930Y6757200D01*
X19188810Y6751910D01*
Y6741330D01*
X19180930Y6736030D01*
G01X19810850Y6921250D02*
Y6603750D01*
G01X19720300Y6921250D02*
X19901400D01*
G01X20125810Y6603750D02*
X20094310Y6609040D01*
X20066760Y6630200D01*
X20043130Y6661960D01*
X20027380Y6699000D01*
X20019510Y6741330D01*
Y6783670D01*
X20027380Y6826000D01*
X20043130Y6863040D01*
X20066760Y6894790D01*
X20094310Y6915960D01*
X20125810Y6921250D01*
X20157300Y6915960D01*
X20184860Y6894790D01*
X20208490Y6863040D01*
X20224240Y6826000D01*
X20232110Y6783670D01*
Y6741330D01*
X20224240Y6699000D01*
X20208490Y6661960D01*
X20184860Y6630200D01*
X20157300Y6609040D01*
X20125810Y6603750D01*
G01X20362030D02*
Y6921250D01*
X20456520D01*
X20488010Y6905370D01*
X20511640Y6868330D01*
X20519510Y6826000D01*
X20511640Y6783670D01*
X20491950Y6751910D01*
X20456520Y6736030D01*
X20362030D01*
G01X21070690Y6921250D02*
Y6603750D01*
G01X21015570Y6815410D02*
X21125810D01*
G01X21385650Y6603750D02*
X21362030Y6609040D01*
X21338410Y6630200D01*
X21322650Y6667250D01*
X21314780Y6709580D01*
X21322650Y6751910D01*
X21338410Y6788960D01*
X21362030Y6810120D01*
X21385650Y6815410D01*
X21409270Y6810120D01*
X21432890Y6788960D01*
X21448640Y6751910D01*
X21452580Y6709580D01*
X21448640Y6667250D01*
X21432890Y6630200D01*
X21409270Y6609040D01*
X21385650Y6603750D01*
G01X22047060Y6773090D02*
X22062810Y6788960D01*
X22074620Y6815410D01*
X22082500Y6852460D01*
X22074620Y6884210D01*
X22058880Y6905370D01*
X22031320Y6921250D01*
X21925020D01*
Y6603750D01*
X22054940D01*
X22082500Y6624910D01*
X22098250Y6656670D01*
X22106120Y6693710D01*
X22098250Y6730740D01*
X22074620Y6762500D01*
X22047060Y6773090D01*
X21925020D01*
G01X22330530Y6603750D02*
X22299030Y6609040D01*
X22271480Y6630200D01*
X22247850Y6661960D01*
X22232100Y6699000D01*
X22224230Y6741330D01*
Y6783670D01*
X22232100Y6826000D01*
X22247850Y6863040D01*
X22271480Y6894790D01*
X22299030Y6915960D01*
X22330530Y6921250D01*
X22362020Y6915960D01*
X22389580Y6894790D01*
X22413210Y6863040D01*
X22428960Y6826000D01*
X22436830Y6783670D01*
Y6741330D01*
X22428960Y6699000D01*
X22413210Y6661960D01*
X22389580Y6630200D01*
X22362020Y6609040D01*
X22330530Y6603750D01*
G01X22645490Y6921250D02*
Y6603750D01*
G01X22554940Y6921250D02*
X22736040D01*
G01X22960450D02*
Y6603750D01*
G01X22869900Y6921250D02*
X23051000D01*
G01X23275410Y6603750D02*
X23243910Y6609040D01*
X23216360Y6630200D01*
X23192730Y6661960D01*
X23176980Y6699000D01*
X23169110Y6741330D01*
Y6783670D01*
X23176980Y6826000D01*
X23192730Y6863040D01*
X23216360Y6894790D01*
X23243910Y6915960D01*
X23275410Y6921250D01*
X23306900Y6915960D01*
X23334460Y6894790D01*
X23358090Y6863040D01*
X23373840Y6826000D01*
X23381710Y6783670D01*
Y6741330D01*
X23373840Y6699000D01*
X23358090Y6661960D01*
X23334460Y6630200D01*
X23306900Y6609040D01*
X23275410Y6603750D01*
G01X23488000D02*
Y6921250D01*
X23590370Y6656670D01*
X23692740Y6921250D01*
Y6603750D01*
G01X16267550Y2143750D02*
Y2461250D01*
X16220310Y2397750D01*
G01Y2143750D02*
X16314790D01*
G01X16582510Y2133170D02*
X16574630Y2138460D01*
Y2149040D01*
X16582510Y2154330D01*
X16590390Y2149040D01*
Y2138460D01*
X16582510Y2133170D01*
G01X16897470Y2143750D02*
X16925030Y2149040D01*
X16956520Y2164910D01*
X16976210Y2191360D01*
X16984080Y2228420D01*
X16976210Y2265450D01*
X16952590Y2297200D01*
X16917150Y2313090D01*
X16877790D01*
X16854160Y2323670D01*
X16834470Y2350120D01*
X16826600Y2387160D01*
X16838420Y2424210D01*
X16865970Y2450670D01*
X16897470Y2461250D01*
X16928960Y2450670D01*
X16956520Y2424210D01*
X16968340Y2387160D01*
X16960460Y2350120D01*
X16940780Y2323670D01*
X16917150Y2313090D01*
X16877790D01*
X16842350Y2297200D01*
X16818730Y2265450D01*
X16810860Y2228420D01*
X16818730Y2191360D01*
X16838420Y2164910D01*
X16869910Y2149040D01*
X16897470Y2143750D01*
G01X16267550Y2778750D02*
Y3096250D01*
X16220310Y3032750D01*
G01Y2778750D02*
X16314790D01*
G01X16582510Y2768170D02*
X16574630Y2773460D01*
Y2784040D01*
X16582510Y2789330D01*
X16590390Y2784040D01*
Y2773460D01*
X16582510Y2768170D01*
G01X16897470Y2778750D02*
Y3096250D01*
X16850230Y3032750D01*
G01Y2778750D02*
X16944710D01*
G01X16267550Y3413750D02*
Y3731250D01*
X16220310Y3667750D01*
G01Y3413750D02*
X16314790D01*
G01X16582510Y3403170D02*
X16574630Y3408460D01*
Y3419040D01*
X16582510Y3424330D01*
X16590390Y3419040D01*
Y3408460D01*
X16582510Y3403170D01*
G01X16897470Y3731250D02*
X16865970Y3720670D01*
X16842350Y3694210D01*
X16826600Y3662460D01*
X16814790Y3620120D01*
X16810860Y3572500D01*
X16814790Y3524870D01*
X16826600Y3482540D01*
X16842350Y3450780D01*
X16865970Y3424330D01*
X16897470Y3413750D01*
X16928960Y3424330D01*
X16952590Y3450780D01*
X16968340Y3482540D01*
X16980150Y3524870D01*
X16984080Y3572500D01*
X16980150Y3620120D01*
X16968340Y3662460D01*
X16952590Y3694210D01*
X16928960Y3720670D01*
X16897470Y3731250D01*
G01X16267550Y4366250D02*
X16236050Y4355670D01*
X16212430Y4329210D01*
X16196680Y4297460D01*
X16184870Y4255120D01*
X16180940Y4207500D01*
X16184870Y4159870D01*
X16196680Y4117540D01*
X16212430Y4085780D01*
X16236050Y4059330D01*
X16267550Y4048750D01*
X16299040Y4059330D01*
X16322670Y4085780D01*
X16338420Y4117540D01*
X16350230Y4159870D01*
X16354160Y4207500D01*
X16350230Y4255120D01*
X16338420Y4297460D01*
X16322670Y4329210D01*
X16299040Y4355670D01*
X16267550Y4366250D01*
G01X16582510Y4038170D02*
X16574630Y4043460D01*
Y4054040D01*
X16582510Y4059330D01*
X16590390Y4054040D01*
Y4043460D01*
X16582510Y4038170D01*
G01X16830540Y4085780D02*
X16858100Y4059330D01*
X16889590Y4048750D01*
X16921090Y4059330D01*
X16948650Y4091070D01*
X16968340Y4138710D01*
X16976210Y4186330D01*
Y4244540D01*
X16968340Y4292160D01*
X16948650Y4334500D01*
X16925030Y4355670D01*
X16897470Y4366250D01*
X16865970Y4355670D01*
X16842350Y4334500D01*
X16826600Y4302750D01*
X16818730Y4260410D01*
X16826600Y4223380D01*
X16846290Y4186330D01*
X16869910Y4165160D01*
X16897470Y4159870D01*
X16928960Y4170450D01*
X16952590Y4196910D01*
X16976210Y4244540D01*
G01X19141560Y5795000D02*
Y80000D01*
G01X19574630Y5318750D02*
Y5636250D01*
X19673050D01*
X19704550Y5620370D01*
X19724240Y5599210D01*
X19732110Y5556870D01*
X19724240Y5514540D01*
X19700610Y5488090D01*
X19673050Y5472200D01*
X19574630D01*
G01X19673050D02*
X19732110Y5318750D01*
G01X19968330D02*
X19936830Y5324040D01*
X19909280Y5345200D01*
X19885650Y5376960D01*
X19869900Y5414000D01*
X19862030Y5456330D01*
Y5498670D01*
X19869900Y5541000D01*
X19885650Y5578040D01*
X19909280Y5609790D01*
X19936830Y5630960D01*
X19968330Y5636250D01*
X19999820Y5630960D01*
X20027380Y5609790D01*
X20051010Y5578040D01*
X20066760Y5541000D01*
X20074630Y5498670D01*
Y5456330D01*
X20066760Y5414000D01*
X20051010Y5376960D01*
X20027380Y5345200D01*
X19999820Y5324040D01*
X19968330Y5318750D01*
G01X20283290Y5636250D02*
Y5318750D01*
G01X20192740Y5636250D02*
X20373840D01*
G01X20499820Y5318750D02*
X20598250Y5636250D01*
X20696680Y5318750D01*
G01X20661240Y5429870D02*
X20535250D01*
G01X20913210Y5636250D02*
Y5318750D01*
G01X20822660Y5636250D02*
X21003760D01*
G01X21180930D02*
X21275410D01*
G01X21228170D02*
Y5318750D01*
G01X21180930D02*
X21275410D01*
G01X21543130D02*
X21511630Y5324040D01*
X21484080Y5345200D01*
X21460450Y5376960D01*
X21444700Y5414000D01*
X21436830Y5456330D01*
Y5498670D01*
X21444700Y5541000D01*
X21460450Y5578040D01*
X21484080Y5609790D01*
X21511630Y5630960D01*
X21543130Y5636250D01*
X21574620Y5630960D01*
X21602180Y5609790D01*
X21625810Y5578040D01*
X21641560Y5541000D01*
X21649430Y5498670D01*
Y5456330D01*
X21641560Y5414000D01*
X21625810Y5376960D01*
X21602180Y5345200D01*
X21574620Y5324040D01*
X21543130Y5318750D01*
G01X21767540D02*
Y5636250D01*
X21948640Y5318750D01*
Y5636250D01*
G01X19901400Y275780D02*
X19928960Y249330D01*
X19960450Y238750D01*
X19991950Y249330D01*
X20019510Y281070D01*
X20039200Y328710D01*
X20047070Y376330D01*
Y434540D01*
X20039200Y482160D01*
X20019510Y524500D01*
X19995890Y545670D01*
X19968330Y556250D01*
X19936830Y545670D01*
X19913210Y524500D01*
X19897460Y492750D01*
X19889590Y450410D01*
X19897460Y413380D01*
X19917150Y376330D01*
X19940770Y355160D01*
X19968330Y349870D01*
X19999820Y360450D01*
X20023450Y386910D01*
X20047070Y434540D01*
G01X20283290Y556250D02*
X20251790Y545670D01*
X20228170Y519210D01*
X20212420Y487460D01*
X20200610Y445120D01*
X20196680Y397500D01*
X20200610Y349870D01*
X20212420Y307540D01*
X20228170Y275780D01*
X20251790Y249330D01*
X20283290Y238750D01*
X20314780Y249330D01*
X20338410Y275780D01*
X20354160Y307540D01*
X20365970Y349870D01*
X20369900Y397500D01*
X20365970Y445120D01*
X20354160Y487460D01*
X20338410Y519210D01*
X20314780Y545670D01*
X20283290Y556250D01*
G01X20598250Y228170D02*
X20590370Y233460D01*
Y244040D01*
X20598250Y249330D01*
X20606130Y244040D01*
Y233460D01*
X20598250Y228170D01*
G01X20913210Y556250D02*
X20881710Y545670D01*
X20858090Y519210D01*
X20842340Y487460D01*
X20830530Y445120D01*
X20826600Y397500D01*
X20830530Y349870D01*
X20842340Y307540D01*
X20858090Y275780D01*
X20881710Y249330D01*
X20913210Y238750D01*
X20944700Y249330D01*
X20968330Y275780D01*
X20984080Y307540D01*
X20995890Y349870D01*
X20999820Y397500D01*
X20995890Y445120D01*
X20984080Y487460D01*
X20968330Y519210D01*
X20944700Y545670D01*
X20913210Y556250D01*
G01X21228170D02*
X21196670Y545670D01*
X21173050Y519210D01*
X21157300Y487460D01*
X21145490Y445120D01*
X21141560Y397500D01*
X21145490Y349870D01*
X21157300Y307540D01*
X21173050Y275780D01*
X21196670Y249330D01*
X21228170Y238750D01*
X21259660Y249330D01*
X21283290Y275780D01*
X21299040Y307540D01*
X21310850Y349870D01*
X21314780Y397500D01*
X21310850Y445120D01*
X21299040Y487460D01*
X21283290Y519210D01*
X21259660Y545670D01*
X21228170Y556250D01*
G01X21543130D02*
X21511630Y545670D01*
X21488010Y519210D01*
X21472260Y487460D01*
X21460450Y445120D01*
X21456520Y397500D01*
X21460450Y349870D01*
X21472260Y307540D01*
X21488010Y275780D01*
X21511630Y249330D01*
X21543130Y238750D01*
X21574620Y249330D01*
X21598250Y275780D01*
X21614000Y307540D01*
X21625810Y349870D01*
X21629740Y397500D01*
X21625810Y445120D01*
X21614000Y487460D01*
X21598250Y519210D01*
X21574620Y545670D01*
X21543130Y556250D01*
G01X20125810Y1191250D02*
X20094310Y1180670D01*
X20070690Y1154210D01*
X20054940Y1122460D01*
X20043130Y1080120D01*
X20039200Y1032500D01*
X20043130Y984870D01*
X20054940Y942540D01*
X20070690Y910780D01*
X20094310Y884330D01*
X20125810Y873750D01*
X20157300Y884330D01*
X20180930Y910780D01*
X20196680Y942540D01*
X20208490Y984870D01*
X20212420Y1032500D01*
X20208490Y1080120D01*
X20196680Y1122460D01*
X20180930Y1154210D01*
X20157300Y1180670D01*
X20125810Y1191250D01*
G01X20440770Y863170D02*
X20432890Y868460D01*
Y879040D01*
X20440770Y884330D01*
X20448650Y879040D01*
Y868460D01*
X20440770Y863170D01*
G01X20755730Y1191250D02*
X20724230Y1180670D01*
X20700610Y1154210D01*
X20684860Y1122460D01*
X20673050Y1080120D01*
X20669120Y1032500D01*
X20673050Y984870D01*
X20684860Y942540D01*
X20700610Y910780D01*
X20724230Y884330D01*
X20755730Y873750D01*
X20787220Y884330D01*
X20810850Y910780D01*
X20826600Y942540D01*
X20838410Y984870D01*
X20842340Y1032500D01*
X20838410Y1080120D01*
X20826600Y1122460D01*
X20810850Y1154210D01*
X20787220Y1180670D01*
X20755730Y1191250D01*
G01X21070690D02*
X21039190Y1180670D01*
X21015570Y1154210D01*
X20999820Y1122460D01*
X20988010Y1080120D01*
X20984080Y1032500D01*
X20988010Y984870D01*
X20999820Y942540D01*
X21015570Y910780D01*
X21039190Y884330D01*
X21070690Y873750D01*
X21102180Y884330D01*
X21125810Y910780D01*
X21141560Y942540D01*
X21153370Y984870D01*
X21157300Y1032500D01*
X21153370Y1080120D01*
X21141560Y1122460D01*
X21125810Y1154210D01*
X21102180Y1180670D01*
X21070690Y1191250D01*
G01X21385650D02*
X21354150Y1180670D01*
X21330530Y1154210D01*
X21314780Y1122460D01*
X21302970Y1080120D01*
X21299040Y1032500D01*
X21302970Y984870D01*
X21314780Y942540D01*
X21330530Y910780D01*
X21354150Y884330D01*
X21385650Y873750D01*
X21417140Y884330D01*
X21440770Y910780D01*
X21456520Y942540D01*
X21468330Y984870D01*
X21472260Y1032500D01*
X21468330Y1080120D01*
X21456520Y1122460D01*
X21440770Y1154210D01*
X21417140Y1180670D01*
X21385650Y1191250D01*
G01X19901400Y1545780D02*
X19928960Y1519330D01*
X19960450Y1508750D01*
X19991950Y1519330D01*
X20019510Y1551070D01*
X20039200Y1598710D01*
X20047070Y1646330D01*
Y1704540D01*
X20039200Y1752160D01*
X20019510Y1794500D01*
X19995890Y1815670D01*
X19968330Y1826250D01*
X19936830Y1815670D01*
X19913210Y1794500D01*
X19897460Y1762750D01*
X19889590Y1720410D01*
X19897460Y1683380D01*
X19917150Y1646330D01*
X19940770Y1625160D01*
X19968330Y1619870D01*
X19999820Y1630450D01*
X20023450Y1656910D01*
X20047070Y1704540D01*
G01X20283290Y1826250D02*
X20251790Y1815670D01*
X20228170Y1789210D01*
X20212420Y1757460D01*
X20200610Y1715120D01*
X20196680Y1667500D01*
X20200610Y1619870D01*
X20212420Y1577540D01*
X20228170Y1545780D01*
X20251790Y1519330D01*
X20283290Y1508750D01*
X20314780Y1519330D01*
X20338410Y1545780D01*
X20354160Y1577540D01*
X20365970Y1619870D01*
X20369900Y1667500D01*
X20365970Y1715120D01*
X20354160Y1757460D01*
X20338410Y1789210D01*
X20314780Y1815670D01*
X20283290Y1826250D01*
G01X20598250Y1498170D02*
X20590370Y1503460D01*
Y1514040D01*
X20598250Y1519330D01*
X20606130Y1514040D01*
Y1503460D01*
X20598250Y1498170D01*
G01X20913210Y1826250D02*
X20881710Y1815670D01*
X20858090Y1789210D01*
X20842340Y1757460D01*
X20830530Y1715120D01*
X20826600Y1667500D01*
X20830530Y1619870D01*
X20842340Y1577540D01*
X20858090Y1545780D01*
X20881710Y1519330D01*
X20913210Y1508750D01*
X20944700Y1519330D01*
X20968330Y1545780D01*
X20984080Y1577540D01*
X20995890Y1619870D01*
X20999820Y1667500D01*
X20995890Y1715120D01*
X20984080Y1757460D01*
X20968330Y1789210D01*
X20944700Y1815670D01*
X20913210Y1826250D01*
G01X21228170D02*
X21196670Y1815670D01*
X21173050Y1789210D01*
X21157300Y1757460D01*
X21145490Y1715120D01*
X21141560Y1667500D01*
X21145490Y1619870D01*
X21157300Y1577540D01*
X21173050Y1545780D01*
X21196670Y1519330D01*
X21228170Y1508750D01*
X21259660Y1519330D01*
X21283290Y1545780D01*
X21299040Y1577540D01*
X21310850Y1619870D01*
X21314780Y1667500D01*
X21310850Y1715120D01*
X21299040Y1757460D01*
X21283290Y1789210D01*
X21259660Y1815670D01*
X21228170Y1826250D01*
G01X21543130D02*
X21511630Y1815670D01*
X21488010Y1789210D01*
X21472260Y1757460D01*
X21460450Y1715120D01*
X21456520Y1667500D01*
X21460450Y1619870D01*
X21472260Y1577540D01*
X21488010Y1545780D01*
X21511630Y1519330D01*
X21543130Y1508750D01*
X21574620Y1519330D01*
X21598250Y1545780D01*
X21614000Y1577540D01*
X21625810Y1619870D01*
X21629740Y1667500D01*
X21625810Y1715120D01*
X21614000Y1757460D01*
X21598250Y1789210D01*
X21574620Y1815670D01*
X21543130Y1826250D01*
G01X20704550Y2249580D02*
X20806910D01*
G01X20704550Y2884580D02*
X20806910D01*
G01X20704550Y3519580D02*
X20806910D01*
G01X20704550Y4154580D02*
X20806910D01*
G01X20704550Y4789580D02*
X20806910D01*
G01X21698070Y-78750D02*
Y-396250D01*
G01X21607520Y-78750D02*
X21788620D01*
G01X22013030Y-396250D02*
X21981530Y-390960D01*
X21953980Y-369800D01*
X21930350Y-338040D01*
X21914600Y-301000D01*
X21906730Y-258670D01*
Y-216330D01*
X21914600Y-174000D01*
X21930350Y-136960D01*
X21953980Y-105210D01*
X21981530Y-84040D01*
X22013030Y-78750D01*
X22044520Y-84040D01*
X22072080Y-105210D01*
X22095710Y-136960D01*
X22111460Y-174000D01*
X22119330Y-216330D01*
Y-258670D01*
X22111460Y-301000D01*
X22095710Y-338040D01*
X22072080Y-369800D01*
X22044520Y-390960D01*
X22013030Y-396250D01*
G01X22327990Y-78750D02*
Y-396250D01*
G01X22237440Y-78750D02*
X22418540D01*
G01X22544520Y-396250D02*
X22642950Y-78750D01*
X22741380Y-396250D01*
G01X22705940Y-285130D02*
X22579950D01*
G01X22879170Y-78750D02*
Y-396250D01*
X23036650D01*
G01X23505150D02*
Y-78750D01*
G01X23670510D02*
Y-396250D01*
G01Y-237500D02*
X23505150D01*
G01X23902790Y-396250D02*
X23871290Y-390960D01*
X23843740Y-369800D01*
X23820110Y-338040D01*
X23804360Y-301000D01*
X23796490Y-258670D01*
Y-216330D01*
X23804360Y-174000D01*
X23820110Y-136960D01*
X23843740Y-105210D01*
X23871290Y-84040D01*
X23902790Y-78750D01*
X23934280Y-84040D01*
X23961840Y-105210D01*
X23985470Y-136960D01*
X24001220Y-174000D01*
X24009090Y-216330D01*
Y-258670D01*
X24001220Y-301000D01*
X23985470Y-338040D01*
X23961840Y-369800D01*
X23934280Y-390960D01*
X23902790Y-396250D01*
G01X24139010Y-78750D02*
Y-396250D01*
X24296490D01*
G01X24611450D02*
X24453970D01*
Y-78750D01*
X24611450D01*
G01X24548460Y-232200D02*
X24453970D01*
G01X24764990Y-353930D02*
X24796490Y-380380D01*
X24831920Y-396250D01*
X24863420D01*
X24894910Y-380380D01*
X24918540Y-353930D01*
X24930350Y-316870D01*
X24922480Y-279840D01*
X24902790Y-248090D01*
X24867350Y-226910D01*
X24820110Y-216330D01*
X24792550Y-195170D01*
X24780740Y-158130D01*
X24788620Y-121080D01*
X24808300Y-94630D01*
X24835860Y-78750D01*
X24863420D01*
X24890980Y-89330D01*
X24914600Y-115790D01*
G01X25162630Y-406830D02*
X25154750Y-401540D01*
Y-390960D01*
X25162630Y-385670D01*
X25170510Y-390960D01*
Y-401540D01*
X25162630Y-406830D01*
G01Y-263970D02*
X25154750Y-258670D01*
Y-248090D01*
X25162630Y-242800D01*
X25170510Y-248090D01*
Y-258670D01*
X25162630Y-263970D01*
G01X22369900Y5795000D02*
Y80000D01*
G01X23117930Y238750D02*
Y556250D01*
X23212420D01*
X23243910Y540370D01*
X23267540Y503330D01*
X23275410Y461000D01*
X23267540Y418670D01*
X23247850Y386910D01*
X23212420Y371030D01*
X23117930D01*
G01X23432890Y556250D02*
Y238750D01*
X23590370D01*
G01X23728160D02*
X23826590Y556250D01*
X23925020Y238750D01*
G01X23889580Y349870D02*
X23763590D01*
G01X24141550Y556250D02*
Y238750D01*
G01X24051000Y556250D02*
X24232100D01*
G01X24535250Y238750D02*
X24377770D01*
Y556250D01*
X24535250D01*
G01X24472260Y402800D02*
X24377770D01*
G01X24684860Y238750D02*
Y556250D01*
X24763590D01*
X24795090Y540370D01*
X24818710Y519210D01*
X24838400Y487460D01*
X24854150Y450410D01*
X24858080Y397500D01*
X24854150Y344580D01*
X24838400Y307540D01*
X24818710Y275780D01*
X24795090Y254620D01*
X24763590Y238750D01*
X24684860D01*
G01X23117930Y873750D02*
Y1191250D01*
X23212420D01*
X23243910Y1175370D01*
X23267540Y1138330D01*
X23275410Y1096000D01*
X23267540Y1053670D01*
X23247850Y1021910D01*
X23212420Y1006030D01*
X23117930D01*
G01X23432890Y1191250D02*
Y873750D01*
X23590370D01*
G01X23728160D02*
X23826590Y1191250D01*
X23925020Y873750D01*
G01X23889580Y984870D02*
X23763590D01*
G01X24141550Y1191250D02*
Y873750D01*
G01X24051000Y1191250D02*
X24232100D01*
G01X24535250Y873750D02*
X24377770D01*
Y1191250D01*
X24535250D01*
G01X24472260Y1037800D02*
X24377770D01*
G01X24684860Y873750D02*
Y1191250D01*
X24763590D01*
X24795090Y1175370D01*
X24818710Y1154210D01*
X24838400Y1122460D01*
X24854150Y1085410D01*
X24858080Y1032500D01*
X24854150Y979580D01*
X24838400Y942540D01*
X24818710Y910780D01*
X24795090Y889620D01*
X24763590Y873750D01*
X24684860D01*
G01X23117930Y1508750D02*
Y1826250D01*
X23212420D01*
X23243910Y1810370D01*
X23267540Y1773330D01*
X23275410Y1731000D01*
X23267540Y1688670D01*
X23247850Y1656910D01*
X23212420Y1641030D01*
X23117930D01*
G01X23432890Y1826250D02*
Y1508750D01*
X23590370D01*
G01X23728160D02*
X23826590Y1826250D01*
X23925020Y1508750D01*
G01X23889580Y1619870D02*
X23763590D01*
G01X24141550Y1826250D02*
Y1508750D01*
G01X24051000Y1826250D02*
X24232100D01*
G01X24535250Y1508750D02*
X24377770D01*
Y1826250D01*
X24535250D01*
G01X24472260Y1672800D02*
X24377770D01*
G01X24684860Y1508750D02*
Y1826250D01*
X24763590D01*
X24795090Y1810370D01*
X24818710Y1789210D01*
X24838400Y1757460D01*
X24854150Y1720410D01*
X24858080Y1667500D01*
X24854150Y1614580D01*
X24838400Y1577540D01*
X24818710Y1545780D01*
X24795090Y1524620D01*
X24763590Y1508750D01*
X24684860D01*
G01X23117930Y2143750D02*
Y2461250D01*
X23212420D01*
X23243910Y2445370D01*
X23267540Y2408330D01*
X23275410Y2366000D01*
X23267540Y2323670D01*
X23247850Y2291910D01*
X23212420Y2276030D01*
X23117930D01*
G01X23432890Y2461250D02*
Y2143750D01*
X23590370D01*
G01X23728160D02*
X23826590Y2461250D01*
X23925020Y2143750D01*
G01X23889580Y2254870D02*
X23763590D01*
G01X24141550Y2461250D02*
Y2143750D01*
G01X24051000Y2461250D02*
X24232100D01*
G01X24535250Y2143750D02*
X24377770D01*
Y2461250D01*
X24535250D01*
G01X24472260Y2307800D02*
X24377770D01*
G01X24684860Y2143750D02*
Y2461250D01*
X24763590D01*
X24795090Y2445370D01*
X24818710Y2424210D01*
X24838400Y2392460D01*
X24854150Y2355410D01*
X24858080Y2302500D01*
X24854150Y2249580D01*
X24838400Y2212540D01*
X24818710Y2180780D01*
X24795090Y2159620D01*
X24763590Y2143750D01*
X24684860D01*
G01X23117930Y2778750D02*
Y3096250D01*
X23212420D01*
X23243910Y3080370D01*
X23267540Y3043330D01*
X23275410Y3001000D01*
X23267540Y2958670D01*
X23247850Y2926910D01*
X23212420Y2911030D01*
X23117930D01*
G01X23432890Y3096250D02*
Y2778750D01*
X23590370D01*
G01X23728160D02*
X23826590Y3096250D01*
X23925020Y2778750D01*
G01X23889580Y2889870D02*
X23763590D01*
G01X24141550Y3096250D02*
Y2778750D01*
G01X24051000Y3096250D02*
X24232100D01*
G01X24535250Y2778750D02*
X24377770D01*
Y3096250D01*
X24535250D01*
G01X24472260Y2942800D02*
X24377770D01*
G01X24684860Y2778750D02*
Y3096250D01*
X24763590D01*
X24795090Y3080370D01*
X24818710Y3059210D01*
X24838400Y3027460D01*
X24854150Y2990410D01*
X24858080Y2937500D01*
X24854150Y2884580D01*
X24838400Y2847540D01*
X24818710Y2815780D01*
X24795090Y2794620D01*
X24763590Y2778750D01*
X24684860D01*
G01X23117930Y3413750D02*
Y3731250D01*
X23212420D01*
X23243910Y3715370D01*
X23267540Y3678330D01*
X23275410Y3636000D01*
X23267540Y3593670D01*
X23247850Y3561910D01*
X23212420Y3546030D01*
X23117930D01*
G01X23432890Y3731250D02*
Y3413750D01*
X23590370D01*
G01X23728160D02*
X23826590Y3731250D01*
X23925020Y3413750D01*
G01X23889580Y3524870D02*
X23763590D01*
G01X24141550Y3731250D02*
Y3413750D01*
G01X24051000Y3731250D02*
X24232100D01*
G01X24535250Y3413750D02*
X24377770D01*
Y3731250D01*
X24535250D01*
G01X24472260Y3577800D02*
X24377770D01*
G01X24684860Y3413750D02*
Y3731250D01*
X24763590D01*
X24795090Y3715370D01*
X24818710Y3694210D01*
X24838400Y3662460D01*
X24854150Y3625410D01*
X24858080Y3572500D01*
X24854150Y3519580D01*
X24838400Y3482540D01*
X24818710Y3450780D01*
X24795090Y3429620D01*
X24763590Y3413750D01*
X24684860D01*
G01X23117930Y4048750D02*
Y4366250D01*
X23212420D01*
X23243910Y4350370D01*
X23267540Y4313330D01*
X23275410Y4271000D01*
X23267540Y4228670D01*
X23247850Y4196910D01*
X23212420Y4181030D01*
X23117930D01*
G01X23432890Y4366250D02*
Y4048750D01*
X23590370D01*
G01X23728160D02*
X23826590Y4366250D01*
X23925020Y4048750D01*
G01X23889580Y4159870D02*
X23763590D01*
G01X24141550Y4366250D02*
Y4048750D01*
G01X24051000Y4366250D02*
X24232100D01*
G01X24535250Y4048750D02*
X24377770D01*
Y4366250D01*
X24535250D01*
G01X24472260Y4212800D02*
X24377770D01*
G01X24684860Y4048750D02*
Y4366250D01*
X24763590D01*
X24795090Y4350370D01*
X24818710Y4329210D01*
X24838400Y4297460D01*
X24854150Y4260410D01*
X24858080Y4207500D01*
X24854150Y4154580D01*
X24838400Y4117540D01*
X24818710Y4085780D01*
X24795090Y4064620D01*
X24763590Y4048750D01*
X24684860D01*
G01X23117930Y4683750D02*
Y5001250D01*
X23212420D01*
X23243910Y4985370D01*
X23267540Y4948330D01*
X23275410Y4906000D01*
X23267540Y4863670D01*
X23247850Y4831910D01*
X23212420Y4816030D01*
X23117930D01*
G01X23432890Y5001250D02*
Y4683750D01*
X23590370D01*
G01X23728160D02*
X23826590Y5001250D01*
X23925020Y4683750D01*
G01X23889580Y4794870D02*
X23763590D01*
G01X24141550Y5001250D02*
Y4683750D01*
G01X24051000Y5001250D02*
X24232100D01*
G01X24535250Y4683750D02*
X24377770D01*
Y5001250D01*
X24535250D01*
G01X24472260Y4847800D02*
X24377770D01*
G01X24684860Y4683750D02*
Y5001250D01*
X24763590D01*
X24795090Y4985370D01*
X24818710Y4964210D01*
X24838400Y4932460D01*
X24854150Y4895410D01*
X24858080Y4842500D01*
X24854150Y4789580D01*
X24838400Y4752540D01*
X24818710Y4720780D01*
X24795090Y4699620D01*
X24763590Y4683750D01*
X24684860D01*
G01X23117930Y5318750D02*
Y5636250D01*
X23212420D01*
X23243910Y5620370D01*
X23267540Y5583330D01*
X23275410Y5541000D01*
X23267540Y5498670D01*
X23247850Y5466910D01*
X23212420Y5451030D01*
X23117930D01*
G01X23432890Y5636250D02*
Y5318750D01*
X23590370D01*
G01X23728160D02*
X23826590Y5636250D01*
X23925020Y5318750D01*
G01X23889580Y5429870D02*
X23763590D01*
G01X24141550Y5636250D02*
Y5318750D01*
G01X24051000Y5636250D02*
X24232100D01*
G01X24535250Y5318750D02*
X24377770D01*
Y5636250D01*
X24535250D01*
G01X24472260Y5482800D02*
X24377770D01*
G01X24684860Y5318750D02*
Y5636250D01*
X24763590D01*
X24795090Y5620370D01*
X24818710Y5599210D01*
X24838400Y5567460D01*
X24854150Y5530410D01*
X24858080Y5477500D01*
X24854150Y5424580D01*
X24838400Y5387540D01*
X24818710Y5355780D01*
X24795090Y5334620D01*
X24763590Y5318750D01*
X24684860D01*
G01X25598240Y5795000D02*
Y80000D01*
G01X26314770Y-396250D02*
Y-78750D01*
X26169100Y-306290D01*
X26365960D01*
G01X26515560Y-359220D02*
X26543120Y-385670D01*
X26574610Y-396250D01*
X26606110Y-385670D01*
X26633670Y-353930D01*
X26653360Y-306290D01*
X26661230Y-258670D01*
Y-200460D01*
X26653360Y-152840D01*
X26633670Y-110500D01*
X26610050Y-89330D01*
X26582490Y-78750D01*
X26550990Y-89330D01*
X26527370Y-110500D01*
X26511620Y-142250D01*
X26503750Y-184590D01*
X26511620Y-221620D01*
X26531310Y-258670D01*
X26554930Y-279840D01*
X26582490Y-285130D01*
X26613980Y-274550D01*
X26637610Y-248090D01*
X26661230Y-200460D01*
G01X26897450Y-396250D02*
Y-78750D01*
X26850210Y-142250D01*
G01Y-396250D02*
X26944690D01*
G01X26507680Y503330D02*
X26531310Y535080D01*
X26558870Y550960D01*
X26590370Y556250D01*
X26629730Y545670D01*
X26657300Y519210D01*
X26665170Y487460D01*
X26661230Y455700D01*
X26645480Y429250D01*
X26566740Y376330D01*
X26531310Y339290D01*
X26507680Y286360D01*
X26499810Y238750D01*
X26665170D01*
G01X26582490Y873750D02*
Y1191250D01*
X26535250Y1127750D01*
G01Y873750D02*
X26629730D01*
G01X26507680Y1773330D02*
X26531310Y1805080D01*
X26558870Y1820960D01*
X26590370Y1826250D01*
X26629730Y1815670D01*
X26657300Y1789210D01*
X26665170Y1757460D01*
X26661230Y1725700D01*
X26645480Y1699250D01*
X26566740Y1646330D01*
X26531310Y1609290D01*
X26507680Y1556360D01*
X26499810Y1508750D01*
X26665170D01*
G01X26507680Y2276030D02*
X26535250Y2313090D01*
X26558870Y2334250D01*
X26590370Y2344830D01*
X26617930Y2334250D01*
X26637610Y2313090D01*
X26653360Y2281330D01*
X26657300Y2244290D01*
X26653360Y2212540D01*
X26637610Y2180780D01*
X26613980Y2154330D01*
X26586430Y2143750D01*
X26554930Y2154330D01*
X26527370Y2186070D01*
X26511620Y2233710D01*
X26507680Y2286620D01*
X26515560Y2355410D01*
X26527370Y2392460D01*
X26547050Y2429500D01*
X26574610Y2455960D01*
X26602170Y2461250D01*
X26629730Y2450670D01*
X26649420Y2424210D01*
G01X26350200Y3043330D02*
X26373830Y3075080D01*
X26401390Y3090960D01*
X26432890Y3096250D01*
X26472250Y3085670D01*
X26499820Y3059210D01*
X26507690Y3027460D01*
X26503750Y2995700D01*
X26488000Y2969250D01*
X26409260Y2916330D01*
X26373830Y2879290D01*
X26350200Y2826360D01*
X26342330Y2778750D01*
X26507690D01*
G01X26732090D02*
X26739970Y2847540D01*
X26751780Y2905740D01*
X26767530Y2958670D01*
X26787210Y3016870D01*
X26818710Y3096250D01*
X26661230D01*
G01X26507680Y3546030D02*
X26535250Y3583090D01*
X26558870Y3604250D01*
X26590370Y3614830D01*
X26617930Y3604250D01*
X26637610Y3583090D01*
X26653360Y3551330D01*
X26657300Y3514290D01*
X26653360Y3482540D01*
X26637610Y3450780D01*
X26613980Y3424330D01*
X26586430Y3413750D01*
X26554930Y3424330D01*
X26527370Y3456070D01*
X26511620Y3503710D01*
X26507680Y3556620D01*
X26515560Y3625410D01*
X26527370Y3662460D01*
X26547050Y3699500D01*
X26574610Y3725960D01*
X26602170Y3731250D01*
X26629730Y3720670D01*
X26649420Y3694210D01*
G01X26507680Y4313330D02*
X26531310Y4345080D01*
X26558870Y4360960D01*
X26590370Y4366250D01*
X26629730Y4355670D01*
X26657300Y4329210D01*
X26665170Y4297460D01*
X26661230Y4265700D01*
X26645480Y4239250D01*
X26566740Y4186330D01*
X26531310Y4149290D01*
X26507680Y4096360D01*
X26499810Y4048750D01*
X26665170D01*
G01X26314770Y4683750D02*
Y5001250D01*
X26169100Y4773710D01*
X26365960D01*
G01X26629730Y4683750D02*
Y5001250D01*
X26484060Y4773710D01*
X26680920D01*
G01X26810840Y4731360D02*
X26834450Y4704910D01*
X26862010Y4689040D01*
X26897450Y4683750D01*
X26932890Y4694330D01*
X26960440Y4715490D01*
X26980130Y4752540D01*
X26984060Y4794870D01*
X26976190Y4837200D01*
X26956500Y4863670D01*
X26928940Y4884830D01*
X26901390Y4890120D01*
X26873830Y4884830D01*
X26838400Y4863670D01*
X26850210Y5001250D01*
X26956500D01*
G01X26267530Y5318750D02*
X26236030Y5324040D01*
X26208480Y5345200D01*
X26184850Y5376960D01*
X26169100Y5414000D01*
X26161230Y5456330D01*
Y5498670D01*
X26169100Y5541000D01*
X26184850Y5578040D01*
X26208480Y5609790D01*
X26236030Y5630960D01*
X26267530Y5636250D01*
X26299020Y5630960D01*
X26326580Y5609790D01*
X26350210Y5578040D01*
X26365960Y5541000D01*
X26373830Y5498670D01*
Y5456330D01*
X26365960Y5414000D01*
X26350210Y5376960D01*
X26326580Y5345200D01*
X26299020Y5324040D01*
X26267530Y5318750D01*
G01X26299020Y5403420D02*
X26346270Y5318750D01*
G01X26582490Y5636250D02*
Y5318750D01*
G01X26491940Y5636250D02*
X26673040D01*
G01X26897450Y5318750D02*
Y5461620D01*
X26818710Y5636250D01*
G01X26976190D02*
X26897450Y5461620D01*
M02*
