M48
METRIC,TZ
T01C.3048
T02C.9
T03C1.
T04C1.1
T05C1.8
;LEADER: 12 
;HEADER: 
;CODE  : ASCII 
;FILE  : DRV8711_TEST_V10A-1-2.drl for board H:/MotorDriver/HARDWARE/DRV8711_TEST_V10A/PCB/#Taaaaam06936.tmp ... layers TOP and BOTTOM
;T01 Holesize 1. = 0.304800 Tolerance = +0.000000/-0.000000 PLATED MM Quantity = 445
;T02 Holesize 2. = 0.900000 Tolerance = +0.000000/-0.000000 PLATED MM Quantity = 2
;T03 Holesize 3. = 1.000000 Tolerance = +0.000000/-0.000000 PLATED MM Quantity = 6
;T04 Holesize 4. = 1.100000 Tolerance = +0.000000/-0.000000 PLATED MM Quantity = 27
;T05 Holesize 5. = 1.800000 Tolerance = +0.000000/-0.000000 PLATED MM Quantity = 6
%
G90
T01
X670000Y200000
X670000Y390000
X140000Y950000
X330000Y950000
X666200Y993800
X666200Y1400000
X666200Y1810000
X200000Y2240000
X350000Y2240000
X960000Y3000000
X960000Y3090000
X600000Y3570000
X865000Y3585000
X680000Y3650000
X750000Y3720000
X1597670Y6129410
X1097670Y6129410
X1597670Y5629410
X1097670Y5629410
X1710000Y4990000
X1630000Y4990000
X1550000Y4990000
X1470000Y4990000
X1710000Y4910000
X1630000Y4910000
X1550000Y4910000
X1470000Y4910000
X1710000Y4180000
X1510000Y4180000
X1310000Y4180000
X1510000Y3840000
X1300000Y3830000
X1950000Y3800000
X1780000Y3800000
X1780000Y3690000
X1300000Y3670000
X1990000Y3585000
X1970000Y3440000
X1680000Y3440000
X1970000Y3130000
X1680000Y3130000
X1360000Y3110000
X1050000Y3090000
X1970000Y2940000
X1420000Y2820000
X1420000Y2630000
X1420000Y2430000
X1070000Y2380000
X1420000Y2240000
X1850000Y1910000
X2000000Y1660000
X2000000Y1470000
X2000000Y1270000
X1710000Y1180000
X1520000Y1180000
X1320000Y1180000
X1130000Y1180000
X2000000Y1080000
X1920000Y580000
X1690000Y580000
X1500000Y580000
X1300000Y580000
X1110000Y580000
X2110000Y580000
X2310000Y580000
X2500000Y580000
X2860000Y2050000
X2960000Y2050000
X2300000Y2060000
X2860000Y2130000
X2300000Y2150000
X3020000Y2290000
X2400000Y2580000
X3030000Y2630000
X2475000Y2655000
X2210000Y2940000
X2340000Y3000000
X2425000Y3000000
X2950000Y3420000
X2375000Y3480000
X2460000Y3480000
X2810000Y3495000
X2300000Y3790000
X2425000Y4080000
X2610000Y4080000
X2720000Y4080000
X2097670Y5629410
X2597670Y5629410
X2097670Y6129410
X2597670Y6129410
X4024970Y6354200
X4024970Y5854200
X4024970Y5354200
X3540000Y3770000
X3540000Y3640000
X3540000Y3530000
X3880000Y2550000
X3690000Y2550000
X3490000Y2550000
X3300000Y2550000
X3880000Y2300000
X3690000Y2300000
X3490000Y2300000
X3300000Y2300000
X3880000Y2070000
X3690000Y2070000
X3490000Y2070000
X3300000Y2070000
X4210000Y150000
X4400000Y150000
X4600000Y150000
X4790000Y150000
X4220000Y430000
X4410000Y430000
X4610000Y430000
X4800000Y430000
X5050000Y2300000
X4524970Y5354200
X4524970Y5854200
X4524970Y6354200
X5600000Y6580000
X5380000Y6580000
X5150000Y6580000
X5490000Y6577280
X5260000Y6577280
X5600000Y6490000
X5380000Y6490000
X5150000Y6490000
X5490000Y6487280
X5260000Y6487280
X5150000Y6400000
X5260000Y6397280
X5150000Y6310000
X5260000Y6307280
X5150000Y6220000
X5260000Y6217280
X5930000Y5680000
X5710000Y5680000
X5820000Y5677280
X5930000Y5580000
X5710000Y5580000
X5820000Y5577280
X5930000Y5490000
X5710000Y5490000
X5820000Y5487280
X5884370Y5129630
X5884370Y4769630
X5384370Y4769630
X5884370Y4269630
X5384370Y4269630
X5884370Y3769630
X5384370Y3769630
X5885030Y3300670
X5885030Y2800670
X5970000Y2600000
X6080000Y2597280
X5970000Y2510000
X6080000Y2507280
X5970000Y2410000
X6080000Y2407280
X5970000Y2320000
X5520000Y2320000
X5440000Y2320000
X5360000Y2320000
X5280000Y2320000
X5200000Y2320000
X6080000Y2317280
X5970000Y2210000
X6080000Y2207280
X5970000Y2120000
X6080000Y2117280
X5970000Y2030000
X6080000Y2027280
X5970000Y1940000
X6080000Y1937280
X5970000Y1850000
X6080000Y1847280
X5970000Y1740000
X6080000Y1737280
X5970000Y1650000
X6080000Y1647280
X5970000Y1550000
X6080000Y1547280
X5970000Y1460000
X6080000Y1457280
X5570000Y1260000
X5900000Y1240000
X5900000Y1120000
X5875000Y780000
X5875000Y315000
X6450370Y184370
X6950370Y184370
X6460370Y594370
X6960370Y594370
X6100000Y860000
X6290000Y860000
X6480000Y860000
X6100000Y980000
X6290000Y980000
X6480000Y980000
X6860000Y1030000
X6930000Y1030000
X7000000Y1030000
X6860000Y1100000
X6930000Y1100000
X7000000Y1100000
X6100000Y1120000
X6290000Y1120000
X6480000Y1120000
X6100000Y1240000
X6290000Y1240000
X6480000Y1240000
X6190000Y1460000
X6190000Y1550000
X6190000Y1650000
X6190000Y1740000
X6190000Y1850000
X6190000Y1940000
X6190000Y2030000
X6190000Y2120000
X6190000Y2210000
X7110000Y2270000
X6190000Y2320000
X6190000Y2410000
X6190000Y2510000
X6190000Y2600000
X6135030Y2800670
X6385030Y2800670
X6385030Y3300670
X6384370Y3769630
X6884370Y3769630
X6384370Y4269630
X6884370Y4269630
X6384370Y4769630
X6884370Y4769630
X6384370Y5129630
X6934370Y5689630
X7064370Y5689630
X6564370Y5809630
X6684370Y5809630
X6814370Y5809630
X6934370Y5809630
X7064370Y5809630
X7074370Y6009630
X7074370Y6349630
X7074370Y6509630
X7074370Y6689630
X7074370Y6869630
X7574370Y6869630
X7344370Y6869630
X7574370Y6689630
X7344370Y6689630
X8070000Y6620000
X7980000Y6620000
X7890000Y6620000
X7800000Y6620000
X8070000Y6530000
X7980000Y6530000
X7890000Y6530000
X7800000Y6530000
X7574370Y6509630
X7344370Y6509630
X8070000Y6440000
X7980000Y6440000
X7890000Y6440000
X7800000Y6440000
X8070000Y6350000
X7980000Y6350000
X7890000Y6350000
X7800000Y6350000
X7574370Y6349630
X8070000Y6260000
X7574370Y6009630
X7434370Y5809630
X7314370Y5809630
X7184370Y5809630
X7384370Y4769630
X7384370Y4269630
X7384370Y3769630
X7460000Y2410000
X7460000Y2340000
X7460000Y2270000
X7390000Y2270000
X7320000Y2270000
X7250000Y2270000
X7180000Y2270000
X7440000Y1220000
X7440000Y1150000
X7440000Y1080000
X7440000Y1010000
X7929330Y595030
X7460370Y594370
X7919330Y185030
X7450370Y184370
X8419330Y185030
X8429330Y595030
X8210000Y820000
X8300000Y820000
X8390000Y820000
X8480000Y820000
X8570000Y820000
X8660000Y820000
X8390000Y910000
X8480000Y910000
X8570000Y910000
X8660000Y910000
X8390000Y1000000
X8480000Y1000000
X8570000Y1000000
X8660000Y1000000
X8390000Y1090000
X8480000Y1090000
X8570000Y1090000
X8790000Y1110000
X8880000Y1110000
X8970000Y1110000
X9060000Y1110000
X8790000Y1410000
X8790000Y1620000
X8880000Y1620000
X8970000Y1620000
X9060000Y1620000
X8390000Y1830000
X8480000Y1830000
X8390000Y1920000
X8480000Y1920000
X8570000Y1920000
X8790000Y1940000
X8870000Y1990000
X8970000Y1990000
X9060000Y1990000
X8390000Y2010000
X8480000Y2010000
X8570000Y2010000
X8660000Y2010000
X8390000Y2100000
X8480000Y2100000
X8570000Y2100000
X8660000Y2100000
X8390000Y2190000
X8480000Y2190000
X8570000Y2190000
X8790000Y2190000
X8390000Y2280000
X8480000Y2280000
X8790000Y2460000
X9060000Y2460000
X8790000Y2550000
X8880000Y2550000
X8970000Y2550000
X9060000Y2550000
X8790000Y2680000
X8790000Y2970000
X9060000Y2970000
X8410000Y3050000
X8500000Y3050000
X8590000Y3050000
X8790000Y3060000
X8880000Y3060000
X8970000Y3060000
X9060000Y3060000
X8410000Y3140000
X8500000Y3140000
X8590000Y3140000
X8230000Y3230000
X8320000Y3230000
X8410000Y3230000
X8500000Y3230000
X8590000Y3230000
X8230000Y3320000
X8320000Y3320000
X8410000Y3320000
X8500000Y3320000
X8590000Y3320000
X8230000Y3410000
X8320000Y3410000
X8410000Y3410000
X8500000Y3410000
X8590000Y3410000
X8160000Y6260000
X8250000Y6260000
X8340000Y6260000
X8160000Y6350000
X8250000Y6350000
X8340000Y6350000
X8160000Y6440000
X8250000Y6440000
X8340000Y6440000
X8160000Y6530000
X8250000Y6530000
X8340000Y6530000
X8160000Y6620000
X8250000Y6620000
X8340000Y6620000
X9714370Y6279630
X9714370Y5779630
X9714370Y5279630
X9715030Y4810670
X9715030Y4310670
X9714370Y3829630
X9714370Y3329630
X9240000Y3060000
X9150000Y3060000
X9240000Y2970000
X9150000Y2970000
X9240000Y2870000
X9150000Y2870000
X9714370Y2829630
X9240000Y2770000
X9150000Y2770000
X9150000Y2680000
X9240000Y2550000
X9150000Y2550000
X9240000Y2460000
X9150000Y2460000
X9240000Y2370000
X9150000Y2370000
X9715030Y2360670
X9240000Y2280000
X9150000Y2280000
X9240000Y2190000
X9150000Y2190000
X9240000Y1990000
X9150000Y1990000
X9240000Y1890000
X9150000Y1890000
X9715030Y1860670
X9240000Y1800000
X9150000Y1800000
X9240000Y1710000
X9150000Y1710000
X9240000Y1620000
X9150000Y1620000
X9240000Y1430000
X9150000Y1430000
X9240000Y1350000
X9150000Y1350000
X9705030Y1320670
X9240000Y1270000
X9150000Y1270000
X9240000Y1190000
X9150000Y1190000
X9240000Y1110000
X9150000Y1110000
X9705030Y820670
T02
X7420000Y6200000
X7920000Y6200000
T03
X895000Y110000
X1645000Y110000
X2025000Y110000
X2775000Y110000
X3155000Y110000
X3905000Y110000
T04
X200000Y2509900
X200000Y2763900
X200000Y3017900
X200000Y3271900
X200000Y5320940
X200000Y5574940
X200000Y5828940
X200000Y6082940
X3150000Y6570000
X3400000Y6570000
X3650000Y6570000
X4600000Y4500000
X4346000Y4500000
X4600000Y4030000
X4346000Y4030000
X4600000Y3441280
X4600000Y3187280
X4600000Y2933280
X4600000Y2679280
X4600000Y2425280
X4600000Y2171280
X4600000Y1917280
X4600000Y1663280
X4600000Y1409280
X4600000Y1155280
X4600000Y901280
X4600000Y647280
T05
X8950800Y1296000
X8950800Y1804000
X8950800Y2312000
X8950800Y2820000
X8950800Y4146000
X8950800Y4654000
M30
