G04 ================== begin FILE IDENTIFICATION RECORD ==================*
G04 Layout Name:  H:/MotorDriver/HARDWARE/DRV8711_TEST_V10A/PCB/DRV8711_TEST_V10A.brd*
G04 Film Name:    SolderMask_Top*
G04 File Format:  Gerber RS274X*
G04 File Origin:  Cadence Allegro 17.2-S045*
G04 Origin Date:  Fri Feb 15 09:59:43 2019*
G04 *
G04 Layer:  BOARD GEOMETRY/OUTLINE*
G04 Layer:  PIN/SOLDERMASK_TOP*
G04 Layer:  PACKAGE GEOMETRY/SOLDERMASK_TOP*
G04 Layer:  BOARD GEOMETRY/SOLDERMASK_TOP*
G04 *
G04 Offset:    (0.0000 0.0000)*
G04 Mirror:    No*
G04 Mode:      Positive*
G04 Rotation:  0*
G04 FullContactRelief:  No*
G04 UndefLineWidth:     0.1524*
G04 ================== end FILE IDENTIFICATION RECORD ====================*
%FSLAX55Y55*MOMM*%
%IR0*IPPOS*OFA0.00000B0.00000*MIA0B0*SFA1.00000B1.00000*%
%ADD23R,1.3X.4*%
%ADD22R,.4X1.3*%
%ADD21R,.6X2.1*%
%ADD20R,1.3X.8*%
%ADD17R,1.7X.5*%
%ADD27R,1.6X.7*%
%ADD34R,1.5X.9*%
%ADD26R,1.7X.7*%
%ADD31R,1.62X.35*%
%ADD24C,.85*%
%ADD15R,.9X.9*%
%ADD18R,1.1X1.3*%
%ADD10R,1.X1.4*%
%ADD29R,2.5X2.1*%
%ADD19R,1.5X1.3*%
%ADD30R,3.X4.6*%
%ADD35O,4.15X2.15*%
%ADD33R,3.3X1.9*%
%ADD25O,2.15X4.15*%
%ADD16R,1.6X1.7*%
%ADD32R,2.1X5.8*%
%ADD13R,1.7X1.9*%
%ADD36C,2.6*%
%ADD12R,2.X2.*%
%ADD11C,1.9*%
%ADD14C,1.75*%
%ADD28R,1.9X1.9*%
%ADD37C,.1*%
G75*
%LPD*%
G75*
G54D10*
X345000Y1100000D03*
X145000D03*
X345000Y1300000D03*
X145000D03*
X345000Y1699780D03*
X145000D03*
X345000Y1500000D03*
X145000D03*
X5875000Y900580D03*
X5675000D03*
X5875000Y650000D03*
X5675000D03*
G54D11*
X200000Y2509900D03*
Y2763900D03*
Y3017900D03*
Y5320940D03*
Y5574940D03*
Y5828940D03*
X3150000Y6570000D03*
X3400000D03*
X3650000D03*
X4600000Y647280D03*
Y901280D03*
Y1155280D03*
Y1409280D03*
Y1663280D03*
Y1917280D03*
Y2171280D03*
Y2425280D03*
Y2679280D03*
Y2933280D03*
Y3187280D03*
X4346000Y4030000D03*
Y4500000D03*
X7420000Y6200000D03*
X7920000D03*
G54D20*
X1240000Y4590000D03*
Y4685000D03*
Y4780000D03*
X1500000D03*
Y4590000D03*
X6100000Y5355000D03*
Y5450000D03*
Y5545000D03*
X6360000Y5450000D03*
Y5545000D03*
Y5355000D03*
G54D12*
X200000Y3271900D03*
Y6082940D03*
X4600000Y4030000D03*
Y4500000D03*
G54D30*
X6080000Y2027280D03*
G54D21*
X1680000Y2330000D03*
X1800000D03*
X1920000D03*
G54D13*
X230000Y3860000D03*
Y4700000D03*
G54D31*
X5780000Y1577280D03*
Y1627280D03*
Y1677280D03*
Y1727280D03*
Y1777280D03*
Y1827280D03*
Y1877280D03*
Y1927280D03*
Y1977280D03*
Y2027280D03*
Y2077280D03*
Y2127280D03*
Y2177280D03*
Y2227280D03*
Y2277280D03*
Y2327280D03*
Y2377280D03*
Y2427280D03*
Y2477280D03*
X6380000Y1927280D03*
Y1877280D03*
Y1827280D03*
Y1777280D03*
Y1727280D03*
Y1677280D03*
Y1627280D03*
Y1577280D03*
Y2427280D03*
Y2377280D03*
Y2327280D03*
Y2277280D03*
Y2227280D03*
Y2177280D03*
Y2127280D03*
Y2077280D03*
Y2027280D03*
Y1977280D03*
Y2477280D03*
G54D22*
X1925000Y2785000D03*
X1875000D03*
X1825000D03*
X1775000D03*
X1725000D03*
Y3955000D03*
X1775000D03*
X1825000D03*
X1875000D03*
X1925000D03*
X2425000Y2785000D03*
X2375000D03*
X2325000D03*
X2275000D03*
X2225000D03*
X2175000D03*
X2125000D03*
X2075000D03*
X2025000D03*
X1975000D03*
Y3955000D03*
X2025000D03*
X2075000D03*
X2125000D03*
X2175000D03*
X2225000D03*
X2275000D03*
X2325000D03*
X2375000D03*
X2425000D03*
X2475000Y2785000D03*
Y3955000D03*
G54D14*
X895000Y110000D03*
X1645000D03*
X2025000D03*
X2775000D03*
X3155000D03*
X3905000D03*
G54D32*
X5845000Y6140000D03*
X6335000D03*
G54D23*
X1515000Y2995000D03*
Y3045000D03*
Y3095000D03*
Y3145000D03*
Y3195000D03*
Y3245000D03*
Y3295000D03*
Y3345000D03*
Y3395000D03*
Y3445000D03*
Y3495000D03*
Y3545000D03*
Y3595000D03*
Y3645000D03*
Y3695000D03*
Y3745000D03*
X2685000Y3495000D03*
Y3445000D03*
Y3395000D03*
Y3345000D03*
Y3295000D03*
Y3245000D03*
Y3195000D03*
Y3145000D03*
Y3095000D03*
Y3045000D03*
Y2995000D03*
Y3745000D03*
Y3695000D03*
Y3645000D03*
Y3595000D03*
Y3545000D03*
G54D33*
X7220000Y1030000D03*
Y1670000D03*
Y2430000D03*
Y3070000D03*
G54D15*
X666200Y1300000D03*
X513800D03*
X666200Y1100000D03*
X513800D03*
X666200Y1699780D03*
X513800D03*
X666200Y1500000D03*
X513800D03*
X1176200Y3195000D03*
X1023800D03*
Y3830000D03*
X1176200D03*
Y3660000D03*
X1023800D03*
X1176200Y3970000D03*
X1023800D03*
X1024600Y4380000D03*
X1177000D03*
X1024600Y4240000D03*
X1177000D03*
X2060000Y1923800D03*
Y2076200D03*
Y2406200D03*
Y2253800D03*
X2390000D03*
Y2406200D03*
X2200000Y2253800D03*
Y2406200D03*
X2850000Y2253800D03*
Y2406200D03*
X2543800D03*
X2696200D03*
X2543800Y2253800D03*
X2696200D03*
X2983800Y2730000D03*
Y3775000D03*
Y3620000D03*
Y3950000D03*
Y4120000D03*
X3333800Y2730000D03*
X3486200D03*
X3136200D03*
Y3775000D03*
Y3620000D03*
Y3950000D03*
Y4120000D03*
X3663800Y2730000D03*
X3816200D03*
X5043800Y2150000D03*
Y2450000D03*
X5516200Y900580D03*
X5363800D03*
X5516200Y650000D03*
X5363800D03*
X5516200Y1155280D03*
X5363800D03*
X5196200Y2150000D03*
X5511600D03*
X5359200D03*
X5196200Y2450000D03*
X5511600D03*
X5359200D03*
Y2590000D03*
X5511600D03*
X5413800Y5240000D03*
X5566200D03*
X5413800Y5520000D03*
X5566200D03*
Y5380000D03*
X5413800D03*
Y5670000D03*
X5566200D03*
X6243800Y1350000D03*
X6396200D03*
X6600000Y5533800D03*
X6607600Y5240000D03*
X6600000Y5686200D03*
X6153800Y5720000D03*
X6306200D03*
X6760000Y5533800D03*
Y5240000D03*
Y5686200D03*
G54D24*
X1718400Y4580000D03*
X5160000Y5670000D03*
G54D16*
X490000Y3950000D03*
Y4610000D03*
G54D25*
X3000000Y6240000D03*
X3800000D03*
X8610000Y5690000D03*
X9210000D03*
G54D34*
X6710000Y5965000D03*
Y6315000D03*
G54D35*
X8890000Y6170000D03*
G54D26*
X3185000Y2929500D03*
Y3056500D03*
Y3183500D03*
Y3310500D03*
X3975000Y2929500D03*
Y3310500D03*
Y3183500D03*
Y3056500D03*
G54D17*
X540000Y4150000D03*
Y4215000D03*
Y4280000D03*
Y4345000D03*
Y4410000D03*
G54D36*
X8950800Y1296000D03*
Y1804000D03*
Y2312000D03*
Y2820000D03*
Y4654000D03*
Y4146000D03*
G54D18*
X779200Y4780000D03*
X982400D03*
X1718400D03*
X1921600D03*
G54D27*
X3380000Y3640000D03*
Y3767000D03*
Y3894000D03*
Y4021000D03*
X3920000D03*
Y3894000D03*
Y3767000D03*
Y3640000D03*
X7710000Y969000D03*
Y1096000D03*
Y1223000D03*
Y1350000D03*
Y1569000D03*
Y1696000D03*
Y1823000D03*
Y1950000D03*
Y2169000D03*
Y2296000D03*
Y2423000D03*
Y2759000D03*
Y2886000D03*
Y2550000D03*
Y3013000D03*
Y3140000D03*
X8250000Y1350000D03*
Y1223000D03*
Y1096000D03*
Y969000D03*
Y1823000D03*
Y1696000D03*
Y1569000D03*
Y1950000D03*
Y2423000D03*
Y2296000D03*
Y2169000D03*
Y2886000D03*
Y2759000D03*
Y2550000D03*
Y3140000D03*
Y3013000D03*
G54D37*
G01X290000Y0D02*
X9710000D01*
G03X10000000Y290000I0J290000D01*
G01Y6710000D01*
G03X9710000Y7000000I-290000J0D01*
G01X290000D01*
G03X0Y6710000I0J-290000D01*
G01Y290000D01*
G03X290000Y0I290000J0D01*
G01X450000Y290000D02*
G03I-160000J0D01*
G01Y6710000D02*
G03I-160000J0D01*
G01X490000Y4480000D02*
G03I-30000J0D01*
G01Y4080000D02*
G03I-30000J0D01*
G01X1205000Y140000D02*
G03I-50000J0D01*
G01X1435000D02*
G03I-50000J0D01*
G01X2335000D02*
G03I-50000J0D01*
G01X2565000D02*
G03I-50000J0D01*
G01X3465000D02*
G03I-50000J0D01*
G01X3695000D02*
G03I-50000J0D01*
G01X9870000Y290000D02*
G03I-160000J0D01*
G01Y6710000D02*
G03I-160000J0D01*
G54D28*
X4600000Y3441280D03*
G54D19*
X1050000Y310000D03*
X1490000D03*
X2180000D03*
X2620000D03*
X3310000D03*
X3750000D03*
G54D29*
X5490000Y5978500D03*
Y6301400D03*
M02*
