G04 ================== begin FILE IDENTIFICATION RECORD ==================*
G04 Layout Name:  H:/MotorDriver/HARDWARE/DRV8711_TEST_V10A/PCB/DRV8711_TEST_V10A.brd*
G04 Film Name:    TOP*
G04 File Format:  Gerber RS274X*
G04 File Origin:  Cadence Allegro 17.2-S045*
G04 Origin Date:  Fri Feb 15 09:59:43 2019*
G04 *
G04 Layer:  BOARD GEOMETRY/OUTLINE*
G04 Layer:  VIA CLASS/TOP*
G04 Layer:  PIN/TOP*
G04 Layer:  ETCH/TOP*
G04 *
G04 Offset:    (0.0000 0.0000)*
G04 Mirror:    No*
G04 Mode:      Positive*
G04 Rotation:  0*
G04 FullContactRelief:  No*
G04 UndefLineWidth:     0.1524*
G04 ================== end FILE IDENTIFICATION RECORD ====================*
%FSLAX55Y55*MOMM*%
%IR0*IPPOS*OFA0.00000B0.00000*MIA0B0*SFA1.00000B1.00000*%
%ADD24R,1.2X.3*%
%ADD23R,.3X1.2*%
%ADD22R,.5X2.*%
%ADD21R,1.1X.6*%
%ADD18R,1.6X.4*%
%ADD28R,1.5X.6*%
%ADD35R,1.4X.8*%
%ADD27R,1.6X.6*%
%ADD10R,.9X1.3*%
%ADD32R,1.52X.25*%
%ADD25C,.75*%
%ADD16R,.8X.8*%
%ADD11C,.6096*%
%ADD36O,4.X2.*%
%ADD26O,2.X4.*%
%ADD19R,1.X1.2*%
%ADD30R,2.4X2.*%
%ADD20R,1.4X1.2*%
%ADD34R,3.2X1.8*%
%ADD17R,1.5X1.6*%
%ADD33R,2.X5.7*%
%ADD14R,1.6X1.8*%
%ADD31R,2.9X4.5*%
%ADD37C,2.5*%
%ADD12C,1.8*%
%ADD15C,1.65*%
%ADD29R,1.8X1.8*%
%ADD13R,1.9X1.9*%
%ADD38C,.1*%
%ADD39C,.4*%
%ADD40C,.2032*%
%ADD41C,.254*%
%ADD42C,.7112*%
%ADD43C,.508*%
%ADD44C,.762*%
%ADD45C,1.27*%
%ADD50C,1.2004*%
%ADD48C,3.5164*%
%ADD49C,3.4148*%
%ADD47C,2.7148*%
%ADD46O,2.9148X4.9148*%
G75*
%LPD*%
G75*
G36*
G01X20000Y590000D02*
Y2836420D01*
G02X37340Y2843600I10159J-5D01*
G01X56130Y2824810D01*
X59190Y2762410D01*
Y2762220D01*
G03X113330Y2652910I140810J1679D01*
G02Y2620890I-12512J-16010D01*
G03X59180Y2509900I86672J-110990D01*
G03X131330Y2386960I140817J0D01*
G02X135790Y2354850I-9906J-17741D01*
G01X74100Y2293150D01*
Y1824610D01*
X57340Y1781280D01*
G03X54260Y1764780I42656J-16500D01*
G01Y1634780D01*
G03X64260Y1606230I45742J-5D01*
G02Y1593550I-7935J-6340D01*
G03X54260Y1565000I35742J-28545D01*
G01Y1435000D01*
G03X100000Y1389260I45740J0D01*
G01X190000D01*
G03X228080Y1409660I0J45741D01*
G02X261920I16920J-11251D01*
G03X264340Y1406360I38057J25371D01*
G02Y1393640I-7927J-6360D01*
G03X254260Y1365000I35647J-28640D01*
G01Y1235000D01*
G03X264340Y1206360I45727J0D01*
G02Y1193640I-7927J-6360D01*
G03X254260Y1165000I35647J-28640D01*
G01Y1035000D01*
G03X300000Y989260I45740J0D01*
G01X390000D01*
G03X421220Y1001570I0J45744D01*
G01X444960Y1023730D01*
X451430Y1020100D01*
G03X473800Y1014260I22364J39902D01*
G01X553800D01*
G03X564800Y1015600I10J45741D01*
G02X590000Y995440I4885J-19724D01*
G03X589980Y993800I76199J-1749D01*
G03X666200Y917580I76220J0D01*
G03X702760Y926920I0J76224D01*
G02X732820Y909090I9740J-17833D01*
G01Y574610D01*
X733460Y573970D01*
Y560730D01*
X734100Y560090D01*
Y546850D01*
X925910Y355030D01*
X934400Y246440D01*
G03X934420Y246120I45662J2693D01*
G02X922150Y235330I-10123J-860D01*
G03X895000Y238240I-27164J-125329D01*
G03X766760Y110000I0J-128240D01*
G03X781740Y49850I128252J0D01*
G02X763800Y20000I-17945J-9531D01*
G01X590000D01*
Y590000D01*
X20000D01*
G37*
G36*
G01X195000Y1575160D02*
X100000Y1565000D01*
X143450Y1497990D01*
X190000Y1435000D01*
X205150Y1564610D01*
G03X195000Y1575160I-10150J392D01*
G37*
G36*
G01X121300Y1819850D02*
X100000Y1764780D01*
X145330Y1697260D01*
X190000Y1764780D01*
X136490Y1822430D01*
G03X121300Y1819850I-6486J-7820D01*
G37*
G36*
G01X230480Y2219680D02*
Y2240000D01*
X198200Y2241800D01*
X200000Y2209520D01*
X220320D01*
G03X230480Y2219680I0J10160D01*
G37*
G36*
G01X106110Y2843240D02*
X110020Y2763400D01*
X201840Y2762150D01*
X200000Y2853900D01*
X116260D01*
G03X106110Y2843240I0J-10162D01*
G37*
G36*
G01X320090Y3025080D02*
X263640Y3081530D01*
X197460Y3017900D01*
X263640Y2954270D01*
X320090Y3010720D01*
G03Y3025080I-7180J7180D01*
G37*
G36*
G01X873150Y3914100D02*
X932950D01*
X953320Y3895890D01*
G03X983800Y3884260I30475J34112D01*
G01X1063800D01*
G03X1077630Y3886400I3J45740D01*
G02X1090790Y3875500I3074J-9683D01*
G03X1090460Y3870000I45411J-5485D01*
G01Y3805710D01*
X1030490Y3745740D01*
X983800D01*
G03X953320Y3734110I-5J-45742D01*
G01X932950Y3715900D01*
X816850D01*
X504100Y3403150D01*
Y3133150D01*
X444750Y3073800D01*
X343240D01*
X312420Y3104620D01*
G02X317010Y3136800I14367J14368D01*
G03X340740Y3176900I-22016J40100D01*
G01Y3366900D01*
G03X295000Y3412640I-45740J0D01*
G01X125340D01*
Y3616290D01*
X143150Y3634100D01*
X593150D01*
X873150Y3914100D01*
G37*
G36*
G01X590000Y6980000D02*
X9410000D01*
Y6410000D01*
X9980000D01*
Y590000D01*
X9410000D01*
Y20000D01*
X4036200D01*
G02X4018260Y49850I5J20319D01*
G03X4033240Y110000I-113272J60150D01*
G03X3987700Y208010I-128237J0D01*
G02X4000800Y243860I13104J15530D01*
G01X5847580D01*
X5849250Y243260D01*
G03X5875000Y238780I25746J71741D01*
G03Y391220I0J76220D01*
G03X5849250Y386740I-4J-76221D01*
G01X5847580Y386140D01*
X3878230D01*
X3850670Y404530D01*
X3821140Y439110D01*
Y1804260D01*
X4228950D01*
X4485740Y2061050D01*
Y2072090D01*
X4499960D01*
X4502910Y2069290D01*
G03X4513330Y2060290I97146J101942D01*
G02Y2028270I-12512J-16010D01*
G03Y1806290I86672J-110990D01*
G02Y1774270I-12512J-16010D01*
G03Y1552290I86672J-110990D01*
G02Y1520270I-12512J-16010D01*
G03Y1298290I86672J-110990D01*
G02Y1266270I-12512J-16010D01*
G03Y1044290I86672J-110990D01*
G02Y1012270I-12512J-16010D01*
G03Y790290I86672J-110990D01*
G02Y758270I-12512J-16010D01*
G03X4459180Y647280I86672J-110990D01*
G03X4600000Y506460I140820J0D01*
G03X4700500Y548630I8J140823D01*
G01X4700530Y548670D01*
X4743240Y591380D01*
X5272740D01*
X5296100Y573600D01*
G03X5323800Y564260I27700J36405D01*
G01X5370490D01*
X5460650Y474100D01*
X5973150D01*
X6055900Y556850D01*
Y1003150D01*
X5983150Y1075900D01*
X5793150D01*
X5745900Y1123150D01*
Y1510990D01*
X5859280Y1519160D01*
G03X5901740Y1564780I-3278J45620D01*
G01Y1589780D01*
G03X5900000Y1602280I-45741J4D01*
G03X5901740Y1614780I-44001J12496D01*
G01Y1639780D01*
G03X5900000Y1652280I-45741J4D01*
G03X5901740Y1664780I-44001J12496D01*
G01Y1689780D01*
G03X5900000Y1702280I-45741J4D01*
G03X5901740Y1714780I-44001J12496D01*
G01Y1739780D01*
G03X5900000Y1752280I-45741J4D01*
G03X5901740Y1764780I-44001J12496D01*
G01Y1789780D01*
G03X5900000Y1802280I-45741J4D01*
G03X5901740Y1814780I-44001J12496D01*
G01Y1839780D01*
G03X5900000Y1852280I-45741J4D01*
G03X5901740Y1864780I-44001J12496D01*
G01Y1889780D01*
G03X5900000Y1902280I-45741J4D01*
G03X5901740Y1914780I-44001J12496D01*
G01Y1939780D01*
G03X5900000Y1952280I-45741J4D01*
G03X5901740Y1964780I-44001J12496D01*
G01Y1989780D01*
G03X5900000Y2002280I-45741J4D01*
G03X5901740Y2014780I-44001J12496D01*
G01Y2039780D01*
G03X5900000Y2052280I-45741J4D01*
G03X5901740Y2064780I-44001J12496D01*
G01Y2089780D01*
G03X5900000Y2102280I-45741J4D01*
G03X5901740Y2114780I-44001J12496D01*
G01Y2139780D01*
G03X5900000Y2152280I-45741J4D01*
G03X5901740Y2164780I-44001J12496D01*
G01Y2189780D01*
G03X5900000Y2202280I-45741J4D01*
G03X5901740Y2214780I-44001J12496D01*
G01Y2239780D01*
G03X5889920Y2270460I-45727J0D01*
G02Y2284100I7535J6820D01*
G03X5901740Y2314780I-33907J30680D01*
G01Y2339780D01*
G03X5900000Y2352280I-45741J4D01*
G03X5901740Y2364780I-44001J12496D01*
G01Y2389780D01*
G03X5900000Y2402280I-45741J4D01*
G03X5901740Y2414780I-44001J12496D01*
G01Y2439780D01*
G03X5900000Y2452280I-45741J4D01*
G03X5901740Y2464780I-44001J12496D01*
G01Y2489780D01*
G03X5856000Y2535520I-45740J0D01*
G01X5838440D01*
Y2604210D01*
X5704210Y2738440D01*
X5415790D01*
X5368530Y2691170D01*
X5306960Y2674070D01*
G03X5273460Y2630000I12238J-44070D01*
G01Y2545740D01*
X5104260D01*
Y2291050D01*
X5135170Y2260140D01*
G02X5131690Y2228620I-14369J-14366D01*
G03X5110460Y2190000I24512J-38620D01*
G01Y2110000D01*
G03X5156200Y2064260I45740J0D01*
G01X5236200D01*
G03X5281940Y2110000I0J45740D01*
G01Y2153090D01*
X5297690Y2168840D01*
X5425860D01*
Y2110000D01*
G03X5445070Y2072740I45740J0D01*
G02X5447650Y2041820I-11789J-16551D01*
G01X5441730Y2035900D01*
X5101830D01*
X4969100Y2168630D01*
Y3151230D01*
X4740820Y3379510D01*
Y3531280D01*
G03X4690000Y3582100I-50820J0D01*
G01X4510000D01*
G03X4507190Y3582020I41J-50819D01*
G02X4485740Y3602310I-1130J20289D01*
G01Y3884860D01*
X4496660D01*
X4497420Y3884750D01*
G03X4505000Y3884180I7590J50249D01*
G01X4695000D01*
G03X4741570Y3914670I0J50810D01*
G01X4744240Y3920760D01*
X5075250D01*
X5269240Y4114750D01*
Y5554260D01*
X5328060D01*
Y5480000D01*
G03X5339270Y5450000I45748J0D01*
G03X5328060Y5420000I34538J-30000D01*
G01Y5340000D01*
G03X5339270Y5310000I45748J0D01*
G03X5328060Y5280000I34538J-30000D01*
G01Y5200000D01*
G03X5373800Y5154260I45740J0D01*
G01X5453800D01*
G03X5499540Y5200000I0J45740D01*
G01Y5280000D01*
G03X5499210Y5285500I-45741J15D01*
G02X5512370Y5296400I10086J1217D01*
G03X5526200Y5294260I13827J43600D01*
G01X5606200D01*
G03X5610320Y5294450I-45J45738D01*
G01X5661790Y5299100D01*
X6004990D01*
X6015140Y5290350D01*
G03X6045000Y5279260I29860J34654D01*
G01X6155000D01*
G03X6200740Y5325000I0J45740D01*
G01Y5385000D01*
G03X6155000Y5430740I-45740J0D01*
G01X6045000D01*
G03X6015140Y5419650I0J-45744D01*
G01X6004990Y5410900D01*
X5682970D01*
X5641420Y5449690D01*
X5645570Y5456720D01*
G03X5651940Y5480000I-39369J23284D01*
G01Y5560000D01*
G03X5606200Y5605740I-45740J0D01*
G01X5526200D01*
X5526100D01*
G02X5505740Y5626060I-40J20320D01*
G01Y5774260D01*
X5950000D01*
Y5770000D01*
X6068060D01*
Y5680000D01*
G03X6072310Y5660740I45741J-5D01*
G02X6062530Y5633790I-18426J-8563D01*
G01X6025540Y5616390D01*
G03X5999260Y5575000I19454J-41390D01*
G01Y5515000D01*
G03X6045000Y5469260I45740J0D01*
G01X6155000D01*
G03X6198960Y5502360I0J45742D01*
G01X6199560Y5504430D01*
G02X6216500Y5508810I9762J-2806D01*
G01X6254260Y5471050D01*
Y5374260D01*
X6259260D01*
Y5325000D01*
G03X6271370Y5294000I45733J0D01*
G01X6304100Y5258480D01*
Y5256850D01*
X6376850Y5184100D01*
X6516750D01*
X6537120Y5165890D01*
G03X6567600Y5154260I30475J34112D01*
G01X6647600D01*
G03X6677220Y5165150I0J45727D01*
G02X6690380I6580J-7745D01*
G03X6720000Y5154260I29620J34837D01*
G01X6800000D01*
G03X6845740Y5200000I0J45740D01*
G01Y5284260D01*
X7601050D01*
X7684260Y5201050D01*
Y3711050D01*
X8124260Y3271050D01*
Y3254950D01*
G02X8106920Y3247770I-10159J6D01*
G01X8098950Y3255740D01*
X7676910D01*
X7554210Y3378440D01*
X6765790D01*
X6551560Y3164210D01*
Y2544210D01*
X6493070Y2485720D01*
X6470000D01*
Y2520000D01*
X6300000D01*
Y2486010D01*
X6292410Y2484030D01*
G03X6258260Y2439780I11594J-44250D01*
G01Y2414780D01*
G03X6260000Y2402280I45741J-4D01*
G03X6258260Y2389780I44001J-12496D01*
G01Y2364780D01*
G03X6260000Y2352280I45741J-4D01*
G03X6258260Y2339780I44001J-12496D01*
G01Y2314780D01*
G03X6260000Y2302280I45741J-4D01*
G03X6258260Y2289780I44001J-12496D01*
G01Y2264780D01*
G03X6270080Y2234100I45727J0D01*
G02Y2220460I-7535J-6820D01*
G03X6258260Y2189780I33907J-30680D01*
G01Y2164780D01*
G03X6260000Y2152280I45741J-4D01*
G03X6258260Y2139780I44001J-12496D01*
G01Y2064780D01*
G03X6270080Y2034100I45727J0D01*
G02Y2020460I-7535J-6820D01*
G03X6258260Y1989780I33907J-30680D01*
G01Y1814780D01*
G03X6270080Y1784100I45727J0D01*
G02Y1770460I-7535J-6820D01*
G03X6258260Y1739780I33907J-30680D01*
G01Y1614780D01*
G03X6260000Y1602280I45741J-4D01*
G03X6258260Y1589780I44001J-12496D01*
G01Y1564780D01*
G03X6304000Y1519040I45740J0D01*
G01X6340300D01*
Y1440850D01*
X6322090Y1420480D01*
G03X6310460Y1390000I34112J-30475D01*
G01Y1310000D01*
G03X6356200Y1264260I45740J0D01*
G01X6436200D01*
G03X6481940Y1310000I0J45740D01*
G01Y1390000D01*
G03X6470310Y1420480I-45742J5D01*
G01X6452100Y1440850D01*
Y1518310D01*
X6461120Y1519330D01*
G03X6501470Y1559790I-5117J45453D01*
G01X6502460Y1568840D01*
X6528510D01*
X6551560Y1545790D01*
Y974350D01*
X6804350Y721560D01*
X7764210D01*
X7898440Y855790D01*
Y1004260D01*
X8018950D01*
X8089570Y1074890D01*
G02X8124260Y1060520I14369J-14370D01*
G01Y801050D01*
X8144790Y780530D01*
X8145400Y779550D01*
G03X8169550Y755400I64600J40450D01*
G01X8170530Y754790D01*
X8191050Y734260D01*
X8688950D01*
X8765740Y811050D01*
Y1024260D01*
X9278950D01*
X9335740Y1081050D01*
Y1478950D01*
X9298940Y1515750D01*
G02X9285110Y1550430I540J20313D01*
G01X9325740Y1591050D01*
Y1988950D01*
X9315770Y1998920D01*
X9315240Y2002160D01*
G03X9252160Y2065240I-75240J-12160D01*
G01X9248920Y2065770D01*
X9238950Y2075740D01*
X8801050D01*
X8793080Y2067770D01*
G02X8775740Y2074950I-7181J7186D01*
G01Y2104260D01*
X9258950D01*
X9279470Y2124790D01*
X9280450Y2125400D01*
G03X9304600Y2149550I-40450J64600D01*
G01X9305210Y2150530D01*
X9325740Y2171050D01*
Y2568950D01*
X9305210Y2589470D01*
X9304600Y2590450D01*
G03X9291240Y2606430I-64608J-40440D01*
G02X9290530Y2635840I13657J15043D01*
G01X9325740Y2671050D01*
Y3088950D01*
X9258950Y3155740D01*
X8741050D01*
X8740430Y3155110D01*
G02X8705740Y3169480I-14369J14370D01*
G01Y5008950D01*
X8445740Y5268950D01*
Y5497430D01*
G02X8483150Y5508420I20320J-3D01*
G03X8610000Y5439180I126850J81577D01*
G03X8760820Y5590000I0J150820D01*
G01Y5790000D01*
G03X8610000Y5940820I-150820J0D01*
G03X8483150Y5871580I0J-150817D01*
G02X8445740Y5882570I-17090J10993D01*
G01Y6628950D01*
X8358950Y6715740D01*
X7771050D01*
X7684260Y6628950D01*
Y5708950D01*
X7601050Y5625740D01*
X6531050D01*
X6523080Y5617770D01*
G02X6505740Y5624950I-7181J7186D01*
G01Y5854260D01*
X6808950D01*
X6855740Y5901050D01*
Y6038950D01*
X6808950Y6085740D01*
X6505740D01*
Y6448950D01*
X6468950Y6485740D01*
X6184260D01*
Y6480000D01*
X5950000D01*
Y6475740D01*
X5684260D01*
Y6178950D01*
X5641050Y6135740D01*
X5101050D01*
X5044260Y6078950D01*
Y5631050D01*
X5050760Y5624550D01*
Y4205250D01*
X4984750Y4139240D01*
X4744240D01*
X4741570Y4145330D01*
G03X4695000Y4175820I-46570J-20320D01*
G01X4505000D01*
G03X4497420Y4175250I10J-50819D01*
G01X4496660Y4175140D01*
X4485740D01*
Y4354860D01*
X4496660D01*
X4497420Y4354750D01*
G03X4505000Y4354180I7590J50249D01*
G01X4695000D01*
G03X4745820Y4405000I0J50820D01*
G01Y4595000D01*
G03X4695000Y4645820I-50820J0D01*
G01X4505000D01*
G03X4463630Y4624520I0J-50826D01*
G02X4432730Y4621960I-16534J11808D01*
G01X4418950Y4635740D01*
X4383510D01*
X4382220Y4636080D01*
G03X4346000Y4640820I-36228J-136079D01*
G03X4309780Y4636080I8J-140819D01*
G01X4308490Y4635740D01*
X4271050D01*
X4204260Y4568950D01*
Y3241940D01*
X4092290D01*
X4084340Y3248590D01*
G03X4055000Y3259240I-29340J-35090D01*
G01X3895000D01*
G03X3849260Y3213500I0J-45740D01*
G01Y3153500D01*
G03X3854150Y3132910I45743J-12D01*
G01X3857460Y3126350D01*
X3845080Y3113970D01*
X3658150Y3300900D01*
X3310740D01*
Y3340500D01*
G03X3309810Y3349700I-45742J23D01*
G02X3329710Y3374100I19904J4082D01*
G01X3613150D01*
X3765900Y3526850D01*
Y4273150D01*
X3455900Y4583150D01*
Y6426760D01*
X3498610Y6469470D01*
X3498650Y6469500D01*
G03X3512050Y6484710I-98690J100454D01*
G02X3544080Y6485110I16171J-12305D01*
G03X3650000Y6434260I105920J84890D01*
G01X3651140D01*
G02X3669510Y6404900I174J-20318D01*
G03X3654260Y6340000I130489J-64904D01*
G01Y6140000D01*
G03X3945740I145740J0D01*
G01Y6340000D01*
G03X3800000Y6485740I-145740J0D01*
G03X3793220Y6485580I47J-145739D01*
G02X3773750Y6514230I-943J20300D01*
G03X3785740Y6570000I-123748J55779D01*
G03X3650000Y6705740I-135740J0D01*
G03X3544080Y6654890I0J-135740D01*
G02X3512050Y6655290I-15859J12705D01*
G03X3400000Y6710820I-112050J-85284D01*
G03X3290760Y6658870I0J-140829D01*
G02X3259240I-15760J12821D01*
G03X3150000Y6710820I-109240J-88879D01*
G03X3049120Y6668250I0J-140815D01*
G01X3049070Y6668200D01*
X3022000Y6641140D01*
X850530D01*
X708860Y6499470D01*
Y5979470D01*
X629470Y5900080D01*
X328000D01*
X312420Y5915660D01*
G02X317010Y5947840I14365J14368D01*
G03X340740Y5987940I-22016J40100D01*
G01Y6177940D01*
G03X295000Y6223680I-45740J0D01*
G01X105000D01*
G03X59260Y6177940I0J-45740D01*
G01Y5987940D01*
G03X83620Y5947500I45747J0D01*
G02X89990Y5916860I-9501J-17957D01*
G03X59180Y5828940I110013J-87911D01*
G03X113330Y5717950I140822J0D01*
G02Y5685930I-12512J-16010D01*
G03Y5463950I86672J-110990D01*
G02Y5431930I-12512J-16010D01*
G03X59180Y5320940I86672J-110990D01*
G03X200000Y5180120I140820J0D01*
G03X300500Y5222290I8J140823D01*
G01X300530Y5222330D01*
X343240Y5265040D01*
X1965910D01*
X2024100Y5206850D01*
Y4323150D01*
X1953740Y4252790D01*
X1819990Y4386540D01*
X1312370D01*
X1263010Y4435900D01*
X1262860D01*
X1257470Y4441350D01*
X1256810Y4442530D01*
G03X1217000Y4465740I-39810J-22536D01*
G01X1137000D01*
G03X1107380Y4454850I0J-45727D01*
G02X1094220I-6580J7745D01*
G03X1064600Y4465740I-29620J-34837D01*
G01X1054950D01*
G02X1047770Y4483080I6J10159D01*
G01X1096250Y4531560D01*
X1147710D01*
X1155660Y4524910D01*
G03X1185000Y4514260I29340J35090D01*
G01X1295000D01*
G03X1340740Y4560000I0J45740D01*
G01Y4620000D01*
G03X1295000Y4665740I-45740J0D01*
G01X1185000D01*
G03X1155660Y4655090I0J-45740D01*
G01X1147710Y4648440D01*
X1105740D01*
Y4681050D01*
X1128950Y4704260D01*
X1345740D01*
Y4868950D01*
X1278950Y4935740D01*
X951050D01*
X884260Y4868950D01*
Y4708950D01*
X861050Y4685740D01*
X681050D01*
X594260Y4598950D01*
Y4518950D01*
X591050Y4515740D01*
X521050D01*
X509360Y4504040D01*
G02X481310Y4503390I-14366J14372D01*
G03X460000Y4511640I-21310J-23397D01*
G03X428360Y4480000I0J-31640D01*
G03X431670Y4465910I31644J0D01*
G03X414260Y4430000I28329J-35910D01*
G01Y4390000D01*
G03X416000Y4377500I45741J-4D01*
G03X414260Y4365000I44001J-12496D01*
G01Y4325000D01*
G03X416000Y4312500I45741J-4D01*
G03X414260Y4300000I44001J-12496D01*
G01Y4260000D01*
G03X416000Y4247500I45741J-4D01*
G03X414260Y4235000I44001J-12496D01*
G01Y4195000D01*
G03X418960Y4174810I45739J5D01*
G01X420000Y4172690D01*
Y4090000D01*
X428320D01*
X428360Y4079880D01*
G03X491640I31640J120D01*
G01X491680Y4090000D01*
X650000D01*
Y4160470D01*
G03X665740Y4195000I-30006J34530D01*
G01Y4224100D01*
X674150D01*
X686330Y4236280D01*
X886410D01*
X938590Y4184100D01*
X938740D01*
X944130Y4178650D01*
X944790Y4177470D01*
G03X984600Y4154260I39810J22536D01*
G01X1064600D01*
G03X1094220Y4165150I0J45727D01*
G02X1107380I6580J-7745D01*
G03X1137000Y4154260I29620J34837D01*
G01X1217000D01*
G03X1256810Y4177470I0J45746D01*
G01X1257470Y4178650D01*
X1262860Y4184100D01*
X1263010D01*
X1313010Y4234100D01*
X1756850D01*
X1823780Y4167170D01*
Y4125900D01*
X1100650D01*
X1030490Y4055740D01*
X983800D01*
G03X953320Y4044110I-5J-45742D01*
G01X932950Y4025900D01*
X826850D01*
X546850Y3745900D01*
X96850D01*
X54690Y3703740D01*
G02X20000Y3718110I-14369J14369D01*
G01Y6410000D01*
X590000D01*
Y6980000D01*
G37*
G36*
G01X909470Y6498860D02*
X2908440D01*
G02X2919650Y6461590I4J-20320D01*
G03X2854260Y6340000I80351J-121590D01*
G01Y6140000D01*
G03X3145740I145740J0D01*
G01Y6340000D01*
G03X3132620Y6400440I-145742J7D01*
G02X3150970Y6429180I18489J8423D01*
G03X3259240Y6481130I-969J140819D01*
G02X3290760I15760J-12821D01*
G03X3301350Y6469500I109256J88850D01*
G01X3301390Y6469470D01*
X3344100Y6426760D01*
Y4536850D01*
X3654100Y4226850D01*
Y3573150D01*
X3566850Y3485900D01*
X3076850D01*
X3046810Y3455860D01*
G02X3015090Y3459660I-14366J14372D01*
G03X2950000Y3496220I-65090J-39662D01*
G03X2915200Y3487810I3J-76219D01*
G02X2885730Y3503600I-9278J18080D01*
G03X2810840Y3571220I-75734J-8596D01*
G02X2790740Y3591530I218J20317D01*
G01Y3610000D01*
G03X2789630Y3620000I-45738J-15D01*
G03X2790740Y3630000I-44628J10015D01*
G01Y3660000D01*
G03X2790540Y3664320I-45742J47D01*
G02X2810760Y3686560I20227J1922D01*
G01X2953500D01*
X2994960Y3678600D01*
X3050460Y3623090D01*
Y3580000D01*
G03X3096200Y3534260I45740J0D01*
G01X3176200D01*
G03X3205530Y3544910I-9J45737D01*
G01X3234190Y3568860D01*
X3284900D01*
X3286830Y3568020D01*
G03X3305000Y3564260I18162J41982D01*
G01X3455000D01*
G03X3473170Y3568020I8J45742D01*
G01X3475100Y3568860D01*
X3512580D01*
X3514250Y3568260D01*
G03X3540000Y3563780I25746J71741D01*
G03Y3716220I0J76220D01*
G03X3514250Y3711740I-4J-76221D01*
G01X3512580Y3711140D01*
X3475100D01*
X3473170Y3711980D01*
G03X3455000Y3715740I-18162J-41982D01*
G01X3305000D01*
G03X3286830Y3711980I-8J-45742D01*
G01X3284900Y3711140D01*
X3156200D01*
G03X3137460Y3708630I-10J-71141D01*
G01X3131770Y3707070D01*
X3078480Y3760370D01*
X3069010Y3821950D01*
G03X3059270Y3843880I-45209J-6951D01*
G01X3054940Y3849200D01*
Y3873710D01*
X3068190D01*
X3070750Y3871990D01*
G03X3096200Y3864260I25444J38012D01*
G01X3142890D01*
X3169050Y3838100D01*
X3264990D01*
X3275140Y3829350D01*
G03X3305000Y3818260I29860J34654D01*
G01X3455000D01*
G03X3484860Y3829350I0J45744D01*
G01X3495010Y3838100D01*
X3507150D01*
X3575900Y3906850D01*
Y4243150D01*
X3503150Y4315900D01*
X2876850D01*
X2764100Y4203150D01*
Y4173560D01*
G02X2738780Y4153870I-20320J5D01*
G03X2726490Y4155940I-18762J-73874D01*
G01X2722800Y4156260D01*
X2613150Y4265900D01*
X2226850D01*
X2119100Y4158150D01*
Y4070890D01*
G02X2109130Y4060730I-10160J-1D01*
G03X2100000Y4059630I878J-45730D01*
G03X2090870Y4060730I-10008J-44630D01*
G02X2080900Y4070890I190J10159D01*
G01Y4151130D01*
X2185900Y4256130D01*
Y5273870D01*
X2033870Y5425900D01*
X428090D01*
X340820Y5513170D01*
Y5574940D01*
G03X286670Y5685930I-140822J0D01*
G02Y5717950I12512J16010D01*
G03X300880Y5730690I-86682J110979D01*
G01X300930Y5730740D01*
X328000Y5757800D01*
X688410D01*
X851140Y5920530D01*
Y6440530D01*
X909470Y6498860D01*
G37*
G36*
G01X290000Y5495100D02*
Y5574940D01*
X198200Y5576740D01*
X200000Y5484940D01*
X279840D01*
G03X290000Y5495100I0J10160D01*
G37*
G36*
G01X320090Y5328120D02*
X263640Y5384570D01*
X197460Y5320940D01*
X263640Y5257310D01*
X320090Y5313760D01*
G03Y5328120I-7180J7180D01*
G37*
G36*
G01X309320Y5846900D02*
X263630Y5892570D01*
X193650Y5828940D01*
X263630Y5765310D01*
X309320Y5810980D01*
G03Y5846900I-17960J17960D01*
G37*
G36*
G01X675180Y1365880D02*
X687740Y1378460D01*
X666200Y1403180D01*
X644660Y1378460D01*
X657220Y1365880D01*
G03X675180I8980J8980D01*
G37*
G36*
G01X659040Y1377780D02*
X626200Y1340000D01*
X666200Y1296820D01*
X706200Y1340000D01*
X673360Y1377780D01*
G03X659040I-7160J-10490D01*
G37*
G36*
G01X435830Y1293930D02*
X473800Y1260000D01*
X516340Y1300000D01*
X473800Y1340000D01*
X435830Y1306070D01*
G03Y1293930I8140J-6070D01*
G37*
G36*
G01X452600Y1306550D02*
X390000Y1365000D01*
X342460Y1300000D01*
X390000Y1235000D01*
X452600Y1293450D01*
G03Y1306550I-7770J6550D01*
G37*
G36*
G01X435830Y1093930D02*
X473800Y1060000D01*
X516340Y1100000D01*
X473800Y1140000D01*
X435830Y1106070D01*
G03Y1093930I8140J-6070D01*
G37*
G36*
G01X452600Y1106550D02*
X390000Y1165000D01*
X342460Y1100000D01*
X390000Y1035000D01*
X452600Y1093450D01*
G03Y1106550I-7770J6550D01*
G37*
G36*
G01X659020Y1029720D02*
X644650Y1015350D01*
X666200Y991260D01*
X687750Y1015350D01*
X673380Y1029720D01*
G03X659020I-7180J-7180D01*
G37*
G36*
G01X672270Y1022030D02*
X706200Y1060000D01*
X666200Y1102540D01*
X626200Y1060000D01*
X660130Y1022030D01*
G03X672270I6070J8140D01*
G37*
G36*
G01X675180Y1775880D02*
X687740Y1788460D01*
X666200Y1813180D01*
X644660Y1788460D01*
X657220Y1775880D01*
G03X675180I8980J8980D01*
G37*
G36*
G01X659040Y1777560D02*
X626200Y1739780D01*
X666200Y1696600D01*
X706200Y1739780D01*
X673360Y1777560D01*
G03X659040I-7160J-10490D01*
G37*
G36*
G01X657220Y1434120D02*
X644660Y1421540D01*
X666200Y1396820D01*
X687740Y1421540D01*
X675180Y1434120D01*
G03X657220I-8980J-8980D01*
G37*
G36*
G01X673360Y1422220D02*
X706200Y1460000D01*
X666200Y1503180D01*
X626200Y1460000D01*
X659040Y1422220D01*
G03X673360I7160J10490D01*
G37*
G36*
G01X435830Y1493930D02*
X473800Y1460000D01*
X516340Y1500000D01*
X473800Y1540000D01*
X435830Y1506070D01*
G03Y1493930I8140J-6070D01*
G37*
G36*
G01X452600Y1506550D02*
X390000Y1565000D01*
X342460Y1500000D01*
X390000Y1435000D01*
X452600Y1493450D01*
G03Y1506550I-7770J6550D01*
G37*
G36*
G01X435830Y1693710D02*
X473800Y1659780D01*
X516340Y1699780D01*
X473800Y1739780D01*
X435830Y1705850D01*
G03Y1693710I8140J-6070D01*
G37*
G36*
G01X452600Y1706330D02*
X390000Y1764780D01*
X342460Y1699780D01*
X390000Y1634780D01*
X452600Y1693230D01*
G03Y1706330I-7770J6550D01*
G37*
G36*
G01X385920Y2247180D02*
X371550Y2261550D01*
X347460Y2240000D01*
X371550Y2218450D01*
X385920Y2232820D01*
G03Y2247180I-7180J7180D01*
G37*
G36*
G01X844680Y3554520D02*
X865000D01*
X866800Y3586800D01*
X834520Y3585000D01*
Y3564680D01*
G03X844680Y3554520I10160J0D01*
G37*
G36*
G01X547750Y4059940D02*
X617970Y4130000D01*
X540000Y4153180D01*
X462030Y4130000D01*
X532250Y4059940D01*
G03X547750I7750J10060D01*
G37*
G36*
G01X639220Y4154350D02*
X620000Y4170000D01*
X536820Y4150000D01*
X620000Y4130000D01*
X639220Y4145650D01*
G03Y4154350I-11930J4350D01*
G37*
G36*
G01X440780Y4145650D02*
X460000Y4130000D01*
X543180Y4150000D01*
X460000Y4170000D01*
X440780Y4154350D01*
G03Y4145650I11930J-4350D01*
G37*
G36*
G01X770000Y4490000D02*
X680900Y4400900D01*
X648520D01*
X645920Y4402690D01*
G03X620010Y4410740I-25916J-37691D01*
G01X520000D01*
Y4450000D01*
X540000Y4470000D01*
X610000D01*
X640000Y4500000D01*
Y4580000D01*
X700000Y4640000D01*
X880000D01*
X930000Y4690000D01*
Y4850000D01*
X970000Y4890000D01*
X1260000D01*
X1300000Y4850000D01*
Y4760740D01*
X1185000D01*
G03X1155550Y4750000I0J-45747D01*
G01X1110000D01*
X1060000Y4700000D01*
Y4560000D01*
X990000Y4490000D01*
X770000D01*
G37*
G36*
G01X638950Y4349480D02*
X620000Y4365000D01*
X537460Y4345000D01*
X620000Y4325000D01*
X638950Y4340520D01*
G03Y4349480I-9120J4480D01*
G37*
G36*
G01Y4284480D02*
X620000Y4300000D01*
X537460Y4280000D01*
X620000Y4260000D01*
X638950Y4275520D01*
G03Y4284480I-9120J4480D01*
G37*
G36*
G01X1165740Y374180D02*
X2036770D01*
X2055910Y355030D01*
X2064400Y246440D01*
G03X2064420Y246120I45654J2693D01*
G02X2052150Y235330I-10123J-860D01*
G03X2025000Y238240I-27164J-125329D01*
G03X1896760Y110000I0J-128240D01*
G03X1911740Y49850I128252J0D01*
G02X1893800Y20000I-17945J-9531D01*
G01X1776200D01*
G02X1758260Y49850I5J20319D01*
G03X1773240Y110000I-113272J60150D01*
G03X1516760I-128240J0D01*
G03X1531740Y49850I128252J0D01*
G02X1513800Y20000I-17945J-9531D01*
G01X1026200D01*
G02X1008260Y49850I5J20319D01*
G03X1023240Y110000I-113272J60150D01*
G03X1006230Y173830I-128242J6D01*
G02X1023850Y204260I17624J10111D01*
G01X1087740D01*
G02X1104750Y172830I-1J-20318D01*
G03X1094980Y140000I50252J-32823D01*
G03X1215020I60020J0D01*
G03X1171680Y197660I-60026J0D01*
G02X1159690Y227270I5646J19519D01*
G03X1165740Y250000I-39689J22734D01*
G01Y374180D01*
G37*
G36*
G01X969840Y380000D02*
X980000Y250000D01*
X1051800Y308200D01*
X1120000Y370000D01*
X980720Y390130D01*
G03X969840Y380000I-724J-10130D01*
G37*
G36*
G01X973150Y3224100D02*
X1090460D01*
Y3155000D01*
G03X1136200Y3109260I45740J0D01*
G01X1216200D01*
G03X1246680Y3120890I5J45742D01*
G01X1267050Y3139100D01*
X1409080D01*
X1409270Y3129130D01*
G03X1410370Y3120000I45730J878D01*
G03X1409260Y3110000I44628J-10015D01*
G01Y3080000D01*
G03X1411270Y3066580I45741J-10D01*
G01X1411720Y3065120D01*
Y3053440D01*
X1391250D01*
X1368950Y3075740D01*
X1091050D01*
X964260Y2948950D01*
Y1891050D01*
X1051050Y1804260D01*
X3678860D01*
Y439110D01*
X3645210Y399700D01*
G03X3634260Y370000I34803J-29700D01*
G01Y250000D01*
G03X3640310Y227270I45739J4D01*
G02X3628320Y197660I-17636J-10091D01*
G03X3584980Y140000I16686J-57660D01*
G03X3705020I60020J0D01*
G03X3695250Y172830I-60022J7D01*
G02X3712260Y204260I17011J11112D01*
G01X3776150D01*
G02X3793770Y173830I-4J-20319D01*
G03X3776760Y110000I111232J-63824D01*
G03X3791740Y49850I128252J0D01*
G02X3773800Y20000I-17945J-9531D01*
G01X3286200D01*
G02X3268260Y49850I5J20319D01*
G03X3283240Y110000I-113272J60150D01*
G03X3266230Y173830I-128242J6D01*
G02X3283850Y204260I17624J10111D01*
G01X3347740D01*
G02X3364750Y172830I-1J-20318D01*
G03X3354980Y140000I50252J-32823D01*
G03X3475020I60020J0D01*
G03X3431680Y197660I-60026J0D01*
G02X3419690Y227270I5646J19519D01*
G03X3425740Y250000I-39689J22734D01*
G01Y370000D01*
G03X3386540Y415270I-45740J0D01*
G01X3266420Y432630D01*
X3172430Y526620D01*
X1053870D01*
X925900Y654590D01*
Y3176850D01*
X973150Y3224100D01*
G37*
G36*
G01X4440000Y2080000D02*
X4210000Y1850000D01*
X1070000D01*
X1010000Y1910000D01*
Y2930000D01*
X1110000Y3030000D01*
X1350000D01*
X1370000Y3010000D01*
Y2970000D01*
X1230000D01*
X1150000Y2890000D01*
Y2010000D01*
X1190000Y1970000D01*
X4090000D01*
X4250000Y2130000D01*
Y4550000D01*
X4290000Y4590000D01*
X4400000D01*
X4440000Y4550000D01*
Y2080000D01*
G37*
G36*
G01X1589400Y2936560D02*
X1666560D01*
Y2859400D01*
X1666140Y2857990D01*
G03X1664260Y2845000I43862J-12979D01*
G01Y2725000D01*
G03X1710000Y2679260I45740J0D01*
G01X1740000D01*
G03X1750000Y2680370I-15J45738D01*
G03X1760000Y2679260I10015J44628D01*
G01X1869100D01*
Y2558150D01*
X1846850Y2535900D01*
X1716850D01*
X1671030Y2490090D01*
X1633730Y2470490D01*
G03X1609260Y2430000I21264J-40490D01*
G01Y2230000D01*
G03X1655000Y2184260I45740J0D01*
G01X1705000D01*
G03X1750690Y2227840I0J45741D01*
G01X1759960Y2424100D01*
X1849260D01*
Y2230000D01*
G03X1895000Y2184260I45740J0D01*
G01X1945000D01*
G03X1990740Y2230000I0J45740D01*
G01Y2300750D01*
G02X2013810Y2320880I20319J-2D01*
G03X2020000Y2320460I6184J45320D01*
G01X2100000D01*
G03X2105500Y2320790I15J45741D01*
G02X2116400Y2307630I1217J-10086D01*
G03X2114260Y2293800I43600J-13827D01*
G01Y2213800D01*
G03X2125480Y2183790I45744J0D01*
G01X2141560Y2165290D01*
Y2015740D01*
X1208950D01*
X1195740Y2028950D01*
Y2871050D01*
X1248950Y2924260D01*
X1415740D01*
Y2936560D01*
X1440600D01*
X1442010Y2936140D01*
G03X1455000Y2934260I12979J43862D01*
G01X1575000D01*
G03X1587990Y2936140I11J45742D01*
G01X1589400Y2936560D01*
G37*
G36*
G01X1254170Y3201070D02*
X1216200Y3235000D01*
X1173660Y3195000D01*
X1216200Y3155000D01*
X1254170Y3188930D01*
G03Y3201070I-8140J6070D01*
G37*
G36*
G01X1131950Y3689100D02*
X1300990D01*
G02X1315360Y3654410I1J-20321D01*
G01X1236850Y3575900D01*
X1125430D01*
G02X1106470Y3603530I0J20320D01*
G03X1109540Y3620000I-42669J16475D01*
G01Y3666690D01*
X1131950Y3689100D01*
G37*
G36*
G01X1645000Y3883860D02*
G03X1649540Y3884000I78J71142D01*
G01X1653840Y3884280D01*
X1679200Y3861180D01*
G03X1710000Y3849260I30800J33832D01*
G01X1740000D01*
G03X1768640Y3859340I0J45727D01*
G02X1781360I6360J-7927D01*
G03X1810000Y3849260I28640J35647D01*
G01X1840000D01*
G03X1850000Y3850370I-15J45738D01*
G03X1860000Y3849260I10015J44628D01*
G01X1890000D01*
G03X1900000Y3850370I-15J45738D01*
G03X1910000Y3849260I10015J44628D01*
G01X1940000D01*
G03X1950000Y3850370I-15J45738D01*
G03X1960000Y3849260I10015J44628D01*
G01X1990000D01*
G03X2000000Y3850370I-15J45738D01*
G03X2009130Y3849270I10008J44630D01*
G02X2019100Y3839110I-190J-10159D01*
G01Y3693150D01*
X1987200Y3661260D01*
X1983510Y3660940D01*
G03X1913780Y3585000I6487J-75940D01*
G03X1990000Y3508780I76220J0D01*
G03X2065940Y3578510I0J76217D01*
G01X2066260Y3582200D01*
X2130900Y3646850D01*
Y3839110D01*
G02X2140870Y3849270I10160J1D01*
G03X2150000Y3850370I-878J45730D01*
G03X2160000Y3849260I10015J44628D01*
G01X2190000D01*
G03X2200000Y3850370I-15J45738D01*
G03X2210000Y3849260I10015J44628D01*
G01X2211660D01*
G02X2230260Y3820740I6J-20322D01*
G03X2223780Y3790000I69737J-30754D01*
G03X2299040Y3713790I76216J0D01*
G02X2319100Y3693470I-261J-20319D01*
G01Y3531810D01*
G03X2298780Y3480000I55890J-51810D01*
G03X2375000Y3403780I76220J0D01*
G03X2417500Y3416730I0J76214D01*
G03X2460000Y3403780I42500J63264D01*
G03X2462910Y3403840I-116J76218D01*
G02X2473460Y3393680I389J-10154D01*
G01Y3382510D01*
X2441850Y3350900D01*
X1620920D01*
X1620730Y3360870D01*
G03X1619630Y3370000I-45730J-878D01*
G03X1620740Y3380000I-44628J10015D01*
G01Y3410000D01*
G03X1619630Y3420000I-45738J-15D01*
G03X1620740Y3430000I-44628J10015D01*
G01Y3460000D01*
G03X1619630Y3470000I-45738J-15D01*
G03X1620740Y3480000I-44628J10015D01*
G01Y3510000D01*
G03X1619630Y3520000I-45738J-15D01*
G03X1620740Y3530000I-44628J10015D01*
G01Y3560000D01*
G03X1619630Y3570000I-45738J-15D01*
G03X1620740Y3580000I-44628J10015D01*
G01Y3610000D01*
G03X1619630Y3620000I-45738J-15D01*
G03X1620740Y3630000I-44628J10015D01*
G01Y3660000D01*
G03X1619630Y3670000I-45738J-15D01*
G03X1620740Y3680000I-44628J10015D01*
G01Y3710000D01*
G03X1619630Y3720000I-45738J-15D01*
G03X1620740Y3730000I-44628J10015D01*
G01Y3760000D01*
G03X1575000Y3805740I-45740J0D01*
G01X1455000D01*
G03X1436380Y3801780I-3J-45741D01*
G01X1434410Y3800900D01*
X1396140D01*
G02X1375900Y3823070I-3J20321D01*
G03X1376220Y3830000I-75898J6977D01*
G03X1371470Y3856480I-76219J-6D01*
G02X1390530Y3883860I19055J7060D01*
G01X1645000D01*
G37*
G36*
G01X1254650Y3838700D02*
X1216200Y3870000D01*
X1169850Y3830000D01*
X1216200Y3790000D01*
X1254650Y3821300D01*
G03Y3838700I-23860J8700D01*
G37*
G36*
G01X1167500Y3908450D02*
X1136200Y3870000D01*
X1176200Y3823650D01*
X1216200Y3870000D01*
X1184900Y3908450D01*
G03X1167500I-8700J-23860D01*
G37*
G36*
G01X1268160Y3967030D02*
X1216200Y4010000D01*
X1169990Y3971340D01*
X1136200Y3930000D01*
X1251440Y3930240D01*
G03X1268160Y3967030I-5650J24762D01*
G37*
G36*
G01X1184900Y3891550D02*
X1216200Y3930000D01*
X1176200Y3976350D01*
X1136200Y3930000D01*
X1167500Y3891550D01*
G03X1184900I8700J23860D01*
G37*
G36*
G01X945830Y3963930D02*
X983800Y3930000D01*
X1026340Y3970000D01*
X983800Y4010000D01*
X945830Y3976070D01*
G03Y3963930I8140J-6070D01*
G37*
G36*
G01Y3653930D02*
X983800Y3620000D01*
X1026340Y3660000D01*
X983800Y3700000D01*
X945830Y3666070D01*
G03Y3653930I8140J-6070D01*
G37*
G36*
G01X953080Y4374680D02*
X984600Y4342760D01*
X1027140Y4380000D01*
X984600Y4417240D01*
X953080Y4385320D01*
G03Y4374680I8660J-5320D01*
G37*
G36*
G01Y4234680D02*
X984600Y4202760D01*
X1027140Y4240000D01*
X984600Y4277240D01*
X953080Y4245320D01*
G03Y4234680I8660J-5320D01*
G37*
G36*
G01X1248520Y4385320D02*
X1217000Y4417240D01*
X1174460Y4380000D01*
X1217000Y4342760D01*
X1248520Y4374680D01*
G03Y4385320I-8660J5320D01*
G37*
G36*
G01Y4245320D02*
X1217000Y4277240D01*
X1174460Y4240000D01*
X1217000Y4202760D01*
X1248520Y4234680D01*
G03Y4245320I-8660J5320D01*
G37*
G36*
G01X1156710Y4583660D02*
X1185000Y4560000D01*
X1243180Y4590000D01*
X1185000Y4620000D01*
X1156710Y4596340D01*
G03Y4583660I11000J-6340D01*
G37*
G36*
G01X1155300Y4776160D02*
X1185000Y4750000D01*
X1246350Y4780000D01*
X1185000Y4810000D01*
X1155300Y4783840D01*
G03Y4776160I25110J-3840D01*
G37*
G36*
G01X1702080Y2454730D02*
X1655000Y2430000D01*
X1677840Y2320070D01*
X1705000Y2230000D01*
X1715160Y2445000D01*
G03X1702080Y2454730I-10159J0D01*
G37*
G36*
G01X1914820Y2453570D02*
X1895000Y2430000D01*
X1920000Y2327460D01*
X1945000Y2430000D01*
X1925180Y2453570D01*
G03X1914820I-5180J-8740D01*
G37*
G36*
G01X2498150Y3189100D02*
X2561920Y3252860D01*
G02X2579260Y3245680I7181J-7185D01*
G01Y3230000D01*
G03X2580370Y3220000I45738J15D01*
G03X2579260Y3210000I44628J-10015D01*
G01Y3180000D01*
G03X2580370Y3170000I45738J15D01*
G03X2579260Y3160000I44628J-10015D01*
G01Y3130000D01*
G03X2580370Y3120000I45738J15D01*
G03X2579260Y3110000I44628J-10015D01*
G01Y3080000D01*
G03X2589340Y3051360I45727J0D01*
G02Y3038640I-7927J-6360D01*
G03X2579260Y3010000I35647J-28640D01*
G01Y2980000D01*
G03X2591480Y2948880I45736J0D01*
G01X2629100Y2908350D01*
Y2638150D01*
X2626850Y2635900D01*
X2571530D01*
G02X2551210Y2655960I-1J20321D01*
G03X2531620Y2706030I-76214J-951D01*
G03X2535740Y2725000I-41612J18970D01*
G01Y2845000D01*
G03X2490870Y2890730I-45738J0D01*
G02X2480900Y2900890I190J10159D01*
G01Y2948190D01*
G03X2501220Y3000000I-55890J51810D01*
G03X2425000Y3076220I-76220J0D01*
G03X2382500Y3063270I0J-76214D01*
G03X2340000Y3076220I-42500J-63264D01*
G03X2263780Y3000000I0J-76220D01*
G03X2312590Y2928880I76219J0D01*
G01X2319100Y2926370D01*
Y2900890D01*
G02X2309130Y2890730I-10160J-1D01*
G03X2300000Y2889630I878J-45730D01*
G03X2290000Y2890740I-10015J-44628D01*
G01X2260000D01*
G03X2250000Y2889630I15J-45738D01*
G03X2240000Y2890740I-10015J-44628D01*
G01X2060000D01*
G03X2050000Y2889630I15J-45738D01*
G03X2040000Y2890740I-10015J-44628D01*
G01X2010000D01*
G03X2000000Y2889630I15J-45738D01*
G03X1990000Y2890740I-10015J-44628D01*
G01X1960000D01*
G03X1950000Y2889630I15J-45738D01*
G03X1940000Y2890740I-10015J-44628D01*
G01X1910000D01*
G03X1900000Y2889630I15J-45738D01*
G03X1890000Y2890740I-10015J-44628D01*
G01X1783440D01*
Y2989210D01*
X1719210Y3053440D01*
X1640760D01*
G02X1620540Y3075680I7J20318D01*
G03X1620740Y3080000I-45542J4273D01*
G01Y3110000D01*
G03X1619630Y3120000I-45738J-15D01*
G03X1620740Y3130000I-44628J10015D01*
G01Y3160000D01*
G03X1619630Y3170000I-45738J-15D01*
G03X1620730Y3179130I-44630J10008D01*
G01X1620920Y3189100D01*
X2498150D01*
G37*
G36*
G01X1723080Y2859840D02*
X1710000Y2845000D01*
X1725000Y2781820D01*
X1740000Y2845000D01*
X1726920Y2859840D01*
G03X1723080I-1920J-12550D01*
G37*
G36*
G01X1928110Y2710500D02*
X1940000Y2725000D01*
X1925000Y2787540D01*
X1910000Y2725000D01*
X1921890Y2710500D01*
G03X1928110I3110J9670D01*
G37*
G36*
G01X1440160Y3043080D02*
X1455000Y3030000D01*
X1518180Y3045000D01*
X1455000Y3060000D01*
X1440160Y3046920D01*
G03Y3043080I12550J-1920D01*
G37*
G36*
G01X1589840Y3046920D02*
X1575000Y3060000D01*
X1511820Y3045000D01*
X1575000Y3030000D01*
X1589840Y3043080D01*
G03Y3046920I-12550J1920D01*
G37*
G36*
G01X1440160Y2993080D02*
X1455000Y2980000D01*
X1518180Y2995000D01*
X1455000Y3010000D01*
X1440160Y2996920D01*
G03Y2993080I12550J-1920D01*
G37*
G36*
G01X1589840Y2996920D02*
X1575000Y3010000D01*
X1511820Y2995000D01*
X1575000Y2980000D01*
X1589840Y2993080D01*
G03Y2996920I-12550J1920D01*
G37*
G36*
G01X1440500Y3191890D02*
X1455000Y3180000D01*
X1517540Y3195000D01*
X1455000Y3210000D01*
X1440500Y3198110D01*
G03Y3191890I9670J-3110D01*
G37*
G36*
G01Y3491890D02*
X1455000Y3480000D01*
X1517540Y3495000D01*
X1455000Y3510000D01*
X1440500Y3498110D01*
G03Y3491890I9670J-3110D01*
G37*
G36*
G01Y3441890D02*
X1455000Y3430000D01*
X1517540Y3445000D01*
X1455000Y3460000D01*
X1440500Y3448110D01*
G03Y3441890I9670J-3110D01*
G37*
G36*
G01Y3391890D02*
X1455000Y3380000D01*
X1517540Y3395000D01*
X1455000Y3410000D01*
X1440500Y3398110D01*
G03Y3391890I9670J-3110D01*
G37*
G36*
G01Y3341890D02*
X1455000Y3330000D01*
X1517540Y3345000D01*
X1455000Y3360000D01*
X1440500Y3348110D01*
G03Y3341890I9670J-3110D01*
G37*
G36*
G01X1589500Y3248110D02*
X1575000Y3260000D01*
X1512460Y3245000D01*
X1575000Y3230000D01*
X1589500Y3241890D01*
G03Y3248110I-9670J3110D01*
G37*
G36*
G01Y3298110D02*
X1575000Y3310000D01*
X1512460Y3295000D01*
X1575000Y3280000D01*
X1589500Y3291890D01*
G03Y3298110I-9670J3110D01*
G37*
G36*
G01X1776920Y3880160D02*
X1790000Y3895000D01*
X1775000Y3958180D01*
X1760000Y3895000D01*
X1773080Y3880160D01*
G03X1776920I1920J12550D01*
G37*
G36*
G01X1652740Y3947140D02*
X1710000Y3895000D01*
X1728180Y3955000D01*
X1710000Y4015000D01*
X1652740Y3962860D01*
G03Y3947140I9970J-7860D01*
G37*
G36*
G01X1821890Y4029500D02*
X1810000Y4015000D01*
X1825000Y3952460D01*
X1840000Y4015000D01*
X1828110Y4029500D01*
G03X1821890I-3110J-9670D01*
G37*
G36*
G01X1440500Y3741890D02*
X1455000Y3730000D01*
X1517540Y3745000D01*
X1455000Y3760000D01*
X1440500Y3748110D01*
G03Y3741890I9670J-3110D01*
G37*
G36*
G01Y3591890D02*
X1455000Y3580000D01*
X1517540Y3595000D01*
X1455000Y3610000D01*
X1440500Y3598110D01*
G03Y3591890I9670J-3110D01*
G37*
G36*
G01X1871890Y4029500D02*
X1860000Y4015000D01*
X1875000Y3952460D01*
X1890000Y4015000D01*
X1878110Y4029500D01*
G03X1871890I-3110J-9670D01*
G37*
G36*
G01X1440500Y3641890D02*
X1455000Y3630000D01*
X1517540Y3645000D01*
X1455000Y3660000D01*
X1440500Y3648110D01*
G03Y3641890I9670J-3110D01*
G37*
G36*
G01X1921890Y4029500D02*
X1910000Y4015000D01*
X1925000Y3952460D01*
X1940000Y4015000D01*
X1928110Y4029500D01*
G03X1921890I-3110J-9670D01*
G37*
G36*
G01X2311350Y414820D02*
X3126130D01*
X3185910Y355030D01*
X3194400Y246440D01*
G03X3194420Y246120I45654J2693D01*
G02X3182150Y235330I-10123J-860D01*
G03X3155000Y238240I-27164J-125329D01*
G03X3026760Y110000I0J-128240D01*
G03X3041740Y49850I128252J0D01*
G02X3023800Y20000I-17945J-9531D01*
G01X2906200D01*
G02X2888260Y49850I5J20319D01*
G03X2903240Y110000I-113272J60150D01*
G03X2646760I-128240J0D01*
G03X2661740Y49850I128252J0D01*
G02X2643800Y20000I-17945J-9531D01*
G01X2156200D01*
G02X2138260Y49850I5J20319D01*
G03X2153240Y110000I-113272J60150D01*
G03X2136230Y173830I-128242J6D01*
G02X2153850Y204260I17624J10111D01*
G01X2217740D01*
G02X2234750Y172830I-1J-20318D01*
G03X2224980Y140000I50252J-32823D01*
G03X2345020I60020J0D01*
G03X2301680Y197660I-60026J0D01*
G02X2289690Y227270I5646J19519D01*
G03X2295740Y250000I-39689J22734D01*
G01Y370000D01*
G03X2292480Y386960I-45747J0D01*
G02X2311350Y414820I18869J7540D01*
G37*
G36*
G01X2099840Y380000D02*
X2110000Y250000D01*
X2181800Y308200D01*
X2250000Y370000D01*
X2110720Y390130D01*
G03X2099840Y380000I-724J-10130D01*
G37*
G36*
G01X2924200Y2335060D02*
X3046730D01*
X3058860Y2322930D01*
Y2015740D01*
X2258440D01*
Y2165290D01*
X2274520Y2183790D01*
G03X2278080Y2188460I-34521J30008D01*
G02X2311920I16920J-11251D01*
G03X2350000Y2168060I38080J25341D01*
G01X2430000D01*
G03X2460010Y2179280I0J45744D01*
G01X2466900Y2185270D01*
X2473790Y2179280D01*
G03X2503800Y2168060I30010J34524D01*
G01X2583800D01*
G03X2629540Y2213800I0J45740D01*
G01Y2293800D01*
G03X2629310Y2298420I-45742J39D01*
G02X2651580Y2320690I20213J2057D01*
G03X2656200Y2320460I4581J45512D01*
G01X2736200D01*
G03X2765080Y2330730I0J45741D01*
G01X2773100Y2337260D01*
X2781120Y2330730D01*
G03X2810000Y2320460I28880J35471D01*
G01X2890000D01*
G03X2918880Y2330730I0J45741D01*
G01X2924200Y2335060D01*
G37*
G36*
G01X2207160Y2176020D02*
X2240000Y2213800D01*
X2200000Y2256980D01*
X2160000Y2213800D01*
X2192840Y2176020D01*
G03X2207160I7160J10490D01*
G37*
G36*
G01X2467780Y2260960D02*
X2430000Y2293800D01*
X2386820Y2253800D01*
X2430000Y2213800D01*
X2467780Y2246640D01*
G03Y2260960I-10490J7160D01*
G37*
G36*
G01Y2413360D02*
X2430000Y2446200D01*
X2386820Y2406200D01*
X2430000Y2366200D01*
X2467780Y2399040D01*
G03Y2413360I-10490J7160D01*
G37*
G36*
G01X2122030Y2400130D02*
X2160000Y2366200D01*
X2202540Y2406200D01*
X2160000Y2446200D01*
X2122030Y2412270D01*
G03Y2400130I8140J-6070D01*
G37*
G36*
G01X2137970Y2412270D02*
X2100000Y2446200D01*
X2057460Y2406200D01*
X2100000Y2366200D01*
X2137970Y2400130D01*
G03Y2412270I-8140J6070D01*
G37*
G36*
G01X2014850Y2510050D02*
X2020000Y2366200D01*
X2060810Y2403790D01*
X2100000Y2446200D01*
X2031570Y2517450D01*
G03X2014850Y2510050I-6567J-7750D01*
G37*
G36*
G01X2276920Y2710160D02*
X2290000Y2725000D01*
X2275000Y2788180D01*
X2260000Y2725000D01*
X2273080Y2710160D01*
G03X2276920I1920J12550D01*
G37*
G36*
G01X2326920D02*
X2340000Y2725000D01*
X2325000Y2788180D01*
X2310000Y2725000D01*
X2323080Y2710160D01*
G03X2326920I1920J12550D01*
G37*
G36*
G01X2028110Y2710500D02*
X2040000Y2725000D01*
X2025000Y2787540D01*
X2010000Y2725000D01*
X2021890Y2710500D01*
G03X2028110I3110J9670D01*
G37*
G36*
G01X1978110D02*
X1990000Y2725000D01*
X1975000Y2787540D01*
X1960000Y2725000D01*
X1971890Y2710500D01*
G03X1978110I3110J9670D01*
G37*
G36*
G01X2371890Y2859500D02*
X2360000Y2845000D01*
X2375000Y2782460D01*
X2390000Y2845000D01*
X2378110Y2859500D01*
G03X2371890I-3110J-9670D01*
G37*
G36*
G01X2421890D02*
X2410000Y2845000D01*
X2425000Y2782460D01*
X2440000Y2845000D01*
X2428110Y2859500D01*
G03X2421890I-3110J-9670D01*
G37*
G36*
G01X2435920Y2587180D02*
X2421550Y2601550D01*
X2397460Y2580000D01*
X2421550Y2558450D01*
X2435920Y2572820D01*
G03Y2587180I-7180J7180D01*
G37*
G36*
G01X2370480Y2969680D02*
Y3000000D01*
X2338590Y3002110D01*
X2335520Y2970570D01*
X2355830Y2960560D01*
G03X2370480Y2969680I4486J9120D01*
G37*
G36*
G01X2432180Y2964080D02*
X2446550Y2978450D01*
X2425000Y3002540D01*
X2403450Y2978450D01*
X2417820Y2964080D01*
G03X2432180I7180J7180D01*
G37*
G36*
G01X2367820Y3515920D02*
X2353450Y3501550D01*
X2375000Y3477460D01*
X2396550Y3501550D01*
X2382180Y3515920D01*
G03X2367820I-7180J-7180D01*
G37*
G36*
G01X2021890Y4029500D02*
X2010000Y4015000D01*
X2025000Y3952460D01*
X2040000Y4015000D01*
X2028110Y4029500D01*
G03X2021890I-3110J-9670D01*
G37*
G36*
G01X1971890D02*
X1960000Y4015000D01*
X1975000Y3952460D01*
X1990000Y4015000D01*
X1978110Y4029500D01*
G03X1971890I-3110J-9670D01*
G37*
G36*
G01X2171890D02*
X2160000Y4015000D01*
X2175000Y3952460D01*
X2190000Y4015000D01*
X2178110Y4029500D01*
G03X2171890I-3110J-9670D01*
G37*
G36*
G01X2221890D02*
X2210000Y4015000D01*
X2225000Y3952460D01*
X2240000Y4015000D01*
X2228110Y4029500D01*
G03X2221890I-3110J-9670D01*
G37*
G36*
G01X2421890D02*
X2410000Y4015000D01*
X2425000Y3952460D01*
X2440000Y4015000D01*
X2428110Y4029500D01*
G03X2421890I-3110J-9670D01*
G37*
G36*
G01X2328110Y3880500D02*
X2340000Y3895000D01*
X2325000Y3957540D01*
X2310000Y3895000D01*
X2321890Y3880500D01*
G03X2328110I3110J9670D01*
G37*
G36*
G01X2320320Y3820480D02*
X2300000D01*
X2298200Y3788200D01*
X2330480Y3790000D01*
Y3810320D01*
G03X2320320Y3820480I-10160J0D01*
G37*
G36*
G01X2378110Y3880500D02*
X2390000Y3895000D01*
X2375000Y3957540D01*
X2360000Y3895000D01*
X2371890Y3880500D01*
G03X2378110I3110J9670D01*
G37*
G36*
G01X2010320Y3615480D02*
X1990000D01*
X1988200Y3583200D01*
X2020480Y3585000D01*
Y3605320D01*
G03X2010320Y3615480I-10160J0D01*
G37*
G36*
G01X2078110Y3880500D02*
X2090000Y3895000D01*
X2075000Y3957540D01*
X2060000Y3895000D01*
X2071890Y3880500D01*
G03X2078110I3110J9670D01*
G37*
G36*
G01X2432180Y4044080D02*
X2446550Y4058450D01*
X2425000Y4082540D01*
X2403450Y4058450D01*
X2417820Y4044080D01*
G03X2432180I7180J7180D01*
G37*
G36*
G01X2928450Y2414900D02*
X2890000Y2446200D01*
X2843650Y2406200D01*
X2890000Y2366200D01*
X2928450Y2397500D01*
G03Y2414900I-23860J8700D01*
G37*
G36*
G01X2771550Y2397500D02*
X2810000Y2366200D01*
X2856350Y2406200D01*
X2810000Y2446200D01*
X2771550Y2414900D01*
G03Y2397500I23860J-8700D01*
G37*
G36*
G01X2774650Y2414900D02*
X2736200Y2446200D01*
X2689850Y2406200D01*
X2736200Y2366200D01*
X2774650Y2397500D01*
G03Y2414900I-23860J8700D01*
G37*
G36*
G01X2466020Y2246640D02*
X2503800Y2213800D01*
X2546980Y2253800D01*
X2503800Y2293800D01*
X2466020Y2260960D01*
G03Y2246640I10490J-7160D01*
G37*
G36*
G01Y2399040D02*
X2503800Y2366200D01*
X2546980Y2406200D01*
X2503800Y2446200D01*
X2466020Y2413360D01*
G03Y2399040I10490J-7160D01*
G37*
G36*
G01X2790740Y2980000D02*
Y3000050D01*
G02X2808080Y3007230I10159J-6D01*
G01X2811050Y3004260D01*
X2822380D01*
X2823770Y3003860D01*
G03X2840000Y3001560I16234J56139D01*
G03X2856230Y3003860I-4J58439D01*
G01X2857620Y3004260D01*
X3011050D01*
X3044260Y2971050D01*
Y2671050D01*
X3065060Y2650250D01*
Y2495670D01*
X3046730Y2477340D01*
X2924200D01*
X2918880Y2481670D01*
G03X2890000Y2491940I-28880J-35471D01*
G01X2810000D01*
G03X2781120Y2481670I0J-45741D01*
G01X2773100Y2475140D01*
X2765080Y2481670D01*
G03X2736200Y2491940I-28880J-35471D01*
G01X2656200D01*
G03X2626580Y2481050I0J-45727D01*
G02X2613420I-6580J7745D01*
G03X2583800Y2491940I-29620J-34837D01*
G01X2503800D01*
G03X2473790Y2480720I0J-45744D01*
G01X2466900Y2474730D01*
X2460010Y2480720D01*
G03X2451130Y2486770I-30016J-34515D01*
G02X2447780Y2520620I9390J18020D01*
G03X2451810Y2524100I-47768J59391D01*
G01X2673150D01*
X2740900Y2591850D01*
Y2908350D01*
X2778520Y2948880D01*
G03X2790740Y2980000I-33516J31120D01*
G37*
G36*
G01X2467820Y2690920D02*
X2453450Y2676550D01*
X2475000Y2652460D01*
X2496550Y2676550D01*
X2482180Y2690920D01*
G03X2467820I-7180J-7180D01*
G37*
G36*
G01X2478110Y2710500D02*
X2490000Y2725000D01*
X2475000Y2787540D01*
X2460000Y2725000D01*
X2471890Y2710500D01*
G03X2478110I3110J9670D01*
G37*
G36*
G01X2691490Y2922350D02*
X2745000Y2980000D01*
X2685000Y2997540D01*
X2625000Y2980000D01*
X2678510Y2922350D01*
G03X2691490I6490J7820D01*
G37*
G36*
G01X2759500Y3048110D02*
X2745000Y3060000D01*
X2682460Y3045000D01*
X2745000Y3030000D01*
X2759500Y3041890D01*
G03Y3048110I-9670J3110D01*
G37*
G36*
G01X2610500Y3041890D02*
X2625000Y3030000D01*
X2687540Y3045000D01*
X2625000Y3060000D01*
X2610500Y3048110D01*
G03Y3041890I9670J-3110D01*
G37*
G36*
G01X2839950Y3089100D02*
X3031850D01*
X3056850Y3064100D01*
X3270000D01*
Y2880000D01*
X3180000Y2790000D01*
Y2680000D01*
X3100000D01*
X3090000Y2690000D01*
Y2990000D01*
X3030000Y3050000D01*
X2839050D01*
X2835060Y3054000D01*
X2830250Y3058810D01*
X2819650Y3069410D01*
G02X2839950Y3089100I20309J-628D01*
G37*
G36*
G01X2759840Y3096920D02*
X2745000Y3110000D01*
X2681820Y3095000D01*
X2745000Y3080000D01*
X2759840Y3093080D01*
G03Y3096920I-12550J1920D01*
G37*
G36*
G01X2759500Y3248110D02*
X2745000Y3260000D01*
X2682460Y3245000D01*
X2745000Y3230000D01*
X2759500Y3241890D01*
G03Y3248110I-9670J3110D01*
G37*
G36*
G01Y3298110D02*
X2745000Y3310000D01*
X2682460Y3295000D01*
X2745000Y3280000D01*
X2759500Y3291890D01*
G03Y3298110I-9670J3110D01*
G37*
G36*
G01Y3198110D02*
X2745000Y3210000D01*
X2682460Y3195000D01*
X2745000Y3180000D01*
X2759500Y3191890D01*
G03Y3198110I-9670J3110D01*
G37*
G36*
G01Y3148110D02*
X2745000Y3160000D01*
X2682460Y3145000D01*
X2745000Y3130000D01*
X2759500Y3141890D01*
G03Y3148110I-9670J3110D01*
G37*
G36*
G01Y3348110D02*
X2745000Y3360000D01*
X2682460Y3345000D01*
X2745000Y3330000D01*
X2759500Y3341890D01*
G03Y3348110I-9670J3110D01*
G37*
G36*
G01X2914080Y3412820D02*
X2928450Y3398450D01*
X2952540Y3420000D01*
X2928450Y3441550D01*
X2914080Y3427180D01*
G03Y3412820I7180J-7180D01*
G37*
G36*
G01X2759500Y3448110D02*
X2745000Y3460000D01*
X2682460Y3445000D01*
X2745000Y3430000D01*
X2759500Y3441890D01*
G03Y3448110I-9670J3110D01*
G37*
G36*
G01X2774080Y3487820D02*
X2788450Y3473450D01*
X2812540Y3495000D01*
X2788450Y3516550D01*
X2774080Y3502180D01*
G03Y3487820I7180J-7180D01*
G37*
G36*
G01X2759500Y3498110D02*
X2745000Y3510000D01*
X2682460Y3495000D01*
X2745000Y3480000D01*
X2759500Y3491890D01*
G03Y3498110I-9670J3110D01*
G37*
G36*
G01X2467820Y3530920D02*
X2438450Y3501550D01*
X2459180Y3477600D01*
X2475000Y3495000D01*
Y3523740D01*
X2467820Y3530920D01*
G37*
G36*
G01X2759840Y3696920D02*
X2745000Y3710000D01*
X2681820Y3695000D01*
X2745000Y3680000D01*
X2759840Y3693080D01*
G03Y3696920I-12550J1920D01*
G37*
G36*
G01X2992500Y3871550D02*
X3023800Y3910000D01*
X2983800Y3956350D01*
X2943800Y3910000D01*
X2975100Y3871550D01*
G03X2992500I8700J23860D01*
G37*
G36*
G01X2975100Y4028450D02*
X2943800Y3990000D01*
X2983800Y3943650D01*
X3023800Y3990000D01*
X2992500Y4028450D01*
G03X2975100I-8700J-23860D01*
G37*
G36*
G01X2759840Y3746920D02*
X2745000Y3760000D01*
X2681820Y3745000D01*
X2745000Y3730000D01*
X2759840Y3743080D01*
G03Y3746920I-12550J1920D01*
G37*
G36*
G01X2975100Y3853450D02*
X2943800Y3815000D01*
X2983800Y3768650D01*
X3023800Y3815000D01*
X2992500Y3853450D01*
G03X2975100I-8700J-23860D01*
G37*
G36*
G01X3036500Y3732400D02*
X3023800Y3815000D01*
X2981630Y3777310D01*
X2943800Y3735000D01*
X3023390Y3719710D01*
G03X3036500Y3732400I413J12690D01*
G37*
G36*
G01X2885590Y3732330D02*
X3023800Y3735000D01*
X2986830Y3775940D01*
X2943800Y3815000D01*
X2876680Y3753040D01*
G03X2885590Y3732330I9830J-8043D01*
G37*
G36*
G01X2478110Y3880500D02*
X2490000Y3895000D01*
X2475000Y3957540D01*
X2460000Y3895000D01*
X2471890Y3880500D01*
G03X2478110I3110J9670D01*
G37*
G36*
G01X2992500Y4041550D02*
X3023800Y4080000D01*
X2983800Y4126350D01*
X2943800Y4080000D01*
X2975100Y4041550D01*
G03X2992500I8700J23860D01*
G37*
G36*
G01X2689520Y4100320D02*
Y4080000D01*
X2721800Y4078200D01*
X2720000Y4110480D01*
X2699680D01*
G03X2689520Y4100320I0J-10160D01*
G37*
G36*
G01X2579520D02*
Y4080000D01*
X2611800Y4078200D01*
X2610000Y4110480D01*
X2589680D01*
G03X2579520Y4100320I0J-10160D01*
G37*
G36*
G01X3229840Y380000D02*
X3240000Y250000D01*
X3311800Y308200D01*
X3380000Y370000D01*
X3240720Y390130D01*
G03X3229840Y380000I-724J-10130D01*
G37*
G36*
G01X4118490Y3125060D02*
X4204260D01*
Y2148950D01*
X4071050Y2015740D01*
X3201140D01*
Y2381870D01*
X3192240Y2390770D01*
Y2421630D01*
X3207340Y2436730D01*
Y2634260D01*
X3225740D01*
Y2658860D01*
X3259600D01*
X3264920Y2654530D01*
G03X3293800Y2644260I28880J35471D01*
G01X3373800D01*
G03X3419020Y2683150I0J45735D01*
G01X3428530Y2745890D01*
X3444210Y2761560D01*
X3549590D01*
X3578060Y2733090D01*
Y2690000D01*
G03X3623800Y2644260I45740J0D01*
G01X3703800D01*
G03X3733420Y2655150I0J45727D01*
G02X3746580I6580J-7745D01*
G03X3776200Y2644260I29620J34837D01*
G01X3856200D01*
G03X3886680Y2655890I5J45742D01*
G01X3907050Y2674100D01*
X3953150D01*
X4030900Y2751850D01*
Y2812900D01*
X4078010Y2859950D01*
X4079010Y2860570D01*
G03X4100740Y2899500I-24007J38930D01*
G01Y2959500D01*
G03X4091620Y2986910I-45750J0D01*
G02Y2999090I8130J6090D01*
G03X4100740Y3026500I-36630J27410D01*
G01Y3086500D01*
G03X4098960Y3099130I-45739J-6D01*
G02X4118490Y3125060I19531J5610D01*
G37*
G36*
G01X3121100Y2451100D02*
X3076200Y2406200D01*
X3146500Y2357840D01*
Y2451100D01*
X3121100D01*
G37*
G36*
G01X3373200Y2786490D02*
X3293800Y2770000D01*
X3331660Y2727660D01*
X3373800Y2690000D01*
X3386500Y2773800D01*
G03X3373200Y2786490I-12704J0D01*
G37*
G36*
G01X3255350Y2721300D02*
X3293800Y2690000D01*
X3340150Y2730000D01*
X3293800Y2770000D01*
X3255350Y2738700D01*
G03Y2721300I23860J-8700D01*
G37*
G36*
G01X3144900Y2651550D02*
X3176200Y2690000D01*
X3136200Y2736350D01*
X3096200Y2690000D01*
X3127500Y2651550D01*
G03X3144900I8700J23860D01*
G37*
G36*
G01X3214650Y2738700D02*
X3176200Y2770000D01*
X3129850Y2730000D01*
X3176200Y2690000D01*
X3214650Y2721300D01*
G03Y2738700I-23860J8700D01*
G37*
G36*
G01X3065810Y3285600D02*
X3105000Y3280500D01*
X3187520Y3310840D01*
X3105000Y3340500D01*
X3061650Y3301230D01*
G03X3065810Y3285600I8022J-6234D01*
G37*
G36*
G01X3065560Y3188880D02*
X3105000Y3153500D01*
X3187530Y3183240D01*
X3105000Y3213500D01*
X3068500Y3203750D01*
G03X3065560Y3188880I5170J-8748D01*
G37*
G36*
G01X3275300Y3636160D02*
X3305000Y3610000D01*
X3386350Y3640000D01*
X3305000Y3670000D01*
X3275300Y3643840D01*
G03Y3636160I25110J-3840D01*
G37*
G36*
G01X3484700Y3643840D02*
X3455000Y3670000D01*
X3373650Y3640000D01*
X3455000Y3610000D01*
X3484700Y3636160D01*
G03Y3643840I-25110J3840D01*
G37*
G36*
G01X3215160Y3665020D02*
X3096200Y3660000D01*
X3130070Y3618360D01*
X3176200Y3580000D01*
X3232800Y3627310D01*
G03X3215160Y3665020I-22007J12686D01*
G37*
G36*
G01X3276690Y4015400D02*
X3305000Y3991000D01*
X3382540Y4021000D01*
X3305000Y4051000D01*
X3276690Y4026600D01*
G03Y4015400I8480J-5600D01*
G37*
G36*
G01X3483310Y3899600D02*
X3455000Y3924000D01*
X3377460Y3894000D01*
X3455000Y3864000D01*
X3483310Y3888400D01*
G03Y3899600I-8480J5600D01*
G37*
G36*
G01X3276690Y3888400D02*
X3305000Y3864000D01*
X3382540Y3894000D01*
X3305000Y3924000D01*
X3276690Y3899600D01*
G03Y3888400I8480J-5600D01*
G37*
G36*
G01X3040680Y6552040D02*
X3086370Y6506370D01*
X3156350Y6570000D01*
X3086370Y6633630D01*
X3040680Y6587960D01*
G03Y6552040I17960J-17960D01*
G37*
G36*
G01X3407180Y6449910D02*
X3463630Y6506360D01*
X3400000Y6572540D01*
X3336370Y6506360D01*
X3392820Y6449910D01*
G03X3407180I7180J7180D01*
G37*
G36*
G01X3736350Y436010D02*
X3680000Y370000D01*
X3750000Y303650D01*
X3820000Y370000D01*
X3763650Y436010D01*
G03X3736350I-13650J-21420D01*
G37*
G36*
G01X3880200Y329840D02*
X3820000Y370000D01*
X3743660Y309710D01*
X3820000Y250000D01*
X3881280Y301790D01*
G03X3880200Y329840I-21691J13211D01*
G37*
G36*
G01X3981420Y2828130D02*
X4052880Y2899500D01*
X3975000Y2932040D01*
X3897120Y2899500D01*
X3968580Y2828130D01*
G03X3981420I6420J7870D01*
G37*
G36*
G01X3866220Y2924360D02*
X3895000Y2899500D01*
X3977540Y2929490D01*
X3895000Y2959500D01*
X3866300Y2935770D01*
G03X3866220Y2924360I8369J-5764D01*
G37*
G36*
G01X3894170Y2736070D02*
X3856200Y2770000D01*
X3813660Y2730000D01*
X3856200Y2690000D01*
X3894170Y2723930D01*
G03Y2736070I-8140J6070D01*
G37*
G36*
G01X4083290Y3189840D02*
X4055000Y3213500D01*
X3971820Y3183500D01*
X4055000Y3153500D01*
X4083290Y3177160D01*
G03Y3189840I-11000J6340D01*
G37*
G36*
G01X3863330Y3054190D02*
X3895000Y3026500D01*
X3977540Y3056410D01*
X3895000Y3086500D01*
X3864040Y3066710D01*
G03X3863330Y3054190I7629J-6713D01*
G37*
G36*
G01X4720090Y908460D02*
X4663640Y964910D01*
X4597460Y901280D01*
X4663640Y837650D01*
X4720090Y894100D01*
G03Y908460I-7180J7180D01*
G37*
G36*
G01Y654460D02*
X4663640Y710910D01*
X4597460Y647280D01*
X4663640Y583650D01*
X4720090Y640100D01*
G03Y654460I-7180J7180D01*
G37*
G36*
G01Y1416460D02*
X4663640Y1472910D01*
X4597460Y1409280D01*
X4663640Y1345650D01*
X4720090Y1402100D01*
G03Y1416460I-7180J7180D01*
G37*
G36*
G01Y1162460D02*
X4663640Y1218910D01*
X4597460Y1155280D01*
X4663640Y1091650D01*
X4720090Y1148100D01*
G03Y1162460I-7180J7180D01*
G37*
G36*
G01X4690000Y1837440D02*
Y1917280D01*
X4598200Y1919080D01*
X4600000Y1827280D01*
X4679840D01*
G03X4690000Y1837440I0J10160D01*
G37*
G36*
G01X4720090Y1670460D02*
X4663640Y1726910D01*
X4597460Y1663280D01*
X4663640Y1599650D01*
X4720090Y1656100D01*
G03Y1670460I-7180J7180D01*
G37*
G36*
G01X4690000Y2345440D02*
Y2425280D01*
X4598200Y2427080D01*
X4600000Y2335280D01*
X4679840D01*
G03X4690000Y2345440I0J10160D01*
G37*
G36*
G01Y2091440D02*
Y2171280D01*
X4598200Y2173080D01*
X4600000Y2081280D01*
X4679840D01*
G03X4690000Y2091440I0J10160D01*
G37*
G36*
G01Y2599440D02*
Y2679280D01*
X4598200Y2681080D01*
X4600000Y2589280D01*
X4679840D01*
G03X4690000Y2599440I0J10160D01*
G37*
G36*
G01Y2853440D02*
Y2933280D01*
X4598200Y2935080D01*
X4600000Y2843280D01*
X4679840D01*
G03X4690000Y2853440I0J10160D01*
G37*
G36*
G01Y3107440D02*
Y3187280D01*
X4598200Y3189080D01*
X4600000Y3097280D01*
X4679840D01*
G03X4690000Y3107440I0J10160D01*
G37*
G36*
G01X5594170Y906650D02*
X5556200Y940580D01*
X5513660Y900580D01*
X5556200Y860580D01*
X5594170Y894510D01*
G03Y906650I-8140J6070D01*
G37*
G36*
G01X5567400Y643450D02*
X5630000Y585000D01*
X5677540Y650000D01*
X5630000Y715000D01*
X5567400Y656550D01*
G03Y643450I7770J-6550D01*
G37*
G36*
G01X5594170Y656070D02*
X5556200Y690000D01*
X5513660Y650000D01*
X5556200Y610000D01*
X5594170Y643930D01*
G03Y656070I-8140J6070D01*
G37*
G36*
G01X5285140Y895180D02*
X5323800Y860580D01*
X5366340Y900550D01*
X5323800Y940580D01*
X5285250Y907510D01*
G03X5285140Y895180I8020J-6237D01*
G37*
G36*
G01X5283600Y640600D02*
X5323800Y610000D01*
X5366340Y650100D01*
X5323800Y690000D01*
X5283170Y653440D01*
G03X5283600Y640600I8081J-6157D01*
G37*
G36*
G01X5578980Y1225880D02*
X5591540Y1238460D01*
X5570000Y1263180D01*
X5548460Y1238460D01*
X5561020Y1225880D01*
G03X5578980I8980J8980D01*
G37*
G36*
G01X5567400Y894030D02*
X5630000Y835580D01*
X5677540Y900580D01*
X5630000Y965580D01*
X5567400Y907130D01*
G03Y894030I7770J-6550D01*
G37*
G36*
G01X5285830Y1149210D02*
X5323800Y1115280D01*
X5366340Y1155280D01*
X5323800Y1195280D01*
X5285830Y1161350D01*
G03Y1149210I8140J-6070D01*
G37*
G36*
G01X5150000Y2500000D02*
X5400000D01*
Y2400000D01*
X5440000Y2360000D01*
X5597350D01*
X5638510Y2318840D01*
X5638520D01*
G02X5658660Y2295830I0J-20319D01*
G03X5658530Y2294770I45334J-6098D01*
G01X5657540Y2285720D01*
X5249270D01*
X5223550Y2260000D01*
X5200000D01*
X5150000Y2310000D01*
Y2500000D01*
G37*
G36*
G01X5589380Y2457160D02*
X5551600Y2490000D01*
X5508420Y2450000D01*
X5551600Y2410000D01*
X5589380Y2442840D01*
G03Y2457160I-10490J7160D01*
G37*
G36*
G01X5397750Y2651820D02*
X5319200Y2630000D01*
X5357200Y2587540D01*
X5399200Y2550000D01*
X5411900Y2639200D01*
G03X5397750Y2651820I-12703J0D01*
G37*
G36*
G01X5572630Y2551330D02*
X5551600Y2630000D01*
X5509150Y2592020D01*
X5471600Y2550000D01*
X5560000Y2537300D01*
G03X5572630Y2551330I0J12700D01*
G37*
G36*
G01X5572270Y5442030D02*
X5606200Y5480000D01*
X5566200Y5522540D01*
X5526200Y5480000D01*
X5560130Y5442030D01*
G03X5572270I6070J8140D01*
G37*
G36*
G01X5560130Y5457970D02*
X5526200Y5420000D01*
X5566200Y5377460D01*
X5606200Y5420000D01*
X5572270Y5457970D01*
G03X5560130I-6070J-8140D01*
G37*
G36*
G01X5668800Y5361550D02*
X5606200Y5420000D01*
X5563740Y5380650D01*
X5606200Y5340000D01*
X5663710Y5345200D01*
G03X5668800Y5361550I-2679J9801D01*
G37*
G36*
G01X5407730Y5597970D02*
X5373800Y5560000D01*
X5413800Y5517460D01*
X5453800Y5560000D01*
X5419870Y5597970D01*
G03X5407730I-6070J-8140D01*
G37*
G36*
G01Y5317970D02*
X5373800Y5280000D01*
X5413800Y5237460D01*
X5453800Y5280000D01*
X5419870Y5317970D01*
G03X5407730I-6070J-8140D01*
G37*
G36*
G01X5419870Y5302030D02*
X5453800Y5340000D01*
X5413800Y5382540D01*
X5373800Y5340000D01*
X5407730Y5302030D01*
G03X5419870I6070J8140D01*
G37*
G36*
G01X5470000Y5820000D02*
X5460000Y5810000D01*
Y5620000D01*
X5440000Y5600000D01*
X5140000D01*
X5090000Y5650000D01*
Y6060000D01*
X5120000Y6090000D01*
X5660000D01*
X5730000Y6160000D01*
Y6430000D01*
X5950000D01*
Y5820000D01*
X5470000D01*
G37*
G36*
G01X5419870Y5592030D02*
X5453800Y5630000D01*
X5413800Y5672540D01*
X5373800Y5630000D01*
X5407730Y5592030D01*
G03X5419870I6070J8140D01*
G37*
G36*
G01X5883980Y745880D02*
X5896540Y758460D01*
X5875000Y783180D01*
X5853460Y758460D01*
X5866020Y745880D01*
G03X5883980I8980J8980D01*
G37*
G36*
G01X5866020Y814120D02*
X5853460Y801540D01*
X5875000Y776820D01*
X5896540Y801540D01*
X5883980Y814120D01*
G03X5866020I-8980J-8980D01*
G37*
G36*
G01X5882400Y792970D02*
X5920000Y835580D01*
X5875000Y903760D01*
X5830000Y835580D01*
X5867600Y792970D01*
G03X5882400I7400J10320D01*
G37*
G36*
G01X5867600Y757610D02*
X5830000Y715000D01*
X5875000Y646820D01*
X5920000Y715000D01*
X5882400Y757610D01*
G03X5867600I-7400J-10320D01*
G37*
G36*
G01X5691680Y1875420D02*
X5704000Y1864780D01*
X5782540Y1877280D01*
X5704000Y1889780D01*
X5691680Y1879140D01*
G03Y1875420I9990J-1860D01*
G37*
G36*
G01Y1825420D02*
X5704000Y1814780D01*
X5782540Y1827280D01*
X5704000Y1839780D01*
X5691680Y1829140D01*
G03Y1825420I9990J-1860D01*
G37*
G36*
G01Y1725420D02*
X5704000Y1714780D01*
X5782540Y1727280D01*
X5704000Y1739780D01*
X5691680Y1729140D01*
G03Y1725420I9990J-1860D01*
G37*
G36*
G01Y1775420D02*
X5704000Y1764780D01*
X5782540Y1777280D01*
X5704000Y1789780D01*
X5691680Y1779140D01*
G03Y1775420I9990J-1860D01*
G37*
G36*
G01Y1675420D02*
X5704000Y1664780D01*
X5782540Y1677280D01*
X5704000Y1689780D01*
X5691680Y1679140D01*
G03Y1675420I9990J-1860D01*
G37*
G36*
G01Y1625420D02*
X5704000Y1614780D01*
X5782540Y1627280D01*
X5704000Y1639780D01*
X5691680Y1629140D01*
G03Y1625420I9990J-1860D01*
G37*
G36*
G01X5704050Y1553840D02*
X5856000Y1564780D01*
X5790010Y1579030D01*
X5704000Y1589780D01*
X5693840Y1564000D01*
G03X5704050Y1553840I10160J0D01*
G37*
G36*
G01X5691680Y1975420D02*
X5704000Y1964780D01*
X5782540Y1977280D01*
X5704000Y1989780D01*
X5691680Y1979140D01*
G03Y1975420I9990J-1860D01*
G37*
G36*
G01Y1925420D02*
X5704000Y1914780D01*
X5782540Y1927280D01*
X5704000Y1939780D01*
X5691680Y1929140D01*
G03Y1925420I9990J-1860D01*
G37*
G36*
G01Y2125420D02*
X5704000Y2114780D01*
X5782540Y2127280D01*
X5704000Y2139780D01*
X5691680Y2129140D01*
G03Y2125420I9990J-1860D01*
G37*
G36*
G01Y2075420D02*
X5704000Y2064780D01*
X5782540Y2077280D01*
X5704000Y2089780D01*
X5691680Y2079140D01*
G03Y2075420I9990J-1860D01*
G37*
G36*
G01Y2025420D02*
X5704000Y2014780D01*
X5782540Y2027280D01*
X5704000Y2039780D01*
X5691680Y2029140D01*
G03Y2025420I9990J-1860D01*
G37*
G36*
G01X6148370Y5623610D02*
X6045000Y5575000D01*
X6095510Y5540510D01*
X6155000Y5515000D01*
X6179200Y5599160D01*
G03X6148370Y5623610I-25397J-362D01*
G37*
G36*
G01X6016690Y5349400D02*
X6045000Y5325000D01*
X6102540Y5355000D01*
X6045000Y5385000D01*
X6016690Y5360600D01*
G03Y5349400I8480J-5600D01*
G37*
G36*
G01X6390130Y1427970D02*
X6356200Y1390000D01*
X6396200Y1347460D01*
X6436200Y1390000D01*
X6402270Y1427970D01*
G03X6390130I-6070J-8140D01*
G37*
G36*
G01X6405460Y1556890D02*
X6406350Y1583530D01*
X6378200Y1579080D01*
X6360530Y1565920D01*
X6394830Y1551010D01*
G03X6405460Y1556890I1371J10069D01*
G37*
G36*
G01X6300000Y5430740D02*
Y5469260D01*
X6415000D01*
G03X6441960Y5478050I0J45740D01*
G01X6444630Y5480000D01*
X6450000D01*
X6550000Y5580000D01*
X7620000D01*
X7730000Y5690000D01*
Y6610000D01*
X7790000Y6670000D01*
X8340000D01*
X8400000Y6610000D01*
Y5250000D01*
X8660000Y4990000D01*
Y3074690D01*
X8571050Y2985740D01*
X8170000D01*
Y3290000D01*
X7730000Y3730000D01*
Y5220000D01*
X7620000Y5330000D01*
X6540000D01*
X6450000Y5420000D01*
X6444630D01*
X6441960Y5421950D01*
G03X6415000Y5430740I-26960J-36950D01*
G01X6300000D01*
G37*
G36*
G01X6230000Y5850000D02*
Y6440000D01*
X6450000D01*
X6460000Y6430000D01*
Y6060000D01*
X6480000Y6040000D01*
X6790000D01*
X6810000Y6020000D01*
Y5920000D01*
X6790000Y5900000D01*
X6480000D01*
X6460000Y5880000D01*
Y5560000D01*
X6425740Y5525740D01*
X6264260D01*
X6260000Y5530000D01*
Y5820000D01*
X6230000Y5850000D01*
G37*
G36*
G01X6366420Y5272290D02*
X6415000Y5325000D01*
X6360000Y5357540D01*
X6305000Y5325000D01*
X6353580Y5272290D01*
G03X6366420I6420J7880D01*
G37*
G36*
G01X6529630Y5233930D02*
X6567600Y5200000D01*
X6610140Y5240000D01*
X6567600Y5280000D01*
X6529630Y5246070D01*
G03Y5233930I8140J-6070D01*
G37*
G36*
G01X6162500Y5641550D02*
X6193800Y5680000D01*
X6153800Y5726350D01*
X6113800Y5680000D01*
X6145100Y5641550D01*
G03X6162500I8700J23860D01*
G37*
G36*
G01X7390000Y1140000D02*
Y1236260D01*
G02X7424690Y1250630I20321J0D01*
G01X7431050Y1244260D01*
X7484960D01*
G02X7499330Y1209570I0J-20321D01*
G01X7491560Y1201810D01*
Y964210D01*
X7465790Y938440D01*
X6894210D01*
X6830000Y1002650D01*
Y1140000D01*
X7390000D01*
G37*
G36*
G01X7060000Y1770000D02*
X7477350D01*
X7545810Y1701540D01*
X7781560D01*
Y1644740D01*
X7635000D01*
G03X7601370Y1630000I0J-45734D01*
G01X7590000D01*
X7570000Y1610000D01*
Y1440000D01*
X7600000Y1410000D01*
X7800000D01*
X7820000Y1390000D01*
Y1310000D01*
X7800000Y1290000D01*
X7450000D01*
X7400000Y1340000D01*
Y1570000D01*
X7060000D01*
Y1770000D01*
G37*
G36*
G01X7050000Y2540000D02*
X7405310D01*
X7501050Y2444260D01*
X7566220D01*
G02X7575570Y2430130I0J-10158D01*
G01X7574160Y2426810D01*
X7521560Y2374210D01*
Y2254210D01*
X7503070Y2235720D01*
X7050000D01*
Y2540000D01*
G37*
G36*
G01Y3161560D02*
X7428440D01*
X7450000Y3140000D01*
Y3030000D01*
X7465840Y3014160D01*
Y3011510D01*
X7586770Y2890580D01*
X7781560D01*
Y2834740D01*
X7635000D01*
G03X7616570Y2830860I6J-45739D01*
G01X7614610Y2830000D01*
X7600000D01*
X7570000Y2800000D01*
Y2670000D01*
X7600000Y2640000D01*
X7820000D01*
X7830000Y2630000D01*
Y2510000D01*
X7810000Y2490000D01*
X7520000D01*
X7370000Y2640000D01*
Y2850000D01*
X7250000Y2970000D01*
X7050000D01*
Y3161560D01*
G37*
G36*
G01X6753930Y5317970D02*
X6720000Y5280000D01*
X6760000Y5237460D01*
X6800000Y5280000D01*
X6766070Y5317970D01*
G03X6753930I-6070J-8140D01*
G37*
G36*
G01X7950000Y1470000D02*
X9280000D01*
X9290000Y1460000D01*
Y1100000D01*
X9260000Y1070000D01*
X8780000D01*
X8670000Y1180000D01*
X8130000D01*
X8000000Y1050000D01*
X7630000D01*
Y1147260D01*
X7785000D01*
G03X7799140Y1149500I0J45749D01*
G01X7800680Y1150000D01*
X7840000D01*
X7890000Y1200000D01*
Y1410000D01*
X7950000Y1470000D01*
G37*
G36*
G01X7635340Y922300D02*
X7785000Y939000D01*
X7721570Y974240D01*
X7635000Y999000D01*
X7622300Y935000D01*
G03X7635340Y922300I12704J0D01*
G37*
G36*
G01X7606710Y1216660D02*
X7635000Y1193000D01*
X7713180Y1223000D01*
X7635000Y1253000D01*
X7606710Y1229340D01*
G03Y1216660I11000J-6340D01*
G37*
G36*
G01X7604840Y1849350D02*
X7635000Y1793000D01*
X7722090Y1819100D01*
X7785000Y1853000D01*
X7617000Y1865700D01*
G03X7604840Y1849350I0J-12697D01*
G37*
G36*
G01X8820000Y2030000D02*
X9220000D01*
X9280000Y1970000D01*
Y1610000D01*
X9200000Y1530000D01*
X7950000D01*
X7898440Y1581560D01*
Y1758790D01*
X7890000Y1767230D01*
Y1860000D01*
X7850000Y1900000D01*
X7652650D01*
X7610000Y1942650D01*
Y2020000D01*
X7620000Y2030000D01*
X8020000D01*
X8090000Y1960000D01*
Y1790000D01*
X8130000Y1750000D01*
X8159320D01*
X8160860Y1749500D01*
G03X8175000Y1747260I14140J43509D01*
G01X8325000D01*
G03X8339140Y1749500I0J45749D01*
G01X8340680Y1750000D01*
X8540000D01*
X8820000Y2030000D01*
G37*
G36*
G01X7605300Y1692160D02*
X7635000Y1666000D01*
X7716350Y1696000D01*
X7635000Y1726000D01*
X7605300Y1699840D01*
G03Y1692160I25110J-3840D01*
G37*
G36*
G01X7623000Y2380300D02*
X7785000Y2393000D01*
X7722010Y2427140D01*
X7635000Y2453000D01*
X7610550Y2395490D01*
G03X7623000Y2380300I12450J-2493D01*
G37*
G36*
G01X7629000Y2126300D02*
X7785000Y2139000D01*
X7721910Y2173410D01*
X7635000Y2199000D01*
X7616360Y2140260D01*
G03X7629000Y2126300I12640J-1258D01*
G37*
G36*
G01X7970000Y2600000D02*
X9230000D01*
X9280000Y2550000D01*
Y2190000D01*
X9240000Y2150000D01*
X8780000D01*
X8560000Y2370000D01*
X8337560D01*
X8336320Y2370320D01*
G03X8325000Y2371740I-11309J-44321D01*
G01X8175000D01*
G03X8163680Y2370320I-11J-45741D01*
G01X8162440Y2370000D01*
X8110000D01*
X7980000Y2240000D01*
X7805390D01*
X7803430Y2240860D01*
G03X7785000Y2244740I-18436J-41859D01*
G01X7638440D01*
Y2325790D01*
X7649110Y2336470D01*
X7788570Y2347400D01*
G03X7816670Y2360000I-3572J45600D01*
G01X7850000D01*
X7910000Y2420000D01*
Y2540000D01*
X7970000Y2600000D01*
G37*
G36*
G01X7605300Y2882160D02*
X7635000Y2856000D01*
X7716350Y2886000D01*
X7635000Y2916000D01*
X7605300Y2889840D01*
G03Y2882160I25110J-3840D01*
G37*
G36*
G01X7640000Y3210000D02*
X8080000D01*
X8110000Y3180000D01*
Y2980000D01*
X8150000Y2940000D01*
X8159320D01*
X8160860Y2939500D01*
G03X8175000Y2937260I14140J43509D01*
G01X8325000D01*
G03X8339140Y2939500I0J45749D01*
G01X8340680Y2940000D01*
X8590000D01*
X8760000Y3110000D01*
X9240000D01*
X9280000Y3070000D01*
Y2690000D01*
X9230000Y2640000D01*
X7970000D01*
X7910000Y2700000D01*
Y3050000D01*
X7860000Y3100000D01*
X7652650D01*
X7630000Y3122650D01*
Y3200000D01*
X7640000Y3210000D01*
G37*
G36*
G01X7614410Y3041320D02*
X7635000Y2983000D01*
X7721940Y3008680D01*
X7785000Y3043000D01*
X7627000Y3055700D01*
G03X7614410Y3041320I0J-12701D01*
G37*
G36*
G01X8670000Y780000D02*
X8210000D01*
X8170000Y820000D01*
Y1130000D01*
X8630000D01*
X8720000Y1040000D01*
Y830000D01*
X8670000Y780000D01*
G37*
G36*
G01X8515740Y1795740D02*
X8170000D01*
Y2324260D01*
X8535740D01*
X8730000Y2130000D01*
Y2010000D01*
X8515740Y1795740D01*
G37*
G36*
G01X7813290Y1575340D02*
X7785000Y1599000D01*
X7706820Y1569000D01*
X7785000Y1539000D01*
X7813290Y1562660D01*
G03Y1575340I-11000J6340D01*
G37*
G36*
G01Y2765340D02*
X7785000Y2789000D01*
X7706820Y2759000D01*
X7785000Y2729000D01*
X7813290Y2752660D01*
G03Y2765340I-11000J6340D01*
G37*
%LPC*%
G75*
G36*
G01X8990000Y6019180D02*
X8790000D01*
G02Y6320820I0J150820D01*
G01X8990000D01*
G02Y6019180I0J-150820D01*
G37*
G36*
G01X1374260Y4711050D02*
Y5018950D01*
X1431050Y5075740D01*
X1748950D01*
X1815740Y5008950D01*
Y4701050D01*
X1795130Y4680440D01*
X1789540Y4673620D01*
Y4623220D01*
G02X1801640Y4580000I-71139J-43220D01*
G02X1635160I-83240J0D01*
G02X1645940Y4620980I83243J10D01*
G01X1647260Y4623300D01*
Y4654260D01*
X1619570D01*
G03X1599710Y4629650I2J-20320D01*
G02X1600740Y4620000I-44710J-9652D01*
G01Y4560000D01*
G02X1555000Y4514260I-45740J0D01*
G01X1445000D01*
G02X1399260Y4560000I0J45740D01*
G01Y4620000D01*
G02X1409870Y4649300I45743J7D01*
G03X1408640Y4676680I-15603J13017D01*
G01X1374260Y4711050D01*
G37*
G54D50*
X1385000Y140000D03*
X2515000D03*
G54D48*
X8950800Y4654000D03*
G54D49*
Y4146000D03*
G54D47*
X7420000Y6200000D03*
G54D46*
X9210000Y5690000D03*
%LPD*%
G75*
G36*
G01X1420000Y4730000D02*
Y5000000D01*
X1450000Y5030000D01*
X1730000D01*
X1770000Y4990000D01*
Y4720000D01*
X1750000Y4700000D01*
X1450000D01*
X1420000Y4730000D01*
G37*
G36*
G01X1729610Y4672620D02*
X1768400Y4720000D01*
X1718400Y4786350D01*
X1668400Y4720000D01*
X1707190Y4672620D01*
G03X1729610I11210J22790D01*
G37*
G54D10*
X345000Y1100000D03*
X145000D03*
X345000Y1300000D03*
X145000D03*
X345000Y1699780D03*
X145000D03*
X345000Y1500000D03*
X145000D03*
X5875000Y900580D03*
X5675000D03*
X5875000Y650000D03*
X5675000D03*
G54D20*
X1050000Y310000D03*
X1490000D03*
X2180000D03*
X2620000D03*
X3310000D03*
X3750000D03*
G54D11*
X330000Y950000D03*
X140000D03*
X200000Y2240000D03*
X350000D03*
X670000Y200000D03*
Y390000D03*
X666200Y1400000D03*
Y993800D03*
Y1810000D03*
X750000Y3720000D03*
X680000Y3650000D03*
X600000Y3570000D03*
X865000Y3585000D03*
X1110000Y580000D03*
X1300000D03*
X1130000Y1180000D03*
X1320000D03*
X1420000Y2430000D03*
Y2240000D03*
X1070000Y2380000D03*
X1420000Y2820000D03*
Y2630000D03*
X1360000Y3110000D03*
X1050000Y3090000D03*
X960000Y3000000D03*
Y3090000D03*
X1300000Y3670000D03*
Y3830000D03*
X1310000Y4180000D03*
X1097670Y6129410D03*
Y5629410D03*
X1500000Y580000D03*
X1690000D03*
X1920000D03*
X1520000Y1180000D03*
X1710000D03*
X1850000Y1910000D03*
X1680000Y3130000D03*
Y3440000D03*
X1780000Y3800000D03*
Y3690000D03*
X1510000Y3840000D03*
Y4180000D03*
X1710000D03*
X1470000Y4990000D03*
X1550000D03*
X1630000D03*
X1470000Y4910000D03*
X1550000D03*
X1630000D03*
X1710000D03*
Y4990000D03*
X1597670Y6129410D03*
Y5629410D03*
X2310000Y580000D03*
X2110000D03*
X2000000Y1080000D03*
Y1270000D03*
Y1470000D03*
Y1660000D03*
X2300000Y2060000D03*
Y2150000D03*
X1970000Y2940000D03*
X2210000D03*
X2400000Y2580000D03*
X1970000Y3130000D03*
Y3440000D03*
X2340000Y3000000D03*
X2425000D03*
X2460000Y3480000D03*
X2375000D03*
X1950000Y3800000D03*
X2300000Y3790000D03*
X1990000Y3585000D03*
X2425000Y4080000D03*
X2097670Y6129410D03*
Y5629410D03*
X2500000Y580000D03*
X2860000Y2130000D03*
Y2050000D03*
X2960000D03*
X2475000Y2655000D03*
X2950000Y3420000D03*
X2810000Y3495000D03*
X2720000Y4080000D03*
X2610000D03*
X2597670Y6129410D03*
Y5629410D03*
X3490000Y2300000D03*
X3300000D03*
X3490000Y2070000D03*
X3300000D03*
X3020000Y2290000D03*
X3300000Y2550000D03*
X3490000D03*
X3030000Y2630000D03*
X3880000Y2300000D03*
X3690000D03*
X3880000Y2070000D03*
X3690000D03*
Y2550000D03*
X3880000D03*
X3540000Y3530000D03*
Y3770000D03*
Y3640000D03*
X4024970Y5354200D03*
Y5854200D03*
Y6354200D03*
X4400000Y150000D03*
X4210000D03*
X4410000Y430000D03*
X4220000D03*
X4524970Y5354200D03*
Y5854200D03*
Y6354200D03*
X4790000Y150000D03*
X4600000D03*
X4800000Y430000D03*
X4610000D03*
X5050000Y2300000D03*
X5570000Y1260000D03*
X5200000Y2320000D03*
X5280000D03*
X5360000D03*
X5440000D03*
X5520000D03*
X5384370Y3769630D03*
Y4269630D03*
Y4769630D03*
X5600000Y6490000D03*
X5490000Y6487280D03*
X5380000Y6490000D03*
X5600000Y6580000D03*
X5490000Y6577280D03*
X5380000Y6580000D03*
X5150000D03*
X5260000Y6577280D03*
X5150000Y6490000D03*
X5260000Y6487280D03*
X5150000Y6400000D03*
X5260000Y6397280D03*
X5150000Y6310000D03*
X5260000Y6307280D03*
Y6217280D03*
X5150000Y6220000D03*
X5875000Y315000D03*
X6100000Y860000D03*
X5875000Y780000D03*
X6100000Y1240000D03*
X5900000D03*
X6100000Y1120000D03*
X5900000D03*
X6100000Y980000D03*
X5970000Y1940000D03*
X6080000Y1937280D03*
X5970000Y1850000D03*
X6080000Y1847280D03*
X5970000Y1740000D03*
X6080000Y1737280D03*
X5970000Y1650000D03*
X6080000Y1647280D03*
X5970000Y1550000D03*
X6080000Y1547280D03*
X5970000Y1460000D03*
X6080000Y1457280D03*
X5970000Y2030000D03*
X6080000Y2027280D03*
X5970000Y2120000D03*
X6080000Y2117280D03*
X5970000Y2210000D03*
X6080000Y2207280D03*
Y2317280D03*
X5970000Y2320000D03*
X6080000Y2407280D03*
X5970000Y2410000D03*
X5885030Y2800670D03*
X6080000Y2507280D03*
X5970000Y2510000D03*
X6080000Y2597280D03*
X5970000Y2600000D03*
X5885030Y3300670D03*
X5884370Y3769630D03*
Y4269630D03*
Y4769630D03*
X5710000Y5580000D03*
X5820000Y5577280D03*
X5710000Y5490000D03*
X5820000Y5487280D03*
X5930000Y5580000D03*
Y5490000D03*
X5884370Y5129630D03*
X5710000Y5680000D03*
X5820000Y5677280D03*
X5930000Y5680000D03*
X6450370Y184370D03*
X6460370Y594370D03*
X6480000Y860000D03*
X6290000D03*
Y1240000D03*
Y1120000D03*
X6480000D03*
Y1240000D03*
Y980000D03*
X6290000D03*
X6190000Y1940000D03*
Y1850000D03*
Y1740000D03*
Y1650000D03*
Y1550000D03*
Y1460000D03*
Y2030000D03*
Y2120000D03*
Y2210000D03*
Y2320000D03*
Y2410000D03*
X6385030Y2800670D03*
X6190000Y2510000D03*
Y2600000D03*
X6135030Y2800670D03*
X6385030Y3300670D03*
X6384370Y3769630D03*
Y4269630D03*
Y4769630D03*
Y5129630D03*
X6564370Y5809630D03*
X6950370Y184370D03*
X6960370Y594370D03*
X6860000Y1100000D03*
X6930000D03*
X7000000D03*
X6860000Y1030000D03*
X6930000D03*
X7000000D03*
X7180000Y2270000D03*
X7110000D03*
X6884370Y3769630D03*
Y4269630D03*
Y4769630D03*
X7064370Y5809630D03*
X6684370D03*
X6814370D03*
X6934370D03*
Y5689630D03*
X7064370D03*
X7074370Y6009630D03*
Y6349630D03*
Y6509630D03*
Y6869630D03*
Y6689630D03*
X7450370Y184370D03*
X7460370Y594370D03*
X7440000Y1220000D03*
Y1150000D03*
Y1080000D03*
Y1010000D03*
X7250000Y2270000D03*
X7320000D03*
X7390000D03*
X7460000D03*
Y2340000D03*
Y2410000D03*
X7384370Y3769630D03*
Y4269630D03*
Y4769630D03*
X7184370Y5809630D03*
X7314370D03*
X7434370D03*
X7574370Y6009630D03*
Y6349630D03*
Y6509630D03*
X7344370D03*
X7574370Y6869630D03*
Y6689630D03*
X7344370D03*
Y6869630D03*
X7919330Y185030D03*
X7929330Y595030D03*
X8210000Y820000D03*
X8160000Y6620000D03*
Y6530000D03*
Y6440000D03*
X7980000Y6620000D03*
Y6530000D03*
Y6440000D03*
X8070000D03*
Y6530000D03*
Y6620000D03*
X7890000D03*
Y6530000D03*
Y6440000D03*
X7800000D03*
Y6530000D03*
Y6620000D03*
X8070000Y6350000D03*
Y6260000D03*
X8160000D03*
Y6350000D03*
X7890000D03*
X7800000D03*
X7980000D03*
X8419330Y185030D03*
X8429330Y595030D03*
X8660000Y820000D03*
X8480000D03*
X8390000D03*
X8570000D03*
X8300000D03*
X8570000Y1090000D03*
Y1000000D03*
Y910000D03*
X8390000Y1090000D03*
Y1000000D03*
Y910000D03*
X8480000D03*
Y1000000D03*
Y1090000D03*
X8660000Y910000D03*
Y1000000D03*
X8480000Y1920000D03*
X8390000D03*
Y1830000D03*
X8480000D03*
X8570000Y1920000D03*
X8480000Y2010000D03*
X8390000D03*
Y2280000D03*
Y2190000D03*
Y2100000D03*
X8480000D03*
Y2190000D03*
Y2280000D03*
X8570000Y2190000D03*
Y2100000D03*
Y2010000D03*
X8660000D03*
Y2100000D03*
X8230000Y3410000D03*
Y3320000D03*
Y3230000D03*
X8320000D03*
Y3320000D03*
Y3410000D03*
X8500000D03*
Y3320000D03*
Y3230000D03*
X8410000D03*
Y3320000D03*
Y3410000D03*
X8590000Y3230000D03*
Y3320000D03*
Y3410000D03*
Y3140000D03*
Y3050000D03*
X8410000Y3140000D03*
Y3050000D03*
X8500000D03*
Y3140000D03*
X8250000Y6620000D03*
Y6530000D03*
Y6440000D03*
X8340000D03*
Y6530000D03*
Y6620000D03*
Y6350000D03*
Y6260000D03*
X8250000D03*
Y6350000D03*
X8790000Y1410000D03*
X9240000Y1350000D03*
X9150000D03*
X9240000Y1270000D03*
X9150000D03*
X9240000Y1190000D03*
X9150000D03*
X9240000Y1110000D03*
X9150000D03*
X9060000D03*
X8970000D03*
X8880000D03*
X8790000D03*
X9150000Y1430000D03*
X9240000D03*
X8790000Y1940000D03*
X9240000Y1890000D03*
X9150000D03*
X9240000Y1800000D03*
X9150000D03*
X9240000Y1710000D03*
X9150000D03*
X9240000Y1620000D03*
X9150000D03*
X9060000D03*
X8970000D03*
X8880000D03*
X8790000D03*
X9150000Y2460000D03*
X9240000D03*
X9150000Y2370000D03*
X9240000D03*
X9150000Y2280000D03*
X9240000D03*
X9150000Y2190000D03*
X9240000D03*
X8790000D03*
Y2460000D03*
X9060000D03*
X8870000Y1990000D03*
X8970000D03*
X9060000D03*
X9150000D03*
X9240000D03*
Y2970000D03*
X9150000D03*
X9240000Y2870000D03*
X9150000D03*
X9240000Y2770000D03*
X9150000D03*
X8790000Y2680000D03*
X9150000D03*
X8790000Y2970000D03*
X9060000D03*
X8790000Y2550000D03*
X8880000D03*
X9060000D03*
X9150000D03*
X9240000D03*
X8970000D03*
X8790000Y3060000D03*
X8880000D03*
X8970000D03*
X9240000D03*
X9150000D03*
X9060000D03*
X9705030Y820670D03*
Y1320670D03*
X9715030Y1860670D03*
Y2360670D03*
X9714370Y2829630D03*
Y3329630D03*
Y3829630D03*
X9715030Y4310670D03*
Y4810670D03*
X9714370Y5279630D03*
Y5779630D03*
Y6279630D03*
G54D12*
X200000Y2509900D03*
Y2763900D03*
Y3017900D03*
Y5320940D03*
Y5574940D03*
Y5828940D03*
X3150000Y6570000D03*
X3400000D03*
X3650000D03*
X4600000Y647280D03*
Y901280D03*
Y1155280D03*
Y1409280D03*
Y1663280D03*
Y1917280D03*
Y2171280D03*
Y2425280D03*
Y2679280D03*
Y2933280D03*
Y3187280D03*
X4346000Y4030000D03*
Y4500000D03*
X7420000Y6200000D03*
X7920000D03*
G54D30*
X5490000Y5978500D03*
Y6301400D03*
G54D21*
X1240000Y4590000D03*
Y4685000D03*
Y4780000D03*
X1500000D03*
Y4590000D03*
X6100000Y5355000D03*
Y5450000D03*
Y5545000D03*
X6360000Y5450000D03*
Y5545000D03*
Y5355000D03*
G54D40*
G01X513800Y1300000D02*
X345000D01*
G01X513800Y1100000D02*
X345000D01*
G01X1515000Y3495000D02*
X1355000D01*
X1290000Y3430000D01*
X1287480D01*
X1286840Y3429360D01*
X926920D01*
X748080Y3250520D01*
Y1638080D01*
X710000Y1600000D01*
X230000D01*
X145000Y1515000D01*
Y1500000D01*
G01X513800D02*
X345000D01*
G01X865000Y3585000D02*
X600640Y3320640D01*
Y2370640D01*
X540000Y2310000D01*
X170000D01*
X130000Y2270000D01*
Y1730000D01*
X145000Y1715000D01*
Y1699780D01*
G01X513800D02*
X345000D01*
G01X1515000Y3595000D02*
X1395000D01*
X1270000Y3470000D01*
X890000D01*
X700000Y3280000D01*
Y2270000D01*
X600000Y2170000D01*
X270000D01*
X200000Y2240000D01*
G01X350000D02*
X600000D01*
X650000Y2290000D01*
Y3290000D01*
X880000Y3520000D01*
X1260000D01*
X1385000Y3645000D01*
X1515000D01*
G01X28800Y2821200D02*
X40000Y2810000D01*
G01X30000Y3710000D02*
Y3657480D01*
X28800Y3656280D01*
Y2821200D01*
G01X1023800Y3970000D02*
X850000D01*
X570000Y3690000D01*
X120000D01*
X69440Y3639440D01*
Y2890560D01*
X196100Y2763900D01*
X200000D01*
G01X1023800Y3660000D02*
X840000D01*
X560000Y3380000D01*
Y3110000D01*
X467900Y3017900D01*
X200000D01*
G01Y5574940D02*
X404940Y5370000D01*
X2010720D01*
X2130000Y5250720D01*
Y4279280D01*
X2025000Y4174280D01*
Y3955000D01*
G01X200000Y5320940D02*
X1989060D01*
X2080000Y5230000D01*
Y4300000D01*
X1975000Y4195000D01*
Y3955000D01*
G01X1050000Y310000D02*
X790000Y570000D01*
Y583240D01*
X789360Y583880D01*
Y597120D01*
X788720Y597760D01*
Y3233680D01*
X935040Y3380000D01*
X1310720D01*
X1375720Y3445000D01*
X1515000D01*
G01X2180000Y310000D02*
X2059920Y430080D01*
X1000640D01*
X830000Y600720D01*
Y613960D01*
X829360Y614600D01*
Y3216840D01*
X942520Y3330000D01*
X1331440D01*
X1396440Y3395000D01*
X1515000D01*
G01Y3345000D02*
X1417160D01*
X1352160Y3280000D01*
X950000D01*
X870000Y3200000D01*
Y631440D01*
X1030720Y470720D01*
X3149280D01*
X3310000Y310000D01*
G01X666200Y1100000D02*
Y993800D01*
G01X1024600Y4380000D02*
X961740D01*
X914560Y4332820D01*
X663180D01*
X651000Y4345000D01*
X540000D01*
G01X1024600Y4240000D02*
X961740D01*
X909560Y4292180D01*
X663180D01*
X651000Y4280000D01*
X540000D01*
G01X1515000Y3195000D02*
X1176200D01*
G01X1825000Y3955000D02*
Y4045000D01*
X1800000Y4070000D01*
X1123800D01*
X1023800Y3970000D01*
G01X1515000Y3745000D02*
X1108800D01*
X1023800Y3660000D01*
G01X1925000Y3955000D02*
Y4053500D01*
X1920320Y4058180D01*
Y4207160D01*
X1796840Y4330640D01*
X1289220D01*
X1239860Y4380000D01*
X1177000D01*
G01X1875000Y3955000D02*
Y4053500D01*
X1879680Y4058180D01*
Y4190320D01*
X1780000Y4290000D01*
X1289860D01*
X1239860Y4240000D01*
X1177000D01*
G01X1925000Y2785000D02*
Y2535000D01*
X1870000Y2480000D01*
X1740000D01*
X1680000Y2420000D01*
Y2330000D01*
G01X1920000D02*
Y2460000D01*
X1975000Y2515000D01*
Y2785000D01*
G01X1515000Y3245000D02*
X2475000D01*
X2570000Y3340000D01*
Y3809280D01*
X2650000Y3889280D01*
X2819280D01*
X2870000Y3940000D01*
Y4150000D01*
X2930000Y4210000D01*
X3046200D01*
X3136200Y4120000D01*
G01X3380000Y3894000D02*
X3484000D01*
X3520000Y3930000D01*
Y4220000D01*
X3480000Y4260000D01*
X2900000D01*
X2820000Y4180000D01*
Y3980000D01*
X2780000Y3940000D01*
X2630000D01*
X2529360Y3839360D01*
Y3359360D01*
X2465000Y3295000D01*
X1515000D01*
G01X2060000Y2406200D02*
X2025000Y2441200D01*
Y2785000D01*
G01X2200000Y2406200D02*
X2060000D01*
G01X2340000Y3000000D02*
Y2990000D01*
X2375000Y2955000D01*
Y2785000D01*
G01X2425000Y3000000D02*
Y2785000D01*
G01X2400000Y2580000D02*
X2650000D01*
X2685000Y2615000D01*
Y2995000D01*
G01X2375000Y3480000D02*
Y3955000D01*
G01X2720000Y4080000D02*
X2590000Y4210000D01*
X2250000D01*
X2175000Y4135000D01*
Y3955000D01*
G01X2610000Y4080000D02*
X2530000Y4160000D01*
X2280000D01*
X2225000Y4105000D01*
Y3955000D01*
G01X2425000Y4080000D02*
Y3955000D01*
G01X2300000Y3790000D02*
X2325000Y3815000D01*
Y3955000D01*
G01X2075000D02*
Y3670000D01*
X1990000Y3585000D01*
G01X2475000Y2785000D02*
Y2655000D01*
G01X2810000Y3000000D02*
X2765000Y3045000D01*
X2685000D01*
G01X2570000Y3050000D02*
X2575000Y3045000D01*
G01D02*
X2685000D01*
G01Y3245000D02*
X3635000D01*
X3820000Y3060000D01*
X3971500D01*
X3975000Y3056500D01*
G01X2685000Y3295000D02*
X3169500D01*
X3185000Y3310500D01*
G01Y3183500D02*
X3173500Y3195000D01*
X2685000D01*
G01X3975000Y2929500D02*
X3974500Y2930000D01*
X3820000D01*
X3630000Y3120000D01*
X3080000D01*
X3055000Y3145000D01*
X2685000D01*
G01Y3345000D02*
X3015000D01*
X3100000Y3430000D01*
X3590000D01*
X3710000Y3550000D01*
Y4250000D01*
X3400000Y4560000D01*
Y6570000D01*
G01X2950000Y3420000D02*
X2790000D01*
X2765000Y3445000D01*
X2685000D01*
G01X2475000Y3955000D02*
Y3495000D01*
X2460000Y3480000D01*
G01X2685000Y3495000D02*
X2810000D01*
G01X3380000Y3894000D02*
X3192200D01*
X3136200Y3950000D01*
G01X3380000Y4021000D02*
X3235200D01*
X3136200Y4120000D01*
G01X3975000Y2929500D02*
Y2775000D01*
X3930000Y2730000D01*
X3816200D01*
G01X5363800Y650000D02*
X5361080Y647280D01*
X4600000D01*
G01X5363800Y1155280D02*
X4600000D01*
G01X5363800Y900580D02*
X5363100Y901280D01*
X4600000D01*
G01X5780000Y1977280D02*
X5634600D01*
X5513160Y1855840D01*
X5030400D01*
X4791280Y2094960D01*
Y2488000D01*
X4600000Y2679280D01*
G01X5780000Y1927280D02*
X5642080D01*
X5530000Y1815200D01*
X5013560D01*
X4750640Y2078120D01*
Y2274640D01*
X4600000Y2425280D01*
G01X5780000Y1877280D02*
X5652320D01*
X5549600Y1774560D01*
X4996720D01*
X4600000Y2171280D01*
G01X5780000Y1827280D02*
X5659800D01*
X5566440Y1733920D01*
X4783360D01*
X4600000Y1917280D01*
G01X5780000Y1727280D02*
X5677280D01*
X5359280Y1409280D01*
X4600000D01*
G01X5780000Y1777280D02*
X5667280D01*
X5553280Y1663280D01*
X4600000D01*
G01X5780000Y2027280D02*
X5627120D01*
X5496320Y1896480D01*
X5047240D01*
X4831920Y2111800D01*
Y2701360D01*
X4600000Y2933280D01*
G01X5780000Y2127280D02*
X5612160D01*
X5464880Y1980000D01*
X5078680D01*
X4913200Y2145480D01*
Y3128080D01*
X4600000Y3441280D01*
G01X5780000Y2077280D02*
X5619640D01*
X5479480Y1937120D01*
X5064080D01*
X4872560Y2128640D01*
Y2914720D01*
X4600000Y3187280D01*
G01X5675000Y650000D02*
X5516200D01*
G01X5780000Y1577280D02*
X5717280D01*
X5690000Y1550000D01*
Y1100000D01*
X5770000Y1020000D01*
X5960000D01*
X6000000Y980000D01*
Y580000D01*
X5950000Y530000D01*
X5483800D01*
X5363800Y650000D01*
G01X5675000Y900580D02*
X5516200D01*
G01X5780000Y1677280D02*
X5690910D01*
X5600000Y1586370D01*
Y1391480D01*
X5363800Y1155280D01*
G01X5780000Y1627280D02*
X5698390D01*
X5649360Y1578250D01*
Y1089360D01*
X5580000Y1020000D01*
X5483220D01*
X5363800Y900580D01*
G01X6100000Y5355000D02*
X5591200D01*
X5566200Y5380000D01*
G01Y5520000D02*
Y5380000D01*
G01X5413800Y5520000D02*
Y5670000D01*
G01Y5240000D02*
Y5380000D01*
G01X6380000Y1577280D02*
X6396200Y1561080D01*
Y1350000D01*
G01X6360000Y5355000D02*
Y5280000D01*
X6400000Y5240000D01*
X6607600D01*
G01X6760000D02*
Y5350000D01*
G54D13*
X200000Y3271900D03*
Y6082940D03*
X4600000Y4030000D03*
Y4500000D03*
G54D31*
X6080000Y2027280D03*
G54D22*
X1680000Y2330000D03*
X1800000D03*
X1920000D03*
G54D41*
G01X666200Y1300000D02*
Y1400000D01*
G01D02*
Y1500000D01*
G01Y1699780D02*
Y1810000D01*
G01X540000Y4150000D02*
X400000D01*
G01X540000D02*
X670000D01*
G01X540000D02*
Y4070000D01*
G01X1400000Y3070000D02*
X1425000Y3045000D01*
X1515000D01*
G01X1330000Y2990000D02*
X1335000Y2995000D01*
G01D02*
X1515000D01*
G01X1645000Y3955000D02*
X1725000D01*
G01X1240000Y4590000D02*
X1030000D01*
G01X1515000Y2995000D02*
X1695000D01*
X1725000Y2965000D01*
Y2785000D01*
G01X1640000Y3070000D02*
X1615000Y3045000D01*
X1515000D01*
G01X1780000Y3800000D02*
X1775000Y3805000D01*
G01D02*
Y3955000D01*
G01X2200000Y2253800D02*
Y1940000D01*
G01X2275000Y2785000D02*
Y2368800D01*
X2390000Y2253800D01*
G01D02*
X2543800D01*
G01X2325000Y2785000D02*
Y2471200D01*
X2390000Y2406200D01*
G01X2543800D02*
X2390000D01*
G01X3070000Y3060000D02*
X3035000Y3095000D01*
X2835000D01*
G01X2805000D02*
X2835000D01*
G01D02*
X2860000Y3070000D01*
G01X2685000Y3095000D02*
X2805000D01*
G01D02*
X2840000Y3060000D01*
G01X2820000Y3660000D02*
X2785000Y3695000D01*
X2685000D01*
G01Y3745000D02*
X2953800D01*
X2983800Y3775000D01*
G01X3130000Y2723800D02*
X3136200Y2730000D01*
G01X3663800D02*
X3573800Y2820000D01*
X3420000D01*
X3333800Y2733800D01*
Y2730000D01*
G01X2983800Y3775000D02*
Y3772400D01*
X3136200Y3620000D01*
G01X3975000Y3183500D02*
X4256500D01*
G01D02*
X4260000Y3180000D01*
G01X5516200Y1155280D02*
X5570000Y1209080D01*
Y1260000D01*
G01X5657280Y2327280D02*
X5569660D01*
G01X5220000Y2280000D02*
X5227000Y2273000D01*
G01X5230000Y2290000D02*
X5620000D01*
G01X5569660Y2327280D02*
X5546940Y2350000D01*
X5490000D01*
G01X5227000Y2273000D02*
X5633000D01*
X5687280Y2327280D01*
G01X5780000Y2227280D02*
X5273480D01*
X5196200Y2150000D01*
G01X5780000Y2177280D02*
X5538880D01*
X5511600Y2150000D01*
G01X5780000Y2477280D02*
Y2580000D01*
X5680000Y2680000D01*
X5440000D01*
X5359200Y2599200D01*
Y2590000D01*
G01X5780000Y2427280D02*
X5682720D01*
X5520000Y2590000D01*
X5511600D01*
G01X5780000Y2377280D02*
X5662720D01*
X5590000Y2450000D01*
X5511600D01*
G01X5875000Y650000D02*
Y780000D01*
G01D02*
Y900580D01*
G01X5900000Y2280000D02*
X5897280Y2277280D01*
G01D02*
X5780000D01*
G01Y2327280D02*
X5687280D01*
G01X5657280D02*
X5687280D01*
G01X5620000Y2290000D02*
X5657280Y2327280D01*
G01X7840000Y1060000D02*
Y880000D01*
X7740000Y780000D01*
X6828560D01*
X6610000Y998560D01*
Y1570000D01*
X6552720Y1627280D01*
X6380000D01*
G01X6260000Y1780000D02*
X6262720Y1777280D01*
G01X6380000D02*
X6728060D01*
X6844280Y1661060D01*
Y1411060D01*
X6931060Y1324280D01*
X7175720D01*
X7220000Y1280000D01*
Y1030000D01*
G01X6262720Y1777280D02*
X6380000D01*
G01Y1677280D02*
X6572720D01*
X6660000Y1590000D01*
Y1019280D01*
X6849280Y830000D01*
X7530000D01*
X7669000Y969000D01*
X7710000D01*
G01X6380000Y1727280D02*
X6592720D01*
X6710000Y1610000D01*
Y1040000D01*
X6870000Y880000D01*
X7490000D01*
X7550000Y940000D01*
Y1177600D01*
X7595400Y1223000D01*
X7710000D01*
G01X6380000Y1877280D02*
X7452720D01*
X7570020Y1759980D01*
X7814600D01*
X7840000Y1734580D01*
Y1594400D01*
X7814600Y1569000D01*
X7710000D01*
G01X6380000Y1827280D02*
X6742720D01*
X6890000Y1680000D01*
Y1430000D01*
X6950000Y1370000D01*
X7170000D01*
X7220000Y1420000D01*
Y1670000D01*
G01X6380000Y2027280D02*
X6253120D01*
G01X6250000Y2230000D02*
X6252720Y2227280D01*
G01X7140000Y2510000D02*
Y2670000D01*
X7087330Y2722670D01*
X6947330D01*
X6885720Y2661060D01*
Y2401060D01*
X6711940Y2227280D01*
X6380000D01*
G01X6252720D02*
X6380000D01*
G01X7650000Y3200000D02*
X7530000Y3320000D01*
X6790000D01*
X6610000Y3140000D01*
Y2520000D01*
X6517280Y2427280D01*
X6380000D01*
G01Y2377280D02*
X6538000D01*
X6660000Y2499280D01*
Y3119280D01*
X6810720Y3270000D01*
X7510000D01*
X7570000Y3210000D01*
Y3100000D01*
X7657000Y3013000D01*
X7710000D01*
G01X6380000Y2327280D02*
X6558720D01*
X6710000Y2478560D01*
Y3098560D01*
X6831440Y3220000D01*
X7484280D01*
X7524280Y3180000D01*
Y3035720D01*
X7610980Y2949020D01*
X7814600D01*
X7840000Y2923620D01*
Y2784400D01*
X7814600Y2759000D01*
X7710000D01*
G01X6380000Y2177280D02*
X7527280D01*
X7580000Y2230000D01*
Y2350000D01*
X7653000Y2423000D01*
X7710000D01*
G01X6380000Y2127280D02*
X7617280D01*
X7659000Y2169000D01*
X7710000D01*
G01X7890000Y2250000D02*
Y2140000D01*
X7827280Y2077280D01*
X6380000D01*
G01Y1927280D02*
X7542720D01*
X7647000Y1823000D01*
X7710000D01*
G01X6380000Y1977280D02*
X7682720D01*
G01X7140000Y2990000D02*
Y2820000D01*
X7090000Y2770000D01*
X6930000D01*
X6840000Y2680000D01*
Y2420000D01*
X6697280Y2277280D01*
X6380000D01*
G01X6270000Y2480000D02*
X6272720Y2477280D01*
G01X6380000D02*
Y2540000D01*
G01X6480000Y2500000D02*
X6457280Y2477280D01*
X6380000D01*
G01X6272720D02*
X6380000D01*
G01X7220000Y2430000D02*
X7140000Y2510000D01*
G01X7220000Y3070000D02*
X7140000Y2990000D01*
G01X7682720Y1977280D02*
X7710000Y1950000D01*
G01X7180000Y3040000D02*
X7210000Y3070000D01*
X7220000D01*
G01X7880000Y2260000D02*
X7890000Y2250000D01*
G54D14*
X230000Y3860000D03*
Y4700000D03*
G54D32*
X5780000Y1577280D03*
Y1627280D03*
Y1677280D03*
Y1727280D03*
Y1777280D03*
Y1827280D03*
Y1877280D03*
Y1927280D03*
Y1977280D03*
Y2027280D03*
Y2077280D03*
Y2127280D03*
Y2177280D03*
Y2227280D03*
Y2277280D03*
Y2327280D03*
Y2377280D03*
Y2427280D03*
Y2477280D03*
X6380000Y1927280D03*
Y1877280D03*
Y1827280D03*
Y1777280D03*
Y1727280D03*
Y1677280D03*
Y1627280D03*
Y1577280D03*
Y2427280D03*
Y2377280D03*
Y2327280D03*
Y2277280D03*
Y2227280D03*
Y2177280D03*
Y2127280D03*
Y2077280D03*
Y2027280D03*
Y1977280D03*
Y2477280D03*
G54D23*
X1925000Y2785000D03*
X1875000D03*
X1825000D03*
X1775000D03*
X1725000D03*
Y3955000D03*
X1775000D03*
X1825000D03*
X1875000D03*
X1925000D03*
X2425000Y2785000D03*
X2375000D03*
X2325000D03*
X2275000D03*
X2225000D03*
X2175000D03*
X2125000D03*
X2075000D03*
X2025000D03*
X1975000D03*
Y3955000D03*
X2025000D03*
X2075000D03*
X2125000D03*
X2175000D03*
X2225000D03*
X2275000D03*
X2325000D03*
X2375000D03*
X2425000D03*
X2475000Y2785000D03*
Y3955000D03*
G54D42*
G01X200000Y3271900D02*
Y3422800D01*
G01Y3271900D02*
X350900D01*
G01X200000Y6082940D02*
Y6233840D01*
G01X49100Y6082940D02*
X200000D01*
G01D02*
X350900D01*
G01X895000Y110000D02*
Y248400D01*
G01X756600Y110000D02*
X895000D01*
G01D02*
X1033400D01*
G01X1886600D02*
X2025000D01*
G01X1645000D02*
Y248400D01*
G01X1506600Y110000D02*
X1645000D01*
G01D02*
X1783400D01*
G01X2025000D02*
Y248400D01*
G01Y110000D02*
X2163400D01*
G01X2775000D02*
Y248400D01*
G01X2636600Y110000D02*
X2775000D01*
G01D02*
X2913400D01*
G01X2844100Y6240000D02*
X3000000D01*
G01X3155000Y110000D02*
Y248400D01*
G01X3016600Y110000D02*
X3155000D01*
G01D02*
X3293400D01*
G01X3000000Y5984100D02*
Y6240000D01*
G01D02*
X3155900D01*
G01X3766600Y110000D02*
X3905000D01*
G01D02*
X4043400D01*
G01X3800000Y5984100D02*
Y6240000D01*
G01X3650000Y6424100D02*
Y6570000D01*
G01D02*
Y6715900D01*
G01Y6570000D02*
X3795900D01*
G01X3800000Y6240000D02*
Y6495900D01*
G01X3644100Y6240000D02*
X3800000D01*
G01D02*
X3955900D01*
G01X7420000Y6054100D02*
Y6200000D01*
G01D02*
Y6345900D01*
G01X7274100Y6200000D02*
X7420000D01*
G01D02*
X7565900D01*
G01X8950800Y3965100D02*
Y4146000D01*
G01D02*
Y4326900D01*
G01X8769900Y4146000D02*
X8950800D01*
G01D02*
X9131700D01*
G01X9210000Y5434100D02*
Y5690000D01*
G01D02*
Y5945900D01*
G01X9054100Y5690000D02*
X9210000D01*
G01D02*
X9365900D01*
G54D15*
X895000Y110000D03*
X1645000D03*
X2025000D03*
X2775000D03*
X3155000D03*
X3905000D03*
G54D33*
X5845000Y6140000D03*
X6335000D03*
G54D24*
X1515000Y2995000D03*
Y3045000D03*
Y3095000D03*
Y3145000D03*
Y3195000D03*
Y3245000D03*
Y3295000D03*
Y3345000D03*
Y3395000D03*
Y3445000D03*
Y3495000D03*
Y3545000D03*
Y3595000D03*
Y3645000D03*
Y3695000D03*
Y3745000D03*
X2685000Y3495000D03*
Y3445000D03*
Y3395000D03*
Y3345000D03*
Y3295000D03*
Y3245000D03*
Y3195000D03*
Y3145000D03*
Y3095000D03*
Y3045000D03*
Y2995000D03*
Y3745000D03*
Y3695000D03*
Y3645000D03*
Y3595000D03*
Y3545000D03*
G54D43*
G01X3150000Y6570000D02*
X880000D01*
X780000Y6470000D01*
Y5950000D01*
X658940Y5828940D01*
X200000D01*
G01X1176200Y3830000D02*
Y3970000D01*
G01D02*
X1191200Y3955000D01*
X1645000D01*
G01X1176200Y3830000D02*
X1300000D01*
G01X1240000Y4780000D02*
X1130000D01*
G01X1718400Y4580000D02*
Y4780000D01*
G01X2850000Y2406200D02*
X2696200D01*
G01X3076200D02*
X2850000D01*
G01X3140000Y1940000D02*
X3130000Y1950000D01*
G01X3136200Y2730000D02*
Y2466200D01*
X3076200Y2406200D01*
G01X3130000Y1950000D02*
Y2352400D01*
X3076200Y2406200D01*
G01X3136200Y2730000D02*
X3333800D01*
G01X3540000Y3640000D02*
X3380000D01*
G01D02*
X3156200D01*
X3136200Y3620000D01*
G01X2983800Y3950000D02*
Y4120000D01*
G01Y3775000D02*
Y3950000D01*
G01X3750000Y310000D02*
X3755000Y315000D01*
X5875000D01*
G01X3750000Y1900000D02*
Y310000D01*
G01X3760000Y1910000D02*
X3750000Y1900000D01*
G01X6100000Y5545000D02*
X6153800Y5598800D01*
Y5720000D01*
G01X7510000Y1700000D02*
X7514000Y1696000D01*
X7710000D01*
G01X7550000Y2890000D02*
X7554000Y2886000D01*
X7710000D01*
G54D34*
X7220000Y1030000D03*
Y1670000D03*
Y2430000D03*
Y3070000D03*
G54D16*
X666200Y1300000D03*
X513800D03*
X666200Y1100000D03*
X513800D03*
X666200Y1699780D03*
X513800D03*
X666200Y1500000D03*
X513800D03*
X1176200Y3195000D03*
X1023800D03*
Y3830000D03*
X1176200D03*
Y3660000D03*
X1023800D03*
X1176200Y3970000D03*
X1023800D03*
X1024600Y4380000D03*
X1177000D03*
X1024600Y4240000D03*
X1177000D03*
X2060000Y1923800D03*
Y2076200D03*
Y2406200D03*
Y2253800D03*
X2390000D03*
Y2406200D03*
X2200000Y2253800D03*
Y2406200D03*
X2850000Y2253800D03*
Y2406200D03*
X2543800D03*
X2696200D03*
X2543800Y2253800D03*
X2696200D03*
X2983800Y2730000D03*
Y3775000D03*
Y3620000D03*
Y3950000D03*
Y4120000D03*
X3333800Y2730000D03*
X3486200D03*
X3136200D03*
Y3775000D03*
Y3620000D03*
Y3950000D03*
Y4120000D03*
X3663800Y2730000D03*
X3816200D03*
X5043800Y2150000D03*
Y2450000D03*
X5516200Y900580D03*
X5363800D03*
X5516200Y650000D03*
X5363800D03*
X5516200Y1155280D03*
X5363800D03*
X5196200Y2150000D03*
X5511600D03*
X5359200D03*
X5196200Y2450000D03*
X5511600D03*
X5359200D03*
Y2590000D03*
X5511600D03*
X5413800Y5240000D03*
X5566200D03*
X5413800Y5520000D03*
X5566200D03*
Y5380000D03*
X5413800D03*
Y5670000D03*
X5566200D03*
X6243800Y1350000D03*
X6396200D03*
X6600000Y5533800D03*
X6607600Y5240000D03*
X6600000Y5686200D03*
X6153800Y5720000D03*
X6306200D03*
X6760000Y5533800D03*
Y5240000D03*
Y5686200D03*
G54D25*
X1718400Y4580000D03*
X5160000Y5670000D03*
G54D44*
G01X1850000Y1910000D02*
X2046200D01*
X2060000Y1923800D01*
G54D17*
X490000Y3950000D03*
Y4610000D03*
G54D26*
X3000000Y6240000D03*
X3800000D03*
X8610000Y5690000D03*
X9210000D03*
G54D35*
X6710000Y5965000D03*
Y6315000D03*
G54D45*
G01X5160000Y5670000D02*
Y4160000D01*
X5030000Y4030000D01*
X4600000D01*
G54D36*
X8890000Y6170000D03*
G54D27*
X3185000Y2929500D03*
Y3056500D03*
Y3183500D03*
Y3310500D03*
X3975000Y2929500D03*
Y3310500D03*
Y3183500D03*
Y3056500D03*
G54D18*
X540000Y4150000D03*
Y4215000D03*
Y4280000D03*
Y4345000D03*
Y4410000D03*
G54D37*
X8950800Y1296000D03*
Y1804000D03*
Y2312000D03*
Y2820000D03*
Y4654000D03*
Y4146000D03*
G54D19*
X779200Y4780000D03*
X982400D03*
X1718400D03*
X1921600D03*
G54D28*
X3380000Y3640000D03*
Y3767000D03*
Y3894000D03*
Y4021000D03*
X3920000D03*
Y3894000D03*
Y3767000D03*
Y3640000D03*
X7710000Y969000D03*
Y1096000D03*
Y1223000D03*
Y1350000D03*
Y1569000D03*
Y1696000D03*
Y1823000D03*
Y1950000D03*
Y2169000D03*
Y2296000D03*
Y2423000D03*
Y2759000D03*
Y2886000D03*
Y2550000D03*
Y3013000D03*
Y3140000D03*
X8250000Y1350000D03*
Y1223000D03*
Y1096000D03*
Y969000D03*
Y1823000D03*
Y1696000D03*
Y1569000D03*
Y1950000D03*
Y2423000D03*
Y2296000D03*
Y2169000D03*
Y2886000D03*
Y2759000D03*
Y2550000D03*
Y3140000D03*
Y3013000D03*
G54D38*
G01X290000Y0D02*
X9710000D01*
G03X10000000Y290000I0J290000D01*
G01Y6710000D01*
G03X9710000Y7000000I-290000J0D01*
G01X290000D01*
G03X0Y6710000I0J-290000D01*
G01Y290000D01*
G03X290000Y0I290000J0D01*
G01X450000Y290000D02*
G03I-160000J0D01*
G01Y6710000D02*
G03I-160000J0D01*
G01X490000Y4480000D02*
G03I-30000J0D01*
G01Y4080000D02*
G03I-30000J0D01*
G01X1205000Y140000D02*
G03I-50000J0D01*
G01X1435000D02*
G03I-50000J0D01*
G01X2335000D02*
G03I-50000J0D01*
G01X2565000D02*
G03I-50000J0D01*
G01X3465000D02*
G03I-50000J0D01*
G01X3695000D02*
G03I-50000J0D01*
G01X9870000Y290000D02*
G03I-160000J0D01*
G01Y6710000D02*
G03I-160000J0D01*
G54D29*
X4600000Y3441280D03*
G54D39*
G01X680000Y4440000D02*
X650000Y4410000D01*
G01D02*
X540000D01*
M02*
