G04 ================== begin FILE IDENTIFICATION RECORD ==================*
G04 Layout Name:  TB67S109_V10_220218.brd*
G04 Film Name:    BOTTOM*
G04 File Format:  Gerber RS274X*
G04 File Origin:  Cadence Allegro 17.2-S071*
G04 Origin Date:  Tue Feb 22 12:04:58 2022*
G04 *
G04 Layer:  ETCH/BOTTOM*
G04 Layer:  PIN/BOTTOM*
G04 Layer:  VIA CLASS/BOTTOM*
G04 *
G04 Offset:    (0.0000 0.0000)*
G04 Mirror:    No*
G04 Mode:      Positive*
G04 Rotation:  0*
G04 FullContactRelief:  No*
G04 UndefLineWidth:     0.1524*
G04 ================== end FILE IDENTIFICATION RECORD ====================*
%FSLAX55Y55*MOMM*%
%IR0*IPPOS*OFA0.00000B0.00000*MIA0B0*SFA1.00000B1.00000*%
%ADD12C,.508*%
%ADD21C,.762*%
%ADD16O,1.X2.1*%
%ADD15O,4.X2.*%
%ADD13O,2.X4.*%
%ADD17O,1.X1.6*%
%ADD19C,1.*%
%ADD11C,2.2*%
%ADD14C,2.3*%
%ADD23C,1.6*%
%ADD18R,1.X1.*%
%ADD20C,1.65*%
%ADD22R,1.6X1.6*%
%ADD10C,6.9*%
%ADD24C,.2032*%
%ADD26C,.8004*%
%ADD27C,1.2004*%
%ADD28C,3.1148*%
%ADD29C,3.2148*%
%ADD25O,2.9148X4.9148*%
G75*
%LPD*%
G75*
G36*
G01X7767870Y5370000D02*
X8140000D01*
G02X8470000Y5040000I0J-330000D01*
G01Y360000D01*
G02X8140000Y30000I-330000J0D01*
G01X360000D01*
G02X30000Y360000I0J330000D01*
G01Y5040000D01*
G02X360000Y5370000I330000J0D01*
G01X5779650D01*
G02X5797850Y5340650I-4J-20320D01*
G03X5785980Y5290000I102149J-50655D01*
G03X6014020I114020J0D01*
G03X6002150Y5340650I-114019J-5D01*
G02X6020350Y5370000I18204J9030D01*
G01X6522130D01*
G02X6540260Y5340500I0J-20321D01*
G03X6528200Y5290000I99738J-50509D01*
G03X6751800I111800J0D01*
G03X6739740Y5340500I-111798J-9D01*
G02X6757870Y5370000I18130J9179D01*
G01X6773640D01*
G02X6791720Y5340410I0J-20318D01*
G03X6779550Y5290020I98282J-50401D01*
G01Y5290000D01*
G03X7000450I110450J0D01*
G01Y5290020D01*
G03X6988280Y5340410I-110452J-11D01*
G02X7006360Y5370000I18080J9272D01*
G01X7532130D01*
G02X7550260Y5340500I0J-20321D01*
G03X7538200Y5290000I99738J-50509D01*
G03X7761800I111800J0D01*
G03X7749740Y5340500I-111798J-9D01*
G02X7767870Y5370000I18130J9179D01*
G37*
%LPC*%
G75*
G36*
G01X1995470Y1754530D02*
G02X2035000Y1770900I39530J-39543D01*
G01X2871000D01*
G02X2915000Y1786140I44000J-55897D01*
G02Y1643860I0J-71140D01*
G02X2871000Y1659100I0J71137D01*
G01X2058150D01*
X2035900Y1636850D01*
Y774000D01*
G02X2051140Y730000I-55897J-44000D01*
G02X1908860I-71140J0D01*
G02X1924100Y774000I71137J0D01*
G01Y1660000D01*
G02X1940470Y1699530I55913J0D01*
G01X1995470Y1754530D01*
G37*
G36*
G01X976860Y2018930D02*
G03X970140Y2053050I-13671J15029D01*
G02X874260Y2190000I49866J136950D01*
G02X1020000Y2335740I145740J0D01*
G01X1220000D01*
G02Y2044260I0J-145740D01*
G01X1216990D01*
G03X1202180Y2010030I1J-20319D01*
G02X1245740Y1900000I-117185J-110030D01*
G02X924260I-160740J0D01*
G02X976860Y2018930I160752J0D01*
G37*
G36*
G01X7694960Y2982610D02*
G03Y3017390I-10514J17390D01*
G02X7634260Y3125000I65036J107610D01*
G02X7885740I125740J0D01*
G02X7825040Y3017390I-125736J0D01*
G03Y2982610I10514J-17390D01*
G02Y2767390I-65036J-107610D01*
G03Y2732610I10514J-17390D01*
G02X7885740Y2625000I-65036J-107610D01*
G02X7828300Y2519430I-125734J0D01*
G01X7823660Y2516430D01*
Y2500740D01*
X7840000D01*
G02X7885740Y2455000I0J-45740D01*
G01Y2295000D01*
G02X7840000Y2249260I-45740J0D01*
G01X7680000D01*
G02X7634260Y2295000I0J45740D01*
G01Y2455000D01*
G02X7680000Y2500740I45740J0D01*
G01X7696340D01*
Y2516430D01*
X7691700Y2519430D01*
G02X7634260Y2625000I68294J105570D01*
G02X7694960Y2732610I125736J0D01*
G03Y2767390I-10514J17390D01*
G02Y2982610I65036J107610D01*
G37*
G36*
G01X1629700Y5040300D02*
G02X1680000Y5061140I50300J-50283D01*
G01X2930000D01*
G02X2980300Y5040300I-6J-71137D01*
G01X3050300Y4970300D01*
G02X3071140Y4920000I-50297J-50306D01*
G01Y4871140D01*
X4213200D01*
G02X4257650Y4855540I0J-71127D01*
G03X4270350I6350J7935D01*
G02X4314800Y4871140I44450J-55527D01*
G01X5419200D01*
G02X5469500Y4850300I-6J-71137D01*
G01X5520300Y4799500D01*
G02X5541140Y4749200I-50297J-50306D01*
G01Y4644070D01*
G02Y4515930I-71134J-64070D01*
G01Y4330000D01*
G02X5520300Y4279700I-71137J6D01*
G01X5420300Y4179700D01*
G02X5370000Y4158860I-50306J50297D01*
G01X4949470D01*
X4926140Y4135530D01*
Y3306140D01*
X5425000D01*
G02X5475300Y3285300I-6J-71137D01*
G01X5541900Y3218700D01*
G02X5562740Y3168400I-50297J-50306D01*
G01Y2637870D01*
X5579470Y2621140D01*
X5820000D01*
G02X5890940Y2555300I0J-71138D01*
G01X5891640Y2545900D01*
X5996850D01*
X6009270Y2558330D01*
X6009800Y2561550D01*
G02X6029950Y2600560I70198J-11551D01*
G03Y2629440I-14292J14440D01*
G02X6008860Y2680000I50060J50560D01*
G01Y3230000D01*
G02X6151140I71140J0D01*
G01Y2680000D01*
G02X6130050Y2629440I-71150J0D01*
G03Y2600560I14292J-14440D01*
G02X6151140Y2550000I-50060J-50560D01*
G02X6091550Y2479800I-71145J0D01*
G01X6088330Y2479270D01*
X6059530Y2450470D01*
G02X6020000Y2434100I-39530J39543D01*
G01X4830000D01*
G02X4790470Y2450470I0J55913D01*
G01X4783240Y2457700D01*
G03X4765900Y2450520I-7181J-7185D01*
G01Y2413150D01*
X4793150Y2385900D01*
X6086000D01*
G02X6130000Y2401140I44000J-55897D01*
G02X6201140Y2330000I0J-71140D01*
G02X6184190Y2283910I-71138J0D01*
G03X6184810Y2256880I15476J-13167D01*
G02X6203950Y2208330I-52005J-48550D01*
G02X6132810Y2137190I-71140J0D01*
G02X6088810Y2152430I0J71137D01*
G01X4701670D01*
G02X4662140Y2168800I0J55913D01*
G01X4550470Y2280470D01*
G02X4534100Y2320000I39543J39530D01*
G01Y2616570D01*
G03X4502250Y2633290I-20318J-7D01*
G02X4493720Y2628250I-40368J58583D01*
G03X4484830Y2600640I9099J-18166D01*
G02X4491230Y2574660I-49502J-25973D01*
G01Y2319330D01*
G02X4506470Y2275330I-55897J-44000D01*
G02X4364190I-71140J0D01*
G02X4379430Y2319330I71137J0D01*
G01Y2490210D01*
G03X4345980Y2505710I-20318J-4D01*
G02X4300000Y2488860I-45974J54292D01*
G02X4228860Y2560000I0J71140D01*
G02X4244100Y2604000I71137J0D01*
G01Y4340000D01*
G02X4260470Y4379530I55913J0D01*
G01X4380470Y4499530D01*
G02X4420000Y4515900I39530J-39543D01*
G01X5076850D01*
X5125400Y4564460D01*
X5124860Y4569320D01*
G02X5124260Y4580000I95139J10702D01*
G02X5220000Y4484260I95740J0D01*
G02X5209320Y4484860I22J95739D01*
G01X5204460Y4485400D01*
X5139530Y4420470D01*
G02X5100000Y4404100I-39530J39543D01*
G01X4443150D01*
X4355900Y4316850D01*
Y3194010D01*
G03X4390590Y3179640I20321J-1D01*
G01X4410470Y3199530D01*
G02X4450000Y3215900I39530J-39543D01*
G01X4784350D01*
Y3226620D01*
X4784290Y3227180D01*
G02X4783860Y3235000I70711J7810D01*
G01Y4165000D01*
G02X4804700Y4215300I71137J-6D01*
G01X4869700Y4280300D01*
G02X4920000Y4301140I50306J-50297D01*
G01X5340530D01*
X5398860Y4359470D01*
Y4515930D01*
G02Y4644070I71134J64070D01*
G01Y4719730D01*
X5389730Y4728860D01*
X4344270D01*
X4335140Y4719730D01*
Y4707680D01*
X4337500Y4704850D01*
G02X4359740Y4643500I-73498J-61350D01*
G02X4264000Y4547760I-95740J0D01*
G02X4254500Y4548230I-25J95741D01*
G03X4232270Y4526000I-2013J-20217D01*
G02X4232740Y4516500I-95271J-9475D01*
G02X4192900Y4438770I-95748J0D01*
G01Y3867000D01*
G02X4176530Y3827470I-55913J0D01*
G01X4120730Y3771670D01*
X4120200Y3768450D01*
G02X4050000Y3708860I-70200J11555D01*
G02X3978860Y3780000I0J71140D01*
G02X4038450Y3850200I71145J0D01*
G01X4041670Y3850730D01*
X4081100Y3890150D01*
Y4412140D01*
G03X4051890Y4430410I-20319J-1D01*
G02X3968110I-41890J86096D01*
G03X3938900Y4412140I-8891J-18271D01*
G01Y3660150D01*
X4129530Y3469530D01*
G02X4145900Y3430000I-39543J-39530D01*
G01Y3250000D01*
G02X4129530Y3210470I-55913J0D01*
G01X4054850Y3135790D01*
G02X4015320Y3119420I-39530J39543D01*
G01X3779320D01*
G02X3735320Y3104180I-44000J55897D01*
G02Y3246460I0J71140D01*
G02X3779320Y3231220I0J-71137D01*
G01X3992170D01*
X4034100Y3273150D01*
Y3278620D01*
G03X4012940Y3298920I-20319J-2D01*
G02X4010000Y3298860I-2921J71080D01*
G02X3939800Y3358450I0J71145D01*
G01X3939270Y3361670D01*
X3848110Y3452840D01*
G03X3816250Y3448810I-14367J-14369D01*
G02X3755000Y3413860I-61250J36195D01*
G01X3564470D01*
X3496140Y3345530D01*
Y1844470D01*
X3534470Y1806140D01*
X4238860D01*
Y1880000D01*
G02X4259700Y1930300I71123J0D01*
G01X4414700Y2085300D01*
G02X4465000Y2106140I50306J-50297D01*
G01X4470000D01*
G02X4541140Y2035000I0J-71140D01*
G02X4503440Y1972210I-71139J0D01*
G01X4502110Y1971500D01*
X4381140Y1850530D01*
Y1524470D01*
X4439470Y1466140D01*
X4615000D01*
G02X4665300Y1445300I-6J-71137D01*
G01X4790300Y1320300D01*
G02X4811140Y1270000I-50283J-50300D01*
G01Y735740D01*
X4998950D01*
X5045740Y688950D01*
Y525740D01*
X6221050D01*
X6234260Y538950D01*
Y2118950D01*
X6301050Y2185740D01*
X7021050D01*
X7084260Y2248950D01*
Y3281050D01*
X7061050Y3304260D01*
X6281050D01*
X6214260Y3371050D01*
Y3658950D01*
X6281050Y3725740D01*
X7388950D01*
X7515740Y3598950D01*
Y1941050D01*
X7358950Y1784260D01*
X6668950D01*
X6655740Y1771050D01*
Y241050D01*
X6558950Y144260D01*
X2771050D01*
X2704260Y211050D01*
Y558950D01*
X2761050Y615740D01*
X3208950D01*
X3298950Y525740D01*
X4664260D01*
Y642750D01*
X4663590Y644510D01*
G02X4658860Y670000I66407J25507D01*
G02X4667610Y704180I71133J0D01*
G01X4668860Y706460D01*
Y1240530D01*
X4585530Y1323860D01*
X4410000D01*
G02X4359700Y1344700I6J71137D01*
G01X4310000Y1394390D01*
X4260300Y1344700D01*
G02X4210000Y1323860I-50306J50297D01*
G01X2615000D01*
G02Y1466140I0J71140D01*
G01X4180530D01*
X4238860Y1524470D01*
Y1663860D01*
X3505000D01*
G02X3454700Y1684700I6J71137D01*
G01X3374700Y1764700D01*
G02X3353860Y1815000I50283J50300D01*
G01Y2348860D01*
X3209470D01*
X3090300Y2229700D01*
G02X3040000Y2208860I-50306J50297D01*
G02X2989700Y2229700I6J71137D01*
G01X2569700Y2649700D01*
G02X2548860Y2700000I50297J50306D01*
G01Y4045000D01*
G02X2569700Y4095300I71137J-6D01*
G01X2674700Y4200300D01*
G02X2725000Y4221140I50306J-50297D01*
G01X2900530D01*
X2928860Y4249470D01*
Y4890530D01*
X2900530Y4918860D01*
X1709470D01*
X1691140Y4900530D01*
Y4800000D01*
G02X1548860I-71140J0D01*
G01Y4930000D01*
G02X1569700Y4980300I71137J-6D01*
G01X1629700Y5040300D01*
G37*
G54D26*
X2001000Y4827000D03*
X2579000D03*
G54D27*
X6385000Y5260000D03*
X6155000D03*
X7385000D03*
X7155000D03*
G54D28*
X950000Y4281000D03*
G54D29*
X1085000Y1420000D03*
Y940000D03*
G54D25*
X1400000Y2670000D03*
%LPD*%
G75*
G36*
G01X3071140Y4728860D02*
X3659880D01*
G02X3676710Y4697150I0J-20321D01*
G03X3660260Y4643500I79288J-53658D01*
G03X3672160Y4597270I95749J0D01*
G03X3660260Y4566500I33831J-30770D01*
G01Y4466500D01*
G03X3692860Y4422690I45737J0D01*
G01X3700100Y4420520D01*
Y3624000D01*
G03X3716470Y3584470I55913J0D01*
G01X3727460Y3573480D01*
G02X3720280Y3556140I-7185J-7181D01*
G01X3535000D01*
G03X3484700Y3535300I6J-71137D01*
G01X3374700Y3425300D01*
G03X3353860Y3375000I50297J-50306D01*
G01Y2491140D01*
X3180000D01*
G03X3129700Y2470300I6J-71137D01*
G01X3040000Y2380610D01*
X2691140Y2729470D01*
Y4015530D01*
X2754470Y4078860D01*
X2930000D01*
G03X2980300Y4099700I-6J71137D01*
G01X3050300Y4169700D01*
G03X3071140Y4220000I-50297J50306D01*
G01Y4728860D01*
G37*
G36*
G01X6300000Y3680000D02*
X7370000D01*
X7470000Y3580000D01*
Y1960000D01*
X7340000Y1830000D01*
X6650000D01*
X6610000Y1790000D01*
Y260000D01*
X6540000Y190000D01*
X2790000D01*
X2750000Y230000D01*
Y540000D01*
X2780000Y570000D01*
X3190000D01*
X3280000Y480000D01*
X4705310D01*
X4711050Y474260D01*
X4998950D01*
X5004690Y480000D01*
X6240000D01*
X6280000Y520000D01*
Y2100000D01*
X6320000Y2140000D01*
X7040000D01*
X7130000Y2230000D01*
Y3300000D01*
X7080000Y3350000D01*
X6300000D01*
X6260000Y3390000D01*
Y3640000D01*
X6300000Y3680000D01*
G37*
G36*
G01X5381650Y3163860D02*
X5395530D01*
X5420460Y3138930D01*
Y2608400D01*
G03X5428480Y2575590I71139J4D01*
G02X5410450Y2545900I-18031J-9370D01*
G01X4855900D01*
Y2809990D01*
G03X4839530Y2849520I-55913J0D01*
G01X4781380Y2907670D01*
G03X4741850Y2924040I-39530J-39543D01*
G01X4459110D01*
G03X4434990Y2918570I0J-55914D01*
G02X4405900Y2936900I-8771J18329D01*
G01Y3036850D01*
X4473150Y3104100D01*
X5266000D01*
G03X5310000Y3088860I44000J55897D01*
G03X5380930Y3154490I0J71144D01*
G01X5381650Y3163860D01*
G37*
G36*
G01X4710000Y540000D02*
Y670000D01*
X4730000Y690000D01*
X4980000D01*
X5000000Y670000D01*
Y540000D01*
X4980000Y520000D01*
X4730000D01*
X4710000Y540000D01*
G37*
G54D10*
X360000Y360000D03*
Y5040000D03*
X8140000Y360000D03*
Y5040000D03*
G54D20*
X5895000Y5290000D03*
X6645000D03*
X6895000D03*
X7645000D03*
G54D11*
X163000Y755000D03*
Y2085000D03*
X950000Y3519000D03*
Y4281000D03*
G54D21*
X6430000Y2760000D03*
Y2540000D03*
Y2650000D03*
X6540000D03*
Y2540000D03*
Y2760000D03*
X6430000Y2980000D03*
Y2870000D03*
X6540000D03*
Y2980000D03*
X6650000Y2760000D03*
X6870000D03*
X6650000Y2540000D03*
X6870000D03*
Y2650000D03*
X6650000D03*
X6760000D03*
Y2540000D03*
Y2760000D03*
X6650000Y2980000D03*
X6870000D03*
Y2870000D03*
X6650000D03*
X6760000D03*
Y2980000D03*
G54D12*
G01X3000000Y4800000D02*
Y4920000D01*
X2930000Y4990000D01*
X1680000D01*
X1620000Y4930000D01*
Y4800000D01*
G01X2615000Y1395000D02*
X4210000D01*
X4310000Y1495000D01*
G01X2620000Y3800000D02*
Y2700000D01*
X3040000Y2280000D01*
G01X2620000Y3800000D02*
Y4045000D01*
X2725000Y4150000D01*
G01X3000000Y4800000D02*
Y4220000D01*
X2930000Y4150000D01*
X2725000D01*
G01X3040000Y2280000D02*
X3180000Y2420000D01*
X3425000D01*
G01X3000000Y4800000D02*
X4213200D01*
X4264000Y4749200D01*
G01X3425000Y2420000D02*
Y1815000D01*
X3505000Y1735000D01*
X4310000D01*
G01X3425000Y2420000D02*
Y2905000D01*
G01X3755000Y3485000D02*
X3535000D01*
X3425000Y3375000D01*
Y2905000D01*
G01X4264000Y4749200D02*
Y4643500D01*
G01X5470000Y4580000D02*
Y4749200D01*
X5419200Y4800000D01*
X4314800D01*
X4264000Y4749200D01*
G01X4310000Y1495000D02*
X4410000Y1395000D01*
X4615000D01*
X4740000Y1270000D01*
Y680000D01*
G01X4310000Y1495000D02*
Y1735000D01*
G01X4470000Y2035000D02*
X4465000D01*
X4310000Y1880000D01*
Y1735000D01*
G01X4730000Y670000D02*
X4750000Y650000D01*
G01X4730000Y670000D02*
X4740000Y680000D01*
G01X5491600Y3088400D02*
Y3168400D01*
X5425000Y3235000D01*
X4855000D01*
G01X5470000Y4580000D02*
Y4330000D01*
X5370000Y4230000D01*
X4920000D01*
X4855000Y4165000D01*
Y3235000D01*
G01X5491600Y3088400D02*
Y2608400D01*
X5550000Y2550000D01*
X5820000D01*
G01X5770000Y5290000D02*
X5760000Y5280000D01*
G01X5895000Y5290000D02*
X5770000D01*
G01X6080000Y3230000D02*
Y2680000D01*
G01X6030000Y5290000D02*
X6040000Y5280000D01*
G01X5895000Y5290000D02*
X6030000D01*
G01X6470000D02*
X6645000D01*
G01X6895000D02*
X7040000D01*
G01X6645000D02*
X6895000D01*
G01X7645000D02*
X7780000D01*
G01X7470000D02*
X7645000D01*
X319920Y2528880D03*
Y2928880D03*
Y3328880D03*
Y3728880D03*
Y4128880D03*
X600700Y1035090D03*
Y1435090D03*
Y1835090D03*
X1109610Y140650D03*
X1200000Y4750000D03*
Y5180000D03*
X1509610Y140650D03*
X1899610Y130650D03*
X1980000Y730000D03*
X1840000Y3880000D03*
X1620000Y4800000D03*
X2299610Y130650D03*
X2019610Y2210650D03*
Y2610650D03*
Y3010650D03*
Y3410650D03*
X2160000Y3880000D03*
X2030000Y4280000D03*
X2100000Y5190000D03*
X2739610Y120650D03*
X2419610Y1560650D03*
X2615000Y1395000D03*
X2419610Y1880650D03*
Y2210650D03*
Y2610650D03*
Y3010650D03*
Y3410650D03*
X2620000Y3800000D03*
X2440000Y4280000D03*
Y4120000D03*
X2725000Y4150000D03*
X2440000Y5190000D03*
X2910000Y330000D03*
X2810000D03*
X2910000Y430000D03*
X2810000D03*
X3110000Y330000D03*
X3010000D03*
X3110000Y430000D03*
X3010000D03*
X2810000Y530000D03*
X2910000D03*
X3010000D03*
X3110000D03*
X2819610Y1560650D03*
X2989610Y1260650D03*
X2819610Y1880650D03*
X2915000Y1715000D03*
X3040000Y2280000D03*
X2985520Y2847110D03*
Y3247110D03*
X2860000Y4410000D03*
X3000000Y4800000D03*
X3139610Y120650D03*
X3240000Y650000D03*
X3330000D03*
X3389610Y1260650D03*
X3425000Y2420000D03*
Y2905000D03*
X3236370Y4239830D03*
X3438540Y5157060D03*
X3870000Y650000D03*
Y560000D03*
X3599610Y1550650D03*
X3700000Y1840000D03*
X3810000Y2190000D03*
X3710000Y2060000D03*
X3570000Y2640000D03*
Y2420000D03*
X3720000D03*
X3570000Y2860000D03*
Y3100000D03*
X3750000Y3350000D03*
X3735320Y3175320D03*
X3755000Y3485000D03*
X3636370Y4239830D03*
X3838540Y5157060D03*
X3959610Y110650D03*
X4220000Y930000D03*
Y1020000D03*
Y1200000D03*
Y1110000D03*
X4130000Y1200000D03*
X4040000D03*
X3999610Y1550650D03*
X4040000Y1290000D03*
X4130000D03*
X4220000D03*
X3930000Y1840000D03*
X4140000Y1930000D03*
X3980000Y2260000D03*
X4140000Y2120000D03*
X3960000Y2590000D03*
X4100000D03*
X3960000Y2890000D03*
Y3060000D03*
X4120000D03*
X4010000Y3370000D03*
X4050000Y3620000D03*
Y3780000D03*
X4238540Y5157060D03*
X4359610Y110650D03*
X4500000Y790000D03*
X4590000D03*
X4500000Y880000D03*
X4590000D03*
X4400000Y1200000D03*
X4310000D03*
X4400000Y1290000D03*
X4310000D03*
X4410000Y1840000D03*
X4310000Y1735000D03*
X4300000Y2120000D03*
X4470000Y2035000D03*
X4435330Y2275330D03*
X4300000Y2560000D03*
X4461860Y2691860D03*
Y2791860D03*
X4444430Y3690700D03*
X4450000Y4080000D03*
X4638540Y5157060D03*
X4739610Y110650D03*
X4950000Y650000D03*
Y550000D03*
X4850000D03*
Y650000D03*
X4750000Y550000D03*
Y650000D03*
X4962260Y915290D03*
Y1315290D03*
Y1715290D03*
X4960000Y2720000D03*
X4710000Y2670000D03*
X4708160Y2741840D03*
X4750000Y2980000D03*
X4855000Y3235000D03*
X4724430Y3690700D03*
X4730000Y4080000D03*
X5038540Y5157060D03*
X5139610Y110650D03*
X5362260Y915290D03*
Y1315290D03*
Y1715290D03*
X5310000Y2720000D03*
Y2980000D03*
Y3160000D03*
X5164430Y3700700D03*
X5170000Y4090000D03*
X5609610Y110650D03*
X5762260Y915290D03*
Y1315290D03*
Y1715290D03*
X5800000Y2800000D03*
X5690000D03*
X5800000Y2950000D03*
X5491600Y3088400D03*
X5778420Y3970260D03*
Y4370260D03*
X5438540Y5157060D03*
X6009610Y110650D03*
X6130000Y2330000D03*
X6080000Y2270000D03*
X6132810Y2208330D03*
X5820000Y2420000D03*
Y2550000D03*
X6080000Y2680000D03*
Y2550000D03*
X6180000Y2900000D03*
X6080000Y3230000D03*
X6178420Y3970260D03*
Y4370260D03*
X6479610Y110650D03*
X6420000Y1890000D03*
X6320000D03*
X6420000Y1990000D03*
X6320000D03*
Y2090000D03*
X6420000D03*
Y3410000D03*
X6320000D03*
X6420000Y3510000D03*
X6320000D03*
X6420000Y3610000D03*
X6320000D03*
X6931520Y383660D03*
X6879610Y110650D03*
X6931520Y783660D03*
Y1183660D03*
X6578420Y3970260D03*
Y4370260D03*
X6978420Y3970260D03*
Y4370260D03*
X7331520Y383660D03*
Y783660D03*
Y1183660D03*
X7378420Y3970260D03*
Y4370260D03*
X7904920Y915290D03*
Y1315290D03*
Y1715290D03*
X7778420Y3970260D03*
Y4370260D03*
X8304920Y915290D03*
Y1315290D03*
Y1715290D03*
X8178420Y3970260D03*
Y4370260D03*
G54D22*
X7760000Y2375000D03*
G54D13*
X800000Y2670000D03*
X1400000D03*
G54D23*
X7760000Y2625000D03*
Y3125000D03*
Y2875000D03*
G54D14*
X1085000Y940000D03*
Y1420000D03*
Y1900000D03*
G54D24*
G01X1980000Y730000D02*
Y1660000D01*
X2035000Y1715000D01*
X2915000D01*
G01X4010000Y3370000D02*
X3756000Y3624000D01*
Y4516500D01*
G01X3735320Y3175320D02*
X4015320D01*
X4090000Y3250000D01*
Y3430000D01*
X3883000Y3637000D01*
Y4516500D01*
G01X4050000Y3780000D02*
X4137000Y3867000D01*
Y4516500D01*
G01X6080000Y2270000D02*
X4730000D01*
X4650000Y2350000D01*
Y2700000D01*
X4691840Y2741840D01*
X4708160D01*
G01X6132810Y2208330D02*
X4701670D01*
X4590000Y2320000D01*
Y2750000D01*
X4548140Y2791860D01*
X4461860D01*
G01X5310000Y3160000D02*
X4450000D01*
X4350000Y3060000D01*
Y2659990D01*
X4435330Y2574660D01*
Y2275330D01*
G01X4300000Y2560000D02*
Y4340000D01*
X4420000Y4460000D01*
X5100000D01*
X5220000Y4580000D01*
G01X6080000Y2550000D02*
X6020000Y2490000D01*
X4830000D01*
X4800000Y2520000D01*
Y2809990D01*
X4741850Y2868140D01*
X4459110D01*
X4405980Y2815010D01*
Y2750000D01*
X4461800Y2694400D01*
X4461860Y2691860D01*
G01X6130000Y2330000D02*
X4770000D01*
X4710000Y2390000D01*
Y2670000D01*
G54D15*
X1120000Y2190000D03*
G54D16*
X1858000Y4774000D03*
X2722000D03*
G54D17*
X1858000Y5192000D03*
X2722000D03*
G54D18*
X3756000Y4516500D03*
G54D19*
X3883000Y4643500D03*
Y4516500D03*
X3756000Y4643500D03*
X4264000D03*
Y4516500D03*
X4137000Y4643500D03*
Y4516500D03*
X4010000Y4643500D03*
Y4516500D03*
X4970000Y4580000D03*
X5220000D03*
X5470000D03*
M02*
