G04 ================== begin FILE IDENTIFICATION RECORD ==================*
G04 Layout Name:  TB67S109_V10_220218.brd*
G04 Film Name:    Drill_Legend*
G04 File Format:  Gerber RS274X*
G04 File Origin:  Cadence Allegro 17.2-S071*
G04 Origin Date:  Tue Feb 22 12:04:58 2022*
G04 *
G04 Layer:  MANUFACTURING/NCLEGEND-1-2*
G04 Layer:  MANUFACTURING/NCDRILL_LEGEND*
G04 Layer:  MANUFACTURING/NCDRILL_FIGURE*
G04 Layer:  BOARD GEOMETRY/DIMENSION*
G04 *
G04 Offset:    (0.0000 0.0000)*
G04 Mirror:    No*
G04 Mode:      Positive*
G04 Rotation:  0*
G04 FullContactRelief:  No*
G04 UndefLineWidth:     0.1524*
G04 ================== end FILE IDENTIFICATION RECORD ====================*
%FSLAX55Y55*MOMM*%
%IR0*IPPOS*OFA0.00000B0.00000*MIA0B0*SFA1.00000B1.00000*%
%AMMACRO11*
1,1,.1524,.75,0.0*
20,1,.1524,.75,0.0,0.0,-.75,0.0*
1,1,.1524,0.0,-.75*
20,1,.1524,0.0,-.75,-.75,0.0,0.0*
1,1,.1524,-.75,0.0*
20,1,.1524,-.75,0.0,0.0,.75,0.0*
1,1,.1524,0.0,.75*
20,1,.1524,0.0,.75,.75,0.0,0.0*
1,1,.1524,.75,0.0*
%
%ADD11MACRO11*%
%AMMACRO17*
1,1,.1524,-.3,-.3*
20,1,.1524,-.3,-.3,-.3,.3,0.0*
1,1,.1524,-.3,.3*
20,1,.1524,-.3,.3,-.295442,.352094,0.0*
1,1,.1524,-.295442,.352094*
20,1,.1524,-.295442,.352094,-.281908,.402606,0.0*
1,1,.1524,-.281908,.402606*
20,1,.1524,-.281908,.402606,-.259808,.45,0.0*
1,1,.1524,-.259808,.45*
20,1,.1524,-.259808,.45,-.229813,.492836,0.0*
1,1,.1524,-.229813,.492836*
20,1,.1524,-.229813,.492836,-.192836,.529813,0.0*
1,1,.1524,-.192836,.529813*
20,1,.1524,-.192836,.529813,-.15,.559808,0.0*
1,1,.1524,-.15,.559808*
20,1,.1524,-.15,.559808,-.102606,.581908,0.0*
1,1,.1524,-.102606,.581908*
20,1,.1524,-.102606,.581908,-.052094,.595442,0.0*
1,1,.1524,-.052094,.595442*
20,1,.1524,-.052094,.595442,0.0,.6,0.0*
1,1,.1524,0.0,.6*
20,1,.1524,0.0,.6,.052094,.595442,0.0*
1,1,.1524,.052094,.595442*
20,1,.1524,.052094,.595442,.102606,.581908,0.0*
1,1,.1524,.102606,.581908*
20,1,.1524,.102606,.581908,.15,.559808,0.0*
1,1,.1524,.15,.559808*
20,1,.1524,.15,.559808,.192836,.529813,0.0*
1,1,.1524,.192836,.529813*
20,1,.1524,.192836,.529813,.229813,.492836,0.0*
1,1,.1524,.229813,.492836*
20,1,.1524,.229813,.492836,.259808,.45,0.0*
1,1,.1524,.259808,.45*
20,1,.1524,.259808,.45,.281908,.402606,0.0*
1,1,.1524,.281908,.402606*
20,1,.1524,.281908,.402606,.295442,.352094,0.0*
1,1,.1524,.295442,.352094*
20,1,.1524,.295442,.352094,.3,.3,0.0*
1,1,.1524,.3,.3*
20,1,.1524,.3,.3,.3,-.3,0.0*
1,1,.1524,.3,-.3*
20,1,.1524,.3,-.3,.295442,-.352094,0.0*
1,1,.1524,.295442,-.352094*
20,1,.1524,.295442,-.352094,.281908,-.402606,0.0*
1,1,.1524,.281908,-.402606*
20,1,.1524,.281908,-.402606,.259808,-.45,0.0*
1,1,.1524,.259808,-.45*
20,1,.1524,.259808,-.45,.229813,-.492836,0.0*
1,1,.1524,.229813,-.492836*
20,1,.1524,.229813,-.492836,.192836,-.529813,0.0*
1,1,.1524,.192836,-.529813*
20,1,.1524,.192836,-.529813,.15,-.559808,0.0*
1,1,.1524,.15,-.559808*
20,1,.1524,.15,-.559808,.102606,-.581908,0.0*
1,1,.1524,.102606,-.581908*
20,1,.1524,.102606,-.581908,.052094,-.595442,0.0*
1,1,.1524,.052094,-.595442*
20,1,.1524,.052094,-.595442,0.0,-.6,0.0*
1,1,.1524,0.0,-.6*
20,1,.1524,0.0,-.6,-.052094,-.595442,0.0*
1,1,.1524,-.052094,-.595442*
20,1,.1524,-.052094,-.595442,-.102606,-.581908,0.0*
1,1,.1524,-.102606,-.581908*
20,1,.1524,-.102606,-.581908,-.15,-.559808,0.0*
1,1,.1524,-.15,-.559808*
20,1,.1524,-.15,-.559808,-.192836,-.529813,0.0*
1,1,.1524,-.192836,-.529813*
20,1,.1524,-.192836,-.529813,-.229813,-.492836,0.0*
1,1,.1524,-.229813,-.492836*
20,1,.1524,-.229813,-.492836,-.259808,-.45,0.0*
1,1,.1524,-.259808,-.45*
20,1,.1524,-.259808,-.45,-.281908,-.402606,0.0*
1,1,.1524,-.281908,-.402606*
20,1,.1524,-.281908,-.402606,-.295442,-.352094,0.0*
1,1,.1524,-.295442,-.352094*
20,1,.1524,-.295442,-.352094,-.3,-.3,0.0*
1,1,.1524,-.3,-.3*
1,1,.1524,-.15,-.15*
20,1,.1524,-.15,-.15,-.19,-.145,0.0*
1,1,.1524,-.19,-.145*
20,1,.1524,-.19,-.145,-.225,-.125,0.0*
1,1,.1524,-.225,-.125*
20,1,.1524,-.225,-.125,-.255,-.095,0.0*
1,1,.1524,-.255,-.095*
20,1,.1524,-.255,-.095,-.275,-.06,0.0*
1,1,.1524,-.275,-.06*
20,1,.1524,-.275,-.06,-.285,-.02,0.0*
1,1,.1524,-.285,-.02*
20,1,.1524,-.285,-.02,-.285,.02,0.0*
1,1,.1524,-.285,.02*
20,1,.1524,-.285,.02,-.275,.06,0.0*
1,1,.1524,-.275,.06*
20,1,.1524,-.275,.06,-.255,.095,0.0*
1,1,.1524,-.255,.095*
20,1,.1524,-.255,.095,-.225,.125,0.0*
1,1,.1524,-.225,.125*
20,1,.1524,-.225,.125,-.19,.145,0.0*
1,1,.1524,-.19,.145*
20,1,.1524,-.19,.145,-.15,.15,0.0*
1,1,.1524,-.15,.15*
20,1,.1524,-.15,.15,-.11,.145,0.0*
1,1,.1524,-.11,.145*
20,1,.1524,-.11,.145,-.075,.125,0.0*
1,1,.1524,-.075,.125*
20,1,.1524,-.075,.125,-.045,.095,0.0*
1,1,.1524,-.045,.095*
20,1,.1524,-.045,.095,-.025,.06,0.0*
1,1,.1524,-.025,.06*
20,1,.1524,-.025,.06,-.015,.02,0.0*
1,1,.1524,-.015,.02*
20,1,.1524,-.015,.02,-.015,-.02,0.0*
1,1,.1524,-.015,-.02*
20,1,.1524,-.015,-.02,-.025,-.06,0.0*
1,1,.1524,-.025,-.06*
20,1,.1524,-.025,-.06,-.045,-.095,0.0*
1,1,.1524,-.045,-.095*
20,1,.1524,-.045,-.095,-.075,-.125,0.0*
1,1,.1524,-.075,-.125*
20,1,.1524,-.075,-.125,-.11,-.145,0.0*
1,1,.1524,-.11,-.145*
20,1,.1524,-.11,-.145,-.15,-.15,0.0*
1,1,.1524,-.15,-.15*
1,1,.1524,.0251,-.15*
20,1,.1524,.0251,-.15,.1501,.15,0.0*
1,1,.1524,.1501,.15*
20,1,.1524,.1501,.15,.2751,-.15,0.0*
1,1,.1524,.2751,-.15*
1,1,.1524,.2301,-.045*
20,1,.1524,.2301,-.045,.0701,-.045,0.0*
1,1,.1524,.0701,-.045*
%
%ADD17MACRO17*%
%AMMACRO16*
1,1,.1524,-.3,-.55*
20,1,.1524,-.3,-.55,-.3,.55,0.0*
1,1,.1524,-.3,.55*
20,1,.1524,-.3,.55,-.295442,.602094,0.0*
1,1,.1524,-.295442,.602094*
20,1,.1524,-.295442,.602094,-.281908,.652606,0.0*
1,1,.1524,-.281908,.652606*
20,1,.1524,-.281908,.652606,-.259808,.7,0.0*
1,1,.1524,-.259808,.7*
20,1,.1524,-.259808,.7,-.229813,.742836,0.0*
1,1,.1524,-.229813,.742836*
20,1,.1524,-.229813,.742836,-.192836,.779813,0.0*
1,1,.1524,-.192836,.779813*
20,1,.1524,-.192836,.779813,-.15,.809808,0.0*
1,1,.1524,-.15,.809808*
20,1,.1524,-.15,.809808,-.102606,.831908,0.0*
1,1,.1524,-.102606,.831908*
20,1,.1524,-.102606,.831908,-.052094,.845442,0.0*
1,1,.1524,-.052094,.845442*
20,1,.1524,-.052094,.845442,0.0,.85,0.0*
1,1,.1524,0.0,.85*
20,1,.1524,0.0,.85,.052094,.845442,0.0*
1,1,.1524,.052094,.845442*
20,1,.1524,.052094,.845442,.102606,.831908,0.0*
1,1,.1524,.102606,.831908*
20,1,.1524,.102606,.831908,.15,.809808,0.0*
1,1,.1524,.15,.809808*
20,1,.1524,.15,.809808,.192836,.779813,0.0*
1,1,.1524,.192836,.779813*
20,1,.1524,.192836,.779813,.229813,.742836,0.0*
1,1,.1524,.229813,.742836*
20,1,.1524,.229813,.742836,.259808,.7,0.0*
1,1,.1524,.259808,.7*
20,1,.1524,.259808,.7,.281908,.652606,0.0*
1,1,.1524,.281908,.652606*
20,1,.1524,.281908,.652606,.295442,.602094,0.0*
1,1,.1524,.295442,.602094*
20,1,.1524,.295442,.602094,.3,.55,0.0*
1,1,.1524,.3,.55*
20,1,.1524,.3,.55,.3,-.55,0.0*
1,1,.1524,.3,-.55*
20,1,.1524,.3,-.55,.295442,-.602094,0.0*
1,1,.1524,.295442,-.602094*
20,1,.1524,.295442,-.602094,.281908,-.652606,0.0*
1,1,.1524,.281908,-.652606*
20,1,.1524,.281908,-.652606,.259808,-.7,0.0*
1,1,.1524,.259808,-.7*
20,1,.1524,.259808,-.7,.229813,-.742836,0.0*
1,1,.1524,.229813,-.742836*
20,1,.1524,.229813,-.742836,.192836,-.779813,0.0*
1,1,.1524,.192836,-.779813*
20,1,.1524,.192836,-.779813,.15,-.809808,0.0*
1,1,.1524,.15,-.809808*
20,1,.1524,.15,-.809808,.102606,-.831908,0.0*
1,1,.1524,.102606,-.831908*
20,1,.1524,.102606,-.831908,.052094,-.845442,0.0*
1,1,.1524,.052094,-.845442*
20,1,.1524,.052094,-.845442,0.0,-.85,0.0*
1,1,.1524,0.0,-.85*
20,1,.1524,0.0,-.85,-.052094,-.845442,0.0*
1,1,.1524,-.052094,-.845442*
20,1,.1524,-.052094,-.845442,-.102606,-.831908,0.0*
1,1,.1524,-.102606,-.831908*
20,1,.1524,-.102606,-.831908,-.15,-.809808,0.0*
1,1,.1524,-.15,-.809808*
20,1,.1524,-.15,-.809808,-.192836,-.779813,0.0*
1,1,.1524,-.192836,-.779813*
20,1,.1524,-.192836,-.779813,-.229813,-.742836,0.0*
1,1,.1524,-.229813,-.742836*
20,1,.1524,-.229813,-.742836,-.259808,-.7,0.0*
1,1,.1524,-.259808,-.7*
20,1,.1524,-.259808,-.7,-.281908,-.652606,0.0*
1,1,.1524,-.281908,-.652606*
20,1,.1524,-.281908,-.652606,-.295442,-.602094,0.0*
1,1,.1524,-.295442,-.602094*
20,1,.1524,-.295442,-.602094,-.3,-.55,0.0*
1,1,.1524,-.3,-.55*
1,1,.1524,-.15,-.15*
20,1,.1524,-.15,-.15,-.19,-.145,0.0*
1,1,.1524,-.19,-.145*
20,1,.1524,-.19,-.145,-.225,-.125,0.0*
1,1,.1524,-.225,-.125*
20,1,.1524,-.225,-.125,-.255,-.095,0.0*
1,1,.1524,-.255,-.095*
20,1,.1524,-.255,-.095,-.275,-.06,0.0*
1,1,.1524,-.275,-.06*
20,1,.1524,-.275,-.06,-.285,-.02,0.0*
1,1,.1524,-.285,-.02*
20,1,.1524,-.285,-.02,-.285,.02,0.0*
1,1,.1524,-.285,.02*
20,1,.1524,-.285,.02,-.275,.06,0.0*
1,1,.1524,-.275,.06*
20,1,.1524,-.275,.06,-.255,.095,0.0*
1,1,.1524,-.255,.095*
20,1,.1524,-.255,.095,-.225,.125,0.0*
1,1,.1524,-.225,.125*
20,1,.1524,-.225,.125,-.19,.145,0.0*
1,1,.1524,-.19,.145*
20,1,.1524,-.19,.145,-.15,.15,0.0*
1,1,.1524,-.15,.15*
20,1,.1524,-.15,.15,-.11,.145,0.0*
1,1,.1524,-.11,.145*
20,1,.1524,-.11,.145,-.075,.125,0.0*
1,1,.1524,-.075,.125*
20,1,.1524,-.075,.125,-.045,.095,0.0*
1,1,.1524,-.045,.095*
20,1,.1524,-.045,.095,-.025,.06,0.0*
1,1,.1524,-.025,.06*
20,1,.1524,-.025,.06,-.015,.02,0.0*
1,1,.1524,-.015,.02*
20,1,.1524,-.015,.02,-.015,-.02,0.0*
1,1,.1524,-.015,-.02*
20,1,.1524,-.015,-.02,-.025,-.06,0.0*
1,1,.1524,-.025,-.06*
20,1,.1524,-.025,-.06,-.045,-.095,0.0*
1,1,.1524,-.045,-.095*
20,1,.1524,-.045,-.095,-.075,-.125,0.0*
1,1,.1524,-.075,-.125*
20,1,.1524,-.075,-.125,-.11,-.145,0.0*
1,1,.1524,-.11,-.145*
20,1,.1524,-.11,-.145,-.15,-.15,0.0*
1,1,.1524,-.15,-.15*
1,1,.1524,.1901,.01*
20,1,.1524,.1901,.01,.2101,.025,0.0*
1,1,.1524,.2101,.025*
20,1,.1524,.2101,.025,.2251,.05,0.0*
1,1,.1524,.2251,.05*
20,1,.1524,.2251,.05,.2351,.085,0.0*
1,1,.1524,.2351,.085*
20,1,.1524,.2351,.085,.2251,.115,0.0*
1,1,.1524,.2251,.115*
20,1,.1524,.2251,.115,.2051,.135,0.0*
1,1,.1524,.2051,.135*
20,1,.1524,.2051,.135,.1701,.15,0.0*
1,1,.1524,.1701,.15*
20,1,.1524,.1701,.15,.0351,.15,0.0*
1,1,.1524,.0351,.15*
20,1,.1524,.0351,.15,.0351,-.15,0.0*
1,1,.1524,.0351,-.15*
20,1,.1524,.0351,-.15,.2001,-.15,0.0*
1,1,.1524,.2001,-.15*
20,1,.1524,.2001,-.15,.2351,-.13,0.0*
1,1,.1524,.2351,-.13*
20,1,.1524,.2351,-.13,.2551,-.1,0.0*
1,1,.1524,.2551,-.1*
20,1,.1524,.2551,-.1,.2651,-.065,0.0*
1,1,.1524,.2651,-.065*
20,1,.1524,.2651,-.065,.2551,-.03,0.0*
1,1,.1524,.2551,-.03*
20,1,.1524,.2551,-.03,.2251,0.0,0.0*
1,1,.1524,.2251,0.0*
20,1,.1524,.2251,0.0,.1901,.01,0.0*
1,1,.1524,.1901,.01*
20,1,.1524,.1901,.01,.0351,.01,0.0*
1,1,.1524,.0351,.01*
%
%ADD16MACRO16*%
%AMMACRO12*
1,1,.1524,.127,0.0*
20,1,.1524,.127,0.0,-.127,0.0,0.0*
1,1,.1524,-.127,0.0*
1,1,.1524,0.0,.127*
20,1,.1524,0.0,.127,0.0,-.127,0.0*
1,1,.1524,0.0,-.127*
%
%ADD12MACRO12*%
%AMMACRO20*
1,1,.1524,.2286,.2286*
20,1,.1524,.2286,.2286,.2286,-.2286,0.0*
1,1,.1524,.2286,-.2286*
20,1,.1524,.2286,-.2286,-.2286,-.2286,0.0*
1,1,.1524,-.2286,-.2286*
20,1,.1524,-.2286,-.2286,-.2286,.2286,0.0*
1,1,.1524,-.2286,.2286*
20,1,.1524,-.2286,.2286,.2286,.2286,0.0*
1,1,.1524,.2286,.2286*
%
%ADD20MACRO20*%
%AMMACRO13*
1,1,.1524,-.5,-1.*
20,1,.1524,-.5,-1.,-.5,1.,0.0*
1,1,.1524,-.5,1.*
20,1,.1524,-.5,1.,-.492404,1.086824,0.0*
1,1,.1524,-.492404,1.086824*
20,1,.1524,-.492404,1.086824,-.469846,1.17101,0.0*
1,1,.1524,-.469846,1.17101*
20,1,.1524,-.469846,1.17101,-.433013,1.25,0.0*
1,1,.1524,-.433013,1.25*
20,1,.1524,-.433013,1.25,-.383022,1.321394,0.0*
1,1,.1524,-.383022,1.321394*
20,1,.1524,-.383022,1.321394,-.321394,1.383022,0.0*
1,1,.1524,-.321394,1.383022*
20,1,.1524,-.321394,1.383022,-.25,1.433013,0.0*
1,1,.1524,-.25,1.433013*
20,1,.1524,-.25,1.433013,-.17101,1.469846,0.0*
1,1,.1524,-.17101,1.469846*
20,1,.1524,-.17101,1.469846,-.086824,1.492404,0.0*
1,1,.1524,-.086824,1.492404*
20,1,.1524,-.086824,1.492404,0.0,1.5,0.0*
1,1,.1524,0.0,1.5*
20,1,.1524,0.0,1.5,.086824,1.492404,0.0*
1,1,.1524,.086824,1.492404*
20,1,.1524,.086824,1.492404,.17101,1.469846,0.0*
1,1,.1524,.17101,1.469846*
20,1,.1524,.17101,1.469846,.25,1.433013,0.0*
1,1,.1524,.25,1.433013*
20,1,.1524,.25,1.433013,.321394,1.383022,0.0*
1,1,.1524,.321394,1.383022*
20,1,.1524,.321394,1.383022,.383022,1.321394,0.0*
1,1,.1524,.383022,1.321394*
20,1,.1524,.383022,1.321394,.433013,1.25,0.0*
1,1,.1524,.433013,1.25*
20,1,.1524,.433013,1.25,.469846,1.17101,0.0*
1,1,.1524,.469846,1.17101*
20,1,.1524,.469846,1.17101,.492404,1.086824,0.0*
1,1,.1524,.492404,1.086824*
20,1,.1524,.492404,1.086824,.5,1.,0.0*
1,1,.1524,.5,1.*
20,1,.1524,.5,1.,.5,-1.,0.0*
1,1,.1524,.5,-1.*
20,1,.1524,.5,-1.,.492404,-1.086824,0.0*
1,1,.1524,.492404,-1.086824*
20,1,.1524,.492404,-1.086824,.469846,-1.17101,0.0*
1,1,.1524,.469846,-1.17101*
20,1,.1524,.469846,-1.17101,.433013,-1.25,0.0*
1,1,.1524,.433013,-1.25*
20,1,.1524,.433013,-1.25,.383022,-1.321394,0.0*
1,1,.1524,.383022,-1.321394*
20,1,.1524,.383022,-1.321394,.321394,-1.383022,0.0*
1,1,.1524,.321394,-1.383022*
20,1,.1524,.321394,-1.383022,.25,-1.433013,0.0*
1,1,.1524,.25,-1.433013*
20,1,.1524,.25,-1.433013,.17101,-1.469846,0.0*
1,1,.1524,.17101,-1.469846*
20,1,.1524,.17101,-1.469846,.086824,-1.492404,0.0*
1,1,.1524,.086824,-1.492404*
20,1,.1524,.086824,-1.492404,0.0,-1.5,0.0*
1,1,.1524,0.0,-1.5*
20,1,.1524,0.0,-1.5,-.086824,-1.492404,0.0*
1,1,.1524,-.086824,-1.492404*
20,1,.1524,-.086824,-1.492404,-.17101,-1.469846,0.0*
1,1,.1524,-.17101,-1.469846*
20,1,.1524,-.17101,-1.469846,-.25,-1.433013,0.0*
1,1,.1524,-.25,-1.433013*
20,1,.1524,-.25,-1.433013,-.321394,-1.383022,0.0*
1,1,.1524,-.321394,-1.383022*
20,1,.1524,-.321394,-1.383022,-.383022,-1.321394,0.0*
1,1,.1524,-.383022,-1.321394*
20,1,.1524,-.383022,-1.321394,-.433013,-1.25,0.0*
1,1,.1524,-.433013,-1.25*
20,1,.1524,-.433013,-1.25,-.469846,-1.17101,0.0*
1,1,.1524,-.469846,-1.17101*
20,1,.1524,-.469846,-1.17101,-.492404,-1.086824,0.0*
1,1,.1524,-.492404,-1.086824*
20,1,.1524,-.492404,-1.086824,-.5,-1.,0.0*
1,1,.1524,-.5,-1.*
1,1,.1524,-.25,-.25*
20,1,.1524,-.25,-.25,-.3167,-.2417,0.0*
1,1,.1524,-.3167,-.2417*
20,1,.1524,-.3167,-.2417,-.375,-.2083,0.0*
1,1,.1524,-.375,-.2083*
20,1,.1524,-.375,-.2083,-.425,-.1583,0.0*
1,1,.1524,-.425,-.1583*
20,1,.1524,-.425,-.1583,-.4583,-.1,0.0*
1,1,.1524,-.4583,-.1*
20,1,.1524,-.4583,-.1,-.475,-.0333,0.0*
1,1,.1524,-.475,-.0333*
20,1,.1524,-.475,-.0333,-.475,.0333,0.0*
1,1,.1524,-.475,.0333*
20,1,.1524,-.475,.0333,-.4583,.1,0.0*
1,1,.1524,-.4583,.1*
20,1,.1524,-.4583,.1,-.425,.1583,0.0*
1,1,.1524,-.425,.1583*
20,1,.1524,-.425,.1583,-.375,.2083,0.0*
1,1,.1524,-.375,.2083*
20,1,.1524,-.375,.2083,-.3167,.2417,0.0*
1,1,.1524,-.3167,.2417*
20,1,.1524,-.3167,.2417,-.25,.25,0.0*
1,1,.1524,-.25,.25*
20,1,.1524,-.25,.25,-.1833,.2417,0.0*
1,1,.1524,-.1833,.2417*
20,1,.1524,-.1833,.2417,-.125,.2083,0.0*
1,1,.1524,-.125,.2083*
20,1,.1524,-.125,.2083,-.075,.1583,0.0*
1,1,.1524,-.075,.1583*
20,1,.1524,-.075,.1583,-.0417,.1,0.0*
1,1,.1524,-.0417,.1*
20,1,.1524,-.0417,.1,-.025,.0333,0.0*
1,1,.1524,-.025,.0333*
20,1,.1524,-.025,.0333,-.025,-.0333,0.0*
1,1,.1524,-.025,-.0333*
20,1,.1524,-.025,-.0333,-.0417,-.1,0.0*
1,1,.1524,-.0417,-.1*
20,1,.1524,-.0417,-.1,-.075,-.1583,0.0*
1,1,.1524,-.075,-.1583*
20,1,.1524,-.075,-.1583,-.125,-.2083,0.0*
1,1,.1524,-.125,-.2083*
20,1,.1524,-.125,-.2083,-.1833,-.2417,0.0*
1,1,.1524,-.1833,-.2417*
20,1,.1524,-.1833,-.2417,-.25,-.25,0.0*
1,1,.1524,-.25,-.25*
1,1,.1524,.4334,.2083*
20,1,.1524,.4334,.2083,.3834,.2333,0.0*
1,1,.1524,.3834,.2333*
20,1,.1524,.3834,.2333,.3251,.25,0.0*
1,1,.1524,.3251,.25*
20,1,.1524,.3251,.25,.2584,.25,0.0*
1,1,.1524,.2584,.25*
20,1,.1524,.2584,.25,.1834,.225,0.0*
1,1,.1524,.1834,.225*
20,1,.1524,.1834,.225,.1251,.1833,0.0*
1,1,.1524,.1251,.1833*
20,1,.1524,.1251,.1833,.0834,.1333,0.0*
1,1,.1524,.0834,.1333*
20,1,.1524,.0834,.1333,.0501,.05,0.0*
1,1,.1524,.0501,.05*
20,1,.1524,.0501,.05,.0418,-.025,0.0*
1,1,.1524,.0418,-.025*
20,1,.1524,.0418,-.025,.0584,-.1,0.0*
1,1,.1524,.0584,-.1*
20,1,.1524,.0584,-.1,.0834,-.15,0.0*
1,1,.1524,.0834,-.15*
20,1,.1524,.0834,-.15,.1334,-.2,0.0*
1,1,.1524,.1334,-.2*
20,1,.1524,.1334,-.2,.1918,-.2333,0.0*
1,1,.1524,.1918,-.2333*
20,1,.1524,.1918,-.2333,.2501,-.25,0.0*
1,1,.1524,.2501,-.25*
20,1,.1524,.2501,-.25,.3084,-.25,0.0*
1,1,.1524,.3084,-.25*
20,1,.1524,.3084,-.25,.3668,-.2333,0.0*
1,1,.1524,.3668,-.2333*
20,1,.1524,.3668,-.2333,.4168,-.2083,0.0*
1,1,.1524,.4168,-.2083*
20,1,.1524,.4168,-.2083,.4584,-.175,0.0*
1,1,.1524,.4584,-.175*
%
%ADD13MACRO13*%
%AMMACRO15*
1,1,.1524,-1.,.5*
20,1,.1524,-1.,.5,1.,.5,0.0*
1,1,.1524,1.,.5*
20,1,.1524,1.,.5,1.086824,.492404,0.0*
1,1,.1524,1.086824,.492404*
20,1,.1524,1.086824,.492404,1.17101,.469846,0.0*
1,1,.1524,1.17101,.469846*
20,1,.1524,1.17101,.469846,1.25,.433013,0.0*
1,1,.1524,1.25,.433013*
20,1,.1524,1.25,.433013,1.321394,.383022,0.0*
1,1,.1524,1.321394,.383022*
20,1,.1524,1.321394,.383022,1.383022,.321394,0.0*
1,1,.1524,1.383022,.321394*
20,1,.1524,1.383022,.321394,1.433013,.25,0.0*
1,1,.1524,1.433013,.25*
20,1,.1524,1.433013,.25,1.469846,.17101,0.0*
1,1,.1524,1.469846,.17101*
20,1,.1524,1.469846,.17101,1.492404,.086824,0.0*
1,1,.1524,1.492404,.086824*
20,1,.1524,1.492404,.086824,1.5,0.0,0.0*
1,1,.1524,1.5,0.0*
20,1,.1524,1.5,0.0,1.492404,-.086824,0.0*
1,1,.1524,1.492404,-.086824*
20,1,.1524,1.492404,-.086824,1.469846,-.17101,0.0*
1,1,.1524,1.469846,-.17101*
20,1,.1524,1.469846,-.17101,1.433013,-.25,0.0*
1,1,.1524,1.433013,-.25*
20,1,.1524,1.433013,-.25,1.383022,-.321394,0.0*
1,1,.1524,1.383022,-.321394*
20,1,.1524,1.383022,-.321394,1.321394,-.383022,0.0*
1,1,.1524,1.321394,-.383022*
20,1,.1524,1.321394,-.383022,1.25,-.433013,0.0*
1,1,.1524,1.25,-.433013*
20,1,.1524,1.25,-.433013,1.17101,-.469846,0.0*
1,1,.1524,1.17101,-.469846*
20,1,.1524,1.17101,-.469846,1.086824,-.492404,0.0*
1,1,.1524,1.086824,-.492404*
20,1,.1524,1.086824,-.492404,1.,-.5,0.0*
1,1,.1524,1.,-.5*
20,1,.1524,1.,-.5,-1.,-.5,0.0*
1,1,.1524,-1.,-.5*
20,1,.1524,-1.,-.5,-1.086824,-.492404,0.0*
1,1,.1524,-1.086824,-.492404*
20,1,.1524,-1.086824,-.492404,-1.17101,-.469846,0.0*
1,1,.1524,-1.17101,-.469846*
20,1,.1524,-1.17101,-.469846,-1.25,-.433013,0.0*
1,1,.1524,-1.25,-.433013*
20,1,.1524,-1.25,-.433013,-1.321394,-.383022,0.0*
1,1,.1524,-1.321394,-.383022*
20,1,.1524,-1.321394,-.383022,-1.383022,-.321394,0.0*
1,1,.1524,-1.383022,-.321394*
20,1,.1524,-1.383022,-.321394,-1.433013,-.25,0.0*
1,1,.1524,-1.433013,-.25*
20,1,.1524,-1.433013,-.25,-1.469846,-.17101,0.0*
1,1,.1524,-1.469846,-.17101*
20,1,.1524,-1.469846,-.17101,-1.492404,-.086824,0.0*
1,1,.1524,-1.492404,-.086824*
20,1,.1524,-1.492404,-.086824,-1.5,0.0,0.0*
1,1,.1524,-1.5,0.0*
20,1,.1524,-1.5,0.0,-1.492404,.086824,0.0*
1,1,.1524,-1.492404,.086824*
20,1,.1524,-1.492404,.086824,-1.469846,.17101,0.0*
1,1,.1524,-1.469846,.17101*
20,1,.1524,-1.469846,.17101,-1.433013,.25,0.0*
1,1,.1524,-1.433013,.25*
20,1,.1524,-1.433013,.25,-1.383022,.321394,0.0*
1,1,.1524,-1.383022,.321394*
20,1,.1524,-1.383022,.321394,-1.321394,.383022,0.0*
1,1,.1524,-1.321394,.383022*
20,1,.1524,-1.321394,.383022,-1.25,.433013,0.0*
1,1,.1524,-1.25,.433013*
20,1,.1524,-1.25,.433013,-1.17101,.469846,0.0*
1,1,.1524,-1.17101,.469846*
20,1,.1524,-1.17101,.469846,-1.086824,.492404,0.0*
1,1,.1524,-1.086824,.492404*
20,1,.1524,-1.086824,.492404,-1.,.5,0.0*
1,1,.1524,-1.,.5*
1,1,.1524,-.25,-.25*
20,1,.1524,-.25,-.25,-.3167,-.2417,0.0*
1,1,.1524,-.3167,-.2417*
20,1,.1524,-.3167,-.2417,-.375,-.2083,0.0*
1,1,.1524,-.375,-.2083*
20,1,.1524,-.375,-.2083,-.425,-.1583,0.0*
1,1,.1524,-.425,-.1583*
20,1,.1524,-.425,-.1583,-.4583,-.1,0.0*
1,1,.1524,-.4583,-.1*
20,1,.1524,-.4583,-.1,-.475,-.0333,0.0*
1,1,.1524,-.475,-.0333*
20,1,.1524,-.475,-.0333,-.475,.0333,0.0*
1,1,.1524,-.475,.0333*
20,1,.1524,-.475,.0333,-.4583,.1,0.0*
1,1,.1524,-.4583,.1*
20,1,.1524,-.4583,.1,-.425,.1583,0.0*
1,1,.1524,-.425,.1583*
20,1,.1524,-.425,.1583,-.375,.2083,0.0*
1,1,.1524,-.375,.2083*
20,1,.1524,-.375,.2083,-.3167,.2417,0.0*
1,1,.1524,-.3167,.2417*
20,1,.1524,-.3167,.2417,-.25,.25,0.0*
1,1,.1524,-.25,.25*
20,1,.1524,-.25,.25,-.1833,.2417,0.0*
1,1,.1524,-.1833,.2417*
20,1,.1524,-.1833,.2417,-.125,.2083,0.0*
1,1,.1524,-.125,.2083*
20,1,.1524,-.125,.2083,-.075,.1583,0.0*
1,1,.1524,-.075,.1583*
20,1,.1524,-.075,.1583,-.0417,.1,0.0*
1,1,.1524,-.0417,.1*
20,1,.1524,-.0417,.1,-.025,.0333,0.0*
1,1,.1524,-.025,.0333*
20,1,.1524,-.025,.0333,-.025,-.0333,0.0*
1,1,.1524,-.025,-.0333*
20,1,.1524,-.025,-.0333,-.0417,-.1,0.0*
1,1,.1524,-.0417,-.1*
20,1,.1524,-.0417,-.1,-.075,-.1583,0.0*
1,1,.1524,-.075,-.1583*
20,1,.1524,-.075,-.1583,-.125,-.2083,0.0*
1,1,.1524,-.125,-.2083*
20,1,.1524,-.125,-.2083,-.1833,-.2417,0.0*
1,1,.1524,-.1833,-.2417*
20,1,.1524,-.1833,-.2417,-.25,-.25,0.0*
1,1,.1524,-.25,-.25*
1,1,.1524,.4334,.2083*
20,1,.1524,.4334,.2083,.3834,.2333,0.0*
1,1,.1524,.3834,.2333*
20,1,.1524,.3834,.2333,.3251,.25,0.0*
1,1,.1524,.3251,.25*
20,1,.1524,.3251,.25,.2584,.25,0.0*
1,1,.1524,.2584,.25*
20,1,.1524,.2584,.25,.1834,.225,0.0*
1,1,.1524,.1834,.225*
20,1,.1524,.1834,.225,.1251,.1833,0.0*
1,1,.1524,.1251,.1833*
20,1,.1524,.1251,.1833,.0834,.1333,0.0*
1,1,.1524,.0834,.1333*
20,1,.1524,.0834,.1333,.0501,.05,0.0*
1,1,.1524,.0501,.05*
20,1,.1524,.0501,.05,.0418,-.025,0.0*
1,1,.1524,.0418,-.025*
20,1,.1524,.0418,-.025,.0584,-.1,0.0*
1,1,.1524,.0584,-.1*
20,1,.1524,.0584,-.1,.0834,-.15,0.0*
1,1,.1524,.0834,-.15*
20,1,.1524,.0834,-.15,.1334,-.2,0.0*
1,1,.1524,.1334,-.2*
20,1,.1524,.1334,-.2,.1918,-.2333,0.0*
1,1,.1524,.1918,-.2333*
20,1,.1524,.1918,-.2333,.2501,-.25,0.0*
1,1,.1524,.2501,-.25*
20,1,.1524,.2501,-.25,.3084,-.25,0.0*
1,1,.1524,.3084,-.25*
20,1,.1524,.3084,-.25,.3668,-.2333,0.0*
1,1,.1524,.3668,-.2333*
20,1,.1524,.3668,-.2333,.4168,-.2083,0.0*
1,1,.1524,.4168,-.2083*
20,1,.1524,.4168,-.2083,.4584,-.175,0.0*
1,1,.1524,.4584,-.175*
%
%ADD15MACRO15*%
%AMMACRO18*
1,1,.1524,.3,0.0*
20,1,.1524,.3,0.0,.15,.259808,0.0*
1,1,.1524,.15,.259808*
20,1,.1524,.15,.259808,-.15,.259808,0.0*
1,1,.1524,-.15,.259808*
20,1,.1524,-.15,.259808,-.3,0.0,0.0*
1,1,.1524,-.3,0.0*
20,1,.1524,-.3,0.0,-.15,-.259808,0.0*
1,1,.1524,-.15,-.259808*
20,1,.1524,-.15,-.259808,.15,-.259808,0.0*
1,1,.1524,.15,-.259808*
20,1,.1524,.15,-.259808,.3,0.0,0.0*
1,1,.1524,.3,0.0*
%
%ADD18MACRO18*%
%AMMACRO14*
1,1,.1524,0.0,.8*
20,1,.1524,0.0,.8,.69282,-.4,0.0*
1,1,.1524,.69282,-.4*
20,1,.1524,.69282,-.4,-.69282,-.4,0.0*
1,1,.1524,-.69282,-.4*
20,1,.1524,-.69282,-.4,0.0,.8,0.0*
1,1,.1524,0.0,.8*
%
%ADD14MACRO14*%
%AMMACRO10*
1,1,.1524,-.4125,1.2375*
20,1,.1524,-.4125,1.2375,.4125,1.2375,0.0*
1,1,.1524,.4125,1.2375*
20,1,.1524,.4125,1.2375,.62739,1.2187,0.0*
1,1,.1524,.62739,1.2187*
20,1,.1524,.62739,1.2187,.83575,1.16287,0.0*
1,1,.1524,.83575,1.16287*
20,1,.1524,.83575,1.16287,1.03125,1.071706,0.0*
1,1,.1524,1.03125,1.071706*
20,1,.1524,1.03125,1.071706,1.20795,.94798,0.0*
1,1,.1524,1.20795,.94798*
20,1,.1524,1.20795,.94798,1.36048,.79545,0.0*
1,1,.1524,1.36048,.79545*
20,1,.1524,1.36048,.79545,1.484206,.61875,0.0*
1,1,.1524,1.484206,.61875*
20,1,.1524,1.484206,.61875,1.57537,.42325,0.0*
1,1,.1524,1.57537,.42325*
20,1,.1524,1.57537,.42325,1.6312,.21489,0.0*
1,1,.1524,1.6312,.21489*
20,1,.1524,1.6312,.21489,1.65,0.0,0.0*
1,1,.1524,1.65,0.0*
20,1,.1524,1.65,0.0,1.6312,-.21489,0.0*
1,1,.1524,1.6312,-.21489*
20,1,.1524,1.6312,-.21489,1.57537,-.42325,0.0*
1,1,.1524,1.57537,-.42325*
20,1,.1524,1.57537,-.42325,1.484206,-.61875,0.0*
1,1,.1524,1.484206,-.61875*
20,1,.1524,1.484206,-.61875,1.36048,-.79545,0.0*
1,1,.1524,1.36048,-.79545*
20,1,.1524,1.36048,-.79545,1.20795,-.94798,0.0*
1,1,.1524,1.20795,-.94798*
20,1,.1524,1.20795,-.94798,1.03125,-1.071706,0.0*
1,1,.1524,1.03125,-1.071706*
20,1,.1524,1.03125,-1.071706,.83575,-1.16287,0.0*
1,1,.1524,.83575,-1.16287*
20,1,.1524,.83575,-1.16287,.62739,-1.2187,0.0*
1,1,.1524,.62739,-1.2187*
20,1,.1524,.62739,-1.2187,.4125,-1.2375,0.0*
1,1,.1524,.4125,-1.2375*
20,1,.1524,.4125,-1.2375,-.4125,-1.2375,0.0*
1,1,.1524,-.4125,-1.2375*
20,1,.1524,-.4125,-1.2375,-.62739,-1.2187,0.0*
1,1,.1524,-.62739,-1.2187*
20,1,.1524,-.62739,-1.2187,-.83575,-1.16287,0.0*
1,1,.1524,-.83575,-1.16287*
20,1,.1524,-.83575,-1.16287,-1.03125,-1.071706,0.0*
1,1,.1524,-1.03125,-1.071706*
20,1,.1524,-1.03125,-1.071706,-1.20795,-.94798,0.0*
1,1,.1524,-1.20795,-.94798*
20,1,.1524,-1.20795,-.94798,-1.36048,-.79545,0.0*
1,1,.1524,-1.36048,-.79545*
20,1,.1524,-1.36048,-.79545,-1.484206,-.61875,0.0*
1,1,.1524,-1.484206,-.61875*
20,1,.1524,-1.484206,-.61875,-1.57537,-.42325,0.0*
1,1,.1524,-1.57537,-.42325*
20,1,.1524,-1.57537,-.42325,-1.6312,-.21489,0.0*
1,1,.1524,-1.6312,-.21489*
20,1,.1524,-1.6312,-.21489,-1.65,0.0,0.0*
1,1,.1524,-1.65,0.0*
20,1,.1524,-1.65,0.0,-1.6312,.21489,0.0*
1,1,.1524,-1.6312,.21489*
20,1,.1524,-1.6312,.21489,-1.57537,.42325,0.0*
1,1,.1524,-1.57537,.42325*
20,1,.1524,-1.57537,.42325,-1.484206,.61875,0.0*
1,1,.1524,-1.484206,.61875*
20,1,.1524,-1.484206,.61875,-1.36048,.79545,0.0*
1,1,.1524,-1.36048,.79545*
20,1,.1524,-1.36048,.79545,-1.20795,.94798,0.0*
1,1,.1524,-1.20795,.94798*
20,1,.1524,-1.20795,.94798,-1.03125,1.071706,0.0*
1,1,.1524,-1.03125,1.071706*
20,1,.1524,-1.03125,1.071706,-.83575,1.16287,0.0*
1,1,.1524,-.83575,1.16287*
20,1,.1524,-.83575,1.16287,-.62739,1.2187,0.0*
1,1,.1524,-.62739,1.2187*
20,1,.1524,-.62739,1.2187,-.4125,1.2375,0.0*
1,1,.1524,-.4125,1.2375*
%
%ADD10MACRO10*%
%AMMACRO21*
1,1,.1524,0.0,.45*
20,1,.1524,0.0,.45,-.389711,.225,0.0*
1,1,.1524,-.389711,.225*
20,1,.1524,-.389711,.225,-.389711,-.225,0.0*
1,1,.1524,-.389711,-.225*
20,1,.1524,-.389711,-.225,0.0,-.45,0.0*
1,1,.1524,0.0,-.45*
20,1,.1524,0.0,-.45,.389711,-.225,0.0*
1,1,.1524,.389711,-.225*
20,1,.1524,.389711,-.225,.389711,.225,0.0*
1,1,.1524,.389711,.225*
20,1,.1524,.389711,.225,0.0,.45,0.0*
1,1,.1524,0.0,.45*
%
%ADD21MACRO21*%
%AMMACRO19*
1,1,.1524,.207107,-.5*
20,1,.1524,.207107,-.5,-.207107,-.5,0.0*
1,1,.1524,-.207107,-.5*
20,1,.1524,-.207107,-.5,-.5,-.207107,0.0*
1,1,.1524,-.5,-.207107*
20,1,.1524,-.5,-.207107,-.5,.207107,0.0*
1,1,.1524,-.5,.207107*
20,1,.1524,-.5,.207107,-.207107,.5,0.0*
1,1,.1524,-.207107,.5*
20,1,.1524,-.207107,.5,.207107,.5,0.0*
1,1,.1524,.207107,.5*
20,1,.1524,.207107,.5,.5,.207107,0.0*
1,1,.1524,.5,.207107*
20,1,.1524,.5,.207107,.5,-.207107,0.0*
1,1,.1524,.5,-.207107*
20,1,.1524,.5,-.207107,.207107,-.5,0.0*
1,1,.1524,.207107,-.5*
%
%ADD19MACRO19*%
%ADD22C,.1524*%
G75*
%LPD*%
G75*
G54D10*
X360000Y360000D03*
Y5040000D03*
X8140000Y360000D03*
Y5040000D03*
X10201730Y2687500D03*
G54D20*
X6430000Y2760000D03*
Y2540000D03*
Y2650000D03*
X6540000D03*
Y2540000D03*
Y2760000D03*
X6430000Y2980000D03*
Y2870000D03*
X6540000D03*
Y2980000D03*
X6650000Y2760000D03*
X6870000D03*
X6650000Y2540000D03*
X6870000D03*
Y2650000D03*
X6650000D03*
X6760000D03*
Y2540000D03*
Y2760000D03*
X6650000Y2980000D03*
X6870000D03*
Y2870000D03*
X6650000D03*
X6760000D03*
Y2980000D03*
X10201730Y6497500D03*
G54D11*
X163000Y755000D03*
Y2085000D03*
X950000Y3519000D03*
Y4281000D03*
X10201730Y3957500D03*
G54D21*
X7760000Y2375000D03*
Y2625000D03*
Y3125000D03*
Y2875000D03*
X10201730Y5227500D03*
G54D12*
X319920Y2528880D03*
Y2928880D03*
Y3328880D03*
Y3728880D03*
Y4128880D03*
X600700Y1035090D03*
Y1435090D03*
Y1835090D03*
X1109610Y140650D03*
X1200000Y4750000D03*
Y5180000D03*
X1509610Y140650D03*
X1899610Y130650D03*
X1980000Y730000D03*
X1840000Y3880000D03*
X1620000Y4800000D03*
X2299610Y130650D03*
X2019610Y2210650D03*
Y2610650D03*
Y3010650D03*
Y3410650D03*
X2160000Y3880000D03*
X2030000Y4280000D03*
X2100000Y5190000D03*
X2739610Y120650D03*
X2419610Y1560650D03*
X2615000Y1395000D03*
X2419610Y1880650D03*
Y2210650D03*
Y2610650D03*
Y3010650D03*
Y3410650D03*
X2620000Y3800000D03*
X2440000Y4280000D03*
Y4120000D03*
X2725000Y4150000D03*
X2440000Y5190000D03*
X2910000Y330000D03*
X2810000D03*
X2910000Y430000D03*
X2810000D03*
X3110000Y330000D03*
X3010000D03*
X3110000Y430000D03*
X3010000D03*
X2810000Y530000D03*
X2910000D03*
X3010000D03*
X3110000D03*
X2819610Y1560650D03*
X2989610Y1260650D03*
X2819610Y1880650D03*
X2915000Y1715000D03*
X3040000Y2280000D03*
X2985520Y2847110D03*
Y3247110D03*
X2860000Y4410000D03*
X3000000Y4800000D03*
X3139610Y120650D03*
X3240000Y650000D03*
X3330000D03*
X3389610Y1260650D03*
X3425000Y2420000D03*
Y2905000D03*
X3236370Y4239830D03*
X3438540Y5157060D03*
X3870000Y650000D03*
Y560000D03*
X3599610Y1550650D03*
X3700000Y1840000D03*
X3810000Y2190000D03*
X3710000Y2060000D03*
X3570000Y2640000D03*
Y2420000D03*
X3720000D03*
X3570000Y2860000D03*
Y3100000D03*
X3750000Y3350000D03*
X3735320Y3175320D03*
X3755000Y3485000D03*
X3636370Y4239830D03*
X3838540Y5157060D03*
X3959610Y110650D03*
X4220000Y930000D03*
Y1020000D03*
Y1200000D03*
Y1110000D03*
X4130000Y1200000D03*
X4040000D03*
X3999610Y1550650D03*
X4040000Y1290000D03*
X4130000D03*
X4220000D03*
X3930000Y1840000D03*
X4140000Y1930000D03*
X3980000Y2260000D03*
X4140000Y2120000D03*
X3960000Y2590000D03*
X4100000D03*
X3960000Y2890000D03*
Y3060000D03*
X4120000D03*
X4010000Y3370000D03*
X4050000Y3620000D03*
Y3780000D03*
X4238540Y5157060D03*
X4359610Y110650D03*
X4500000Y790000D03*
X4590000D03*
X4500000Y880000D03*
X4590000D03*
X4400000Y1200000D03*
X4310000D03*
X4400000Y1290000D03*
X4310000D03*
X4410000Y1840000D03*
X4310000Y1735000D03*
X4300000Y2120000D03*
X4470000Y2035000D03*
X4435330Y2275330D03*
X4300000Y2560000D03*
X4461860Y2691860D03*
Y2791860D03*
X4444430Y3690700D03*
X4450000Y4080000D03*
X4638540Y5157060D03*
X4739610Y110650D03*
X4950000Y650000D03*
Y550000D03*
X4850000D03*
Y650000D03*
X4750000Y550000D03*
Y650000D03*
X4962260Y915290D03*
Y1315290D03*
Y1715290D03*
X4960000Y2720000D03*
X4710000Y2670000D03*
X4708160Y2741840D03*
X4750000Y2980000D03*
X4855000Y3235000D03*
X4724430Y3690700D03*
X4730000Y4080000D03*
X5038540Y5157060D03*
X5139610Y110650D03*
X5362260Y915290D03*
Y1315290D03*
Y1715290D03*
X5310000Y2720000D03*
Y2980000D03*
Y3160000D03*
X5164430Y3700700D03*
X5170000Y4090000D03*
X5609610Y110650D03*
X5762260Y915290D03*
Y1315290D03*
Y1715290D03*
X5800000Y2800000D03*
X5690000D03*
X5800000Y2950000D03*
X5491600Y3088400D03*
X5778420Y3970260D03*
Y4370260D03*
X5438540Y5157060D03*
X6009610Y110650D03*
X6130000Y2330000D03*
X6080000Y2270000D03*
X6132810Y2208330D03*
X5820000Y2420000D03*
Y2550000D03*
X6080000Y2680000D03*
Y2550000D03*
X6180000Y2900000D03*
X6080000Y3230000D03*
X6178420Y3970260D03*
Y4370260D03*
X6479610Y110650D03*
X6420000Y1890000D03*
X6320000D03*
X6420000Y1990000D03*
X6320000D03*
Y2090000D03*
X6420000D03*
Y3410000D03*
X6320000D03*
X6420000Y3510000D03*
X6320000D03*
X6420000Y3610000D03*
X6320000D03*
X6931520Y383660D03*
X6879610Y110650D03*
X6931520Y783660D03*
Y1183660D03*
X6578420Y3970260D03*
Y4370260D03*
X6978420Y3970260D03*
Y4370260D03*
X7331520Y383660D03*
Y783660D03*
Y1183660D03*
X7378420Y3970260D03*
Y4370260D03*
X7904920Y915290D03*
Y1315290D03*
Y1715290D03*
X7778420Y3970260D03*
Y4370260D03*
X8304920Y915290D03*
Y1315290D03*
Y1715290D03*
X8178420Y3970260D03*
Y4370260D03*
X10201730Y7132500D03*
G54D22*
G01X-1567400Y2533320D02*
X-1553180Y2517450D01*
X-1536590Y2507920D01*
X-1515250Y2504750D01*
X-1493910Y2511100D01*
X-1477320Y2523800D01*
X-1465470Y2546020D01*
X-1463100Y2571420D01*
X-1467840Y2596820D01*
X-1479690Y2612700D01*
X-1496290Y2625400D01*
X-1512880Y2628570D01*
X-1529470Y2625400D01*
X-1550810Y2612700D01*
X-1543700Y2695250D01*
X-1479690D01*
G01X-1296300Y2504750D02*
Y2695250D01*
X-1384020Y2558730D01*
X-1265480D01*
G01X-1287900Y2023320D02*
X-1273680Y2007450D01*
X-1257090Y1997920D01*
X-1235750Y1994750D01*
X-1214410Y2001100D01*
X-1197820Y2013800D01*
X-1185970Y2036020D01*
X-1183600Y2061420D01*
X-1188340Y2086820D01*
X-1200190Y2102700D01*
X-1216790Y2115400D01*
X-1233380Y2118570D01*
X-1249970Y2115400D01*
X-1271310Y2102700D01*
X-1264200Y2185250D01*
X-1200190D01*
G01X-1045250D02*
X-1064220Y2178900D01*
X-1078440Y2163020D01*
X-1087920Y2143980D01*
X-1095030Y2118570D01*
X-1097400Y2090000D01*
X-1095030Y2061420D01*
X-1087920Y2036020D01*
X-1078440Y2016970D01*
X-1064220Y2001100D01*
X-1045250Y1994750D01*
X-1026290Y2001100D01*
X-1012060Y2016970D01*
X-1002580Y2036020D01*
X-995470Y2061420D01*
X-993100Y2090000D01*
X-995470Y2118570D01*
X-1002580Y2143980D01*
X-1012060Y2163020D01*
X-1026290Y2178900D01*
X-1045250Y2185250D01*
G01X-854750Y1988400D02*
X-859490Y1991580D01*
Y1997920D01*
X-854750Y2001100D01*
X-850010Y1997920D01*
Y1991580D01*
X-854750Y1988400D01*
G01X-635800Y1994750D02*
Y2185250D01*
X-723520Y2048730D01*
X-604980D01*
G01X-892650Y862850D02*
X-878430Y840620D01*
X-859470Y827920D01*
X-838130Y824750D01*
X-819160Y827920D01*
X-800200Y843800D01*
X-788350Y862850D01*
X-785980Y881900D01*
X-790720Y904120D01*
X-807310Y920000D01*
X-823910Y926350D01*
X-845240D01*
G01X-823910D02*
X-809680Y935870D01*
X-797830Y951750D01*
X-793090Y970800D01*
X-797830Y989850D01*
X-809680Y1005720D01*
X-831020Y1015250D01*
X-852350Y1012080D01*
X-873690Y999370D01*
G01X-650000Y818400D02*
X-654740Y821580D01*
Y827920D01*
X-650000Y831100D01*
X-645260Y827920D01*
Y821580D01*
X-650000Y818400D01*
G01X-504540Y904120D02*
X-487950Y926350D01*
X-473720Y939050D01*
X-454760Y945400D01*
X-438160Y939050D01*
X-426310Y926350D01*
X-416830Y907300D01*
X-414460Y885070D01*
X-416830Y866020D01*
X-426310Y846970D01*
X-440540Y831100D01*
X-457130Y824750D01*
X-476090Y831100D01*
X-492690Y850140D01*
X-502170Y878730D01*
X-504540Y910470D01*
X-499800Y951750D01*
X-492690Y973980D01*
X-480840Y996200D01*
X-464240Y1012080D01*
X-447650Y1015250D01*
X-431050Y1008900D01*
X-419200Y993020D01*
G01X837350Y-287150D02*
X851570Y-309380D01*
X870530Y-322080D01*
X891870Y-325250D01*
X910840Y-322080D01*
X929800Y-306200D01*
X941650Y-287150D01*
X944020Y-268100D01*
X939280Y-245880D01*
X922690Y-230000D01*
X906090Y-223650D01*
X884760D01*
G01X906090D02*
X920320Y-214130D01*
X932170Y-198250D01*
X936910Y-179200D01*
X932170Y-160150D01*
X920320Y-144280D01*
X898980Y-134750D01*
X877650Y-137920D01*
X856310Y-150630D01*
G01X1080000Y-331600D02*
X1075260Y-328420D01*
Y-322080D01*
X1080000Y-318900D01*
X1084740Y-322080D01*
Y-328420D01*
X1080000Y-331600D01*
G01X1225460Y-245880D02*
X1242050Y-223650D01*
X1256280Y-210950D01*
X1275240Y-204600D01*
X1291840Y-210950D01*
X1303690Y-223650D01*
X1313170Y-242700D01*
X1315540Y-264930D01*
X1313170Y-283980D01*
X1303690Y-303030D01*
X1289460Y-318900D01*
X1272870Y-325250D01*
X1253910Y-318900D01*
X1237310Y-299860D01*
X1227830Y-271270D01*
X1225460Y-239530D01*
X1230200Y-198250D01*
X1237310Y-176020D01*
X1249160Y-153800D01*
X1265760Y-137920D01*
X1282350Y-134750D01*
X1298950Y-141100D01*
X1310800Y-156980D01*
G01X3234250Y-705250D02*
X3250840Y-702080D01*
X3269810Y-692550D01*
X3281660Y-676680D01*
X3286400Y-654450D01*
X3281660Y-632230D01*
X3267440Y-613180D01*
X3246100Y-603650D01*
X3222400D01*
X3208170Y-597300D01*
X3196320Y-581430D01*
X3191580Y-559200D01*
X3198690Y-536980D01*
X3215280Y-521100D01*
X3234250Y-514750D01*
X3253210Y-521100D01*
X3269810Y-536980D01*
X3276920Y-559200D01*
X3272180Y-581430D01*
X3260330Y-597300D01*
X3246100Y-603650D01*
X3222400D01*
X3201060Y-613180D01*
X3186840Y-632230D01*
X3182100Y-654450D01*
X3186840Y-676680D01*
X3198690Y-692550D01*
X3217660Y-702080D01*
X3234250Y-705250D01*
G01X3424750D02*
Y-514750D01*
X3396300Y-552850D01*
G01Y-705250D02*
X3453190D01*
G01X3615250Y-711600D02*
X3610510Y-708420D01*
Y-702080D01*
X3615250Y-698900D01*
X3619990Y-702080D01*
Y-708420D01*
X3615250Y-711600D01*
G01X3834200Y-705250D02*
Y-514750D01*
X3746480Y-651270D01*
X3865020D01*
G01X3904750Y-1125250D02*
X3921340Y-1122080D01*
X3940310Y-1112550D01*
X3952160Y-1096680D01*
X3956900Y-1074450D01*
X3952160Y-1052230D01*
X3937940Y-1033180D01*
X3916600Y-1023650D01*
X3892900D01*
X3878670Y-1017300D01*
X3866820Y-1001430D01*
X3862080Y-979200D01*
X3869190Y-956980D01*
X3885780Y-941100D01*
X3904750Y-934750D01*
X3923710Y-941100D01*
X3940310Y-956980D01*
X3947420Y-979200D01*
X3942680Y-1001430D01*
X3930830Y-1017300D01*
X3916600Y-1023650D01*
X3892900D01*
X3871560Y-1033180D01*
X3857340Y-1052230D01*
X3852600Y-1074450D01*
X3857340Y-1096680D01*
X3869190Y-1112550D01*
X3888160Y-1122080D01*
X3904750Y-1125250D01*
G01X4043100Y-1096680D02*
X4057320Y-1112550D01*
X4073910Y-1122080D01*
X4095250Y-1125250D01*
X4116590Y-1118900D01*
X4133180Y-1106200D01*
X4145030Y-1083980D01*
X4147400Y-1058580D01*
X4142660Y-1033180D01*
X4130810Y-1017300D01*
X4114210Y-1004600D01*
X4097620Y-1001430D01*
X4081030Y-1004600D01*
X4059690Y-1017300D01*
X4066800Y-934750D01*
X4130810D01*
G01X9339520Y7608750D02*
Y7926250D01*
X9489140D01*
G01X9434010Y7772800D02*
X9339520D01*
G01X9682050Y7926250D02*
X9776530D01*
G01X9729290D02*
Y7608750D01*
G01X9682050D02*
X9776530D01*
G01X10067870Y7767500D02*
X10146620D01*
Y7672250D01*
X10122990Y7640490D01*
X10095430Y7619330D01*
X10056060Y7608750D01*
X10016690Y7619330D01*
X9989130Y7640490D01*
X9965510Y7672250D01*
X9949760Y7709290D01*
X9941880Y7751620D01*
Y7788670D01*
X9949760Y7820410D01*
X9965510Y7857460D01*
X9989130Y7889210D01*
X10012750Y7910370D01*
X10044250Y7926250D01*
X10071810D01*
X10103300Y7915670D01*
X10126930Y7894500D01*
G01X10272600Y7926250D02*
Y7698710D01*
X10288340Y7651070D01*
X10319840Y7619330D01*
X10359210Y7608750D01*
X10398580Y7619330D01*
X10430080Y7651070D01*
X10445820Y7698710D01*
Y7926250D01*
G01X10595430Y7608750D02*
Y7926250D01*
X10693850D01*
X10725350Y7910370D01*
X10745040Y7889210D01*
X10752910Y7846870D01*
X10745040Y7804540D01*
X10721410Y7778090D01*
X10693850Y7762200D01*
X10595430D01*
G01X10693850D02*
X10752910Y7608750D01*
G01X11067870D02*
X10910390D01*
Y7926250D01*
X11067870D01*
G01X11004880Y7772800D02*
X10910390D01*
G01X11937940Y7608750D02*
Y7926250D01*
X12087560D01*
G01X12032430Y7772800D02*
X11937940D01*
G01X12280470Y7926250D02*
X12374950D01*
G01X12327710D02*
Y7608750D01*
G01X12280470D02*
X12374950D01*
G01X12552120D02*
Y7926250D01*
X12733220Y7608750D01*
Y7926250D01*
G01X12910390D02*
X13004870D01*
G01X12957630D02*
Y7608750D01*
G01X12910390D02*
X13004870D01*
G01X13189910Y7651070D02*
X13221410Y7624620D01*
X13256840Y7608750D01*
X13288340D01*
X13319830Y7624620D01*
X13343460Y7651070D01*
X13355270Y7688130D01*
X13347400Y7725160D01*
X13327710Y7756910D01*
X13292270Y7778090D01*
X13245030Y7788670D01*
X13217470Y7809830D01*
X13205660Y7846870D01*
X13213540Y7883920D01*
X13233220Y7910370D01*
X13260780Y7926250D01*
X13288340D01*
X13315900Y7915670D01*
X13339520Y7889210D01*
G01X13504870Y7608750D02*
Y7926250D01*
G01X13670230D02*
Y7608750D01*
G01Y7767500D02*
X13504870D01*
G01X13981250Y7608750D02*
X13823770D01*
Y7926250D01*
X13981250D01*
G01X13918260Y7772800D02*
X13823770D01*
G01X14130860Y7608750D02*
Y7926250D01*
X14209590D01*
X14241090Y7910370D01*
X14264710Y7889210D01*
X14284400Y7857460D01*
X14300150Y7820410D01*
X14304080Y7767500D01*
X14300150Y7714580D01*
X14284400Y7677540D01*
X14264710Y7645780D01*
X14241090Y7624620D01*
X14209590Y7608750D01*
X14130860D01*
G01X14414320Y7502920D02*
X14650540D01*
G01X14764710Y7651070D02*
X14796210Y7624620D01*
X14831640Y7608750D01*
X14863140D01*
X14894630Y7624620D01*
X14918260Y7651070D01*
X14930070Y7688130D01*
X14922200Y7725160D01*
X14902510Y7756910D01*
X14867070Y7778090D01*
X14819830Y7788670D01*
X14792270Y7809830D01*
X14780460Y7846870D01*
X14788340Y7883920D01*
X14808020Y7910370D01*
X14835580Y7926250D01*
X14863140D01*
X14890700Y7915670D01*
X14914320Y7889210D01*
G01X15115110Y7926250D02*
X15209590D01*
G01X15162350D02*
Y7608750D01*
G01X15115110D02*
X15209590D01*
G01X15402500Y7926250D02*
X15552120D01*
X15402500Y7608750D01*
X15552120D01*
G01X15871010D02*
X15713530D01*
Y7926250D01*
X15871010D01*
G01X15808020Y7772800D02*
X15713530D01*
G01X12622980Y8243750D02*
X12721410Y8561250D01*
X12819840Y8243750D01*
G01X12784400Y8354870D02*
X12658410D01*
G01X12957630Y8561250D02*
Y8243750D01*
X13115110D01*
G01X13272590Y8561250D02*
Y8243750D01*
X13430070D01*
G01X13894640Y8561250D02*
Y8333710D01*
X13910380Y8286070D01*
X13941880Y8254330D01*
X13981250Y8243750D01*
X14020620Y8254330D01*
X14052120Y8286070D01*
X14067860Y8333710D01*
Y8561250D01*
G01X14205660Y8243750D02*
Y8561250D01*
X14386760Y8243750D01*
Y8561250D01*
G01X14563930D02*
X14658410D01*
G01X14611170D02*
Y8243750D01*
G01X14563930D02*
X14658410D01*
G01X14926130Y8561250D02*
Y8243750D01*
G01X14835580Y8561250D02*
X15016680D01*
G01X15158410Y8286070D02*
X15189910Y8259620D01*
X15225340Y8243750D01*
X15256840D01*
X15288330Y8259620D01*
X15311960Y8286070D01*
X15323770Y8323130D01*
X15315900Y8360160D01*
X15296210Y8391910D01*
X15260770Y8413090D01*
X15213530Y8423670D01*
X15185970Y8444830D01*
X15174160Y8481870D01*
X15182040Y8518920D01*
X15201720Y8545370D01*
X15229280Y8561250D01*
X15256840D01*
X15284400Y8550670D01*
X15308020Y8524210D01*
G01X15772580Y8243750D02*
X15871010Y8561250D01*
X15969440Y8243750D01*
G01X15934000Y8354870D02*
X15808010D01*
G01X16107230Y8243750D02*
Y8561250D01*
X16205650D01*
X16237150Y8545370D01*
X16256840Y8524210D01*
X16264710Y8481870D01*
X16256840Y8439540D01*
X16233210Y8413090D01*
X16205650Y8397200D01*
X16107230D01*
G01X16205650D02*
X16264710Y8243750D01*
G01X16579670D02*
X16422190D01*
Y8561250D01*
X16579670D01*
G01X16516680Y8407800D02*
X16422190D01*
G01X17083610Y8561250D02*
X17178090D01*
G01X17130850D02*
Y8243750D01*
G01X17083610D02*
X17178090D01*
G01X17355260D02*
Y8561250D01*
X17536360Y8243750D01*
Y8561250D01*
G01X17973360Y8243750D02*
Y8561250D01*
X18075730Y8296670D01*
X18178100Y8561250D01*
Y8243750D01*
G01X18343450Y8561250D02*
X18437930D01*
G01X18390690D02*
Y8243750D01*
G01X18343450D02*
X18437930D01*
G01X18626910Y8561250D02*
Y8243750D01*
X18784390D01*
G01X18941870Y8561250D02*
Y8243750D01*
X19099350D01*
G01X19288330Y8561250D02*
X19382810D01*
G01X19335570D02*
Y8243750D01*
G01X19288330D02*
X19382810D01*
G01X19548160D02*
Y8561250D01*
X19650530Y8296670D01*
X19752900Y8561250D01*
Y8243750D01*
G01X20044230D02*
X19886750D01*
Y8561250D01*
X20044230D01*
G01X19981240Y8407800D02*
X19886750D01*
G01X20280450Y8561250D02*
Y8243750D01*
G01X20189900Y8561250D02*
X20371000D01*
G01X20674150Y8243750D02*
X20516670D01*
Y8561250D01*
X20674150D01*
G01X20611160Y8407800D02*
X20516670D01*
G01X20831630Y8243750D02*
Y8561250D01*
X20930050D01*
X20961550Y8545370D01*
X20981240Y8524210D01*
X20989110Y8481870D01*
X20981240Y8439540D01*
X20957610Y8413090D01*
X20930050Y8397200D01*
X20831630D01*
G01X20930050D02*
X20989110Y8243750D01*
G01X21142650Y8286070D02*
X21174150Y8259620D01*
X21209580Y8243750D01*
X21241080D01*
X21272570Y8259620D01*
X21296200Y8286070D01*
X21308010Y8323130D01*
X21300140Y8360160D01*
X21280450Y8391910D01*
X21245010Y8413090D01*
X21197770Y8423670D01*
X21170210Y8444830D01*
X21158400Y8481870D01*
X21166280Y8518920D01*
X21185960Y8545370D01*
X21213520Y8561250D01*
X21241080D01*
X21268640Y8550670D01*
X21292260Y8524210D01*
G01X12871020Y52250D02*
X12894630Y15200D01*
X12926130Y-5960D01*
X12961570Y-11250D01*
X12993070Y-5960D01*
X13024560Y20490D01*
X13044240Y52250D01*
X13048180Y84000D01*
X13040310Y121030D01*
X13012750Y147500D01*
X12985190Y158090D01*
X12949750D01*
G01X12985190D02*
X13008810Y173960D01*
X13028500Y200410D01*
X13036370Y232160D01*
X13028500Y263920D01*
X13008810Y290370D01*
X12973380Y306250D01*
X12937950Y300960D01*
X12902510Y279790D01*
G01X13272590Y-21830D02*
X13264710Y-16540D01*
Y-5960D01*
X13272590Y-670D01*
X13280470Y-5960D01*
Y-16540D01*
X13272590Y-21830D01*
G01X13587550Y306250D02*
X13556050Y295670D01*
X13532430Y269210D01*
X13516680Y237460D01*
X13504870Y195120D01*
X13500940Y147500D01*
X13504870Y99870D01*
X13516680Y57540D01*
X13532430Y25780D01*
X13556050Y-670D01*
X13587550Y-11250D01*
X13619040Y-670D01*
X13642670Y25780D01*
X13658420Y57540D01*
X13670230Y99870D01*
X13674160Y147500D01*
X13670230Y195120D01*
X13658420Y237460D01*
X13642670Y269210D01*
X13619040Y295670D01*
X13587550Y306250D01*
G01X13843460Y200410D02*
X13961560Y-11250D01*
G01Y200410D02*
X13843460Y-11250D01*
G01X14217470D02*
Y306250D01*
X14170230Y242750D01*
G01Y-11250D02*
X14264710D01*
G01X14532430Y-21830D02*
X14524550Y-16540D01*
Y-5960D01*
X14532430Y-670D01*
X14540310Y-5960D01*
Y-16540D01*
X14532430Y-21830D01*
G01X14847390Y306250D02*
X14815890Y295670D01*
X14792270Y269210D01*
X14776520Y237460D01*
X14764710Y195120D01*
X14760780Y147500D01*
X14764710Y99870D01*
X14776520Y57540D01*
X14792270Y25780D01*
X14815890Y-670D01*
X14847390Y-11250D01*
X14878880Y-670D01*
X14902510Y25780D01*
X14918260Y57540D01*
X14930070Y99870D01*
X14934000Y147500D01*
X14930070Y195120D01*
X14918260Y237460D01*
X14902510Y269210D01*
X14878880Y295670D01*
X14847390Y306250D01*
G01X12871020Y687250D02*
X12894630Y650200D01*
X12926130Y629040D01*
X12961570Y623750D01*
X12993070Y629040D01*
X13024560Y655490D01*
X13044240Y687250D01*
X13048180Y719000D01*
X13040310Y756030D01*
X13012750Y782500D01*
X12985190Y793090D01*
X12949750D01*
G01X12985190D02*
X13008810Y808960D01*
X13028500Y835410D01*
X13036370Y867160D01*
X13028500Y898920D01*
X13008810Y925370D01*
X12973380Y941250D01*
X12937950Y935960D01*
X12902510Y914790D01*
G01X13272590Y613170D02*
X13264710Y618460D01*
Y629040D01*
X13272590Y634330D01*
X13280470Y629040D01*
Y618460D01*
X13272590Y613170D01*
G01X13587550Y941250D02*
X13556050Y930670D01*
X13532430Y904210D01*
X13516680Y872460D01*
X13504870Y830120D01*
X13500940Y782500D01*
X13504870Y734870D01*
X13516680Y692540D01*
X13532430Y660780D01*
X13556050Y634330D01*
X13587550Y623750D01*
X13619040Y634330D01*
X13642670Y660780D01*
X13658420Y692540D01*
X13670230Y734870D01*
X13674160Y782500D01*
X13670230Y830120D01*
X13658420Y872460D01*
X13642670Y904210D01*
X13619040Y930670D01*
X13587550Y941250D01*
G01X13843460Y835410D02*
X13961560Y623750D01*
G01Y835410D02*
X13843460Y623750D01*
G01X14217470D02*
Y941250D01*
X14170230Y877750D01*
G01Y623750D02*
X14264710D01*
G01X14532430Y613170D02*
X14524550Y618460D01*
Y629040D01*
X14532430Y634330D01*
X14540310Y629040D01*
Y618460D01*
X14532430Y613170D01*
G01X14847390Y941250D02*
X14815890Y930670D01*
X14792270Y904210D01*
X14776520Y872460D01*
X14764710Y830120D01*
X14760780Y782500D01*
X14764710Y734870D01*
X14776520Y692540D01*
X14792270Y660780D01*
X14815890Y634330D01*
X14847390Y623750D01*
X14878880Y634330D01*
X14902510Y660780D01*
X14918260Y692540D01*
X14930070Y734870D01*
X14934000Y782500D01*
X14930070Y830120D01*
X14918260Y872460D01*
X14902510Y904210D01*
X14878880Y930670D01*
X14847390Y941250D01*
G01X12957630Y1258750D02*
Y1576250D01*
X12910390Y1512750D01*
G01Y1258750D02*
X13004870D01*
G01X13272590Y1248170D02*
X13264710Y1253460D01*
Y1264040D01*
X13272590Y1269330D01*
X13280470Y1264040D01*
Y1253460D01*
X13272590Y1248170D01*
G01X13579670Y1258750D02*
X13587550Y1327540D01*
X13599360Y1385740D01*
X13615110Y1438670D01*
X13634790Y1496870D01*
X13666290Y1576250D01*
X13508810D01*
G01X13843460Y1470410D02*
X13961560Y1258750D01*
G01Y1470410D02*
X13843460Y1258750D01*
G01X14217470Y1576250D02*
X14185970Y1565670D01*
X14162350Y1539210D01*
X14146600Y1507460D01*
X14134790Y1465120D01*
X14130860Y1417500D01*
X14134790Y1369870D01*
X14146600Y1327540D01*
X14162350Y1295780D01*
X14185970Y1269330D01*
X14217470Y1258750D01*
X14248960Y1269330D01*
X14272590Y1295780D01*
X14288340Y1327540D01*
X14300150Y1369870D01*
X14304080Y1417500D01*
X14300150Y1465120D01*
X14288340Y1507460D01*
X14272590Y1539210D01*
X14248960Y1565670D01*
X14217470Y1576250D01*
G01X14532430Y1248170D02*
X14524550Y1253460D01*
Y1264040D01*
X14532430Y1269330D01*
X14540310Y1264040D01*
Y1253460D01*
X14532430Y1248170D01*
G01X14772580Y1391030D02*
X14800150Y1428090D01*
X14823770Y1449250D01*
X14855270Y1459830D01*
X14882830Y1449250D01*
X14902510Y1428090D01*
X14918260Y1396330D01*
X14922200Y1359290D01*
X14918260Y1327540D01*
X14902510Y1295780D01*
X14878880Y1269330D01*
X14851330Y1258750D01*
X14819830Y1269330D01*
X14792270Y1301070D01*
X14776520Y1348710D01*
X14772580Y1401620D01*
X14780460Y1470410D01*
X14792270Y1507460D01*
X14811950Y1544500D01*
X14839510Y1570960D01*
X14867070Y1576250D01*
X14894630Y1565670D01*
X14914320Y1539210D01*
G01X12957630Y1893750D02*
Y2211250D01*
X12910390Y2147750D01*
G01Y1893750D02*
X13004870D01*
G01X13272590Y1883170D02*
X13264710Y1888460D01*
Y1899040D01*
X13272590Y1904330D01*
X13280470Y1899040D01*
Y1888460D01*
X13272590Y1883170D01*
G01X13512740Y2158330D02*
X13536370Y2190080D01*
X13563930Y2205960D01*
X13595430Y2211250D01*
X13634790Y2200670D01*
X13662360Y2174210D01*
X13670230Y2142460D01*
X13666290Y2110700D01*
X13650540Y2084250D01*
X13571800Y2031330D01*
X13536370Y1994290D01*
X13512740Y1941360D01*
X13504870Y1893750D01*
X13670230D01*
G01X13843460Y2105410D02*
X13961560Y1893750D01*
G01Y2105410D02*
X13843460Y1893750D01*
G01X14217470Y2211250D02*
X14185970Y2200670D01*
X14162350Y2174210D01*
X14146600Y2142460D01*
X14134790Y2100120D01*
X14130860Y2052500D01*
X14134790Y2004870D01*
X14146600Y1962540D01*
X14162350Y1930780D01*
X14185970Y1904330D01*
X14217470Y1893750D01*
X14248960Y1904330D01*
X14272590Y1930780D01*
X14288340Y1962540D01*
X14300150Y2004870D01*
X14304080Y2052500D01*
X14300150Y2100120D01*
X14288340Y2142460D01*
X14272590Y2174210D01*
X14248960Y2200670D01*
X14217470Y2211250D01*
G01X14532430Y1883170D02*
X14524550Y1888460D01*
Y1899040D01*
X14532430Y1904330D01*
X14540310Y1899040D01*
Y1888460D01*
X14532430Y1883170D01*
G01X14772580Y2026030D02*
X14800150Y2063090D01*
X14823770Y2084250D01*
X14855270Y2094830D01*
X14882830Y2084250D01*
X14902510Y2063090D01*
X14918260Y2031330D01*
X14922200Y1994290D01*
X14918260Y1962540D01*
X14902510Y1930780D01*
X14878880Y1904330D01*
X14851330Y1893750D01*
X14819830Y1904330D01*
X14792270Y1936070D01*
X14776520Y1983710D01*
X14772580Y2036620D01*
X14780460Y2105410D01*
X14792270Y2142460D01*
X14811950Y2179500D01*
X14839510Y2205960D01*
X14867070Y2211250D01*
X14894630Y2200670D01*
X14914320Y2174210D01*
G01X13115110Y6656250D02*
X13083610Y6645670D01*
X13059990Y6619210D01*
X13044240Y6587460D01*
X13032430Y6545120D01*
X13028500Y6497500D01*
X13032430Y6449870D01*
X13044240Y6407540D01*
X13059990Y6375780D01*
X13083610Y6349330D01*
X13115110Y6338750D01*
X13146600Y6349330D01*
X13170230Y6375780D01*
X13185980Y6407540D01*
X13197790Y6449870D01*
X13201720Y6497500D01*
X13197790Y6545120D01*
X13185980Y6587460D01*
X13170230Y6619210D01*
X13146600Y6645670D01*
X13115110Y6656250D01*
G01X13430070Y6328170D02*
X13422190Y6333460D01*
Y6344040D01*
X13430070Y6349330D01*
X13437950Y6344040D01*
Y6333460D01*
X13430070Y6328170D01*
G01X13792270Y6338750D02*
Y6656250D01*
X13646600Y6428710D01*
X13843460D01*
G01X13973380Y6386360D02*
X13996990Y6359910D01*
X14024550Y6344040D01*
X14059990Y6338750D01*
X14095430Y6349330D01*
X14122980Y6370490D01*
X14142670Y6407540D01*
X14146600Y6449870D01*
X14138730Y6492200D01*
X14119040Y6518670D01*
X14091480Y6539830D01*
X14063930Y6545120D01*
X14036370Y6539830D01*
X14000940Y6518670D01*
X14012750Y6656250D01*
X14119040D01*
G01X14367070Y6338750D02*
X14374950Y6407540D01*
X14386760Y6465740D01*
X14402510Y6518670D01*
X14422190Y6576870D01*
X14453690Y6656250D01*
X14296210D01*
G01X14615100Y6603330D02*
X14638730Y6635080D01*
X14666290Y6650960D01*
X14697790Y6656250D01*
X14737150Y6645670D01*
X14764720Y6619210D01*
X14772590Y6587460D01*
X14768650Y6555700D01*
X14752900Y6529250D01*
X14674160Y6476330D01*
X14638730Y6439290D01*
X14615100Y6386360D01*
X14607230Y6338750D01*
X14772590D01*
G01X12949760Y8893750D02*
Y9211250D01*
X13028490D01*
X13059990Y9195370D01*
X13083610Y9174210D01*
X13103300Y9142460D01*
X13119050Y9105410D01*
X13122980Y9052500D01*
X13119050Y8999580D01*
X13103300Y8962540D01*
X13083610Y8930780D01*
X13059990Y8909620D01*
X13028490Y8893750D01*
X12949760D01*
G01X13272590D02*
Y9211250D01*
X13371010D01*
X13402510Y9195370D01*
X13422200Y9174210D01*
X13430070Y9131870D01*
X13422200Y9089540D01*
X13398570Y9063090D01*
X13371010Y9047200D01*
X13272590D01*
G01X13371010D02*
X13430070Y8893750D01*
G01X13619050Y9211250D02*
X13713530D01*
G01X13666290D02*
Y8893750D01*
G01X13619050D02*
X13713530D01*
G01X13902510Y9211250D02*
Y8893750D01*
X14059990D01*
G01X14217470Y9211250D02*
Y8893750D01*
X14374950D01*
G01X15012740Y9184790D02*
X14989120Y9200670D01*
X14961570Y9211250D01*
X14930070D01*
X14894630Y9195370D01*
X14867080Y9168920D01*
X14847390Y9137160D01*
X14831640Y9084250D01*
X14827700Y9036620D01*
X14835580Y8989000D01*
X14847390Y8957250D01*
X14871010Y8925490D01*
X14898570Y8904330D01*
X14926130Y8893750D01*
X14953690D01*
X14981250Y8904330D01*
X15004870Y8920200D01*
X15024560Y8941360D01*
G01X15158410Y8893750D02*
Y9211250D01*
G01X15323770D02*
Y8893750D01*
G01Y9052500D02*
X15158410D01*
G01X15457620Y8893750D02*
X15556050Y9211250D01*
X15654480Y8893750D01*
G01X15619040Y9004870D02*
X15493050D01*
G01X15792270Y8893750D02*
Y9211250D01*
X15890690D01*
X15922190Y9195370D01*
X15941880Y9174210D01*
X15949750Y9131870D01*
X15941880Y9089540D01*
X15918250Y9063090D01*
X15890690Y9047200D01*
X15792270D01*
G01X15890690D02*
X15949750Y8893750D01*
G01X16185970Y9211250D02*
Y8893750D01*
G01X16095420Y9211250D02*
X16276520D01*
G01X16500930Y8883170D02*
X16493050Y8888460D01*
Y8899040D01*
X16500930Y8904330D01*
X16508810Y8899040D01*
Y8888460D01*
X16500930Y8883170D01*
G01Y9026030D02*
X16493050Y9031330D01*
Y9041910D01*
X16500930Y9047200D01*
X16508810Y9041910D01*
Y9031330D01*
X16500930Y9026030D01*
G01X17130850Y9211250D02*
Y8893750D01*
G01X17040300Y9211250D02*
X17221400D01*
G01X17445810Y8893750D02*
X17414310Y8899040D01*
X17386760Y8920200D01*
X17363130Y8951960D01*
X17347380Y8989000D01*
X17339510Y9031330D01*
Y9073670D01*
X17347380Y9116000D01*
X17363130Y9153040D01*
X17386760Y9184790D01*
X17414310Y9205960D01*
X17445810Y9211250D01*
X17477300Y9205960D01*
X17504860Y9184790D01*
X17528490Y9153040D01*
X17544240Y9116000D01*
X17552110Y9073670D01*
Y9031330D01*
X17544240Y8989000D01*
X17528490Y8951960D01*
X17504860Y8920200D01*
X17477300Y8899040D01*
X17445810Y8893750D01*
G01X17682030D02*
Y9211250D01*
X17776520D01*
X17808010Y9195370D01*
X17831640Y9158330D01*
X17839510Y9116000D01*
X17831640Y9073670D01*
X17811950Y9041910D01*
X17776520Y9026030D01*
X17682030D01*
G01X18390690Y9211250D02*
Y8893750D01*
G01X18335570Y9105410D02*
X18445810D01*
G01X18705650Y8893750D02*
X18682030Y8899040D01*
X18658410Y8920200D01*
X18642650Y8957250D01*
X18634780Y8999580D01*
X18642650Y9041910D01*
X18658410Y9078960D01*
X18682030Y9100120D01*
X18705650Y9105410D01*
X18729270Y9100120D01*
X18752890Y9078960D01*
X18768640Y9041910D01*
X18772580Y8999580D01*
X18768640Y8957250D01*
X18752890Y8920200D01*
X18729270Y8899040D01*
X18705650Y8893750D01*
G01X19367060Y9063090D02*
X19382810Y9078960D01*
X19394620Y9105410D01*
X19402500Y9142460D01*
X19394620Y9174210D01*
X19378880Y9195370D01*
X19351320Y9211250D01*
X19245020D01*
Y8893750D01*
X19374940D01*
X19402500Y8914910D01*
X19418250Y8946670D01*
X19426120Y8983710D01*
X19418250Y9020740D01*
X19394620Y9052500D01*
X19367060Y9063090D01*
X19245020D01*
G01X19650530Y8893750D02*
X19619030Y8899040D01*
X19591480Y8920200D01*
X19567850Y8951960D01*
X19552100Y8989000D01*
X19544230Y9031330D01*
Y9073670D01*
X19552100Y9116000D01*
X19567850Y9153040D01*
X19591480Y9184790D01*
X19619030Y9205960D01*
X19650530Y9211250D01*
X19682020Y9205960D01*
X19709580Y9184790D01*
X19733210Y9153040D01*
X19748960Y9116000D01*
X19756830Y9073670D01*
Y9031330D01*
X19748960Y8989000D01*
X19733210Y8951960D01*
X19709580Y8920200D01*
X19682020Y8899040D01*
X19650530Y8893750D01*
G01X19965490Y9211250D02*
Y8893750D01*
G01X19874940Y9211250D02*
X20056040D01*
G01X20280450D02*
Y8893750D01*
G01X20189900Y9211250D02*
X20371000D01*
G01X20595410Y8893750D02*
X20563910Y8899040D01*
X20536360Y8920200D01*
X20512730Y8951960D01*
X20496980Y8989000D01*
X20489110Y9031330D01*
Y9073670D01*
X20496980Y9116000D01*
X20512730Y9153040D01*
X20536360Y9184790D01*
X20563910Y9205960D01*
X20595410Y9211250D01*
X20626900Y9205960D01*
X20654460Y9184790D01*
X20678090Y9153040D01*
X20693840Y9116000D01*
X20701710Y9073670D01*
Y9031330D01*
X20693840Y8989000D01*
X20678090Y8951960D01*
X20654460Y8920200D01*
X20626900Y8899040D01*
X20595410Y8893750D01*
G01X20808000D02*
Y9211250D01*
X20910370Y8946670D01*
X21012740Y9211250D01*
Y8893750D01*
G01X13272590Y7291250D02*
X13241090Y7280670D01*
X13217470Y7254210D01*
X13201720Y7222460D01*
X13189910Y7180120D01*
X13185980Y7132500D01*
X13189910Y7084870D01*
X13201720Y7042540D01*
X13217470Y7010780D01*
X13241090Y6984330D01*
X13272590Y6973750D01*
X13304080Y6984330D01*
X13327710Y7010780D01*
X13343460Y7042540D01*
X13355270Y7084870D01*
X13359200Y7132500D01*
X13355270Y7180120D01*
X13343460Y7222460D01*
X13327710Y7254210D01*
X13304080Y7280670D01*
X13272590Y7291250D01*
G01X13587550Y6963170D02*
X13579670Y6968460D01*
Y6979040D01*
X13587550Y6984330D01*
X13595430Y6979040D01*
Y6968460D01*
X13587550Y6963170D01*
G01X13827700Y7238330D02*
X13851330Y7270080D01*
X13878890Y7285960D01*
X13910390Y7291250D01*
X13949750Y7280670D01*
X13977320Y7254210D01*
X13985190Y7222460D01*
X13981250Y7190700D01*
X13965500Y7164250D01*
X13886760Y7111330D01*
X13851330Y7074290D01*
X13827700Y7021360D01*
X13819830Y6973750D01*
X13985190D01*
G01X14130860Y7021360D02*
X14154470Y6994910D01*
X14182030Y6979040D01*
X14217470Y6973750D01*
X14252910Y6984330D01*
X14280460Y7005490D01*
X14300150Y7042540D01*
X14304080Y7084870D01*
X14296210Y7127200D01*
X14276520Y7153670D01*
X14248960Y7174830D01*
X14221410Y7180120D01*
X14193850Y7174830D01*
X14158420Y7153670D01*
X14170230Y7291250D01*
X14276520D01*
G01X14579670Y6973750D02*
Y7291250D01*
X14434000Y7063710D01*
X14630860D01*
G01X13500940Y2592250D02*
X13524550Y2555200D01*
X13556050Y2534040D01*
X13591490Y2528750D01*
X13622990Y2534040D01*
X13654480Y2560490D01*
X13674160Y2592250D01*
X13678100Y2624000D01*
X13670230Y2661030D01*
X13642670Y2687500D01*
X13615110Y2698090D01*
X13579670D01*
G01X13615110D02*
X13638730Y2713960D01*
X13658420Y2740410D01*
X13666290Y2772160D01*
X13658420Y2803920D01*
X13638730Y2830370D01*
X13603300Y2846250D01*
X13567870Y2840960D01*
X13532430Y2819790D01*
G01X13902510Y2518170D02*
X13894630Y2523460D01*
Y2534040D01*
X13902510Y2539330D01*
X13910390Y2534040D01*
Y2523460D01*
X13902510Y2518170D01*
G01X14130860Y2592250D02*
X14154470Y2555200D01*
X14185970Y2534040D01*
X14221410Y2528750D01*
X14252910Y2534040D01*
X14284400Y2560490D01*
X14304080Y2592250D01*
X14308020Y2624000D01*
X14300150Y2661030D01*
X14272590Y2687500D01*
X14245030Y2698090D01*
X14209590D01*
G01X14245030D02*
X14268650Y2713960D01*
X14288340Y2740410D01*
X14296210Y2772160D01*
X14288340Y2803920D01*
X14268650Y2830370D01*
X14233220Y2846250D01*
X14197790Y2840960D01*
X14162350Y2819790D01*
G01X13587550Y3163750D02*
Y3481250D01*
X13540310Y3417750D01*
G01Y3163750D02*
X13634790D01*
G01X13902510Y3153170D02*
X13894630Y3158460D01*
Y3169040D01*
X13902510Y3174330D01*
X13910390Y3169040D01*
Y3158460D01*
X13902510Y3153170D01*
G01X14142660Y3296030D02*
X14170230Y3333090D01*
X14193850Y3354250D01*
X14225350Y3364830D01*
X14252910Y3354250D01*
X14272590Y3333090D01*
X14288340Y3301330D01*
X14292280Y3264290D01*
X14288340Y3232540D01*
X14272590Y3200780D01*
X14248960Y3174330D01*
X14221410Y3163750D01*
X14189910Y3174330D01*
X14162350Y3206070D01*
X14146600Y3253710D01*
X14142660Y3306620D01*
X14150540Y3375410D01*
X14162350Y3412460D01*
X14182030Y3449500D01*
X14209590Y3475960D01*
X14237150Y3481250D01*
X14264710Y3470670D01*
X14284400Y3444210D01*
G01X13587550Y3798750D02*
Y4116250D01*
X13540310Y4052750D01*
G01Y3798750D02*
X13634790D01*
G01X13902510Y3788170D02*
X13894630Y3793460D01*
Y3804040D01*
X13902510Y3809330D01*
X13910390Y3804040D01*
Y3793460D01*
X13902510Y3788170D01*
G01X14130860Y3846360D02*
X14154470Y3819910D01*
X14182030Y3804040D01*
X14217470Y3798750D01*
X14252910Y3809330D01*
X14280460Y3830490D01*
X14300150Y3867540D01*
X14304080Y3909870D01*
X14296210Y3952200D01*
X14276520Y3978670D01*
X14248960Y3999830D01*
X14221410Y4005120D01*
X14193850Y3999830D01*
X14158420Y3978670D01*
X14170230Y4116250D01*
X14276520D01*
G01X13587550Y4433750D02*
Y4751250D01*
X13540310Y4687750D01*
G01Y4433750D02*
X13634790D01*
G01X13902510Y4423170D02*
X13894630Y4428460D01*
Y4439040D01*
X13902510Y4444330D01*
X13910390Y4439040D01*
Y4428460D01*
X13902510Y4423170D01*
G01X14217470Y4751250D02*
X14185970Y4740670D01*
X14162350Y4714210D01*
X14146600Y4682460D01*
X14134790Y4640120D01*
X14130860Y4592500D01*
X14134790Y4544870D01*
X14146600Y4502540D01*
X14162350Y4470780D01*
X14185970Y4444330D01*
X14217470Y4433750D01*
X14248960Y4444330D01*
X14272590Y4470780D01*
X14288340Y4502540D01*
X14300150Y4544870D01*
X14304080Y4592500D01*
X14300150Y4640120D01*
X14288340Y4682460D01*
X14272590Y4714210D01*
X14248960Y4740670D01*
X14217470Y4751250D01*
G01X13587550Y5386250D02*
X13556050Y5375670D01*
X13532430Y5349210D01*
X13516680Y5317460D01*
X13504870Y5275120D01*
X13500940Y5227500D01*
X13504870Y5179870D01*
X13516680Y5137540D01*
X13532430Y5105780D01*
X13556050Y5079330D01*
X13587550Y5068750D01*
X13619040Y5079330D01*
X13642670Y5105780D01*
X13658420Y5137540D01*
X13670230Y5179870D01*
X13674160Y5227500D01*
X13670230Y5275120D01*
X13658420Y5317460D01*
X13642670Y5349210D01*
X13619040Y5375670D01*
X13587550Y5386250D01*
G01X13902510Y5058170D02*
X13894630Y5063460D01*
Y5074040D01*
X13902510Y5079330D01*
X13910390Y5074040D01*
Y5063460D01*
X13902510Y5058170D01*
G01X14150540Y5105780D02*
X14178100Y5079330D01*
X14209590Y5068750D01*
X14241090Y5079330D01*
X14268650Y5111070D01*
X14288340Y5158710D01*
X14296210Y5206330D01*
Y5264540D01*
X14288340Y5312160D01*
X14268650Y5354500D01*
X14245030Y5375670D01*
X14217470Y5386250D01*
X14185970Y5375670D01*
X14162350Y5354500D01*
X14146600Y5322750D01*
X14138730Y5280410D01*
X14146600Y5243380D01*
X14166290Y5206330D01*
X14189910Y5185160D01*
X14217470Y5179870D01*
X14248960Y5190450D01*
X14272590Y5216910D01*
X14296210Y5264540D01*
G01X13587550Y6021250D02*
X13556050Y6010670D01*
X13532430Y5984210D01*
X13516680Y5952460D01*
X13504870Y5910120D01*
X13500940Y5862500D01*
X13504870Y5814870D01*
X13516680Y5772540D01*
X13532430Y5740780D01*
X13556050Y5714330D01*
X13587550Y5703750D01*
X13619040Y5714330D01*
X13642670Y5740780D01*
X13658420Y5772540D01*
X13670230Y5814870D01*
X13674160Y5862500D01*
X13670230Y5910120D01*
X13658420Y5952460D01*
X13642670Y5984210D01*
X13619040Y6010670D01*
X13587550Y6021250D01*
G01X13902510Y5693170D02*
X13894630Y5698460D01*
Y5709040D01*
X13902510Y5714330D01*
X13910390Y5709040D01*
Y5698460D01*
X13902510Y5693170D01*
G01X14142660Y5836030D02*
X14170230Y5873090D01*
X14193850Y5894250D01*
X14225350Y5904830D01*
X14252910Y5894250D01*
X14272590Y5873090D01*
X14288340Y5841330D01*
X14292280Y5804290D01*
X14288340Y5772540D01*
X14272590Y5740780D01*
X14248960Y5714330D01*
X14221410Y5703750D01*
X14189910Y5714330D01*
X14162350Y5746070D01*
X14146600Y5793710D01*
X14142660Y5846620D01*
X14150540Y5915410D01*
X14162350Y5952460D01*
X14182030Y5989500D01*
X14209590Y6015960D01*
X14237150Y6021250D01*
X14264710Y6010670D01*
X14284400Y5984210D01*
G01X17221400Y660780D02*
X17248960Y634330D01*
X17280450Y623750D01*
X17311950Y634330D01*
X17339510Y666070D01*
X17359200Y713710D01*
X17367070Y761330D01*
Y819540D01*
X17359200Y867160D01*
X17339510Y909500D01*
X17315890Y930670D01*
X17288330Y941250D01*
X17256830Y930670D01*
X17233210Y909500D01*
X17217460Y877750D01*
X17209590Y835410D01*
X17217460Y798380D01*
X17237150Y761330D01*
X17260770Y740160D01*
X17288330Y734870D01*
X17319820Y745450D01*
X17343450Y771910D01*
X17367070Y819540D01*
G01X17603290Y941250D02*
X17571790Y930670D01*
X17548170Y904210D01*
X17532420Y872460D01*
X17520610Y830120D01*
X17516680Y782500D01*
X17520610Y734870D01*
X17532420Y692540D01*
X17548170Y660780D01*
X17571790Y634330D01*
X17603290Y623750D01*
X17634780Y634330D01*
X17658410Y660780D01*
X17674160Y692540D01*
X17685970Y734870D01*
X17689900Y782500D01*
X17685970Y830120D01*
X17674160Y872460D01*
X17658410Y904210D01*
X17634780Y930670D01*
X17603290Y941250D01*
G01X17918250Y613170D02*
X17910370Y618460D01*
Y629040D01*
X17918250Y634330D01*
X17926130Y629040D01*
Y618460D01*
X17918250Y613170D01*
G01X18233210Y941250D02*
X18201710Y930670D01*
X18178090Y904210D01*
X18162340Y872460D01*
X18150530Y830120D01*
X18146600Y782500D01*
X18150530Y734870D01*
X18162340Y692540D01*
X18178090Y660780D01*
X18201710Y634330D01*
X18233210Y623750D01*
X18264700Y634330D01*
X18288330Y660780D01*
X18304080Y692540D01*
X18315890Y734870D01*
X18319820Y782500D01*
X18315890Y830120D01*
X18304080Y872460D01*
X18288330Y904210D01*
X18264700Y930670D01*
X18233210Y941250D01*
G01X18548170D02*
X18516670Y930670D01*
X18493050Y904210D01*
X18477300Y872460D01*
X18465490Y830120D01*
X18461560Y782500D01*
X18465490Y734870D01*
X18477300Y692540D01*
X18493050Y660780D01*
X18516670Y634330D01*
X18548170Y623750D01*
X18579660Y634330D01*
X18603290Y660780D01*
X18619040Y692540D01*
X18630850Y734870D01*
X18634780Y782500D01*
X18630850Y830120D01*
X18619040Y872460D01*
X18603290Y904210D01*
X18579660Y930670D01*
X18548170Y941250D01*
G01X18863130D02*
X18831630Y930670D01*
X18808010Y904210D01*
X18792260Y872460D01*
X18780450Y830120D01*
X18776520Y782500D01*
X18780450Y734870D01*
X18792260Y692540D01*
X18808010Y660780D01*
X18831630Y634330D01*
X18863130Y623750D01*
X18894620Y634330D01*
X18918250Y660780D01*
X18934000Y692540D01*
X18945810Y734870D01*
X18949740Y782500D01*
X18945810Y830120D01*
X18934000Y872460D01*
X18918250Y904210D01*
X18894620Y930670D01*
X18863130Y941250D01*
G01X17221400Y1295780D02*
X17248960Y1269330D01*
X17280450Y1258750D01*
X17311950Y1269330D01*
X17339510Y1301070D01*
X17359200Y1348710D01*
X17367070Y1396330D01*
Y1454540D01*
X17359200Y1502160D01*
X17339510Y1544500D01*
X17315890Y1565670D01*
X17288330Y1576250D01*
X17256830Y1565670D01*
X17233210Y1544500D01*
X17217460Y1512750D01*
X17209590Y1470410D01*
X17217460Y1433380D01*
X17237150Y1396330D01*
X17260770Y1375160D01*
X17288330Y1369870D01*
X17319820Y1380450D01*
X17343450Y1406910D01*
X17367070Y1454540D01*
G01X17603290Y1576250D02*
X17571790Y1565670D01*
X17548170Y1539210D01*
X17532420Y1507460D01*
X17520610Y1465120D01*
X17516680Y1417500D01*
X17520610Y1369870D01*
X17532420Y1327540D01*
X17548170Y1295780D01*
X17571790Y1269330D01*
X17603290Y1258750D01*
X17634780Y1269330D01*
X17658410Y1295780D01*
X17674160Y1327540D01*
X17685970Y1369870D01*
X17689900Y1417500D01*
X17685970Y1465120D01*
X17674160Y1507460D01*
X17658410Y1539210D01*
X17634780Y1565670D01*
X17603290Y1576250D01*
G01X17918250Y1248170D02*
X17910370Y1253460D01*
Y1264040D01*
X17918250Y1269330D01*
X17926130Y1264040D01*
Y1253460D01*
X17918250Y1248170D01*
G01X18233210Y1576250D02*
X18201710Y1565670D01*
X18178090Y1539210D01*
X18162340Y1507460D01*
X18150530Y1465120D01*
X18146600Y1417500D01*
X18150530Y1369870D01*
X18162340Y1327540D01*
X18178090Y1295780D01*
X18201710Y1269330D01*
X18233210Y1258750D01*
X18264700Y1269330D01*
X18288330Y1295780D01*
X18304080Y1327540D01*
X18315890Y1369870D01*
X18319820Y1417500D01*
X18315890Y1465120D01*
X18304080Y1507460D01*
X18288330Y1539210D01*
X18264700Y1565670D01*
X18233210Y1576250D01*
G01X18548170D02*
X18516670Y1565670D01*
X18493050Y1539210D01*
X18477300Y1507460D01*
X18465490Y1465120D01*
X18461560Y1417500D01*
X18465490Y1369870D01*
X18477300Y1327540D01*
X18493050Y1295780D01*
X18516670Y1269330D01*
X18548170Y1258750D01*
X18579660Y1269330D01*
X18603290Y1295780D01*
X18619040Y1327540D01*
X18630850Y1369870D01*
X18634780Y1417500D01*
X18630850Y1465120D01*
X18619040Y1507460D01*
X18603290Y1539210D01*
X18579660Y1565670D01*
X18548170Y1576250D01*
G01X18863130D02*
X18831630Y1565670D01*
X18808010Y1539210D01*
X18792260Y1507460D01*
X18780450Y1465120D01*
X18776520Y1417500D01*
X18780450Y1369870D01*
X18792260Y1327540D01*
X18808010Y1295780D01*
X18831630Y1269330D01*
X18863130Y1258750D01*
X18894620Y1269330D01*
X18918250Y1295780D01*
X18934000Y1327540D01*
X18945810Y1369870D01*
X18949740Y1417500D01*
X18945810Y1465120D01*
X18934000Y1507460D01*
X18918250Y1539210D01*
X18894620Y1565670D01*
X18863130Y1576250D01*
G01X17221400Y1930780D02*
X17248960Y1904330D01*
X17280450Y1893750D01*
X17311950Y1904330D01*
X17339510Y1936070D01*
X17359200Y1983710D01*
X17367070Y2031330D01*
Y2089540D01*
X17359200Y2137160D01*
X17339510Y2179500D01*
X17315890Y2200670D01*
X17288330Y2211250D01*
X17256830Y2200670D01*
X17233210Y2179500D01*
X17217460Y2147750D01*
X17209590Y2105410D01*
X17217460Y2068380D01*
X17237150Y2031330D01*
X17260770Y2010160D01*
X17288330Y2004870D01*
X17319820Y2015450D01*
X17343450Y2041910D01*
X17367070Y2089540D01*
G01X17603290Y2211250D02*
X17571790Y2200670D01*
X17548170Y2174210D01*
X17532420Y2142460D01*
X17520610Y2100120D01*
X17516680Y2052500D01*
X17520610Y2004870D01*
X17532420Y1962540D01*
X17548170Y1930780D01*
X17571790Y1904330D01*
X17603290Y1893750D01*
X17634780Y1904330D01*
X17658410Y1930780D01*
X17674160Y1962540D01*
X17685970Y2004870D01*
X17689900Y2052500D01*
X17685970Y2100120D01*
X17674160Y2142460D01*
X17658410Y2174210D01*
X17634780Y2200670D01*
X17603290Y2211250D01*
G01X17918250Y1883170D02*
X17910370Y1888460D01*
Y1899040D01*
X17918250Y1904330D01*
X17926130Y1899040D01*
Y1888460D01*
X17918250Y1883170D01*
G01X18233210Y2211250D02*
X18201710Y2200670D01*
X18178090Y2174210D01*
X18162340Y2142460D01*
X18150530Y2100120D01*
X18146600Y2052500D01*
X18150530Y2004870D01*
X18162340Y1962540D01*
X18178090Y1930780D01*
X18201710Y1904330D01*
X18233210Y1893750D01*
X18264700Y1904330D01*
X18288330Y1930780D01*
X18304080Y1962540D01*
X18315890Y2004870D01*
X18319820Y2052500D01*
X18315890Y2100120D01*
X18304080Y2142460D01*
X18288330Y2174210D01*
X18264700Y2200670D01*
X18233210Y2211250D01*
G01X18548170D02*
X18516670Y2200670D01*
X18493050Y2174210D01*
X18477300Y2142460D01*
X18465490Y2100120D01*
X18461560Y2052500D01*
X18465490Y2004870D01*
X18477300Y1962540D01*
X18493050Y1930780D01*
X18516670Y1904330D01*
X18548170Y1893750D01*
X18579660Y1904330D01*
X18603290Y1930780D01*
X18619040Y1962540D01*
X18630850Y2004870D01*
X18634780Y2052500D01*
X18630850Y2100120D01*
X18619040Y2142460D01*
X18603290Y2174210D01*
X18579660Y2200670D01*
X18548170Y2211250D01*
G01X18863130D02*
X18831630Y2200670D01*
X18808010Y2174210D01*
X18792260Y2142460D01*
X18780450Y2100120D01*
X18776520Y2052500D01*
X18780450Y2004870D01*
X18792260Y1962540D01*
X18808010Y1930780D01*
X18831630Y1904330D01*
X18863130Y1893750D01*
X18894620Y1904330D01*
X18918250Y1930780D01*
X18934000Y1962540D01*
X18945810Y2004870D01*
X18949740Y2052500D01*
X18945810Y2100120D01*
X18934000Y2142460D01*
X18918250Y2174210D01*
X18894620Y2200670D01*
X18863130Y2211250D01*
G01X16894630Y7608750D02*
Y7926250D01*
X16993050D01*
X17024550Y7910370D01*
X17044240Y7889210D01*
X17052110Y7846870D01*
X17044240Y7804540D01*
X17020610Y7778090D01*
X16993050Y7762200D01*
X16894630D01*
G01X16993050D02*
X17052110Y7608750D01*
G01X17288330D02*
X17256830Y7614040D01*
X17229280Y7635200D01*
X17205650Y7666960D01*
X17189900Y7704000D01*
X17182030Y7746330D01*
Y7788670D01*
X17189900Y7831000D01*
X17205650Y7868040D01*
X17229280Y7899790D01*
X17256830Y7920960D01*
X17288330Y7926250D01*
X17319820Y7920960D01*
X17347380Y7899790D01*
X17371010Y7868040D01*
X17386760Y7831000D01*
X17394630Y7788670D01*
Y7746330D01*
X17386760Y7704000D01*
X17371010Y7666960D01*
X17347380Y7635200D01*
X17319820Y7614040D01*
X17288330Y7608750D01*
G01X17603290Y7926250D02*
Y7608750D01*
G01X17512740Y7926250D02*
X17693840D01*
G01X17819820Y7608750D02*
X17918250Y7926250D01*
X18016680Y7608750D01*
G01X17981240Y7719870D02*
X17855250D01*
G01X18233210Y7926250D02*
Y7608750D01*
G01X18142660Y7926250D02*
X18323760D01*
G01X18500930D02*
X18595410D01*
G01X18548170D02*
Y7608750D01*
G01X18500930D02*
X18595410D01*
G01X18863130D02*
X18831630Y7614040D01*
X18804080Y7635200D01*
X18780450Y7666960D01*
X18764700Y7704000D01*
X18756830Y7746330D01*
Y7788670D01*
X18764700Y7831000D01*
X18780450Y7868040D01*
X18804080Y7899790D01*
X18831630Y7920960D01*
X18863130Y7926250D01*
X18894620Y7920960D01*
X18922180Y7899790D01*
X18945810Y7868040D01*
X18961560Y7831000D01*
X18969430Y7788670D01*
Y7746330D01*
X18961560Y7704000D01*
X18945810Y7666960D01*
X18922180Y7635200D01*
X18894620Y7614040D01*
X18863130Y7608750D01*
G01X19087540D02*
Y7926250D01*
X19268640Y7608750D01*
Y7926250D01*
G01X17445810Y306250D02*
X17414310Y295670D01*
X17390690Y269210D01*
X17374940Y237460D01*
X17363130Y195120D01*
X17359200Y147500D01*
X17363130Y99870D01*
X17374940Y57540D01*
X17390690Y25780D01*
X17414310Y-670D01*
X17445810Y-11250D01*
X17477300Y-670D01*
X17500930Y25780D01*
X17516680Y57540D01*
X17528490Y99870D01*
X17532420Y147500D01*
X17528490Y195120D01*
X17516680Y237460D01*
X17500930Y269210D01*
X17477300Y295670D01*
X17445810Y306250D01*
G01X17760770Y-21830D02*
X17752890Y-16540D01*
Y-5960D01*
X17760770Y-670D01*
X17768650Y-5960D01*
Y-16540D01*
X17760770Y-21830D01*
G01X18075730Y306250D02*
X18044230Y295670D01*
X18020610Y269210D01*
X18004860Y237460D01*
X17993050Y195120D01*
X17989120Y147500D01*
X17993050Y99870D01*
X18004860Y57540D01*
X18020610Y25780D01*
X18044230Y-670D01*
X18075730Y-11250D01*
X18107220Y-670D01*
X18130850Y25780D01*
X18146600Y57540D01*
X18158410Y99870D01*
X18162340Y147500D01*
X18158410Y195120D01*
X18146600Y237460D01*
X18130850Y269210D01*
X18107220Y295670D01*
X18075730Y306250D01*
G01X18390690D02*
X18359190Y295670D01*
X18335570Y269210D01*
X18319820Y237460D01*
X18308010Y195120D01*
X18304080Y147500D01*
X18308010Y99870D01*
X18319820Y57540D01*
X18335570Y25780D01*
X18359190Y-670D01*
X18390690Y-11250D01*
X18422180Y-670D01*
X18445810Y25780D01*
X18461560Y57540D01*
X18473370Y99870D01*
X18477300Y147500D01*
X18473370Y195120D01*
X18461560Y237460D01*
X18445810Y269210D01*
X18422180Y295670D01*
X18390690Y306250D01*
G01X18705650D02*
X18674150Y295670D01*
X18650530Y269210D01*
X18634780Y237460D01*
X18622970Y195120D01*
X18619040Y147500D01*
X18622970Y99870D01*
X18634780Y57540D01*
X18650530Y25780D01*
X18674150Y-670D01*
X18705650Y-11250D01*
X18737140Y-670D01*
X18760770Y25780D01*
X18776520Y57540D01*
X18788330Y99870D01*
X18792260Y147500D01*
X18788330Y195120D01*
X18776520Y237460D01*
X18760770Y269210D01*
X18737140Y295670D01*
X18705650Y306250D01*
G01X18024550Y2634580D02*
X18126910D01*
G01X18024550Y3269580D02*
X18126910D01*
G01X18024550Y3904580D02*
X18126910D01*
G01X18024550Y4539580D02*
X18126910D01*
G01X18024550Y5174580D02*
X18126910D01*
G01X18024550Y5809580D02*
X18126910D01*
G01X18024550Y6444580D02*
X18126910D01*
G01X18024550Y7079580D02*
X18126910D01*
G01X19018070Y-328750D02*
Y-646250D01*
G01X18927520Y-328750D02*
X19108620D01*
G01X19333030Y-646250D02*
X19301530Y-640960D01*
X19273980Y-619800D01*
X19250350Y-588040D01*
X19234600Y-551000D01*
X19226730Y-508670D01*
Y-466330D01*
X19234600Y-424000D01*
X19250350Y-386960D01*
X19273980Y-355210D01*
X19301530Y-334040D01*
X19333030Y-328750D01*
X19364520Y-334040D01*
X19392080Y-355210D01*
X19415710Y-386960D01*
X19431460Y-424000D01*
X19439330Y-466330D01*
Y-508670D01*
X19431460Y-551000D01*
X19415710Y-588040D01*
X19392080Y-619800D01*
X19364520Y-640960D01*
X19333030Y-646250D01*
G01X19647990Y-328750D02*
Y-646250D01*
G01X19557440Y-328750D02*
X19738540D01*
G01X19864520Y-646250D02*
X19962950Y-328750D01*
X20061380Y-646250D01*
G01X20025940Y-535130D02*
X19899950D01*
G01X20199170Y-328750D02*
Y-646250D01*
X20356650D01*
G01X20825150D02*
Y-328750D01*
G01X20990510D02*
Y-646250D01*
G01Y-487500D02*
X20825150D01*
G01X21222790Y-646250D02*
X21191290Y-640960D01*
X21163740Y-619800D01*
X21140110Y-588040D01*
X21124360Y-551000D01*
X21116490Y-508670D01*
Y-466330D01*
X21124360Y-424000D01*
X21140110Y-386960D01*
X21163740Y-355210D01*
X21191290Y-334040D01*
X21222790Y-328750D01*
X21254280Y-334040D01*
X21281840Y-355210D01*
X21305470Y-386960D01*
X21321220Y-424000D01*
X21329090Y-466330D01*
Y-508670D01*
X21321220Y-551000D01*
X21305470Y-588040D01*
X21281840Y-619800D01*
X21254280Y-640960D01*
X21222790Y-646250D01*
G01X21459010Y-328750D02*
Y-646250D01*
X21616490D01*
G01X21931450D02*
X21773970D01*
Y-328750D01*
X21931450D01*
G01X21868460Y-482200D02*
X21773970D01*
G01X22084990Y-603930D02*
X22116490Y-630380D01*
X22151920Y-646250D01*
X22183420D01*
X22214910Y-630380D01*
X22238540Y-603930D01*
X22250350Y-566870D01*
X22242480Y-529840D01*
X22222790Y-498090D01*
X22187350Y-476910D01*
X22140110Y-466330D01*
X22112550Y-445170D01*
X22100740Y-408130D01*
X22108620Y-371080D01*
X22128300Y-344630D01*
X22155860Y-328750D01*
X22183420D01*
X22210980Y-339330D01*
X22234600Y-365790D01*
G01X22482630Y-656830D02*
X22474750Y-651540D01*
Y-640960D01*
X22482630Y-635670D01*
X22490510Y-640960D01*
Y-651540D01*
X22482630Y-656830D01*
G01Y-513970D02*
X22474750Y-508670D01*
Y-498090D01*
X22482630Y-492800D01*
X22490510Y-498090D01*
Y-508670D01*
X22482630Y-513970D01*
G01X20437930Y-11250D02*
Y306250D01*
X20532420D01*
X20563910Y290370D01*
X20587540Y253330D01*
X20595410Y211000D01*
X20587540Y168670D01*
X20567850Y136910D01*
X20532420Y121030D01*
X20437930D01*
G01X20752890Y306250D02*
Y-11250D01*
X20910370D01*
G01X21048160D02*
X21146590Y306250D01*
X21245020Y-11250D01*
G01X21209580Y99870D02*
X21083590D01*
G01X21461550Y306250D02*
Y-11250D01*
G01X21371000Y306250D02*
X21552100D01*
G01X21855250Y-11250D02*
X21697770D01*
Y306250D01*
X21855250D01*
G01X21792260Y152800D02*
X21697770D01*
G01X22004860Y-11250D02*
Y306250D01*
X22083590D01*
X22115090Y290370D01*
X22138710Y269210D01*
X22158400Y237460D01*
X22174150Y200410D01*
X22178080Y147500D01*
X22174150Y94580D01*
X22158400Y57540D01*
X22138710Y25780D01*
X22115090Y4620D01*
X22083590Y-11250D01*
X22004860D01*
G01X20437930Y623750D02*
Y941250D01*
X20532420D01*
X20563910Y925370D01*
X20587540Y888330D01*
X20595410Y846000D01*
X20587540Y803670D01*
X20567850Y771910D01*
X20532420Y756030D01*
X20437930D01*
G01X20752890Y941250D02*
Y623750D01*
X20910370D01*
G01X21048160D02*
X21146590Y941250D01*
X21245020Y623750D01*
G01X21209580Y734870D02*
X21083590D01*
G01X21461550Y941250D02*
Y623750D01*
G01X21371000Y941250D02*
X21552100D01*
G01X21855250Y623750D02*
X21697770D01*
Y941250D01*
X21855250D01*
G01X21792260Y787800D02*
X21697770D01*
G01X22004860Y623750D02*
Y941250D01*
X22083590D01*
X22115090Y925370D01*
X22138710Y904210D01*
X22158400Y872460D01*
X22174150Y835410D01*
X22178080Y782500D01*
X22174150Y729580D01*
X22158400Y692540D01*
X22138710Y660780D01*
X22115090Y639620D01*
X22083590Y623750D01*
X22004860D01*
G01X20437930Y1258750D02*
Y1576250D01*
X20532420D01*
X20563910Y1560370D01*
X20587540Y1523330D01*
X20595410Y1481000D01*
X20587540Y1438670D01*
X20567850Y1406910D01*
X20532420Y1391030D01*
X20437930D01*
G01X20752890Y1576250D02*
Y1258750D01*
X20910370D01*
G01X21048160D02*
X21146590Y1576250D01*
X21245020Y1258750D01*
G01X21209580Y1369870D02*
X21083590D01*
G01X21461550Y1576250D02*
Y1258750D01*
G01X21371000Y1576250D02*
X21552100D01*
G01X21855250Y1258750D02*
X21697770D01*
Y1576250D01*
X21855250D01*
G01X21792260Y1422800D02*
X21697770D01*
G01X22004860Y1258750D02*
Y1576250D01*
X22083590D01*
X22115090Y1560370D01*
X22138710Y1539210D01*
X22158400Y1507460D01*
X22174150Y1470410D01*
X22178080Y1417500D01*
X22174150Y1364580D01*
X22158400Y1327540D01*
X22138710Y1295780D01*
X22115090Y1274620D01*
X22083590Y1258750D01*
X22004860D01*
G01X20437930Y1893750D02*
Y2211250D01*
X20532420D01*
X20563910Y2195370D01*
X20587540Y2158330D01*
X20595410Y2116000D01*
X20587540Y2073670D01*
X20567850Y2041910D01*
X20532420Y2026030D01*
X20437930D01*
G01X20752890Y2211250D02*
Y1893750D01*
X20910370D01*
G01X21048160D02*
X21146590Y2211250D01*
X21245020Y1893750D01*
G01X21209580Y2004870D02*
X21083590D01*
G01X21461550Y2211250D02*
Y1893750D01*
G01X21371000Y2211250D02*
X21552100D01*
G01X21855250Y1893750D02*
X21697770D01*
Y2211250D01*
X21855250D01*
G01X21792260Y2057800D02*
X21697770D01*
G01X22004860Y1893750D02*
Y2211250D01*
X22083590D01*
X22115090Y2195370D01*
X22138710Y2174210D01*
X22158400Y2142460D01*
X22174150Y2105410D01*
X22178080Y2052500D01*
X22174150Y1999580D01*
X22158400Y1962540D01*
X22138710Y1930780D01*
X22115090Y1909620D01*
X22083590Y1893750D01*
X22004860D01*
G01X20437930Y2528750D02*
Y2846250D01*
X20532420D01*
X20563910Y2830370D01*
X20587540Y2793330D01*
X20595410Y2751000D01*
X20587540Y2708670D01*
X20567850Y2676910D01*
X20532420Y2661030D01*
X20437930D01*
G01X20752890Y2846250D02*
Y2528750D01*
X20910370D01*
G01X21048160D02*
X21146590Y2846250D01*
X21245020Y2528750D01*
G01X21209580Y2639870D02*
X21083590D01*
G01X21461550Y2846250D02*
Y2528750D01*
G01X21371000Y2846250D02*
X21552100D01*
G01X21855250Y2528750D02*
X21697770D01*
Y2846250D01*
X21855250D01*
G01X21792260Y2692800D02*
X21697770D01*
G01X22004860Y2528750D02*
Y2846250D01*
X22083590D01*
X22115090Y2830370D01*
X22138710Y2809210D01*
X22158400Y2777460D01*
X22174150Y2740410D01*
X22178080Y2687500D01*
X22174150Y2634580D01*
X22158400Y2597540D01*
X22138710Y2565780D01*
X22115090Y2544620D01*
X22083590Y2528750D01*
X22004860D01*
G01X20437930Y3163750D02*
Y3481250D01*
X20532420D01*
X20563910Y3465370D01*
X20587540Y3428330D01*
X20595410Y3386000D01*
X20587540Y3343670D01*
X20567850Y3311910D01*
X20532420Y3296030D01*
X20437930D01*
G01X20752890Y3481250D02*
Y3163750D01*
X20910370D01*
G01X21048160D02*
X21146590Y3481250D01*
X21245020Y3163750D01*
G01X21209580Y3274870D02*
X21083590D01*
G01X21461550Y3481250D02*
Y3163750D01*
G01X21371000Y3481250D02*
X21552100D01*
G01X21855250Y3163750D02*
X21697770D01*
Y3481250D01*
X21855250D01*
G01X21792260Y3327800D02*
X21697770D01*
G01X22004860Y3163750D02*
Y3481250D01*
X22083590D01*
X22115090Y3465370D01*
X22138710Y3444210D01*
X22158400Y3412460D01*
X22174150Y3375410D01*
X22178080Y3322500D01*
X22174150Y3269580D01*
X22158400Y3232540D01*
X22138710Y3200780D01*
X22115090Y3179620D01*
X22083590Y3163750D01*
X22004860D01*
G01X20437930Y3798750D02*
Y4116250D01*
X20532420D01*
X20563910Y4100370D01*
X20587540Y4063330D01*
X20595410Y4021000D01*
X20587540Y3978670D01*
X20567850Y3946910D01*
X20532420Y3931030D01*
X20437930D01*
G01X20752890Y4116250D02*
Y3798750D01*
X20910370D01*
G01X21048160D02*
X21146590Y4116250D01*
X21245020Y3798750D01*
G01X21209580Y3909870D02*
X21083590D01*
G01X21461550Y4116250D02*
Y3798750D01*
G01X21371000Y4116250D02*
X21552100D01*
G01X21855250Y3798750D02*
X21697770D01*
Y4116250D01*
X21855250D01*
G01X21792260Y3962800D02*
X21697770D01*
G01X22004860Y3798750D02*
Y4116250D01*
X22083590D01*
X22115090Y4100370D01*
X22138710Y4079210D01*
X22158400Y4047460D01*
X22174150Y4010410D01*
X22178080Y3957500D01*
X22174150Y3904580D01*
X22158400Y3867540D01*
X22138710Y3835780D01*
X22115090Y3814620D01*
X22083590Y3798750D01*
X22004860D01*
G01X20437930Y4433750D02*
Y4751250D01*
X20532420D01*
X20563910Y4735370D01*
X20587540Y4698330D01*
X20595410Y4656000D01*
X20587540Y4613670D01*
X20567850Y4581910D01*
X20532420Y4566030D01*
X20437930D01*
G01X20752890Y4751250D02*
Y4433750D01*
X20910370D01*
G01X21048160D02*
X21146590Y4751250D01*
X21245020Y4433750D01*
G01X21209580Y4544870D02*
X21083590D01*
G01X21461550Y4751250D02*
Y4433750D01*
G01X21371000Y4751250D02*
X21552100D01*
G01X21855250Y4433750D02*
X21697770D01*
Y4751250D01*
X21855250D01*
G01X21792260Y4597800D02*
X21697770D01*
G01X22004860Y4433750D02*
Y4751250D01*
X22083590D01*
X22115090Y4735370D01*
X22138710Y4714210D01*
X22158400Y4682460D01*
X22174150Y4645410D01*
X22178080Y4592500D01*
X22174150Y4539580D01*
X22158400Y4502540D01*
X22138710Y4470780D01*
X22115090Y4449620D01*
X22083590Y4433750D01*
X22004860D01*
G01X20437930Y5068750D02*
Y5386250D01*
X20532420D01*
X20563910Y5370370D01*
X20587540Y5333330D01*
X20595410Y5291000D01*
X20587540Y5248670D01*
X20567850Y5216910D01*
X20532420Y5201030D01*
X20437930D01*
G01X20752890Y5386250D02*
Y5068750D01*
X20910370D01*
G01X21048160D02*
X21146590Y5386250D01*
X21245020Y5068750D01*
G01X21209580Y5179870D02*
X21083590D01*
G01X21461550Y5386250D02*
Y5068750D01*
G01X21371000Y5386250D02*
X21552100D01*
G01X21855250Y5068750D02*
X21697770D01*
Y5386250D01*
X21855250D01*
G01X21792260Y5232800D02*
X21697770D01*
G01X22004860Y5068750D02*
Y5386250D01*
X22083590D01*
X22115090Y5370370D01*
X22138710Y5349210D01*
X22158400Y5317460D01*
X22174150Y5280410D01*
X22178080Y5227500D01*
X22174150Y5174580D01*
X22158400Y5137540D01*
X22138710Y5105780D01*
X22115090Y5084620D01*
X22083590Y5068750D01*
X22004860D01*
G01X20437930Y5703750D02*
Y6021250D01*
X20532420D01*
X20563910Y6005370D01*
X20587540Y5968330D01*
X20595410Y5926000D01*
X20587540Y5883670D01*
X20567850Y5851910D01*
X20532420Y5836030D01*
X20437930D01*
G01X20752890Y6021250D02*
Y5703750D01*
X20910370D01*
G01X21048160D02*
X21146590Y6021250D01*
X21245020Y5703750D01*
G01X21209580Y5814870D02*
X21083590D01*
G01X21461550Y6021250D02*
Y5703750D01*
G01X21371000Y6021250D02*
X21552100D01*
G01X21855250Y5703750D02*
X21697770D01*
Y6021250D01*
X21855250D01*
G01X21792260Y5867800D02*
X21697770D01*
G01X22004860Y5703750D02*
Y6021250D01*
X22083590D01*
X22115090Y6005370D01*
X22138710Y5984210D01*
X22158400Y5952460D01*
X22174150Y5915410D01*
X22178080Y5862500D01*
X22174150Y5809580D01*
X22158400Y5772540D01*
X22138710Y5740780D01*
X22115090Y5719620D01*
X22083590Y5703750D01*
X22004860D01*
G01X20437930Y6338750D02*
Y6656250D01*
X20532420D01*
X20563910Y6640370D01*
X20587540Y6603330D01*
X20595410Y6561000D01*
X20587540Y6518670D01*
X20567850Y6486910D01*
X20532420Y6471030D01*
X20437930D01*
G01X20752890Y6656250D02*
Y6338750D01*
X20910370D01*
G01X21048160D02*
X21146590Y6656250D01*
X21245020Y6338750D01*
G01X21209580Y6449870D02*
X21083590D01*
G01X21461550Y6656250D02*
Y6338750D01*
G01X21371000Y6656250D02*
X21552100D01*
G01X21855250Y6338750D02*
X21697770D01*
Y6656250D01*
X21855250D01*
G01X21792260Y6502800D02*
X21697770D01*
G01X22004860Y6338750D02*
Y6656250D01*
X22083590D01*
X22115090Y6640370D01*
X22138710Y6619210D01*
X22158400Y6587460D01*
X22174150Y6550410D01*
X22178080Y6497500D01*
X22174150Y6444580D01*
X22158400Y6407540D01*
X22138710Y6375780D01*
X22115090Y6354620D01*
X22083590Y6338750D01*
X22004860D01*
G01X20437930Y6973750D02*
Y7291250D01*
X20532420D01*
X20563910Y7275370D01*
X20587540Y7238330D01*
X20595410Y7196000D01*
X20587540Y7153670D01*
X20567850Y7121910D01*
X20532420Y7106030D01*
X20437930D01*
G01X20752890Y7291250D02*
Y6973750D01*
X20910370D01*
G01X21048160D02*
X21146590Y7291250D01*
X21245020Y6973750D01*
G01X21209580Y7084870D02*
X21083590D01*
G01X21461550Y7291250D02*
Y6973750D01*
G01X21371000Y7291250D02*
X21552100D01*
G01X21855250Y6973750D02*
X21697770D01*
Y7291250D01*
X21855250D01*
G01X21792260Y7137800D02*
X21697770D01*
G01X22004860Y6973750D02*
Y7291250D01*
X22083590D01*
X22115090Y7275370D01*
X22138710Y7254210D01*
X22158400Y7222460D01*
X22174150Y7185410D01*
X22178080Y7132500D01*
X22174150Y7079580D01*
X22158400Y7042540D01*
X22138710Y7010780D01*
X22115090Y6989620D01*
X22083590Y6973750D01*
X22004860D01*
G01X20437930Y7608750D02*
Y7926250D01*
X20532420D01*
X20563910Y7910370D01*
X20587540Y7873330D01*
X20595410Y7831000D01*
X20587540Y7788670D01*
X20567850Y7756910D01*
X20532420Y7741030D01*
X20437930D01*
G01X20752890Y7926250D02*
Y7608750D01*
X20910370D01*
G01X21048160D02*
X21146590Y7926250D01*
X21245020Y7608750D01*
G01X21209580Y7719870D02*
X21083590D01*
G01X21461550Y7926250D02*
Y7608750D01*
G01X21371000Y7926250D02*
X21552100D01*
G01X21855250Y7608750D02*
X21697770D01*
Y7926250D01*
X21855250D01*
G01X21792260Y7772800D02*
X21697770D01*
G01X22004860Y7608750D02*
Y7926250D01*
X22083590D01*
X22115090Y7910370D01*
X22138710Y7889210D01*
X22158400Y7857460D01*
X22174150Y7820410D01*
X22178080Y7767500D01*
X22174150Y7714580D01*
X22158400Y7677540D01*
X22138710Y7645780D01*
X22115090Y7624620D01*
X22083590Y7608750D01*
X22004860D01*
G01X23512720Y-381670D02*
X23536350Y-349920D01*
X23563910Y-334040D01*
X23595410Y-328750D01*
X23634770Y-339330D01*
X23662340Y-365790D01*
X23670210Y-397540D01*
X23666270Y-429300D01*
X23650520Y-455750D01*
X23571780Y-508670D01*
X23536350Y-545710D01*
X23512720Y-598640D01*
X23504850Y-646250D01*
X23670210D01*
G01X23894610D02*
X23902490Y-577460D01*
X23914300Y-519260D01*
X23930050Y-466330D01*
X23949730Y-408130D01*
X23981230Y-328750D01*
X23823750D01*
G01X24142640Y-513970D02*
X24170210Y-476910D01*
X24193830Y-455750D01*
X24225330Y-445170D01*
X24252890Y-455750D01*
X24272570Y-476910D01*
X24288320Y-508670D01*
X24292260Y-545710D01*
X24288320Y-577460D01*
X24272570Y-609220D01*
X24248940Y-635670D01*
X24221390Y-646250D01*
X24189890Y-635670D01*
X24162330Y-603930D01*
X24146580Y-556290D01*
X24142640Y-503380D01*
X24150520Y-434590D01*
X24162330Y-397540D01*
X24182010Y-360500D01*
X24209570Y-334040D01*
X24237130Y-328750D01*
X24264690Y-339330D01*
X24284380Y-365790D01*
G01X23745010Y5703750D02*
Y6021250D01*
X23697770Y5957750D01*
G01Y5703750D02*
X23792250D01*
G01X23973360Y5767250D02*
X23996970Y5730200D01*
X24028470Y5709040D01*
X24063910Y5703750D01*
X24095410Y5709040D01*
X24126900Y5735490D01*
X24146580Y5767250D01*
X24150520Y5799000D01*
X24142650Y5836030D01*
X24115090Y5862500D01*
X24087530Y5873090D01*
X24052090D01*
G01X24087530D02*
X24111150Y5888960D01*
X24130840Y5915410D01*
X24138710Y5947160D01*
X24130840Y5978920D01*
X24111150Y6005370D01*
X24075720Y6021250D01*
X24040290Y6015960D01*
X24004850Y5994790D01*
G01X23670200Y6603330D02*
X23693830Y6635080D01*
X23721390Y6650960D01*
X23752890Y6656250D01*
X23792250Y6645670D01*
X23819820Y6619210D01*
X23827690Y6587460D01*
X23823750Y6555700D01*
X23808000Y6529250D01*
X23729260Y6476330D01*
X23693830Y6439290D01*
X23670200Y6386360D01*
X23662330Y6338750D01*
X23827690D01*
G01X23973360Y6386360D02*
X23996970Y6359910D01*
X24024530Y6344040D01*
X24059970Y6338750D01*
X24095410Y6349330D01*
X24122960Y6370490D01*
X24142650Y6407540D01*
X24146580Y6449870D01*
X24138710Y6492200D01*
X24119020Y6518670D01*
X24091460Y6539830D01*
X24063910Y6545120D01*
X24036350Y6539830D01*
X24000920Y6518670D01*
X24012730Y6656250D01*
X24119020D01*
G01X23512720Y7238330D02*
X23536350Y7270080D01*
X23563910Y7285960D01*
X23595410Y7291250D01*
X23634770Y7280670D01*
X23662340Y7254210D01*
X23670210Y7222460D01*
X23666270Y7190700D01*
X23650520Y7164250D01*
X23571780Y7111330D01*
X23536350Y7074290D01*
X23512720Y7021360D01*
X23504850Y6973750D01*
X23670210D01*
G01X23902490D02*
Y7291250D01*
X23855250Y7227750D01*
G01Y6973750D02*
X23949730D01*
G01X24142640Y7238330D02*
X24166270Y7270080D01*
X24193830Y7285960D01*
X24225330Y7291250D01*
X24264690Y7280670D01*
X24292260Y7254210D01*
X24300130Y7222460D01*
X24296190Y7190700D01*
X24280440Y7164250D01*
X24201700Y7111330D01*
X24166270Y7074290D01*
X24142640Y7021360D01*
X24134770Y6973750D01*
X24300130D01*
G01X23587530Y7608750D02*
X23556030Y7614040D01*
X23528480Y7635200D01*
X23504850Y7666960D01*
X23489100Y7704000D01*
X23481230Y7746330D01*
Y7788670D01*
X23489100Y7831000D01*
X23504850Y7868040D01*
X23528480Y7899790D01*
X23556030Y7920960D01*
X23587530Y7926250D01*
X23619020Y7920960D01*
X23646580Y7899790D01*
X23670210Y7868040D01*
X23685960Y7831000D01*
X23693830Y7788670D01*
Y7746330D01*
X23685960Y7704000D01*
X23670210Y7666960D01*
X23646580Y7635200D01*
X23619020Y7614040D01*
X23587530Y7608750D01*
G01X23619020Y7693420D02*
X23666270Y7608750D01*
G01X23902490Y7926250D02*
Y7608750D01*
G01X23811940Y7926250D02*
X23993040D01*
G01X24217450Y7608750D02*
Y7751620D01*
X24138710Y7926250D01*
G01X24296190D02*
X24217450Y7751620D01*
G01X23902490Y-11250D02*
Y306250D01*
X23855250Y242750D01*
G01Y-11250D02*
X23949730D01*
G01X23827680Y888330D02*
X23851310Y920080D01*
X23878870Y935960D01*
X23910370Y941250D01*
X23949730Y930670D01*
X23977300Y904210D01*
X23985170Y872460D01*
X23981230Y840700D01*
X23965480Y814250D01*
X23886740Y761330D01*
X23851310Y724290D01*
X23827680Y671360D01*
X23819810Y623750D01*
X23985170D01*
G01X23827680Y1523330D02*
X23851310Y1555080D01*
X23878870Y1570960D01*
X23910370Y1576250D01*
X23949730Y1565670D01*
X23977300Y1539210D01*
X23985170Y1507460D01*
X23981230Y1475700D01*
X23965480Y1449250D01*
X23886740Y1396330D01*
X23851310Y1359290D01*
X23827680Y1306360D01*
X23819810Y1258750D01*
X23985170D01*
G01X23827680Y2158330D02*
X23851310Y2190080D01*
X23878870Y2205960D01*
X23910370Y2211250D01*
X23949730Y2200670D01*
X23977300Y2174210D01*
X23985170Y2142460D01*
X23981230Y2110700D01*
X23965480Y2084250D01*
X23886740Y2031330D01*
X23851310Y1994290D01*
X23827680Y1941360D01*
X23819810Y1893750D01*
X23985170D01*
G01X23949730Y2528750D02*
Y2846250D01*
X23804060Y2618710D01*
X24000920D01*
G01X23815880Y3227250D02*
X23839490Y3190200D01*
X23870990Y3169040D01*
X23906430Y3163750D01*
X23937930Y3169040D01*
X23969420Y3195490D01*
X23989100Y3227250D01*
X23993040Y3259000D01*
X23985170Y3296030D01*
X23957610Y3322500D01*
X23930050Y3333090D01*
X23894610D01*
G01X23930050D02*
X23953670Y3348960D01*
X23973360Y3375410D01*
X23981230Y3407160D01*
X23973360Y3438920D01*
X23953670Y3465370D01*
X23918240Y3481250D01*
X23882810Y3475960D01*
X23847370Y3454790D01*
G01X23949730Y3798750D02*
Y4116250D01*
X23804060Y3888710D01*
X24000920D01*
G01X23949730Y4433750D02*
Y4751250D01*
X23804060Y4523710D01*
X24000920D01*
G01X23949730Y5068750D02*
Y5386250D01*
X23804060Y5158710D01*
X24000920D01*
G01X-250000Y0D02*
X-1670000D01*
G01X-1482500Y400000D02*
X-1420000Y0D01*
X-1357500Y400000D01*
X-1482500D01*
G01X-1357500Y5000000D02*
X-1420000Y5400000D01*
X-1482500Y5000000D01*
X-1357500D01*
G01X790000Y5400000D02*
X-1670000D01*
G01X-250000Y0D02*
X-1200000D01*
G01X-1420000Y2354260D02*
Y0D01*
G01Y2845740D02*
Y5400000D01*
G01X110000Y5040000D02*
X-1200000D01*
G01X-587500Y-400000D02*
X-650000Y0D01*
X-712500Y-400000D01*
X-587500D01*
G01X-250000Y0D02*
X-900000D01*
G01X-950000Y1844260D02*
Y0D01*
G01X-1012500Y400000D02*
X-950000Y0D01*
X-887500Y400000D01*
X-1012500D01*
G01X-800000Y-230000D02*
X0D01*
G01X110000Y360000D02*
X-900000D01*
G01X-712500Y760000D02*
X-650000Y360000D01*
X-587500Y760000D01*
X-712500D01*
G01X-950000Y2335740D02*
Y5040000D01*
G01X-887500Y4640000D02*
X-950000Y5040000D01*
X-1012500Y4640000D01*
X-887500D01*
G01X-650000Y-800000D02*
Y0D01*
G01X-400000Y-292500D02*
X0Y-230000D01*
X-400000Y-167500D01*
Y-292500D01*
G01X-650000Y674260D02*
Y360000D01*
G01X0Y-250000D02*
Y-1280000D01*
G01X3683140Y-1030000D02*
X0D01*
G01X400000Y-967500D02*
X0Y-1030000D01*
X400000Y-1092500D01*
Y-967500D01*
G01X0Y-250000D02*
Y-860000D01*
G01Y-250000D02*
Y-480000D01*
G01X3012640Y-610000D02*
X0D01*
G01X400000Y-547500D02*
X0Y-610000D01*
X400000Y-672500D01*
Y-547500D01*
G01X360000Y110000D02*
Y-480000D01*
G01X667890Y-230000D02*
X360000D01*
G01X760000Y-167500D02*
X360000Y-230000D01*
X760000Y-292500D01*
Y-167500D01*
G01X4027360Y-610000D02*
X8140000D01*
G01X4316860Y-1030000D02*
X8500000D01*
G01X7740000Y-672500D02*
X8140000Y-610000D01*
X7740000Y-547500D01*
Y-672500D01*
G01X8100000Y-1092500D02*
X8500000Y-1030000D01*
X8100000Y-967500D01*
Y-1092500D01*
G01X8140000Y110000D02*
Y-860000D01*
G01X8500000Y420000D02*
Y-1280000D01*
G01X9060000Y-170000D02*
Y9370000D01*
X24886740D01*
Y-170000D01*
X9060000D01*
G01Y465000D02*
X24886740D01*
G01X9060000Y1100000D02*
X24886740D01*
G01X9060000Y1735000D02*
X24886740D01*
G01X9060000Y2370000D02*
X24886740D01*
G01X9060000Y3005000D02*
X24886740D01*
G01X9060000Y3640000D02*
X24886740D01*
G01X9060000Y4275000D02*
X24886740D01*
G01X9060000Y4910000D02*
X24886740D01*
G01X9060000Y5545000D02*
X24886740D01*
G01X9060000Y6180000D02*
X24886740D01*
G01X9060000Y6815000D02*
X24886740D01*
G01X9060000Y7450000D02*
X24886740D01*
G01X9060000Y8085000D02*
X24886740D01*
G01X9060000Y8720000D02*
X24886740D01*
G01X11343460Y8085000D02*
Y-170000D01*
G01X16461560Y8085000D02*
Y-170000D01*
G01X19689900Y8085000D02*
Y-170000D01*
G01X22918240Y8085000D02*
Y-170000D01*
G54D13*
X800000Y2670000D03*
X1400000D03*
X10201730Y782500D03*
G54D14*
X1085000Y940000D03*
Y1420000D03*
Y1900000D03*
X10201730Y3322500D03*
G54D15*
X1120000Y2190000D03*
X10201730Y147500D03*
G54D16*
X1858000Y4774000D03*
X2722000D03*
X10201730Y1417500D03*
G54D17*
X1858000Y5192000D03*
X2722000D03*
X10201730Y2052500D03*
G54D18*
X3756000Y4516500D03*
X3883000Y4643500D03*
Y4516500D03*
X3756000Y4643500D03*
X4264000D03*
Y4516500D03*
X4137000Y4643500D03*
Y4516500D03*
X4010000Y4643500D03*
Y4516500D03*
X4970000Y4580000D03*
X5220000D03*
X5470000D03*
X10201730Y5862500D03*
G54D19*
X5895000Y5290000D03*
X6645000D03*
X6895000D03*
X7645000D03*
X10201730Y4592500D03*
M02*
