G04 ================== begin FILE IDENTIFICATION RECORD ==================*
G04 Layout Name:  TB67S109_V10_220218.brd*
G04 Film Name:    PasteMask_Top*
G04 File Format:  Gerber RS274X*
G04 File Origin:  Cadence Allegro 17.2-S071*
G04 Origin Date:  Tue Feb 22 12:04:58 2022*
G04 *
G04 Layer:  PIN/PASTEMASK_TOP*
G04 Layer:  PACKAGE GEOMETRY/PASTEMASK_TOP*
G04 *
G04 Offset:    (0.0000 0.0000)*
G04 Mirror:    No*
G04 Mode:      Positive*
G04 Rotation:  0*
G04 FullContactRelief:  No*
G04 UndefLineWidth:     0.1524*
G04 ================== end FILE IDENTIFICATION RECORD ====================*
%FSLAX55Y55*MOMM*%
%IR0*IPPOS*OFA0.00000B0.00000*MIA0B0*SFA1.00000B1.00000*%
%ADD15R,1.2X.3*%
%ADD21R,.3X1.2*%
%ADD27R,.5X2.*%
%ADD23R,1.1X.7*%
%ADD17R,1.1X.6*%
%ADD19R,.7X1.1*%
%ADD16R,.6X1.2*%
%ADD24R,.8X1.4*%
%ADD26C,.75*%
%ADD20R,.7X.7*%
%ADD18R,.8X.8*%
%ADD29R,1.4X1.2*%
%ADD28R,1.5X2.5*%
%ADD14R,1.8X3.2*%
%ADD25R,1.8X1.6*%
%ADD22R,.5X.6*%
%ADD13R,.5X.7*%
%ADD12R,.6X.5*%
%ADD11R,1.6X1.8*%
%ADD30R,.8X.25*%
%ADD31R,.25X.8*%
%ADD10C,6.9*%
%ADD32R,5.6X5.6*%
%LPD*%
G75*
G54D10*
X360000Y360000D03*
Y5040000D03*
X8140000Y360000D03*
Y5040000D03*
G54D11*
X1310000Y390000D03*
X1640000Y670000D03*
X1360000D03*
X1690000Y390000D03*
G54D20*
X2130000Y4180000D03*
X2350000Y4380000D03*
X2130000D03*
X3040000Y2200000D03*
X3240000Y1980000D03*
Y2200000D03*
G54D30*
X6300000Y2485000D03*
Y2535000D03*
Y2585000D03*
Y2635000D03*
Y2685000D03*
Y2735000D03*
Y2785000D03*
Y2835000D03*
Y2885000D03*
Y2935000D03*
Y2985000D03*
Y3035000D03*
X7000000Y2735000D03*
Y2685000D03*
Y2635000D03*
Y2585000D03*
Y2535000D03*
Y2485000D03*
Y3035000D03*
Y2985000D03*
Y2935000D03*
Y2885000D03*
Y2835000D03*
Y2785000D03*
G54D12*
X1620000Y4885000D03*
Y4975000D03*
X1500000Y4885000D03*
Y4975000D03*
X1920000Y4235000D03*
Y4325000D03*
X2370000Y725000D03*
Y815000D03*
X2250000Y725000D03*
Y815000D03*
X2550000Y4235000D03*
Y4325000D03*
X3000000Y1715000D03*
Y1805000D03*
X3120000D03*
Y1715000D03*
X3000000Y4975000D03*
Y4885000D03*
X3120000Y4975000D03*
Y4885000D03*
X3240000Y1715000D03*
Y1805000D03*
X3780000Y1115000D03*
Y1025000D03*
Y1235000D03*
Y1325000D03*
X3850000Y3485000D03*
Y3575000D03*
X4220000Y1945000D03*
Y1825000D03*
Y1735000D03*
Y2035000D03*
X4670000Y1025000D03*
Y1115000D03*
X4540000Y1025000D03*
Y1115000D03*
Y1235000D03*
Y1325000D03*
X4380000Y1945000D03*
Y2035000D03*
G54D21*
X2115000Y4670000D03*
X2165000D03*
X2215000D03*
X2265000D03*
X2315000D03*
X2365000D03*
X2415000D03*
X2465000D03*
X3885310Y2391850D03*
Y3241850D03*
X4235330Y2391850D03*
X4185310D03*
X4135330D03*
X4085310D03*
X4035330D03*
X3985310D03*
X3935330D03*
Y3241850D03*
X3985310D03*
X4035330D03*
X4085310D03*
X4135330D03*
X4185310D03*
X4235330D03*
X4435330Y2391850D03*
X4385310D03*
X4335330D03*
X4285310D03*
Y3241850D03*
X4335330D03*
X4385310D03*
X4435330D03*
G54D31*
X6525000Y2410000D03*
X6475000D03*
X6425000D03*
X6375000D03*
Y3110000D03*
X6425000D03*
X6475000D03*
X6525000D03*
X6925000Y2410000D03*
X6875000D03*
X6825000D03*
X6775000D03*
X6725000D03*
X6675000D03*
X6625000D03*
X6575000D03*
Y3110000D03*
X6625000D03*
X6675000D03*
X6725000D03*
X6775000D03*
X6825000D03*
X6875000D03*
X6925000D03*
G54D13*
X1520000Y5120000D03*
Y5280000D03*
X1600000Y5120000D03*
Y5280000D03*
X3020000Y5120000D03*
Y5280000D03*
X3100000Y5120000D03*
Y5280000D03*
G54D22*
X2615000Y1300000D03*
X2705000D03*
X2725000Y3780000D03*
Y4060000D03*
Y3920000D03*
X2815000Y3780000D03*
Y4060000D03*
Y3920000D03*
X3335000Y2500000D03*
X3425000D03*
Y2740000D03*
X3335000D03*
Y2990000D03*
X3425000D03*
X4175000Y730000D03*
X4265000D03*
X4945000Y3140000D03*
X4855000D03*
X5695000Y2680000D03*
X5785000D03*
X5995000Y2290000D03*
X5905000D03*
Y2550000D03*
X5995000D03*
Y2680000D03*
X5905000D03*
X5994780Y2420000D03*
X5904780D03*
X5995000Y2810000D03*
X5905000D03*
X5995000Y2950000D03*
X5905000D03*
X5994780Y3088400D03*
X5904780D03*
G54D32*
X6650000Y2760000D03*
G54D14*
X1990000Y440000D03*
X2630000D03*
X5970000Y2020000D03*
Y3500000D03*
X6610000Y2020000D03*
Y3500000D03*
G54D23*
X3060000Y1980000D03*
G54D24*
X3435000Y310000D03*
X3785000D03*
G54D15*
X1995320Y3820000D03*
Y3870000D03*
Y3920000D03*
Y3970000D03*
Y4020000D03*
X2485320Y3870000D03*
Y3820000D03*
Y4020000D03*
Y3970000D03*
Y3920000D03*
X3735320Y2541840D03*
Y2591860D03*
Y2641840D03*
Y2691860D03*
Y2741840D03*
Y2791860D03*
Y2841840D03*
Y2891860D03*
Y2941840D03*
Y2991860D03*
Y3041840D03*
Y3091860D03*
X4585320Y2741840D03*
Y2691860D03*
Y2641840D03*
Y2591860D03*
Y2541840D03*
Y3091860D03*
Y3041840D03*
Y2991860D03*
Y2941840D03*
Y2891860D03*
Y2841840D03*
Y2791860D03*
G54D25*
X3480000Y550000D03*
Y830000D03*
X3730000Y550000D03*
Y830000D03*
G54D16*
X1970000Y4670000D03*
X2050000D03*
X2530000D03*
X2610000D03*
G54D26*
X3390000Y1980000D03*
Y2200000D03*
X5080000Y620000D03*
G54D17*
X2180000Y1105000D03*
Y1200000D03*
Y1295000D03*
X2440000Y1105000D03*
Y1295000D03*
X4090000Y875000D03*
Y970000D03*
Y1065000D03*
X4350000Y875000D03*
Y1065000D03*
Y970000D03*
G54D18*
X2233800Y950000D03*
X2386200D03*
X4600000Y426200D03*
Y273800D03*
X4760000Y426200D03*
Y273800D03*
X4920000Y426200D03*
Y273800D03*
X5080000Y426200D03*
Y273800D03*
X5593800Y3088400D03*
X5746200D03*
X5833800Y3230000D03*
X5986200D03*
G54D27*
X3810000Y1990000D03*
X3930000D03*
X4050000D03*
G54D28*
X4035000Y430000D03*
X4405000D03*
G54D19*
X2350000Y4200000D03*
G54D29*
X6050000Y5090000D03*
X6490000D03*
X7050000D03*
X7490000D03*
M02*
