M48
METRIC,TZ
T01C.254
T02C.4572
T03C.6
T04C.9
T05C1.
T06C1.5
T07C1.6
T08C3.3
;LEADER: 12 
;HEADER: 
;CODE  : ASCII 
;FILE  : TB67S109_V10_220218-1-2.drl for board G:/github/MotorDriver/HARDWARE/TB67S109_V10_220218/PCB/#Taaaajl16252.tmp ... layers TOP and BOTTOM
;T01 Holesize 1. = 0.254000 Tolerance = +0.000000/-0.000000 PLATED MM Quantity = 212
;T02 Holesize 2. = 0.457200 Tolerance = +0.000000/-0.000000 PLATED MM Quantity = 25
;T03 Holesize 3. = 0.600000 Tolerance = +0.000000/-0.000000 PLATED MM Quantity = 13
;T04 Holesize 4. = 0.900000 Tolerance = +0.000000/-0.000000 PLATED MM Quantity = 4
;T05 Holesize 5. = 1.000000 Tolerance = +0.000000/-0.000000 PLATED MM Quantity = 4
;T06 Holesize 6. = 1.500000 Tolerance = +0.000000/-0.000000 PLATED MM Quantity = 4
;T07 Holesize 7. = 1.600000 Tolerance = +0.000000/-0.000000 PLATED MM Quantity = 3
;T08 Holesize 8. = 3.300000 Tolerance = +0.000000/-0.000000 PLATED MM Quantity = 4
%
G90
T01
X1109610Y140650
X1509610Y140650
X1899610Y130650
X1980000Y730000
X2299610Y130650
X2739610Y120650
X2810000Y330000
X2810000Y430000
X2810000Y530000
X2910000Y330000
X2910000Y430000
X2910000Y530000
X3010000Y330000
X3010000Y430000
X3010000Y530000
X3110000Y330000
X3110000Y430000
X3110000Y530000
X3139610Y120650
X3240000Y650000
X3330000Y650000
X3870000Y560000
X3870000Y650000
X3959610Y110650
X4359610Y110650
X4739610Y110650
X4750000Y550000
X4750000Y650000
X4850000Y550000
X4850000Y650000
X4950000Y550000
X4950000Y650000
X5139610Y110650
X5609610Y110650
X6009610Y110650
X6479610Y110650
X6879610Y110650
X6931520Y383660
X7331520Y383660
X8304920Y1315290
X8304920Y915290
X7904920Y1315290
X7904920Y915290
X7331520Y1183660
X7331520Y783660
X6931520Y1183660
X6931520Y783660
X5762260Y1315290
X5762260Y915290
X5362260Y1315290
X5362260Y915290
X4962260Y1315290
X4962260Y915290
X4590000Y880000
X4590000Y790000
X4500000Y880000
X4500000Y790000
X4400000Y1290000
X4400000Y1200000
X4310000Y1290000
X4310000Y1200000
X4220000Y1290000
X4220000Y1200000
X4220000Y1110000
X4220000Y1020000
X4220000Y930000
X4130000Y1290000
X4130000Y1200000
X4040000Y1290000
X4040000Y1200000
X3389610Y1260650
X2989610Y1260650
X2615000Y1395000
X600700Y1435090
X600700Y1035090
X600700Y1835090
X2019610Y2210650
X2419610Y1560650
X2419610Y1880650
X2419610Y2210650
X2819610Y1560650
X2819610Y1880650
X2915000Y1715000
X3040000Y2280000
X3599610Y1550650
X3700000Y1840000
X3710000Y2060000
X3810000Y2190000
X3930000Y1840000
X3980000Y2260000
X3999610Y1550650
X4140000Y1930000
X4140000Y2120000
X4300000Y2120000
X4310000Y1735000
X4410000Y1840000
X4435330Y2275330
X4470000Y2035000
X4962260Y1715290
X5362260Y1715290
X5762260Y1715290
X6080000Y2270000
X6132810Y2208330
X6320000Y1890000
X6320000Y1990000
X6320000Y2090000
X6420000Y1890000
X6420000Y1990000
X6420000Y2090000
X7904920Y1715290
X8304920Y1715290
X6180000Y2900000
X6130000Y2330000
X6080000Y2680000
X6080000Y2550000
X5820000Y2550000
X5820000Y2420000
X5800000Y2950000
X5800000Y2800000
X5690000Y2800000
X5310000Y2980000
X5310000Y2720000
X4960000Y2720000
X4750000Y2980000
X4708160Y2741840
X4710000Y2670000
X4461860Y2791860
X4461860Y2691860
X4300000Y2560000
X4100000Y2590000
X3960000Y2890000
X3960000Y2590000
X3720000Y2420000
X3570000Y2860000
X3570000Y2640000
X3570000Y2420000
X3425000Y2905000
X3425000Y2420000
X2985520Y2847110
X2419610Y3010650
X2419610Y2610650
X2019610Y3010650
X2019610Y2610650
X319920Y2928880
X319920Y2528880
X319920Y3328880
X319920Y3728880
X2019610Y3410650
X2419610Y3410650
X2620000Y3800000
X2985520Y3247110
X3570000Y3100000
X3735320Y3175320
X3750000Y3350000
X3755000Y3485000
X3960000Y3060000
X4010000Y3370000
X4050000Y3620000
X4050000Y3780000
X4120000Y3060000
X4444430Y3690700
X4724430Y3690700
X4855000Y3235000
X5164430Y3700700
X5310000Y3160000
X5491600Y3088400
X6080000Y3230000
X6320000Y3410000
X6320000Y3510000
X6320000Y3610000
X6420000Y3410000
X6420000Y3510000
X6420000Y3610000
X8178420Y4370260
X8178420Y3970260
X7778420Y4370260
X7778420Y3970260
X7378420Y4370260
X7378420Y3970260
X6978420Y4370260
X6978420Y3970260
X6578420Y4370260
X6578420Y3970260
X6178420Y4370260
X6178420Y3970260
X5778420Y4370260
X5778420Y3970260
X5170000Y4090000
X4730000Y4080000
X4450000Y4080000
X3636370Y4239830
X3236370Y4239830
X2860000Y4410000
X2725000Y4150000
X2440000Y4280000
X2440000Y4120000
X2160000Y3880000
X2030000Y4280000
X1840000Y3880000
X319920Y4128880
X1200000Y4750000
X1200000Y5180000
X1620000Y4800000
X2100000Y5190000
X2440000Y5190000
X3000000Y4800000
X3438540Y5157060
X3838540Y5157060
X4238540Y5157060
X4638540Y5157060
X5038540Y5157060
X5438540Y5157060
T02
X6430000Y2540000
X6540000Y2540000
X6430000Y2650000
X6540000Y2650000
X6430000Y2760000
X6540000Y2760000
X6430000Y2870000
X6540000Y2870000
X6430000Y2980000
X6540000Y2980000
X6760000Y2980000
X6650000Y2980000
X6760000Y2870000
X6650000Y2870000
X6760000Y2760000
X6650000Y2760000
X6760000Y2650000
X6650000Y2650000
X6760000Y2540000
X6650000Y2540000
X6870000Y2540000
X6870000Y2650000
X6870000Y2760000
X6870000Y2870000
X6870000Y2980000
T03
X4264000Y4516500
X4137000Y4516500
X4010000Y4516500
X3883000Y4516500
X3756000Y4516500
X3756000Y4643500
X3883000Y4643500
X4010000Y4643500
X4137000Y4643500
X4264000Y4643500
X4970000Y4580000
X5220000Y4580000
X5470000Y4580000
T04
X7760000Y2375000
X7760000Y2625000
X7760000Y2875000
X7760000Y3125000
T05
X5895000Y5290000
X6645000Y5290000
X6895000Y5290000
X7645000Y5290000
T06
X163000Y755000
X163000Y2085000
X950000Y3519000
X950000Y4281000
T07
X1085000Y940000
X1085000Y1420000
X1085000Y1900000
T08
X360000Y360000
X360000Y5040000
X8140000Y5040000
X8140000Y360000
M30
