G04 ================== begin FILE IDENTIFICATION RECORD ==================*
G04 Layout Name:  TB67S109_V10_220218.brd*
G04 Film Name:    TOP*
G04 File Format:  Gerber RS274X*
G04 File Origin:  Cadence Allegro 17.2-S071*
G04 Origin Date:  Tue Feb 22 12:04:58 2022*
G04 *
G04 Layer:  VIA CLASS/TOP*
G04 Layer:  PIN/TOP*
G04 Layer:  ETCH/TOP*
G04 *
G04 Offset:    (0.0000 0.0000)*
G04 Mirror:    No*
G04 Mode:      Positive*
G04 Rotation:  0*
G04 FullContactRelief:  No*
G04 UndefLineWidth:     0.1524*
G04 ================== end FILE IDENTIFICATION RECORD ====================*
%FSLAX55Y55*MOMM*%
%IR0*IPPOS*OFA0.00000B0.00000*MIA0B0*SFA1.00000B1.00000*%
%ADD20R,1.2X.3*%
%ADD28R,.3X1.2*%
%ADD34R,.5X2.*%
%ADD30R,1.1X.7*%
%ADD24R,1.1X.6*%
%ADD26R,.7X1.1*%
%ADD21R,.6X1.2*%
%ADD31R,.8X1.4*%
%ADD33C,.75*%
%ADD12C,.508*%
%ADD27R,.7X.7*%
%ADD43C,.762*%
%ADD25R,.8X.8*%
%ADD22O,1.X2.1*%
%ADD15O,4.X2.*%
%ADD13O,2.X4.*%
%ADD23O,1.X1.6*%
%ADD39R,1.4X1.2*%
%ADD37R,1.5X2.5*%
%ADD36C,1.*%
%ADD19R,1.8X3.2*%
%ADD32R,1.8X1.6*%
%ADD29R,.5X.6*%
%ADD18R,.5X.7*%
%ADD17R,.6X.5*%
%ADD16R,1.6X1.8*%
%ADD11C,2.2*%
%ADD14C,2.3*%
%ADD40R,.8X.25*%
%ADD45C,1.6*%
%ADD41R,.25X.8*%
%ADD35R,1.X1.*%
%ADD38C,1.65*%
%ADD44R,1.6X1.6*%
%ADD10C,6.9*%
%ADD42R,5.6X5.6*%
%ADD46C,.2032*%
%ADD47C,.254*%
%ADD50R,.4X1.*%
%ADD53R,.5X1.*%
%ADD59R,.6X1.*%
%ADD58R,.5X1.1*%
%ADD60R,.5X1.2*%
%ADD52R,.6X1.1*%
%ADD51R,.6X1.2*%
%ADD57R,.6X.7*%
%ADD56R,.7X.7*%
%ADD55R,.6X.9*%
%ADD54R,.7X.8*%
%ADD49C,1.2004*%
%ADD61R,.7X.9*%
%ADD48C,1.9148*%
G75*
%LPD*%
G75*
G36*
G01X7767870Y5370000D02*
X8140000D01*
G02X8470000Y5040000I0J-330000D01*
G01Y360000D01*
G02X8140000Y30000I-330000J0D01*
G01X360000D01*
G02X30000Y360000I0J330000D01*
G01Y5040000D01*
G02X360000Y5370000I330000J0D01*
G01X1341890D01*
G02X1356260Y5335310I1J-20321D01*
G01X1330470Y5309530D01*
G03X1314100Y5270000I39543J-39530D01*
G01Y4800000D01*
G03X1330470Y4760470I55913J0D01*
G01X1624100Y4466850D01*
Y4379640D01*
G02X1589410Y4365270I-20321J0D01*
G01X1518950Y4435740D01*
X967630D01*
X967070Y4435800D01*
G03X950000Y4436740I-17085J-154799D01*
G03X932930Y4435800I15J-155739D01*
G01X932370Y4435740D01*
X891050D01*
X869840Y4414530D01*
G03X816470Y4361160I80160J-133530D01*
G01X804260Y4348950D01*
Y4335940D01*
X803650Y4334250D01*
G03X794260Y4281000I146348J-53260D01*
G03X803650Y4227750I155738J10D01*
G01X804260Y4226060D01*
Y4221050D01*
X807760Y4217560D01*
X808520Y4215910D01*
G03X884910Y4139520I141480J65090D01*
G01X886560Y4138760D01*
X901050Y4124260D01*
X1091050D01*
X1114260Y4101050D01*
Y2511050D01*
X1256350Y2368970D01*
G02X1239290Y2334460I-14369J-14369D01*
G03X1220000Y2335740I-19273J-144461D01*
G01X1020000D01*
G03X874260Y2190000I0J-145740D01*
G03X956180Y2058980I145734J0D01*
G02X961650Y2026340I-8896J-18269D01*
G01X924260Y1988950D01*
Y1831050D01*
X1021050Y1734260D01*
X1528950D01*
X1625740Y1831050D01*
Y3726150D01*
G02X1660430Y3740520I20321J1D01*
G01X1740470Y3660470D01*
G03X1780000Y3644100I39530J39543D01*
G01X2180720D01*
G03X2220250Y3660470I0J55913D01*
G01X2351130Y3791350D01*
G02X2383900Y3785600I14369J-14367D01*
G03X2425320Y3759260I41420J19397D01*
G01X2545320D01*
G03X2560050Y3761700I-9J45738D01*
G03X2620000Y3728860I59950J38300D01*
G03X2646460Y3733960I9J71142D01*
G02X2659280Y3729160I3778J-9429D01*
G03X2700000Y3704260I40720J20846D01*
G01X2840000D01*
G03X2877700Y3724100I0J45739D01*
G01X4006000D01*
G03X4038450Y3709800I44008J55896D01*
G01X4041670Y3709270D01*
X4079430Y3671520D01*
Y3447160D01*
G02X4048200Y3430010I-20321J-6D01*
G03X4010000Y3441140I-38206J-60008D01*
G03X3974270Y3431520I-6J-71142D01*
G02X3943750Y3449090I-10201J17572D01*
G01Y3449690D01*
G03X3925740Y3491890I-58445J0D01*
G01Y3510000D01*
G03X3880000Y3555740I-45740J0D01*
G01X3820000D01*
G03X3791710Y3545940I0J-45733D01*
G03X3755000Y3556140I-36705J-60941D01*
G03Y3413860I0J-71140D01*
G03X3791710Y3424060I5J71141D01*
G03X3817310Y3414340I28291J35940D01*
G02X3826870Y3404200I-600J-10142D01*
G01Y3316250D01*
X3826450Y3314840D01*
G03X3824570Y3301850I43862J-12979D01*
G01Y3235430D01*
G02X3788940Y3222080I-20318J5D01*
G03X3735320Y3246460I-53615J-46762D01*
G03X3664180Y3175320I0J-71140D01*
G03X3665600Y3161200I71138J23D01*
G02X3659220Y3149670I-9960J-2019D01*
G03X3629580Y3106860I16096J-42810D01*
G01Y3076860D01*
G03X3630690Y3066850I45739J5D01*
G03X3629680Y3059800I44633J-9992D01*
G01X3629060Y3050300D01*
X3484260D01*
G03X3450000Y3065740I-34260J-30290D01*
G01X3400000D01*
G03X3354260Y3020000I0J-45740D01*
G01Y2960000D01*
G03X3361010Y2936080I45741J-5D01*
G03X3353860Y2905000I63989J-31083D01*
G03X3408560Y2835780I71147J0D01*
G01X3416380Y2833930D01*
Y2815740D01*
X3400000D01*
G03X3354260Y2770000I0J-45740D01*
G01Y2710000D01*
G03X3400000Y2664260I45740J0D01*
G01X3450000D01*
G03X3488900Y2685940I0J45739D01*
G01X3629400D01*
X3629590Y2675980D01*
G03X3630690Y2666850I45731J878D01*
G03X3629580Y2656840I44629J-10015D01*
G01Y2626840D01*
G03X3629780Y2622520I45742J-47D01*
G02X3609560Y2600280I-20227J-1922D01*
G01X3466840D01*
G03X3425520Y2583160I6J-58438D01*
G01X3418090Y2575740D01*
X3400000D01*
G03X3354260Y2530000I0J-45740D01*
G01Y2470000D01*
G03X3359730Y2448300I45742J-9D01*
G03X3353860Y2420000I65284J-28300D01*
G03X3496140I71140J0D01*
G03X3490270Y2448300I-71154J0D01*
G03X3495740Y2470000I-40272J21691D01*
G01Y2483400D01*
X3660920D01*
X3662330Y2482980D01*
G03X3675320Y2481100I12979J43862D01*
G01X3795320D01*
G03X3801180Y2481480I-24J45738D01*
G01X3801820Y2481560D01*
X3825790D01*
X3826870Y2480480D01*
Y2466250D01*
X3826450Y2464840D01*
G03X3824570Y2451850I43862J-12979D01*
G01Y2325900D01*
X3460000D01*
G03X3420470Y2309530I0J-55913D01*
G01X3394190Y2283240D01*
X3389980D01*
G03X3331150Y2258870I19J-83240D01*
G01X3328180Y2255900D01*
X3316050D01*
X3313030Y2260410D01*
G03X3275000Y2280740I-38030J-25405D01*
G01X3205000D01*
G03X3159260Y2235000I0J-45740D01*
G01Y2198310D01*
X3136850Y2175900D01*
X3120740D01*
Y2235000D01*
G03X3109540Y2264990I-45752J0D01*
G03X3111140Y2280000I-69541J15003D01*
G03X2968860I-71140J0D01*
G03X2970460Y2264990I71141J-7D01*
G03X2959260Y2235000I34552J-29990D01*
G01Y2175900D01*
X2230000D01*
G03X2190470Y2159530I0J-55913D01*
G01X2140470Y2109530D01*
G03X2124100Y2070000I39543J-39530D01*
G01Y1371480D01*
X2115950Y1369840D01*
G03X2079260Y1325000I9055J-44840D01*
G01Y1265000D01*
G03X2125000Y1219260I45740J0D01*
G01X2235000D01*
G03X2280740Y1265000I0J45740D01*
G01Y1325000D01*
G03X2244050Y1369840I-45745J0D01*
G01X2235900Y1371480D01*
Y2046850D01*
X2253150Y2064100D01*
X3160000D01*
G03X3164300Y2064270I-57J55898D01*
G02X3172340Y2047020I788J-10131D01*
G03X3159260Y2015000I32653J-32020D01*
G01Y1945000D01*
G03X3179590Y1906970I45735J0D01*
G01X3184100Y1903950D01*
Y1894610D01*
G02X3159540Y1874730I-20321J-6D01*
G03X3150000Y1875740I-9559J-44728D01*
G01X3090000D01*
G03X3060000Y1864530I0J-45748D01*
G03X3030000Y1875740I-30000J-34538D01*
G01X2970000D01*
G03X2924260Y1830000I0J-45740D01*
G01Y1796290D01*
G02X2914210Y1786140I-10158J8D01*
G03X2843860Y1715000I794J-71140D01*
G03X2915000Y1643860I71140J0D01*
G03X2946080Y1651010I-3J71139D01*
G03X2970000Y1644260I23915J38991D01*
G01X3030000D01*
G03X3075740Y1690000I0J45740D01*
G01Y1724250D01*
G02X3086650Y1734380I10159J-1D01*
G03X3090000Y1734260I3311J45621D01*
G01X3150000D01*
G03X3180000Y1745470I0J45748D01*
G03X3210000Y1734260I30000J34538D01*
G01X3270000D01*
G03X3300310Y1745750I-6J45738D01*
G02X3334100Y1730530I13469J-15216D01*
G01Y1700000D01*
G03X3350470Y1660470I55913J0D01*
G01X3400470Y1610470D01*
G03X3440000Y1594100I39530J39543D01*
G01X4460000D01*
G03X4499530Y1610470I0J55913D01*
G01X4579530Y1690470D01*
G03X4595900Y1730000I-39543J39530D01*
G01Y2080000D01*
G03X4579530Y2119530I-55913J0D01*
G01X4479980Y2219070D01*
X4486830Y2226250D01*
G03X4506470Y2275330I-51505J49080D01*
G03X4493390Y2316430I-71137J-8D01*
G03X4496070Y2331850I-43059J15427D01*
G01Y2350060D01*
G02X4513410Y2357240I10159J-5D01*
G01X4560180Y2310470D01*
G03X4599710Y2294100I39530J39543D01*
G01X5912220D01*
G03X5915870Y2290070I43209J35467D01*
G01X5924260Y2281690D01*
Y2260000D01*
G03X5924340Y2257270I45741J-26D01*
G02X5904060Y2235740I-20283J-1211D01*
G01X5824260D01*
Y1804260D01*
X6448950D01*
X6453430Y1808750D01*
X6464260Y1804260D01*
X6728950D01*
X6785740Y1861050D01*
Y1940520D01*
G02X6820430Y1954890I20321J0D01*
G01X6961050Y1814260D01*
X8278950D01*
X8365740Y1901050D01*
Y3168950D01*
X8278950Y3255740D01*
X7721050D01*
X7720430Y3255110D01*
G02X7685740Y3269480I-14369J14370D01*
G01Y3348950D01*
X7618950Y3415740D01*
X6811050D01*
X6808280Y3412960D01*
X6795740Y3418160D01*
Y3658950D01*
X6738950Y3715740D01*
X6464260D01*
X6453430Y3711250D01*
X6448950Y3715740D01*
X5824260D01*
Y3284260D01*
X5900610D01*
Y3273730D01*
X5900580Y3273350D01*
G03X5900460Y3270000I45621J-3311D01*
G01Y3215900D01*
X5354000D01*
G03X5310000Y3231140I-44000J-55897D01*
G03Y3088860I0J-71140D01*
G03X5354000Y3104100I0J71137D01*
G01X5400260D01*
G02X5420550Y3084810I-3J-20319D01*
G03X5491600Y3017260I71050J3591D01*
G03X5516590Y3021800I-16J71137D01*
G03X5553800Y3002660I37210J26600D01*
G01X5569080D01*
G02X5576260Y2985320I-5J-10159D01*
G01X5488690Y2897740D01*
X4710790D01*
G02X4690650Y2920760I1J20321D01*
G03X4691060Y2926840I-45328J6110D01*
G01Y2956840D01*
G03X4689950Y2966850I-45739J-5D01*
G03X4691060Y2976860I-44629J10015D01*
G01Y3006860D01*
G03X4690860Y3011180I-45742J47D01*
G02X4711080Y3033420I20227J1922D01*
G01X4806860D01*
G03X4848180Y3050540I-6J58438D01*
G01X4861910Y3064260D01*
X4880000D01*
G03X4925740Y3110000I0J45740D01*
G01Y3170000D01*
G03X4915940Y3198290I-45733J0D01*
G03X4926140Y3235000I-60941J36705D01*
G03X4783860I-71140J0D01*
G03X4794060Y3198290I71141J-5D01*
G03X4784260Y3170000I35933J-28290D01*
G01Y3151910D01*
X4782650Y3150300D01*
X4659720D01*
X4658310Y3150720D01*
G03X4645320Y3152600I-12979J-43862D01*
G01X4626180D01*
G02X4619000Y3169940I5J10159D01*
G01X4655090Y3206030D01*
G03X4671460Y3245560I-39543J39530D01*
G01Y4832120D01*
X4718290Y4878950D01*
X7334850D01*
G03X7374380Y4895320I0J55913D01*
G01X7463310Y4984260D01*
X7560000D01*
G03X7605740Y5030000I0J45740D01*
G01Y5150000D01*
G03X7605190Y5157070I-45740J-2D01*
G02X7629070Y5180180I20076J3148D01*
G03X7650000Y5178200I20948J109818D01*
G03X7761800Y5290000I0J111800D01*
G03X7749740Y5340500I-111803J-10D01*
G02X7767870Y5370000I18130J9179D01*
G37*
G36*
G01X850000Y4330000D02*
X910000Y4390000D01*
X1500000D01*
X1580000Y4310000D01*
Y1850000D01*
X1510000Y1780000D01*
X1040000D01*
X970000Y1850000D01*
Y1970000D01*
X1020000Y2020000D01*
X1320000D01*
X1370000Y2070000D01*
Y2320000D01*
X1160000Y2530000D01*
Y4120000D01*
X1110000Y4170000D01*
X920000D01*
X850000Y4240000D01*
Y4330000D01*
G37*
G36*
G01X1805900Y3843150D02*
Y4069700D01*
G02X1835950Y4087540I20320J1D01*
G03X1870000Y4078860I34050J62446D01*
G01X1873600D01*
G02X1892580Y4051300I-5J-20319D01*
G03X1889580Y4035000I42741J-16293D01*
G01Y4005000D01*
G03X1890690Y3995000I45738J15D01*
G03X1889580Y3985000I44628J-10015D01*
G01Y3955000D01*
G03X1899660Y3926360I45727J0D01*
G02Y3913640I-7927J-6360D01*
G03X1889580Y3885000I35647J-28640D01*
G01Y3855000D01*
G03X1890690Y3845000I45738J15D01*
G03X1889580Y3835000I44628J-10015D01*
G01Y3805900D01*
X1843150D01*
X1805900Y3843150D01*
G37*
G36*
G01X1995740Y4321690D02*
X2031920Y4357860D01*
G02X2049260Y4350680I7181J-7185D01*
G01Y4345000D01*
G03X2095000Y4299260I45740J0D01*
G01X2164100D01*
Y4260740D01*
X2095000D01*
G03X2051250Y4228340I0J-45738D01*
G01X2049050Y4221140D01*
X1901140D01*
Y4254260D01*
X1950000D01*
G03X1995740Y4300000I0J45740D01*
G01Y4321690D01*
G37*
G36*
G01X6020350Y5370000D02*
X6519650D01*
G02X6537850Y5340650I-4J-20320D01*
G03X6525980Y5290000I102128J-50650D01*
G03X6544800Y5227240I114023J-9D01*
G02X6527840Y5195740I-16964J-11182D01*
G01X6452260D01*
G02X6435250Y5227170I1J20318D01*
G03X6445020Y5260000I-50252J32823D01*
G03X6324980I-60020J0D01*
G03X6368320Y5202340I60026J0D01*
G02X6380310Y5172730I-5646J-19519D01*
G03X6374260Y5150000I39689J-22734D01*
G01Y5053310D01*
X6347620Y5026670D01*
X4680770D01*
G03X4641240Y5010300I0J-55913D01*
G01X4540470Y4909530D01*
G03X4524100Y4870000I39543J-39530D01*
G01Y3283440D01*
X4513410Y3272760D01*
G02X4496070Y3279940I-7181J7185D01*
G01Y3301850D01*
G03X4450330Y3347590I-45740J0D01*
G01X4420330D01*
G03X4410320Y3346480I5J-45739D01*
G03X4400310Y3347590I-10015J-44629D01*
G01X4320330D01*
G03X4310320Y3346480I5J-45739D01*
G03X4301190Y3347580I-10008J-44631D01*
G02X4291230Y3357740I200J10158D01*
G01Y4312180D01*
X4384010Y4404950D01*
G03X4400380Y4444480I-39543J39530D01*
G01Y4805520D01*
G03X4384010Y4845050I-55913J0D01*
G01X4304530Y4924530D01*
G03X4265000Y4940900I-39530J-39543D01*
G01X3195740D01*
Y5000000D01*
G03X3173900Y5039000I-45741J0D01*
G02X3166210Y5065150I10613J17327D01*
G03X3170740Y5085000I-41211J19847D01*
G01Y5155000D01*
G03X3170130Y5162420I-45738J-25D01*
G01X3170000Y5163240D01*
Y5340000D01*
X2950000D01*
Y5163240D01*
X2949870Y5162420D01*
G03X2949260Y5155000I45128J-7445D01*
G01Y5085000D01*
G03X2953790Y5065150I45741J-3D01*
G02X2946100Y5039000I-18303J-8823D01*
G03X2924260Y5000000I23901J-39000D01*
G01Y4950000D01*
G03X2928860Y4930000I45742J-8D01*
G03X2924260Y4910000I41142J-19992D01*
G01Y4860000D01*
G03X2935490Y4829980I45740J0D01*
G03X2928860Y4800000I64508J-29989D01*
G03X3071140I71140J0D01*
G03X3071020Y4804200I-71142J69D01*
G02X3082760Y4814840I10141J607D01*
G03X3090000Y4814260I7261J45158D01*
G01X3150000D01*
G03X3183720Y4829100I0J45730D01*
G01X4241850D01*
X4288580Y4782370D01*
Y4759480D01*
G02X4267510Y4739180I-20318J4D01*
G03X4264000Y4739240I-3391J-95682D01*
G03X4200500Y4715150I0J-95736D01*
G03X4073500I-63500J-71646D01*
G03X3946500I-63500J-71646D01*
G03X3819500I-63500J-71646D01*
G03X3756000Y4739240I-63500J-71646D01*
G03X3660260Y4643500I0J-95740D01*
G03X3672160Y4597270I95749J0D01*
G03X3660260Y4566500I33831J-30770D01*
G01Y4466500D01*
G03X3706000Y4420760I45740J0D01*
G01X3806000D01*
G03X3836770Y4432660I0J45731D01*
G03X3883000Y4420760I46230J83849D01*
G03X3924890Y4430410I0J95746D01*
G02X3954100Y4412140I8891J-18271D01*
G01Y4013150D01*
X3916850Y3975900D01*
X2877700D01*
G03X2840000Y3995740I-37700J-25899D01*
G01X2814570D01*
G02X2794710Y4020350I2J20320D01*
G03X2795740Y4030000I-44710J9652D01*
G01Y4090000D01*
G03X2787550Y4116120I-45747J0D01*
G03X2796140Y4150000I-62548J33888D01*
G03X2653860I-71140J0D01*
G03X2662450Y4116120I71138J8D01*
G03X2654260Y4090000I37557J-26120D01*
G01Y4078440D01*
X2559720D01*
X2558310Y4078860D01*
G03X2545320Y4080740I-12979J-43862D01*
G01X2425320D01*
G03X2379580Y4035170I0J-45740D01*
G02X2371050Y4025180I-10159J38D01*
G03X2340470Y4009530I8946J-55181D01*
G01X2136850Y3805900D01*
X2101060D01*
Y3835000D01*
G03X2099950Y3845000I-45738J-15D01*
G03X2101060Y3855000I-44628J10015D01*
G01Y3885000D01*
G03X2100110Y3894290I-45742J16D01*
G02X2113020Y3917500I19894J4130D01*
G03X2114490Y3918060I-19163J52513D01*
G01X2116290Y3918780D01*
X2194680D01*
G03X2234210Y3935150I0J55913D01*
G01X2300170Y4001110D01*
G03X2316540Y4040640I-39543J39530D01*
G01Y4299260D01*
X2385000D01*
G03X2427550Y4328210I0J45744D01*
G02X2460820Y4335130I18904J-7451D01*
G01X2474260Y4321690D01*
Y4300000D01*
G03X2520000Y4254260I45740J0D01*
G01X2580000D01*
G03X2625740Y4300000I0J45740D01*
G01Y4350000D01*
G03X2580000Y4395740I-45740J0D01*
G01X2558310D01*
X2470900Y4483150D01*
Y4554110D01*
G02X2480870Y4564270I10160J1D01*
G03X2490000Y4565370I-878J45730D01*
G03X2500000Y4564260I10015J44628D01*
G01X2560000D01*
G03X2605740Y4610000I0J45740D01*
G01Y4730000D01*
G03X2601980Y4748170I-45742J8D01*
G01X2601140Y4750100D01*
Y4770000D01*
G03X2597760Y4791650I-71137J-17D01*
G03X2619020Y4827000I-18759J35350D01*
G03X2579000Y4867020I-40020J0D01*
G03X2554510Y4858650I0J-40013D01*
G02X2541110Y4859500I-6217J8035D01*
G01X2480300Y4920300D01*
G03X2430000Y4941140I-50300J-50283D01*
G01X2140000D01*
G03X2089700Y4920300I0J-71123D01*
G01X2027420Y4858030D01*
X2020700Y4861830D01*
G03X2001000Y4867020I-19709J-34828D01*
G03X1960980Y4827000I0J-40020D01*
G03X1980040Y4792910I40016J0D01*
G03X1978860Y4780000I69961J-12903D01*
G01Y4750100D01*
X1978020Y4748170D01*
G03X1974260Y4730000I41982J-18162D01*
G01Y4624870D01*
X1823240Y4473850D01*
G02X1805900Y4481040I-7181J7186D01*
G01Y4490000D01*
G03X1789530Y4529530I-55913J0D01*
G01X1623180Y4695870D01*
G02X1633650Y4730180I14370J14368D01*
G03X1691140Y4800000I-13652J69820D01*
G03X1684510Y4829980I-71138J-9D01*
G03X1695740Y4860000I-34510J30020D01*
G01Y4910000D01*
G03X1691140Y4930000I-45742J8D01*
G03X1695740Y4950000I-41142J19992D01*
G01Y5000000D01*
G03X1673900Y5039000I-45741J0D01*
G02X1666210Y5065150I10613J17327D01*
G03X1670740Y5085000I-41211J19847D01*
G01Y5155000D01*
G03X1658490Y5186160I-45742J5D01*
G02Y5213840I14872J13840D01*
G03X1670740Y5245000I-33492J31155D01*
G01Y5315000D01*
G03X1663930Y5339010I-45731J0D01*
G02X1681220Y5370000I17293J10670D01*
G01X5779650D01*
G02X5797850Y5340650I-4J-20320D01*
G03X5785980Y5290000I102128J-50650D01*
G03X6014020I114020J0D01*
G03X6002150Y5340650I-113998J0D01*
G02X6020350Y5370000I18204J9030D01*
G37*
G36*
G01X3969550Y2286110D02*
X4029410D01*
Y2268460D01*
X3946850Y2185900D01*
X3860000D01*
G03X3820470Y2169530I0J-55913D01*
G01X3786820Y2135870D01*
X3782890Y2135690D01*
G03X3739260Y2090000I2109J-45690D01*
G01Y1890000D01*
G03X3785000Y1844260I45740J0D01*
G01X3835000D01*
G03X3880740Y1890000I0J45740D01*
G01Y2071690D01*
X3883150Y2074100D01*
X3979260D01*
Y1890000D01*
G03X4025000Y1844260I45740J0D01*
G01X4075000D01*
G03X4120740Y1890000I0J45740D01*
G01Y2090000D01*
G03X4113990Y2113910I-45739J-5D01*
G01X4109800Y2120740D01*
X4129410Y2140350D01*
G02X4164100Y2125980I14369J-14369D01*
G01Y2097700D01*
G03X4144260Y2060000I25899J-37700D01*
G01Y2010000D01*
G03X4190000Y1964260I45740J0D01*
G01X4216700D01*
X4234100Y1946860D01*
Y1913150D01*
X4216690Y1895740D01*
X4190000D01*
G03X4144260Y1850000I0J-45740D01*
G01Y1800000D01*
G03X4148860Y1780000I45742J-8D01*
G03X4144260Y1760000I41142J-19992D01*
G01Y1705900D01*
X3463150D01*
X3445900Y1723150D01*
Y1918320D01*
G03X3473240Y1980000I-55906J61680D01*
G03X3390000Y2063240I-83240J0D01*
G03X3331150Y2038870I0J-83242D01*
G01X3328180Y2035900D01*
X3316050D01*
X3313030Y2040410D01*
G03X3275000Y2060740I-38030J-25405D01*
G01X3205000D01*
X3204330D01*
G02X3197390Y2078450I-144J10158D01*
G03X3199530Y2080470I-37288J41646D01*
G01X3238310Y2119260D01*
X3275000D01*
G03X3313030Y2139590I0J45735D01*
G01X3316050Y2144100D01*
X3328180D01*
X3331150Y2141130D01*
G03X3390000Y2116760I58850J58872D01*
G03X3473240Y2199980I0J83240D01*
G01Y2204190D01*
X3483150Y2214100D01*
X3874390D01*
G03X3913920Y2230470I0J55913D01*
G01X3969550Y2286110D01*
G37*
G36*
G01X3516100Y2933420D02*
X3629060D01*
X3629670Y2923910D01*
G03X3630680Y2916850I45649J2928D01*
G03X3629580Y2906860I44642J-9971D01*
G01Y2876860D01*
G03X3630690Y2866850I45739J5D01*
G03X3629580Y2856840I44629J-10015D01*
G01Y2826840D01*
G03X3630680Y2816850I45742J-19D01*
G03X3629590Y2807710I44643J-9959D01*
G01X3629400Y2797740D01*
X3486370D01*
G03X3450000Y2815740I-36370J-27744D01*
G01X3433620D01*
Y2833930D01*
X3441440Y2835780D01*
G03X3496140Y2905000I-16447J69220D01*
G03X3495860Y2911300I-71140J-6D01*
G02X3516100Y2933420I20240J1800D01*
G37*
G36*
G01X4129410Y2620670D02*
Y2497590D01*
X4070310D01*
G03X4060320Y2496490I-19J-45742D01*
G03X4050330Y2497590I-9971J-44642D01*
G01X3970310D01*
G03X3960320Y2496490I-19J-45742D01*
G03X3953210Y2497500I-9968J-44643D01*
G02X3943700Y2507200I639J10138D01*
G03X3926630Y2546010I-58385J-2521D01*
G01X3891320Y2581320D01*
G03X3850000Y2598440I-41326J-41318D01*
G01X3838000D01*
Y2610300D01*
X3838560Y2611920D01*
G03X3841050Y2625990I-43242J14908D01*
G01X3841240Y2635960D01*
X4081860D01*
G03X4101830Y2639650I-3J55899D01*
G02X4129410Y2620670I7260J-18979D01*
G37*
G36*
G01X3841060Y3106860D02*
G03X3840570Y3113530I-45739J-7D01*
G02X3863640Y3136600I20103J2967D01*
G03X3870310Y3136110I6677J45249D01*
G01X4000310D01*
G03X4010320Y3137220I-5J45739D01*
G03X4020330Y3136110I10015J44629D01*
G01X4100310D01*
G03X4110320Y3137220I-5J45739D01*
G03X4120330Y3136110I10015J44629D01*
G01X4200310D01*
G03X4210320Y3137220I-5J45739D01*
G03X4220330Y3136110I10015J44629D01*
G01X4300310D01*
G03X4310320Y3137220I-5J45739D01*
G03X4320330Y3136110I10015J44629D01*
G01X4327710D01*
G02X4342080Y3101420I1J-20321D01*
G01X4316560Y3075900D01*
X4230000D01*
G03X4190470Y3059530I0J-55913D01*
G01X4100470Y2969530D01*
G03X4084100Y2930000I39543J-39530D01*
G01Y2773150D01*
X4058710Y2747760D01*
X3841240D01*
X3841050Y2757720D01*
G03X3839950Y2766850I-45731J-878D01*
G03X3841060Y2776860I-44629J10015D01*
G01Y2806860D01*
G03X3839960Y2816850I-45742J19D01*
G03X3841060Y2826840I-44642J9971D01*
G01Y2856840D01*
G03X3839950Y2866850I-45739J-5D01*
G03X3841060Y2876860I-44629J10015D01*
G01Y2906860D01*
G03X3839960Y2916850I-45742J19D01*
G03X3841060Y2926840I-44642J9971D01*
G01Y2956840D01*
G03X3839950Y2966850I-45739J-5D01*
G03X3841060Y2976860I-44629J10015D01*
G01Y3006860D01*
G03X3839960Y3016850I-45742J19D01*
G03X3841060Y3026840I-44642J9971D01*
G01Y3056840D01*
G03X3839950Y3066850I-45739J-5D01*
G03X3841060Y3076860I-44629J10015D01*
G01Y3106860D01*
G37*
G36*
G01X4273150Y2924100D02*
X4289120D01*
G02X4308610Y2898040I-1J-20319D01*
G03X4306330Y2882230I53621J-15802D01*
G01Y2641210D01*
G02X4296650Y2631060I-10160J-1D01*
G03X4270080Y2624540I3352J-71060D01*
G02X4241210Y2642980I-8550J18434D01*
G01Y2892160D01*
X4273150Y2924100D01*
G37*
G36*
G01X4095110Y4430410D02*
G03X4137000Y4420760I41890J86096D01*
G03X4232740Y4516500I0J95740D01*
G03X4232270Y4526000I-95741J25D01*
G02X4254500Y4548230I20217J2013D01*
G03X4264000Y4547760I9475J95271D01*
G03X4267510Y4547820I119J95742D01*
G02X4288580Y4527520I752J-20304D01*
G01Y4467630D01*
X4195800Y4374860D01*
G03X4179430Y4335330I39543J-39530D01*
G01Y3948680D01*
G02X4144740Y3934310I-20321J-1D01*
G01X4065900Y4013150D01*
Y4412140D01*
G02X4095110Y4430410I20319J-1D01*
G37*
G36*
G01X4410000Y1964260D02*
G03X4436120Y1972450I0J45747D01*
G03X4465160Y1964020I33899J62544D01*
G02X4484100Y1943750I-1378J-20271D01*
G01Y1753150D01*
X4436850Y1705900D01*
X4401040D01*
G02X4380810Y1728170I-4J20320D01*
G03X4381140Y1735000I-70809J6844D01*
G03X4326840Y1804120I-71142J0D01*
G02X4317280Y1838230I4810J19743D01*
G01X4329530Y1850470D01*
G03X4345900Y1890000I-39543J39530D01*
G01Y1964260D01*
X4410000D01*
G37*
G36*
G01X4796470Y2785940D02*
X5427830D01*
G02X5442200Y2751250I1J-20321D01*
G01X5338710Y2647760D01*
X4801440D01*
G02X4781120Y2668510I-3J20321D01*
G03X4781140Y2670000I-71117J1700D01*
G03X4770460Y2707490I-71141J0D01*
G03X4779300Y2741840I-62301J34346D01*
G03X4776850Y2760340I-71139J-9D01*
G02X4796470Y2785940I19623J5280D01*
G37*
G36*
G01X5673150Y2824100D02*
X5902780D01*
X5924260Y2802620D01*
Y2778820D01*
G03X5919940Y2774930I35196J-43431D01*
G01X5900760Y2755740D01*
X5880000D01*
G03X5851360Y2745660I0J-45727D01*
G02X5838640I-6360J7927D01*
G03X5810000Y2755740I-28640J-35647D01*
G01X5760000D01*
G03X5714260Y2710000I0J-45740D01*
G01Y2675900D01*
X5574010D01*
G02X5559640Y2710590I-1J20321D01*
G01X5673150Y2824100D01*
G37*
G36*
G01X5870000Y2190000D02*
X6063710D01*
X6066180Y2183400D01*
G03X6132810Y2137190I66630J24932D01*
G03X6176810Y2152430I0J71137D01*
G01X6439770D01*
G03X6448290Y2153080I20J55902D01*
G01X6449060Y2153200D01*
X6460000D01*
Y1880000D01*
X6430000Y1850000D01*
X5870000D01*
Y2190000D01*
G37*
G36*
G01Y3330000D02*
Y3670000D01*
X6430000D01*
X6460000Y3640000D01*
Y3360000D01*
X6430000Y3330000D01*
X5870000D01*
G37*
G36*
G01X6510000Y1850000D02*
Y2180000D01*
X6660000Y2330000D01*
X6740000D01*
Y1880000D01*
X6710000Y1850000D01*
X6510000D01*
G37*
G36*
G01X6386530Y3024260D02*
X6913470D01*
X6914780Y3015630D01*
G03X6916000Y3010000I45224J6853D01*
G03X6914260Y2997500I44001J-12496D01*
G01Y2972500D01*
G03X6926080Y2941820I45727J0D01*
G02Y2928180I-7535J-6820D01*
G03X6914260Y2897500I33907J-30680D01*
G01Y2872500D01*
G03X6916000Y2860000I45741J-4D01*
G03X6914260Y2847500I44001J-12496D01*
G01Y2822500D01*
G03X6918960Y2802310I45739J5D01*
G01X6920000Y2800190D01*
Y2719810D01*
X6918960Y2717690D01*
G03X6914260Y2697500I41039J-20195D01*
G01Y2672500D01*
G03X6916000Y2660000I45741J-4D01*
G03X6914260Y2647500I44001J-12496D01*
G01Y2622500D01*
G03X6926080Y2591820I45727J0D01*
G02Y2578180I-7535J-6820D01*
G03X6914260Y2547500I33907J-30680D01*
G01Y2522500D01*
G03X6916000Y2510000I45741J-4D01*
G03X6914780Y2504370I44004J-12483D01*
G01X6913470Y2495740D01*
X6612500D01*
G03X6581820Y2483920I0J-45727D01*
G02X6568180I-6820J7535D01*
G03X6537500Y2495740I-30680J-33907D01*
G01X6386530D01*
X6385220Y2504370D01*
G03X6384000Y2510000I-45224J-6853D01*
G03X6385740Y2522500I-44001J12496D01*
G01Y2547500D01*
G03X6384000Y2560000I-45741J4D01*
G03X6385740Y2572500I-44001J12496D01*
G01Y2597500D01*
G03X6384000Y2610000I-45741J4D01*
G03X6385740Y2622500I-44001J12496D01*
G01Y2647500D01*
G03X6384000Y2660000I-45741J4D01*
G03X6385740Y2672500I-44001J12496D01*
G01Y2697500D01*
G03X6384000Y2710000I-45741J4D01*
G03X6385740Y2722500I-44001J12496D01*
G01Y2747500D01*
G03X6384000Y2760000I-45741J4D01*
G03X6385740Y2772500I-44001J12496D01*
G01Y2797500D01*
G03X6384000Y2810000I-45741J4D01*
G03X6385740Y2822500I-44001J12496D01*
G01Y2847500D01*
G03X6373920Y2878180I-45727J0D01*
G02Y2891820I7535J6820D01*
G03X6385740Y2922500I-33907J30680D01*
G01Y2947500D01*
G03X6384000Y2960000I-45741J4D01*
G03X6385740Y2972500I-44001J12496D01*
G01Y2997500D01*
G03X6384000Y3010000I-45741J4D01*
G03X6385220Y3015630I-44004J12483D01*
G01X6386530Y3024260D01*
G37*
G36*
G01X6510000Y3670000D02*
X6720000D01*
X6750000Y3640000D01*
Y3194490D01*
X6743960Y3191810D01*
G03X6727970Y3180000I18530J-41818D01*
G01X6672030D01*
G03X6637500Y3195740I-34530J-30006D01*
G01X6629990D01*
X6627180Y3201320D01*
G03X6616320Y3216320I-52168J-26338D01*
G01X6510000Y3322650D01*
Y3670000D01*
G37*
G36*
G01X7740000Y3210000D02*
X8260000D01*
X8320000Y3150000D01*
Y1920000D01*
X8260000Y1860000D01*
X6980000D01*
X6810000Y2030000D01*
Y2330180D01*
G03X6822030Y2340000I-22489J39829D01*
G01X6877970D01*
G03X6902390Y2325390I34529J30000D01*
G01X6905260Y2324740D01*
X7190000Y2040000D01*
X8070000D01*
X8130000Y2100000D01*
Y2990000D01*
X8080000Y3040000D01*
X7740000D01*
X7690000Y3090000D01*
Y3160000D01*
X7740000Y3210000D01*
G37*
G36*
G01X6830000Y3370000D02*
X7600000D01*
X7640000Y3330000D01*
Y3162590D01*
X7639570Y3161160D01*
G03X7634260Y3125000I120431J-36155D01*
G03X7639570Y3088840I125741J-5D01*
G01X7640000Y3087410D01*
Y2912590D01*
X7639570Y2911160D01*
G03X7634260Y2875000I120431J-36155D01*
G03X7639570Y2838840I125741J-5D01*
G01X7640000Y2837410D01*
Y2750000D01*
X7690000Y2700000D01*
X7790000D01*
X7840000Y2650000D01*
Y2600000D01*
X7790000Y2550000D01*
X7550000D01*
X7490000Y2610000D01*
Y3140000D01*
X7450000Y3180000D01*
X6972030D01*
G03X6937500Y3195740I-34530J-30006D01*
G01X6912500D01*
G03X6877970Y3180000I0J-45746D01*
G01X6822030D01*
G03X6810000Y3189820I-34519J-30009D01*
G01Y3350000D01*
X6830000Y3370000D01*
G37*
G36*
G01X7006360Y5370000D02*
X7532130D01*
G02X7550260Y5340500I0J-20321D01*
G03X7538200Y5290000I99743J-50510D01*
G03X7569060Y5212880I111793J0D01*
G02X7561390Y5195720I-7360J-7005D01*
G03X7560000Y5195740I-1353J-45721D01*
G01X7452260D01*
G02X7435250Y5227170I1J20318D01*
G03X7445020Y5260000I-50252J32823D01*
G03X7324980I-60020J0D01*
G03X7368320Y5202340I60026J0D01*
G02X7380310Y5172730I-5646J-19519D01*
G03X7374260Y5150000I39689J-22734D01*
G01Y5053310D01*
X7311700Y4990750D01*
X6623290D01*
G02X6603820Y5016890I-1J20320D01*
G03X6605740Y5030000I-43820J13113D01*
G01Y5150000D01*
G03X6605520Y5154440I-45738J-41D01*
G02X6627900Y5176620I20224J1975D01*
G03X6640000Y5175980I12064J113382D01*
G03X6754020Y5290000I0J114020D01*
G03X6742150Y5340650I-113998J0D01*
G02X6760350Y5370000I18204J9030D01*
G01X6773640D01*
G02X6791720Y5340410I1J-20318D01*
G03X6779550Y5290000I98277J-50400D01*
G03X7000450I110450J0D01*
G03X6988280Y5340410I-110447J10D01*
G02X7006360Y5370000I18079J9272D01*
G37*
G36*
G01X7070000Y2887970D02*
G03X7084610Y2912390I-30000J34529D01*
G01X7085260Y2915260D01*
X7120000Y2950000D01*
X7410000D01*
X7440000Y2920000D01*
Y2530000D01*
X7510000Y2460000D01*
X7840000D01*
Y2290000D01*
X7340000D01*
X7280000Y2350000D01*
Y2750000D01*
X7250000Y2780000D01*
X7110000D01*
X7085260Y2804740D01*
X7084610Y2807610D01*
G03X7070000Y2832030I-44610J-10109D01*
G01Y2887970D01*
G37*
G36*
G01X7730000Y2950000D02*
X8000000D01*
X8080000Y2870000D01*
Y2180000D01*
X8000000Y2100000D01*
X7200000D01*
X7070000Y2230000D01*
Y2437970D01*
G03X7085740Y2472500I-30006J34530D01*
G01Y2597500D01*
G03X7070000Y2632030I-45746J0D01*
G01Y2687970D01*
G03X7079820Y2700000I-30009J34519D01*
G01X7220000D01*
X7234260Y2685740D01*
Y2331050D01*
X7240000Y2325310D01*
Y2300000D01*
X7300000Y2240000D01*
X7880000D01*
X7884260Y2244260D01*
X7885740D01*
Y2245740D01*
X7910000Y2270000D01*
Y2760000D01*
X7880000Y2790000D01*
X7740000D01*
X7690000Y2840000D01*
Y2910000D01*
X7730000Y2950000D01*
G37*
%LPC*%
G75*
G36*
G01X2531090Y1353440D02*
X2550170D01*
Y1365640D01*
X2549380Y1367520D01*
G02X2543860Y1395000I65621J27476D01*
G02X2686140I71140J0D01*
G02X2675940Y1358290I-71141J-5D01*
G02X2685740Y1330000I-35933J-28290D01*
G01Y1270000D01*
G02X2640000Y1224260I-45740J0D01*
G01X2590000D01*
G02X2558790Y1236560I0J45746D01*
G01X2530820D01*
G02X2495000Y1219260I-35820J28433D01*
G01X2385000D01*
G02X2339260Y1265000I0J45740D01*
G01Y1325000D01*
G02X2385000Y1370740I45740J0D01*
G01X2495000D01*
G02X2528080Y1356580I-7J-45737D01*
G01X2531090Y1353440D01*
G37*
G36*
G01X1031050Y1575740D02*
X1045200D01*
X1046400Y1576040D01*
G02X1085000Y1580740I38586J-156042D01*
G02X1123600Y1576040I14J-160742D01*
G01X1124800Y1575740D01*
X1428950D01*
X1545740Y1458950D01*
Y815740D01*
X2068950D01*
X2125740Y758950D01*
Y498440D01*
X2185790D01*
X2191560Y504210D01*
Y664180D01*
G02X2174260Y700000I28433J35820D01*
G01Y750000D01*
G02X2178860Y770000I45742J8D01*
G02X2174260Y790000I41142J19992D01*
G01Y840000D01*
G02X2177420Y856710I45741J4D01*
G03X2172660Y869440I-9454J3720D01*
G02X2148060Y910000I21137J40560D01*
G01Y990000D01*
G02X2149980Y1003110I45740J-3D01*
G03X2130510Y1029260I-19466J5830D01*
G01X2125000D01*
G02X2079260Y1075000I0J45740D01*
G01Y1135000D01*
G02X2125000Y1180740I45740J0D01*
G01X2235000D01*
G02X2280740Y1135000I0J-45740D01*
G01Y1111010D01*
G02X2292240Y1076200I-46934J-34810D01*
G01Y1035740D01*
X2327760D01*
Y1076200D01*
G02X2339260Y1111010I58434J0D01*
G01Y1135000D01*
G02X2385000Y1180740I45740J0D01*
G01X2495000D01*
G02X2540740Y1135000I0J-45740D01*
G01Y1075000D01*
G02X2540530Y1070670I-45738J48D01*
G01X2540080Y1065900D01*
X2550650Y1055330D01*
X2601050Y1105740D01*
X3704260D01*
Y1140000D01*
G02X3714340Y1168640I45727J0D01*
G03Y1181360I-7927J6360D01*
G02X3704260Y1210000I35647J28640D01*
G01Y1260000D01*
G02X3750000Y1305740I45740J0D01*
G01X3810000D01*
G02X3855740Y1260000I0J-45740D01*
G01Y1210000D01*
G02X3853850Y1197000I-45738J12D01*
G03X3873330Y1170900I19482J-5779D01*
G01X4005000D01*
G02X4044530Y1154530I0J-55913D01*
G01X4058310Y1140740D01*
X4145000D01*
G02X4190740Y1095000I0J-45740D01*
G01Y1055740D01*
X4195740D01*
Y834350D01*
X4212180D01*
X4214990Y839970D01*
G02X4225470Y854530I50022J-24953D01*
G01X4249260Y878310D01*
Y905000D01*
G02X4295000Y950740I45740J0D01*
G01X4405000D01*
G02X4450740Y905000I0J-45740D01*
G01Y845000D01*
G02X4405000Y799260I-45740J0D01*
G01X4353290D01*
G03X4333820Y773110I-4J-20320D01*
G02X4335740Y760000I-43820J-13113D01*
G01Y738160D01*
X4348280Y732960D01*
X4351050Y735740D01*
X4614100D01*
Y938370D01*
G03X4586470Y957330I-20320J0D01*
G02X4570000Y954260I-16475J42669D01*
G01X4510000D01*
G02X4464260Y1000000I0J45740D01*
G01Y1018440D01*
X4448060D01*
X4445180Y1013140D01*
G02X4405000Y989260I-40180J21863D01*
G01X4295000D01*
G02X4249260Y1035000I0J45740D01*
G01Y1095000D01*
G02X4295000Y1140740I45740J0D01*
G01X4371680D01*
X4385460Y1154530D01*
G02X4424990Y1170900I39530J-39543D01*
G01X4446670D01*
G03X4466150Y1197000I-2J20321D01*
G02X4464260Y1210000I43848J13012D01*
G01Y1260000D01*
G02X4510000Y1305740I45740J0D01*
G01X4570000D01*
G02X4615740Y1260000I0J-45740D01*
G01Y1210000D01*
G02X4615650Y1207190I-45738J58D01*
G03X4637190Y1185650I20284J-1256D01*
G02X4640000Y1185740I2868J-45648D01*
G01X4700000D01*
G02X4745740Y1140000I0J-45740D01*
G01Y1090000D01*
G02X4741140Y1070000I-45742J-8D01*
G02X4745740Y1050000I-41142J-19992D01*
G01Y1000000D01*
G02X4725900Y962300I-45739J0D01*
G01Y735740D01*
X5128950D01*
X5195740Y668950D01*
Y391050D01*
X5128950Y324260D01*
X4568950D01*
X4498950Y254260D01*
X4274260D01*
Y654260D01*
X4195740D01*
Y251050D01*
X4128950Y184260D01*
X3694260D01*
Y445740D01*
X3891050D01*
X3904260Y458950D01*
Y700520D01*
G03X3869570Y714890I-20321J0D01*
G01X3848950Y694260D01*
X3208950D01*
X3195740Y681050D01*
Y291050D01*
X3128950Y224260D01*
X2484260D01*
Y381560D01*
X2410000D01*
G02X2368680Y398680I6J58438D01*
G01X2328680Y438680D01*
G02X2325480Y442140I41268J41376D01*
G03X2294520I-15480J-13160D01*
G02X2291320Y438680I-44468J37916D01*
G01X2251320Y398680D01*
G02X2210000Y381560I-41326J41318D01*
G01X2125740D01*
Y234260D01*
X1581050D01*
X1514260Y301050D01*
Y520520D01*
G03X1479570Y534890I-20321J0D01*
G01X1468950Y524260D01*
X1214260D01*
Y795380D01*
G03X1181710Y811610I-20320J2D01*
G02X1085000Y779260I-96710J128382D01*
G02Y1100740I0J160740D01*
G02X1181710Y1068390I0J-160732D01*
G03X1214260Y1084620I12230J16228D01*
G01Y1201050D01*
X1161050Y1254260D01*
X1021050D01*
X924260Y1351050D01*
Y1468950D01*
X936240Y1480930D01*
X937010Y1482750D01*
G02X1022250Y1567990I147990J-62750D01*
G01X1024070Y1568760D01*
X1031050Y1575740D01*
G37*
G54D50*
X1920000Y4720000D03*
G54D53*
X1795000Y4700000D03*
X2765000Y4690000D03*
G54D59*
X2680000Y4850000D03*
G54D58*
X2665000Y4695000D03*
G54D60*
X2765000Y4850000D03*
G54D52*
X1900000Y4865000D03*
G54D51*
X1800000Y4860000D03*
G54D57*
X1920000Y5125000D03*
X2770000Y5265000D03*
G54D56*
X1815000Y5125000D03*
X2675000Y5265000D03*
G54D55*
X1920000Y5245000D03*
X2770000Y5135000D03*
G54D54*
X1815000Y5250000D03*
G54D49*
X6155000Y5260000D03*
X7155000D03*
G54D61*
X2675000Y5135000D03*
G54D48*
X5220000Y4580000D03*
X5470000D03*
%LPD*%
G75*
G36*
G01X970000Y1450000D02*
X1050000Y1530000D01*
X1410000D01*
X1500000Y1440000D01*
Y620000D01*
X1450000Y570000D01*
X1260000D01*
Y1220000D01*
X1180000Y1300000D01*
X1040000D01*
X970000Y1370000D01*
Y1450000D01*
G37*
G36*
G01X1560000Y320000D02*
Y770000D01*
X2050000D01*
X2080000Y740000D01*
Y280000D01*
X1600000D01*
X1560000Y320000D01*
G37*
G36*
G01X2620000Y1060000D02*
X3715470D01*
G03X3750000Y1044260I34530J30006D01*
G01X3810000D01*
G03X3843720Y1059100I0J45730D01*
G01X3950900D01*
X3992850Y1017150D01*
X3993600Y1015540D01*
G03X4035000Y989260I41400J19470D01*
G01X4150000D01*
Y950740D01*
X4035000D01*
G03X3989260Y905000I0J-45740D01*
G01Y899260D01*
X3830000Y740000D01*
X3190000D01*
X3150000Y700000D01*
Y310000D01*
X3110000Y270000D01*
X2530000D01*
Y970000D01*
X2620000Y1060000D01*
G37*
G36*
G01X4038950Y884260D02*
X4150000D01*
Y270000D01*
X4110000Y230000D01*
X3740000D01*
Y400000D01*
X3910000D01*
X3950000Y440000D01*
Y770000D01*
X4030000Y850000D01*
Y875310D01*
X4038950Y884260D01*
G37*
G36*
G01X4480000Y300000D02*
X4320000D01*
Y640000D01*
X4370000Y690000D01*
X5110000D01*
X5150000Y650000D01*
Y410000D01*
X5110000Y370000D01*
X4550000D01*
X4480000Y300000D01*
G37*
G54D10*
X360000Y360000D03*
Y5040000D03*
X8140000Y360000D03*
Y5040000D03*
G54D11*
X163000Y755000D03*
Y2085000D03*
X950000Y3519000D03*
Y4281000D03*
G54D20*
X1995320Y3820000D03*
Y3870000D03*
Y3920000D03*
Y3970000D03*
Y4020000D03*
X2485320Y3870000D03*
Y3820000D03*
Y4020000D03*
Y3970000D03*
Y3920000D03*
X3735320Y2541840D03*
Y2591860D03*
Y2641840D03*
Y2691860D03*
Y2741840D03*
Y2791860D03*
Y2841840D03*
Y2891860D03*
Y2941840D03*
Y2991860D03*
Y3041840D03*
Y3091860D03*
X4585320Y2741840D03*
Y2691860D03*
Y2641840D03*
Y2591860D03*
Y2541840D03*
Y3091860D03*
Y3041840D03*
Y2991860D03*
Y2941840D03*
Y2891860D03*
Y2841840D03*
Y2791860D03*
G54D12*
G01X2130000Y4180000D02*
X2100000Y4150000D01*
X1870000D01*
X1830000Y4190000D01*
Y4380000D01*
X2050000Y4600000D01*
Y4670000D01*
G01D02*
Y4780000D01*
X2140000Y4870000D01*
X2430000D01*
X2530000Y4770000D01*
Y4670000D01*
G01X5895000Y5290000D02*
X5770000D01*
G01X5986200Y3230000D02*
X6080000D01*
G01D02*
X6410000D01*
G01X5895000Y5290000D02*
X6020000D01*
G01X6645000D02*
X6500000D01*
G01X6895000D02*
X7030000D01*
G01X6895000D02*
X6645000D01*
G01X7645000D02*
X7780000D01*
G01X7645000D02*
X7510000D01*
X319920Y2528880D03*
Y2928880D03*
Y3328880D03*
Y3728880D03*
Y4128880D03*
X600700Y1035090D03*
Y1435090D03*
Y1835090D03*
X1109610Y140650D03*
X1200000Y4750000D03*
Y5180000D03*
X1509610Y140650D03*
X1899610Y130650D03*
X1980000Y730000D03*
X1840000Y3880000D03*
X1620000Y4800000D03*
X2299610Y130650D03*
X2019610Y2210650D03*
Y2610650D03*
Y3010650D03*
Y3410650D03*
X2160000Y3880000D03*
X2030000Y4280000D03*
X2100000Y5190000D03*
X2739610Y120650D03*
X2419610Y1560650D03*
X2615000Y1395000D03*
X2419610Y1880650D03*
Y2210650D03*
Y2610650D03*
Y3010650D03*
Y3410650D03*
X2620000Y3800000D03*
X2440000Y4280000D03*
Y4120000D03*
X2725000Y4150000D03*
X2440000Y5190000D03*
X2910000Y330000D03*
X2810000D03*
X2910000Y430000D03*
X2810000D03*
X3110000Y330000D03*
X3010000D03*
X3110000Y430000D03*
X3010000D03*
X2810000Y530000D03*
X2910000D03*
X3010000D03*
X3110000D03*
X2819610Y1560650D03*
X2989610Y1260650D03*
X2819610Y1880650D03*
X2915000Y1715000D03*
X3040000Y2280000D03*
X2985520Y2847110D03*
Y3247110D03*
X2860000Y4410000D03*
X3000000Y4800000D03*
X3139610Y120650D03*
X3240000Y650000D03*
X3330000D03*
X3389610Y1260650D03*
X3425000Y2420000D03*
Y2905000D03*
X3236370Y4239830D03*
X3438540Y5157060D03*
X3870000Y650000D03*
Y560000D03*
X3599610Y1550650D03*
X3700000Y1840000D03*
X3810000Y2190000D03*
X3710000Y2060000D03*
X3570000Y2640000D03*
Y2420000D03*
X3720000D03*
X3570000Y2860000D03*
Y3100000D03*
X3750000Y3350000D03*
X3735320Y3175320D03*
X3755000Y3485000D03*
X3636370Y4239830D03*
X3838540Y5157060D03*
X3959610Y110650D03*
X4220000Y930000D03*
Y1020000D03*
Y1200000D03*
Y1110000D03*
X4130000Y1200000D03*
X4040000D03*
X3999610Y1550650D03*
X4040000Y1290000D03*
X4130000D03*
X4220000D03*
X3930000Y1840000D03*
X4140000Y1930000D03*
X3980000Y2260000D03*
X4140000Y2120000D03*
X3960000Y2590000D03*
X4100000D03*
X3960000Y2890000D03*
Y3060000D03*
X4120000D03*
X4010000Y3370000D03*
X4050000Y3620000D03*
Y3780000D03*
X4238540Y5157060D03*
X4359610Y110650D03*
X4500000Y790000D03*
X4590000D03*
X4500000Y880000D03*
X4590000D03*
X4400000Y1200000D03*
X4310000D03*
X4400000Y1290000D03*
X4310000D03*
X4410000Y1840000D03*
X4310000Y1735000D03*
X4300000Y2120000D03*
X4470000Y2035000D03*
X4435330Y2275330D03*
X4300000Y2560000D03*
X4461860Y2691860D03*
Y2791860D03*
X4444430Y3690700D03*
X4450000Y4080000D03*
X4638540Y5157060D03*
X4739610Y110650D03*
X4950000Y650000D03*
Y550000D03*
X4850000D03*
Y650000D03*
X4750000Y550000D03*
Y650000D03*
X4962260Y915290D03*
Y1315290D03*
Y1715290D03*
X4960000Y2720000D03*
X4710000Y2670000D03*
X4708160Y2741840D03*
X4750000Y2980000D03*
X4855000Y3235000D03*
X4724430Y3690700D03*
X4730000Y4080000D03*
X5038540Y5157060D03*
X5139610Y110650D03*
X5362260Y915290D03*
Y1315290D03*
Y1715290D03*
X5310000Y2720000D03*
Y2980000D03*
Y3160000D03*
X5164430Y3700700D03*
X5170000Y4090000D03*
X5609610Y110650D03*
X5762260Y915290D03*
Y1315290D03*
Y1715290D03*
X5800000Y2800000D03*
X5690000D03*
X5800000Y2950000D03*
X5491600Y3088400D03*
X5778420Y3970260D03*
Y4370260D03*
X5438540Y5157060D03*
X6009610Y110650D03*
X6130000Y2330000D03*
X6080000Y2270000D03*
X6132810Y2208330D03*
X5820000Y2420000D03*
Y2550000D03*
X6080000Y2680000D03*
Y2550000D03*
X6180000Y2900000D03*
X6080000Y3230000D03*
X6178420Y3970260D03*
Y4370260D03*
X6479610Y110650D03*
X6420000Y1890000D03*
X6320000D03*
X6420000Y1990000D03*
X6320000D03*
Y2090000D03*
X6420000D03*
Y3410000D03*
X6320000D03*
X6420000Y3510000D03*
X6320000D03*
X6420000Y3610000D03*
X6320000D03*
X6931520Y383660D03*
X6879610Y110650D03*
X6931520Y783660D03*
Y1183660D03*
X6578420Y3970260D03*
Y4370260D03*
X6978420Y3970260D03*
Y4370260D03*
X7331520Y383660D03*
Y783660D03*
Y1183660D03*
X7378420Y3970260D03*
Y4370260D03*
X7904920Y915290D03*
Y1315290D03*
Y1715290D03*
X7778420Y3970260D03*
Y4370260D03*
X8304920Y915290D03*
Y1315290D03*
Y1715290D03*
X8178420Y3970260D03*
Y4370260D03*
G54D21*
X1970000Y4670000D03*
X2050000D03*
X2530000D03*
X2610000D03*
G54D30*
X3060000Y1980000D03*
G54D40*
X6300000Y2485000D03*
Y2535000D03*
Y2585000D03*
Y2635000D03*
Y2685000D03*
Y2735000D03*
Y2785000D03*
Y2835000D03*
Y2885000D03*
Y2935000D03*
Y2985000D03*
Y3035000D03*
X7000000Y2735000D03*
Y2685000D03*
Y2635000D03*
Y2585000D03*
Y2535000D03*
Y2485000D03*
Y3035000D03*
Y2985000D03*
Y2935000D03*
Y2885000D03*
Y2835000D03*
Y2785000D03*
G54D13*
X800000Y2670000D03*
X1400000D03*
G54D22*
X1858000Y4774000D03*
X2722000D03*
G54D31*
X3435000Y310000D03*
X3785000D03*
G54D41*
X6525000Y2410000D03*
X6475000D03*
X6425000D03*
X6375000D03*
Y3110000D03*
X6425000D03*
X6475000D03*
X6525000D03*
X6925000Y2410000D03*
X6875000D03*
X6825000D03*
X6775000D03*
X6725000D03*
X6675000D03*
X6625000D03*
X6575000D03*
Y3110000D03*
X6625000D03*
X6675000D03*
X6725000D03*
X6775000D03*
X6825000D03*
X6875000D03*
X6925000D03*
G54D14*
X1085000Y940000D03*
Y1420000D03*
Y1900000D03*
G54D32*
X3480000Y550000D03*
Y830000D03*
X3730000Y550000D03*
Y830000D03*
G54D23*
X1858000Y5192000D03*
X2722000D03*
G54D42*
X6650000Y2760000D03*
G54D15*
X1120000Y2190000D03*
G54D33*
X3390000Y1980000D03*
Y2200000D03*
X5080000Y620000D03*
G54D24*
X2180000Y1105000D03*
Y1200000D03*
Y1295000D03*
X2440000Y1105000D03*
Y1295000D03*
X4090000Y875000D03*
Y970000D03*
Y1065000D03*
X4350000Y875000D03*
Y1065000D03*
Y970000D03*
G54D16*
X1310000Y390000D03*
X1640000Y670000D03*
X1360000D03*
X1690000Y390000D03*
G54D25*
X2233800Y950000D03*
X2386200D03*
X4600000Y426200D03*
Y273800D03*
X4760000Y426200D03*
Y273800D03*
X4920000Y426200D03*
Y273800D03*
X5080000Y426200D03*
Y273800D03*
X5593800Y3088400D03*
X5746200D03*
X5833800Y3230000D03*
X5986200D03*
G54D43*
G01X4090000Y970000D02*
X3960000D01*
X6430000Y2760000D03*
Y2540000D03*
Y2650000D03*
X6540000D03*
Y2540000D03*
Y2760000D03*
X6430000Y2980000D03*
Y2870000D03*
X6540000D03*
Y2980000D03*
X6650000Y2760000D03*
X6870000D03*
X6650000Y2540000D03*
X6870000D03*
Y2650000D03*
X6650000D03*
X6760000D03*
Y2540000D03*
Y2760000D03*
X6650000Y2980000D03*
X6870000D03*
Y2870000D03*
X6650000D03*
X6760000D03*
Y2980000D03*
G54D34*
X3810000Y1990000D03*
X3930000D03*
X4050000D03*
G54D44*
X7760000Y2375000D03*
G54D35*
X3756000Y4516500D03*
G54D17*
X1620000Y4885000D03*
Y4975000D03*
X1500000Y4885000D03*
Y4975000D03*
X1920000Y4235000D03*
Y4325000D03*
X2370000Y725000D03*
Y815000D03*
X2250000Y725000D03*
Y815000D03*
X2550000Y4235000D03*
Y4325000D03*
X3000000Y1715000D03*
Y1805000D03*
X3120000D03*
Y1715000D03*
X3000000Y4975000D03*
Y4885000D03*
X3120000Y4975000D03*
Y4885000D03*
X3240000Y1715000D03*
Y1805000D03*
X3780000Y1115000D03*
Y1025000D03*
Y1235000D03*
Y1325000D03*
X3850000Y3485000D03*
Y3575000D03*
X4220000Y1945000D03*
Y1825000D03*
Y1735000D03*
Y2035000D03*
X4670000Y1025000D03*
Y1115000D03*
X4540000Y1025000D03*
Y1115000D03*
Y1235000D03*
Y1325000D03*
X4380000Y1945000D03*
Y2035000D03*
G54D26*
X2350000Y4200000D03*
G54D45*
X7760000Y2625000D03*
Y3125000D03*
Y2875000D03*
G54D18*
X1520000Y5120000D03*
Y5280000D03*
X1600000Y5120000D03*
Y5280000D03*
X3020000Y5120000D03*
Y5280000D03*
X3100000Y5120000D03*
Y5280000D03*
G54D36*
X3883000Y4643500D03*
Y4516500D03*
X3756000Y4643500D03*
X4264000D03*
Y4516500D03*
X4137000Y4643500D03*
Y4516500D03*
X4010000Y4643500D03*
Y4516500D03*
X4970000Y4580000D03*
X5220000D03*
X5470000D03*
G54D27*
X2130000Y4180000D03*
X2350000Y4380000D03*
X2130000D03*
X3040000Y2200000D03*
X3240000Y1980000D03*
Y2200000D03*
G54D46*
G01X1520000Y5280000D02*
X1420000Y5180000D01*
Y4820000D01*
X1750000Y4490000D01*
Y3820000D01*
X1820000Y3750000D01*
X2160000D01*
X2380000Y3970000D01*
X2485320D01*
G01Y3920000D02*
X2400720D01*
X2180720Y3700000D01*
X1780000D01*
X1680000Y3800000D01*
Y4490000D01*
X1370000Y4800000D01*
Y5270000D01*
X1450000Y5350000D01*
X1545930D01*
X1600000Y5295930D01*
Y5280000D01*
G01Y5120000D02*
Y4995000D01*
X1620000Y4975000D01*
G01X1520000Y5120000D02*
Y4995000D01*
X1500000Y4975000D01*
G01X2115000Y4670000D02*
Y4520000D01*
X1920000Y4325000D01*
G01X3240000Y2200000D02*
X3160000Y2120000D01*
X2230000D01*
X2180000Y2070000D01*
Y1295000D01*
G01X2189680Y4380000D02*
X2190000D01*
X2220000Y4350000D01*
Y4057480D01*
X2177840Y4015320D01*
X2098500D01*
X2093820Y4020000D01*
X1995320D01*
G01X2290320Y4380000D02*
X2290000D01*
X2260640Y4350640D01*
Y4040640D01*
X2194680Y3974680D01*
X2098500D01*
X2093820Y3970000D01*
X1995320D01*
G01X2130000Y4380000D02*
X2189680D01*
G01D02*
X2219680Y4410000D01*
Y4566820D01*
X2215000Y4571500D01*
Y4670000D01*
G01X2350000Y4380000D02*
X2290320D01*
G01D02*
X2260320Y4410000D01*
Y4566820D01*
X2265000Y4571500D01*
G01D02*
Y4670000D01*
G01Y4571500D02*
X2266500Y4570000D01*
X2350000D01*
X2365000Y4585000D01*
Y4670000D01*
G01X2215000D02*
Y4765630D01*
X2229370Y4780000D01*
X2300000D01*
X2315000Y4765000D01*
Y4670000D01*
G01X2485320Y3920000D02*
X2590000D01*
X2725000Y3785000D01*
Y3780000D01*
G01Y3920000D02*
X2675000Y3970000D01*
X2485320D01*
G01X2550000Y4325000D02*
X2415000Y4460000D01*
Y4670000D01*
G01X3000000Y1715000D02*
X2915000D01*
G01X3120000Y1805000D02*
X3000000D01*
G01X3240000D02*
X3120000D01*
G01X4050000Y3780000D02*
X2815000D01*
G01X4010000Y3990000D02*
X3940000Y3920000D01*
X2815000D01*
G01X3120000Y4885000D02*
X4265000D01*
X4344480Y4805520D01*
Y4444480D01*
X4235330Y4335330D01*
Y3241850D01*
G01X3100000Y5120000D02*
Y4995000D01*
X3120000Y4975000D01*
G01X3020000Y5120000D02*
Y4995000D01*
X3000000Y4975000D01*
G01X3390000Y1980000D02*
X3240000D01*
G01D02*
Y1805000D01*
G01X3390000Y1980000D02*
Y1700000D01*
X3440000Y1650000D01*
X4460000D01*
X4540000Y1730000D01*
Y2080000D01*
X4335330Y2284670D01*
Y2391850D01*
G01X3240000Y2200000D02*
X3390000D01*
G01D02*
X3460000Y2270000D01*
X3874390D01*
X3935330Y2330940D01*
Y2391850D01*
G01X3735320Y2741840D02*
X3426840D01*
X3425000Y2740000D01*
G01X3780000Y1235000D02*
Y1115000D01*
G01D02*
X4005000D01*
X4055000Y1065000D01*
X4090000D01*
G01X4085310Y2391850D02*
Y2245310D01*
X3970000Y2130000D01*
X3860000D01*
X3810000Y2080000D01*
Y1990000D01*
G01X6490000Y5090000D02*
X6370770Y4970770D01*
X4680770D01*
X4580000Y4870000D01*
Y3260290D01*
X4339710Y3020000D01*
X4230000D01*
X4140000Y2930000D01*
Y2750000D01*
X4081860Y2691860D01*
X3735320D01*
G01Y3091860D02*
Y3175320D01*
G01X4175000Y730000D02*
X4120000D01*
G01X4265000D02*
Y815000D01*
X4325000Y875000D01*
X4350000D01*
G01X4220000Y2035000D02*
X4225010D01*
X4290000Y1970010D01*
Y1890000D01*
X4225000Y1825000D01*
X4220000D01*
G01X4135330Y2391850D02*
Y2225320D01*
X4050000Y2139990D01*
Y1990000D01*
G01X4220000Y2035000D02*
Y2180000D01*
X4185310Y2214690D01*
Y2391850D01*
G01X7490000Y5090000D02*
X7334850Y4934850D01*
X4695140D01*
X4615560Y4855270D01*
Y3245560D01*
X4350000Y2980000D01*
X4250000D01*
X4185310Y2915310D01*
Y2391850D01*
G01X3985310Y3241850D02*
Y3345310D01*
X4010000Y3370000D01*
G01X4185310Y3241850D02*
Y3814690D01*
X4010000Y3990000D01*
G01X4135330Y3241850D02*
Y3694670D01*
X4050000Y3780000D01*
G01X4010000Y4516500D02*
Y3990000D01*
G01X4670000Y1025000D02*
X4540000D01*
G01Y1235000D02*
Y1115000D01*
G01D02*
X4670000D01*
G01X4350000Y1065000D02*
X4374990D01*
X4424990Y1115000D01*
X4540000D01*
G01X5995000Y2290000D02*
X5955400Y2329600D01*
Y2330530D01*
X5940530Y2345400D01*
X5939600D01*
X5935000Y2350000D01*
X4599710D01*
X4362230Y2587480D01*
Y2882230D01*
X4471860Y2991860D01*
X4585320D01*
G01X4435330Y2391850D02*
Y2275330D01*
G01X4300000Y2560000D02*
X4385310Y2474690D01*
Y2391850D01*
G01X4585320Y2641840D02*
X4681840D01*
X4710000Y2670000D01*
G01X4585320Y2591860D02*
X5361860D01*
X5650000Y2880000D01*
X5925930D01*
X5995000Y2810930D01*
Y2810000D01*
G01X4585320Y2691860D02*
X4461860D01*
G01X4585320Y2741840D02*
X4708160D01*
G01X5994780Y2420000D02*
X5955180Y2459600D01*
Y2460530D01*
X5940310Y2475400D01*
X5939380D01*
X5934780Y2480000D01*
X4520000D01*
X4400000Y2600000D01*
Y2849260D01*
X4492580Y2941840D01*
X4585320D01*
G01Y2541840D02*
X5431840D01*
X5510000Y2620000D01*
X6140000D01*
X6205000Y2685000D01*
X6300000D01*
G01X4585320Y2841840D02*
X5511840D01*
X5680000Y3010000D01*
X5935930D01*
X5995000Y2950930D01*
Y2950000D01*
G01X4585320Y2791860D02*
X4461860D01*
G01X4670000Y1025000D02*
Y670000D01*
G01X5310000Y3160000D02*
X5940000D01*
X5994780Y3105220D01*
Y3088400D01*
G01X5785000Y2680000D02*
X5905000D01*
G01X5593800Y3088400D02*
X5491600D01*
G01X5746200D02*
X5904780D01*
G01X6130000Y2330000D02*
X6404680D01*
X6425000Y2350320D01*
Y2410000D01*
G01X6080000Y2270000D02*
X6430720D01*
X6475000Y2314280D01*
Y2410000D01*
G01X6300000Y2535000D02*
X6245000D01*
X6000000Y2290000D01*
X5995000D01*
G01X6132810Y2208330D02*
X6439770D01*
X6525000Y2293560D01*
Y2410000D01*
G01X5905000Y2680000D02*
Y2680930D01*
X5959470Y2735400D01*
X6056370D01*
X6056850Y2735880D01*
X6103150D01*
X6103630Y2735400D01*
X6299600D01*
X6300000Y2735000D01*
G01X5995000Y2680000D02*
X6080000D01*
G01X6300000Y2635000D02*
X6205290D01*
X6154730Y2584440D01*
X6154450D01*
X6120010Y2550000D01*
X6080000D01*
G01D02*
X5995000D01*
G01X6300000Y2585000D02*
X6215000D01*
X6050000Y2420000D01*
X5994780D01*
G01X6300000Y2835000D02*
X6020000D01*
X5995000Y2810000D01*
G01X6300000Y2785000D02*
X6020000D01*
X5995000Y2810000D01*
G01X6300000Y2935000D02*
X6225000D01*
X6150000Y3010000D01*
X6055000D01*
X5995000Y2950000D01*
G01X5994780Y3088400D02*
X6151600D01*
X6255000Y2985000D01*
X6300000D01*
G01Y2885000D02*
X6195000D01*
X6180000Y2900000D01*
G54D19*
X1990000Y440000D03*
X2630000D03*
X5970000Y2020000D03*
Y3500000D03*
X6610000Y2020000D03*
Y3500000D03*
G54D37*
X4035000Y430000D03*
X4405000D03*
G54D28*
X2115000Y4670000D03*
X2165000D03*
X2215000D03*
X2265000D03*
X2315000D03*
X2365000D03*
X2415000D03*
X2465000D03*
X3885310Y2391850D03*
Y3241850D03*
X4235330Y2391850D03*
X4185310D03*
X4135330D03*
X4085310D03*
X4035330D03*
X3985310D03*
X3935330D03*
Y3241850D03*
X3985310D03*
X4035330D03*
X4085310D03*
X4135330D03*
X4185310D03*
X4235330D03*
X4435330Y2391850D03*
X4385310D03*
X4335330D03*
X4285310D03*
Y3241850D03*
X4335330D03*
X4385310D03*
X4435330D03*
G54D47*
G01X1500000Y4885000D02*
X1620000D01*
G01X1995320Y3920000D02*
X1890000D01*
G01X1620000Y4885000D02*
Y4800000D01*
G01X1990000Y440000D02*
X2210000D01*
X2250000Y480000D01*
Y725000D01*
G01Y815000D02*
Y933800D01*
X2233800Y950000D01*
G01X2630000Y440000D02*
X2410000D01*
X2370000Y480000D01*
Y725000D01*
G01Y815000D02*
Y933800D01*
X2386200Y950000D01*
G01X2233800D02*
Y1076200D01*
X2205000Y1105000D01*
X2180000D01*
G01X2120000Y3900000D02*
X2100000Y3920000D01*
X1995320D01*
G01X2386200Y950000D02*
Y1076200D01*
X2415000Y1105000D01*
X2440000D01*
G01Y1295000D02*
X2610000D01*
X2615000Y1300000D01*
G01D02*
Y1395000D01*
G01X2485320Y3870000D02*
X2550000D01*
X2620000Y3800000D01*
G01X2485320Y4020000D02*
X2685000D01*
X2725000Y4060000D01*
G01D02*
Y4150000D01*
G01X3040000Y2200000D02*
Y2280000D01*
G01X3000000Y4885000D02*
Y4800000D01*
G01X3100000Y5280000D02*
X3190000D01*
G01X3020000D02*
X2930000D01*
G01X3020000D02*
Y5350000D01*
G01X3100000Y5280000D02*
Y5350000D01*
G01X3735320Y2541840D02*
X3466840D01*
X3425000Y2500000D01*
G01D02*
Y2420000D01*
G01X3735320Y2991860D02*
X3426860D01*
X3425000Y2990000D01*
G01D02*
Y2905000D01*
G01X3620000Y2620000D02*
X3648140Y2591860D01*
X3735320D01*
G01X3908140D02*
X3735320D01*
G01Y2541840D02*
X3737160Y2540000D01*
X3850000D01*
X3885310Y2504690D01*
Y2391850D01*
G01Y3241850D02*
Y3449690D01*
X3850000Y3485000D01*
G01D02*
X3755000D01*
G01X3850000Y3575000D02*
X3854520D01*
X3935330Y3494190D01*
G01X4220000Y1735000D02*
X4310000D01*
G01X4300000Y2120000D02*
Y2170000D01*
X4235330Y2234670D01*
Y2391850D01*
G01X4250000Y2650000D02*
X4235330Y2635330D01*
Y2391850D01*
G01X3910000Y2590000D02*
X3908140Y2591860D01*
G01X3940000Y3110000D02*
X3935330Y3114670D01*
G01D02*
Y3241850D01*
G01Y3494190D02*
Y3241850D01*
G01X4380000Y1945000D02*
X4375480D01*
G01D02*
X4300000Y2020480D01*
Y2120000D01*
G01X4380000Y2035000D02*
Y2180000D01*
X4285310Y2274690D01*
Y2391850D01*
G01X4470000Y2035000D02*
X4380000D01*
G01X4710000Y2910000D02*
X4691860Y2891860D01*
X4585320D01*
G01X4851360Y3041840D02*
X4585320D01*
G01Y3091860D02*
X4806860D01*
X4855000Y3140000D01*
G01X4945000D02*
Y3135480D01*
X4851360Y3041840D01*
G01X4855000Y3140000D02*
Y3235000D01*
G01X5904780Y2420000D02*
X5820000D01*
G01X5905000Y2550000D02*
X5820000D01*
G01X5905000Y2950000D02*
X5800000D01*
G01X6410000Y3230000D02*
X6475000Y3165000D01*
Y3110000D01*
G01X6540000Y2540000D02*
X6575000Y2505000D01*
G01X6430000Y2870000D02*
X6415000Y2885000D01*
G01D02*
X6300000D01*
G01X6640000Y3190000D02*
X6520000Y3310000D01*
G01X6575000Y3110000D02*
Y3175000D01*
X6400000Y3350000D01*
G01X6720000Y2310000D02*
X6725000Y2315000D01*
G01X6675000Y2410000D02*
Y2345000D01*
G01X6725000Y2410000D02*
Y2345000D01*
G01X6640000Y2300000D02*
X6675000Y2335000D01*
Y2345000D01*
G01X6725000D02*
X6700000Y2320000D01*
G01D02*
X6675000Y2345000D01*
G01X6725000Y2315000D02*
Y2345000D01*
G01X6830000Y2320000D02*
X6825000Y2325000D01*
G01Y2410000D02*
Y2355000D01*
G01X6875000Y2410000D02*
Y2355000D01*
G01D02*
Y2335000D01*
G01Y2355000D02*
X6850000Y2330000D01*
G01X6875000Y2335000D02*
Y2325000D01*
X6880000Y2320000D01*
G01X6875000Y2335000D02*
X6900000Y2310000D01*
G01X6825000Y2325000D02*
Y2355000D01*
G01X6850000Y2330000D02*
X6825000Y2355000D01*
G01X6870000Y2540000D02*
X6915000Y2585000D01*
G01X6870000Y2760000D02*
X6895000Y2735000D01*
G01X6575000Y2505000D02*
Y2410000D01*
G01X6915000Y2585000D02*
X7000000D01*
G01X6895000Y2735000D02*
X7000000D01*
G01X6760000Y2760000D02*
X6823500Y2823500D01*
X6896310D01*
G01X6870000Y2980000D02*
X6915000Y2935000D01*
G01X6896310Y2823500D02*
X6934810Y2785000D01*
X7000000D01*
G01X6915000Y2935000D02*
X7000000D01*
G01X6725000Y3110000D02*
Y3165000D01*
G01X6675000Y3110000D02*
Y3155000D01*
G01X6825000Y3170000D02*
Y3110000D01*
G01X6875000D02*
Y3160000D01*
G01X6730000Y3200000D02*
X6725000Y3195000D01*
G01X6670000Y3210000D02*
X6675000Y3205000D01*
G01X6700000Y3190000D02*
X6640000D01*
G01X6725000Y3165000D02*
X6700000Y3190000D01*
G01X6675000Y3155000D02*
Y3165000D01*
G01X6700000Y3190000D02*
X6675000Y3165000D01*
G01X6640000Y3190000D02*
X6675000Y3155000D01*
G01X6725000Y3195000D02*
Y3165000D01*
G01X6675000Y3205000D02*
Y3165000D01*
G01X6820000Y3210000D02*
X6825000Y3205000D01*
G01X6890000Y3210000D02*
X6875000Y3195000D01*
G01X7000000Y3190000D02*
X6845000D01*
G01X6825000Y3170000D02*
X6845000Y3190000D01*
G01D02*
X6875000Y3160000D01*
G01X6825000Y3205000D02*
Y3170000D01*
G01X6875000Y3195000D02*
Y3160000D01*
G01X7110000Y2690000D02*
X7105000Y2685000D01*
G01X7110000Y2620000D02*
X7095000Y2635000D01*
G01X7055000D02*
X7080000Y2660000D01*
G01X7055000Y2685000D02*
X7080000Y2660000D01*
G01X7000000Y2685000D02*
X7055000D01*
G01Y2635000D02*
X7100000Y2590000D01*
G01X7000000Y2635000D02*
X7055000D01*
G01X7080000Y2660000D02*
Y2430000D01*
G01X7095000Y2635000D02*
X7055000D01*
G01X7105000Y2685000D02*
X7055000D01*
G01X7080000Y2890000D02*
X7075000Y2885000D01*
G01X7055000D02*
X7070000Y2870000D01*
G01X7000000Y2885000D02*
X7055000D01*
G01Y2835000D02*
X7080000Y2860000D01*
G01X7000000Y2835000D02*
X7055000D01*
G01X7090000Y2840000D02*
X7085000Y2835000D01*
X7075000D01*
G01D02*
X7055000D01*
G01X7110000Y2800000D02*
X7075000Y2835000D01*
G01Y2885000D02*
X7055000D01*
G54D38*
X5895000Y5290000D03*
X6645000D03*
X6895000D03*
X7645000D03*
G54D29*
X2615000Y1300000D03*
X2705000D03*
X2725000Y3780000D03*
Y4060000D03*
Y3920000D03*
X2815000Y3780000D03*
Y4060000D03*
Y3920000D03*
X3335000Y2500000D03*
X3425000D03*
Y2740000D03*
X3335000D03*
Y2990000D03*
X3425000D03*
X4175000Y730000D03*
X4265000D03*
X4945000Y3140000D03*
X4855000D03*
X5695000Y2680000D03*
X5785000D03*
X5995000Y2290000D03*
X5905000D03*
Y2550000D03*
X5995000D03*
Y2680000D03*
X5905000D03*
X5994780Y2420000D03*
X5904780D03*
X5995000Y2810000D03*
X5905000D03*
X5995000Y2950000D03*
X5905000D03*
X5994780Y3088400D03*
X5904780D03*
G54D39*
X6050000Y5090000D03*
X6490000D03*
X7050000D03*
X7490000D03*
M02*
