G04 ================== begin FILE IDENTIFICATION RECORD ==================*
G04 Layout Name:  EG2124A_V10_220802.brd*
G04 Film Name:    BOTTOM*
G04 File Format:  Gerber RS274X*
G04 File Origin:  Cadence Allegro 17.2-S079*
G04 Origin Date:  Wed Aug 24 11:37:35 2022*
G04 *
G04 Layer:  ETCH/BOTTOM*
G04 Layer:  PIN/BOTTOM*
G04 Layer:  VIA CLASS/BOTTOM*
G04 *
G04 Offset:    (0.0000 0.0000)*
G04 Mirror:    No*
G04 Mode:      Positive*
G04 Rotation:  0*
G04 FullContactRelief:  No*
G04 UndefLineWidth:     0.1524*
G04 ================== end FILE IDENTIFICATION RECORD ====================*
%FSLAX55Y55*MOMM*%
%IR0*IPPOS*OFA0.00000B0.00000*MIA0B0*SFA1.00000B1.00000*%
%ADD11C,.508*%
%ADD19C,.762*%
%ADD21O,4.X2.*%
%ADD20O,2.X4.*%
%ADD18C,2.2*%
%ADD17C,1.3*%
%ADD13C,2.5*%
%ADD12C,1.7*%
%ADD16C,1.8*%
%ADD14C,6.35*%
%ADD10C,6.9*%
%ADD15R,1.8X1.8*%
%ADD22C,.2032*%
%ADD23C,.254*%
%ADD24C,2.*%
%ADD25C,1.27*%
%ADD26C,3.4148*%
G75*
%LPD*%
G75*
G36*
G01X360000Y6070000D02*
X9640000D01*
G02X9970000Y5740000I0J-330000D01*
G01Y3110000D01*
G02X9900000Y3040000I-70000J0D01*
G01X7860000D01*
G03X7849710Y3039110I6J-59999D01*
G02X7825900Y3059130I-3490J20018D01*
G01Y4740000D01*
G03X7809530Y4779530I-55913J0D01*
G01X7619490Y4969560D01*
G02X7633850Y5004260I14359J14379D01*
G01X8169630D01*
X8284260Y4889630D01*
Y4660000D01*
G03X8326950Y4556950I145737J6D01*
G01X8454260Y4429630D01*
Y4210000D01*
G03X8745740I145740J0D01*
G01Y4490000D01*
G03X8703050Y4593050I-145737J-6D01*
G01X8575740Y4720370D01*
Y4950000D01*
G03X8533050Y5053050I-145737J-6D01*
G01X8333050Y5253050D01*
G03X8230000Y5295740I-103056J-103047D01*
G01X7898470D01*
G02X7879260Y5322680I3J20321D01*
G03X7883840Y5350000I-79258J27331D01*
G03X7800000Y5433840I-83840J0D01*
G01X5430000D01*
G03X5370720Y5409280I7J-83837D01*
G01X5194930Y5233500D01*
X5183270Y5245160D01*
X5185310Y5251150D01*
G03X5188440Y5270000I-55307J18868D01*
G01Y5356050D01*
G03X5260740Y5473000I-58437J116950D01*
G03X5226730Y5560960I-130750J0D01*
G02X5235070Y5593810I15034J13667D01*
G03X5265740Y5637000I-15075J43190D01*
G01Y5817000D01*
G03X5220000Y5862740I-45740J0D01*
G01X5040000D01*
G03X4996810Y5832070I0J-45745D01*
G02X4963960Y5823730I-19183J6694D01*
G03X4876000Y5857740I-87960J-96740D01*
G03X4766080Y5797790I0J-130746D01*
G02X4731920I-17080J11003D01*
G03X4512080I-109920J-70796D01*
G02X4477920I-17080J11003D01*
G03X4258080I-109920J-70796D01*
G02X4223920I-17080J11003D01*
G03X4004080I-109920J-70796D01*
G02X3969920I-17080J11003D01*
G03X3750080I-109920J-70796D01*
G02X3715920I-17080J11003D01*
G03X3496080I-109920J-70796D01*
G02X3461920I-17080J11003D01*
G03X3242080I-109920J-70796D01*
G02X3207920I-17080J11003D01*
G03X2988080I-109920J-70796D01*
G02X2953920I-17080J11003D01*
G03X2734080I-109920J-70796D01*
G02X2699920I-17080J11003D01*
G03X2480080I-109920J-70796D01*
G02X2445920I-17080J11003D01*
G03X2226080I-109920J-70796D01*
G02X2191920I-17080J11003D01*
G03X1972080I-109920J-70796D01*
G02X1937920I-17080J11003D01*
G03X1718080I-109920J-70796D01*
G02X1683920I-17080J11003D01*
G03X1574000Y5857740I-109920J-70796D01*
G03X1469240Y5805220I0J-130741D01*
G01X1466190Y5801140D01*
X1460000D01*
G03X1409700Y5780300I0J-71123D01*
G01X1329700Y5700300D01*
G03X1308860Y5650000I50297J-50306D01*
G01Y5439470D01*
X1280530Y5411140D01*
X610000D01*
G03X559700Y5390300I0J-71123D01*
G01X239700Y5070300D01*
G03X218860Y5020000I50297J-50306D01*
G01Y1970000D01*
G03X239700Y1919700I71137J6D01*
G01X381640Y1777760D01*
G03X431940Y1756920I50306J50297D01*
G01X1070800D01*
Y728060D01*
G03X1091640Y677760I71123J0D01*
G01X1192700Y576700D01*
G03X1243000Y555860I50306J50297D01*
G01X1464310D01*
G03X1574000Y496260I109690J71139D01*
G03X1683920Y556210I0J130746D01*
G02X1718080I17080J-11003D01*
G03X1757210Y517080I109920J70790D01*
G02Y482920I-11003J-17080D01*
G03X1697260Y373000I70796J-109920D01*
G03X1828000Y242260I130740J0D01*
G03X1937920Y302210I0J130746D01*
G02X1972080I17080J-11003D01*
G03X2191920I109920J70796D01*
G02X2226080I17080J-11003D01*
G03X2445920I109920J70796D01*
G02X2480080I17080J-11003D01*
G03X2699920I109920J70796D01*
G02X2734080I17080J-11003D01*
G03X2953920I109920J70796D01*
G02X2988080I17080J-11003D01*
G03X3207920I109920J70796D01*
G02X3242080I17080J-11003D01*
G03X3461920I109920J70796D01*
G02X3496080I17080J-11003D01*
G03X3715920I109920J70796D01*
G02X3750080I17080J-11003D01*
G03X3969920I109920J70796D01*
G02X4004080I17080J-11003D01*
G03X4223920I109920J70796D01*
G02X4258080I17080J-11003D01*
G03X4477920I109920J70796D01*
G02X4512080I17080J-11003D01*
G03X4731920I109920J70796D01*
G02X4766080I17080J-11003D01*
G03X4985920I109920J70796D01*
G02X5020080I17080J-11003D01*
G03X5130000Y242260I109920J70796D01*
G03X5260740Y373000I0J130740D01*
G03X5226730Y460960I-130750J0D01*
G02X5235070Y493810I15034J13667D01*
G03X5265740Y537000I-15075J43190D01*
G01Y717000D01*
G03X5220000Y762740I-45740J0D01*
G01X5040000D01*
G03X4996810Y732070I0J-45745D01*
G02X4963960Y723730I-19183J6694D01*
G03X4938440Y741870I-87962J-96727D01*
G01Y800000D01*
G03X4921320Y841320I-58438J-6D01*
G01X4851320Y911320D01*
G03X4810000Y928440I-41326J-41318D01*
G01X1684210D01*
X1618440Y994210D01*
Y1111900D01*
G02X1653130Y1126260I20319J-4D01*
G01X1699700Y1079700D01*
G03X1750000Y1058860I50300J50283D01*
G01X4150000D01*
G03X4200300Y1079700I-6J71137D01*
G01X4340300Y1219700D01*
G03X4346440Y1226690I-50263J50343D01*
G02X4363120Y1225880I8059J-6185D01*
G03X4423500Y1192360I60380J37622D01*
G01X6613500D01*
G03X6663800Y1213200I-6J71137D01*
G01X6750300Y1299700D01*
G03X6771140Y1350000I-50283J50300D01*
G01Y1528860D01*
X7170000D01*
G03X7220300Y1549700I-6J71137D01*
G01X7370300Y1699700D01*
G03X7391140Y1750000I-50283J50300D01*
G01Y3490000D01*
G03X7370300Y3540300I-71137J-6D01*
G01X7230300Y3680300D01*
G03X7180000Y3701140I-50306J-50297D01*
G01X5460270D01*
X5401140Y3760270D01*
Y4454260D01*
X5498950D01*
X5545740Y4501050D01*
Y4718950D01*
X5498950Y4765740D01*
X5291050D01*
X5276450Y4751140D01*
X5000000D01*
G03X4949700Y4730300I6J-71137D01*
G01X4879700Y4660300D01*
G03X4858860Y4610000I50297J-50306D01*
G01Y3729470D01*
X4814030Y3684640D01*
X4436500D01*
G03Y3542360I0J-71140D01*
G01X4843500D01*
G03X4893800Y3563200I-6J71137D01*
G01X4919170Y3588560D01*
G02X4953860Y3574200I14371J-14364D01*
G01Y3530000D01*
G03X5025000Y3458860I71140J0D01*
G01X7110530D01*
X7148860Y3420530D01*
Y2459470D01*
X7105530Y2416140D01*
X5054470D01*
X4890300Y2580300D01*
G03X4840000Y2601140I-50306J-50297D01*
G01X4370000D01*
G03X4319700Y2580300I6J-71137D01*
G01X4239700Y2500300D01*
G03X4218860Y2450000I50283J-50300D01*
G01Y1299470D01*
X4120530Y1201140D01*
X1779470D01*
X1731140Y1249470D01*
Y1730000D01*
G03X1710300Y1780300I-71137J-6D01*
G01X1612240Y1878360D01*
G03X1561940Y1899200I-50306J-50297D01*
G01X461410D01*
X361140Y1999470D01*
Y2064540D01*
G02X395830Y2078910I20321J0D01*
G01X476060Y1998680D01*
G03X517380Y1981560I41326J41318D01*
G01X1394430D01*
G03X1435000Y1968860I40570J58450D01*
G03X1505580Y2031090I0J71140D01*
G01X1506700Y2039980D01*
X1762370D01*
X1774920Y2027440D01*
X1775560Y2024550D01*
G03X1845000Y1968860I69440J15447D01*
G03X1916140Y2040000I0J71140D01*
G03X1860450Y2109440I-71137J0D01*
G01X1857560Y2110080D01*
X1827900Y2139740D01*
G03X1786580Y2156860I-41326J-41318D01*
G01X565790D01*
X508440Y2214210D01*
Y4975790D01*
X694210Y5161560D01*
X3243940D01*
G02X3258300Y5126870I-5J-20319D01*
G01X2845270Y4713840D01*
X770000D01*
G03X710720Y4689280I7J-83837D01*
G01X630720Y4609280D01*
G03X606160Y4550000I59277J-59287D01*
G01Y3760000D01*
G03X630720Y3700720I83837J7D01*
G01X710720Y3620720D01*
G03X770000Y3596160I59287J59277D01*
G01X1241260D01*
G03X1390000Y3509260I148740J83843D01*
G03Y3850740I0J170740D01*
G03X1241260Y3763840I0J-170743D01*
G01X804730D01*
X773840Y3794730D01*
Y4515270D01*
X804730Y4546160D01*
X1802730D01*
G02X1820670Y4516290I4J-20320D01*
G03X1814100Y4490000I49329J-26294D01*
G01Y4330000D01*
G03X1830470Y4290470I55913J0D01*
G01X1875470Y4245470D01*
G03X1915000Y4229100I39530J39543D01*
G01X1921020D01*
G02X1937460Y4196830I5J-20320D01*
G03X1923860Y4155000I57529J-41830D01*
G03X1995000Y4083860I71140J0D01*
G03X2036470Y4097200I0J71129D01*
G01X2039120Y4099100D01*
X2055000D01*
G03X2094530Y4115470I0J55913D01*
G01X2129530Y4150470D01*
G03X2145900Y4190000I-39543J39530D01*
G01Y4320000D01*
G03X2144180Y4333770I-55901J10D01*
G02X2163870Y4359100I19691J5011D01*
G01X4095000D01*
G03X4134530Y4375470I0J55913D01*
G01X4483150Y4724100D01*
X4576000D01*
G03X4620000Y4708860I44000J55897D01*
G03X4691140Y4780000I0J71140D01*
G03X4691080Y4782940I-71140J19D01*
G02X4711380Y4804100I20302J841D01*
G01X5893990D01*
X6007610Y4690470D01*
G03X6047140Y4674100I39530J39543D01*
G01X7473990D01*
X7514100Y4633990D01*
Y3955420D01*
G02X7490720Y3935330I-20319J-3D01*
G03X7480000Y3936140I-10705J-70331D01*
G03X7436000Y3920900I0J-71137D01*
G01X6864000D01*
G03X6820000Y3936140I-44000J-55897D01*
G03Y3793860I0J-71140D01*
G03X6864000Y3809100I0J71137D01*
G01X7436000D01*
G03X7480000Y3793860I44000J55897D01*
G03X7490720Y3794670I15J71141D01*
G02X7514100Y3774580I3061J-20087D01*
G01Y1013150D01*
X7476850Y975900D01*
X7079000D01*
G03X7039470Y959530I0J-55913D01*
G01X6834050Y754100D01*
X6828120Y756040D01*
G03X6786000Y762740I-42120J-129045D01*
G03X6726730Y749120I-7J-135742D01*
G02X6713560Y753060I-4441J9137D01*
G03X6705050Y764010I-48053J-28563D01*
G01X6629530Y839530D01*
G03X6590000Y855900I-39530J-39543D01*
G01X6197000D01*
G03X6157470Y839530I0J-55913D01*
G01X6072050Y754100D01*
X6066120Y756040D01*
G03X6024000Y762740I-42120J-129045D01*
G03Y491260I0J-135740D01*
G03X6062950Y496970I-6J135739D01*
G02X6089100Y477500I5830J-19466D01*
G01Y475000D01*
G03X6105470Y435470I55913J0D01*
G01X6190470Y350470D01*
G03X6230000Y334100I39530J39543D01*
G01X7710000D01*
G03X7749530Y350470I0J55913D01*
G01X7809530Y410470D01*
G03X7825900Y450000I-39543J39530D01*
G01Y1270870D01*
G02X7849710Y1290890I20320J2D01*
G03X7860000Y1290000I10296J59109D01*
G01X9900000D01*
G02X9970000Y1220000I0J-70000D01*
G01Y360000D01*
G02X9640000Y30000I-330000J0D01*
G01X360000D01*
G02X30000Y360000I0J330000D01*
G01Y5740000D01*
G02X360000Y6070000I330000J0D01*
G37*
G36*
G01X1213080Y1756920D02*
X1476180D01*
G02X1494800Y1728470I0J-20318D01*
G03X1488860Y1700000I65202J-28459D01*
G03X1501560Y1659430I71150J0D01*
G01Y970000D01*
G03X1518680Y928680I58438J6D01*
G01X1618680Y828680D01*
G03X1660000Y811560I41326J41318D01*
G01X4785790D01*
X4821560Y775790D01*
Y745870D01*
G03X4766080Y697790I54440J-118869D01*
G02X4731920I-17080J11003D01*
G03X4512080I-109920J-70796D01*
G02X4477920I-17080J11003D01*
G03X4258080I-109920J-70796D01*
G02X4223920I-17080J11003D01*
G03X4004080I-109920J-70796D01*
G02X3969920I-17080J11003D01*
G03X3750080I-109920J-70796D01*
G02X3715920I-17080J11003D01*
G03X3496080I-109920J-70796D01*
G02X3461920I-17080J11003D01*
G03X3242080I-109920J-70796D01*
G02X3207920I-17080J11003D01*
G03X2988080I-109920J-70796D01*
G02X2953920I-17080J11003D01*
G03X2734080I-109920J-70796D01*
G02X2699920I-17080J11003D01*
G03X2480080I-109920J-70796D01*
G02X2445920I-17080J11003D01*
G03X2226080I-109920J-70796D01*
G02X2191920I-17080J11003D01*
G03X1972080I-109920J-70796D01*
G02X1937920I-17080J11003D01*
G03X1718080I-109920J-70796D01*
G02X1683920I-17080J11003D01*
G03X1574000Y757740I-109920J-70796D01*
G03X1464310Y698140I0J-130739D01*
G01X1272470D01*
X1213080Y757530D01*
Y1756920D01*
G37*
G36*
G01X1683920Y5656210D02*
G02X1718080I17080J-11003D01*
G03X1757210Y5617080I109920J70790D01*
G02Y5582920I-11003J-17080D01*
G03X1697260Y5473000I70796J-109920D01*
G03X1744070Y5372760I130733J0D01*
G02X1731020Y5336860I-13046J-15579D01*
G01X1432000D01*
G02X1424810Y5354200I-4J10159D01*
G01X1430300Y5359700D01*
G03X1451140Y5410000I-50297J50306D01*
G01Y5620530D01*
X1473360Y5642750D01*
X1480580Y5635530D01*
X1480620Y5635500D01*
G03X1574000Y5596260I93380J91489D01*
G03X1683920Y5656210I0J130746D01*
G37*
G36*
G01X4514160Y2458860D02*
X4810530D01*
X4974700Y2294700D01*
G03X5025000Y2273860I50306J50297D01*
G01X7135000D01*
G03X7185300Y2294700I-6J71137D01*
G01X7214170Y2323560D01*
G02X7248860Y2309200I14371J-14364D01*
G01Y1779470D01*
X7140530Y1671140D01*
X6700000D01*
G03X6628860Y1600000I0J-71140D01*
G01Y1379470D01*
X6584030Y1334640D01*
X4494640D01*
Y1373700D01*
G02X4504820Y1383860I10160J0D01*
G01X4505000D01*
G03X4545570Y1396560I0J71150D01*
G01X4684430D01*
G03X4725000Y1383860I40570J58450D01*
G03Y1526140I0J71140D01*
G03X4684430Y1513440I0J-71150D01*
G01X4545570D01*
G03X4505000Y1526140I-40570J-58450D01*
G01X4504820D01*
G02X4494640Y1536300I-20J10160D01*
G01Y2426500D01*
G03X4494020Y2435870I-71140J-2D01*
G02X4514160Y2458860I20144J2670D01*
G37*
G36*
G01X5290000Y4700000D02*
X5310000Y4720000D01*
X5480000D01*
X5500000Y4700000D01*
Y4520000D01*
X5480000Y4500000D01*
X5310000D01*
X5290000Y4520000D01*
Y4700000D01*
G37*
G36*
G01X5464730Y5266160D02*
X6753310D01*
G02X6770360Y5234780I3J-20320D01*
G03X6745260Y5150000I130630J-84780D01*
G03X6811120Y5022810I155746J0D01*
G02X6799390Y4985900I-11730J-16591D01*
G01X6153150D01*
X6039530Y5099530D01*
G03X6000000Y5115900I-39530J-39543D01*
G01X5363520D01*
G02X5349160Y5150590I5J20319D01*
G01X5464730Y5266160D01*
G37*
G36*
G01X7637010Y707950D02*
X7639410Y710360D01*
G02X7674100Y695990I14369J-14369D01*
G01Y513150D01*
X7666850Y505900D01*
X7413160D01*
G02X7397640Y539340I-4J20319D01*
G03X7429740Y627000I-103643J87660D01*
G03X7423040Y669120I-135745J0D01*
G01X7421100Y675050D01*
X7437630Y691580D01*
X7597480D01*
G03X7637010Y707950I0J55913D01*
G37*
%LPC*%
G75*
G36*
G01X8780000Y4935740D02*
X8980000D01*
G02Y4644260I0J-145740D01*
G01X8780000D01*
G02Y4935740I0J145740D01*
G37*
G36*
G01X4475570Y3746560D02*
G02X4435000Y3733860I-40570J58450D01*
G02Y3876140I0J71140D01*
G02X4475570Y3863440I0J-71150D01*
G01X4714430D01*
G02X4755000Y3876140I40570J-58450D01*
G02Y3733860I0J-71140D01*
G02X4714430Y3746560I0J71150D01*
G01X4475570D01*
G37*
G36*
G01X2636450Y3744630D02*
G02X2567800Y3957150I294593J212510D01*
G02X2931040Y4320390I363240J0D01*
G02X3292410Y3993980I0J-363242D01*
G03X3326990Y3981680I20213J2067D01*
G01X3351050Y4005740D01*
X3998950D01*
X4045740Y3958950D01*
Y3298950D01*
X4108950Y3235740D01*
X4928740D01*
G03X4949020Y3254710I4J20321D01*
G02X5020000Y3321140I70980J-4706D01*
G02X5064000Y3305900I0J-71137D01*
G01X5416000D01*
G02X5460000Y3321140I44000J-55897D01*
G02X5530980Y3254710I0J-71136D01*
G03X5551260Y3235740I20276J1351D01*
G01X6978950D01*
X7075740Y3138950D01*
Y2741050D01*
X7008950Y2674260D01*
X5364480D01*
G03X5344600Y2649730I-2J-20319D01*
G02X5346140Y2635000I-69601J-14722D01*
G02X5275000Y2563860I-71140J0D01*
G02X5234430Y2576560I0J71150D01*
G01X5065570D01*
G02X5025000Y2563860I-40570J58450D01*
G02X4953860Y2635000I0J71140D01*
G02X4955400Y2649730I71141J8D01*
G03X4935520Y2674260I-19878J4211D01*
G01X4088950D01*
X4035740Y2621050D01*
Y1391050D01*
X3978950Y1334260D01*
X3351050D01*
X3304260Y1381050D01*
Y1499740D01*
G03X3265240Y1507700I-20322J1D01*
G02X2931040Y1286760I-334200J142290D01*
G02X2575390Y1576150I0J363236D01*
G01X2574770Y1579120D01*
X1899870Y2254020D01*
X1897190Y2254710D01*
G02X1769260Y2420000I42815J165290D01*
G02X1777130Y2471230I170739J-10D01*
G03X1766950Y2484430I-9694J3049D01*
G02X1760000Y2484260I-7038J145568D01*
G01X1660370D01*
X1555980Y2379870D01*
X1555290Y2377190D01*
G02X1390000Y2249260I-165290J42815D01*
G02X1219260Y2420000I0J170740D01*
G02X1347190Y2585290I170745J0D01*
G01X1349870Y2585980D01*
X1496950Y2733050D01*
G02X1600000Y2775740I103056J-103047D01*
G01X1760000D01*
G02X1766950Y2775570I-88J-145738D01*
G03X1777130Y2788770I486J10151D01*
G02X1769260Y2840000I162869J51240D01*
G02X1909300Y3007960I170743J0D01*
G01X1912420Y3008530D01*
X1958510Y3054620D01*
G03X1943700Y3089300I-14370J14366D01*
G02X1940000Y3089260I-3696J170700D01*
G02X2110740Y3260000I0J170740D01*
G02X2110700Y3256300I-170740J-4D01*
G03X2145380Y3241490I20314J-440D01*
G01X2641510Y3737620D01*
X2636450Y3744630D01*
G37*
G36*
G01X5070570Y1801560D02*
G02X5030000Y1788860I-40570J58450D01*
G02Y1931140I0J71140D01*
G02X5070570Y1918440I0J-71150D01*
G01X5849430D01*
G02X5890000Y1931140I40570J-58450D01*
G02Y1788860I0J-71140D01*
G02X5849430Y1801560I0J71150D01*
G01X5070570D01*
G37*
G36*
G01X5074000Y2004100D02*
G02X5030000Y1988860I-44000J55897D01*
G02Y2131140I0J71140D01*
G02X5074000Y2115900I0J-71137D01*
G01X5696000D01*
G02X5740000Y2131140I44000J-55897D01*
G02Y1988860I0J-71140D01*
G02X5696000Y2004100I0J71137D01*
G01X5074000D01*
G37*
G54D26*
X1940000Y3680000D03*
X1390000Y3260000D03*
%LPD*%
G75*
G36*
G01X2598260Y2662380D02*
X2600970Y2656460D01*
G03X2931040Y2444880I330070J151669D01*
G03X3265240Y2665820I0J363230D01*
G02X3304260Y2657860I18698J-7959D01*
G01Y1800260D01*
G02X3265240Y1792300I-20322J-1D01*
G03X2931040Y2013240I-334200J-142290D01*
G03X2673920Y1906570I7J-363237D01*
G01X2673910D01*
X2666720Y1899380D01*
X2105980Y2460130D01*
X2105290Y2462810D01*
G03X2102930Y2471060I-165286J-42819D01*
G01X2102460Y2472550D01*
Y2484260D01*
X2340000D01*
G03X2443050Y2526950I-6J145737D01*
G01X2578490Y2662380D01*
X2598260D01*
G37*
G36*
G01X2910570Y3594460D02*
X2915040Y3594260D01*
G03X2931040Y3593910I15942J362891D01*
G03X3265240Y3814850I0J363230D01*
G02X3304260Y3806890I18698J-7959D01*
G01Y2958380D01*
G02X3265240Y2950420I-20322J-1D01*
G03X2931040Y3171360I-334200J-142290D01*
G03X2598320Y2953860I0J-363239D01*
G01X2518120D01*
G03X2415070Y2911170I6J-145737D01*
G01X2279630Y2775740D01*
X2140900D01*
G02X2126540Y2810430I5J20319D01*
G01X2910570Y3594460D01*
G37*
G36*
G01X3370000Y3960000D02*
X3980000D01*
X4000000Y3940000D01*
Y3280000D01*
X4090000Y3190000D01*
X4981780D01*
G03X5058220I38220J59994D01*
G01X5421780D01*
G03X5498220I38220J59994D01*
G01X6960000D01*
X7030000Y3120000D01*
Y2760000D01*
X6990000Y2720000D01*
X4070000D01*
X3990000Y2640000D01*
Y1410000D01*
X3960000Y1380000D01*
X3370000D01*
X3350000Y1400000D01*
Y3940000D01*
X3370000Y3960000D01*
G37*
%LPC*%
G75*
G36*
G01X5060570Y2931560D02*
G02X5020000Y2918860I-40570J58450D01*
G02Y3061140I0J71140D01*
G02X5060570Y3048440I0J-71150D01*
G01X5469430D01*
G02X5510000Y3061140I40570J-58450D01*
G02Y2918860I0J-71140D01*
G02X5469430Y2931560I0J71150D01*
G01X5060570D01*
G37*
%LPD*%
G75*
G54D10*
X360000Y360000D03*
Y5740000D03*
X9640000Y360000D03*
Y5740000D03*
G54D20*
X8600000Y4310000D03*
X9200000D03*
G54D11*
G01X741940Y1828060D02*
X431940D01*
X290000Y1970000D01*
Y5020000D01*
X610000Y5340000D01*
X1310000D01*
X1380000Y5410000D01*
Y5650000D01*
X1460000Y5730000D01*
X1571000D01*
X1574000Y5727000D01*
G01X741940Y1828060D02*
X1141940D01*
G01X1574000Y627000D02*
X1243000D01*
X1141940Y728060D01*
Y1828060D01*
G01D02*
X1561940D01*
G01D02*
X1660000Y1730000D01*
Y1220000D01*
X1750000Y1130000D01*
X4150000D01*
X4290000Y1270000D01*
Y2450000D01*
X4370000Y2530000D01*
X4840000D01*
X5025000Y2345000D01*
G01X6700000Y1600000D02*
Y1350000D01*
X6613500Y1263500D01*
X4423500D01*
G01Y2426500D02*
Y1263500D01*
G01X5310000Y4680000D02*
X5000000D01*
X4930000Y4610000D01*
Y3700000D01*
X4843500Y3613500D01*
X4436500D01*
G01X5025000Y3530000D02*
X7140000D01*
X7220000Y3450000D01*
Y2430000D01*
X7135000Y2345000D01*
X5025000D01*
G01Y4555000D02*
Y3530000D01*
G01X5330000Y4540000D02*
Y3730800D01*
X5430800Y3630000D01*
X7180000D01*
X7320000Y3490000D01*
Y1750000D01*
X7170000Y1600000D01*
X6700000D01*
G01X5330000Y4680000D02*
X5320000Y4690000D01*
X5310000Y4680000D01*
X123390Y1016900D03*
Y1416900D03*
Y1816900D03*
Y2216900D03*
Y2616900D03*
Y3016900D03*
Y3416900D03*
Y3816900D03*
Y4216900D03*
Y4616900D03*
X741940Y1828060D03*
X721210Y2332780D03*
Y2732780D03*
X690000Y4140000D03*
Y4550000D03*
Y4350000D03*
X783320Y4840330D03*
X923050Y341490D03*
X917150Y1417520D03*
X1141940Y1828060D03*
X1121210Y2332780D03*
Y2732780D03*
X1170000Y4140000D03*
X1097150Y3987520D03*
X1170000Y4350000D03*
X1183320Y4840330D03*
X1000640Y5721480D03*
X1323050Y341490D03*
X1317150Y1417520D03*
X1561940Y1828060D03*
X1560000Y1700000D03*
X1435000Y2040000D03*
X1497150Y3987520D03*
X1583320Y4840330D03*
X1823580Y131880D03*
X1845000Y2040000D03*
X1995000Y4155000D03*
Y4415000D03*
Y4285000D03*
X1983320Y4840330D03*
X2223580Y131880D03*
X2007150Y1317520D03*
X2287150Y4307520D03*
X2623580Y131880D03*
X2407150Y1317520D03*
X2697150Y2187520D03*
X2757150Y3317520D03*
X2687150Y4307520D03*
X2383320Y4840330D03*
X3023580Y131880D03*
X3097150Y2187520D03*
X2783320Y4840330D03*
X3423580Y131880D03*
X3390000Y1570000D03*
X3460000D03*
Y1500000D03*
X3390000D03*
X3460000Y1430000D03*
X3390000D03*
Y2750000D03*
X3460000D03*
Y2680000D03*
X3390000D03*
X3460000Y2610000D03*
X3390000D03*
X3157150Y3317520D03*
X3470000Y3850000D03*
X3400000D03*
X3470000Y3780000D03*
X3400000D03*
Y3920000D03*
X3470000D03*
X3230000Y4780000D03*
X3480000D03*
X3823580Y131880D03*
X3810000Y1570000D03*
X3740000D03*
X3880000D03*
Y2750000D03*
X3740000D03*
X3810000D03*
X3890000Y3920000D03*
X3750000D03*
X3820000D03*
X3610000Y4780000D03*
X3860000D03*
X3740000D03*
X4223580Y131880D03*
X3950000Y1570000D03*
X4120000Y1920000D03*
Y2220000D03*
Y2120000D03*
Y2020000D03*
X3950000Y2750000D03*
X4200000Y3400000D03*
X4100000D03*
Y3300000D03*
X4200000D03*
X4190000Y4280000D03*
X4090000D03*
X3960000Y3920000D03*
X4190000Y4390000D03*
X4280000Y4470000D03*
X4240000Y4780000D03*
X4110000D03*
X4623580Y131880D03*
X4505000Y1455000D03*
X4423500Y1263500D03*
X4657150Y1657520D03*
X4423500Y2426500D03*
X4300000Y3400000D03*
Y3300000D03*
X4435000Y3805000D03*
X4436500Y3613500D03*
X4620000Y4780000D03*
X4370000D03*
X5023580Y131880D03*
X4730950Y993610D03*
X4725000Y1455000D03*
X5030000Y1960000D03*
X4930000D03*
X4830000D03*
X4730000D03*
X5030000Y1860000D03*
X4680000Y2350000D03*
X4780000D03*
X4880000D03*
X4780000Y2160000D03*
X5025000Y2345000D03*
X5030000Y2060000D03*
X5025000Y2635000D03*
X5020000Y2990000D03*
X4780000Y3360000D03*
Y3460000D03*
X5020000Y3250000D03*
X5025000Y3530000D03*
X4755000Y3805000D03*
X4740000Y4130000D03*
Y4230000D03*
Y4330000D03*
X5025000Y4555000D03*
X5130950Y993610D03*
X5057150Y1657520D03*
X5120000Y2160000D03*
X5080000Y2450000D03*
X5275000Y2635000D03*
X5100000Y3360000D03*
X5330000Y4610000D03*
Y4540000D03*
Y4680000D03*
X5484000Y162940D03*
X5530950Y993610D03*
X5740000Y2060000D03*
X5510000Y2990000D03*
X5460000Y3250000D03*
Y4610000D03*
Y4540000D03*
X5630000Y4780000D03*
X5530000D03*
X5720000D03*
X5460000Y4680000D03*
X5542240Y5643820D03*
X5884000Y162940D03*
X5930950Y993610D03*
X6042480Y1407150D03*
Y1807150D03*
X5890000Y1860000D03*
X5937150Y2237520D03*
X6098490Y3032470D03*
Y2832470D03*
X5898490Y3032470D03*
X6017150Y3347520D03*
X5820000Y4780000D03*
X5942240Y5643820D03*
X6284000Y162940D03*
X6337150Y2237520D03*
X6197150Y2567520D03*
X6498490Y3032470D03*
X6298490D03*
X6498490Y2832470D03*
X6298490D03*
X6417150Y3347520D03*
X6480000Y4280000D03*
Y4080000D03*
X6342240Y5643820D03*
X6684000Y162940D03*
X6700000Y1600000D03*
X6762480Y1837150D03*
Y2237150D03*
X6597150Y2567520D03*
X6698490Y2832470D03*
Y3032470D03*
X6898490D03*
X6820000Y3865000D03*
X6640000Y4280000D03*
Y4080000D03*
X6770000Y4640000D03*
X6670000D03*
X6742240Y5643820D03*
X7084000Y162940D03*
X6982480Y1047150D03*
Y1447150D03*
X7162480Y1837150D03*
Y2237150D03*
X7070000Y4130000D03*
X7230000D03*
Y4030000D03*
X7070000D03*
X7230000Y4650000D03*
X7070000D03*
Y4550000D03*
X7230000D03*
X7142240Y5643820D03*
X7484000Y162940D03*
X7382480Y1047150D03*
Y1447150D03*
X7452480Y2497150D03*
Y2897150D03*
X7480000Y3550000D03*
Y3650000D03*
Y3750000D03*
Y3865000D03*
X7430000Y4030000D03*
Y4650000D03*
X7990000Y3580000D03*
X7890000D03*
X7860000Y4770000D03*
Y4870000D03*
Y4970000D03*
X7760000D03*
Y4870000D03*
X7800000Y5350000D03*
X8092480Y287150D03*
Y687150D03*
Y1087150D03*
X8090000Y3580000D03*
X8492480Y287150D03*
Y687150D03*
Y1087150D03*
X8892480Y287150D03*
Y687150D03*
Y1087150D03*
X8903760Y3268240D03*
Y3668240D03*
Y4068240D03*
X9206530Y5053800D03*
Y5453800D03*
X9292480Y687150D03*
Y1087150D03*
X9303760Y3268240D03*
Y3668240D03*
Y4068240D03*
X9703760Y3268240D03*
Y3668240D03*
Y4068240D03*
G54D12*
X1574000Y373000D03*
Y627000D03*
Y5473000D03*
Y5727000D03*
X1828000Y373000D03*
Y627000D03*
Y5473000D03*
Y5727000D03*
X2082000Y373000D03*
X2336000D03*
X2082000Y627000D03*
X2336000D03*
X2082000Y5473000D03*
X2336000D03*
X2082000Y5727000D03*
X2336000D03*
X2590000Y373000D03*
Y627000D03*
Y5473000D03*
Y5727000D03*
X2844000Y373000D03*
X3098000D03*
X2844000Y627000D03*
X3098000D03*
X2844000Y5473000D03*
X3098000D03*
X2844000Y5727000D03*
X3098000D03*
X3352000Y373000D03*
Y627000D03*
Y5473000D03*
Y5727000D03*
X3606000Y373000D03*
X3860000D03*
X3606000Y627000D03*
X3860000D03*
X3606000Y5473000D03*
X3860000D03*
X3606000Y5727000D03*
X3860000D03*
X4114000Y373000D03*
Y627000D03*
Y5473000D03*
Y5727000D03*
X4368000Y373000D03*
X4622000D03*
X4368000Y627000D03*
X4622000D03*
X4368000Y5473000D03*
X4622000D03*
X4368000Y5727000D03*
X4622000D03*
X4876000Y373000D03*
Y627000D03*
Y5473000D03*
Y5727000D03*
X5130000Y373000D03*
Y5473000D03*
G54D21*
X8880000Y4790000D03*
G54D22*
G01X4240000Y4780000D02*
X4000000Y4540000D01*
X1920000D01*
X1870000Y4490000D01*
Y4330000D01*
X1915000Y4285000D01*
X1995000D01*
G01X4370000Y4780000D02*
X4070000Y4480000D01*
X1960000D01*
X1920000Y4440000D01*
Y4390000D01*
X1960000Y4350000D01*
X2060000D01*
X2090000Y4320000D01*
Y4190000D01*
X2055000Y4155000D01*
X1995000D01*
G01Y4415000D02*
X4095000D01*
X4460000Y4780000D01*
X4620000D01*
G01X3230000D02*
X3510000Y5060000D01*
X6000000D01*
X6130000Y4930000D01*
X7580000D01*
X7770000Y4740000D01*
Y450000D01*
X7710000Y390000D01*
X6230000D01*
X6145000Y475000D01*
Y685000D01*
X6220000Y760000D01*
X6399000D01*
X6532000Y627000D01*
G01X3480000Y4780000D02*
X3720000Y5020000D01*
X5983430D01*
X6113430Y4890000D01*
X7563430D01*
X7730000Y4723430D01*
Y490000D01*
X7690000Y450000D01*
X6455000D01*
X6278000Y627000D01*
G01X3610000Y4780000D02*
X3810000Y4980000D01*
X5966860D01*
X6096860Y4850000D01*
X7546860D01*
X7690000Y4706860D01*
Y840000D01*
X7597480Y747480D01*
X7414480D01*
X7294000Y627000D01*
G01X3860000Y4780000D02*
X3981310Y4901310D01*
X5934260D01*
X6064260Y4771310D01*
X7514260D01*
X7611310Y4674260D01*
Y971310D01*
X7520000Y880000D01*
X7293000D01*
X7040000Y627000D01*
G01X3740000Y4780000D02*
X3900000Y4940000D01*
X5950290D01*
X6080290Y4810000D01*
X7530290D01*
X7650000Y4690290D01*
Y910000D01*
X7550000Y810000D01*
X7300000D01*
X7170000Y680000D01*
Y540000D01*
X7130000Y500000D01*
X6720000D01*
X6665520Y554480D01*
Y724480D01*
X6590000Y800000D01*
X6197000D01*
X6024000Y627000D01*
G01X4110000Y4780000D02*
X4190000Y4860000D01*
X5917140D01*
X6047140Y4730000D01*
X7497140D01*
X7570000Y4657140D01*
Y990000D01*
X7500000Y920000D01*
X7079000D01*
X6786000Y627000D01*
G01X5020000Y3250000D02*
X5460000D01*
G01X5030000Y2060000D02*
X5740000D01*
G01X7480000Y3865000D02*
X6820000D01*
G54D13*
X1390000Y2420000D03*
Y2840000D03*
Y3260000D03*
Y3680000D03*
X1940000Y2420000D03*
Y2840000D03*
Y3260000D03*
Y3680000D03*
G54D23*
G01X1435000Y2040000D02*
X517380D01*
X391580Y2165800D01*
Y5024200D01*
X645800Y5278420D01*
X4948420D01*
X5011980Y5341980D01*
Y5608980D01*
X5130000Y5727000D01*
G01X1845000Y2040000D02*
X1786580Y2098420D01*
X541580D01*
X450000Y2190000D01*
Y5000000D01*
X670000Y5220000D01*
X5080000D01*
X5130000Y5270000D01*
Y5473000D01*
G01X4876000Y627000D02*
X4880000Y631000D01*
Y800000D01*
X4810000Y870000D01*
X1660000D01*
X1560000Y970000D01*
Y1700000D01*
G01X4725000Y1455000D02*
X4505000D01*
G01X4435000Y3805000D02*
X4755000D01*
G01X5025000Y2635000D02*
X5275000D01*
G01X5510000Y2990000D02*
X5020000D01*
G01X5030000Y1860000D02*
X5890000D01*
G54D14*
X2931040Y1650000D03*
Y2808120D03*
Y3957150D03*
G54D24*
G01Y2808120D02*
X2518120D01*
X2340000Y2630000D01*
X2110000D01*
G01X1760000D02*
X1600000D01*
X1390000Y2420000D01*
G01X1940000D02*
X2710000Y1650000D01*
X2931040D01*
G01Y3957150D02*
Y3821040D01*
X1950000Y2840000D01*
X1940000D01*
G01X6901000Y5150000D02*
X8230000D01*
X8430000Y4950000D01*
Y4660000D01*
X8600000Y4490000D01*
Y4310000D01*
G54D15*
X5130000Y627000D03*
Y5727000D03*
X5770000Y627000D03*
G54D25*
G01X2110000Y2630000D02*
X1760000D01*
G54D16*
X6024000Y627000D03*
X6532000D03*
X6278000D03*
X6786000D03*
X7294000D03*
X7040000D03*
X7548000D03*
G54D17*
X5900000Y2575000D03*
Y2875000D03*
X6870000Y2575000D03*
Y2875000D03*
G54D18*
X6139000Y5150000D03*
X6901000D03*
G54D19*
G01X690000Y4140000D02*
Y3760000D01*
X770000Y3680000D01*
X1390000D01*
G01X690000Y4350000D02*
Y4140000D01*
G01Y4550000D02*
Y4350000D01*
G01Y4550000D02*
X770000Y4630000D01*
X2880000D01*
X3390000Y5140000D01*
X5220000D01*
X5430000Y5350000D01*
X7800000D01*
X7220000Y4240000D03*
X7080000D03*
X7150000Y4345050D03*
X7080000Y4450000D03*
X7220000D03*
M02*
