G04 ================== begin FILE IDENTIFICATION RECORD ==================*
G04 Layout Name:  EG2124A_V10_220802.brd*
G04 Film Name:    Drill_Legend*
G04 File Format:  Gerber RS274X*
G04 File Origin:  Cadence Allegro 17.2-S079*
G04 Origin Date:  Wed Aug 24 11:37:35 2022*
G04 *
G04 Layer:  MANUFACTURING/NCLEGEND-1-2*
G04 Layer:  MANUFACTURING/NCDRILL_LEGEND*
G04 Layer:  MANUFACTURING/NCDRILL_FIGURE*
G04 Layer:  BOARD GEOMETRY/DIMENSION*
G04 *
G04 Offset:    (0.0000 0.0000)*
G04 Mirror:    No*
G04 Mode:      Positive*
G04 Rotation:  0*
G04 FullContactRelief:  No*
G04 UndefLineWidth:     0.1524*
G04 ================== end FILE IDENTIFICATION RECORD ====================*
%FSLAX55Y55*MOMM*%
%IR0*IPPOS*OFA0.00000B0.00000*MIA0B0*SFA1.00000B1.00000*%
%AMMACRO16*
1,1,.1524,.31066,-.75*
20,1,.1524,.31066,-.75,-.31066,-.75,0.0*
1,1,.1524,-.31066,-.75*
20,1,.1524,-.31066,-.75,-.75,-.31066,0.0*
1,1,.1524,-.75,-.31066*
20,1,.1524,-.75,-.31066,-.75,.31066,0.0*
1,1,.1524,-.75,.31066*
20,1,.1524,-.75,.31066,-.31066,.75,0.0*
1,1,.1524,-.31066,.75*
20,1,.1524,-.31066,.75,.31066,.75,0.0*
1,1,.1524,.31066,.75*
20,1,.1524,.31066,.75,.75,.31066,0.0*
1,1,.1524,.75,.31066*
20,1,.1524,.75,.31066,.75,-.31066,0.0*
1,1,.1524,.75,-.31066*
20,1,.1524,.75,-.31066,.31066,-.75,0.0*
1,1,.1524,.31066,-.75*
%
%ADD16MACRO16*%
%AMMACRO13*
1,1,.1524,.9,0.0*
20,1,.1524,.9,0.0,0.0,-.9,0.0*
1,1,.1524,0.0,-.9*
20,1,.1524,0.0,-.9,-.9,0.0,0.0*
1,1,.1524,-.9,0.0*
20,1,.1524,-.9,0.0,0.0,.9,0.0*
1,1,.1524,0.0,.9*
20,1,.1524,0.0,.9,.9,0.0,0.0*
1,1,.1524,.9,0.0*
%
%ADD13MACRO13*%
%AMMACRO11*
1,1,.1524,.127,0.0*
20,1,.1524,.127,0.0,-.127,0.0,0.0*
1,1,.1524,-.127,0.0*
1,1,.1524,0.0,.127*
20,1,.1524,0.0,.127,0.0,-.127,0.0*
1,1,.1524,0.0,-.127*
%
%ADD11MACRO11*%
%AMMACRO17*
1,1,.1524,.2286,.2286*
20,1,.1524,.2286,.2286,.2286,-.2286,0.0*
1,1,.1524,.2286,-.2286*
20,1,.1524,.2286,-.2286,-.2286,-.2286,0.0*
1,1,.1524,-.2286,-.2286*
20,1,.1524,-.2286,-.2286,-.2286,.2286,0.0*
1,1,.1524,-.2286,.2286*
20,1,.1524,-.2286,.2286,.2286,.2286,0.0*
1,1,.1524,.2286,.2286*
%
%ADD17MACRO17*%
%AMMACRO12*
1,1,.1524,0.0,.55*
20,1,.1524,0.0,.55,-.476314,.275,0.0*
1,1,.1524,-.476314,.275*
20,1,.1524,-.476314,.275,-.476314,-.275,0.0*
1,1,.1524,-.476314,-.275*
20,1,.1524,-.476314,-.275,0.0,-.55,0.0*
1,1,.1524,0.0,-.55*
20,1,.1524,0.0,-.55,.476314,-.275,0.0*
1,1,.1524,.476314,-.275*
20,1,.1524,.476314,-.275,.476314,.275,0.0*
1,1,.1524,.476314,.275*
20,1,.1524,.476314,.275,0.0,.55,0.0*
1,1,.1524,0.0,.55*
%
%ADD12MACRO12*%
%AMMACRO18*
1,1,.1524,-.5,-1.*
20,1,.1524,-.5,-1.,-.5,1.,0.0*
1,1,.1524,-.5,1.*
20,1,.1524,-.5,1.,-.492404,1.086824,0.0*
1,1,.1524,-.492404,1.086824*
20,1,.1524,-.492404,1.086824,-.469846,1.17101,0.0*
1,1,.1524,-.469846,1.17101*
20,1,.1524,-.469846,1.17101,-.433013,1.25,0.0*
1,1,.1524,-.433013,1.25*
20,1,.1524,-.433013,1.25,-.383022,1.321394,0.0*
1,1,.1524,-.383022,1.321394*
20,1,.1524,-.383022,1.321394,-.321394,1.383022,0.0*
1,1,.1524,-.321394,1.383022*
20,1,.1524,-.321394,1.383022,-.25,1.433013,0.0*
1,1,.1524,-.25,1.433013*
20,1,.1524,-.25,1.433013,-.17101,1.469846,0.0*
1,1,.1524,-.17101,1.469846*
20,1,.1524,-.17101,1.469846,-.086824,1.492404,0.0*
1,1,.1524,-.086824,1.492404*
20,1,.1524,-.086824,1.492404,0.0,1.5,0.0*
1,1,.1524,0.0,1.5*
20,1,.1524,0.0,1.5,.086824,1.492404,0.0*
1,1,.1524,.086824,1.492404*
20,1,.1524,.086824,1.492404,.17101,1.469846,0.0*
1,1,.1524,.17101,1.469846*
20,1,.1524,.17101,1.469846,.25,1.433013,0.0*
1,1,.1524,.25,1.433013*
20,1,.1524,.25,1.433013,.321394,1.383022,0.0*
1,1,.1524,.321394,1.383022*
20,1,.1524,.321394,1.383022,.383022,1.321394,0.0*
1,1,.1524,.383022,1.321394*
20,1,.1524,.383022,1.321394,.433013,1.25,0.0*
1,1,.1524,.433013,1.25*
20,1,.1524,.433013,1.25,.469846,1.17101,0.0*
1,1,.1524,.469846,1.17101*
20,1,.1524,.469846,1.17101,.492404,1.086824,0.0*
1,1,.1524,.492404,1.086824*
20,1,.1524,.492404,1.086824,.5,1.,0.0*
1,1,.1524,.5,1.*
20,1,.1524,.5,1.,.5,-1.,0.0*
1,1,.1524,.5,-1.*
20,1,.1524,.5,-1.,.492404,-1.086824,0.0*
1,1,.1524,.492404,-1.086824*
20,1,.1524,.492404,-1.086824,.469846,-1.17101,0.0*
1,1,.1524,.469846,-1.17101*
20,1,.1524,.469846,-1.17101,.433013,-1.25,0.0*
1,1,.1524,.433013,-1.25*
20,1,.1524,.433013,-1.25,.383022,-1.321394,0.0*
1,1,.1524,.383022,-1.321394*
20,1,.1524,.383022,-1.321394,.321394,-1.383022,0.0*
1,1,.1524,.321394,-1.383022*
20,1,.1524,.321394,-1.383022,.25,-1.433013,0.0*
1,1,.1524,.25,-1.433013*
20,1,.1524,.25,-1.433013,.17101,-1.469846,0.0*
1,1,.1524,.17101,-1.469846*
20,1,.1524,.17101,-1.469846,.086824,-1.492404,0.0*
1,1,.1524,.086824,-1.492404*
20,1,.1524,.086824,-1.492404,0.0,-1.5,0.0*
1,1,.1524,0.0,-1.5*
20,1,.1524,0.0,-1.5,-.086824,-1.492404,0.0*
1,1,.1524,-.086824,-1.492404*
20,1,.1524,-.086824,-1.492404,-.17101,-1.469846,0.0*
1,1,.1524,-.17101,-1.469846*
20,1,.1524,-.17101,-1.469846,-.25,-1.433013,0.0*
1,1,.1524,-.25,-1.433013*
20,1,.1524,-.25,-1.433013,-.321394,-1.383022,0.0*
1,1,.1524,-.321394,-1.383022*
20,1,.1524,-.321394,-1.383022,-.383022,-1.321394,0.0*
1,1,.1524,-.383022,-1.321394*
20,1,.1524,-.383022,-1.321394,-.433013,-1.25,0.0*
1,1,.1524,-.433013,-1.25*
20,1,.1524,-.433013,-1.25,-.469846,-1.17101,0.0*
1,1,.1524,-.469846,-1.17101*
20,1,.1524,-.469846,-1.17101,-.492404,-1.086824,0.0*
1,1,.1524,-.492404,-1.086824*
20,1,.1524,-.492404,-1.086824,-.5,-1.,0.0*
1,1,.1524,-.5,-1.*
1,1,.1524,-.25,-.25*
20,1,.1524,-.25,-.25,-.3167,-.2417,0.0*
1,1,.1524,-.3167,-.2417*
20,1,.1524,-.3167,-.2417,-.375,-.2083,0.0*
1,1,.1524,-.375,-.2083*
20,1,.1524,-.375,-.2083,-.425,-.1583,0.0*
1,1,.1524,-.425,-.1583*
20,1,.1524,-.425,-.1583,-.4583,-.1,0.0*
1,1,.1524,-.4583,-.1*
20,1,.1524,-.4583,-.1,-.475,-.0333,0.0*
1,1,.1524,-.475,-.0333*
20,1,.1524,-.475,-.0333,-.475,.0333,0.0*
1,1,.1524,-.475,.0333*
20,1,.1524,-.475,.0333,-.4583,.1,0.0*
1,1,.1524,-.4583,.1*
20,1,.1524,-.4583,.1,-.425,.1583,0.0*
1,1,.1524,-.425,.1583*
20,1,.1524,-.425,.1583,-.375,.2083,0.0*
1,1,.1524,-.375,.2083*
20,1,.1524,-.375,.2083,-.3167,.2417,0.0*
1,1,.1524,-.3167,.2417*
20,1,.1524,-.3167,.2417,-.25,.25,0.0*
1,1,.1524,-.25,.25*
20,1,.1524,-.25,.25,-.1833,.2417,0.0*
1,1,.1524,-.1833,.2417*
20,1,.1524,-.1833,.2417,-.125,.2083,0.0*
1,1,.1524,-.125,.2083*
20,1,.1524,-.125,.2083,-.075,.1583,0.0*
1,1,.1524,-.075,.1583*
20,1,.1524,-.075,.1583,-.0417,.1,0.0*
1,1,.1524,-.0417,.1*
20,1,.1524,-.0417,.1,-.025,.0333,0.0*
1,1,.1524,-.025,.0333*
20,1,.1524,-.025,.0333,-.025,-.0333,0.0*
1,1,.1524,-.025,-.0333*
20,1,.1524,-.025,-.0333,-.0417,-.1,0.0*
1,1,.1524,-.0417,-.1*
20,1,.1524,-.0417,-.1,-.075,-.1583,0.0*
1,1,.1524,-.075,-.1583*
20,1,.1524,-.075,-.1583,-.125,-.2083,0.0*
1,1,.1524,-.125,-.2083*
20,1,.1524,-.125,-.2083,-.1833,-.2417,0.0*
1,1,.1524,-.1833,-.2417*
20,1,.1524,-.1833,-.2417,-.25,-.25,0.0*
1,1,.1524,-.25,-.25*
1,1,.1524,.0418,-.25*
20,1,.1524,.0418,-.25,.2501,.25,0.0*
1,1,.1524,.2501,.25*
20,1,.1524,.2501,.25,.4584,-.25,0.0*
1,1,.1524,.4584,-.25*
1,1,.1524,.3834,-.075*
20,1,.1524,.3834,-.075,.1168,-.075,0.0*
1,1,.1524,.1168,-.075*
%
%ADD18MACRO18*%
%AMMACRO19*
1,1,.1524,-1.,.5*
20,1,.1524,-1.,.5,1.,.5,0.0*
1,1,.1524,1.,.5*
20,1,.1524,1.,.5,1.086824,.492404,0.0*
1,1,.1524,1.086824,.492404*
20,1,.1524,1.086824,.492404,1.17101,.469846,0.0*
1,1,.1524,1.17101,.469846*
20,1,.1524,1.17101,.469846,1.25,.433013,0.0*
1,1,.1524,1.25,.433013*
20,1,.1524,1.25,.433013,1.321394,.383022,0.0*
1,1,.1524,1.321394,.383022*
20,1,.1524,1.321394,.383022,1.383022,.321394,0.0*
1,1,.1524,1.383022,.321394*
20,1,.1524,1.383022,.321394,1.433013,.25,0.0*
1,1,.1524,1.433013,.25*
20,1,.1524,1.433013,.25,1.469846,.17101,0.0*
1,1,.1524,1.469846,.17101*
20,1,.1524,1.469846,.17101,1.492404,.086824,0.0*
1,1,.1524,1.492404,.086824*
20,1,.1524,1.492404,.086824,1.5,0.0,0.0*
1,1,.1524,1.5,0.0*
20,1,.1524,1.5,0.0,1.492404,-.086824,0.0*
1,1,.1524,1.492404,-.086824*
20,1,.1524,1.492404,-.086824,1.469846,-.17101,0.0*
1,1,.1524,1.469846,-.17101*
20,1,.1524,1.469846,-.17101,1.433013,-.25,0.0*
1,1,.1524,1.433013,-.25*
20,1,.1524,1.433013,-.25,1.383022,-.321394,0.0*
1,1,.1524,1.383022,-.321394*
20,1,.1524,1.383022,-.321394,1.321394,-.383022,0.0*
1,1,.1524,1.321394,-.383022*
20,1,.1524,1.321394,-.383022,1.25,-.433013,0.0*
1,1,.1524,1.25,-.433013*
20,1,.1524,1.25,-.433013,1.17101,-.469846,0.0*
1,1,.1524,1.17101,-.469846*
20,1,.1524,1.17101,-.469846,1.086824,-.492404,0.0*
1,1,.1524,1.086824,-.492404*
20,1,.1524,1.086824,-.492404,1.,-.5,0.0*
1,1,.1524,1.,-.5*
20,1,.1524,1.,-.5,-1.,-.5,0.0*
1,1,.1524,-1.,-.5*
20,1,.1524,-1.,-.5,-1.086824,-.492404,0.0*
1,1,.1524,-1.086824,-.492404*
20,1,.1524,-1.086824,-.492404,-1.17101,-.469846,0.0*
1,1,.1524,-1.17101,-.469846*
20,1,.1524,-1.17101,-.469846,-1.25,-.433013,0.0*
1,1,.1524,-1.25,-.433013*
20,1,.1524,-1.25,-.433013,-1.321394,-.383022,0.0*
1,1,.1524,-1.321394,-.383022*
20,1,.1524,-1.321394,-.383022,-1.383022,-.321394,0.0*
1,1,.1524,-1.383022,-.321394*
20,1,.1524,-1.383022,-.321394,-1.433013,-.25,0.0*
1,1,.1524,-1.433013,-.25*
20,1,.1524,-1.433013,-.25,-1.469846,-.17101,0.0*
1,1,.1524,-1.469846,-.17101*
20,1,.1524,-1.469846,-.17101,-1.492404,-.086824,0.0*
1,1,.1524,-1.492404,-.086824*
20,1,.1524,-1.492404,-.086824,-1.5,0.0,0.0*
1,1,.1524,-1.5,0.0*
20,1,.1524,-1.5,0.0,-1.492404,.086824,0.0*
1,1,.1524,-1.492404,.086824*
20,1,.1524,-1.492404,.086824,-1.469846,.17101,0.0*
1,1,.1524,-1.469846,.17101*
20,1,.1524,-1.469846,.17101,-1.433013,.25,0.0*
1,1,.1524,-1.433013,.25*
20,1,.1524,-1.433013,.25,-1.383022,.321394,0.0*
1,1,.1524,-1.383022,.321394*
20,1,.1524,-1.383022,.321394,-1.321394,.383022,0.0*
1,1,.1524,-1.321394,.383022*
20,1,.1524,-1.321394,.383022,-1.25,.433013,0.0*
1,1,.1524,-1.25,.433013*
20,1,.1524,-1.25,.433013,-1.17101,.469846,0.0*
1,1,.1524,-1.17101,.469846*
20,1,.1524,-1.17101,.469846,-1.086824,.492404,0.0*
1,1,.1524,-1.086824,.492404*
20,1,.1524,-1.086824,.492404,-1.,.5,0.0*
1,1,.1524,-1.,.5*
1,1,.1524,-.25,-.25*
20,1,.1524,-.25,-.25,-.3167,-.2417,0.0*
1,1,.1524,-.3167,-.2417*
20,1,.1524,-.3167,-.2417,-.375,-.2083,0.0*
1,1,.1524,-.375,-.2083*
20,1,.1524,-.375,-.2083,-.425,-.1583,0.0*
1,1,.1524,-.425,-.1583*
20,1,.1524,-.425,-.1583,-.4583,-.1,0.0*
1,1,.1524,-.4583,-.1*
20,1,.1524,-.4583,-.1,-.475,-.0333,0.0*
1,1,.1524,-.475,-.0333*
20,1,.1524,-.475,-.0333,-.475,.0333,0.0*
1,1,.1524,-.475,.0333*
20,1,.1524,-.475,.0333,-.4583,.1,0.0*
1,1,.1524,-.4583,.1*
20,1,.1524,-.4583,.1,-.425,.1583,0.0*
1,1,.1524,-.425,.1583*
20,1,.1524,-.425,.1583,-.375,.2083,0.0*
1,1,.1524,-.375,.2083*
20,1,.1524,-.375,.2083,-.3167,.2417,0.0*
1,1,.1524,-.3167,.2417*
20,1,.1524,-.3167,.2417,-.25,.25,0.0*
1,1,.1524,-.25,.25*
20,1,.1524,-.25,.25,-.1833,.2417,0.0*
1,1,.1524,-.1833,.2417*
20,1,.1524,-.1833,.2417,-.125,.2083,0.0*
1,1,.1524,-.125,.2083*
20,1,.1524,-.125,.2083,-.075,.1583,0.0*
1,1,.1524,-.075,.1583*
20,1,.1524,-.075,.1583,-.0417,.1,0.0*
1,1,.1524,-.0417,.1*
20,1,.1524,-.0417,.1,-.025,.0333,0.0*
1,1,.1524,-.025,.0333*
20,1,.1524,-.025,.0333,-.025,-.0333,0.0*
1,1,.1524,-.025,-.0333*
20,1,.1524,-.025,-.0333,-.0417,-.1,0.0*
1,1,.1524,-.0417,-.1*
20,1,.1524,-.0417,-.1,-.075,-.1583,0.0*
1,1,.1524,-.075,-.1583*
20,1,.1524,-.075,-.1583,-.125,-.2083,0.0*
1,1,.1524,-.125,-.2083*
20,1,.1524,-.125,-.2083,-.1833,-.2417,0.0*
1,1,.1524,-.1833,-.2417*
20,1,.1524,-.1833,-.2417,-.25,-.25,0.0*
1,1,.1524,-.25,-.25*
1,1,.1524,.0418,-.25*
20,1,.1524,.0418,-.25,.2501,.25,0.0*
1,1,.1524,.2501,.25*
20,1,.1524,.2501,.25,.4584,-.25,0.0*
1,1,.1524,.4584,-.25*
1,1,.1524,.3834,-.075*
20,1,.1524,.3834,-.075,.1168,-.075,0.0*
1,1,.1524,.1168,-.075*
%
%ADD19MACRO19*%
%AMMACRO14*
1,1,.1524,0.0,1.55*
20,1,.1524,0.0,1.55,1.342339,-.775,0.0*
1,1,.1524,1.342339,-.775*
20,1,.1524,1.342339,-.775,-1.342339,-.775,0.0*
1,1,.1524,-1.342339,-.775*
20,1,.1524,-1.342339,-.775,0.0,1.55,0.0*
1,1,.1524,0.0,1.55*
%
%ADD14MACRO14*%
%AMMACRO10*
1,1,.1524,-.4125,1.2375*
20,1,.1524,-.4125,1.2375,.4125,1.2375,0.0*
1,1,.1524,.4125,1.2375*
20,1,.1524,.4125,1.2375,.62739,1.2187,0.0*
1,1,.1524,.62739,1.2187*
20,1,.1524,.62739,1.2187,.83575,1.16287,0.0*
1,1,.1524,.83575,1.16287*
20,1,.1524,.83575,1.16287,1.03125,1.071706,0.0*
1,1,.1524,1.03125,1.071706*
20,1,.1524,1.03125,1.071706,1.20795,.94798,0.0*
1,1,.1524,1.20795,.94798*
20,1,.1524,1.20795,.94798,1.36048,.79545,0.0*
1,1,.1524,1.36048,.79545*
20,1,.1524,1.36048,.79545,1.484206,.61875,0.0*
1,1,.1524,1.484206,.61875*
20,1,.1524,1.484206,.61875,1.57537,.42325,0.0*
1,1,.1524,1.57537,.42325*
20,1,.1524,1.57537,.42325,1.6312,.21489,0.0*
1,1,.1524,1.6312,.21489*
20,1,.1524,1.6312,.21489,1.65,0.0,0.0*
1,1,.1524,1.65,0.0*
20,1,.1524,1.65,0.0,1.6312,-.21489,0.0*
1,1,.1524,1.6312,-.21489*
20,1,.1524,1.6312,-.21489,1.57537,-.42325,0.0*
1,1,.1524,1.57537,-.42325*
20,1,.1524,1.57537,-.42325,1.484206,-.61875,0.0*
1,1,.1524,1.484206,-.61875*
20,1,.1524,1.484206,-.61875,1.36048,-.79545,0.0*
1,1,.1524,1.36048,-.79545*
20,1,.1524,1.36048,-.79545,1.20795,-.94798,0.0*
1,1,.1524,1.20795,-.94798*
20,1,.1524,1.20795,-.94798,1.03125,-1.071706,0.0*
1,1,.1524,1.03125,-1.071706*
20,1,.1524,1.03125,-1.071706,.83575,-1.16287,0.0*
1,1,.1524,.83575,-1.16287*
20,1,.1524,.83575,-1.16287,.62739,-1.2187,0.0*
1,1,.1524,.62739,-1.2187*
20,1,.1524,.62739,-1.2187,.4125,-1.2375,0.0*
1,1,.1524,.4125,-1.2375*
20,1,.1524,.4125,-1.2375,-.4125,-1.2375,0.0*
1,1,.1524,-.4125,-1.2375*
20,1,.1524,-.4125,-1.2375,-.62739,-1.2187,0.0*
1,1,.1524,-.62739,-1.2187*
20,1,.1524,-.62739,-1.2187,-.83575,-1.16287,0.0*
1,1,.1524,-.83575,-1.16287*
20,1,.1524,-.83575,-1.16287,-1.03125,-1.071706,0.0*
1,1,.1524,-1.03125,-1.071706*
20,1,.1524,-1.03125,-1.071706,-1.20795,-.94798,0.0*
1,1,.1524,-1.20795,-.94798*
20,1,.1524,-1.20795,-.94798,-1.36048,-.79545,0.0*
1,1,.1524,-1.36048,-.79545*
20,1,.1524,-1.36048,-.79545,-1.484206,-.61875,0.0*
1,1,.1524,-1.484206,-.61875*
20,1,.1524,-1.484206,-.61875,-1.57537,-.42325,0.0*
1,1,.1524,-1.57537,-.42325*
20,1,.1524,-1.57537,-.42325,-1.6312,-.21489,0.0*
1,1,.1524,-1.6312,-.21489*
20,1,.1524,-1.6312,-.21489,-1.65,0.0,0.0*
1,1,.1524,-1.65,0.0*
20,1,.1524,-1.65,0.0,-1.6312,.21489,0.0*
1,1,.1524,-1.6312,.21489*
20,1,.1524,-1.6312,.21489,-1.57537,.42325,0.0*
1,1,.1524,-1.57537,.42325*
20,1,.1524,-1.57537,.42325,-1.484206,.61875,0.0*
1,1,.1524,-1.484206,.61875*
20,1,.1524,-1.484206,.61875,-1.36048,.79545,0.0*
1,1,.1524,-1.36048,.79545*
20,1,.1524,-1.36048,.79545,-1.20795,.94798,0.0*
1,1,.1524,-1.20795,.94798*
20,1,.1524,-1.20795,.94798,-1.03125,1.071706,0.0*
1,1,.1524,-1.03125,1.071706*
20,1,.1524,-1.03125,1.071706,-.83575,1.16287,0.0*
1,1,.1524,-.83575,1.16287*
20,1,.1524,-.83575,1.16287,-.62739,1.2187,0.0*
1,1,.1524,-.62739,1.2187*
20,1,.1524,-.62739,1.2187,-.4125,1.2375,0.0*
1,1,.1524,-.4125,1.2375*
%
%ADD10MACRO10*%
%AMMACRO15*
1,1,.1524,.4,0.0*
20,1,.1524,.4,0.0,.2,.34641,0.0*
1,1,.1524,.2,.34641*
20,1,.1524,.2,.34641,-.2,.34641,0.0*
1,1,.1524,-.2,.34641*
20,1,.1524,-.2,.34641,-.4,0.0,0.0*
1,1,.1524,-.4,0.0*
20,1,.1524,-.4,0.0,-.2,-.34641,0.0*
1,1,.1524,-.2,-.34641*
20,1,.1524,-.2,-.34641,.2,-.34641,0.0*
1,1,.1524,.2,-.34641*
20,1,.1524,.2,-.34641,.4,0.0,0.0*
1,1,.1524,.4,0.0*
%
%ADD15MACRO15*%
%ADD20C,.1524*%
G75*
%LPD*%
G75*
G54D10*
X360000Y360000D03*
Y5740000D03*
X9640000Y360000D03*
Y5740000D03*
X11831730Y1587500D03*
G54D20*
G01X-1510290Y3154120D02*
X-1493700Y3176350D01*
X-1479470Y3189050D01*
X-1460510Y3195400D01*
X-1443910Y3189050D01*
X-1432060Y3176350D01*
X-1422580Y3157300D01*
X-1420210Y3135070D01*
X-1422580Y3116020D01*
X-1432060Y3096970D01*
X-1446290Y3081100D01*
X-1462880Y3074750D01*
X-1481840Y3081100D01*
X-1498440Y3100140D01*
X-1507920Y3128730D01*
X-1510290Y3160470D01*
X-1505550Y3201750D01*
X-1498440Y3223980D01*
X-1486590Y3246200D01*
X-1469990Y3262080D01*
X-1453400Y3265250D01*
X-1436800Y3258900D01*
X-1424950Y3243020D01*
G01X-1274750Y3074750D02*
Y3265250D01*
X-1303200Y3227150D01*
G01Y3074750D02*
X-1246310D01*
G01X-1057900Y2713320D02*
X-1043680Y2697450D01*
X-1027090Y2687920D01*
X-1005750Y2684750D01*
X-984410Y2691100D01*
X-967820Y2703800D01*
X-955970Y2726020D01*
X-953600Y2751420D01*
X-958340Y2776820D01*
X-970190Y2792700D01*
X-986790Y2805400D01*
X-1003380Y2808570D01*
X-1019970Y2805400D01*
X-1041310Y2792700D01*
X-1034200Y2875250D01*
X-970190D01*
G01X-819990Y2684750D02*
X-815250Y2726020D01*
X-808140Y2760950D01*
X-798660Y2792700D01*
X-786800Y2827620D01*
X-767840Y2875250D01*
X-862660D01*
G01X-624750Y2678400D02*
X-629490Y2681580D01*
Y2687920D01*
X-624750Y2691100D01*
X-620010Y2687920D01*
Y2681580D01*
X-624750Y2678400D01*
G01X-405800Y2684750D02*
Y2875250D01*
X-493520Y2738730D01*
X-374980D01*
G01X-562650Y832850D02*
X-548430Y810620D01*
X-529470Y797920D01*
X-508130Y794750D01*
X-489160Y797920D01*
X-470200Y813800D01*
X-458350Y832850D01*
X-455980Y851900D01*
X-460720Y874120D01*
X-477310Y890000D01*
X-493910Y896350D01*
X-515240D01*
G01X-493910D02*
X-479680Y905870D01*
X-467830Y921750D01*
X-463090Y940800D01*
X-467830Y959850D01*
X-479680Y975720D01*
X-501020Y985250D01*
X-522350Y982080D01*
X-543690Y969370D01*
G01X-320000Y788400D02*
X-324740Y791580D01*
Y797920D01*
X-320000Y801100D01*
X-315260Y797920D01*
Y791580D01*
X-320000Y788400D01*
G01X-174540Y874120D02*
X-157950Y896350D01*
X-143720Y909050D01*
X-124760Y915400D01*
X-108160Y909050D01*
X-96310Y896350D01*
X-86830Y877300D01*
X-84460Y855070D01*
X-86830Y836020D01*
X-96310Y816970D01*
X-110540Y801100D01*
X-127130Y794750D01*
X-146090Y801100D01*
X-162690Y820140D01*
X-172170Y848730D01*
X-174540Y880470D01*
X-169800Y921750D01*
X-162690Y943980D01*
X-150840Y966200D01*
X-134240Y982080D01*
X-117650Y985250D01*
X-101050Y978900D01*
X-89200Y963020D01*
G01X1027350Y-277150D02*
X1041570Y-299380D01*
X1060530Y-312080D01*
X1081870Y-315250D01*
X1100840Y-312080D01*
X1119800Y-296200D01*
X1131650Y-277150D01*
X1134020Y-258100D01*
X1129280Y-235880D01*
X1112690Y-220000D01*
X1096090Y-213650D01*
X1074760D01*
G01X1096090D02*
X1110320Y-204130D01*
X1122170Y-188250D01*
X1126910Y-169200D01*
X1122170Y-150150D01*
X1110320Y-134280D01*
X1088980Y-124750D01*
X1067650Y-127920D01*
X1046310Y-140630D01*
G01X1270000Y-321600D02*
X1265260Y-318420D01*
Y-312080D01*
X1270000Y-308900D01*
X1274740Y-312080D01*
Y-318420D01*
X1270000Y-321600D01*
G01X1415460Y-235880D02*
X1432050Y-213650D01*
X1446280Y-200950D01*
X1465240Y-194600D01*
X1481840Y-200950D01*
X1493690Y-213650D01*
X1503170Y-232700D01*
X1505540Y-254930D01*
X1503170Y-273980D01*
X1493690Y-293030D01*
X1479460Y-308900D01*
X1462870Y-315250D01*
X1443910Y-308900D01*
X1427310Y-289860D01*
X1417830Y-261270D01*
X1415460Y-229530D01*
X1420200Y-188250D01*
X1427310Y-166020D01*
X1439160Y-143800D01*
X1455760Y-127920D01*
X1472350Y-124750D01*
X1488950Y-131100D01*
X1500800Y-146980D01*
G01X4493950Y-633030D02*
X4510540Y-648900D01*
X4529510Y-655250D01*
X4548470Y-648900D01*
X4565070Y-629860D01*
X4576920Y-601270D01*
X4581660Y-572700D01*
Y-537780D01*
X4576920Y-509200D01*
X4565070Y-483800D01*
X4550840Y-471100D01*
X4534250Y-464750D01*
X4515280Y-471100D01*
X4501060Y-483800D01*
X4491580Y-502850D01*
X4486840Y-528250D01*
X4491580Y-550470D01*
X4503430Y-572700D01*
X4517660Y-585400D01*
X4534250Y-588580D01*
X4553210Y-582230D01*
X4567440Y-566350D01*
X4581660Y-537780D01*
G01X4679710Y-575880D02*
X4696300Y-553650D01*
X4710530Y-540950D01*
X4729490Y-534600D01*
X4746090Y-540950D01*
X4757940Y-553650D01*
X4767420Y-572700D01*
X4769790Y-594930D01*
X4767420Y-613980D01*
X4757940Y-633030D01*
X4743710Y-648900D01*
X4727120Y-655250D01*
X4708160Y-648900D01*
X4691560Y-629860D01*
X4682080Y-601270D01*
X4679710Y-569530D01*
X4684450Y-528250D01*
X4691560Y-506020D01*
X4703410Y-483800D01*
X4720010Y-467920D01*
X4736600Y-464750D01*
X4753200Y-471100D01*
X4765050Y-486980D01*
G01X4915250Y-661600D02*
X4910510Y-658420D01*
Y-652080D01*
X4915250Y-648900D01*
X4919990Y-652080D01*
Y-658420D01*
X4915250Y-661600D01*
G01X5134200Y-655250D02*
Y-464750D01*
X5046480Y-601270D01*
X5165020D01*
G01X4829500Y-1055250D02*
Y-864750D01*
X4801050Y-902850D01*
G01Y-1055250D02*
X4857940D01*
G01X5020000Y-864750D02*
X5001030Y-871100D01*
X4986810Y-886980D01*
X4977330Y-906020D01*
X4970220Y-931430D01*
X4967850Y-960000D01*
X4970220Y-988580D01*
X4977330Y-1013980D01*
X4986810Y-1033030D01*
X5001030Y-1048900D01*
X5020000Y-1055250D01*
X5038960Y-1048900D01*
X5053190Y-1033030D01*
X5062670Y-1013980D01*
X5069780Y-988580D01*
X5072150Y-960000D01*
X5069780Y-931430D01*
X5062670Y-906020D01*
X5053190Y-886980D01*
X5038960Y-871100D01*
X5020000Y-864750D01*
G01X5210500D02*
X5191530Y-871100D01*
X5177310Y-886980D01*
X5167830Y-906020D01*
X5160720Y-931430D01*
X5158350Y-960000D01*
X5160720Y-988580D01*
X5167830Y-1013980D01*
X5177310Y-1033030D01*
X5191530Y-1048900D01*
X5210500Y-1055250D01*
X5229460Y-1048900D01*
X5243690Y-1033030D01*
X5253170Y-1013980D01*
X5260280Y-988580D01*
X5262650Y-960000D01*
X5260280Y-931430D01*
X5253170Y-906020D01*
X5243690Y-886980D01*
X5229460Y-871100D01*
X5210500Y-864750D01*
G01X10969520Y6508750D02*
Y6826250D01*
X11119140D01*
G01X11064010Y6672800D02*
X10969520D01*
G01X11312050Y6826250D02*
X11406530D01*
G01X11359290D02*
Y6508750D01*
G01X11312050D02*
X11406530D01*
G01X11697870Y6667500D02*
X11776620D01*
Y6572250D01*
X11752990Y6540490D01*
X11725430Y6519330D01*
X11686060Y6508750D01*
X11646690Y6519330D01*
X11619130Y6540490D01*
X11595510Y6572250D01*
X11579760Y6609290D01*
X11571880Y6651620D01*
Y6688670D01*
X11579760Y6720410D01*
X11595510Y6757460D01*
X11619130Y6789210D01*
X11642750Y6810370D01*
X11674250Y6826250D01*
X11701810D01*
X11733300Y6815670D01*
X11756930Y6794500D01*
G01X11902600Y6826250D02*
Y6598710D01*
X11918340Y6551070D01*
X11949840Y6519330D01*
X11989210Y6508750D01*
X12028580Y6519330D01*
X12060080Y6551070D01*
X12075820Y6598710D01*
Y6826250D01*
G01X12225430Y6508750D02*
Y6826250D01*
X12323850D01*
X12355350Y6810370D01*
X12375040Y6789210D01*
X12382910Y6746870D01*
X12375040Y6704540D01*
X12351410Y6678090D01*
X12323850Y6662200D01*
X12225430D01*
G01X12323850D02*
X12382910Y6508750D01*
G01X12697870D02*
X12540390D01*
Y6826250D01*
X12697870D01*
G01X12634880Y6672800D02*
X12540390D01*
G01X13567940Y6508750D02*
Y6826250D01*
X13717560D01*
G01X13662430Y6672800D02*
X13567940D01*
G01X13910470Y6826250D02*
X14004950D01*
G01X13957710D02*
Y6508750D01*
G01X13910470D02*
X14004950D01*
G01X14182120D02*
Y6826250D01*
X14363220Y6508750D01*
Y6826250D01*
G01X14540390D02*
X14634870D01*
G01X14587630D02*
Y6508750D01*
G01X14540390D02*
X14634870D01*
G01X14819910Y6551070D02*
X14851410Y6524620D01*
X14886840Y6508750D01*
X14918340D01*
X14949830Y6524620D01*
X14973460Y6551070D01*
X14985270Y6588130D01*
X14977400Y6625160D01*
X14957710Y6656910D01*
X14922270Y6678090D01*
X14875030Y6688670D01*
X14847470Y6709830D01*
X14835660Y6746870D01*
X14843540Y6783920D01*
X14863220Y6810370D01*
X14890780Y6826250D01*
X14918340D01*
X14945900Y6815670D01*
X14969520Y6789210D01*
G01X15134870Y6508750D02*
Y6826250D01*
G01X15300230D02*
Y6508750D01*
G01Y6667500D02*
X15134870D01*
G01X15611250Y6508750D02*
X15453770D01*
Y6826250D01*
X15611250D01*
G01X15548260Y6672800D02*
X15453770D01*
G01X15760860Y6508750D02*
Y6826250D01*
X15839590D01*
X15871090Y6810370D01*
X15894710Y6789210D01*
X15914400Y6757460D01*
X15930150Y6720410D01*
X15934080Y6667500D01*
X15930150Y6614580D01*
X15914400Y6577540D01*
X15894710Y6545780D01*
X15871090Y6524620D01*
X15839590Y6508750D01*
X15760860D01*
G01X16044320Y6402920D02*
X16280540D01*
G01X16394710Y6551070D02*
X16426210Y6524620D01*
X16461640Y6508750D01*
X16493140D01*
X16524630Y6524620D01*
X16548260Y6551070D01*
X16560070Y6588130D01*
X16552200Y6625160D01*
X16532510Y6656910D01*
X16497070Y6678090D01*
X16449830Y6688670D01*
X16422270Y6709830D01*
X16410460Y6746870D01*
X16418340Y6783920D01*
X16438020Y6810370D01*
X16465580Y6826250D01*
X16493140D01*
X16520700Y6815670D01*
X16544320Y6789210D01*
G01X16745110Y6826250D02*
X16839590D01*
G01X16792350D02*
Y6508750D01*
G01X16745110D02*
X16839590D01*
G01X17032500Y6826250D02*
X17182120D01*
X17032500Y6508750D01*
X17182120D01*
G01X17501010D02*
X17343530D01*
Y6826250D01*
X17501010D01*
G01X17438020Y6672800D02*
X17343530D01*
G01X14501020Y222250D02*
X14524630Y185200D01*
X14556130Y164040D01*
X14591570Y158750D01*
X14623070Y164040D01*
X14654560Y190490D01*
X14674240Y222250D01*
X14678180Y254000D01*
X14670310Y291030D01*
X14642750Y317500D01*
X14615190Y328090D01*
X14579750D01*
G01X14615190D02*
X14638810Y343960D01*
X14658500Y370410D01*
X14666370Y402160D01*
X14658500Y433920D01*
X14638810Y460370D01*
X14603380Y476250D01*
X14567950Y470960D01*
X14532510Y449790D01*
G01X14902590Y148170D02*
X14894710Y153460D01*
Y164040D01*
X14902590Y169330D01*
X14910470Y164040D01*
Y153460D01*
X14902590Y148170D01*
G01X15217550Y476250D02*
X15186050Y465670D01*
X15162430Y439210D01*
X15146680Y407460D01*
X15134870Y365120D01*
X15130940Y317500D01*
X15134870Y269870D01*
X15146680Y227540D01*
X15162430Y195780D01*
X15186050Y169330D01*
X15217550Y158750D01*
X15249040Y169330D01*
X15272670Y195780D01*
X15288420Y227540D01*
X15300230Y269870D01*
X15304160Y317500D01*
X15300230Y365120D01*
X15288420Y407460D01*
X15272670Y439210D01*
X15249040Y465670D01*
X15217550Y476250D01*
G01X15473460Y370410D02*
X15591560Y158750D01*
G01Y370410D02*
X15473460Y158750D01*
G01X15847470D02*
Y476250D01*
X15800230Y412750D01*
G01Y158750D02*
X15894710D01*
G01X16162430Y148170D02*
X16154550Y153460D01*
Y164040D01*
X16162430Y169330D01*
X16170310Y164040D01*
Y153460D01*
X16162430Y148170D01*
G01X16477390Y476250D02*
X16445890Y465670D01*
X16422270Y439210D01*
X16406520Y407460D01*
X16394710Y365120D01*
X16390780Y317500D01*
X16394710Y269870D01*
X16406520Y227540D01*
X16422270Y195780D01*
X16445890Y169330D01*
X16477390Y158750D01*
X16508880Y169330D01*
X16532510Y195780D01*
X16548260Y227540D01*
X16560070Y269870D01*
X16564000Y317500D01*
X16560070Y365120D01*
X16548260Y407460D01*
X16532510Y439210D01*
X16508880Y465670D01*
X16477390Y476250D01*
G01X14501020Y857250D02*
X14524630Y820200D01*
X14556130Y799040D01*
X14591570Y793750D01*
X14623070Y799040D01*
X14654560Y825490D01*
X14674240Y857250D01*
X14678180Y889000D01*
X14670310Y926030D01*
X14642750Y952500D01*
X14615190Y963090D01*
X14579750D01*
G01X14615190D02*
X14638810Y978960D01*
X14658500Y1005410D01*
X14666370Y1037160D01*
X14658500Y1068920D01*
X14638810Y1095370D01*
X14603380Y1111250D01*
X14567950Y1105960D01*
X14532510Y1084790D01*
G01X14902590Y783170D02*
X14894710Y788460D01*
Y799040D01*
X14902590Y804330D01*
X14910470Y799040D01*
Y788460D01*
X14902590Y783170D01*
G01X15217550Y1111250D02*
X15186050Y1100670D01*
X15162430Y1074210D01*
X15146680Y1042460D01*
X15134870Y1000120D01*
X15130940Y952500D01*
X15134870Y904870D01*
X15146680Y862540D01*
X15162430Y830780D01*
X15186050Y804330D01*
X15217550Y793750D01*
X15249040Y804330D01*
X15272670Y830780D01*
X15288420Y862540D01*
X15300230Y904870D01*
X15304160Y952500D01*
X15300230Y1000120D01*
X15288420Y1042460D01*
X15272670Y1074210D01*
X15249040Y1100670D01*
X15217550Y1111250D01*
G01X15473460Y1005410D02*
X15591560Y793750D01*
G01Y1005410D02*
X15473460Y793750D01*
G01X15847470D02*
Y1111250D01*
X15800230Y1047750D01*
G01Y793750D02*
X15894710D01*
G01X16162430Y783170D02*
X16154550Y788460D01*
Y799040D01*
X16162430Y804330D01*
X16170310Y799040D01*
Y788460D01*
X16162430Y783170D01*
G01X16477390Y1111250D02*
X16445890Y1100670D01*
X16422270Y1074210D01*
X16406520Y1042460D01*
X16394710Y1000120D01*
X16390780Y952500D01*
X16394710Y904870D01*
X16406520Y862540D01*
X16422270Y830780D01*
X16445890Y804330D01*
X16477390Y793750D01*
X16508880Y804330D01*
X16532510Y830780D01*
X16548260Y862540D01*
X16560070Y904870D01*
X16564000Y952500D01*
X16560070Y1000120D01*
X16548260Y1042460D01*
X16532510Y1074210D01*
X16508880Y1100670D01*
X16477390Y1111250D01*
G01X14252980Y7143750D02*
X14351410Y7461250D01*
X14449840Y7143750D01*
G01X14414400Y7254870D02*
X14288410D01*
G01X14587630Y7461250D02*
Y7143750D01*
X14745110D01*
G01X14902590Y7461250D02*
Y7143750D01*
X15060070D01*
G01X15524640Y7461250D02*
Y7233710D01*
X15540380Y7186070D01*
X15571880Y7154330D01*
X15611250Y7143750D01*
X15650620Y7154330D01*
X15682120Y7186070D01*
X15697860Y7233710D01*
Y7461250D01*
G01X15835660Y7143750D02*
Y7461250D01*
X16016760Y7143750D01*
Y7461250D01*
G01X16193930D02*
X16288410D01*
G01X16241170D02*
Y7143750D01*
G01X16193930D02*
X16288410D01*
G01X16556130Y7461250D02*
Y7143750D01*
G01X16465580Y7461250D02*
X16646680D01*
G01X16788410Y7186070D02*
X16819910Y7159620D01*
X16855340Y7143750D01*
X16886840D01*
X16918330Y7159620D01*
X16941960Y7186070D01*
X16953770Y7223130D01*
X16945900Y7260160D01*
X16926210Y7291910D01*
X16890770Y7313090D01*
X16843530Y7323670D01*
X16815970Y7344830D01*
X16804160Y7381870D01*
X16812040Y7418920D01*
X16831720Y7445370D01*
X16859280Y7461250D01*
X16886840D01*
X16914400Y7450670D01*
X16938020Y7424210D01*
G01X17402580Y7143750D02*
X17501010Y7461250D01*
X17599440Y7143750D01*
G01X17564000Y7254870D02*
X17438010D01*
G01X17737230Y7143750D02*
Y7461250D01*
X17835650D01*
X17867150Y7445370D01*
X17886840Y7424210D01*
X17894710Y7381870D01*
X17886840Y7339540D01*
X17863210Y7313090D01*
X17835650Y7297200D01*
X17737230D01*
G01X17835650D02*
X17894710Y7143750D01*
G01X18209670D02*
X18052190D01*
Y7461250D01*
X18209670D01*
G01X18146680Y7307800D02*
X18052190D01*
G01X18713610Y7461250D02*
X18808090D01*
G01X18760850D02*
Y7143750D01*
G01X18713610D02*
X18808090D01*
G01X18985260D02*
Y7461250D01*
X19166360Y7143750D01*
Y7461250D01*
G01X19603360Y7143750D02*
Y7461250D01*
X19705730Y7196670D01*
X19808100Y7461250D01*
Y7143750D01*
G01X19973450Y7461250D02*
X20067930D01*
G01X20020690D02*
Y7143750D01*
G01X19973450D02*
X20067930D01*
G01X20256910Y7461250D02*
Y7143750D01*
X20414390D01*
G01X20571870Y7461250D02*
Y7143750D01*
X20729350D01*
G01X20918330Y7461250D02*
X21012810D01*
G01X20965570D02*
Y7143750D01*
G01X20918330D02*
X21012810D01*
G01X21178160D02*
Y7461250D01*
X21280530Y7196670D01*
X21382900Y7461250D01*
Y7143750D01*
G01X21674230D02*
X21516750D01*
Y7461250D01*
X21674230D01*
G01X21611240Y7307800D02*
X21516750D01*
G01X21910450Y7461250D02*
Y7143750D01*
G01X21819900Y7461250D02*
X22001000D01*
G01X22304150Y7143750D02*
X22146670D01*
Y7461250D01*
X22304150D01*
G01X22241160Y7307800D02*
X22146670D01*
G01X22461630Y7143750D02*
Y7461250D01*
X22560050D01*
X22591550Y7445370D01*
X22611240Y7424210D01*
X22619110Y7381870D01*
X22611240Y7339540D01*
X22587610Y7313090D01*
X22560050Y7297200D01*
X22461630D01*
G01X22560050D02*
X22619110Y7143750D01*
G01X22772650Y7186070D02*
X22804150Y7159620D01*
X22839580Y7143750D01*
X22871080D01*
X22902570Y7159620D01*
X22926200Y7186070D01*
X22938010Y7223130D01*
X22930140Y7260160D01*
X22910450Y7291910D01*
X22875010Y7313090D01*
X22827770Y7323670D01*
X22800210Y7344830D01*
X22788400Y7381870D01*
X22796280Y7418920D01*
X22815960Y7445370D01*
X22843520Y7461250D01*
X22871080D01*
X22898640Y7450670D01*
X22922260Y7424210D01*
G01X14745110Y5556250D02*
X14713610Y5545670D01*
X14689990Y5519210D01*
X14674240Y5487460D01*
X14662430Y5445120D01*
X14658500Y5397500D01*
X14662430Y5349870D01*
X14674240Y5307540D01*
X14689990Y5275780D01*
X14713610Y5249330D01*
X14745110Y5238750D01*
X14776600Y5249330D01*
X14800230Y5275780D01*
X14815980Y5307540D01*
X14827790Y5349870D01*
X14831720Y5397500D01*
X14827790Y5445120D01*
X14815980Y5487460D01*
X14800230Y5519210D01*
X14776600Y5545670D01*
X14745110Y5556250D01*
G01X15060070Y5228170D02*
X15052190Y5233460D01*
Y5244040D01*
X15060070Y5249330D01*
X15067950Y5244040D01*
Y5233460D01*
X15060070Y5228170D01*
G01X15422270Y5238750D02*
Y5556250D01*
X15276600Y5328710D01*
X15473460D01*
G01X15603380Y5286360D02*
X15626990Y5259910D01*
X15654550Y5244040D01*
X15689990Y5238750D01*
X15725430Y5249330D01*
X15752980Y5270490D01*
X15772670Y5307540D01*
X15776600Y5349870D01*
X15768730Y5392200D01*
X15749040Y5418670D01*
X15721480Y5439830D01*
X15693930Y5445120D01*
X15666370Y5439830D01*
X15630940Y5418670D01*
X15642750Y5556250D01*
X15749040D01*
G01X15997070Y5238750D02*
X16004950Y5307540D01*
X16016760Y5365740D01*
X16032510Y5418670D01*
X16052190Y5476870D01*
X16083690Y5556250D01*
X15926210D01*
G01X16245100Y5503330D02*
X16268730Y5535080D01*
X16296290Y5550960D01*
X16327790Y5556250D01*
X16367150Y5545670D01*
X16394720Y5519210D01*
X16402590Y5487460D01*
X16398650Y5455700D01*
X16382900Y5429250D01*
X16304160Y5376330D01*
X16268730Y5339290D01*
X16245100Y5286360D01*
X16237230Y5238750D01*
X16402590D01*
G01X14902590Y6191250D02*
X14871090Y6180670D01*
X14847470Y6154210D01*
X14831720Y6122460D01*
X14819910Y6080120D01*
X14815980Y6032500D01*
X14819910Y5984870D01*
X14831720Y5942540D01*
X14847470Y5910780D01*
X14871090Y5884330D01*
X14902590Y5873750D01*
X14934080Y5884330D01*
X14957710Y5910780D01*
X14973460Y5942540D01*
X14985270Y5984870D01*
X14989200Y6032500D01*
X14985270Y6080120D01*
X14973460Y6122460D01*
X14957710Y6154210D01*
X14934080Y6180670D01*
X14902590Y6191250D01*
G01X15217550Y5863170D02*
X15209670Y5868460D01*
Y5879040D01*
X15217550Y5884330D01*
X15225430Y5879040D01*
Y5868460D01*
X15217550Y5863170D01*
G01X15457700Y6138330D02*
X15481330Y6170080D01*
X15508890Y6185960D01*
X15540390Y6191250D01*
X15579750Y6180670D01*
X15607320Y6154210D01*
X15615190Y6122460D01*
X15611250Y6090700D01*
X15595500Y6064250D01*
X15516760Y6011330D01*
X15481330Y5974290D01*
X15457700Y5921360D01*
X15449830Y5873750D01*
X15615190D01*
G01X15760860Y5921360D02*
X15784470Y5894910D01*
X15812030Y5879040D01*
X15847470Y5873750D01*
X15882910Y5884330D01*
X15910460Y5905490D01*
X15930150Y5942540D01*
X15934080Y5984870D01*
X15926210Y6027200D01*
X15906520Y6053670D01*
X15878960Y6074830D01*
X15851410Y6080120D01*
X15823850Y6074830D01*
X15788420Y6053670D01*
X15800230Y6191250D01*
X15906520D01*
G01X16209670Y5873750D02*
Y6191250D01*
X16064000Y5963710D01*
X16260860D01*
G01X14579760Y7793750D02*
Y8111250D01*
X14658490D01*
X14689990Y8095370D01*
X14713610Y8074210D01*
X14733300Y8042460D01*
X14749050Y8005410D01*
X14752980Y7952500D01*
X14749050Y7899580D01*
X14733300Y7862540D01*
X14713610Y7830780D01*
X14689990Y7809620D01*
X14658490Y7793750D01*
X14579760D01*
G01X14902590D02*
Y8111250D01*
X15001010D01*
X15032510Y8095370D01*
X15052200Y8074210D01*
X15060070Y8031870D01*
X15052200Y7989540D01*
X15028570Y7963090D01*
X15001010Y7947200D01*
X14902590D01*
G01X15001010D02*
X15060070Y7793750D01*
G01X15249050Y8111250D02*
X15343530D01*
G01X15296290D02*
Y7793750D01*
G01X15249050D02*
X15343530D01*
G01X15532510Y8111250D02*
Y7793750D01*
X15689990D01*
G01X15847470Y8111250D02*
Y7793750D01*
X16004950D01*
G01X16642740Y8084790D02*
X16619120Y8100670D01*
X16591570Y8111250D01*
X16560070D01*
X16524630Y8095370D01*
X16497080Y8068920D01*
X16477390Y8037160D01*
X16461640Y7984250D01*
X16457700Y7936620D01*
X16465580Y7889000D01*
X16477390Y7857250D01*
X16501010Y7825490D01*
X16528570Y7804330D01*
X16556130Y7793750D01*
X16583690D01*
X16611250Y7804330D01*
X16634870Y7820200D01*
X16654560Y7841360D01*
G01X16788410Y7793750D02*
Y8111250D01*
G01X16953770D02*
Y7793750D01*
G01Y7952500D02*
X16788410D01*
G01X17087620Y7793750D02*
X17186050Y8111250D01*
X17284480Y7793750D01*
G01X17249040Y7904870D02*
X17123050D01*
G01X17422270Y7793750D02*
Y8111250D01*
X17520690D01*
X17552190Y8095370D01*
X17571880Y8074210D01*
X17579750Y8031870D01*
X17571880Y7989540D01*
X17548250Y7963090D01*
X17520690Y7947200D01*
X17422270D01*
G01X17520690D02*
X17579750Y7793750D01*
G01X17815970Y8111250D02*
Y7793750D01*
G01X17725420Y8111250D02*
X17906520D01*
G01X18130930Y7783170D02*
X18123050Y7788460D01*
Y7799040D01*
X18130930Y7804330D01*
X18138810Y7799040D01*
Y7788460D01*
X18130930Y7783170D01*
G01Y7926030D02*
X18123050Y7931330D01*
Y7941910D01*
X18130930Y7947200D01*
X18138810Y7941910D01*
Y7931330D01*
X18130930Y7926030D01*
G01X18760850Y8111250D02*
Y7793750D01*
G01X18670300Y8111250D02*
X18851400D01*
G01X19075810Y7793750D02*
X19044310Y7799040D01*
X19016760Y7820200D01*
X18993130Y7851960D01*
X18977380Y7889000D01*
X18969510Y7931330D01*
Y7973670D01*
X18977380Y8016000D01*
X18993130Y8053040D01*
X19016760Y8084790D01*
X19044310Y8105960D01*
X19075810Y8111250D01*
X19107300Y8105960D01*
X19134860Y8084790D01*
X19158490Y8053040D01*
X19174240Y8016000D01*
X19182110Y7973670D01*
Y7931330D01*
X19174240Y7889000D01*
X19158490Y7851960D01*
X19134860Y7820200D01*
X19107300Y7799040D01*
X19075810Y7793750D01*
G01X19312030D02*
Y8111250D01*
X19406520D01*
X19438010Y8095370D01*
X19461640Y8058330D01*
X19469510Y8016000D01*
X19461640Y7973670D01*
X19441950Y7941910D01*
X19406520Y7926030D01*
X19312030D01*
G01X20020690Y8111250D02*
Y7793750D01*
G01X19965570Y8005410D02*
X20075810D01*
G01X20335650Y7793750D02*
X20312030Y7799040D01*
X20288410Y7820200D01*
X20272650Y7857250D01*
X20264780Y7899580D01*
X20272650Y7941910D01*
X20288410Y7978960D01*
X20312030Y8000120D01*
X20335650Y8005410D01*
X20359270Y8000120D01*
X20382890Y7978960D01*
X20398640Y7941910D01*
X20402580Y7899580D01*
X20398640Y7857250D01*
X20382890Y7820200D01*
X20359270Y7799040D01*
X20335650Y7793750D01*
G01X20997060Y7963090D02*
X21012810Y7978960D01*
X21024620Y8005410D01*
X21032500Y8042460D01*
X21024620Y8074210D01*
X21008880Y8095370D01*
X20981320Y8111250D01*
X20875020D01*
Y7793750D01*
X21004940D01*
X21032500Y7814910D01*
X21048250Y7846670D01*
X21056120Y7883710D01*
X21048250Y7920740D01*
X21024620Y7952500D01*
X20997060Y7963090D01*
X20875020D01*
G01X21280530Y7793750D02*
X21249030Y7799040D01*
X21221480Y7820200D01*
X21197850Y7851960D01*
X21182100Y7889000D01*
X21174230Y7931330D01*
Y7973670D01*
X21182100Y8016000D01*
X21197850Y8053040D01*
X21221480Y8084790D01*
X21249030Y8105960D01*
X21280530Y8111250D01*
X21312020Y8105960D01*
X21339580Y8084790D01*
X21363210Y8053040D01*
X21378960Y8016000D01*
X21386830Y7973670D01*
Y7931330D01*
X21378960Y7889000D01*
X21363210Y7851960D01*
X21339580Y7820200D01*
X21312020Y7799040D01*
X21280530Y7793750D01*
G01X21595490Y8111250D02*
Y7793750D01*
G01X21504940Y8111250D02*
X21686040D01*
G01X21910450D02*
Y7793750D01*
G01X21819900Y8111250D02*
X22001000D01*
G01X22225410Y7793750D02*
X22193910Y7799040D01*
X22166360Y7820200D01*
X22142730Y7851960D01*
X22126980Y7889000D01*
X22119110Y7931330D01*
Y7973670D01*
X22126980Y8016000D01*
X22142730Y8053040D01*
X22166360Y8084790D01*
X22193910Y8105960D01*
X22225410Y8111250D01*
X22256900Y8105960D01*
X22284460Y8084790D01*
X22308090Y8053040D01*
X22323840Y8016000D01*
X22331710Y7973670D01*
Y7931330D01*
X22323840Y7889000D01*
X22308090Y7851960D01*
X22284460Y7820200D01*
X22256900Y7799040D01*
X22225410Y7793750D01*
G01X22438000D02*
Y8111250D01*
X22540370Y7846670D01*
X22642740Y8111250D01*
Y7793750D01*
G01X15130940Y1492250D02*
X15154550Y1455200D01*
X15186050Y1434040D01*
X15221490Y1428750D01*
X15252990Y1434040D01*
X15284480Y1460490D01*
X15304160Y1492250D01*
X15308100Y1524000D01*
X15300230Y1561030D01*
X15272670Y1587500D01*
X15245110Y1598090D01*
X15209670D01*
G01X15245110D02*
X15268730Y1613960D01*
X15288420Y1640410D01*
X15296290Y1672160D01*
X15288420Y1703920D01*
X15268730Y1730370D01*
X15233300Y1746250D01*
X15197870Y1740960D01*
X15162430Y1719790D01*
G01X15532510Y1418170D02*
X15524630Y1423460D01*
Y1434040D01*
X15532510Y1439330D01*
X15540390Y1434040D01*
Y1423460D01*
X15532510Y1418170D01*
G01X15760860Y1492250D02*
X15784470Y1455200D01*
X15815970Y1434040D01*
X15851410Y1428750D01*
X15882910Y1434040D01*
X15914400Y1460490D01*
X15934080Y1492250D01*
X15938020Y1524000D01*
X15930150Y1561030D01*
X15902590Y1587500D01*
X15875030Y1598090D01*
X15839590D01*
G01X15875030D02*
X15898650Y1613960D01*
X15918340Y1640410D01*
X15926210Y1672160D01*
X15918340Y1703920D01*
X15898650Y1730370D01*
X15863220Y1746250D01*
X15827790Y1740960D01*
X15792350Y1719790D01*
G01X15130940Y2127250D02*
X15154550Y2090200D01*
X15186050Y2069040D01*
X15221490Y2063750D01*
X15252990Y2069040D01*
X15284480Y2095490D01*
X15304160Y2127250D01*
X15308100Y2159000D01*
X15300230Y2196030D01*
X15272670Y2222500D01*
X15245110Y2233090D01*
X15209670D01*
G01X15245110D02*
X15268730Y2248960D01*
X15288420Y2275410D01*
X15296290Y2307160D01*
X15288420Y2338920D01*
X15268730Y2365370D01*
X15233300Y2381250D01*
X15197870Y2375960D01*
X15162430Y2354790D01*
G01X15532510Y2053170D02*
X15524630Y2058460D01*
Y2069040D01*
X15532510Y2074330D01*
X15540390Y2069040D01*
Y2058460D01*
X15532510Y2053170D01*
G01X15847470Y2063750D02*
Y2381250D01*
X15800230Y2317750D01*
G01Y2063750D02*
X15894710D01*
G01X15217550Y2698750D02*
Y3016250D01*
X15170310Y2952750D01*
G01Y2698750D02*
X15264790D01*
G01X15532510Y2688170D02*
X15524630Y2693460D01*
Y2704040D01*
X15532510Y2709330D01*
X15540390Y2704040D01*
Y2693460D01*
X15532510Y2688170D01*
G01X15847470Y2698750D02*
X15875030Y2704040D01*
X15906520Y2719910D01*
X15926210Y2746360D01*
X15934080Y2783420D01*
X15926210Y2820450D01*
X15902590Y2852200D01*
X15867150Y2868090D01*
X15827790D01*
X15804160Y2878670D01*
X15784470Y2905120D01*
X15776600Y2942160D01*
X15788420Y2979210D01*
X15815970Y3005670D01*
X15847470Y3016250D01*
X15878960Y3005670D01*
X15906520Y2979210D01*
X15918340Y2942160D01*
X15910460Y2905120D01*
X15890780Y2878670D01*
X15867150Y2868090D01*
X15827790D01*
X15792350Y2852200D01*
X15768730Y2820450D01*
X15760860Y2783420D01*
X15768730Y2746360D01*
X15788420Y2719910D01*
X15819910Y2704040D01*
X15847470Y2698750D01*
G01X15217550Y3333750D02*
Y3651250D01*
X15170310Y3587750D01*
G01Y3333750D02*
X15264790D01*
G01X15532510Y3323170D02*
X15524630Y3328460D01*
Y3339040D01*
X15532510Y3344330D01*
X15540390Y3339040D01*
Y3328460D01*
X15532510Y3323170D01*
G01X15760860Y3381360D02*
X15784470Y3354910D01*
X15812030Y3339040D01*
X15847470Y3333750D01*
X15882910Y3344330D01*
X15910460Y3365490D01*
X15930150Y3402540D01*
X15934080Y3444870D01*
X15926210Y3487200D01*
X15906520Y3513670D01*
X15878960Y3534830D01*
X15851410Y3540120D01*
X15823850Y3534830D01*
X15788420Y3513670D01*
X15800230Y3651250D01*
X15906520D01*
G01X15217550Y3968750D02*
Y4286250D01*
X15170310Y4222750D01*
G01Y3968750D02*
X15264790D01*
G01X15532510Y3958170D02*
X15524630Y3963460D01*
Y3974040D01*
X15532510Y3979330D01*
X15540390Y3974040D01*
Y3963460D01*
X15532510Y3958170D01*
G01X15847470Y3968750D02*
Y4286250D01*
X15800230Y4222750D01*
G01Y3968750D02*
X15894710D01*
G01X15217550Y4921250D02*
X15186050Y4910670D01*
X15162430Y4884210D01*
X15146680Y4852460D01*
X15134870Y4810120D01*
X15130940Y4762500D01*
X15134870Y4714870D01*
X15146680Y4672540D01*
X15162430Y4640780D01*
X15186050Y4614330D01*
X15217550Y4603750D01*
X15249040Y4614330D01*
X15272670Y4640780D01*
X15288420Y4672540D01*
X15300230Y4714870D01*
X15304160Y4762500D01*
X15300230Y4810120D01*
X15288420Y4852460D01*
X15272670Y4884210D01*
X15249040Y4910670D01*
X15217550Y4921250D01*
G01X15532510Y4593170D02*
X15524630Y4598460D01*
Y4609040D01*
X15532510Y4614330D01*
X15540390Y4609040D01*
Y4598460D01*
X15532510Y4593170D01*
G01X15847470Y4603750D02*
X15875030Y4609040D01*
X15906520Y4624910D01*
X15926210Y4651360D01*
X15934080Y4688420D01*
X15926210Y4725450D01*
X15902590Y4757200D01*
X15867150Y4773090D01*
X15827790D01*
X15804160Y4783670D01*
X15784470Y4810120D01*
X15776600Y4847160D01*
X15788420Y4884210D01*
X15815970Y4910670D01*
X15847470Y4921250D01*
X15878960Y4910670D01*
X15906520Y4884210D01*
X15918340Y4847160D01*
X15910460Y4810120D01*
X15890780Y4783670D01*
X15867150Y4773090D01*
X15827790D01*
X15792350Y4757200D01*
X15768730Y4725450D01*
X15760860Y4688420D01*
X15768730Y4651360D01*
X15788420Y4624910D01*
X15819910Y4609040D01*
X15847470Y4603750D01*
G01X18524630Y6508750D02*
Y6826250D01*
X18623050D01*
X18654550Y6810370D01*
X18674240Y6789210D01*
X18682110Y6746870D01*
X18674240Y6704540D01*
X18650610Y6678090D01*
X18623050Y6662200D01*
X18524630D01*
G01X18623050D02*
X18682110Y6508750D01*
G01X18918330D02*
X18886830Y6514040D01*
X18859280Y6535200D01*
X18835650Y6566960D01*
X18819900Y6604000D01*
X18812030Y6646330D01*
Y6688670D01*
X18819900Y6731000D01*
X18835650Y6768040D01*
X18859280Y6799790D01*
X18886830Y6820960D01*
X18918330Y6826250D01*
X18949820Y6820960D01*
X18977380Y6799790D01*
X19001010Y6768040D01*
X19016760Y6731000D01*
X19024630Y6688670D01*
Y6646330D01*
X19016760Y6604000D01*
X19001010Y6566960D01*
X18977380Y6535200D01*
X18949820Y6514040D01*
X18918330Y6508750D01*
G01X19233290Y6826250D02*
Y6508750D01*
G01X19142740Y6826250D02*
X19323840D01*
G01X19449820Y6508750D02*
X19548250Y6826250D01*
X19646680Y6508750D01*
G01X19611240Y6619870D02*
X19485250D01*
G01X19863210Y6826250D02*
Y6508750D01*
G01X19772660Y6826250D02*
X19953760D01*
G01X20130930D02*
X20225410D01*
G01X20178170D02*
Y6508750D01*
G01X20130930D02*
X20225410D01*
G01X20493130D02*
X20461630Y6514040D01*
X20434080Y6535200D01*
X20410450Y6566960D01*
X20394700Y6604000D01*
X20386830Y6646330D01*
Y6688670D01*
X20394700Y6731000D01*
X20410450Y6768040D01*
X20434080Y6799790D01*
X20461630Y6820960D01*
X20493130Y6826250D01*
X20524620Y6820960D01*
X20552180Y6799790D01*
X20575810Y6768040D01*
X20591560Y6731000D01*
X20599430Y6688670D01*
Y6646330D01*
X20591560Y6604000D01*
X20575810Y6566960D01*
X20552180Y6535200D01*
X20524620Y6514040D01*
X20493130Y6508750D01*
G01X20717540D02*
Y6826250D01*
X20898640Y6508750D01*
Y6826250D01*
G01X18851400Y195780D02*
X18878960Y169330D01*
X18910450Y158750D01*
X18941950Y169330D01*
X18969510Y201070D01*
X18989200Y248710D01*
X18997070Y296330D01*
Y354540D01*
X18989200Y402160D01*
X18969510Y444500D01*
X18945890Y465670D01*
X18918330Y476250D01*
X18886830Y465670D01*
X18863210Y444500D01*
X18847460Y412750D01*
X18839590Y370410D01*
X18847460Y333380D01*
X18867150Y296330D01*
X18890770Y275160D01*
X18918330Y269870D01*
X18949820Y280450D01*
X18973450Y306910D01*
X18997070Y354540D01*
G01X19233290Y476250D02*
X19201790Y465670D01*
X19178170Y439210D01*
X19162420Y407460D01*
X19150610Y365120D01*
X19146680Y317500D01*
X19150610Y269870D01*
X19162420Y227540D01*
X19178170Y195780D01*
X19201790Y169330D01*
X19233290Y158750D01*
X19264780Y169330D01*
X19288410Y195780D01*
X19304160Y227540D01*
X19315970Y269870D01*
X19319900Y317500D01*
X19315970Y365120D01*
X19304160Y407460D01*
X19288410Y439210D01*
X19264780Y465670D01*
X19233290Y476250D01*
G01X19548250Y148170D02*
X19540370Y153460D01*
Y164040D01*
X19548250Y169330D01*
X19556130Y164040D01*
Y153460D01*
X19548250Y148170D01*
G01X19863210Y476250D02*
X19831710Y465670D01*
X19808090Y439210D01*
X19792340Y407460D01*
X19780530Y365120D01*
X19776600Y317500D01*
X19780530Y269870D01*
X19792340Y227540D01*
X19808090Y195780D01*
X19831710Y169330D01*
X19863210Y158750D01*
X19894700Y169330D01*
X19918330Y195780D01*
X19934080Y227540D01*
X19945890Y269870D01*
X19949820Y317500D01*
X19945890Y365120D01*
X19934080Y407460D01*
X19918330Y439210D01*
X19894700Y465670D01*
X19863210Y476250D01*
G01X20178170D02*
X20146670Y465670D01*
X20123050Y439210D01*
X20107300Y407460D01*
X20095490Y365120D01*
X20091560Y317500D01*
X20095490Y269870D01*
X20107300Y227540D01*
X20123050Y195780D01*
X20146670Y169330D01*
X20178170Y158750D01*
X20209660Y169330D01*
X20233290Y195780D01*
X20249040Y227540D01*
X20260850Y269870D01*
X20264780Y317500D01*
X20260850Y365120D01*
X20249040Y407460D01*
X20233290Y439210D01*
X20209660Y465670D01*
X20178170Y476250D01*
G01X20493130D02*
X20461630Y465670D01*
X20438010Y439210D01*
X20422260Y407460D01*
X20410450Y365120D01*
X20406520Y317500D01*
X20410450Y269870D01*
X20422260Y227540D01*
X20438010Y195780D01*
X20461630Y169330D01*
X20493130Y158750D01*
X20524620Y169330D01*
X20548250Y195780D01*
X20564000Y227540D01*
X20575810Y269870D01*
X20579740Y317500D01*
X20575810Y365120D01*
X20564000Y407460D01*
X20548250Y439210D01*
X20524620Y465670D01*
X20493130Y476250D01*
G01X19075810Y1111250D02*
X19044310Y1100670D01*
X19020690Y1074210D01*
X19004940Y1042460D01*
X18993130Y1000120D01*
X18989200Y952500D01*
X18993130Y904870D01*
X19004940Y862540D01*
X19020690Y830780D01*
X19044310Y804330D01*
X19075810Y793750D01*
X19107300Y804330D01*
X19130930Y830780D01*
X19146680Y862540D01*
X19158490Y904870D01*
X19162420Y952500D01*
X19158490Y1000120D01*
X19146680Y1042460D01*
X19130930Y1074210D01*
X19107300Y1100670D01*
X19075810Y1111250D01*
G01X19390770Y783170D02*
X19382890Y788460D01*
Y799040D01*
X19390770Y804330D01*
X19398650Y799040D01*
Y788460D01*
X19390770Y783170D01*
G01X19705730Y1111250D02*
X19674230Y1100670D01*
X19650610Y1074210D01*
X19634860Y1042460D01*
X19623050Y1000120D01*
X19619120Y952500D01*
X19623050Y904870D01*
X19634860Y862540D01*
X19650610Y830780D01*
X19674230Y804330D01*
X19705730Y793750D01*
X19737220Y804330D01*
X19760850Y830780D01*
X19776600Y862540D01*
X19788410Y904870D01*
X19792340Y952500D01*
X19788410Y1000120D01*
X19776600Y1042460D01*
X19760850Y1074210D01*
X19737220Y1100670D01*
X19705730Y1111250D01*
G01X20020690D02*
X19989190Y1100670D01*
X19965570Y1074210D01*
X19949820Y1042460D01*
X19938010Y1000120D01*
X19934080Y952500D01*
X19938010Y904870D01*
X19949820Y862540D01*
X19965570Y830780D01*
X19989190Y804330D01*
X20020690Y793750D01*
X20052180Y804330D01*
X20075810Y830780D01*
X20091560Y862540D01*
X20103370Y904870D01*
X20107300Y952500D01*
X20103370Y1000120D01*
X20091560Y1042460D01*
X20075810Y1074210D01*
X20052180Y1100670D01*
X20020690Y1111250D01*
G01X20335650D02*
X20304150Y1100670D01*
X20280530Y1074210D01*
X20264780Y1042460D01*
X20252970Y1000120D01*
X20249040Y952500D01*
X20252970Y904870D01*
X20264780Y862540D01*
X20280530Y830780D01*
X20304150Y804330D01*
X20335650Y793750D01*
X20367140Y804330D01*
X20390770Y830780D01*
X20406520Y862540D01*
X20418330Y904870D01*
X20422260Y952500D01*
X20418330Y1000120D01*
X20406520Y1042460D01*
X20390770Y1074210D01*
X20367140Y1100670D01*
X20335650Y1111250D01*
G01X19654550Y1534580D02*
X19756910D01*
G01X19654550Y2169580D02*
X19756910D01*
G01X19654550Y2804580D02*
X19756910D01*
G01X19654550Y3439580D02*
X19756910D01*
G01X19654550Y4074580D02*
X19756910D01*
G01X19654550Y4709580D02*
X19756910D01*
G01X19654550Y5344580D02*
X19756910D01*
G01X19654550Y5979580D02*
X19756910D01*
G01X20648070Y-158750D02*
Y-476250D01*
G01X20557520Y-158750D02*
X20738620D01*
G01X20963030Y-476250D02*
X20931530Y-470960D01*
X20903980Y-449800D01*
X20880350Y-418040D01*
X20864600Y-381000D01*
X20856730Y-338670D01*
Y-296330D01*
X20864600Y-254000D01*
X20880350Y-216960D01*
X20903980Y-185210D01*
X20931530Y-164040D01*
X20963030Y-158750D01*
X20994520Y-164040D01*
X21022080Y-185210D01*
X21045710Y-216960D01*
X21061460Y-254000D01*
X21069330Y-296330D01*
Y-338670D01*
X21061460Y-381000D01*
X21045710Y-418040D01*
X21022080Y-449800D01*
X20994520Y-470960D01*
X20963030Y-476250D01*
G01X21277990Y-158750D02*
Y-476250D01*
G01X21187440Y-158750D02*
X21368540D01*
G01X21494520Y-476250D02*
X21592950Y-158750D01*
X21691380Y-476250D01*
G01X21655940Y-365130D02*
X21529950D01*
G01X21829170Y-158750D02*
Y-476250D01*
X21986650D01*
G01X22455150D02*
Y-158750D01*
G01X22620510D02*
Y-476250D01*
G01Y-317500D02*
X22455150D01*
G01X22852790Y-476250D02*
X22821290Y-470960D01*
X22793740Y-449800D01*
X22770110Y-418040D01*
X22754360Y-381000D01*
X22746490Y-338670D01*
Y-296330D01*
X22754360Y-254000D01*
X22770110Y-216960D01*
X22793740Y-185210D01*
X22821290Y-164040D01*
X22852790Y-158750D01*
X22884280Y-164040D01*
X22911840Y-185210D01*
X22935470Y-216960D01*
X22951220Y-254000D01*
X22959090Y-296330D01*
Y-338670D01*
X22951220Y-381000D01*
X22935470Y-418040D01*
X22911840Y-449800D01*
X22884280Y-470960D01*
X22852790Y-476250D01*
G01X23089010Y-158750D02*
Y-476250D01*
X23246490D01*
G01X23561450D02*
X23403970D01*
Y-158750D01*
X23561450D01*
G01X23498460Y-312200D02*
X23403970D01*
G01X23714990Y-433930D02*
X23746490Y-460380D01*
X23781920Y-476250D01*
X23813420D01*
X23844910Y-460380D01*
X23868540Y-433930D01*
X23880350Y-396870D01*
X23872480Y-359840D01*
X23852790Y-328090D01*
X23817350Y-306910D01*
X23770110Y-296330D01*
X23742550Y-275170D01*
X23730740Y-238130D01*
X23738620Y-201080D01*
X23758300Y-174630D01*
X23785860Y-158750D01*
X23813420D01*
X23840980Y-169330D01*
X23864600Y-195790D01*
G01X24112630Y-486830D02*
X24104750Y-481540D01*
Y-470960D01*
X24112630Y-465670D01*
X24120510Y-470960D01*
Y-481540D01*
X24112630Y-486830D01*
G01Y-343970D02*
X24104750Y-338670D01*
Y-328090D01*
X24112630Y-322800D01*
X24120510Y-328090D01*
Y-338670D01*
X24112630Y-343970D01*
G01X22067930Y158750D02*
Y476250D01*
X22162420D01*
X22193910Y460370D01*
X22217540Y423330D01*
X22225410Y381000D01*
X22217540Y338670D01*
X22197850Y306910D01*
X22162420Y291030D01*
X22067930D01*
G01X22382890Y476250D02*
Y158750D01*
X22540370D01*
G01X22678160D02*
X22776590Y476250D01*
X22875020Y158750D01*
G01X22839580Y269870D02*
X22713590D01*
G01X23091550Y476250D02*
Y158750D01*
G01X23001000Y476250D02*
X23182100D01*
G01X23485250Y158750D02*
X23327770D01*
Y476250D01*
X23485250D01*
G01X23422260Y322800D02*
X23327770D01*
G01X23634860Y158750D02*
Y476250D01*
X23713590D01*
X23745090Y460370D01*
X23768710Y439210D01*
X23788400Y407460D01*
X23804150Y370410D01*
X23808080Y317500D01*
X23804150Y264580D01*
X23788400Y227540D01*
X23768710Y195780D01*
X23745090Y174620D01*
X23713590Y158750D01*
X23634860D01*
G01X22067930Y793750D02*
Y1111250D01*
X22162420D01*
X22193910Y1095370D01*
X22217540Y1058330D01*
X22225410Y1016000D01*
X22217540Y973670D01*
X22197850Y941910D01*
X22162420Y926030D01*
X22067930D01*
G01X22382890Y1111250D02*
Y793750D01*
X22540370D01*
G01X22678160D02*
X22776590Y1111250D01*
X22875020Y793750D01*
G01X22839580Y904870D02*
X22713590D01*
G01X23091550Y1111250D02*
Y793750D01*
G01X23001000Y1111250D02*
X23182100D01*
G01X23485250Y793750D02*
X23327770D01*
Y1111250D01*
X23485250D01*
G01X23422260Y957800D02*
X23327770D01*
G01X23634860Y793750D02*
Y1111250D01*
X23713590D01*
X23745090Y1095370D01*
X23768710Y1074210D01*
X23788400Y1042460D01*
X23804150Y1005410D01*
X23808080Y952500D01*
X23804150Y899580D01*
X23788400Y862540D01*
X23768710Y830780D01*
X23745090Y809620D01*
X23713590Y793750D01*
X23634860D01*
G01X22067930Y1428750D02*
Y1746250D01*
X22162420D01*
X22193910Y1730370D01*
X22217540Y1693330D01*
X22225410Y1651000D01*
X22217540Y1608670D01*
X22197850Y1576910D01*
X22162420Y1561030D01*
X22067930D01*
G01X22382890Y1746250D02*
Y1428750D01*
X22540370D01*
G01X22678160D02*
X22776590Y1746250D01*
X22875020Y1428750D01*
G01X22839580Y1539870D02*
X22713590D01*
G01X23091550Y1746250D02*
Y1428750D01*
G01X23001000Y1746250D02*
X23182100D01*
G01X23485250Y1428750D02*
X23327770D01*
Y1746250D01*
X23485250D01*
G01X23422260Y1592800D02*
X23327770D01*
G01X23634860Y1428750D02*
Y1746250D01*
X23713590D01*
X23745090Y1730370D01*
X23768710Y1709210D01*
X23788400Y1677460D01*
X23804150Y1640410D01*
X23808080Y1587500D01*
X23804150Y1534580D01*
X23788400Y1497540D01*
X23768710Y1465780D01*
X23745090Y1444620D01*
X23713590Y1428750D01*
X23634860D01*
G01X22067930Y2063750D02*
Y2381250D01*
X22162420D01*
X22193910Y2365370D01*
X22217540Y2328330D01*
X22225410Y2286000D01*
X22217540Y2243670D01*
X22197850Y2211910D01*
X22162420Y2196030D01*
X22067930D01*
G01X22382890Y2381250D02*
Y2063750D01*
X22540370D01*
G01X22678160D02*
X22776590Y2381250D01*
X22875020Y2063750D01*
G01X22839580Y2174870D02*
X22713590D01*
G01X23091550Y2381250D02*
Y2063750D01*
G01X23001000Y2381250D02*
X23182100D01*
G01X23485250Y2063750D02*
X23327770D01*
Y2381250D01*
X23485250D01*
G01X23422260Y2227800D02*
X23327770D01*
G01X23634860Y2063750D02*
Y2381250D01*
X23713590D01*
X23745090Y2365370D01*
X23768710Y2344210D01*
X23788400Y2312460D01*
X23804150Y2275410D01*
X23808080Y2222500D01*
X23804150Y2169580D01*
X23788400Y2132540D01*
X23768710Y2100780D01*
X23745090Y2079620D01*
X23713590Y2063750D01*
X23634860D01*
G01X22067930Y2698750D02*
Y3016250D01*
X22162420D01*
X22193910Y3000370D01*
X22217540Y2963330D01*
X22225410Y2921000D01*
X22217540Y2878670D01*
X22197850Y2846910D01*
X22162420Y2831030D01*
X22067930D01*
G01X22382890Y3016250D02*
Y2698750D01*
X22540370D01*
G01X22678160D02*
X22776590Y3016250D01*
X22875020Y2698750D01*
G01X22839580Y2809870D02*
X22713590D01*
G01X23091550Y3016250D02*
Y2698750D01*
G01X23001000Y3016250D02*
X23182100D01*
G01X23485250Y2698750D02*
X23327770D01*
Y3016250D01*
X23485250D01*
G01X23422260Y2862800D02*
X23327770D01*
G01X23634860Y2698750D02*
Y3016250D01*
X23713590D01*
X23745090Y3000370D01*
X23768710Y2979210D01*
X23788400Y2947460D01*
X23804150Y2910410D01*
X23808080Y2857500D01*
X23804150Y2804580D01*
X23788400Y2767540D01*
X23768710Y2735780D01*
X23745090Y2714620D01*
X23713590Y2698750D01*
X23634860D01*
G01X22067930Y3333750D02*
Y3651250D01*
X22162420D01*
X22193910Y3635370D01*
X22217540Y3598330D01*
X22225410Y3556000D01*
X22217540Y3513670D01*
X22197850Y3481910D01*
X22162420Y3466030D01*
X22067930D01*
G01X22382890Y3651250D02*
Y3333750D01*
X22540370D01*
G01X22678160D02*
X22776590Y3651250D01*
X22875020Y3333750D01*
G01X22839580Y3444870D02*
X22713590D01*
G01X23091550Y3651250D02*
Y3333750D01*
G01X23001000Y3651250D02*
X23182100D01*
G01X23485250Y3333750D02*
X23327770D01*
Y3651250D01*
X23485250D01*
G01X23422260Y3497800D02*
X23327770D01*
G01X23634860Y3333750D02*
Y3651250D01*
X23713590D01*
X23745090Y3635370D01*
X23768710Y3614210D01*
X23788400Y3582460D01*
X23804150Y3545410D01*
X23808080Y3492500D01*
X23804150Y3439580D01*
X23788400Y3402540D01*
X23768710Y3370780D01*
X23745090Y3349620D01*
X23713590Y3333750D01*
X23634860D01*
G01X22067930Y3968750D02*
Y4286250D01*
X22162420D01*
X22193910Y4270370D01*
X22217540Y4233330D01*
X22225410Y4191000D01*
X22217540Y4148670D01*
X22197850Y4116910D01*
X22162420Y4101030D01*
X22067930D01*
G01X22382890Y4286250D02*
Y3968750D01*
X22540370D01*
G01X22678160D02*
X22776590Y4286250D01*
X22875020Y3968750D01*
G01X22839580Y4079870D02*
X22713590D01*
G01X23091550Y4286250D02*
Y3968750D01*
G01X23001000Y4286250D02*
X23182100D01*
G01X23485250Y3968750D02*
X23327770D01*
Y4286250D01*
X23485250D01*
G01X23422260Y4132800D02*
X23327770D01*
G01X23634860Y3968750D02*
Y4286250D01*
X23713590D01*
X23745090Y4270370D01*
X23768710Y4249210D01*
X23788400Y4217460D01*
X23804150Y4180410D01*
X23808080Y4127500D01*
X23804150Y4074580D01*
X23788400Y4037540D01*
X23768710Y4005780D01*
X23745090Y3984620D01*
X23713590Y3968750D01*
X23634860D01*
G01X22067930Y4603750D02*
Y4921250D01*
X22162420D01*
X22193910Y4905370D01*
X22217540Y4868330D01*
X22225410Y4826000D01*
X22217540Y4783670D01*
X22197850Y4751910D01*
X22162420Y4736030D01*
X22067930D01*
G01X22382890Y4921250D02*
Y4603750D01*
X22540370D01*
G01X22678160D02*
X22776590Y4921250D01*
X22875020Y4603750D01*
G01X22839580Y4714870D02*
X22713590D01*
G01X23091550Y4921250D02*
Y4603750D01*
G01X23001000Y4921250D02*
X23182100D01*
G01X23485250Y4603750D02*
X23327770D01*
Y4921250D01*
X23485250D01*
G01X23422260Y4767800D02*
X23327770D01*
G01X23634860Y4603750D02*
Y4921250D01*
X23713590D01*
X23745090Y4905370D01*
X23768710Y4884210D01*
X23788400Y4852460D01*
X23804150Y4815410D01*
X23808080Y4762500D01*
X23804150Y4709580D01*
X23788400Y4672540D01*
X23768710Y4640780D01*
X23745090Y4619620D01*
X23713590Y4603750D01*
X23634860D01*
G01X22067930Y5238750D02*
Y5556250D01*
X22162420D01*
X22193910Y5540370D01*
X22217540Y5503330D01*
X22225410Y5461000D01*
X22217540Y5418670D01*
X22197850Y5386910D01*
X22162420Y5371030D01*
X22067930D01*
G01X22382890Y5556250D02*
Y5238750D01*
X22540370D01*
G01X22678160D02*
X22776590Y5556250D01*
X22875020Y5238750D01*
G01X22839580Y5349870D02*
X22713590D01*
G01X23091550Y5556250D02*
Y5238750D01*
G01X23001000Y5556250D02*
X23182100D01*
G01X23485250Y5238750D02*
X23327770D01*
Y5556250D01*
X23485250D01*
G01X23422260Y5402800D02*
X23327770D01*
G01X23634860Y5238750D02*
Y5556250D01*
X23713590D01*
X23745090Y5540370D01*
X23768710Y5519210D01*
X23788400Y5487460D01*
X23804150Y5450410D01*
X23808080Y5397500D01*
X23804150Y5344580D01*
X23788400Y5307540D01*
X23768710Y5275780D01*
X23745090Y5254620D01*
X23713590Y5238750D01*
X23634860D01*
G01X22067930Y5873750D02*
Y6191250D01*
X22162420D01*
X22193910Y6175370D01*
X22217540Y6138330D01*
X22225410Y6096000D01*
X22217540Y6053670D01*
X22197850Y6021910D01*
X22162420Y6006030D01*
X22067930D01*
G01X22382890Y6191250D02*
Y5873750D01*
X22540370D01*
G01X22678160D02*
X22776590Y6191250D01*
X22875020Y5873750D01*
G01X22839580Y5984870D02*
X22713590D01*
G01X23091550Y6191250D02*
Y5873750D01*
G01X23001000Y6191250D02*
X23182100D01*
G01X23485250Y5873750D02*
X23327770D01*
Y6191250D01*
X23485250D01*
G01X23422260Y6037800D02*
X23327770D01*
G01X23634860Y5873750D02*
Y6191250D01*
X23713590D01*
X23745090Y6175370D01*
X23768710Y6154210D01*
X23788400Y6122460D01*
X23804150Y6085410D01*
X23808080Y6032500D01*
X23804150Y5979580D01*
X23788400Y5942540D01*
X23768710Y5910780D01*
X23745090Y5889620D01*
X23713590Y5873750D01*
X23634860D01*
G01X22067930Y6508750D02*
Y6826250D01*
X22162420D01*
X22193910Y6810370D01*
X22217540Y6773330D01*
X22225410Y6731000D01*
X22217540Y6688670D01*
X22197850Y6656910D01*
X22162420Y6641030D01*
X22067930D01*
G01X22382890Y6826250D02*
Y6508750D01*
X22540370D01*
G01X22678160D02*
X22776590Y6826250D01*
X22875020Y6508750D01*
G01X22839580Y6619870D02*
X22713590D01*
G01X23091550Y6826250D02*
Y6508750D01*
G01X23001000Y6826250D02*
X23182100D01*
G01X23485250Y6508750D02*
X23327770D01*
Y6826250D01*
X23485250D01*
G01X23422260Y6672800D02*
X23327770D01*
G01X23634860Y6508750D02*
Y6826250D01*
X23713590D01*
X23745090Y6810370D01*
X23768710Y6789210D01*
X23788400Y6757460D01*
X23804150Y6720410D01*
X23808080Y6667500D01*
X23804150Y6614580D01*
X23788400Y6577540D01*
X23768710Y6545780D01*
X23745090Y6524620D01*
X23713590Y6508750D01*
X23634860D01*
G01X25130920Y-412750D02*
X25154530Y-449800D01*
X25186030Y-470960D01*
X25221470Y-476250D01*
X25252970Y-470960D01*
X25284460Y-444510D01*
X25304140Y-412750D01*
X25308080Y-381000D01*
X25300210Y-343970D01*
X25272650Y-317500D01*
X25245090Y-306910D01*
X25209650D01*
G01X25245090D02*
X25268710Y-291040D01*
X25288400Y-264590D01*
X25296270Y-232840D01*
X25288400Y-201080D01*
X25268710Y-174630D01*
X25233280Y-158750D01*
X25197850Y-164040D01*
X25162410Y-185210D01*
G01X25445880Y-428640D02*
X25469490Y-455090D01*
X25497050Y-470960D01*
X25532490Y-476250D01*
X25567930Y-465670D01*
X25595480Y-444510D01*
X25615170Y-407460D01*
X25619100Y-365130D01*
X25611230Y-322800D01*
X25591540Y-296330D01*
X25563980Y-275170D01*
X25536430Y-269880D01*
X25508870Y-275170D01*
X25473440Y-296330D01*
X25485250Y-158750D01*
X25591540D01*
G01X25772640Y-211670D02*
X25796270Y-179920D01*
X25823830Y-164040D01*
X25855330Y-158750D01*
X25894690Y-169330D01*
X25922260Y-195790D01*
X25930130Y-227540D01*
X25926190Y-259300D01*
X25910440Y-285750D01*
X25831700Y-338670D01*
X25796270Y-375710D01*
X25772640Y-428640D01*
X25764770Y-476250D01*
X25930130D01*
G01X25142720Y6138330D02*
X25166350Y6170080D01*
X25193910Y6185960D01*
X25225410Y6191250D01*
X25264770Y6180670D01*
X25292340Y6154210D01*
X25300210Y6122460D01*
X25296270Y6090700D01*
X25280520Y6064250D01*
X25201780Y6011330D01*
X25166350Y5974290D01*
X25142720Y5921360D01*
X25134850Y5873750D01*
X25300210D01*
G01X25445880Y5921360D02*
X25469490Y5894910D01*
X25497050Y5879040D01*
X25532490Y5873750D01*
X25567930Y5884330D01*
X25595480Y5905490D01*
X25615170Y5942540D01*
X25619100Y5984870D01*
X25611230Y6027200D01*
X25591540Y6053670D01*
X25563980Y6074830D01*
X25536430Y6080120D01*
X25508870Y6074830D01*
X25473440Y6053670D01*
X25485250Y6191250D01*
X25591540D01*
G01X25760840Y5921360D02*
X25784450Y5894910D01*
X25812010Y5879040D01*
X25847450Y5873750D01*
X25882890Y5884330D01*
X25910440Y5905490D01*
X25930130Y5942540D01*
X25934060Y5984870D01*
X25926190Y6027200D01*
X25906500Y6053670D01*
X25878940Y6074830D01*
X25851390Y6080120D01*
X25823830Y6074830D01*
X25788400Y6053670D01*
X25800210Y6191250D01*
X25906500D01*
G01X25217530Y6508750D02*
X25186030Y6514040D01*
X25158480Y6535200D01*
X25134850Y6566960D01*
X25119100Y6604000D01*
X25111230Y6646330D01*
Y6688670D01*
X25119100Y6731000D01*
X25134850Y6768040D01*
X25158480Y6799790D01*
X25186030Y6820960D01*
X25217530Y6826250D01*
X25249020Y6820960D01*
X25276580Y6799790D01*
X25300210Y6768040D01*
X25315960Y6731000D01*
X25323830Y6688670D01*
Y6646330D01*
X25315960Y6604000D01*
X25300210Y6566960D01*
X25276580Y6535200D01*
X25249020Y6514040D01*
X25217530Y6508750D01*
G01X25249020Y6593420D02*
X25296270Y6508750D01*
G01X25532490Y6826250D02*
Y6508750D01*
G01X25441940Y6826250D02*
X25623040D01*
G01X25847450Y6508750D02*
Y6651620D01*
X25768710Y6826250D01*
G01X25926190D02*
X25847450Y6651620D01*
G01X25457680Y423330D02*
X25481310Y455080D01*
X25508870Y470960D01*
X25540370Y476250D01*
X25579730Y465670D01*
X25607300Y439210D01*
X25615170Y407460D01*
X25611230Y375700D01*
X25595480Y349250D01*
X25516740Y296330D01*
X25481310Y259290D01*
X25457680Y206360D01*
X25449810Y158750D01*
X25615170D01*
G01X25532490Y793750D02*
Y1111250D01*
X25485250Y1047750D01*
G01Y793750D02*
X25579730D01*
G01Y1428750D02*
Y1746250D01*
X25434060Y1518710D01*
X25630920D01*
G01X25445880Y2127250D02*
X25469490Y2090200D01*
X25500990Y2069040D01*
X25536430Y2063750D01*
X25567930Y2069040D01*
X25599420Y2095490D01*
X25619100Y2127250D01*
X25623040Y2159000D01*
X25615170Y2196030D01*
X25587610Y2222500D01*
X25560050Y2233090D01*
X25524610D01*
G01X25560050D02*
X25583670Y2248960D01*
X25603360Y2275410D01*
X25611230Y2307160D01*
X25603360Y2338920D01*
X25583670Y2365370D01*
X25548240Y2381250D01*
X25512810Y2375960D01*
X25477370Y2354790D01*
G01X25532490Y2698750D02*
X25560050Y2704040D01*
X25591540Y2719910D01*
X25611230Y2746360D01*
X25619100Y2783420D01*
X25611230Y2820450D01*
X25587610Y2852200D01*
X25552170Y2868090D01*
X25512810D01*
X25489180Y2878670D01*
X25469490Y2905120D01*
X25461620Y2942160D01*
X25473440Y2979210D01*
X25500990Y3005670D01*
X25532490Y3016250D01*
X25563980Y3005670D01*
X25591540Y2979210D01*
X25603360Y2942160D01*
X25595480Y2905120D01*
X25575800Y2878670D01*
X25552170Y2868090D01*
X25512810D01*
X25477370Y2852200D01*
X25453750Y2820450D01*
X25445880Y2783420D01*
X25453750Y2746360D01*
X25473440Y2719910D01*
X25504930Y2704040D01*
X25532490Y2698750D01*
G01X25457680Y3598330D02*
X25481310Y3630080D01*
X25508870Y3645960D01*
X25540370Y3651250D01*
X25579730Y3640670D01*
X25607300Y3614210D01*
X25615170Y3582460D01*
X25611230Y3550700D01*
X25595480Y3524250D01*
X25516740Y3471330D01*
X25481310Y3434290D01*
X25457680Y3381360D01*
X25449810Y3333750D01*
X25615170D01*
G01X25300200Y4101030D02*
X25327770Y4138090D01*
X25351390Y4159250D01*
X25382890Y4169830D01*
X25410450Y4159250D01*
X25430130Y4138090D01*
X25445880Y4106330D01*
X25449820Y4069290D01*
X25445880Y4037540D01*
X25430130Y4005780D01*
X25406500Y3979330D01*
X25378950Y3968750D01*
X25347450Y3979330D01*
X25319890Y4011070D01*
X25304140Y4058710D01*
X25300200Y4111620D01*
X25308080Y4180410D01*
X25319890Y4217460D01*
X25339570Y4254500D01*
X25367130Y4280960D01*
X25394690Y4286250D01*
X25422250Y4275670D01*
X25441940Y4249210D01*
G01X25689970Y3968750D02*
X25717530Y3974040D01*
X25749020Y3989910D01*
X25768710Y4016360D01*
X25776580Y4053420D01*
X25768710Y4090450D01*
X25745090Y4122200D01*
X25709650Y4138090D01*
X25670290D01*
X25646660Y4148670D01*
X25626970Y4175120D01*
X25619100Y4212160D01*
X25630920Y4249210D01*
X25658470Y4275670D01*
X25689970Y4286250D01*
X25721460Y4275670D01*
X25749020Y4249210D01*
X25760840Y4212160D01*
X25752960Y4175120D01*
X25733280Y4148670D01*
X25709650Y4138090D01*
X25670290D01*
X25634850Y4122200D01*
X25611230Y4090450D01*
X25603360Y4053420D01*
X25611230Y4016360D01*
X25630920Y3989910D01*
X25662410Y3974040D01*
X25689970Y3968750D01*
G01X25579730Y4603750D02*
Y4921250D01*
X25434060Y4693710D01*
X25630920D01*
G01X25445880Y5286360D02*
X25469490Y5259910D01*
X25497050Y5244040D01*
X25532490Y5238750D01*
X25567930Y5249330D01*
X25595480Y5270490D01*
X25615170Y5307540D01*
X25619100Y5349870D01*
X25611230Y5392200D01*
X25591540Y5418670D01*
X25563980Y5439830D01*
X25536430Y5445120D01*
X25508870Y5439830D01*
X25473440Y5418670D01*
X25485250Y5556250D01*
X25591540D01*
G01X-250000Y0D02*
X-1620000D01*
G01X580000Y6100000D02*
X-1620000D01*
G01X-1370000Y2924260D02*
Y0D01*
G01X-1432500Y400000D02*
X-1370000Y0D01*
X-1307500Y400000D01*
X-1432500D01*
G01X-1370000Y3415740D02*
Y6100000D01*
G01X-1307500Y5700000D02*
X-1370000Y6100000D01*
X-1432500Y5700000D01*
X-1307500D01*
G01X-800000Y-220000D02*
X0D01*
G01X-250000Y0D02*
X-970000D01*
G01X-720000Y2534260D02*
Y0D01*
G01X-782500Y400000D02*
X-720000Y0D01*
X-657500Y400000D01*
X-782500D01*
G01X-720000Y3025740D02*
Y5740000D01*
G01X-657500Y5340000D02*
X-720000Y5740000D01*
X-782500Y5340000D01*
X-657500D01*
G01X110000Y5740000D02*
X-970000D01*
G01X-320000Y-800000D02*
Y0D01*
G01X-257500Y-400000D02*
X-320000Y0D01*
X-382500Y-400000D01*
X-257500D01*
G01X-400000Y-282500D02*
X0Y-220000D01*
X-400000Y-157500D01*
Y-282500D01*
G01X-250000Y0D02*
X-570000D01*
G01X110000Y360000D02*
X-570000D01*
G01X-320000Y644260D02*
Y360000D01*
G01X-382500Y760000D02*
X-320000Y360000D01*
X-257500Y760000D01*
X-382500D01*
G01X0Y-250000D02*
Y-1210000D01*
G01X4607890Y-960000D02*
X0D01*
G01X400000Y-897500D02*
X0Y-960000D01*
X400000Y-1022500D01*
Y-897500D01*
G01X0Y-250000D02*
Y-810000D01*
G01Y-250000D02*
Y-470000D01*
G01X4312640Y-560000D02*
X0D01*
G01X400000Y-497500D02*
X0Y-560000D01*
X400000Y-622500D01*
Y-497500D01*
G01X360000Y110000D02*
Y-470000D01*
G01X857890Y-220000D02*
X360000D01*
G01X760000Y-157500D02*
X360000Y-220000D01*
X760000Y-282500D01*
Y-157500D01*
G01X5327360Y-560000D02*
X9640000D01*
G01X5432110Y-960000D02*
X10000000D01*
G01X9240000Y-622500D02*
X9640000Y-560000D01*
X9240000Y-497500D01*
Y-622500D01*
G01X9600000Y-1022500D02*
X10000000Y-960000D01*
X9600000Y-897500D01*
Y-1022500D01*
G01X9640000Y110000D02*
Y-810000D01*
G01X10000000Y520000D02*
Y-1210000D01*
G01X10690000Y0D02*
Y8270000D01*
X26516740D01*
Y0D01*
X10690000D01*
G01Y635000D02*
X26516740D01*
G01X10690000Y1270000D02*
X26516740D01*
G01X10690000Y1905000D02*
X26516740D01*
G01X10690000Y2540000D02*
X26516740D01*
G01X10690000Y3175000D02*
X26516740D01*
G01X10690000Y3810000D02*
X26516740D01*
G01X10690000Y4445000D02*
X26516740D01*
G01X10690000Y5080000D02*
X26516740D01*
G01X10690000Y5715000D02*
X26516740D01*
G01X10690000Y6350000D02*
X26516740D01*
G01X10690000Y6985000D02*
X26516740D01*
G01X10690000Y7620000D02*
X26516740D01*
G01X12973460Y6985000D02*
Y0D01*
G01X18091560Y6985000D02*
Y0D01*
G01X21319900Y6985000D02*
Y0D01*
G01X24548240Y6985000D02*
Y0D01*
G54D11*
X123390Y1016900D03*
Y1416900D03*
Y1816900D03*
Y2216900D03*
Y2616900D03*
Y3016900D03*
Y3416900D03*
Y3816900D03*
Y4216900D03*
Y4616900D03*
X741940Y1828060D03*
X721210Y2332780D03*
Y2732780D03*
X690000Y4140000D03*
Y4550000D03*
Y4350000D03*
X783320Y4840330D03*
X923050Y341490D03*
X917150Y1417520D03*
X1141940Y1828060D03*
X1121210Y2332780D03*
Y2732780D03*
X1170000Y4140000D03*
X1097150Y3987520D03*
X1170000Y4350000D03*
X1183320Y4840330D03*
X1000640Y5721480D03*
X1323050Y341490D03*
X1317150Y1417520D03*
X1561940Y1828060D03*
X1560000Y1700000D03*
X1435000Y2040000D03*
X1497150Y3987520D03*
X1583320Y4840330D03*
X1823580Y131880D03*
X1845000Y2040000D03*
X1995000Y4155000D03*
Y4415000D03*
Y4285000D03*
X1983320Y4840330D03*
X2223580Y131880D03*
X2007150Y1317520D03*
X2287150Y4307520D03*
X2623580Y131880D03*
X2407150Y1317520D03*
X2697150Y2187520D03*
X2757150Y3317520D03*
X2687150Y4307520D03*
X2383320Y4840330D03*
X3023580Y131880D03*
X3097150Y2187520D03*
X2783320Y4840330D03*
X3423580Y131880D03*
X3390000Y1570000D03*
X3460000D03*
Y1500000D03*
X3390000D03*
X3460000Y1430000D03*
X3390000D03*
Y2750000D03*
X3460000D03*
Y2680000D03*
X3390000D03*
X3460000Y2610000D03*
X3390000D03*
X3157150Y3317520D03*
X3470000Y3850000D03*
X3400000D03*
X3470000Y3780000D03*
X3400000D03*
Y3920000D03*
X3470000D03*
X3230000Y4780000D03*
X3480000D03*
X3823580Y131880D03*
X3810000Y1570000D03*
X3740000D03*
X3880000D03*
Y2750000D03*
X3740000D03*
X3810000D03*
X3890000Y3920000D03*
X3750000D03*
X3820000D03*
X3610000Y4780000D03*
X3860000D03*
X3740000D03*
X4223580Y131880D03*
X3950000Y1570000D03*
X4120000Y1920000D03*
Y2220000D03*
Y2120000D03*
Y2020000D03*
X3950000Y2750000D03*
X4200000Y3400000D03*
X4100000D03*
Y3300000D03*
X4200000D03*
X4190000Y4280000D03*
X4090000D03*
X3960000Y3920000D03*
X4190000Y4390000D03*
X4280000Y4470000D03*
X4240000Y4780000D03*
X4110000D03*
X4623580Y131880D03*
X4505000Y1455000D03*
X4423500Y1263500D03*
X4657150Y1657520D03*
X4423500Y2426500D03*
X4300000Y3400000D03*
Y3300000D03*
X4435000Y3805000D03*
X4436500Y3613500D03*
X4620000Y4780000D03*
X4370000D03*
X5023580Y131880D03*
X4730950Y993610D03*
X4725000Y1455000D03*
X5030000Y1960000D03*
X4930000D03*
X4830000D03*
X4730000D03*
X5030000Y1860000D03*
X4680000Y2350000D03*
X4780000D03*
X4880000D03*
X4780000Y2160000D03*
X5025000Y2345000D03*
X5030000Y2060000D03*
X5025000Y2635000D03*
X5020000Y2990000D03*
X4780000Y3360000D03*
Y3460000D03*
X5020000Y3250000D03*
X5025000Y3530000D03*
X4755000Y3805000D03*
X4740000Y4130000D03*
Y4230000D03*
Y4330000D03*
X5025000Y4555000D03*
X5130950Y993610D03*
X5057150Y1657520D03*
X5120000Y2160000D03*
X5080000Y2450000D03*
X5275000Y2635000D03*
X5100000Y3360000D03*
X5330000Y4610000D03*
Y4540000D03*
Y4680000D03*
X5484000Y162940D03*
X5530950Y993610D03*
X5740000Y2060000D03*
X5510000Y2990000D03*
X5460000Y3250000D03*
Y4610000D03*
Y4540000D03*
X5630000Y4780000D03*
X5530000D03*
X5720000D03*
X5460000Y4680000D03*
X5542240Y5643820D03*
X5884000Y162940D03*
X5930950Y993610D03*
X6042480Y1407150D03*
Y1807150D03*
X5890000Y1860000D03*
X5937150Y2237520D03*
X6098490Y3032470D03*
Y2832470D03*
X5898490Y3032470D03*
X6017150Y3347520D03*
X5820000Y4780000D03*
X5942240Y5643820D03*
X6284000Y162940D03*
X6337150Y2237520D03*
X6197150Y2567520D03*
X6498490Y3032470D03*
X6298490D03*
X6498490Y2832470D03*
X6298490D03*
X6417150Y3347520D03*
X6480000Y4280000D03*
Y4080000D03*
X6342240Y5643820D03*
X6684000Y162940D03*
X6700000Y1600000D03*
X6762480Y1837150D03*
Y2237150D03*
X6597150Y2567520D03*
X6698490Y2832470D03*
Y3032470D03*
X6898490D03*
X6820000Y3865000D03*
X6640000Y4280000D03*
Y4080000D03*
X6770000Y4640000D03*
X6670000D03*
X6742240Y5643820D03*
X7084000Y162940D03*
X6982480Y1047150D03*
Y1447150D03*
X7162480Y1837150D03*
Y2237150D03*
X7070000Y4130000D03*
X7230000D03*
Y4030000D03*
X7070000D03*
X7230000Y4650000D03*
X7070000D03*
Y4550000D03*
X7230000D03*
X7142240Y5643820D03*
X7484000Y162940D03*
X7382480Y1047150D03*
Y1447150D03*
X7452480Y2497150D03*
Y2897150D03*
X7480000Y3550000D03*
Y3650000D03*
Y3750000D03*
Y3865000D03*
X7430000Y4030000D03*
Y4650000D03*
X7990000Y3580000D03*
X7890000D03*
X7860000Y4770000D03*
Y4870000D03*
Y4970000D03*
X7760000D03*
Y4870000D03*
X7800000Y5350000D03*
X8092480Y287150D03*
Y687150D03*
Y1087150D03*
X8090000Y3580000D03*
X8492480Y287150D03*
Y687150D03*
Y1087150D03*
X8892480Y287150D03*
Y687150D03*
Y1087150D03*
X8903760Y3268240D03*
Y3668240D03*
Y4068240D03*
X9206530Y5053800D03*
Y5453800D03*
X9292480Y687150D03*
Y1087150D03*
X9303760Y3268240D03*
Y3668240D03*
Y4068240D03*
X9703760Y3268240D03*
Y3668240D03*
Y4068240D03*
X11831730Y6032500D03*
G54D12*
X1574000Y373000D03*
Y627000D03*
Y5473000D03*
Y5727000D03*
X1828000Y373000D03*
Y627000D03*
Y5473000D03*
Y5727000D03*
X2082000Y373000D03*
X2336000D03*
X2082000Y627000D03*
X2336000D03*
X2082000Y5473000D03*
X2336000D03*
X2082000Y5727000D03*
X2336000D03*
X2590000Y373000D03*
Y627000D03*
Y5473000D03*
Y5727000D03*
X2844000Y373000D03*
X3098000D03*
X2844000Y627000D03*
X3098000D03*
X2844000Y5473000D03*
X3098000D03*
X2844000Y5727000D03*
X3098000D03*
X3352000Y373000D03*
Y627000D03*
Y5473000D03*
Y5727000D03*
X3606000Y373000D03*
X3860000D03*
X3606000Y627000D03*
X3860000D03*
X3606000Y5473000D03*
X3860000D03*
X3606000Y5727000D03*
X3860000D03*
X4114000Y373000D03*
Y627000D03*
Y5473000D03*
Y5727000D03*
X4368000Y373000D03*
X4622000D03*
X4368000Y627000D03*
X4622000D03*
X4368000Y5473000D03*
X4622000D03*
X4368000Y5727000D03*
X4622000D03*
X4876000Y373000D03*
Y627000D03*
Y5473000D03*
Y5727000D03*
X5130000Y373000D03*
Y627000D03*
Y5473000D03*
Y5727000D03*
X5770000Y627000D03*
X6024000D03*
X6532000D03*
X6278000D03*
X6786000D03*
X7294000D03*
X7040000D03*
X7548000D03*
X11831730Y4127500D03*
G54D13*
X1390000Y2420000D03*
Y2840000D03*
Y3260000D03*
Y3680000D03*
X1940000Y2420000D03*
Y2840000D03*
Y3260000D03*
Y3680000D03*
X11831730Y2857500D03*
G54D14*
X2931040Y1650000D03*
Y2808120D03*
Y3957150D03*
X11831730Y2222500D03*
G54D15*
X5900000Y2575000D03*
Y2875000D03*
X6870000Y2575000D03*
Y2875000D03*
X11831730Y4762500D03*
G54D16*
X6139000Y5150000D03*
X6901000D03*
X11831730Y3492500D03*
G54D17*
X7220000Y4240000D03*
X7080000D03*
X7150000Y4345050D03*
X7080000Y4450000D03*
X7220000D03*
X11831730Y5397500D03*
G54D18*
X8600000Y4310000D03*
X9200000D03*
X11831730Y317500D03*
G54D19*
X8880000Y4790000D03*
X11831730Y952500D03*
M02*
