M48
METRIC,TZ
T01C.254
T02C.4572
T03C.8
T04C1.1
T05C1.5
T06C1.8
T07C3.1
T08C3.3
;LEADER: 12 
;HEADER: 
;CODE  : ASCII 
;FILE  : EG2124A_V10_220802-1-2.drl for board G:/github/MotorDriver/HARDWARE/EG2124A_V10_220802/PCB/#Taaaagb11428.tmp ... layers TOP and BOTTOM
;T01 Holesize 1. = 0.254000 Tolerance = +0.000000/-0.000000 PLATED MM Quantity = 255
;T02 Holesize 2. = 0.457200 Tolerance = +0.000000/-0.000000 PLATED MM Quantity = 5
;T03 Holesize 3. = 0.800000 Tolerance = +0.000000/-0.000000 PLATED MM Quantity = 4
;T04 Holesize 4. = 1.100000 Tolerance = +0.000000/-0.000000 PLATED MM Quantity = 68
;T05 Holesize 5. = 1.500000 Tolerance = +0.000000/-0.000000 PLATED MM Quantity = 2
;T06 Holesize 6. = 1.800000 Tolerance = +0.000000/-0.000000 PLATED MM Quantity = 8
;T07 Holesize 7. = 3.100000 Tolerance = +0.000000/-0.000000 PLATED MM Quantity = 3
;T08 Holesize 8. = 3.300000 Tolerance = +0.000000/-0.000000 PLATED MM Quantity = 4
%
G90
T01
X923050Y341490
X1323050Y341490
X1823580Y131880
X2223580Y131880
X2623580Y131880
X3023580Y131880
X3423580Y131880
X3823580Y131880
X4223580Y131880
X4623580Y131880
X5023580Y131880
X5484000Y162940
X5884000Y162940
X6284000Y162940
X6684000Y162940
X7084000Y162940
X7484000Y162940
X8092480Y287150
X8092480Y687150
X8492480Y287150
X8492480Y687150
X8892480Y287150
X8892480Y687150
X9292480Y687150
X9292480Y1087150
X8892480Y1087150
X8492480Y1087150
X8092480Y1087150
X7382480Y1447150
X7382480Y1047150
X6982480Y1447150
X6982480Y1047150
X6042480Y1407150
X5930950Y993610
X5530950Y993610
X5130950Y993610
X4730950Y993610
X4725000Y1455000
X4505000Y1455000
X4423500Y1263500
X3460000Y1500000
X3460000Y1430000
X3390000Y1500000
X3390000Y1430000
X2407150Y1317520
X2007150Y1317520
X1317150Y1417520
X917150Y1417520
X123390Y1416900
X123390Y1016900
X123390Y1816900
X123390Y2216900
X741940Y1828060
X1141940Y1828060
X1435000Y2040000
X1560000Y1700000
X1561940Y1828060
X1845000Y2040000
X2697150Y2187520
X3097150Y2187520
X3390000Y1570000
X3460000Y1570000
X3740000Y1570000
X3810000Y1570000
X3880000Y1570000
X3950000Y1570000
X4120000Y1920000
X4120000Y2020000
X4120000Y2120000
X4120000Y2220000
X4657150Y1657520
X4730000Y1960000
X4780000Y2160000
X4830000Y1960000
X4930000Y1960000
X5030000Y1860000
X5030000Y1960000
X5030000Y2060000
X5057150Y1657520
X5120000Y2160000
X5740000Y2060000
X5890000Y1860000
X5937150Y2237520
X6042480Y1807150
X6337150Y2237520
X6700000Y1600000
X6762480Y1837150
X6762480Y2237150
X7162480Y1837150
X7162480Y2237150
X7452480Y2897150
X7452480Y2497150
X6898490Y3032470
X6698490Y3032470
X6698490Y2832470
X6597150Y2567520
X6498490Y3032470
X6498490Y2832470
X6298490Y3032470
X6298490Y2832470
X6197150Y2567520
X6098490Y3032470
X6098490Y2832470
X5898490Y3032470
X5510000Y2990000
X5275000Y2635000
X5080000Y2450000
X5025000Y2635000
X5025000Y2345000
X5020000Y2990000
X4880000Y2350000
X4780000Y2350000
X4680000Y2350000
X4423500Y2426500
X3950000Y2750000
X3880000Y2750000
X3810000Y2750000
X3740000Y2750000
X3460000Y2750000
X3460000Y2680000
X3460000Y2610000
X3390000Y2750000
X3390000Y2680000
X3390000Y2610000
X1121210Y2732780
X1121210Y2332780
X721210Y2732780
X721210Y2332780
X123390Y3016900
X123390Y2616900
X123390Y3416900
X2757150Y3317520
X3157150Y3317520
X3400000Y3780000
X3470000Y3780000
X4100000Y3300000
X4100000Y3400000
X4200000Y3300000
X4200000Y3400000
X4300000Y3300000
X4300000Y3400000
X4435000Y3805000
X4436500Y3613500
X4755000Y3805000
X4780000Y3360000
X4780000Y3460000
X5020000Y3250000
X5025000Y3530000
X5100000Y3360000
X5460000Y3250000
X6017150Y3347520
X6417150Y3347520
X7480000Y3550000
X7480000Y3650000
X7480000Y3750000
X7890000Y3580000
X7990000Y3580000
X8090000Y3580000
X8903760Y3268240
X8903760Y3668240
X9303760Y3268240
X9303760Y3668240
X9703760Y3268240
X9703760Y3668240
X9703760Y4068240
X9303760Y4068240
X8903760Y4068240
X7480000Y3865000
X7430000Y4030000
X7230000Y4550000
X7230000Y4130000
X7230000Y4030000
X7070000Y4550000
X7070000Y4130000
X7070000Y4030000
X6820000Y3865000
X6640000Y4280000
X6640000Y4080000
X6480000Y4280000
X6480000Y4080000
X5460000Y4540000
X5330000Y4540000
X5025000Y4555000
X4740000Y4330000
X4740000Y4230000
X4740000Y4130000
X4280000Y4470000
X4190000Y4390000
X4190000Y4280000
X4090000Y4280000
X3960000Y3920000
X3890000Y3920000
X3820000Y3920000
X3750000Y3920000
X3470000Y3920000
X3470000Y3850000
X3400000Y3920000
X3400000Y3850000
X2687150Y4307520
X2287150Y4307520
X1995000Y4415000
X1995000Y4285000
X1995000Y4155000
X1497150Y3987520
X1170000Y4350000
X1170000Y4140000
X1097150Y3987520
X690000Y4550000
X690000Y4350000
X690000Y4140000
X123390Y4216900
X123390Y3816900
X123390Y4616900
X783320Y4840330
X1183320Y4840330
X1583320Y4840330
X1983320Y4840330
X2383320Y4840330
X2783320Y4840330
X3230000Y4780000
X3480000Y4780000
X3610000Y4780000
X3740000Y4780000
X3860000Y4780000
X4110000Y4780000
X4240000Y4780000
X4370000Y4780000
X4620000Y4780000
X5330000Y4610000
X5330000Y4680000
X5460000Y4610000
X5460000Y4680000
X5530000Y4780000
X5630000Y4780000
X5720000Y4780000
X5820000Y4780000
X6670000Y4640000
X6770000Y4640000
X7070000Y4650000
X7230000Y4650000
X7430000Y4650000
X7760000Y4870000
X7760000Y4970000
X7860000Y4770000
X7860000Y4870000
X7860000Y4970000
X9206530Y5053800
X9206530Y5453800
X7800000Y5350000
X7142240Y5643820
X6742240Y5643820
X6342240Y5643820
X5942240Y5643820
X5542240Y5643820
X1000640Y5721480
T02
X7080000Y4240000
X7220000Y4240000
X7150000Y4345050
X7080000Y4450000
X7220000Y4450000
T03
X5900000Y2575000
X5900000Y2875000
X6870000Y2875000
X6870000Y2575000
T04
X1574000Y373000
X1828000Y373000
X2082000Y373000
X2336000Y373000
X2590000Y373000
X2844000Y373000
X3098000Y373000
X3352000Y373000
X3606000Y373000
X3860000Y373000
X4114000Y373000
X4368000Y373000
X4622000Y373000
X4876000Y373000
X5130000Y373000
X7548000Y627000
X7294000Y627000
X7040000Y627000
X6786000Y627000
X6532000Y627000
X6278000Y627000
X6024000Y627000
X5770000Y627000
X5130000Y627000
X4876000Y627000
X4622000Y627000
X4368000Y627000
X4114000Y627000
X3860000Y627000
X3606000Y627000
X3352000Y627000
X3098000Y627000
X2844000Y627000
X2590000Y627000
X2336000Y627000
X2082000Y627000
X1828000Y627000
X1574000Y627000
X1574000Y5473000
X1828000Y5473000
X2082000Y5473000
X2336000Y5473000
X2590000Y5473000
X2844000Y5473000
X3098000Y5473000
X3352000Y5473000
X3606000Y5473000
X3860000Y5473000
X4114000Y5473000
X4368000Y5473000
X4622000Y5473000
X4876000Y5473000
X5130000Y5473000
X5130000Y5727000
X4876000Y5727000
X4622000Y5727000
X4368000Y5727000
X4114000Y5727000
X3860000Y5727000
X3606000Y5727000
X3352000Y5727000
X3098000Y5727000
X2844000Y5727000
X2590000Y5727000
X2336000Y5727000
X2082000Y5727000
X1828000Y5727000
X1574000Y5727000
T05
X6139000Y5150000
X6901000Y5150000
T06
X1390000Y2420000
X1390000Y2840000
X1390000Y3260000
X1390000Y3680000
X1940000Y3680000
X1940000Y3260000
X1940000Y2840000
X1940000Y2420000
T07
X2931040Y1650000
X2931040Y2808120
X2931040Y3957150
T08
X360000Y360000
X360000Y5740000
X9640000Y5740000
X9640000Y360000
M30
