G04 ================== begin FILE IDENTIFICATION RECORD ==================*
G04 Layout Name:  EG2124A_V10_220802.brd*
G04 Film Name:    SilkScreen_Bottom*
G04 File Format:  Gerber RS274X*
G04 File Origin:  Cadence Allegro 17.2-S079*
G04 Origin Date:  Wed Aug 24 11:37:35 2022*
G04 *
G04 Layer:  PACKAGE GEOMETRY/SILKSCREEN_BOTTOM*
G04 Layer:  BOARD GEOMETRY/SILKSCREEN_BOTTOM*
G04 *
G04 Offset:    (0.0000 0.0000)*
G04 Mirror:    No*
G04 Mode:      Positive*
G04 Rotation:  0*
G04 FullContactRelief:  No*
G04 UndefLineWidth:     0.1524*
G04 ================== end FILE IDENTIFICATION RECORD ====================*
%FSLAX55Y55*MOMM*%
%IR0*IPPOS*OFA0.00000B0.00000*MIA0B0*SFA1.00000B1.00000*%
%ADD10C,.2*%
%ADD11C,.1524*%
G75*
%LPD*%
G75*
G54D10*
G01X7520000Y6070000D02*
X8840000D01*
Y5710000D01*
X7520000D01*
Y6070000D01*
G54D11*
G01X8750000Y5930000D02*
X8790000D01*
Y6020000D01*
X8750000D01*
G01X8766000Y5976500D02*
X8790000D01*
G01X8694000Y5975000D02*
X8674000D01*
Y5948000D01*
X8680000Y5939000D01*
X8687000Y5933000D01*
X8697000Y5930000D01*
X8707000Y5933000D01*
X8714000Y5939000D01*
X8720000Y5948000D01*
X8724000Y5958500D01*
X8726000Y5970500D01*
Y5981000D01*
X8724000Y5990000D01*
X8720000Y6000500D01*
X8714000Y6009500D01*
X8708000Y6015500D01*
X8700000Y6020000D01*
X8693000D01*
X8685000Y6017000D01*
X8679000Y6011000D01*
G01X8649000Y6005000D02*
X8643000Y6014000D01*
X8636000Y6018500D01*
X8628000Y6020000D01*
X8618000Y6017000D01*
X8611000Y6009500D01*
X8609000Y6000500D01*
X8610000Y5991500D01*
X8614000Y5984000D01*
X8634000Y5969000D01*
X8643000Y5958500D01*
X8649000Y5943500D01*
X8651000Y5930000D01*
X8609000D01*
G01X8560000D02*
Y6020000D01*
X8572000Y6002000D01*
G01Y5930000D02*
X8548000D01*
G01X8509000Y6005000D02*
X8503000Y6014000D01*
X8496000Y6018500D01*
X8488000Y6020000D01*
X8478000Y6017000D01*
X8471000Y6009500D01*
X8469000Y6000500D01*
X8470000Y5991500D01*
X8474000Y5984000D01*
X8494000Y5969000D01*
X8503000Y5958500D01*
X8509000Y5943500D01*
X8511000Y5930000D01*
X8469000D01*
G01X8408000D02*
Y6020000D01*
X8445000Y5955500D01*
X8395000D01*
G01X8375000Y5930000D02*
X8350000Y6020000D01*
X8325000Y5930000D01*
G01X8334000Y5961500D02*
X8366000D01*
G01X8310000Y5900000D02*
X8250000D01*
G01X8235000Y6020000D02*
X8210000Y5930000D01*
X8185000Y6020000D01*
G01X8140000Y5930000D02*
Y6020000D01*
X8152000Y6002000D01*
G01Y5930000D02*
X8128000D01*
G01X8070000Y6020000D02*
X8078000Y6017000D01*
X8084000Y6009500D01*
X8088000Y6000500D01*
X8091000Y5988500D01*
X8092000Y5975000D01*
X8091000Y5961500D01*
X8088000Y5949500D01*
X8084000Y5940500D01*
X8078000Y5933000D01*
X8070000Y5930000D01*
X8062000Y5933000D01*
X8056000Y5940500D01*
X8052000Y5949500D01*
X8049000Y5961500D01*
X8048000Y5975000D01*
X8049000Y5988500D01*
X8052000Y6000500D01*
X8056000Y6009500D01*
X8062000Y6017000D01*
X8070000Y6020000D01*
G01X8030000Y5900000D02*
X7970000D01*
G01X7949000Y6005000D02*
X7943000Y6014000D01*
X7936000Y6018500D01*
X7928000Y6020000D01*
X7918000Y6017000D01*
X7911000Y6009500D01*
X7909000Y6000500D01*
X7910000Y5991500D01*
X7914000Y5984000D01*
X7934000Y5969000D01*
X7943000Y5958500D01*
X7949000Y5943500D01*
X7951000Y5930000D01*
X7909000D01*
G01X7879000Y6005000D02*
X7873000Y6014000D01*
X7866000Y6018500D01*
X7858000Y6020000D01*
X7848000Y6017000D01*
X7841000Y6009500D01*
X7839000Y6000500D01*
X7840000Y5991500D01*
X7844000Y5984000D01*
X7864000Y5969000D01*
X7873000Y5958500D01*
X7879000Y5943500D01*
X7881000Y5930000D01*
X7839000D01*
G01X7790000Y6020000D02*
X7798000Y6017000D01*
X7804000Y6009500D01*
X7808000Y6000500D01*
X7811000Y5988500D01*
X7812000Y5975000D01*
X7811000Y5961500D01*
X7808000Y5949500D01*
X7804000Y5940500D01*
X7798000Y5933000D01*
X7790000Y5930000D01*
X7782000Y5933000D01*
X7776000Y5940500D01*
X7772000Y5949500D01*
X7769000Y5961500D01*
X7768000Y5975000D01*
X7769000Y5988500D01*
X7772000Y6000500D01*
X7776000Y6009500D01*
X7782000Y6017000D01*
X7790000Y6020000D01*
G01X7720000Y5930000D02*
X7713000Y5931500D01*
X7705000Y5936000D01*
X7700000Y5943500D01*
X7698000Y5954000D01*
X7700000Y5964500D01*
X7706000Y5973500D01*
X7715000Y5978000D01*
X7725000D01*
X7731000Y5981000D01*
X7736000Y5988500D01*
X7738000Y5999000D01*
X7735000Y6009500D01*
X7728000Y6017000D01*
X7720000Y6020000D01*
X7712000Y6017000D01*
X7705000Y6009500D01*
X7702000Y5999000D01*
X7704000Y5988500D01*
X7709000Y5981000D01*
X7715000Y5978000D01*
X7725000D01*
X7734000Y5973500D01*
X7740000Y5964500D01*
X7742000Y5954000D01*
X7740000Y5943500D01*
X7735000Y5936000D01*
X7727000Y5931500D01*
X7720000Y5930000D01*
G01X7650000Y6020000D02*
X7658000Y6017000D01*
X7664000Y6009500D01*
X7668000Y6000500D01*
X7671000Y5988500D01*
X7672000Y5975000D01*
X7671000Y5961500D01*
X7668000Y5949500D01*
X7664000Y5940500D01*
X7658000Y5933000D01*
X7650000Y5930000D01*
X7642000Y5933000D01*
X7636000Y5940500D01*
X7632000Y5949500D01*
X7629000Y5961500D01*
X7628000Y5975000D01*
X7629000Y5988500D01*
X7632000Y6000500D01*
X7636000Y6009500D01*
X7642000Y6017000D01*
X7650000Y6020000D01*
G01X7599000Y6005000D02*
X7593000Y6014000D01*
X7586000Y6018500D01*
X7578000Y6020000D01*
X7568000Y6017000D01*
X7561000Y6009500D01*
X7559000Y6000500D01*
X7560000Y5991500D01*
X7564000Y5984000D01*
X7584000Y5969000D01*
X7593000Y5958500D01*
X7599000Y5943500D01*
X7601000Y5930000D01*
X7559000D01*
G01X8781000Y5760000D02*
X8739000Y5850000D01*
G01X8781000D02*
X8739000Y5760000D01*
G01X8711000D02*
X8669000Y5850000D01*
G01X8711000D02*
X8669000Y5760000D01*
G01X8641000D02*
X8599000Y5850000D01*
G01X8641000D02*
X8599000Y5760000D01*
G01X8570000Y5850000D02*
Y5760000D01*
X8530000D01*
G01X8499000Y5850000D02*
X8461000D01*
X8499000Y5760000D01*
X8461000D01*
G01X8430000Y5778000D02*
X8425000Y5769000D01*
X8419000Y5763000D01*
X8412000Y5760000D01*
X8404000Y5763000D01*
X8398000Y5769000D01*
X8392000Y5778000D01*
X8390000Y5790000D01*
Y5850000D01*
G01X8361000Y5760000D02*
X8319000Y5850000D01*
G01X8361000D02*
X8319000Y5760000D01*
G01X8291000D02*
X8249000Y5850000D01*
G01X8291000D02*
X8249000Y5760000D01*
G01X8221000D02*
X8179000Y5850000D01*
G01X8221000D02*
X8179000Y5760000D01*
M02*
