G04 ================== begin FILE IDENTIFICATION RECORD ==================*
G04 Layout Name:  EG2124A_V10_220802.brd*
G04 Film Name:    SolderMask_Top*
G04 File Format:  Gerber RS274X*
G04 File Origin:  Cadence Allegro 17.2-S079*
G04 Origin Date:  Wed Aug 24 11:37:35 2022*
G04 *
G04 Layer:  PIN/SOLDERMASK_TOP*
G04 Layer:  PACKAGE GEOMETRY/SOLDERMASK_TOP*
G04 Layer:  BOARD GEOMETRY/SOLDERMASK_TOP*
G04 *
G04 Offset:    (0.0000 0.0000)*
G04 Mirror:    No*
G04 Mode:      Positive*
G04 Rotation:  0*
G04 FullContactRelief:  No*
G04 UndefLineWidth:     0.1524*
G04 ================== end FILE IDENTIFICATION RECORD ====================*
%FSLAX55Y55*MOMM*%
%IR0*IPPOS*OFA0.00000B0.00000*MIA0B0*SFA1.00000B1.00000*%
%ADD15R,1.7X.4*%
%ADD34R,1.3X.8*%
%ADD19R,1.6X.7*%
%ADD25R,1.5X.45*%
%ADD21R,.9X1.5*%
%ADD24C,.85*%
%ADD37R,.9X.9*%
%ADD27R,1.3X1.1*%
%ADD16R,1.1X1.3*%
%ADD32R,2.5X3.2*%
%ADD36O,4.15X2.15*%
%ADD35O,2.15X4.15*%
%ADD20R,1.9X3.3*%
%ADD33R,1.9X1.7*%
%ADD22R,.7X.5*%
%ADD12R,.6X.7*%
%ADD31R,1.7X1.9*%
%ADD30C,2.3*%
%ADD29C,1.4*%
%ADD18R,.7X.6*%
%ADD11R,.7X.8*%
%ADD10C,7.*%
%ADD14C,2.6*%
%ADD13C,1.8*%
%ADD28C,1.9*%
%ADD26R,2.65X3.65*%
%ADD17C,6.45*%
%ADD23R,1.9X1.9*%
%LPD*%
G75*
G54D10*
X360000Y360000D03*
Y5740000D03*
X9640000Y360000D03*
Y5740000D03*
G54D11*
X830000Y1828060D03*
Y1700000D03*
X1240000Y1828060D03*
X970000D03*
Y1700000D03*
X1240000D03*
X1380000Y1828060D03*
Y1700000D03*
X1650000D03*
X1790000D03*
X1650000Y1828060D03*
X1790000D03*
G54D20*
X3810000Y2100000D03*
Y3290000D03*
Y4460000D03*
X4450000Y2100000D03*
Y3290000D03*
Y4460000D03*
G54D30*
X6139000Y5150000D03*
X6901000D03*
G54D12*
X825000Y1950000D03*
X775000Y4140000D03*
Y4350000D03*
Y4550000D03*
X1025000Y1950000D03*
X1115000D03*
X1235000D03*
X915000D03*
X985000Y4140000D03*
X1075000D03*
X865000D03*
X985000Y4550000D03*
X1075000D03*
X985000Y4350000D03*
X1075000D03*
X865000D03*
Y4550000D03*
X1435000Y1950000D03*
X1525000D03*
X1325000D03*
X1845000D03*
X1935000D03*
X1645000D03*
X1735000D03*
X2325000Y1480000D03*
Y2960000D03*
Y4110000D03*
X2105000Y4550000D03*
X2195000D03*
X2415000Y1480000D03*
Y2960000D03*
Y4110000D03*
X4535000Y1545000D03*
X4445000D03*
X4535000Y1805000D03*
X4445000D03*
X4535000Y2725000D03*
X4445000D03*
X4535000Y2989120D03*
X4445000D03*
X4545000Y3895000D03*
X4455000D03*
X4545000Y4145000D03*
X4455000D03*
X5025000Y2260000D03*
Y3450000D03*
Y4640000D03*
X5115000Y2260000D03*
Y3450000D03*
Y4640000D03*
G54D21*
X4165000Y1263500D03*
Y2426500D03*
X4175000Y3613500D03*
X4515000Y1263500D03*
Y2426500D03*
X4525000Y3613500D03*
G54D13*
X1574000Y373000D03*
Y627000D03*
Y5473000D03*
Y5727000D03*
X1828000Y373000D03*
Y627000D03*
Y5473000D03*
Y5727000D03*
X2082000Y373000D03*
X2336000D03*
X2082000Y627000D03*
X2336000D03*
X2082000Y5473000D03*
X2336000D03*
X2082000Y5727000D03*
X2336000D03*
X2590000Y373000D03*
Y627000D03*
Y5473000D03*
Y5727000D03*
X2844000Y373000D03*
X3098000D03*
X2844000Y627000D03*
X3098000D03*
X2844000Y5473000D03*
X3098000D03*
X2844000Y5727000D03*
X3098000D03*
X3352000Y373000D03*
Y627000D03*
Y5473000D03*
Y5727000D03*
X3606000Y373000D03*
X3860000D03*
X3606000Y627000D03*
X3860000D03*
X3606000Y5473000D03*
X3860000D03*
X3606000Y5727000D03*
X3860000D03*
X4114000Y373000D03*
Y627000D03*
Y5473000D03*
Y5727000D03*
X4368000Y373000D03*
X4622000D03*
X4368000Y627000D03*
X4622000D03*
X4368000Y5473000D03*
X4622000D03*
X4368000Y5727000D03*
X4622000D03*
X4876000Y373000D03*
Y627000D03*
Y5473000D03*
Y5727000D03*
X5130000Y373000D03*
Y5473000D03*
G54D31*
X6960000Y3790000D03*
X7340000D03*
G54D22*
X4670000Y2190000D03*
Y3380000D03*
Y4570000D03*
X4890000Y2190000D03*
Y3380000D03*
Y4570000D03*
G54D23*
X5130000Y627000D03*
Y5727000D03*
X5770000Y627000D03*
G54D14*
X1390000Y2420000D03*
Y2840000D03*
Y3260000D03*
Y3680000D03*
X1940000Y2420000D03*
Y2840000D03*
Y3260000D03*
Y3680000D03*
G54D32*
X7150000Y4345050D03*
G54D33*
X7750000Y3750000D03*
Y4030000D03*
X8040000Y3750000D03*
Y4030000D03*
Y4480000D03*
Y4860000D03*
X8330000Y4450000D03*
Y4730000D03*
G54D24*
X5400000Y4453970D03*
X7800000Y5240000D03*
Y5670000D03*
G54D15*
X1309800Y4155000D03*
Y4220000D03*
Y4285000D03*
Y4350000D03*
Y4415000D03*
Y4480000D03*
Y4545000D03*
X1869800Y4220000D03*
Y4155000D03*
Y4545000D03*
Y4480000D03*
Y4415000D03*
Y4350000D03*
Y4285000D03*
G54D16*
X2268400Y1630000D03*
Y2808120D03*
Y3957150D03*
X2471600Y1630000D03*
Y2808120D03*
Y3957150D03*
X3748400Y1263500D03*
Y2423000D03*
X3758400Y3610000D03*
X3951600Y1263500D03*
Y2423000D03*
X3961600Y3610000D03*
X6608400Y1720000D03*
X6811600D03*
G54D25*
X5758000Y1602500D03*
Y1537500D03*
Y1472500D03*
Y1407500D03*
Y1342500D03*
Y1277500D03*
Y1862500D03*
Y1797500D03*
Y1732500D03*
Y1667500D03*
X6338000Y1277500D03*
Y1342500D03*
Y1407500D03*
Y1472500D03*
Y1537500D03*
Y1602500D03*
Y1667500D03*
Y1732500D03*
Y1797500D03*
Y1862500D03*
G54D34*
X8320000Y5248510D03*
Y5438510D03*
Y5675000D03*
Y5865000D03*
X8580000Y5438510D03*
Y5343510D03*
Y5248510D03*
Y5770000D03*
Y5675000D03*
Y5865000D03*
G54D17*
X2931040Y1650000D03*
Y2808120D03*
Y3957150D03*
G54D26*
X5610000Y3790000D03*
X6650000D03*
G54D35*
X8600000Y4310000D03*
X9200000D03*
G54D18*
X3480000Y4854800D03*
Y4944800D03*
X3230000Y4854800D03*
Y4944800D03*
X3740000Y4854800D03*
Y4944800D03*
X3860000Y4854800D03*
Y4944800D03*
X3610000Y4854800D03*
Y4944800D03*
X4240000Y4854800D03*
Y4944800D03*
X4110000Y4854800D03*
Y4944800D03*
X4330000Y1545000D03*
Y1455000D03*
Y1715000D03*
Y1805000D03*
X4670000Y2125000D03*
Y2255000D03*
X4330000Y2725000D03*
Y2635000D03*
Y2899120D03*
Y2989120D03*
X4670000Y3315000D03*
Y3445000D03*
X4340000Y3895000D03*
Y3805000D03*
Y4055000D03*
Y4145000D03*
X4670000Y4505000D03*
Y4635000D03*
X4620000Y4854800D03*
Y4944800D03*
X4370000Y4854800D03*
Y4944800D03*
X4500000Y4854800D03*
Y4944800D03*
X4890000Y2255000D03*
Y2125000D03*
Y3445000D03*
Y3315000D03*
Y4635000D03*
Y4505000D03*
X4880000Y4854800D03*
Y4944800D03*
X5000000Y4854800D03*
Y4944800D03*
X6560000Y4615000D03*
X6410000D03*
Y4408970D03*
Y4498970D03*
X6560000D03*
Y4408970D03*
Y4705000D03*
X6410000D03*
X6680000Y4408970D03*
Y4498970D03*
X7560000Y3865000D03*
Y3955000D03*
X7700000Y4585000D03*
Y4675000D03*
X7830000Y4475000D03*
Y4385000D03*
Y4585000D03*
Y4675000D03*
X8130000Y5195000D03*
Y5285000D03*
Y5395000D03*
Y5625000D03*
Y5715000D03*
Y5485000D03*
Y5824610D03*
Y5914610D03*
X9630000Y5015000D03*
Y5105000D03*
G54D36*
X8880000Y4790000D03*
G54D27*
X5600000Y4452370D03*
Y4655570D03*
X5810000Y4452370D03*
Y4655570D03*
X6020000Y4452370D03*
Y4655570D03*
X6230000Y4452370D03*
Y4655570D03*
X7970000Y5241910D03*
Y5445110D03*
Y5668400D03*
Y5871600D03*
X8820000Y5241910D03*
Y5445110D03*
Y5668400D03*
Y5871600D03*
G54D28*
X6024000Y627000D03*
X6532000D03*
X6278000D03*
X6786000D03*
X7294000D03*
X7040000D03*
X7548000D03*
G54D37*
X9770000Y4983800D03*
Y5136200D03*
G54D19*
X3580000Y1440000D03*
Y1567000D03*
Y1694000D03*
Y1821000D03*
Y2618120D03*
Y2745120D03*
Y2872120D03*
Y2999120D03*
X3590000Y3787150D03*
Y3914150D03*
Y4041150D03*
Y4168150D03*
X4120000Y1567000D03*
Y1440000D03*
Y1821000D03*
Y1694000D03*
Y2745120D03*
Y2618120D03*
Y2999120D03*
Y2872120D03*
X4130000Y3787150D03*
Y4168150D03*
Y4041150D03*
Y3914150D03*
X6880000Y4155050D03*
Y4282050D03*
Y4409050D03*
Y4536050D03*
X7420000Y4282050D03*
Y4155050D03*
Y4536050D03*
Y4409050D03*
G54D29*
X5900000Y2575000D03*
Y2875000D03*
X6870000Y2575000D03*
Y2875000D03*
M02*
