G04 ================== begin FILE IDENTIFICATION RECORD ==================*
G04 Layout Name:  EG2124A_V10_220802.brd*
G04 Film Name:    TOP*
G04 File Format:  Gerber RS274X*
G04 File Origin:  Cadence Allegro 17.2-S079*
G04 Origin Date:  Wed Aug 24 11:37:35 2022*
G04 *
G04 Layer:  VIA CLASS/TOP*
G04 Layer:  PIN/TOP*
G04 Layer:  ETCH/TOP*
G04 *
G04 Offset:    (0.0000 0.0000)*
G04 Mirror:    No*
G04 Mode:      Positive*
G04 Rotation:  0*
G04 FullContactRelief:  No*
G04 UndefLineWidth:     0.1524*
G04 ================== end FILE IDENTIFICATION RECORD ====================*
%FSLAX55Y55*MOMM*%
%IR0*IPPOS*OFA0.00000B0.00000*MIA0B0*SFA1.00000B1.00000*%
%ADD36R,1.1X.6*%
%ADD16R,1.6X.3*%
%ADD20R,1.5X.6*%
%ADD26R,1.4X.35*%
%ADD22R,.8X1.4*%
%ADD25C,.75*%
%ADD11C,.508*%
%ADD39R,.8X.8*%
%ADD34C,.762*%
%ADD38O,4.X2.*%
%ADD37O,2.X4.*%
%ADD28R,1.2X1.*%
%ADD17R,1.X1.2*%
%ADD33R,2.4X3.1*%
%ADD21R,1.8X3.2*%
%ADD35R,1.8X1.6*%
%ADD27R,2.5X3.5*%
%ADD23R,.6X.4*%
%ADD13R,.5X.6*%
%ADD32R,1.6X1.8*%
%ADD19R,.6X.5*%
%ADD31C,2.2*%
%ADD30C,1.3*%
%ADD12R,.6X.7*%
%ADD15C,2.5*%
%ADD14C,1.7*%
%ADD29C,1.8*%
%ADD18C,6.35*%
%ADD10C,6.9*%
%ADD24R,1.8X1.8*%
%ADD40C,.2032*%
%ADD41C,.254*%
%ADD42C,2.*%
%ADD43C,3.1148*%
%ADD44C,3.4148*%
G75*
%LPD*%
G75*
G36*
G01X360000Y6070000D02*
X9640000D01*
G02X9970000Y5740000I0J-330000D01*
G01Y3110000D01*
G02X9900000Y3040000I-70000J0D01*
G01X7860000D01*
G03X7800000Y2980000I0J-60000D01*
G01Y1350000D01*
G03X7860000Y1290000I60000J0D01*
G01X9900000D01*
G02X9970000Y1220000I0J-70000D01*
G01Y360000D01*
G02X9640000Y30000I-330000J0D01*
G01X360000D01*
G02X30000Y360000I0J330000D01*
G01Y5740000D01*
G02X360000Y6070000I330000J0D01*
G37*
%LPC*%
G75*
G36*
G01X6474260Y4025740D02*
X6751050D01*
X6754260Y4028950D01*
Y4235740D01*
X7005740D01*
Y3988950D01*
X7085740Y3908950D01*
Y3654260D01*
X6888950D01*
X6798950Y3564260D01*
X6474260D01*
Y4025740D01*
G37*
G36*
G01X9686300Y5189700D02*
G02X9730000Y5221940I43700J-13497D01*
G01X9810000D01*
G02X9855740Y5176200I0J-45740D01*
G01Y5096200D01*
G02X9810000Y5050460I-45740J0D01*
G01X9759860D01*
X9758220Y5049880D01*
G02X9738800Y5046560I-19417J55121D01*
G01X9705740D01*
Y4990000D01*
G02X9688440Y4954180I-45733J0D01*
G01Y4680000D01*
G02X9671320Y4638680I-58424J0D01*
G01X9621320Y4588680D01*
G02X9580000Y4571560I-41326J41318D01*
G01X8687330D01*
G03X8676650Y4533960I6J-20318D01*
G02X8745740Y4410000I-76658J-123960D01*
G01Y4210000D01*
G02X8600000Y4064260I-145740J0D01*
G02X8461540Y4164510I0J145742D01*
G02X8432270Y4169230I8446J145493D01*
G01X8426600Y4170750D01*
X8415270Y4159420D01*
X8515740Y4058950D01*
Y3241050D01*
X8418950Y3144260D01*
X7158950D01*
X7135740Y3121050D01*
Y2811050D01*
X7058950Y2734260D01*
X5861050D01*
X5794260Y2801050D01*
Y2842070D01*
X5793840Y2843480D01*
G02Y2906520I106172J31520D01*
G01X5794260Y2907930D01*
Y3058950D01*
X5851050Y3115740D01*
X6801050D01*
X6814260Y3128950D01*
Y3438950D01*
X6891050Y3515740D01*
X8131050D01*
X8134260Y3518950D01*
Y3871050D01*
X8111050Y3894260D01*
X7635740D01*
Y3840000D01*
G02X7590000Y3794260I-45740J0D01*
G01X7530000D01*
G02X7508300Y3799730I-9J45742D01*
G02X7480000Y3793860I-28300J65284D01*
G02X7408860Y3865000I0J71140D01*
G02X7474840Y3935950I71137J0D01*
G03X7484260Y3946090I-741J10134D01*
G01Y3980000D01*
G02X7504100Y4017700I45739J0D01*
G01Y4036850D01*
X7461640Y4079310D01*
X7345000D01*
G02X7299260Y4125050I0J45740D01*
G01Y4194260D01*
X7294260D01*
Y4375740D01*
X7299260D01*
Y4439050D01*
G02X7308380Y4466460I45750J0D01*
G03Y4478640I-8130J6090D01*
G02X7299260Y4506050I36630J27410D01*
G01Y4566050D01*
G02X7345000Y4611790I45740J0D01*
G01X7495000D01*
G02X7532700Y4591950I0J-45739D01*
G01X7624260D01*
Y4610000D01*
G02X7670000Y4655740I45740J0D01*
G01X7730000D01*
G02X7758640Y4645660I0J-45727D01*
G03X7771360I6360J7927D01*
G02X7800000Y4655740I28640J-35647D01*
G01X7860000D01*
G02X7869650Y4654710I-2J-45740D01*
G03X7894260Y4674570I4290J19862D01*
G01Y4738950D01*
X7941050Y4785740D01*
X8121050D01*
X8201050Y4865740D01*
X8475740D01*
Y4688440D01*
X8635170D01*
G03X8652890Y4718700I-1J20319D01*
G02X8634260Y4790000I127123J71300D01*
G02X8780000Y4935740I145740J0D01*
G01X8980000D01*
G02X9125740Y4790000I0J-145740D01*
G02X9107110Y4718700I-145753J0D01*
G03X9124830Y4688440I17721J-9941D01*
G01X9555790D01*
X9571560Y4704210D01*
Y4954180D01*
G02X9554260Y4990000I28433J35820D01*
G01Y5040000D01*
G02X9558860Y5060000I45742J8D01*
G02X9554260Y5080000I41142J19992D01*
G01Y5130000D01*
G02X9600000Y5175740I45740J0D01*
G01X9660000D01*
G02X9664770Y5175490I-6J-45740D01*
G03X9686300Y5189700I2115J20210D01*
G37*
G36*
G01X1687720Y5959280D02*
G02X1747000Y5983840I59287J-59277D01*
G01X7570000D01*
G02X7629280Y5959280I-7J-83837D01*
G01X7834730Y5753840D01*
X7881080D01*
G02X7910000Y5764140I28920J-35450D01*
G01X8030000D01*
G02X8048450Y5760250I-8J-45738D01*
G03X8061170Y5764180I4094J9298D01*
G02X8065300Y5769800I38817J-24198D01*
G02X8054260Y5799610I34703J29801D01*
G01Y5849610D01*
G02X8100000Y5895350I45740J0D01*
G01X8121690D01*
X8130860Y5904530D01*
G02X8170390Y5920900I39530J-39543D01*
G01X8227300D01*
G02X8265000Y5940740I37700J-25899D01*
G01X8375000D01*
G02X8420190Y5902080I0J-45741D01*
G01X8420700Y5898810D01*
X8430230Y5889280D01*
X8445470Y5904530D01*
G02X8485000Y5920900I39530J-39543D01*
G02X8487270Y5920850I-96J-55898D01*
G02X8525000Y5940740I37730J-25841D01*
G01X8635000D01*
G02X8680740Y5895000I0J-45740D01*
G01Y5835000D01*
G02X8635000Y5789260I-45740J0D01*
G01X8525000D01*
G02X8517680Y5789850I3J45740D01*
G01X8516880Y5789980D01*
X8505900D01*
Y5750020D01*
X8516880D01*
X8517680Y5750150D01*
G02X8525000Y5750740I7323J-45150D01*
G01X8635000D01*
G02X8653170Y5746980I8J-45742D01*
G01X8655100Y5746140D01*
X8723630D01*
G02X8760000Y5764140I36370J-27744D01*
G01X8880000D01*
G02X8925740Y5718400I0J-45740D01*
G01Y5681230D01*
X9009280Y5597680D01*
G02X9033840Y5538400I-59277J-59287D01*
G01Y5320000D01*
G02X9009280Y5260720I-83837J7D01*
G01X8931190Y5182630D01*
G02X8922530Y5175080I-59294J59270D01*
G02X8903790Y5152840I-42534J16825D01*
G02X8903840Y5150000I-83789J-2896D01*
G02X8879280Y5090720I-83837J7D01*
G01X8829280Y5040720D01*
G02X8770000Y5016160I-59287J59277D01*
G01X7680000D01*
G02X7620720Y5040720I7J83837D01*
G01X7335270Y5326160D01*
X5554730D01*
X5490040Y5261470D01*
Y4774650D01*
X5535740Y4728950D01*
Y4578950D01*
X5548950Y4565740D01*
X6308950D01*
X6333720Y4540960D01*
X6341590Y4548830D01*
X6342140Y4549630D01*
G02X6343090Y4550980I37874J-25643D01*
G03Y4562990I-8199J6005D01*
G02X6334260Y4590000I36909J27014D01*
G01Y4640000D01*
G02X6380000Y4685740I45740J0D01*
G01X6416690D01*
X6434100Y4703150D01*
Y4750000D01*
G02X6450470Y4789530I55913J0D01*
G01X6480470Y4819530D01*
G02X6520000Y4835900I39530J-39543D01*
G01X6830000D01*
G02X6869530Y4819530I0J-55913D01*
G01X6919530Y4769530D01*
G02X6935900Y4730000I-39543J-39530D01*
G01Y4611790D01*
X6955000D01*
G02X7000740Y4566050I0J-45740D01*
G01Y4506050D01*
G02X6991620Y4478640I-45750J0D01*
G03Y4466460I8130J-6090D01*
G02X7000740Y4439050I-36630J-27410D01*
G01Y4379050D01*
G02X6955000Y4333310I-45740J0D01*
G01X6805000D01*
G02X6767300Y4353150I0J45739D01*
G01X6743800D01*
G02X6710000Y4338230I-33800J30826D01*
G01X6650000D01*
G02X6620000Y4349440I0J45748D01*
G02X6590000Y4338230I-30000J34538D01*
G01X6530000D01*
G02X6498840Y4350480I-5J45742D01*
G03X6471160I-13840J-14872D01*
G02X6440000Y4338230I-31155J33492D01*
G01X6380000D01*
G02X6377270Y4338310I-26J45741D01*
G03X6355740Y4318030I-1211J-20283D01*
G01Y4071050D01*
X6298950Y4014260D01*
X5785740D01*
Y3564260D01*
X5594210D01*
G03X5574430Y3539310I5J-20319D01*
G02X5575900Y3526570I-54431J-12735D01*
G01Y3203150D01*
X5739530Y3039530D01*
G02X5755900Y3000000I-39543J-39530D01*
G01Y2129720D01*
X5762800Y2127390D01*
G02X5811140Y2060000I-22804J-67390D01*
G02X5811130Y2058770I-71140J-37D01*
G01Y2048440D01*
X6430000D01*
G02X6471320Y2031320I-6J-58438D01*
G01X6513360Y1989280D01*
G02X6530480Y1947960I-41318J-41326D01*
G01Y1845620D01*
G03X6553140Y1825440I20319J3D01*
G02X6558400Y1825740I5230J-45442D01*
G01X6658400D01*
G02X6704140Y1780000I0J-45740D01*
G01Y1696470D01*
X6750300Y1650300D01*
G02X6771140Y1600000I-50283J-50300D01*
G02X6740920Y1541810I-71134J0D01*
G03X6738240Y1510820I11687J-16622D01*
G01X6779690Y1469370D01*
G02X6796060Y1429840I-39543J-39530D01*
G01Y963150D01*
X6833150Y926060D01*
X7050840D01*
G02X7090370Y909690I0J-55913D01*
G01X7245950Y754100D01*
X7251880Y756040D01*
G02X7294000Y762740I42120J-129045D01*
G02Y491260I0J-135740D01*
G02X7183540Y548110I0J135737D01*
G03X7150460I-16540J-11805D01*
G02X6929540I-110460J78887D01*
G03X6896460I-16540J-11805D01*
G02X6675540I-110460J78887D01*
G03X6642460I-16540J-11805D01*
G02X6421540I-110460J78887D01*
G03X6388460I-16540J-11805D01*
G02X6167540I-110460J78887D01*
G03X6134460I-16540J-11805D01*
G02X6024000Y491260I-110460J78887D01*
G02Y762740I0J135740D01*
G02X6066120Y756040I0J-135745D01*
G01X6072050Y754100D01*
X6137470Y819530D01*
G02X6177000Y835900I39530J-39543D01*
G01X6256850D01*
X6282100Y861150D01*
Y1214260D01*
X6268000D01*
G02X6222260Y1260000I0J45740D01*
G01Y1295000D01*
G02X6224790Y1310000I45731J0D01*
G02X6222260Y1325000I43201J15000D01*
G01Y1360000D01*
G02X6224790Y1375000I45731J0D01*
G02X6222260Y1390000I43201J15000D01*
G01Y1425000D01*
G02X6224790Y1440000I45731J0D01*
G02X6222260Y1455000I43201J15000D01*
G01Y1490000D01*
G02X6224790Y1505000I45731J0D01*
G02X6222260Y1520000I43201J15000D01*
G01Y1555000D01*
G02X6224790Y1570000I45731J0D01*
G02X6222260Y1585000I43201J15000D01*
G01Y1620000D01*
G02X6224790Y1635000I45731J0D01*
G02X6222260Y1650000I43201J15000D01*
G01Y1685000D01*
G02X6236210Y1717890I45747J0D01*
G03Y1747110I-14119J14610D01*
G02X6222260Y1780000I31797J32890D01*
G01Y1815000D01*
G02X6224790Y1830000I45731J0D01*
G02X6222390Y1841500I43206J15017D01*
G01X6222110Y1845250D01*
X6195790Y1871560D01*
X5961130D01*
Y1861230D01*
G02X5961140Y1860000I-71130J-1193D01*
G02X5892390Y1788900I-71140J0D01*
G03X5873050Y1772100I675J-20309D01*
G02X5871210Y1765000I-45054J7887D01*
G02X5873740Y1750000I-43201J-15000D01*
G01Y1715000D01*
G02X5871210Y1700000I-45731J0D01*
G02X5873740Y1685000I-43201J-15000D01*
G01Y1650000D01*
G02X5871210Y1635000I-45731J0D01*
G02X5873740Y1620000I-43201J-15000D01*
G01Y1585000D01*
G02X5871210Y1570000I-45731J0D01*
G02X5873740Y1555000I-43201J-15000D01*
G01Y1520000D01*
G02X5871210Y1505000I-45731J0D01*
G02X5873740Y1490000I-43201J-15000D01*
G01Y1455000D01*
G02X5871210Y1440000I-45731J0D01*
G02X5873740Y1425000I-43201J-15000D01*
G01Y1390000D01*
G02X5871210Y1375000I-45731J0D01*
G02X5873740Y1360000I-43201J-15000D01*
G01Y1325000D01*
G02X5871210Y1310000I-45731J0D01*
G02X5873740Y1295000I-43201J-15000D01*
G01Y1260000D01*
G02X5828000Y1214260I-45740J0D01*
G01X5688000D01*
G02X5669460Y1218190I9J45738D01*
G01X5667490Y1219060D01*
X4732500D01*
G02X4691180Y1236180I6J58438D01*
G01X4635430Y1291930D01*
G03X4600740Y1277560I-14369J-14370D01*
G01Y1193500D01*
G02X4555000Y1147760I-45740J0D01*
G01X4475000D01*
G02X4430190Y1184310I0J45743D01*
G03X4420650Y1192420I-9953J-2042D01*
G02X4352360Y1263500I2847J71080D01*
G02X4358700Y1292860I71152J0D01*
G03X4340190Y1321560I-18511J8381D01*
G01X4274210D01*
X4250740Y1298090D01*
Y1193500D01*
G02X4205000Y1147760I-45740J0D01*
G01X4125000D01*
G02X4080200Y1184250I0J45746D01*
G01X4078530Y1192360D01*
X4046480D01*
X4043890Y1186070D01*
G02X4001600Y1157760I-42290J17432D01*
G01X3845740D01*
Y1154260D01*
X2661050D01*
X2564260Y1251050D01*
Y1507830D01*
G03X2537070Y1526950I-20318J-1D01*
G02X2521600Y1524260I-15455J43053D01*
G01X2426370D01*
G03X2406600Y1499270I4J-20318D01*
G02X2408840Y1480000I-81602J-19251D01*
G02X2388380Y1425120I-83833J0D01*
G02X2367560Y1407760I-38387J24873D01*
G02X2325000Y1396160I-42551J72242D01*
G02X2282440Y1407760I-9J83842D01*
G02X2262690Y1423540I17566J42234D01*
G01X2262200Y1424240D01*
X2209120Y1477320D01*
G02X2184560Y1536600I59277J59287D01*
G02X2184600Y1539180I83840J-10D01*
G02X2172660Y1570000I33807J30820D01*
G01Y1690000D01*
G02X2218400Y1735740I45740J0D01*
G01X2521600D01*
G02X2537070Y1733050I15J-45743D01*
G03X2564260Y1752170I6872J19121D01*
G01Y1768950D01*
X2604570Y1809250D01*
X2605310Y1810760D01*
G02X2931040Y2013240I325730J-160761D01*
G02X3198540Y1895740I0J-363245D01*
G01X3495440D01*
X3496390Y1895920D01*
G02X3505000Y1896740I8622J-44919D01*
G01X3664260D01*
Y2334260D01*
X2661050D01*
X2564260Y2431050D01*
Y2685950D01*
G03X2537070Y2705070I-20318J-1D01*
G02X2521600Y2702380I-15455J43053D01*
G01X2218400D01*
G02X2172660Y2748120I0J45740D01*
G01Y2868120D01*
G02X2182400Y2896330I45738J-5D01*
G01X2184560Y2899090D01*
Y2903400D01*
G02X2209120Y2962680I83837J-7D01*
G01X2262230Y3015800D01*
G02X2282440Y3032240I37775J-25795D01*
G02X2325000Y3043840I42551J-72242D01*
G02X2367560Y3032240I9J-83842D01*
G02X2388380Y3014880I-17567J-42233D01*
G02X2408840Y2960000I-63373J-54880D01*
G02X2406220Y2939220I-83838J15D01*
G03X2425910Y2913860I19686J-5039D01*
G01X2521600D01*
G02X2537070Y2911170I15J-45743D01*
G03X2564260Y2930290I6872J19121D01*
G01Y2948950D01*
X2637800Y3022480D01*
G02X2931040Y3171360I293240J-214349D01*
G02X3176650Y3075740I0J-363248D01*
G01X3664260D01*
Y3504260D01*
X2671050D01*
X2574260Y3601050D01*
Y3839550D01*
G03X2543990Y3857270I-20321J1D01*
G02X2521600Y3851410I-22399J39878D01*
G01X2218400D01*
G02X2172660Y3897150I0J45740D01*
G01Y4017150D01*
G02X2182400Y4045360I45738J-5D01*
G01X2184560Y4048120D01*
Y4053400D01*
G02X2209120Y4112680I83837J-7D01*
G01X2262230Y4165800D01*
G02X2282440Y4182240I37775J-25795D01*
G02X2325000Y4193840I42551J-72242D01*
G02X2367560Y4182240I9J-83842D01*
G02X2388380Y4164880I-17567J-42233D01*
G02X2408840Y4110000I-63373J-54880D01*
G02X2406020Y4088440I-83827J0D01*
G03X2425660Y4062890I19635J-5230D01*
G01X2521600D01*
G02X2543990Y4057030I-9J-45738D01*
G03X2574260Y4074750I9949J17719D01*
G01Y4118950D01*
X2701050Y4245740D01*
X2710430D01*
X2713130Y4247770D01*
G02X2931040Y4320390I217910J-290630D01*
G02X3151630Y4245740I0J-363246D01*
G01X3674260D01*
Y4665740D01*
X3956690D01*
X4000470Y4709530D01*
G02X4040000Y4725900I39530J-39543D01*
G01X4051760D01*
Y4739040D01*
X4050150Y4741550D01*
G02X4038860Y4780000I59848J38456D01*
G02X4042760Y4803240I71141J9D01*
G02X4034260Y4829800I37246J26560D01*
G01Y4879800D01*
G02X4038860Y4899800I45742J8D01*
G02X4034260Y4919800I41142J19992D01*
G01Y4969800D01*
G02X4055560Y5008460I45734J0D01*
G01Y5356050D01*
G02X4004080Y5402210I58434J116955D01*
G03X3969920I-17080J-11003D01*
G02X3918440Y5356050I-109914J70795D01*
G01Y5005620D01*
G02X3935740Y4969800I-28433J-35820D01*
G01Y4919800D01*
G02X3931140Y4899800I-45742J-8D01*
G02X3935740Y4879800I-41142J-19992D01*
G01Y4829800D01*
G02X3927240Y4803240I-45746J0D01*
G02X3931140Y4780000I-67241J-23231D01*
G02X3860000Y4708860I-71140J0D01*
G02X3813330Y4726310I0J71134D01*
G03X3786670I-13330J-15338D01*
G02X3740000Y4708860I-46670J53684D01*
G02X3689440Y4729950I0J71150D01*
G03X3660560I-14440J-14292D01*
G02X3559440I-50560J50060D01*
G03X3530560I-14440J-14292D01*
G02X3480000Y4708860I-50560J50060D01*
G02X3408860Y4780000I0J71140D01*
G02X3412760Y4803240I71141J9D01*
G02X3404260Y4829800I37246J26560D01*
G01Y4879800D01*
G02X3408860Y4899800I45742J8D01*
G02X3404260Y4919800I41142J19992D01*
G01Y4969800D01*
G02X3421560Y5005620I45733J0D01*
G01Y5330190D01*
G03X3394620Y5349400I-20319J0D01*
G02X3352000Y5342260I-42615J123601D01*
G02X3314580Y5347730I0J130729D01*
G03X3288440Y5328260I-5820J-19468D01*
G01Y5005620D01*
G02X3305740Y4969800I-28433J-35820D01*
G01Y4919800D01*
G02X3301140Y4899800I-45742J-8D01*
G02X3305740Y4879800I-41142J-19992D01*
G01Y4829800D01*
G02X3297240Y4803240I-45746J0D01*
G02X3301140Y4780000I-67241J-23231D01*
G02X3158860I-71140J0D01*
G02X3162760Y4803240I71141J9D01*
G02X3154260Y4829800I37246J26560D01*
G01Y4879800D01*
G02X3158860Y4899800I45742J8D01*
G02X3154260Y4919800I41142J19992D01*
G01Y4969800D01*
G02X3171560Y5005620I45733J0D01*
G01Y5331630D01*
G03X3144080Y5350650I-20320J4D01*
G02X3098000Y5342260I-46080J122347D01*
G02X2988080Y5402210I0J130746D01*
G03X2953920I-17080J-11003D01*
G02X2734080I-109920J70796D01*
G03X2699920I-17080J-11003D01*
G02X2480080I-109920J70796D01*
G03X2445920I-17080J-11003D01*
G02X2226080I-109920J70796D01*
G03X2191920I-17080J-11003D01*
G02X1972080I-109920J70796D01*
G03X1937920I-17080J-11003D01*
G02X1828000Y5342260I-109920J70796D01*
G02X1697260Y5473000I0J130740D01*
G02X1757210Y5582920I130746J0D01*
G03Y5617080I-11003J17080D01*
G02X1718080Y5656210I70790J109920D01*
G03X1683920I-17080J-11003D01*
G02X1574000Y5596260I-109920J70796D01*
G02X1480620Y5635500I0J130729D01*
G01X1480580Y5635530D01*
X1473360Y5642750D01*
X1451140Y5620530D01*
Y5349470D01*
X1499470Y5301140D01*
X2040000D01*
G02X2090300Y5280300I0J-71123D01*
G01X2155300Y5215300D01*
G02X2176140Y5165000I-50297J-50306D01*
G01Y4550000D01*
G02X2175790Y4542950I-71140J-2D01*
G01X2175740Y4542450D01*
Y4520000D01*
G02X2130000Y4474260I-45740J0D01*
G01X2080000D01*
G02X2078430Y4474290I89J45738D01*
G03X2059360Y4445320I-690J-20308D01*
G02X2066140Y4415000I-64362J-30310D01*
G02X2045050Y4364440I-71150J0D01*
G03Y4335560I14292J-14440D01*
G02Y4234440I-50060J-50560D01*
G03Y4205560I14292J-14440D01*
G02X2066140Y4155000I-50060J-50560D01*
G02X1995000Y4083860I-71140J0D01*
G02X1957040Y4094840I9J71137D01*
G02X1949800Y4094260I-7261J45158D01*
G01X1789800D01*
G02X1744060Y4140000I0J45740D01*
G01Y4161560D01*
X1404200D01*
X1402790Y4161140D01*
G02X1389800Y4159260I-12979J43862D01*
G01X1229800D01*
G02X1198380Y4171760I0J45739D01*
G01X1191200Y4178550D01*
X1181320Y4168680D01*
G02X1140000Y4151560I-41326J41318D01*
G01X1074690D01*
X1055740Y4132610D01*
Y4110000D01*
G02X1010000Y4064260I-45740J0D01*
G01X960000D01*
G02X948760Y4065660I-10J45741D01*
G03X923440Y4045970I-5001J-19694D01*
G01Y3369210D01*
X974210Y3318440D01*
X1229570D01*
G02X1390000Y3430740I160430J-58444D01*
G02X1560740Y3260000I0J-170740D01*
G02X1540010Y3178460I-170731J0D01*
G03X1557870Y3148440I17855J-9700D01*
G01X1745790D01*
X1785140Y3187780D01*
X1782500Y3194070D01*
G02X1769260Y3260000I157501J65924D01*
G02X1940000Y3430740I170740J0D01*
G02X2039410Y3398820I5J-170742D01*
G03X2071560Y3415340I11831J16518D01*
G01Y3465790D01*
X2012220Y3525140D01*
X2005930Y3522500D01*
G02X1940000Y3509260I-65924J157501D01*
G02X2110740Y3680000I0J170740D01*
G02X2097500Y3614070I-170741J-6D01*
G01X2094860Y3607780D01*
X2171320Y3531320D01*
G02X2188440Y3490000I-41318J-41326D01*
G01Y3110000D01*
G02X2171320Y3068680I-58438J6D01*
G01X2071320Y2968680D01*
G02X2069260Y2966710I-41407J41237D01*
G03X2068440Y2952490I6825J-7527D01*
G02X2110740Y2840000I-128438J-112495D01*
G02X1940000Y2669260I-170740J0D01*
G02X1874070Y2682500I-6J170741D01*
G01X1867780Y2685140D01*
X1703440Y2520790D01*
Y2025740D01*
X1760000D01*
G02X1763120Y2025630I-51J-45738D01*
G03X1773960Y2036300I692J10139D01*
G02X1773860Y2040000I71038J3771D01*
G02X1845000Y2111140I71140J0D01*
G02X1915980Y2044710I0J-71136D01*
G03X1936260Y2025740I20276J1351D01*
G01X1961560D01*
Y2065790D01*
X1898680Y2128680D01*
G02X1881560Y2170000I41318J41326D01*
G01Y2259570D01*
G02X1769260Y2420000I58444J160430D01*
G02X2110740I170740J0D01*
G02X1998440Y2259570I-170744J0D01*
G01Y2194210D01*
X2061320Y2131320D01*
G02X2078440Y2090000I-41318J-41326D01*
G01Y1600000D01*
G02X2061320Y1558680I-58438J6D01*
G01X1981320Y1478680D01*
G02X1940000Y1461560I-41326J41318D01*
G01X730000D01*
G02X688680Y1478680I6J58438D01*
G01X683130Y1484230D01*
G03X648440Y1469860I-14369J-14370D01*
G01Y1054210D01*
X734210Y968440D01*
X5070000D01*
G02X5111320Y951320I-6J-58438D01*
G01X5171320Y891320D01*
G02X5188440Y850000I-41318J-41326D01*
G01Y762740D01*
X5220000D01*
G02X5265740Y717000I0J-45740D01*
G01Y537000D01*
G02X5235070Y493810I-45745J0D01*
G03X5226730Y460960I6694J-19183D01*
G02X5260740Y373000I-96740J-87960D01*
G02X5130000Y242260I-130740J0D01*
G02X5020080Y302210I0J130746D01*
G03X4985920I-17080J-11003D01*
G02X4766080I-109920J70796D01*
G03X4731920I-17080J-11003D01*
G02X4512080I-109920J70796D01*
G03X4477920I-17080J-11003D01*
G02X4258080I-109920J70796D01*
G03X4223920I-17080J-11003D01*
G02X4004080I-109920J70796D01*
G03X3969920I-17080J-11003D01*
G02X3750080I-109920J70796D01*
G03X3715920I-17080J-11003D01*
G02X3496080I-109920J70796D01*
G03X3461920I-17080J-11003D01*
G02X3242080I-109920J70796D01*
G03X3207920I-17080J-11003D01*
G02X2988080I-109920J70796D01*
G03X2953920I-17080J-11003D01*
G02X2734080I-109920J70796D01*
G03X2699920I-17080J-11003D01*
G02X2480080I-109920J70796D01*
G03X2445920I-17080J-11003D01*
G02X2226080I-109920J70796D01*
G03X2191920I-17080J-11003D01*
G02X1972080I-109920J70796D01*
G03X1937920I-17080J-11003D01*
G02X1828000Y242260I-109920J70796D01*
G02X1697260Y373000I0J130740D01*
G02X1757210Y482920I130746J0D01*
G03Y517080I-11003J17080D01*
G02X1718080Y556210I70790J109920D01*
G03X1683920I-17080J-11003D01*
G02X1574000Y496260I-109920J70796D01*
G02Y757740I0J130740D01*
G02X1683920Y697790I0J-130746D01*
G03X1718080I17080J11003D01*
G02X1937920I109920J-70796D01*
G03X1972080I17080J11003D01*
G02X2191920I109920J-70796D01*
G03X2226080I17080J11003D01*
G02X2445920I109920J-70796D01*
G03X2480080I17080J11003D01*
G02X2699920I109920J-70796D01*
G03X2734080I17080J11003D01*
G02X2953920I109920J-70796D01*
G03X2988080I17080J11003D01*
G02X3207920I109920J-70796D01*
G03X3242080I17080J11003D01*
G02X3461920I109920J-70796D01*
G03X3496080I17080J11003D01*
G02X3715920I109920J-70796D01*
G03X3750080I17080J11003D01*
G02X3969920I109920J-70796D01*
G03X4004080I17080J11003D01*
G02X4223920I109920J-70796D01*
G03X4258080I17080J11003D01*
G02X4477920I109920J-70796D01*
G03X4512080I17080J11003D01*
G02X4731920I109920J-70796D01*
G03X4766080I17080J11003D01*
G02X4876000Y757740I109920J-70796D01*
G02X4963960Y723730I0J-130750D01*
G03X4996810Y732070I13667J15034D01*
G02X5040000Y762740I43190J-15075D01*
G01X5071560D01*
Y825790D01*
X5045790Y851560D01*
X710000D01*
G02X668680Y868680I6J58438D01*
G01X548680Y988680D01*
G02X531560Y1030000I41318J41326D01*
G01Y1940000D01*
G02X548680Y1981320I58438J-6D01*
G01X648680Y2081320D01*
G02X690000Y2098440I41326J-41318D01*
G01X850000D01*
G02X891320Y2081320I-6J-58438D01*
G01X947420Y2025230D01*
X950260Y2024570D01*
G02X970000Y2014530I-10249J-44576D01*
G02X1000000Y2025740I30000J-34538D01*
G01X1140000D01*
G02X1151240Y2024340I10J-45741D01*
G03X1176560Y2044030I5001J19694D01*
G01Y2265000D01*
G02X1193680Y2306320I58438J-6D01*
G01X1235240Y2347880D01*
G02X1219260Y2420000I154754J72120D01*
G02X1390000Y2249260I170740J0D01*
G02X1317880Y2265240I0J170734D01*
G01X1293440Y2240790D01*
Y2025740D01*
X1350000D01*
G02X1353120Y2025630I-51J-45738D01*
G03X1363960Y2036300I692J10139D01*
G02X1363860Y2040000I71038J3771D01*
G02X1435000Y2111140I71140J0D01*
G02X1505980Y2044710I0J-71136D01*
G03X1526260Y2025740I20276J1351D01*
G01X1550000D01*
G02X1561240Y2024340I10J-45741D01*
G03X1586560Y2044030I5001J19694D01*
G01Y2545000D01*
G02X1603680Y2586320I58438J-6D01*
G01X1785140Y2767780D01*
X1782500Y2774070D01*
G02X1769260Y2840000I157501J65924D01*
G02X1789990Y2921540I170731J0D01*
G03X1772130Y2951560I-17855J9700D01*
G01X620000D01*
G02X578680Y2968680I6J58438D01*
G01X458680Y3088680D01*
G02X441560Y3130000I41318J41326D01*
G01Y4430000D01*
G02X458680Y4471320I58438J-6D01*
G01X508680Y4521320D01*
G02X550000Y4538440I41326J-41318D01*
G01X618870D01*
Y4548770D01*
G02X618860Y4550000I71130J1193D01*
G02X690000Y4621140I71140J0D01*
G02X719980Y4614510I-9J-71138D01*
G02X750000Y4625740I30020J-34510D01*
G01X890000D01*
G02X918640Y4615660I0J-45727D01*
G03X931360I6360J7927D01*
G02X960000Y4625740I28640J-35647D01*
G01X1010000D01*
G02X1055740Y4580000I0J-45740D01*
G01Y4546910D01*
X1064210Y4538440D01*
X1095790D01*
X1143680Y4586320D01*
G02X1185000Y4603440I41326J-41318D01*
G01X1215400D01*
X1216810Y4603860D01*
G02X1229800Y4605740I12979J-43862D01*
G01X1389800D01*
G02X1435540Y4560000I0J-45740D01*
G01Y4538440D01*
X1744060D01*
Y4560000D01*
G02X1789800Y4605740I45740J0D01*
G01X1949800D01*
G02X1962790Y4603860I11J-45742D01*
G01X1964200Y4603440D01*
X2033860D01*
Y5135530D01*
X2010530Y5158860D01*
X1470000D01*
G02X1419700Y5179700I0J71123D01*
G01X1329700Y5269700D01*
G02X1308860Y5320000I50297J50306D01*
G01Y5650000D01*
G02X1329700Y5700300I71137J-6D01*
G01X1406700Y5777300D01*
G02X1457000Y5798140I50300J-50283D01*
G01X1464180D01*
X1467220Y5802440D01*
G02X1574000Y5857740I106780J-75442D01*
G02X1581190Y5857540I-39J-130739D01*
G01X1585720Y5857290D01*
X1687720Y5959280D01*
G37*
G54D43*
X6901000Y5150000D03*
G54D44*
X1390000Y3680000D03*
%LPD*%
G75*
G36*
G01X1069690Y4356560D02*
X1184060D01*
Y4334580D01*
G03X1173680Y4326320I30963J-49562D01*
G01X1115790Y4268440D01*
X1050480D01*
G03X1047930Y4268380I99J-58438D01*
G02X1040680Y4286070I-440J10150D01*
G03X1055740Y4320000I-30692J33930D01*
G01Y4342610D01*
X1069690Y4356560D01*
G37*
G36*
G01X2710000Y1850000D02*
X3660000D01*
Y1660000D01*
X3340000D01*
X3310000Y1630000D01*
Y1350000D01*
X3330000Y1330000D01*
X3670000D01*
X3700000Y1360000D01*
Y1401760D01*
X3700130Y1402580D01*
G03X3700740Y1410000I-45128J7445D01*
G01Y1460740D01*
X3720000Y1480000D01*
X4200000D01*
Y1412650D01*
X4187350Y1400000D01*
X3810000D01*
X3800000Y1390000D01*
Y1200000D01*
X2680000D01*
X2610000Y1270000D01*
Y1750000D01*
X2710000Y1850000D01*
G37*
G36*
G01Y3030000D02*
X3660000D01*
Y2840000D01*
X3340000D01*
X3310000Y2810000D01*
Y2530000D01*
X3330000Y2510000D01*
X3670000D01*
X3700000Y2540000D01*
Y2579880D01*
X3700130Y2580700D01*
G03X3700740Y2588120I-45128J7445D01*
G01Y2640740D01*
X3720000Y2660000D01*
X4200000D01*
Y2580000D01*
X3810000D01*
X3800000Y2570000D01*
Y2380000D01*
X2680000D01*
X2610000Y2450000D01*
Y2930000D01*
X2710000Y3030000D01*
G37*
G36*
G01X2720000Y4200000D02*
X3670000D01*
Y4010000D01*
X3350000D01*
X3320000Y3980000D01*
Y3700000D01*
X3340000Y3680000D01*
X3680000D01*
X3710000Y3710000D01*
Y3748910D01*
X3710130Y3749730D01*
G03X3710740Y3757150I-45128J7445D01*
G01Y3810740D01*
X3730000Y3830000D01*
X4210000D01*
Y3762650D01*
X4197350Y3750000D01*
X3820000D01*
X3810000Y3740000D01*
Y3550000D01*
X2690000D01*
X2620000Y3620000D01*
Y4100000D01*
X2720000Y4200000D01*
G37*
G36*
G01X3370000Y1610000D02*
X3970000D01*
X3990000Y1590000D01*
Y1540000D01*
X3975740Y1525740D01*
X3701050D01*
X3695310Y1520000D01*
X3680000D01*
X3660000Y1500000D01*
Y1484690D01*
X3654260Y1478950D01*
Y1384260D01*
X3650000Y1380000D01*
X3370000D01*
X3360000Y1390000D01*
Y1600000D01*
X3370000Y1610000D01*
G37*
G36*
G01Y2790000D02*
X3970000D01*
X3990000Y2770000D01*
Y2720000D01*
X3975740Y2705740D01*
X3701050D01*
X3695310Y2700000D01*
X3680000D01*
X3660000Y2680000D01*
Y2664690D01*
X3654260Y2658950D01*
Y2564260D01*
X3650000Y2560000D01*
X3370000D01*
X3360000Y2570000D01*
Y2780000D01*
X3370000Y2790000D01*
G37*
G36*
G01X3380000Y3960000D02*
X3980000D01*
X4000000Y3940000D01*
Y3890000D01*
X3985740Y3875740D01*
X3711050D01*
X3705310Y3870000D01*
X3690000D01*
X3670000Y3850000D01*
Y3834690D01*
X3664260Y3828950D01*
Y3734260D01*
X3660000Y3730000D01*
X3380000D01*
X3370000Y3740000D01*
Y3950000D01*
X3380000Y3960000D01*
G37*
G36*
G01X3950000Y2270000D02*
X3970000Y2250000D01*
Y1750000D01*
X3990000Y1730000D01*
X4200000D01*
Y1660000D01*
X3730000D01*
X3710000Y1680000D01*
Y2270000D01*
X3950000D01*
G37*
G36*
G01Y3450000D02*
X3970000Y3430000D01*
Y2930000D01*
X3990000Y2910000D01*
X4200000D01*
Y2840000D01*
X3730000D01*
X3710000Y2860000D01*
Y3450000D01*
X3950000D01*
G37*
G36*
G01X3960000Y4620000D02*
X3980000Y4600000D01*
Y4100000D01*
X4000000Y4080000D01*
X4210000D01*
Y4010000D01*
X3740000D01*
X3720000Y4030000D01*
Y4620000D01*
X3960000D01*
G37*
G36*
G01X4600740Y2481560D02*
X5095790D01*
X5161560Y2415790D01*
Y1520000D01*
G03X5167190Y1494960I58443J-13D01*
G02X5148830Y1465940I-18360J-8702D01*
G01X4795720D01*
X4793700Y1473460D01*
G03X4725000Y1526140I-68700J-18456D01*
G03X4679320Y1509540I0J-71151D01*
G02X4651900Y1510740I-13055J15572D01*
G01X4605740Y1556910D01*
Y1575000D01*
G03X4560000Y1620740I-45740J0D01*
G01X4420000D01*
G03X4387140Y1606820I0J-45745D01*
G03X4360000Y1615740I-27140J-36828D01*
G01X4340370D01*
X4337960Y1617180D01*
G03X4330530Y1620920I-29924J-50198D01*
G02X4330680Y1639730I3919J9374D01*
G03X4337480Y1642970I-21685J54268D01*
G01X4339790Y1644260D01*
X4360000D01*
G03X4405740Y1690000I0J45740D01*
G01Y1719250D01*
G02X4416650Y1729380I10159J-1D01*
G03X4420000Y1729260I3311J45621D01*
G01X4560000D01*
G03X4605740Y1775000I0J45740D01*
G01Y1793090D01*
X4614210Y1801560D01*
X4989430D01*
G03X5030000Y1788860I40570J58450D01*
G03Y1931140I0J71140D01*
G03X4989430Y1918440I0J-71150D01*
G01X4590000D01*
G03X4548680Y1901320I6J-58438D01*
G01X4528090Y1880740D01*
X4420000D01*
G03X4387140Y1866820I0J-45745D01*
G03X4360000Y1875740I-27140J-36828D01*
G01X4334530D01*
X4332930Y1876290D01*
G03X4314000Y1879440I-18928J-55290D01*
G01X4230820D01*
G03X4195000Y1896740I-35820J-28433D01*
G01X4045000D01*
G03X4038810Y1896320I-6J-45740D01*
G02X4015740Y1916450I-2751J20132D01*
G01Y2236690D01*
X4023150Y2244100D01*
X4594260D01*
Y2230000D01*
G03X4603600Y2202300I45745J0D01*
G02Y2177700I-16173J-12300D01*
G03X4594260Y2150000I36405J-27700D01*
G01Y2100000D01*
G03X4640000Y2054260I45740J0D01*
G01X4656690D01*
X4690470Y2020470D01*
G03X4730000Y2004100I39530J39543D01*
G01X4986000D01*
G03X5030000Y1988860I44000J55897D01*
G03Y2131140I0J71140D01*
G03X4988530Y2117800I0J-71129D01*
G01X4985880Y2115900D01*
X4970000D01*
Y2183860D01*
X5020000D01*
G03X5027050Y2184210I2J71140D01*
G01X5027550Y2184260D01*
X5050000D01*
G03X5095740Y2230000I0J45740D01*
G01Y2252450D01*
X5095790Y2252950D01*
G03X5096140Y2260000I-70790J7048D01*
G01Y2345000D01*
G03X4953860I-71140J0D01*
G01Y2326140D01*
X4890000D01*
G03X4882950Y2325790I-2J-71140D01*
G01X4882450Y2325740D01*
X4860000D01*
G03X4814260Y2280000I0J-45740D01*
G01Y2230000D01*
G03X4818960Y2209810I45739J5D01*
G01X4820000Y2207690D01*
Y2115900D01*
X4753150D01*
X4745740Y2123310D01*
Y2150000D01*
G03X4736400Y2177700I-45745J0D01*
G02Y2202300I16173J12300D01*
G03X4745740Y2230000I-36405J27700D01*
G01Y2280000D01*
G03X4700000Y2325740I-45740J0D01*
G01X4673310D01*
X4659530Y2339530D01*
G03X4620000Y2355900I-39530J-39543D01*
G01X4600740D01*
Y2481560D01*
G37*
G36*
G01X5096140Y3450000D02*
Y3476690D01*
G02X5113480Y3483870I10159J-6D01*
G01X5131560Y3465790D01*
Y2980000D01*
G03X5148680Y2938680I58438J6D01*
G01X5351560Y2735790D01*
Y2707120D01*
G02X5318750Y2691100I-20319J6D01*
G03X5275000Y2706140I-43750J-56112D01*
G03X5217980Y2677540I0J-71141D01*
G02X5187320Y2675320I-16290J12148D01*
G01X5091320Y2771320D01*
G03X5050000Y2788440I-41326J-41318D01*
G01X4591210D01*
G03X4560000Y2800740I-31210J-33446D01*
G01X4420000D01*
G03X4387140Y2786820I0J-45745D01*
G03X4360000Y2795740I-27140J-36828D01*
G01X4339190D01*
X4336980Y2796900D01*
G03X4328830Y2800400I-27069J-51793D01*
G02X4327810Y2819210I3297J9611D01*
G03X4339150Y2826200I-24795J52919D01*
G01X4341920Y2828380D01*
X4360000D01*
G03X4405740Y2874120I0J45740D01*
G01Y2903370D01*
G02X4416650Y2913500I10159J-1D01*
G03X4420000Y2913380I3311J45621D01*
G01X4560000D01*
G03X4596500Y2931560I0J45731D01*
G01X4979430D01*
G03X5020000Y2918860I40570J58450D01*
G03Y3061140I0J71140D01*
G03X4979430Y3048440I0J-71150D01*
G01X4595110D01*
G03X4560000Y3064860I-35110J-29327D01*
G01X4420000D01*
G03X4387140Y3050940I0J-45745D01*
G03X4360000Y3059860I-27140J-36828D01*
G01X4300000D01*
G03X4287010Y3057980I-11J-45742D01*
G01X4285600Y3057560D01*
X4230820D01*
G03X4195000Y3074860I-35820J-28433D01*
G01X4045000D01*
G03X4038810Y3074440I-6J-45740D01*
G02X4015740Y3094570I-2751J20132D01*
G01Y3416690D01*
X4033150Y3434100D01*
X4586850D01*
X4594260Y3426690D01*
Y3420000D01*
G03X4603600Y3392300I45745J0D01*
G02Y3367700I-16173J-12300D01*
G03X4594260Y3340000I36405J-27700D01*
G01Y3290000D01*
G03X4640000Y3244260I45740J0D01*
G01X4666690D01*
X4700470Y3210470D01*
G03X4740000Y3194100I39530J39543D01*
G01X4976000D01*
G03X5020000Y3178860I44000J55897D01*
G03Y3321140I0J71140D01*
G03X4996910Y3317290I-4J-71141D01*
G02X4970000Y3336510I-6591J19221D01*
G01Y3373860D01*
X5020000D01*
G03X5027050Y3374210I2J71140D01*
G01X5027550Y3374260D01*
X5050000D01*
G03X5095740Y3420000I0J45740D01*
G01Y3442450D01*
X5095790Y3442950D01*
G03X5096140Y3450000I-70790J7048D01*
G37*
G36*
G01X5103270Y4734100D02*
X5126850D01*
X5134100Y4726850D01*
Y3883070D01*
G02X5116760Y3875890I-10159J6D01*
G01X5111320Y3881320D01*
G03X5070000Y3898440I-41326J-41318D01*
G01X4874210D01*
X4615740Y4156910D01*
Y4175000D01*
G03X4570000Y4220740I-45740J0D01*
G01X4430000D01*
G03X4397140Y4206820I0J-45745D01*
G03X4370000Y4215740I-27140J-36828D01*
G01X4350900D01*
X4348390Y4217350D01*
G03X4316850Y4226590I-31540J-49210D01*
G01X4240820D01*
G03X4205000Y4243890I-35820J-28433D01*
G01X4055000D01*
G03X4048810Y4243470I-6J-45740D01*
G02X4025740Y4263600I-2751J20132D01*
G01Y4576690D01*
X4063150Y4614100D01*
X4593540D01*
X4594530Y4605040D01*
G03X4603600Y4582300I45471J4958D01*
G02Y4557700I-16173J-12300D01*
G03X4594260Y4530000I36405J-27700D01*
G01Y4480000D01*
G03X4640000Y4434260I45740J0D01*
G01X4700000D01*
G03X4731040Y4446400I0J45752D01*
G01X4733960Y4449100D01*
X4739680D01*
G03X4779210Y4465470I0J55913D01*
G01X4799530Y4485790D01*
G03X4802170Y4488630I-39598J39457D01*
G01X4820000Y4481960D01*
Y4440000D01*
X4990000D01*
Y4464730D01*
G02X5013580Y4484780I20319J-5D01*
G03X5025000Y4483860I11404J70221D01*
G03X5096140Y4555000I0J71140D01*
G01Y4640000D01*
G03X5095790Y4647050I-71140J2D01*
G01X5095740Y4647550D01*
Y4670000D01*
G03X5085680Y4698630I-45743J9D01*
G01X5083440Y4701410D01*
Y4705000D01*
G03X5083080Y4711520I-58442J43D01*
G02X5103270Y4734100I20192J2262D01*
G37*
G36*
G01X4610740Y3546550D02*
Y3622090D01*
G02X4628080Y3629270I10159J-6D01*
G01X4638680Y3618680D01*
G03X4680000Y3601560I41326J41318D01*
G01X4949240D01*
G02X4966070Y3569860I-1J-20318D01*
G03X4953860Y3530000I58932J-39852D01*
G01Y3516140D01*
X4890000D01*
G03X4882950Y3515790I-2J-71140D01*
G01X4882450Y3515740D01*
X4860000D01*
G03X4814260Y3470000I0J-45740D01*
G01Y3420000D01*
G03X4818960Y3399810I45739J5D01*
G01X4820000Y3397690D01*
Y3305900D01*
X4763150D01*
X4745740Y3323310D01*
Y3340000D01*
G03X4736400Y3367700I-45745J0D01*
G02Y3392300I16173J12300D01*
G03X4745740Y3420000I-36405J27700D01*
G01Y3470000D01*
G03X4700000Y3515740I-45740J0D01*
G01X4663310D01*
X4649530Y3529530D01*
G03X4619220Y3545130I-39518J-39536D01*
G01X4610740Y3546550D01*
G37*
G36*
G01X5370000Y4780000D02*
X5420000D01*
X5490000Y4710000D01*
Y4560000D01*
X5530000Y4520000D01*
X6290000D01*
X6310000Y4500000D01*
Y4090000D01*
X6280000Y4060000D01*
X5760000D01*
X5740000Y4040000D01*
Y3610000D01*
X5515620D01*
X5480000Y3645620D01*
Y4250000D01*
X5510000Y4280000D01*
X5940000D01*
X5960000Y4300000D01*
Y4370000D01*
X5940000Y4390000D01*
X5310000D01*
X5290000Y4410000D01*
Y4700000D01*
X5370000Y4780000D01*
G37*
G36*
G01X5265740Y5816160D02*
X7535270D01*
X7740720Y5610720D01*
G03X7800000Y5586160I59287J59277D01*
G01X7877550D01*
G03X7910000Y5572660I32450J32250D01*
G01X7965220D01*
G03X8013400Y5553860I48180J52337D01*
G01X8270000D01*
G03X8320300Y5574700I-6J71137D01*
G01X8344870Y5599260D01*
X8375000D01*
G03X8418640Y5631290I0J45744D01*
G01X8419380Y5633670D01*
X8428330Y5642620D01*
X8440470Y5630470D01*
G03X8480000Y5614100I39530J39543D01*
G01X8491040D01*
X8493960Y5611400D01*
G03X8525000Y5599260I31040J33612D01*
G01X8635000D01*
G03X8653170Y5603020I8J45742D01*
G01X8655100Y5603860D01*
X8716170D01*
X8718970Y5598190D01*
G03X8760000Y5572660I41030J20205D01*
G01X8797170D01*
X8866160Y5503670D01*
Y5354730D01*
X8849080Y5337650D01*
X8760000D01*
G03X8723630Y5319650I0J-45744D01*
G01X8655100D01*
X8653170Y5320490D01*
G03X8635000Y5324250I-18162J-41982D01*
G01X8525000D01*
G03X8517680Y5323660I3J-45740D01*
G01X8516880Y5323530D01*
X8505900D01*
Y5363490D01*
X8516880D01*
X8517680Y5363360D01*
G03X8525000Y5362770I7323J45150D01*
G01X8635000D01*
G03X8680740Y5408510I0J45740D01*
G01Y5468510D01*
G03X8635000Y5514250I-45740J0D01*
G01X8525000D01*
G03X8487290Y5494400I0J-45745D01*
G03X8448980Y5478040I1219J-55889D01*
G01X8430620Y5459680D01*
X8420870Y5469430D01*
X8420520Y5473040D01*
G03X8375000Y5514250I-45520J-4535D01*
G01X8265000D01*
G03X8227300Y5494410I0J-45739D01*
G01X8174440D01*
G03X8134910Y5478040I0J-55913D01*
G01X8122620Y5465740D01*
X8100000D01*
G03X8054260Y5420000I0J-45740D01*
G01Y5370000D01*
G03X8055050Y5361530I45741J-6D01*
G02X8033520Y5337510I-19970J-3759D01*
G03X8030000Y5337650I-3576J-45598D01*
G01X7910000D01*
G03X7896910Y5335740I-10J-45741D01*
G01X7895480Y5335310D01*
X7883840D01*
Y5350000D01*
G03X7716160I-83840J0D01*
G01Y5240000D01*
G03X7716470Y5232820I83839J23D01*
G02X7681850Y5216710I-20247J-1743D01*
G01X7429280Y5469280D01*
G03X7370000Y5493840I-59287J-59277D01*
G01X5520000D01*
G03X5460720Y5469280I7J-83837D01*
G01X5346920Y5355480D01*
G03X5322360Y5296200I59277J-59287D01*
G01Y4797050D01*
X5303240Y4777930D01*
G02X5285900Y4785110I-7181J7186D01*
G01Y4810000D01*
G03X5269530Y4849530I-55913J0D01*
G01X5224730Y4894330D01*
G03X5185200Y4910700I-39530J-39543D01*
G01X5075740D01*
Y4969800D01*
G03X5058440Y5005620I-45733J0D01*
G01Y5330900D01*
G02X5085650Y5350010I20319J-5D01*
G03X5130000Y5342260I44344J122991D01*
G03X5260740Y5473000I0J130740D01*
G03X5226730Y5560960I-130750J0D01*
G02X5235070Y5593810I15034J13667D01*
G03X5265740Y5637000I-15075J43190D01*
G01Y5816160D01*
G37*
G36*
G01X8220000Y4820000D02*
X8430000D01*
Y4640000D01*
X8280000D01*
X8130000Y4490000D01*
Y4380000D01*
X8470000Y4040000D01*
Y3260000D01*
X8400000Y3190000D01*
X7140000D01*
X7090000Y3140000D01*
Y2830000D01*
X7040000Y2780000D01*
X5880000D01*
X5840000Y2820000D01*
Y3040000D01*
X5870000Y3070000D01*
X6820000D01*
X6860000Y3110000D01*
Y3420000D01*
X6910000Y3470000D01*
X8150000D01*
X8180000Y3500000D01*
Y3890000D01*
X8130000Y3940000D01*
X7650000D01*
Y4110000D01*
X7520000Y4240000D01*
X7340000D01*
Y4330000D01*
X7890000D01*
X7940000Y4380000D01*
Y4720000D01*
X7954260Y4734260D01*
X8130000D01*
G03X8175110Y4772440I0J45739D01*
G01X8175650Y4775650D01*
X8220000Y4820000D01*
G37*
G36*
G01X6520000Y3610000D02*
Y3980000D01*
X6770000D01*
X6800000Y4010000D01*
Y4190000D01*
X6960000D01*
Y3970000D01*
X7040000Y3890000D01*
Y3700000D01*
X6870000D01*
X6780000Y3610000D01*
X6520000D01*
G37*
G36*
G01X6545900Y4724100D02*
X6806850D01*
X6824100Y4706850D01*
Y4611790D01*
X6805000D01*
G03X6759260Y4566050I0J-45740D01*
G01Y4506050D01*
G03X6766910Y4480730I45727J0D01*
G01X6768600Y4478180D01*
Y4464950D01*
X6743650D01*
G03X6710000Y4479710I-33650J-30978D01*
G01X6650000D01*
G03X6646650Y4479590I-39J-45741D01*
G02X6635740Y4489720I-751J10131D01*
G01Y4523970D01*
G03X6626910Y4550980I-45739J-4D01*
G02Y4562990I8199J6005D01*
G03X6635740Y4590000I-36909J27014D01*
G01Y4640000D01*
G03X6590000Y4685740I-45740J0D01*
G01X6545900D01*
Y4724100D01*
G37*
G54D10*
X360000Y360000D03*
Y5740000D03*
X9640000Y360000D03*
Y5740000D03*
G54D11*
G01X1574000Y5727000D02*
X1457000D01*
X1380000Y5650000D01*
Y5320000D01*
X1470000Y5230000D01*
X2040000D01*
X2105000Y5165000D01*
Y4550000D01*
G01X4165000Y1263500D02*
X3951600D01*
G01X4165000Y2426500D02*
X3955100D01*
X3951600Y2423000D01*
G01X4175000Y3613500D02*
X3965100D01*
X3961600Y3610000D01*
G01X4515000Y1263500D02*
X4423500D01*
G01X4515000Y2426500D02*
X4423500D01*
G01X4525000Y3613500D02*
X4436500D01*
G01X4890000Y2255000D02*
X5020000D01*
X5025000Y2260000D01*
G01D02*
Y2345000D01*
G01X4890000Y3445000D02*
X5020000D01*
X5025000Y3450000D01*
G01D02*
Y3530000D01*
G01X4890000Y4635000D02*
X5020000D01*
X5025000Y4640000D01*
G01D02*
Y4555000D01*
G01X6338000Y1667500D02*
X6555900D01*
X6608400Y1720000D01*
G01D02*
Y1691600D01*
X6700000Y1600000D01*
G01X8130000Y5195000D02*
X8016910D01*
X7970000Y5241910D01*
G01X8130000Y5625000D02*
X8013400D01*
X7970000Y5668400D01*
G01X8130000Y5195000D02*
X8266490D01*
X8320000Y5248510D01*
G01X8130000Y5625000D02*
X8270000D01*
X8320000Y5675000D01*
G01X8580000Y5248510D02*
X8813400D01*
X8820000Y5241910D01*
G01X8580000Y5675000D02*
X8813400D01*
X8820000Y5668400D01*
X123390Y1016900D03*
Y1416900D03*
Y1816900D03*
Y2216900D03*
Y2616900D03*
Y3016900D03*
Y3416900D03*
Y3816900D03*
Y4216900D03*
Y4616900D03*
X741940Y1828060D03*
X721210Y2332780D03*
Y2732780D03*
X690000Y4140000D03*
Y4550000D03*
Y4350000D03*
X783320Y4840330D03*
X923050Y341490D03*
X917150Y1417520D03*
X1141940Y1828060D03*
X1121210Y2332780D03*
Y2732780D03*
X1170000Y4140000D03*
X1097150Y3987520D03*
X1170000Y4350000D03*
X1183320Y4840330D03*
X1000640Y5721480D03*
X1323050Y341490D03*
X1317150Y1417520D03*
X1561940Y1828060D03*
X1560000Y1700000D03*
X1435000Y2040000D03*
X1497150Y3987520D03*
X1583320Y4840330D03*
X1823580Y131880D03*
X1845000Y2040000D03*
X1995000Y4155000D03*
Y4415000D03*
Y4285000D03*
X1983320Y4840330D03*
X2223580Y131880D03*
X2007150Y1317520D03*
X2287150Y4307520D03*
X2623580Y131880D03*
X2407150Y1317520D03*
X2697150Y2187520D03*
X2757150Y3317520D03*
X2687150Y4307520D03*
X2383320Y4840330D03*
X3023580Y131880D03*
X3097150Y2187520D03*
X2783320Y4840330D03*
X3423580Y131880D03*
X3390000Y1570000D03*
X3460000D03*
Y1500000D03*
X3390000D03*
X3460000Y1430000D03*
X3390000D03*
Y2750000D03*
X3460000D03*
Y2680000D03*
X3390000D03*
X3460000Y2610000D03*
X3390000D03*
X3157150Y3317520D03*
X3470000Y3850000D03*
X3400000D03*
X3470000Y3780000D03*
X3400000D03*
Y3920000D03*
X3470000D03*
X3230000Y4780000D03*
X3480000D03*
X3823580Y131880D03*
X3810000Y1570000D03*
X3740000D03*
X3880000D03*
Y2750000D03*
X3740000D03*
X3810000D03*
X3890000Y3920000D03*
X3750000D03*
X3820000D03*
X3610000Y4780000D03*
X3860000D03*
X3740000D03*
X4223580Y131880D03*
X3950000Y1570000D03*
X4120000Y1920000D03*
Y2220000D03*
Y2120000D03*
Y2020000D03*
X3950000Y2750000D03*
X4200000Y3400000D03*
X4100000D03*
Y3300000D03*
X4200000D03*
X4190000Y4280000D03*
X4090000D03*
X3960000Y3920000D03*
X4190000Y4390000D03*
X4280000Y4470000D03*
X4240000Y4780000D03*
X4110000D03*
X4623580Y131880D03*
X4505000Y1455000D03*
X4423500Y1263500D03*
X4657150Y1657520D03*
X4423500Y2426500D03*
X4300000Y3400000D03*
Y3300000D03*
X4435000Y3805000D03*
X4436500Y3613500D03*
X4620000Y4780000D03*
X4370000D03*
X5023580Y131880D03*
X4730950Y993610D03*
X4725000Y1455000D03*
X5030000Y1960000D03*
X4930000D03*
X4830000D03*
X4730000D03*
X5030000Y1860000D03*
X4680000Y2350000D03*
X4780000D03*
X4880000D03*
X4780000Y2160000D03*
X5025000Y2345000D03*
X5030000Y2060000D03*
X5025000Y2635000D03*
X5020000Y2990000D03*
X4780000Y3360000D03*
Y3460000D03*
X5020000Y3250000D03*
X5025000Y3530000D03*
X4755000Y3805000D03*
X4740000Y4130000D03*
Y4230000D03*
Y4330000D03*
X5025000Y4555000D03*
X5130950Y993610D03*
X5057150Y1657520D03*
X5120000Y2160000D03*
X5080000Y2450000D03*
X5275000Y2635000D03*
X5100000Y3360000D03*
X5330000Y4610000D03*
Y4540000D03*
Y4680000D03*
X5484000Y162940D03*
X5530950Y993610D03*
X5740000Y2060000D03*
X5510000Y2990000D03*
X5460000Y3250000D03*
Y4610000D03*
Y4540000D03*
X5630000Y4780000D03*
X5530000D03*
X5720000D03*
X5460000Y4680000D03*
X5542240Y5643820D03*
X5884000Y162940D03*
X5930950Y993610D03*
X6042480Y1407150D03*
Y1807150D03*
X5890000Y1860000D03*
X5937150Y2237520D03*
X6098490Y3032470D03*
Y2832470D03*
X5898490Y3032470D03*
X6017150Y3347520D03*
X5820000Y4780000D03*
X5942240Y5643820D03*
X6284000Y162940D03*
X6337150Y2237520D03*
X6197150Y2567520D03*
X6498490Y3032470D03*
X6298490D03*
X6498490Y2832470D03*
X6298490D03*
X6417150Y3347520D03*
X6480000Y4280000D03*
Y4080000D03*
X6342240Y5643820D03*
X6684000Y162940D03*
X6700000Y1600000D03*
X6762480Y1837150D03*
Y2237150D03*
X6597150Y2567520D03*
X6698490Y2832470D03*
Y3032470D03*
X6898490D03*
X6820000Y3865000D03*
X6640000Y4280000D03*
Y4080000D03*
X6770000Y4640000D03*
X6670000D03*
X6742240Y5643820D03*
X7084000Y162940D03*
X6982480Y1047150D03*
Y1447150D03*
X7162480Y1837150D03*
Y2237150D03*
X7070000Y4130000D03*
X7230000D03*
Y4030000D03*
X7070000D03*
X7230000Y4650000D03*
X7070000D03*
Y4550000D03*
X7230000D03*
X7142240Y5643820D03*
X7484000Y162940D03*
X7382480Y1047150D03*
Y1447150D03*
X7452480Y2497150D03*
Y2897150D03*
X7480000Y3550000D03*
Y3650000D03*
Y3750000D03*
Y3865000D03*
X7430000Y4030000D03*
Y4650000D03*
X7990000Y3580000D03*
X7890000D03*
X7860000Y4770000D03*
Y4870000D03*
Y4970000D03*
X7760000D03*
Y4870000D03*
X7800000Y5350000D03*
X8092480Y287150D03*
Y687150D03*
Y1087150D03*
X8090000Y3580000D03*
X8492480Y287150D03*
Y687150D03*
Y1087150D03*
X8892480Y287150D03*
Y687150D03*
Y1087150D03*
X8903760Y3268240D03*
Y3668240D03*
Y4068240D03*
X9206530Y5053800D03*
Y5453800D03*
X9292480Y687150D03*
Y1087150D03*
X9303760Y3268240D03*
Y3668240D03*
Y4068240D03*
X9703760Y3268240D03*
Y3668240D03*
Y4068240D03*
G54D20*
X3580000Y1440000D03*
Y1567000D03*
Y1694000D03*
Y1821000D03*
Y2618120D03*
Y2745120D03*
Y2872120D03*
Y2999120D03*
X3590000Y3787150D03*
Y3914150D03*
Y4041150D03*
Y4168150D03*
X4120000Y1567000D03*
Y1440000D03*
Y1821000D03*
Y1694000D03*
Y2745120D03*
Y2618120D03*
Y2999120D03*
Y2872120D03*
X4130000Y3787150D03*
Y4168150D03*
Y4041150D03*
Y3914150D03*
X6880000Y4155050D03*
Y4282050D03*
Y4409050D03*
Y4536050D03*
X7420000Y4282050D03*
Y4155050D03*
Y4536050D03*
Y4409050D03*
G54D12*
X830000Y1828060D03*
Y1700000D03*
X1240000Y1828060D03*
X970000D03*
Y1700000D03*
X1240000D03*
X1380000Y1828060D03*
Y1700000D03*
X1650000D03*
X1790000D03*
X1650000Y1828060D03*
X1790000D03*
G54D30*
X5900000Y2575000D03*
Y2875000D03*
X6870000Y2575000D03*
Y2875000D03*
G54D21*
X3810000Y2100000D03*
Y3290000D03*
Y4460000D03*
X4450000Y2100000D03*
Y3290000D03*
Y4460000D03*
G54D40*
G01X1869800Y4155000D02*
X1995000D01*
G01X1869800Y4415000D02*
X1995000D01*
G01X1869800Y4285000D02*
X1995000D01*
G01X3230000Y4854800D02*
Y4780000D01*
G01X3480000Y4854800D02*
Y4780000D01*
G01X3610000Y4854800D02*
Y4780000D01*
G01X3860000Y4854800D02*
Y4780000D01*
G01X3740000Y4854800D02*
Y4780000D01*
G01X3950000Y2250000D02*
X4000000Y2300000D01*
X4620000D01*
X4665000Y2255000D01*
X4670000D01*
G01X3950000Y3430000D02*
X4010000Y3490000D01*
X4610000D01*
X4655000Y3445000D01*
X4670000D01*
G01X3960000Y4590000D02*
X4040000Y4670000D01*
X4620000D01*
X4655000Y4635000D01*
X4670000D01*
G01X4240000Y4854800D02*
Y4780000D01*
G01X4110000Y4854800D02*
Y4780000D01*
G01X4450000Y2100000D02*
Y2140000D01*
X4500000Y2190000D01*
G01D02*
X4670000D01*
G01Y3380000D02*
X4540000D01*
G01D02*
X4450000Y3290000D01*
G01Y4460000D02*
Y4520000D01*
X4500000Y4570000D01*
G01D02*
X4670000D01*
G01Y4505000D02*
X4739680D01*
X4760000Y4525320D01*
Y4699680D01*
X4739680Y4720000D01*
X4530000D01*
X4500000Y4750000D01*
Y4854800D01*
G01X4620000D02*
Y4780000D01*
G01X4370000Y4854800D02*
Y4780000D01*
G01X5030000Y2060000D02*
X4730000D01*
X4670000Y2120000D01*
Y2125000D01*
G01X5020000Y3250000D02*
X4740000D01*
X4675000Y3315000D01*
X4670000D01*
G01X5740000Y2060000D02*
X5700000Y2100000D01*
Y3000000D01*
X5520000Y3180000D01*
Y3526570D01*
X5230000Y3816570D01*
Y4810000D01*
X5185200Y4854800D01*
X5000000D01*
G01X5460000Y3250000D02*
Y3530000D01*
X5190000Y3800000D01*
Y4750000D01*
X5150000Y4790000D01*
X4950000D01*
X4885200Y4854800D01*
X4880000D01*
G01X6024000Y627000D02*
X6177000Y780000D01*
X6280000D01*
X6338000Y838000D01*
Y1277500D01*
G01X6532000Y627000D02*
X6545160Y640160D01*
Y1349050D01*
X6486710Y1407500D01*
X6338000D01*
G01X6278000Y627000D02*
X6480160Y829160D01*
Y1322120D01*
X6459780Y1342500D01*
X6338000D01*
G01X7040000Y627000D02*
X6893600Y773400D01*
X6771920D01*
X6675160Y870160D01*
Y1402910D01*
X6540570Y1537500D01*
X6338000D01*
G01X6786000Y627000D02*
X6610160Y802840D01*
Y1375980D01*
X6513640Y1472500D01*
X6338000D01*
G01Y1602500D02*
X6567500D01*
X6740160Y1429840D01*
Y940000D01*
X6810000Y870160D01*
X7050840D01*
X7294000Y627000D01*
G01X6410000Y4498970D02*
Y4615000D01*
G01X6880000Y4536050D02*
Y4730000D01*
X6830000Y4780000D01*
X6520000D01*
X6490000Y4750000D01*
Y4680000D01*
X6425000Y4615000D01*
X6410000D01*
G01X6880000Y4409050D02*
X6680080D01*
X6680000Y4408970D01*
G01X6560000D02*
X6680000D01*
G01X6560000Y4498970D02*
Y4615000D01*
G01X7560000Y3865000D02*
X7480000D01*
G01X7560000Y3955000D02*
Y4060000D01*
X7464950Y4155050D01*
X7420000D01*
G01Y4409050D02*
X7629040D01*
X7694990Y4475000D01*
X7830000D01*
G01X7420000Y4536050D02*
X7651050D01*
X7700000Y4585000D01*
G01X7830000Y4475000D02*
Y4585000D01*
G01X8580000Y5248510D02*
X8578510Y5250000D01*
X8490000D01*
X8450000Y5290000D01*
Y5400000D01*
X8488510Y5438510D01*
X8580000D01*
G01X8130000Y5285000D02*
Y5395000D01*
G01X8320000Y5438510D02*
X8174440D01*
X8130930Y5395000D01*
X8130000D01*
G01X8580000Y5675000D02*
X8575000Y5670000D01*
X8480000D01*
X8450000Y5700000D01*
Y5830000D01*
X8485000Y5865000D01*
X8580000D01*
G01X8130000Y5715000D02*
Y5824610D01*
G01X8320000Y5865000D02*
X8170390D01*
X8130000Y5824610D01*
G54D31*
X6139000Y5150000D03*
X6901000D03*
G54D13*
X825000Y1950000D03*
X775000Y4140000D03*
Y4350000D03*
Y4550000D03*
X1025000Y1950000D03*
X1115000D03*
X1235000D03*
X915000D03*
X985000Y4140000D03*
X1075000D03*
X865000D03*
X985000Y4550000D03*
X1075000D03*
X985000Y4350000D03*
X1075000D03*
X865000D03*
Y4550000D03*
X1435000Y1950000D03*
X1525000D03*
X1325000D03*
X1845000D03*
X1935000D03*
X1645000D03*
X1735000D03*
X2325000Y1480000D03*
Y2960000D03*
Y4110000D03*
X2105000Y4550000D03*
X2195000D03*
X2415000Y1480000D03*
Y2960000D03*
Y4110000D03*
X4535000Y1545000D03*
X4445000D03*
X4535000Y1805000D03*
X4445000D03*
X4535000Y2725000D03*
X4445000D03*
X4535000Y2989120D03*
X4445000D03*
X4545000Y3895000D03*
X4455000D03*
X4545000Y4145000D03*
X4455000D03*
X5025000Y2260000D03*
Y3450000D03*
Y4640000D03*
X5115000Y2260000D03*
Y3450000D03*
Y4640000D03*
G54D22*
X4165000Y1263500D03*
Y2426500D03*
X4175000Y3613500D03*
X4515000Y1263500D03*
Y2426500D03*
X4525000Y3613500D03*
G54D41*
G01X5130000Y627000D02*
Y850000D01*
X5070000Y910000D01*
X710000D01*
X590000Y1030000D01*
Y1940000D01*
X690000Y2040000D01*
X850000D01*
X915000Y1975000D01*
Y1950000D01*
G01X825000D02*
X720000D01*
X660000Y1890000D01*
Y1590000D01*
X730000Y1520000D01*
X1940000D01*
X2020000Y1600000D01*
Y2090000D01*
X1940000Y2170000D01*
Y2420000D01*
G01X830000Y1828060D02*
X741940D01*
G01X1240000Y1700000D02*
X1160000Y1620000D01*
X910000D01*
X830000Y1700000D01*
G01X865000Y4350000D02*
Y4325000D01*
X820000Y4280000D01*
X650000D01*
X590000Y4220000D01*
Y3180000D01*
X680000Y3090000D01*
X1770000D01*
X1940000Y3260000D01*
G01X865000Y4550000D02*
Y4535000D01*
X810000Y4480000D01*
X550000D01*
X500000Y4430000D01*
Y3130000D01*
X620000Y3010000D01*
X2030000D01*
X2130000Y3110000D01*
Y3490000D01*
X1940000Y3680000D01*
G01X775000Y4140000D02*
X690000D01*
G01X775000Y4550000D02*
X690000D01*
G01X775000Y4350000D02*
X690000D01*
G01X1240000Y1828060D02*
X1141940D01*
G01X915000Y1950000D02*
Y1883060D01*
X970000Y1828060D01*
G01X1025000Y1950000D02*
Y1883060D01*
X970000Y1828060D01*
G01X1115000Y1950000D02*
Y1935000D01*
X1070000Y1890000D01*
Y1725400D01*
X1044600Y1700000D01*
X970000D01*
G01X1390000Y3260000D02*
X950000D01*
X865000Y3345000D01*
Y4140000D01*
G01X1075000D02*
X1170000D01*
G01X1309800Y4155000D02*
X1185000D01*
X1170000Y4140000D01*
G01X865000D02*
X985000D01*
G01D02*
Y4144520D01*
X1050480Y4210000D01*
X1140000D01*
X1215000Y4285000D01*
X1309800D01*
G01X1075000Y4350000D02*
X1170000D01*
G01X865000D02*
X985000D01*
G01X1309800Y4415000D02*
X1045480D01*
X985000Y4354520D01*
Y4350000D01*
G01X865000Y4550000D02*
X985000D01*
G01D02*
Y4535000D01*
X1040000Y4480000D01*
X1120000D01*
X1185000Y4545000D01*
X1309800D01*
G01X1650000Y1828060D02*
X1561940D01*
G01X1325000Y1950000D02*
Y1883060D01*
X1380000Y1828060D01*
G01X1435000Y1950000D02*
Y1883060D01*
X1380000Y1828060D01*
G01X1435000Y1950000D02*
Y2040000D01*
G01X1650000Y1700000D02*
X1560000D01*
G01X1240000D02*
X1320000Y1620000D01*
X1480000D01*
X1560000Y1700000D01*
G01X1235000Y1950000D02*
Y2265000D01*
X1390000Y2420000D01*
G01X1380000Y1700000D02*
X1454600D01*
X1480000Y1725400D01*
Y1890000D01*
X1525000Y1935000D01*
Y1950000D01*
G01X1309800Y4220000D02*
X1869800D01*
G01X1309800Y4350000D02*
X1869800D01*
G01X1309800Y4480000D02*
X1869800D01*
G01X1735000Y1950000D02*
Y1883060D01*
X1790000Y1828060D01*
G01X1845000Y1950000D02*
Y1883060D01*
X1790000Y1828060D01*
G01X1845000Y1950000D02*
Y2040000D01*
G01X1645000Y1950000D02*
Y2545000D01*
X1940000Y2840000D01*
G01X1790000Y1700000D02*
X1900000D01*
X1935000Y1735000D01*
Y1950000D01*
G01X1869800Y4545000D02*
X2100000D01*
X2105000Y4550000D01*
G01X3230000Y4944800D02*
Y5605000D01*
X3352000Y5727000D01*
G01X3480000Y4944800D02*
Y5601000D01*
X3606000Y5727000D01*
G01X3740000Y4944800D02*
Y5607000D01*
X3860000Y5727000D01*
G01Y4944800D02*
Y5473000D01*
G01X3610000Y4944800D02*
X3606000Y4948800D01*
Y5473000D01*
G01X4120000Y1440000D02*
X4315000D01*
X4330000Y1455000D01*
G01X4120000Y1567000D02*
X4308000D01*
X4330000Y1545000D01*
G01X5758000Y1277500D02*
X4732500D01*
X4630000Y1380000D01*
X4250000D01*
X4165000Y1295000D01*
Y1263500D01*
G01X4120000Y1694000D02*
X4309000D01*
X4330000Y1715000D01*
G01X4120000Y1821000D02*
X4314000D01*
X4330000Y1805000D01*
G01X4120000Y2618120D02*
X4313120D01*
X4330000Y2635000D01*
G01X4165000Y2426500D02*
Y2455000D01*
X4250000Y2540000D01*
X5120000D01*
X5220000Y2440000D01*
Y1520000D01*
X5267500Y1472500D01*
X5758000D01*
G01X4120000Y2745120D02*
X4309880D01*
X4330000Y2725000D01*
G01X4120000Y2872120D02*
X4303000D01*
X4330000Y2899120D01*
G01X4120000Y2999120D02*
X4320000D01*
X4330000Y2989120D01*
G01X4130000Y3787150D02*
X4322150D01*
X4340000Y3805000D01*
G01X5758000Y1667500D02*
X5452500D01*
X5410000Y1710000D01*
Y2760000D01*
X5190000Y2980000D01*
Y3490000D01*
X5020000Y3660000D01*
X4680000D01*
X4620000Y3720000D01*
X4250000D01*
X4175000Y3645000D01*
Y3613500D01*
G01X4130000Y4041150D02*
X4326150D01*
X4340000Y4055000D01*
G01X4130000Y3914150D02*
X4320850D01*
X4340000Y3895000D01*
G01X4130000Y4168150D02*
X4316850D01*
X4340000Y4145000D01*
G01X4240000Y4944800D02*
Y5599000D01*
X4368000Y5727000D01*
G01X4110000Y4944800D02*
X4114000Y4948800D01*
Y5473000D01*
G01X4330000Y1455000D02*
X4505000D01*
G01X4445000Y1545000D02*
X4330000D01*
G01X5758000Y1342500D02*
X4737500D01*
X4535000Y1545000D01*
G01X4445000Y1805000D02*
X4330000D01*
G01X5030000Y1860000D02*
X4590000D01*
X4535000Y1805000D01*
G01X4330000Y2635000D02*
X5025000D01*
G01X5758000Y1537500D02*
X5312500D01*
X5270000Y1580000D01*
Y2510000D01*
X5050000Y2730000D01*
X4540000D01*
X4535000Y2725000D01*
G01X4330000D02*
X4445000D01*
G01X4330000Y2989120D02*
X4445000D01*
G01X5020000Y2990000D02*
X4535880D01*
X4535000Y2989120D01*
G01X4340000Y3805000D02*
X4435000D01*
G01X4545000Y3895000D02*
X4730000Y3710000D01*
X5050000D01*
X5250000Y3510000D01*
Y3030000D01*
X5470000Y2810000D01*
Y1780000D01*
X5517500Y1732500D01*
X5758000D01*
G01X4340000Y3895000D02*
X4455000D01*
G01X4545000Y4145000D02*
X4850000Y3840000D01*
X5070000D01*
X5360000Y3550000D01*
Y3240000D01*
X5650000Y2950000D01*
Y2050000D01*
X5710000Y1990000D01*
X6430000D01*
X6472040Y1947960D01*
Y1832040D01*
X6437500Y1797500D01*
X6338000D01*
G01X4340000Y4145000D02*
X4455000D01*
G01X4620000Y4944800D02*
X4622000Y4946800D01*
Y5473000D01*
G01X4370000Y4944800D02*
X4368000Y4946800D01*
Y5473000D01*
G01X4500000Y4944800D02*
Y5605000D01*
X4622000Y5727000D01*
G01X5758000Y1407500D02*
X4772500D01*
X4725000Y1455000D01*
G01X4890000Y2125000D02*
X4800000D01*
G01X4890000Y2190000D02*
X4800000D01*
G01X4980000Y2140000D02*
X4965000Y2125000D01*
X4890000D01*
G01X4980000Y2170000D02*
X4960000Y2190000D01*
X4890000D01*
G01Y3315000D02*
X4825000D01*
X4780000Y3360000D01*
G01X4890000Y3380000D02*
X4800000D01*
G01X4890000Y3315000D02*
X4965000D01*
X4990000Y3340000D01*
G01X4800000Y3380000D02*
X4780000Y3360000D01*
G01X4990000Y3340000D02*
X4950000Y3380000D01*
X4890000D01*
G01X4755000Y3805000D02*
X4790000Y3770000D01*
X5070000D01*
X5310000Y3530000D01*
Y3090000D01*
X5530000Y2870000D01*
Y1840000D01*
X5572500Y1797500D01*
X5758000D01*
G01X4890000Y4505000D02*
Y4420000D01*
G01X4810000Y4470000D02*
Y4550000D01*
X4830000Y4570000D01*
X4890000D01*
G01X5025000Y4640000D02*
Y4705000D01*
X4990000Y4740000D01*
X4810000D01*
X4750000Y4800000D01*
Y5900000D01*
G01X5000000Y4944800D02*
Y5603000D01*
X4876000Y5727000D01*
G01X4880000Y4944800D02*
X4876000Y4948800D01*
Y5473000D01*
G01X5275000Y2635000D02*
X5340000Y2570000D01*
Y1650000D01*
X5387500Y1602500D01*
X5758000D01*
G01X5510000Y2990000D02*
X5590000Y2910000D01*
Y1990000D01*
X5650000Y1930000D01*
X6220000D01*
X6287500Y1862500D01*
X6338000D01*
G01X5890000Y1860000D02*
X5760500D01*
X5758000Y1862500D01*
G01X6210000Y1730000D02*
X6212500Y1732500D01*
G01X6550000Y1840000D02*
X6442500Y1732500D01*
X6338000D01*
G01X6212500D02*
X6338000D01*
G01X6230000Y4452370D02*
X6273400Y4408970D01*
G01D02*
X6410000D01*
G01X7830000Y4385000D02*
Y4320000D01*
G01X8330000Y4730000D02*
X8430000Y4630000D01*
X9580000D01*
X9630000Y4680000D01*
Y5015000D01*
G01Y5105000D02*
X9738800D01*
X9770000Y5136200D01*
G54D14*
X1574000Y373000D03*
Y627000D03*
Y5473000D03*
Y5727000D03*
X1828000Y373000D03*
Y627000D03*
Y5473000D03*
Y5727000D03*
X2082000Y373000D03*
X2336000D03*
X2082000Y627000D03*
X2336000D03*
X2082000Y5473000D03*
X2336000D03*
X2082000Y5727000D03*
X2336000D03*
X2590000Y373000D03*
Y627000D03*
Y5473000D03*
Y5727000D03*
X2844000Y373000D03*
X3098000D03*
X2844000Y627000D03*
X3098000D03*
X2844000Y5473000D03*
X3098000D03*
X2844000Y5727000D03*
X3098000D03*
X3352000Y373000D03*
Y627000D03*
Y5473000D03*
Y5727000D03*
X3606000Y373000D03*
X3860000D03*
X3606000Y627000D03*
X3860000D03*
X3606000Y5473000D03*
X3860000D03*
X3606000Y5727000D03*
X3860000D03*
X4114000Y373000D03*
Y627000D03*
Y5473000D03*
Y5727000D03*
X4368000Y373000D03*
X4622000D03*
X4368000Y627000D03*
X4622000D03*
X4368000Y5473000D03*
X4622000D03*
X4368000Y5727000D03*
X4622000D03*
X4876000Y373000D03*
Y627000D03*
Y5473000D03*
Y5727000D03*
X5130000Y373000D03*
Y5473000D03*
G54D32*
X6960000Y3790000D03*
X7340000D03*
G54D23*
X4670000Y2190000D03*
Y3380000D03*
Y4570000D03*
X4890000Y2190000D03*
Y3380000D03*
Y4570000D03*
G54D42*
G01X2931040Y3957150D02*
Y3841040D01*
G01X8330000Y4450000D02*
X8470000Y4310000D01*
X8600000D01*
G54D24*
X5130000Y627000D03*
Y5727000D03*
X5770000Y627000D03*
G54D15*
X1390000Y2420000D03*
Y2840000D03*
Y3260000D03*
Y3680000D03*
X1940000Y2420000D03*
Y2840000D03*
Y3260000D03*
Y3680000D03*
G54D33*
X7150000Y4345050D03*
G54D34*
G01X4750000Y5900000D02*
X1747000D01*
X1574000Y5727000D01*
G01X2268400Y1630000D02*
Y1536600D01*
X2325000Y1480000D01*
G01X2268400Y2808120D02*
Y2903400D01*
X2325000Y2960000D01*
G01X2268400Y3957150D02*
Y4053400D01*
X2325000Y4110000D01*
G01X2471600Y1630000D02*
X2911040D01*
G01X2471600Y2808120D02*
X2931040D01*
G01X2471600Y3957150D02*
X2931040D01*
G01X2911040Y1630000D02*
X2931040Y1650000D01*
G01X4750000Y5900000D02*
X7570000D01*
X7800000Y5670000D01*
G01X5400000Y4453970D02*
X5410000Y4463970D01*
X5400000Y4473970D01*
Y4502230D01*
X5406200Y4508430D01*
G01D02*
Y5296200D01*
X5520000Y5410000D01*
X7370000D01*
X7680000Y5100000D01*
X8770000D01*
X8820000Y5150000D01*
Y5241910D01*
G01X7800000Y5240000D02*
X7968090D01*
X7970000Y5241910D01*
G01X7800000Y5240000D02*
Y5350000D01*
G01Y5670000D02*
X7968400D01*
X7970000Y5668400D01*
G01X8820000D02*
X8950000Y5538400D01*
Y5320000D01*
X8871910Y5241910D01*
X8820000D01*
X7220000Y4240000D03*
X7080000D03*
X7150000Y4345050D03*
X7080000Y4450000D03*
X7220000D03*
G54D25*
X5400000Y4453970D03*
X7800000Y5240000D03*
Y5670000D03*
G54D16*
X1309800Y4155000D03*
Y4220000D03*
Y4285000D03*
Y4350000D03*
Y4415000D03*
Y4480000D03*
Y4545000D03*
X1869800Y4220000D03*
Y4155000D03*
Y4545000D03*
Y4480000D03*
Y4415000D03*
Y4350000D03*
Y4285000D03*
G54D35*
X7750000Y3750000D03*
Y4030000D03*
X8040000Y3750000D03*
Y4030000D03*
Y4480000D03*
Y4860000D03*
X8330000Y4450000D03*
Y4730000D03*
G54D17*
X2268400Y1630000D03*
Y2808120D03*
Y3957150D03*
X2471600Y1630000D03*
Y2808120D03*
Y3957150D03*
X3748400Y1263500D03*
Y2423000D03*
X3758400Y3610000D03*
X3951600Y1263500D03*
Y2423000D03*
X3961600Y3610000D03*
X6608400Y1720000D03*
X6811600D03*
G54D26*
X5758000Y1602500D03*
Y1537500D03*
Y1472500D03*
Y1407500D03*
Y1342500D03*
Y1277500D03*
Y1862500D03*
Y1797500D03*
Y1732500D03*
Y1667500D03*
X6338000Y1277500D03*
Y1342500D03*
Y1407500D03*
Y1472500D03*
Y1537500D03*
Y1602500D03*
Y1667500D03*
Y1732500D03*
Y1797500D03*
Y1862500D03*
G54D18*
X2931040Y1650000D03*
Y2808120D03*
Y3957150D03*
G54D27*
X5610000Y3790000D03*
X6650000D03*
G54D36*
X8320000Y5248510D03*
Y5438510D03*
Y5675000D03*
Y5865000D03*
X8580000Y5438510D03*
Y5343510D03*
Y5248510D03*
Y5770000D03*
Y5675000D03*
Y5865000D03*
G54D19*
X3480000Y4854800D03*
Y4944800D03*
X3230000Y4854800D03*
Y4944800D03*
X3740000Y4854800D03*
Y4944800D03*
X3860000Y4854800D03*
Y4944800D03*
X3610000Y4854800D03*
Y4944800D03*
X4240000Y4854800D03*
Y4944800D03*
X4110000Y4854800D03*
Y4944800D03*
X4330000Y1545000D03*
Y1455000D03*
Y1715000D03*
Y1805000D03*
X4670000Y2125000D03*
Y2255000D03*
X4330000Y2725000D03*
Y2635000D03*
Y2899120D03*
Y2989120D03*
X4670000Y3315000D03*
Y3445000D03*
X4340000Y3895000D03*
Y3805000D03*
Y4055000D03*
Y4145000D03*
X4670000Y4505000D03*
Y4635000D03*
X4620000Y4854800D03*
Y4944800D03*
X4370000Y4854800D03*
Y4944800D03*
X4500000Y4854800D03*
Y4944800D03*
X4890000Y2255000D03*
Y2125000D03*
Y3445000D03*
Y3315000D03*
Y4635000D03*
Y4505000D03*
X4880000Y4854800D03*
Y4944800D03*
X5000000Y4854800D03*
Y4944800D03*
X6560000Y4615000D03*
X6410000D03*
Y4408970D03*
Y4498970D03*
X6560000D03*
Y4408970D03*
Y4705000D03*
X6410000D03*
X6680000Y4408970D03*
Y4498970D03*
X7560000Y3865000D03*
Y3955000D03*
X7700000Y4585000D03*
Y4675000D03*
X7830000Y4475000D03*
Y4385000D03*
Y4585000D03*
Y4675000D03*
X8130000Y5195000D03*
Y5285000D03*
Y5395000D03*
Y5625000D03*
Y5715000D03*
Y5485000D03*
Y5824610D03*
Y5914610D03*
X9630000Y5015000D03*
Y5105000D03*
G54D28*
X5600000Y4452370D03*
Y4655570D03*
X5810000Y4452370D03*
Y4655570D03*
X6020000Y4452370D03*
Y4655570D03*
X6230000Y4452370D03*
Y4655570D03*
X7970000Y5241910D03*
Y5445110D03*
Y5668400D03*
Y5871600D03*
X8820000Y5241910D03*
Y5445110D03*
Y5668400D03*
Y5871600D03*
G54D37*
X8600000Y4310000D03*
X9200000D03*
G54D29*
X6024000Y627000D03*
X6532000D03*
X6278000D03*
X6786000D03*
X7294000D03*
X7040000D03*
X7548000D03*
G54D38*
X8880000Y4790000D03*
G54D39*
X9770000Y4983800D03*
Y5136200D03*
M02*
